<svg preserveAspectRatio="none" width="100%" height="100%" overflow="visible" style="display: block;" viewBox="0 0 56 43" fill="none" xmlns="http://www.w3.org/2000/svg">
<g id="ca" clip-path="url(#clip0_14169_49241)">
<path id="Vector" d="M13.1338 0H42.8575V43H13.125L13.1338 0Z" fill="var(--fill-0, white)"/>
<path id="Vector_2" d="M-1.72375 0H13.1338V43H-1.72375V0ZM42.8575 0H57.715V43H42.8663L42.8575 0ZM17.5875 20.7833L16.4238 21.1775L21.7963 26.015C22.2075 27.2423 21.6563 27.6096 21.3063 28.2546L27.1338 27.5021L26.9938 33.5042L28.21 33.4773L27.9388 27.511L33.775 28.2277C33.4163 27.4483 33.0925 27.0362 33.425 25.791L38.7888 21.2223L37.8525 20.864C37.0825 20.2548 38.185 17.9435 38.3425 16.4833C38.3425 16.4833 35.2188 17.5852 35.0175 17.0029L34.2125 15.4352L31.36 18.6423C31.0538 18.7229 30.9225 18.5975 30.8438 18.3287L32.1563 11.6279L30.0738 12.8283C29.8988 12.909 29.7238 12.8373 29.6188 12.6312L27.6063 8.51042L25.5413 12.7925C25.3838 12.9448 25.2263 12.9627 25.1038 12.8552L23.1 11.7175L24.2988 18.3556C24.2025 18.6244 23.975 18.696 23.7125 18.5527L20.9825 15.3904C20.6325 15.9727 20.3875 16.9223 19.915 17.1373C19.4425 17.3433 17.8588 16.7342 16.8 16.5102C17.1675 17.836 18.2875 20.0577 17.5875 20.7833Z" fill="var(--fill-0, #D52B1E)"/>
</g>
<defs>
<clipPath id="clip0_14169_49241">
<rect width="56" height="43" fill="white"/>
</clipPath>
</defs>
</svg>
