<svg preserveAspectRatio="none" width="100%" height="100%" overflow="visible" style="display: block;" viewBox="0 0 21 23.0525" fill="none" xmlns="http://www.w3.org/2000/svg">
<g id="Frame 6355131">
<path id="Union" fill-rule="evenodd" clip-rule="evenodd" d="M14.2168 22.6265H16.2247V0H12.1469V7.55729C11.9294 7.23485 11.6625 6.96278 11.3461 6.7411C11.0298 6.51942 10.6887 6.34309 10.323 6.21209C9.9671 6.07102 9.59639 5.97026 9.21085 5.9098C8.83519 5.84934 8.46942 5.81911 8.11354 5.81911C6.99647 5.81911 5.94364 6.03576 4.95508 6.46904C3.9764 6.90233 3.11635 7.50187 2.37493 8.26768C1.6434 9.03348 1.06509 9.94036 0.640004 10.9883C0.214922 12.0362 0.00238076 13.1698 0.00238076 14.3891C0.00238076 15.6184 0.214922 16.757 0.640004 17.805C1.06509 18.8428 1.6434 19.7447 2.37493 20.5105C3.11635 21.2662 3.9764 21.8607 4.95508 22.294C5.94364 22.7172 6.99647 22.9288 8.11354 22.9288C8.62759 22.9288 9.13176 22.8633 9.62604 22.7323C10.1302 22.6013 10.6195 22.425 11.0941 22.2033C11.4395 22.0346 11.7718 21.8472 12.091 21.6411V22.6266H14.2168L14.2168 22.6265ZM11.8207 12.7567C12.0381 13.2807 12.1469 13.8248 12.1469 14.3891C12.1469 14.9534 12.0381 15.5025 11.8207 16.0366C11.6131 16.5605 11.3264 17.0291 10.9606 17.4422C10.5948 17.8453 10.1648 18.1728 9.67053 18.4247C9.18613 18.6665 8.66714 18.7874 8.11354 18.7874C7.55995 18.7874 7.03601 18.6715 6.54173 18.4398C6.05733 18.208 5.63225 17.8906 5.26648 17.4876C4.9106 17.0845 4.62886 16.616 4.42126 16.0819C4.21366 15.5479 4.10986 14.9836 4.10986 14.3891C4.10986 13.7039 4.21366 13.0892 4.42126 12.5451C4.62886 12.001 4.9106 11.5425 5.26648 11.1697C5.63225 10.7868 6.05733 10.4946 6.54173 10.293C7.03601 10.0915 7.55995 9.99074 8.11354 9.99074C8.66714 9.99074 9.18613 10.1167 9.67053 10.3686C10.1648 10.6104 10.5948 10.9379 10.9606 11.3511C11.3264 11.7541 11.6131 12.2227 11.8207 12.7567Z" fill="var(--fill-0, #D9D9D9)"/>
<path id="Ellipse 465" d="M20.8862 21.0767C20.8862 22.1679 20.0183 23.0525 18.9477 23.0525C17.8771 23.0525 17.0092 22.1679 17.0092 21.0767C17.0092 19.9854 17.8771 19.1008 18.9477 19.1008C20.0183 19.1008 20.8862 19.9854 20.8862 21.0767Z" fill="var(--fill-0, #D9D9D9)"/>
</g>
</svg>
