<svg preserveAspectRatio="none" width="100%" height="100%" overflow="visible" style="display: block;" viewBox="0 0 43.2588 43.2588" fill="none" xmlns="http://www.w3.org/2000/svg">
<g id="Group 1000007831">
<circle id="Ellipse 2111" cx="21.6294" cy="21.6294" r="21.6294" fill="var(--fill-0, #203A65)"/>
<g id="Frame">
<path id="Vector" d="M25.8924 21.372C25.8924 22.2116 25.6434 23.0324 25.177 23.7305C24.7105 24.4286 24.0475 24.9727 23.2718 25.294C22.4961 25.6153 21.6426 25.6994 20.8191 25.5356C19.9956 25.3718 19.2392 24.9675 18.6455 24.3738C18.0518 23.7801 17.6475 23.0237 17.4837 22.2002C17.3199 21.3767 17.404 20.5232 17.7253 19.7475C18.0466 18.9718 18.5907 18.3088 19.2888 17.8423C19.9869 17.3758 20.8077 17.1269 21.6473 17.1269C22.7728 17.1281 23.8518 17.5758 24.6476 18.3716C25.4435 19.1675 25.8911 20.2465 25.8924 21.372ZM31.6812 22.1438C31.6812 24.1284 31.0928 26.0683 29.9902 27.7184C28.8877 29.3685 27.3206 30.6546 25.4871 31.414C23.6536 32.1735 21.6361 32.3722 19.6897 31.985C17.7433 31.5979 15.9554 30.6422 14.5522 29.2389C13.1489 27.8357 12.1932 26.0478 11.8061 24.1014C11.4189 22.155 11.6176 20.1375 12.3771 18.304C13.1365 16.4705 14.4226 14.9034 16.0727 13.8009C17.7228 12.6983 19.6627 12.1099 21.6473 12.1099C24.3076 12.1127 26.8581 13.1707 28.7393 15.0519C30.6204 16.933 31.6784 19.4835 31.6812 22.1438ZM30.1376 22.1438C30.1363 21.0011 29.9046 19.8703 29.4564 18.8191C29.0081 17.7679 28.3524 16.8179 27.5285 16.0259C26.7047 15.234 25.7296 14.6163 24.6615 14.2098C23.5935 13.8034 22.4544 13.6165 21.3125 13.6603C16.7682 13.8359 13.1444 17.6208 13.157 22.168C13.1613 24.238 13.9248 26.2345 15.3027 27.7793C15.8639 26.9654 16.5767 26.2673 17.4021 25.7233C17.4725 25.6768 17.5562 25.6546 17.6403 25.6602C17.7245 25.6658 17.8045 25.6988 17.8681 25.7541C18.917 26.6614 20.2575 27.1607 21.6444 27.1607C23.0312 27.1607 24.3717 26.6614 25.4206 25.7541C25.4843 25.6988 25.5643 25.6658 25.6484 25.6602C25.7326 25.6546 25.8162 25.6768 25.8866 25.7233C26.7131 26.267 27.4269 26.9651 27.9889 27.7793C29.3737 26.2289 30.1386 24.2226 30.1376 22.1438Z" fill="var(--fill-0, white)"/>
</g>
</g>
</svg>
