<svg preserveAspectRatio="none" width="100%" height="100%" overflow="visible" style="display: block;" viewBox="0 0 462.763 24.5" fill="none" xmlns="http://www.w3.org/2000/svg">
<path id="Vector 83" d="M0 23.5H15.5H22.1816C23.6824 23.5 25.1385 22.9892 26.3104 22.0517C28.2652 20.4879 30.9358 20.1627 33.2088 21.2117L35.0702 22.0709C35.6868 22.3554 36.3415 22.5488 37.0137 22.6448L41.9277 23.3468C42.6383 23.4483 43.3604 23.4399 44.0684 23.3219L48.4285 22.5952C48.8089 22.5319 49.1938 22.5 49.5793 22.5H51.9625C52.9754 22.5 53.9763 22.2802 54.8959 21.8557L57.7611 20.5333C59.2101 19.8646 60.844 19.711 62.3922 20.0981L64 20.5L67.7483 21.9993C68.5752 22.3301 69.4575 22.5 70.3481 22.5H75H77.7884C78.5824 22.5 79.3626 22.2928 80.0519 21.8989L80.3989 21.7007C81.6866 20.9648 83.2795 21.0197 84.5136 21.8424C85.1568 22.2712 85.9125 22.5 86.6856 22.5H88.6537C89.5431 22.5 90.4243 22.6697 91.25 23C92.0757 23.3303 92.9569 23.5 93.8463 23.5H97H99.3641C100.116 23.5 100.864 23.3787 101.578 23.1408L103.5 22.5L108.638 21.1298C110.14 20.7294 111.741 20.9939 113.034 21.8558C113.671 22.2804 114.39 22.5651 115.146 22.6909L119.429 23.4048C119.809 23.4681 120.194 23.5 120.579 23.5H124.638C125.211 23.5 125.781 23.4298 126.336 23.291L128.664 22.709C129.219 22.5702 129.789 22.5 130.362 22.5H134.307C134.768 22.5 135.228 22.4545 135.68 22.3641L138.336 21.8328C139.429 21.6141 140.559 21.6598 141.632 21.9662L142.557 22.2307C143.183 22.4094 143.83 22.5 144.48 22.5H146.014C146.994 22.5 147.962 22.2945 148.857 21.8967L149.519 21.6026C151.115 20.8933 152.919 20.8062 154.576 21.3585L155 21.5L157.557 22.2307C158.183 22.4094 158.83 22.5 159.48 22.5H162.5H165H167H168.421C168.806 22.5 169.191 22.4681 169.571 22.4048L173.443 21.7594C174.468 21.5886 175.518 21.6481 176.517 21.9335L177.557 22.2307C178.183 22.4094 178.83 22.5 179.48 22.5H181H182.625C183.203 22.5 183.776 22.3897 184.312 22.175C185.396 21.7417 186.604 21.7417 187.688 22.175L189.748 22.9993C190.575 23.3301 191.458 23.5 192.348 23.5H195.197C196.373 23.5 197.522 23.1521 198.5 22.5L198.646 22.4029C199.529 21.8141 200.566 21.5 201.628 21.5C202.205 21.5 202.781 21.5936 203.329 21.7763C206.18 22.7267 209.27 21.1888 210.221 18.3377L212.705 10.8863C213.742 7.77515 216.87 5.86467 220.112 6.36333C220.701 6.45404 221.276 6.62276 221.821 6.86505L223.391 7.56277C224.761 8.17148 226.29 8.32453 227.753 7.9994L229.25 7.66669C229.748 7.5559 230.258 7.5 230.768 7.5H234.188C234.722 7.5 235.249 7.62429 235.726 7.86302C236.542 8.27087 237.486 8.33798 238.351 8.04959L241.066 7.1446C242.329 6.72361 243.686 6.6715 244.978 6.99439L245.67 7.16743C246.548 7.38706 247.461 7.43414 248.357 7.30608L253.12 6.62568C253.704 6.54223 254.297 6.53297 254.883 6.59814L263 7.5H266.465C266.821 7.5 267.177 7.47279 267.529 7.4186L272.971 6.5814C273.323 6.52721 273.679 6.5 274.035 6.5H278.5H280H281.869C282.289 6.5 282.708 6.53779 283.121 6.61291L292.015 8.22994C292.994 8.40793 293.999 8.37517 294.965 8.13385L300.664 6.709C301.219 6.57019 301.789 6.5 302.362 6.5H304.232C304.742 6.5 305.252 6.5559 305.75 6.66669L308.75 7.33331C309.248 7.4441 309.758 7.5 310.268 7.5H315.921C316.306 7.5 316.691 7.46814 317.071 7.40476L321.929 6.59524C322.309 6.53186 322.694 6.5 323.079 6.5H327L337.5 7.5H342.232C342.742 7.5 343.252 7.4441 343.75 7.33331L346.75 6.66669C347.248 6.5559 347.758 6.5 348.268 6.5H356.086C356.991 6.5 357.86 6.85971 358.5 7.5C359.14 8.14029 360.009 8.5 360.914 8.5H367.188C367.727 8.5 368.265 8.43756 368.791 8.31392L375.176 6.81145C376.051 6.60574 376.956 6.5702 377.844 6.70677L382.471 7.4186C382.823 7.47279 383.179 7.5 383.535 7.5H386.462C387.793 7.5 389.097 7.12037 390.22 6.40563L391.189 5.78876C392.967 4.65708 395.161 4.38703 397.161 5.05361L397.422 5.14078C398.136 5.37871 398.884 5.5 399.636 5.5H404.578C405.466 5.5 406.296 5.05594 406.789 4.31665L407.526 3.2111C408.227 2.15924 409.773 2.15924 410.474 3.2111C410.803 3.70396 411.356 4 411.948 4H418H420.638C421.211 4 421.781 4.07019 422.336 4.209L424.146 4.66147C426.208 5.17691 428.385 4.50435 429.797 2.91596L430.574 2.0423C431.163 1.37932 432.008 1 432.895 1H434.5C435.328 1 436 1.67157 436 2.5C436 3.32843 436.672 4 437.5 4H438.828C439.579 4 440.298 3.70201 440.828 3.17157L441.276 2.72428C442.317 1.68288 443.888 1.38042 445.241 1.96057C446.052 2.30806 446.962 2.34591 447.799 2.06696L449.558 1.48057C450.481 1.17286 451.489 1.24447 452.359 1.67962C453.392 2.19606 454.608 2.19606 455.641 1.67962L455.701 1.64972C456.537 1.23132 457.499 1.1361 458.402 1.38226L462.5 2.5" stroke="var(--stroke-0, #565656)" stroke-width="2"/>
</svg>
