<svg preserveAspectRatio="none" width="100%" height="100%" overflow="visible" style="display: block;" viewBox="0 0 111.173 25.8542" fill="none" xmlns="http://www.w3.org/2000/svg">
<g id="knowles 1" clip-path="url(#clip0_13455_223455)">
<path id="Vector" d="M0.934146 12.8889C4.35819 8.71872 7.74851 4.51504 11.1629 0.33528C11.1678 8.77139 11.1678 17.2075 11.1629 25.6436C7.60886 22.1533 3.95847 18.7492 0.457382 15.2015C-0.303515 14.5024 0.38996 13.4826 0.934146 12.8889Z" fill="var(--fill-0, #D9D9D9)"/>
<path id="Vector_2" d="M17.0858 8.43638C20.0957 8.44116 23.1103 8.43638 26.1251 8.44116C24.9452 10.2414 23.6112 11.9458 22.4987 13.7939C21.9883 14.5121 22.6528 15.2446 23.0911 15.7952C25.4075 18.5482 27.7046 21.3203 30.0018 24.0877C26.7174 24.0925 23.433 24.0877 20.1486 24.0877C17.8178 21.2677 15.4821 18.4429 13.1512 15.6229C12.6649 15.1058 12.2314 14.2823 12.7757 13.6455C14.1482 11.8597 15.6699 10.1887 17.0858 8.43638Z" fill="var(--fill-0, #D9D9D9)"/>
<path id="Vector_3" d="M37.1401 8.43638C37.9828 8.44116 38.8256 8.44116 39.6684 8.43638C39.6732 13.6647 39.6732 18.893 39.6684 24.1213C38.8256 24.1165 37.9828 24.1165 37.1401 24.1213C37.1401 18.893 37.1401 13.6647 37.1401 8.43638Z" fill="var(--fill-0, #D9D9D9)"/>
<path id="Vector_4" d="M87.315 24.1213C87.315 18.893 87.315 13.6647 87.315 8.43638C88.1575 8.44116 89.0001 8.44116 89.8433 8.43638C89.8433 13.6647 89.8433 18.893 89.8433 24.1213C89.0001 24.1165 88.1575 24.1165 87.315 24.1213Z" fill="var(--fill-0, #D9D9D9)"/>
<path id="Vector_5" d="M44.7924 12.9512C45.7796 12.956 46.762 12.956 47.7492 12.956C46.1937 14.8184 44.6431 16.6761 43.0876 18.529C44.6431 20.3914 46.2034 22.2539 47.7589 24.1164C46.7716 24.1164 45.7844 24.1164 44.7972 24.1211C43.2417 22.2539 41.6765 20.3962 40.121 18.529C41.6813 16.6761 43.232 14.8089 44.7924 12.9512Z" fill="var(--fill-0, #D9D9D9)"/>
<path id="Vector_6" d="M48.6112 12.9512C49.4009 12.9608 50.1907 12.9656 50.9805 12.9608C51.0046 13.4204 51.0479 14.3349 51.0672 14.7945C52.5456 12.3144 57.0533 11.8308 58.079 14.9094C58.7243 17.9258 58.2476 21.057 58.392 24.1211C57.5493 24.1163 56.7065 24.1163 55.8637 24.1211C55.7193 21.4113 56.172 18.6295 55.6085 15.9675C54.6309 13.9518 51.6788 15.1727 51.2791 17.0209C50.9371 19.3621 51.2357 21.756 51.1347 24.1211C50.2967 24.1163 49.4539 24.1163 48.6112 24.1211C48.6112 20.3963 48.6112 16.6761 48.6112 12.9512Z" fill="var(--fill-0, #D9D9D9)"/>
<path id="Vector_7" d="M63.2077 12.9704C65.6111 12.2714 68.6063 13.1236 69.733 15.4792C70.8025 17.7199 70.6822 20.674 69.04 22.6178C66.8002 25.1506 62.0375 24.8825 60.2893 21.9188C58.4931 18.9025 59.4514 13.9376 63.2077 12.9704ZM63.6942 15.0004C61.0599 16.59 61.45 22.2971 64.9944 22.3545C67.5856 22.2827 68.1922 19.0462 67.6188 17.0401C67.3444 15.2877 65.3121 14.1243 63.6942 15.0004Z" fill="var(--fill-0, #D9D9D9)"/>
<path id="Vector_8" d="M70.2186 12.956C71.0807 12.9607 71.9427 12.9607 72.8048 12.9512C73.4985 15.7377 74.187 18.5242 74.8807 21.3107C75.6413 18.5242 76.3929 15.7377 77.1438 12.9512C77.9916 12.9607 78.8342 12.9607 79.6819 12.956C80.4283 15.7425 81.1844 18.5242 81.9405 21.3059C82.629 18.5242 83.3181 15.7425 83.9969 12.956C84.8687 12.9655 85.7451 12.9607 86.6169 12.9512C85.5526 16.6761 84.4832 20.3962 83.4091 24.1211C82.5568 24.1164 81.7045 24.1164 80.8522 24.1211C80.0434 21.3633 79.234 18.6104 78.42 15.8574C77.6112 18.6104 76.8116 21.3681 76.0074 24.1211C75.1505 24.1164 74.2975 24.1164 73.4452 24.1211C72.3718 20.3962 71.2926 16.6761 70.2186 12.956Z" fill="var(--fill-0, #D9D9D9)"/>
<path id="Vector_9" d="M91.6741 15.5175C93.0953 12.4054 98.0025 11.7111 100.136 14.4402C101.219 15.7521 101.272 17.5044 101.354 19.1179C98.7436 19.1275 96.134 19.1179 93.5237 19.1275C93.7305 20.176 93.9905 21.3825 95.0307 21.9283C96.6827 22.8668 98.6572 22.1486 100.136 21.2245C100.444 21.7608 100.757 22.297 101.065 22.8332C98.9029 24.4036 95.7582 24.9351 93.3885 23.5131C90.812 21.8326 90.4609 18.1268 91.6741 15.5175ZM93.4613 17.3656C95.2908 17.3943 97.1209 17.3943 98.951 17.3704C98.8067 15.9771 97.9349 14.4019 96.3024 14.5503C94.6699 14.4545 93.7786 15.9962 93.4613 17.3656Z" fill="var(--fill-0, #D9D9D9)"/>
<path id="Vector_10" d="M103.584 13.5019C105.751 12.1374 108.611 12.6976 110.595 14.1339C110.263 14.6941 109.926 15.2542 109.594 15.8192C108.371 15.1058 106.979 14.3063 105.51 14.7755C104.658 14.9048 104.306 16.1448 105.076 16.6092C106.56 17.4758 108.438 17.5428 109.767 18.6823C111.279 20.042 110.755 22.6658 109.059 23.6377C106.666 25.0261 103.564 24.2505 101.585 22.4791C102.009 21.9428 102.433 21.4114 102.856 20.8751C104.19 22.0625 107.417 23.4414 108.193 21.081C107.475 19.4675 105.245 19.6734 103.892 18.802C101.759 17.9211 101.657 14.651 103.584 13.5019Z" fill="var(--fill-0, #D9D9D9)"/>
</g>
<defs>
<clipPath id="clip0_13455_223455">
<rect width="111.173" height="25.8542" fill="white"/>
</clipPath>
</defs>
</svg>
