<svg preserveAspectRatio="none" width="100%" height="100%" overflow="visible" style="display: block;" viewBox="0 0 6.02459 17.1827" fill="none" xmlns="http://www.w3.org/2000/svg">
<g id="Group">
<path id="Vector" opacity="0.964" fill-rule="evenodd" clip-rule="evenodd" d="M0.000151628 0C1.60459 0 3.20903 0 4.81346 0C4.79073 5.10121 4.81346 10.2023 4.88031 15.3032C5.13168 15.8251 5.48866 16.2726 5.94994 16.6456C6.01545 16.8192 6.03818 16.9983 6.01679 17.1826C4.01124 17.1826 2.0057 17.1826 0.000151628 17.1826C0.194021 16.6494 0.528279 16.2018 1.00292 15.8402C1.11791 15.6271 1.20749 15.4034 1.27033 15.169C1.35991 10.7391 1.35991 6.30922 1.27033 1.87934C1.20749 1.64496 1.11791 1.42119 1.00292 1.20815C0.587108 0.858994 0.25285 0.456278 0.000151628 0Z" fill="var(--fill-0, #D9D9D9)"/>
</g>
</svg>
