<svg preserveAspectRatio="none" width="100%" height="100%" overflow="visible" style="display: block;" viewBox="0 0 160.835 27.1845" fill="none" xmlns="http://www.w3.org/2000/svg">
<g id="Group 1000002893">
<path id="Path 1" d="M39.4714 22.9142H32.449C33.3577 22.0928 33.6072 19.1358 33.936 13.7973L34.0184 12.5652C34.2664 9.60789 34.3491 7.22638 34.3491 5.58367C34.3491 4.18747 34.1837 3.28381 33.7699 2.95537H41.6179C43.5182 2.95537 47.2359 3.03728 47.2359 6.89768C47.2359 9.52598 44.8405 11.0865 42.6095 11.6607C45.7489 11.907 48.0622 13.4665 48.0622 16.671C48.1449 20.1208 44.8402 22.9135 39.4701 22.9135L39.4714 22.9142ZM39.2221 13.2212H37.8178L37.5701 16.1785C37.4874 17.4925 37.4047 18.56 37.4047 19.8746C37.4047 20.0389 37.9839 20.4503 39.3051 20.4503C42.1141 20.4503 43.9315 19.0538 43.9315 16.754C44.0139 14.2081 41.7835 13.2223 39.2221 13.2223V13.2212ZM39.8013 5.3374C39.3316 5.32617 38.8618 5.35357 38.3966 5.41932C38.1698 6.83295 38.0324 8.25934 37.9852 9.69007C37.9852 9.69007 37.9025 10.9222 37.9025 10.84H38.3982C40.9593 10.84 43.2729 9.9366 43.2729 7.63674C43.355 6.32272 42.1983 5.33714 39.8026 5.33714L39.8013 5.3374ZM64.5874 23.0783C62.8526 23.0783 62.6873 22.9962 61.3656 18.3153L60.8696 16.5904C60.0436 17.001 58.5565 17.1662 56.2432 17.1662H53.8477L53.4347 18.0696C53.0217 18.9732 52.0303 20.8625 52.0303 22.0122C52.0236 22.3154 52.0512 22.6185 52.1127 22.9156H47.3218C48.6435 21.6015 50.4614 18.398 52.8571 13.3058L54.2615 10.3485C55.5009 7.63805 56.9052 4.59887 56.9052 4.18852C56.9026 3.79233 56.8183 3.40087 56.6575 3.03833H61.0344C61.0344 3.03833 62.1911 7.30934 63.1824 10.9235L64.0088 14.0446C65.4958 19.3833 66.4872 21.9295 67.6438 22.9163C66.4872 22.9988 65.0828 23.081 64.5868 23.081L64.5874 23.0783ZM58.308 7.6404L55.0033 14.6221H60.2908L58.3073 7.637L58.308 7.6404ZM83.588 23.7355C82.1009 23.7355 81.7716 23.4892 81.2749 22.8321L75.5744 15.1118C75.1614 14.4547 74.7481 14.044 74.0874 14.044H74.005L73.9224 15.6046C73.84 17.6582 73.6746 19.3006 73.6746 20.5327C73.6746 21.8468 73.84 22.6682 74.2538 22.9967H68.801C69.6273 22.3395 69.875 20.0394 70.3707 13.8797L70.4531 12.6476C70.7008 9.69033 70.7837 7.30882 70.7837 5.6661C70.7837 4.26991 70.6184 3.36651 70.2046 3.03781H77.5577C80.0361 3.03781 83.2581 3.44842 83.2581 7.30882C83.2581 10.5121 81.1101 12.237 78.4672 13.0582C78.8178 13.424 79.1487 13.8079 79.4585 14.2084L83.5069 19.5472C86.0679 22.9148 86.233 23.0802 87.1422 23.4897C85.9645 23.6508 84.7773 23.7331 83.5885 23.7363L83.588 23.7355ZM76.3181 5.4201C75.7935 5.40648 75.2686 5.43395 74.7484 5.50228C74.5831 6.3235 74.5007 7.80187 74.3354 10.1839L74.253 11.5804C74.5508 11.6482 74.8564 11.6757 75.1617 11.6623C77.6401 11.6623 79.3751 10.1017 79.3751 7.88405C79.2924 6.32351 78.2184 5.4201 76.3181 5.4201V5.4201ZM94.246 23.3257C89.0412 23.3257 86.0672 19.0546 86.0672 14.3727C86.0672 7.80213 89.7022 2.62746 96.5593 2.62746C98.7074 2.62746 99.6987 3.03807 101.516 3.03807L101.021 8.12979C100.029 6.32403 98.377 5.17253 96.2298 5.17253C91.9337 5.17253 90.199 9.77198 90.199 13.7146C90.199 17.9856 92.6774 20.3676 95.8167 20.3676C97.5518 20.3676 99.1215 19.957 101.683 18.1499C100.608 21.271 98.2125 23.3246 94.2471 23.3246L94.246 23.3257ZM129.607 23.0781C127.872 23.0781 127.791 22.9959 126.385 18.3151L125.889 16.5902C125.063 17.0008 123.576 17.1659 121.263 17.1659H118.784L118.371 18.0693C117.71 19.3836 116.967 20.9441 116.967 22.0119C116.967 22.2582 117.049 22.5876 117.049 22.9153H102.838C103.665 22.0119 103.912 19.0549 104.325 13.7983L104.408 12.5662C104.656 9.52729 104.738 7.22743 104.738 5.58471C104.738 4.2707 104.573 3.36703 104.243 2.95642H109.778C108.952 3.53217 108.704 6.73464 108.374 12.0734L108.291 13.3055C108.208 15.2767 107.878 17.33 107.878 19.22C107.878 20.1234 108.208 20.37 109.2 20.37C112.587 20.37 113.331 20.288 114.9 19.3022C115.892 17.5773 116.883 15.4418 117.957 13.2241L119.361 10.2669C120.683 7.47422 122.005 4.59939 122.005 4.1066C122.002 3.71049 121.918 3.31913 121.757 2.95668H126.136C126.136 2.95668 127.871 9.44538 128.284 10.8416L129.11 13.9629C130.598 19.3017 131.506 21.8478 132.828 22.8347C131.759 22.9748 130.684 23.0571 129.606 23.0812L129.607 23.0781ZM123.327 7.64066L120.105 14.6187H125.31L123.327 7.637L123.327 7.64066ZM142.164 12.1543C141.751 12.9758 141.09 13.96 140.76 14.7826C140.429 16.2609 140.347 18.2324 140.347 20.3679C140.347 21.2713 140.512 22.5034 140.926 22.914H135.472C136.463 22.0106 136.794 16.5075 136.794 14.7004C135.955 11.9828 134.877 9.34428 133.572 6.81551C132.58 5.00975 131.506 3.2825 130.763 2.95511C132.002 2.87293 133.572 2.79076 134.316 2.79076C135.638 2.79076 136.051 2.9551 136.877 4.76191C138.199 7.71917 139.108 9.93633 139.686 11.4969C141.008 9.36137 142 7.883 143.24 5.82967C143.488 5.33688 143.819 4.67974 143.819 4.10478C143.819 3.69416 143.737 3.11919 143.572 2.95484H148.942C147.785 3.20163 143.158 10.5118 142.167 12.1543H142.164ZM160.339 7.637C159.861 6.83983 159.184 6.17897 158.373 5.71848C157.562 5.258 156.646 5.0135 155.712 5.0087C153.977 5.0087 152.49 5.66584 152.49 7.47291C152.49 9.03345 154.391 10.019 156.373 11.333C158.521 12.6471 160.752 14.2903 160.752 17.1646C160.752 20.8609 157.117 23.243 152.821 23.243C150.9 23.2172 148.998 22.8558 147.203 22.1752L147.533 17.247C148.525 19.2182 150.342 20.7787 153.068 20.7787C155.134 20.7787 156.786 19.7929 156.786 17.9861C156.786 16.5077 155.547 15.5221 153.977 14.6187C150.673 12.6476 148.607 11.0857 148.607 8.21223C148.607 3.94121 152.16 2.54502 155.96 2.54502C158.108 2.54502 159.513 2.95563 160.835 2.95563L160.339 7.637Z" fill="var(--fill-0, #D9D9D9)"/>
<path id="Path 3" d="M24.4347 5.83077C24.1478 5.13069 23.6591 4.53056 23.03 4.10588C22.6742 3.83912 22.2858 3.61831 21.8741 3.44873C21.5248 3.34791 21.1638 3.29267 20.8001 3.28439H20.7159C20.2202 3.28439 19.3115 3.36656 18.8158 4.10588C18.6905 4.26685 18.6032 4.45376 18.5603 4.65281C18.5174 4.85185 18.5201 5.05792 18.5681 5.2558C18.6045 5.42537 18.6845 5.58266 18.8004 5.71225C18.9163 5.84184 19.064 5.93931 19.2291 5.99512C19.2985 6.05215 19.3869 6.08136 19.4768 6.07703C19.4625 6.16294 19.4346 6.24606 19.3942 6.3233C19.1464 6.56956 18.7332 6.98043 17.4941 6.98043H17.4122C16.7512 6.89852 16.2556 6.73417 15.5122 5.99486C15.0991 5.50207 14.8512 4.5984 14.8512 3.20221C14.8675 2.59091 14.7837 1.98104 14.6032 1.39645C14.4798 1.05778 14.2474 0.769032 13.9422 0.574962C13.6847 0.405196 13.4073 0.267306 13.1162 0.164348C12.6529 0.073949 12.1833 0.0190069 11.7115 0C11.2158 0 10.8852 0.0821703 10.7202 0.328696H10.2245C9.97677 0.328696 9.64535 0.410614 9.39843 0.410614C8.96897 0.500316 8.57004 0.698614 8.24018 0.986359C8.01841 1.1902 7.84852 1.44351 7.7445 1.72541C7.75985 1.91885 7.78737 2.11115 7.8269 2.30117L7.90955 2.38308C8.17204 2.19342 8.49527 2.10582 8.81825 2.13681C9.39738 2.13681 10.2226 2.38308 10.3879 2.79395C10.801 3.45109 10.6357 3.94388 10.6357 4.51885C10.3879 6.07939 9.80961 6.8187 8.57028 6.98279C8.35592 7.04577 8.13265 7.07353 7.90929 7.06497C7.00059 7.06497 6.33959 6.8187 6.00897 6.24348V6.07912C6.07239 6.07319 6.13132 6.04399 6.17428 5.99721C6.33222 5.92967 6.4733 5.82844 6.58753 5.70068C6.70175 5.57292 6.78633 5.42176 6.83527 5.25789C6.87852 5.05973 6.87879 4.85468 6.83608 4.65639C6.79337 4.45811 6.70865 4.27115 6.58757 4.10797C6.34116 3.85295 6.04634 3.64903 5.72015 3.50803C5.39397 3.36702 5.04289 3.29172 4.68724 3.28648C4.29596 3.28874 3.90682 3.34403 3.53057 3.45083C2.53895 3.69709 1.63024 4.51858 0.969514 5.83234C0.436122 6.90892 0.127462 8.0817 0.0621281 9.28003C-0.0207094 10.4011 -0.0207094 11.5266 0.0621281 12.6476C0.114454 13.9187 0.394267 15.1703 0.888436 16.3437C1.2837 17.3762 1.78177 18.3669 2.37521 19.3009C2.49414 19.5311 2.6323 19.7509 2.78823 19.9581L2.87089 19.8762C2.97289 19.7825 3.05684 19.6711 3.1186 19.5475C3.52528 19.1511 3.88557 18.7103 4.19261 18.2335C4.42009 17.8971 4.61405 17.5395 4.77174 17.1657L4.8544 17.0016L5.01971 17.0835C5.18511 17.2622 5.27396 17.4979 5.26742 17.7407C5.236 18.0799 5.15246 18.4124 5.01971 18.7265C4.79874 19.378 4.52194 20.0095 4.19235 20.6139C4.27474 20.6961 4.27474 20.8604 4.19235 20.8604C4.03051 21.0731 3.94347 21.3328 3.94464 21.5995H4.02651C4.27662 21.5633 4.50837 21.4481 4.6875 21.2708C4.93521 21.1067 5.59621 20.5318 6.42251 19.3818C7.08351 18.5603 7.49653 17.6569 7.99221 16.6713L8.07487 16.507L8.23992 16.5892C8.32257 16.6711 8.40523 16.6711 8.48762 16.7533C8.56096 16.9642 8.58911 17.188 8.57028 17.4104C8.48763 18.0675 8.0746 18.9712 7.82663 19.6283C7.33095 20.7783 6.42225 22.0099 5.76126 22.9138C5.74341 22.9719 5.71148 23.0247 5.66829 23.0676C5.6251 23.1106 5.57196 23.1423 5.51355 23.16C5.60759 23.2615 5.71957 23.345 5.84391 23.4063L6.09189 23.6526C6.9614 24.3752 7.90248 25.0082 8.90065 25.5418C10.0494 26.2179 11.2683 26.7687 12.536 27.1845C13.6927 26.9383 15.345 26.0343 16.1713 25.5418C17.1696 25.0082 18.1107 24.3752 18.9803 23.6526L19.228 23.4063C19.3931 23.3244 19.4758 23.16 19.5584 23.16C19.6161 23.0603 19.6447 22.9466 19.6411 22.8316L19.5576 22.7505C18.7378 21.7425 18.0443 20.6393 17.4922 19.465C17.2445 18.8079 16.8313 17.9045 16.7486 17.2474C16.6883 17.026 16.718 16.79 16.8313 16.5902L16.9963 16.4259C17.0677 16.3723 17.1548 16.3436 17.2443 16.344L17.3267 16.508C17.7824 17.4485 18.3071 18.3545 18.8964 19.2185C19.7227 20.3684 20.3834 20.9434 20.6314 21.1078C20.8007 21.2981 21.0376 21.4159 21.2924 21.4362H21.375C21.4574 21.3543 21.375 21.1899 21.1271 20.7791C21.0958 20.7467 21.0721 20.7078 21.0579 20.6652C21.0436 20.6226 21.0391 20.5773 21.0447 20.5328C20.7153 19.9278 20.4388 19.2957 20.2184 18.6436C20.0943 18.3267 20.011 17.9956 19.9706 17.658C19.9639 17.4152 20.0528 17.1794 20.2184 17.0008L20.3837 16.9187L20.4661 17.083C20.6502 17.4858 20.8715 17.8707 21.1271 18.2329C21.2924 18.4792 21.9534 19.2188 22.1187 19.465C22.284 19.6294 22.3664 19.7113 22.3664 19.7935L22.4488 19.8757C22.5829 19.6983 22.694 19.5049 22.7794 19.2999L22.8618 19.218C23.4111 18.2724 23.8809 17.2832 24.2664 16.2607C24.6795 15.2752 24.9274 14.2074 25.0928 12.5647C25.2171 11.4456 25.2171 10.3164 25.0928 9.19733C25.1475 8.03862 24.9218 6.88377 24.4347 5.82973V5.83077Z" fill="var(--fill-0, #D9D9D9)"/>
</g>
</svg>
