<svg preserveAspectRatio="none" width="100%" height="100%" overflow="visible" style="display: block;" viewBox="0 0 81.0097 30.1632" fill="none" xmlns="http://www.w3.org/2000/svg">
<g id="Replenium-Primary-Logo-2 1">
<path id="Vector" d="M15.2327 2.11567C15.7427 1.80112 16.3899 1.79034 16.9068 2.10059C18.3292 2.86114 19.7539 3.62383 21.2033 4.33698C21.2078 3.56135 21.2033 2.78573 21.2056 2.0101C22.5831 2.02303 23.9584 2.02088 25.3358 2.01226C25.3516 3.48379 25.2954 4.95963 25.3583 6.43117C26.4572 7.31236 27.8954 7.74329 29.0594 8.5534C29.3402 8.77095 29.529 9.11353 29.5178 9.46689C29.5425 10.5593 29.5222 11.6537 29.5245 12.7482C28.6167 12.7461 27.7088 12.7461 26.8009 12.7482C26.792 11.9403 26.792 11.1345 26.7987 10.3287C23.2842 8.37242 19.6505 6.6143 16.1405 4.64938C12.6619 6.51088 9.17661 8.36593 5.72497 10.2705C5.70025 11.7334 5.75643 13.1985 5.7025 14.6593C5.67104 15.493 4.65083 16.1136 3.85085 15.7775C3.35872 15.5943 3.00142 15.1268 3.01491 14.6162C2.99243 12.9033 3.00142 11.1905 3.00592 9.47767C2.95648 8.91098 3.40367 8.47799 3.88905 8.2388C7.66876 6.19417 11.4597 4.16677 15.2327 2.11567Z" fill="var(--fill-0, #D9D9D9)"/>
<path id="Vector_2" d="M0.828954 21.6914C2.0222 19.8084 3.17273 17.8974 4.31428 15.9841C5.56145 17.8478 6.61986 19.817 7.8468 21.6914C7.13895 21.7 6.4311 21.7 5.72325 21.6936C5.71426 23.0423 5.70977 24.3932 5.73224 25.7419C12.7545 25.7376 19.7769 25.7441 26.7993 25.7398C26.7948 25.2378 26.7948 24.7358 26.7925 24.2359C27.7048 24.2402 28.6172 24.2402 29.5295 24.2359C29.5138 25.2098 29.561 26.1815 29.5093 27.1532C29.4868 27.8469 28.8082 28.4243 28.0891 28.3726C20.2241 28.3769 12.3591 28.351 4.49405 28.3403C3.75474 28.4178 2.99746 27.862 3.01543 27.123C2.98397 25.3153 3.01768 23.5055 3.0042 21.6979C2.27837 21.6979 1.55479 21.7 0.828954 21.6914Z" fill="var(--fill-0, #D9D9D9)"/>
<path id="Vector_3" d="M54.969 11.1495C55.6858 11.1516 56.4027 11.1495 57.1218 11.1516C57.1263 11.854 57.124 12.5564 57.124 13.2587C56.4027 13.2566 55.6836 13.2566 54.9645 13.2609C54.9645 12.5564 54.9645 11.8519 54.969 11.1495Z" fill="var(--fill-0, #D9D9D9)"/>
<path id="Vector_4" d="M9.34654 11.3456C10.7982 11.3478 12.2476 11.3478 13.6993 11.3435C14.5353 11.3499 15.4453 11.393 16.1487 11.8778C17.3397 12.6901 17.7217 14.4008 16.9711 15.6073C16.6857 16.1287 16.1442 16.4368 15.6498 16.7491C16.2813 18.1323 16.8902 19.5241 17.4588 20.9289C16.6318 20.9311 15.8048 20.9224 14.9757 20.9505C14.3128 19.7224 13.9397 18.3779 13.36 17.1154C12.8161 17.1176 12.2746 17.1176 11.733 17.1154C11.742 18.3499 11.7083 19.5823 11.76 20.8147C10.9667 20.9763 10.1533 20.8449 9.35103 20.9397C9.3353 17.7424 9.34654 14.5451 9.34654 11.3456ZM11.7285 13.0671C11.7353 13.8729 11.733 14.6786 11.733 15.4844C12.524 15.4672 13.3218 15.534 14.1083 15.4219C15.1667 15.1139 15.2408 13.457 14.1555 13.1425C13.36 12.9874 12.5353 13.093 11.7285 13.0671Z" fill="var(--fill-0, #D9D9D9)"/>
<path id="Vector_5" d="M34.8725 11.3435C35.5848 11.3478 36.2972 11.3478 37.0095 11.3435C36.9938 14.517 37.041 17.6928 36.9893 20.8643C36.3152 21.0086 35.6028 20.9052 34.9152 20.9483C34.8163 17.7489 34.8995 14.5451 34.8725 11.3435Z" fill="var(--fill-0, #D9D9D9)"/>
<path id="Vector_6" d="M77.8044 11.9404C78.0695 11.9404 78.337 11.9382 78.6067 11.9339C79.2762 12.3691 79.1504 13.2201 78.6134 13.7027C78.6449 13.4528 78.0853 13.1102 78.3617 12.8517C78.6358 12.5199 78.982 13.3171 78.6808 13.4377L78.9034 12.9853C78.9081 12.8496 78.9168 12.5802 78.9215 12.4445C78.355 12.591 77.3123 12.1149 77.3663 13.0176C77.7708 13.0823 78.0493 13.3343 78.0988 13.7329C77.8426 13.4549 77.2921 13.3343 77.2561 12.9077C77.1325 12.4962 77.5842 12.2312 77.8044 11.9404Z" fill="var(--fill-0, #D9D9D9)"/>
<path id="Vector_7" d="M19.64 14.5213C21.0243 13.2825 23.5029 13.4592 24.6489 14.9177C25.3028 15.7107 25.413 16.7577 25.4646 17.7316C23.8647 17.7424 22.2647 17.7229 20.6648 17.7445C20.7322 18.1948 20.6895 18.7076 21.0198 19.076C21.4018 19.6017 22.1748 19.6512 22.7546 19.4466C23.1501 19.2419 23.2917 18.8067 23.4984 18.4555C24.1343 18.5115 24.7703 18.5826 25.4085 18.6386C25.022 19.8042 24.0378 20.875 22.7097 21.0107C21.413 21.2047 19.9546 20.8297 19.1569 19.7762C18.0019 18.2271 18.1682 15.8334 19.64 14.5213ZM21.3097 15.2625C20.8917 15.5426 20.8041 16.0489 20.6603 16.4819C21.5524 16.5078 22.4467 16.5078 23.3389 16.4884C23.2152 16.0532 23.168 15.5361 22.7613 15.2431C22.3254 14.9845 21.7389 14.9975 21.3097 15.2625Z" fill="var(--fill-0, #D9D9D9)"/>
<path id="Vector_8" d="M26.8197 13.8577C27.4893 13.8577 28.1567 13.8577 28.8263 13.862C28.8197 14.1765 28.8106 14.4911 28.8016 14.8056C29.3185 13.8361 30.5724 13.4375 31.6128 13.8383C32.7881 14.2261 33.3185 15.4692 33.4083 16.5724C33.5117 17.8306 33.451 19.2439 32.5701 20.2609C31.669 21.3101 29.7117 21.3748 28.8983 20.1877C28.9252 21.2283 28.914 22.271 28.9095 23.3117C28.2219 23.3096 27.5343 23.3138 26.8488 23.331C26.7882 20.1726 26.8444 17.014 26.8197 13.8577ZM29.7724 15.1849C29.2376 15.3271 28.9836 15.8851 28.9432 16.3741C28.8893 17.1649 28.8713 17.9664 28.9747 18.7527C29.1365 19.5176 30.3297 19.9032 30.8083 19.188C31.3634 18.3628 31.1926 17.2941 31.1342 16.3633C31.0982 15.7084 30.5432 14.9414 29.7724 15.1849Z" fill="var(--fill-0, #D9D9D9)"/>
<path id="Vector_9" d="M39.8659 14.3146C41.3872 13.2351 43.8456 13.6014 44.8186 15.2C45.3534 15.9434 45.3646 16.8698 45.3736 17.7381C43.8074 17.7338 42.2433 17.7359 40.6794 17.7338C40.6052 18.4922 40.8996 19.4509 41.8209 19.5414C42.6006 19.7245 43.2568 19.173 43.4118 18.4685C44.0748 18.5094 44.7354 18.574 45.3984 18.6365C45.0275 19.6405 44.2815 20.5907 43.1804 20.9074C41.8591 21.2521 40.2838 21.0237 39.3311 20.0154C37.848 18.4275 38.0659 15.6051 39.8659 14.3146ZM40.6524 16.4864C41.5355 16.5057 42.4186 16.5057 43.3017 16.4971C43.2164 15.9046 42.9962 15.1268 42.2456 15.073C41.3243 14.8747 40.7085 15.6999 40.6524 16.4864Z" fill="var(--fill-0, #D9D9D9)"/>
<path id="Vector_10" d="M48.8031 14.9652C49.1604 14.5106 49.5043 13.972 50.1065 13.7954C50.9312 13.5863 51.9064 13.6768 52.5559 14.2542C53.0772 14.7476 53.1716 15.4866 53.1739 16.1567C53.1806 17.7252 53.1671 19.2958 53.1784 20.8643C52.4682 20.7824 51.5694 21.181 50.9874 20.7264C50.8414 19.1407 51.2053 17.542 50.92 15.9671C50.8818 15.506 50.347 15.254 49.911 15.3423C49.2795 15.3875 48.9897 16.0403 48.9492 16.5704C48.8616 18.029 48.9897 19.4919 48.8841 20.9504C48.1875 20.9311 47.4909 20.9268 46.7942 20.9268C46.7627 18.5719 46.8032 16.217 46.774 13.8621C47.4504 13.8578 48.129 13.8578 48.8054 13.8665C48.8031 14.2327 48.8009 14.599 48.8031 14.9652Z" fill="var(--fill-0, #D9D9D9)"/>
<path id="Vector_11" d="M54.965 13.8578C55.6841 13.8578 56.4032 13.8578 57.1245 13.8557C57.1268 16.1954 57.1245 18.5353 57.1245 20.8729C56.4032 20.8686 55.6841 20.8686 54.9628 20.8707C54.9695 18.5331 54.965 16.1954 54.965 13.8578Z" fill="var(--fill-0, #D9D9D9)"/>
<path id="Vector_12" d="M58.9257 13.86C59.6246 13.8578 60.3235 13.8578 61.0246 13.86C61.0538 15.5513 60.9504 17.249 61.0717 18.936C61.465 19.7935 62.9526 19.3066 63.011 18.4556C63.0717 16.9237 63.011 15.3875 63.0335 13.8557C63.7548 13.86 64.4762 13.86 65.1975 13.8578C65.1908 16.1589 65.2268 18.4621 65.1863 20.7609C64.6762 21.1746 63.8223 20.7997 63.1819 20.8514C63.1931 20.4894 63.2065 20.1253 63.2223 19.7612C62.5346 21.3706 59.6493 21.6076 59.0404 19.8366C58.7887 17.8609 59.0021 15.8486 58.9257 13.86Z" fill="var(--fill-0, #D9D9D9)"/>
<path id="Vector_13" d="M69.0457 14.8121C69.8232 13.3019 72.3603 13.3169 73.1175 14.8445C73.8456 13.597 75.722 13.3169 76.85 14.2175C77.5152 14.7411 77.4501 15.633 77.4635 16.3742C77.4433 17.8974 77.4994 19.4228 77.4298 20.9439C76.731 20.931 76.0299 20.9267 75.331 20.9353C75.3018 19.4874 75.3287 18.0418 75.3197 16.5939C75.2928 16.2342 75.331 15.7838 75.0096 15.5274C74.3917 15.0901 73.3288 15.5016 73.3535 16.2901C73.2569 17.8112 73.34 19.3388 73.3175 20.8642C72.594 20.8685 71.8704 20.8685 71.1491 20.8793C71.14 19.522 71.1491 18.1667 71.1491 16.8094C71.1288 16.3634 71.1917 15.827 70.7827 15.5103C70.1715 15.1267 69.2165 15.465 69.1266 16.191C69.0277 17.7681 69.1221 19.3496 69.0817 20.931C68.4053 20.9267 67.7311 20.931 67.057 20.9525C66.9311 18.5933 67.048 16.2255 66.9963 13.862C67.6817 13.8577 68.3671 13.8577 69.0524 13.8685C69.0502 14.1055 69.0479 14.5773 69.0457 14.8121Z" fill="var(--fill-0, #D9D9D9)"/>
</g>
</svg>
