<svg preserveAspectRatio="none" width="100%" height="100%" overflow="visible" style="display: block;" viewBox="0 0 102.647 27.3193" fill="none" xmlns="http://www.w3.org/2000/svg">
<g id="Group 1000002893">
<g id="Group">
<path id="Vector" d="M30.727 3.12531L23.1358 18.9781H30.8794L38.49 3.12531L30.727 3.12531Z" fill="var(--fill-0, #D9D9D9)"/>
<path id="Vector_2" d="M21.0812 3.12531L17.3607 10.8937L13.6403 3.12531L5.87827 3.12531L6.67083 4.77584L0 18.9781H7.7436L10.6275 13.0194L13.4889 18.9781H13.4899H21.2325H21.2336L28.8442 3.12531L21.0812 3.12531Z" fill="var(--fill-0, #D9D9D9)"/>
<path id="Vector_3" d="M102.646 6.00434L94.5978 0L93.0004 3.29904L78.2547 3.29904L72.5196 3.29904H72.4633C71.9285 3.29904 71.4151 3.43684 70.9651 3.68305C70.3403 4.01134 69.8238 4.53517 69.5129 5.19579L67.9452 8.70862H67.9462L65.5532 13.797L65.1533 14.6076C64.1297 16.6806 65.6534 19.0982 67.982 19.0982H81.1856C82.4752 19.0982 83.6472 18.3585 84.1923 17.2014L85.8479 13.7727H85.8254L88.06 9.274L80.1394 9.274L77.9847 13.7727H73.0534L75.5681 8.70862L90.3794 8.70862L88.7953 11.9793L102.646 6.00434Z" fill="var(--fill-0, #D9D9D9)"/>
<path id="Vector_4" d="M49.8683 8.53422C51.4657 8.28801 52.199 8.20593 52.9292 6.69117L54.6482 3.12362L40.4271 3.12362L37.8776 8.53422H40.6429L39.1406 11.6711L35.6421 18.9775H43.3857L47.5101 10.3864C47.509 10.3864 48.2699 8.78144 49.8683 8.53422Z" fill="var(--fill-0, #D9D9D9)"/>
<path id="Vector_5" d="M64.6957 12.2421L65.3594 10.8642L67.4262 6.51644C68.7608 3.12317 65.6519 3.0948 65.6519 3.0948L64.3214 3.0948L56.4848 3.0948L54.3709 7.47799H58.0965C58.0965 7.47799 58.9637 7.54891 58.9054 8.27944C58.8461 9.00998 58.2161 9.07077 58.2161 9.07077L55.819 9.16804C55.819 9.16804 54.6491 9.13055 51.9738 9.37473C49.7894 9.69694 48.5356 12.1347 48.5356 12.1347L45.1455 18.9486H52.8891L54.6429 15.1805C54.647 15.1724 54.6511 15.1643 54.6542 15.1562C54.8536 14.6779 54.9641 14.4874 55.2289 14.4874C55.4652 14.4874 55.683 15.1653 55.683 15.1653L56.9163 18.9486H64.6691L62.7005 14.2889C63.9032 13.7883 64.6957 12.2421 64.6957 12.2421Z" fill="var(--fill-0, #D9D9D9)"/>
</g>
<g id="Group_2">
<path id="Vector_6" d="M90.0568 25.3428C89.7096 25.3428 89.3784 25.3428 89.0356 25.3428C89.1008 25.1481 89.1638 24.9616 89.2249 24.7743C89.2387 24.7321 89.27 24.7358 89.3029 24.7358C90.0571 24.7362 90.8114 24.7368 91.5656 24.7349C91.6358 24.7346 91.6317 24.7601 91.6145 24.8113C91.3761 25.5167 91.142 26.2236 90.9001 26.9277C90.8202 27.1599 90.6083 27.2242 90.3943 27.2701C90.2411 27.303 90.0844 27.3136 89.9274 27.3136C88.9692 27.3139 88.0109 27.3142 87.0527 27.3133C86.8851 27.313 86.7177 27.3037 86.5567 27.2515C86.3555 27.1863 86.3044 27.0873 86.3709 26.8892C86.8114 25.5763 87.2545 24.2643 87.6916 22.9501C87.7628 22.7362 87.9144 22.6297 88.1169 22.5729C88.3002 22.5213 88.4891 22.5058 88.679 22.5055C89.6373 22.5046 90.5955 22.5046 91.5537 22.5055C91.7251 22.5058 91.8962 22.5167 92.0607 22.5698C92.26 22.6343 92.3111 22.7359 92.2459 22.9318C92.1391 23.2525 92.0294 23.5726 91.9257 23.8942C91.9044 23.96 91.874 23.9808 91.8035 23.9802C91.4099 23.9762 91.0163 23.9749 90.6231 23.9805C90.5209 23.9821 90.5218 23.9519 90.5504 23.8725C90.6281 23.6554 90.697 23.4353 90.7732 23.218C90.7942 23.1584 90.8026 23.1311 90.7186 23.1317C90.1721 23.1351 89.6257 23.1345 89.0792 23.132C89.0209 23.1317 88.9977 23.1519 88.9805 23.2034C88.6 24.3397 88.219 25.476 87.8352 26.611C87.8113 26.6818 87.8305 26.6868 87.8922 26.6865C88.4387 26.6849 88.9852 26.6855 89.5317 26.6855C89.5711 26.6855 89.6065 26.6905 89.6241 26.6374C89.7642 26.2105 89.9083 25.7846 90.0568 25.3428Z" fill="var(--fill-0, #D9D9D9)"/>
<path id="Vector_7" d="M94.6839 22.5047C94.2145 23.9009 93.7479 25.288 93.2782 26.6854C93.585 26.6854 93.8792 26.6854 94.1734 26.6854C94.4614 26.6854 94.7491 26.6823 95.037 26.6876C95.1119 26.6888 95.1414 26.6668 95.1649 26.5963C95.6077 25.2709 96.0545 23.9465 96.497 22.6211C96.5264 22.5327 96.5628 22.5001 96.6621 22.5019C97.0732 22.5091 97.4846 22.505 97.9092 22.505C97.8246 22.7559 97.7428 22.9971 97.6617 23.2383C97.2584 24.4392 96.852 25.6388 96.4546 26.8415C96.3788 27.071 96.2259 27.1911 96.0047 27.2492C95.8242 27.2967 95.639 27.3131 95.4532 27.3131C94.4768 27.3144 93.5 27.3144 92.5236 27.3131C92.3522 27.3128 92.1808 27.302 92.0169 27.2476C91.8245 27.184 91.7741 27.0822 91.8389 26.8897C92.3206 25.4538 92.8031 24.0182 93.2851 22.5827C93.2998 22.5383 93.3095 22.5022 93.3759 22.5029C93.8059 22.5069 94.2358 22.5047 94.6839 22.5047Z" fill="var(--fill-0, #D9D9D9)"/>
<path id="Vector_8" d="M80.6407 27.315C81.0631 26.7168 81.4732 26.1353 81.8834 25.5541C82.586 24.5588 83.2888 23.5638 83.9895 22.5675C84.0308 22.5088 84.0709 22.4818 84.1468 22.4827C84.562 22.4871 84.9772 22.4865 85.3923 22.483C85.4672 22.4824 85.4986 22.492 85.5008 22.5793C85.5352 23.9245 85.5738 25.2697 85.6117 26.615C85.6177 26.8205 85.623 27.026 85.633 27.2315C85.6361 27.2942 85.6245 27.3182 85.5528 27.3172C85.152 27.3132 84.7515 27.3141 84.3508 27.3166C84.2887 27.3169 84.2709 27.3005 84.2737 27.239C84.285 26.9903 84.2881 26.7413 84.3016 26.4926C84.3056 26.4194 84.2843 26.4038 84.2138 26.4042C83.6965 26.407 83.1794 26.407 82.6621 26.4042C82.5985 26.4038 82.5653 26.4268 82.5336 26.4771C82.3726 26.7342 82.208 26.9891 82.0445 27.2443C82.0222 27.279 82.0072 27.3169 81.9489 27.3166C81.5196 27.3138 81.0903 27.315 80.6407 27.315ZM82.9742 25.777C83.4182 25.777 83.8434 25.7758 84.2687 25.7783C84.3385 25.7786 84.321 25.7329 84.3219 25.6982C84.3426 25.0273 84.3627 24.3564 84.3818 23.6858C84.3824 23.6681 84.3975 23.6426 84.3627 23.6311C83.9042 24.3399 83.4452 25.0493 82.9742 25.777Z" fill="var(--fill-0, #D9D9D9)"/>
<path id="Vector_9" d="M80.429 26.6838C80.3613 26.8831 80.2958 27.066 80.2388 27.251C80.2222 27.3044 80.1974 27.3212 80.147 27.3153C80.1363 27.314 80.1251 27.315 80.1141 27.315C78.9152 27.315 77.7163 27.314 76.5174 27.3168C76.4234 27.3171 76.4128 27.2979 76.4419 27.2116C76.9627 25.6704 77.4804 24.1281 77.9983 22.5857C78.0149 22.5357 78.03 22.5034 78.0992 22.5038C79.3163 22.5069 80.5334 22.5059 81.7504 22.5062C81.7611 22.5062 81.7721 22.5087 81.7952 22.5115C81.7301 22.708 81.6658 22.9021 81.6013 23.0958C81.5812 23.1563 81.5292 23.1337 81.49 23.1337C80.7577 23.1349 80.0251 23.1362 79.2928 23.1324C79.2094 23.1321 79.1769 23.1551 79.1512 23.2349C79.0189 23.6459 78.8782 24.0545 78.7407 24.464C78.7328 24.4873 78.715 24.5087 78.7278 24.541C79.4065 24.541 80.0871 24.541 80.7806 24.541C80.7126 24.7425 80.6452 24.9353 80.5832 25.1296C80.5622 25.1958 80.5127 25.1691 80.4757 25.1694C79.8562 25.1712 79.2367 25.1725 78.6172 25.1684C78.532 25.1678 78.4912 25.1877 78.4637 25.2727C78.3173 25.7248 78.1638 26.1746 78.0127 26.6251C78.0071 26.6416 78.0027 26.6586 77.9955 26.6835C78.8065 26.6838 79.6102 26.6838 80.429 26.6838Z" fill="var(--fill-0, #D9D9D9)"/>
<path id="Vector_10" d="M99.509 24.5435C100.205 24.5435 100.886 24.5435 101.577 24.5435C101.51 24.7419 101.442 24.9312 101.383 25.1231C101.363 25.188 101.319 25.17 101.28 25.17C100.773 25.1709 100.267 25.1706 99.7603 25.1706C99.629 25.1706 99.4981 25.1722 99.3668 25.1697C99.3219 25.1687 99.2941 25.1768 99.2781 25.2252C99.1195 25.7037 98.9581 26.1812 98.7983 26.659C98.7965 26.6652 98.7999 26.6729 98.8015 26.6853C99.6055 26.6853 100.41 26.6853 101.224 26.6853C101.157 26.8868 101.09 27.0799 101.028 27.2743C101.009 27.333 100.965 27.3134 100.929 27.3137C100.478 27.315 100.026 27.3146 99.5739 27.3146C98.8196 27.3146 98.0654 27.3134 97.3108 27.3165C97.2259 27.3168 97.2071 27.3066 97.2369 27.2184C97.7589 25.6736 98.2772 24.1278 98.7961 22.582C98.8115 22.5363 98.8234 22.5038 98.8886 22.5038C100.109 22.5065 101.33 22.5059 102.551 22.5062C102.561 22.5062 102.571 22.5103 102.591 22.5146C102.526 22.7114 102.462 22.9055 102.396 23.0989C102.376 23.1579 102.322 23.1334 102.283 23.1334C101.551 23.1346 100.818 23.1355 100.086 23.1324C100.009 23.1321 99.975 23.1526 99.9505 23.2277C99.8089 23.6624 99.6607 24.0942 99.509 24.5435Z" fill="var(--fill-0, #D9D9D9)"/>
<path id="Vector_11" d="M73.7571 26.6672C74.506 26.6672 75.244 26.6672 75.9929 26.6672C75.9236 26.873 75.855 27.0695 75.793 27.2676C75.771 27.3375 75.7197 27.3148 75.6777 27.3148C74.9056 27.316 74.1335 27.3157 73.3614 27.3157C72.9684 27.3157 72.5755 27.3157 72.169 27.3157C72.2505 27.0714 72.3279 26.8364 72.4069 26.602C72.8553 25.2689 73.3049 23.9364 73.7515 22.6026C73.7756 22.5303 73.8041 22.5039 73.8843 22.5048C74.303 22.5095 74.7219 22.507 75.1556 22.507C74.689 23.8954 74.2246 25.2766 73.7571 26.6672Z" fill="var(--fill-0, #D9D9D9)"/>
</g>
<path id="Vector_12" d="M71.6378 24.2556L30.7013 24.4542L71.1223 25.5008L71.6378 24.2556Z" fill="var(--fill-0, #D9D9D9)"/>
<g id="Group 1000001892">
<g id="Group_3">
<path id="Vector_13" d="M30.7275 3.12593L23.1363 18.9788H30.8799L38.4905 3.12593L30.7275 3.12593Z" fill="var(--fill-0, #D9D9D9)"/>
<path id="Vector_14" d="M21.0817 3.12593L17.3612 10.8943L13.6408 3.12593L5.87877 3.12593L6.67133 4.77646L0.000501876 18.9788H7.74411L10.628 13.02L13.4894 18.9788H13.4904H21.233H21.2341L28.8447 3.12593L21.0817 3.12593Z" fill="var(--fill-0, #D9D9D9)"/>
<path id="Vector_15" d="M102.647 6.00517L94.5983 0.00083002L93.0009 3.29987L78.2552 3.29987L72.5201 3.29987H72.4638C71.929 3.29987 71.4156 3.43767 70.9656 3.68388C70.3408 4.01217 69.8243 4.536 69.5134 5.19662L67.9457 8.70945H67.9467L65.5537 13.7978L65.1538 14.6084C64.1301 16.6815 65.6539 19.099 67.9825 19.099H81.1861C82.4757 19.099 83.6477 18.3594 84.1927 17.2023L85.8484 13.7735H85.8259L88.0605 9.27483L80.1399 9.27483L77.9852 13.7735H73.0539L75.5686 8.70945L90.3799 8.70945L88.7958 11.9801L102.647 6.00517Z" fill="var(--fill-0, #D9D9D9)"/>
<path id="Vector_16" d="M49.8688 8.53505C51.4662 8.28884 52.1995 8.20676 52.9297 6.692L54.6488 3.12445L40.4276 3.12445L37.8781 8.53505H40.6434L39.1411 11.672L35.6426 18.9783H43.3862L47.5106 10.3872C47.5095 10.3872 48.2704 8.78227 49.8688 8.53505Z" fill="var(--fill-0, #D9D9D9)"/>
<path id="Vector_17" d="M64.6962 12.2432L65.3599 10.8652L67.4267 6.51748C68.7613 3.12421 65.6524 3.09584 65.6524 3.09584L64.3219 3.09584L56.4853 3.09584L54.3714 7.47903H58.097C58.097 7.47903 58.9642 7.54995 58.9059 8.28049C58.8466 9.01102 58.2166 9.07181 58.2166 9.07181L55.8195 9.16908C55.8195 9.16908 54.6496 9.13159 51.9743 9.37578C49.7899 9.69798 48.5361 12.1358 48.5361 12.1358L45.146 18.9497H52.8896L54.6435 15.1815C54.6475 15.1734 54.6516 15.1653 54.6547 15.1572C54.8541 14.679 54.9646 14.4885 55.2294 14.4885C55.4657 14.4885 55.6835 15.1663 55.6835 15.1663L56.9168 18.9497H64.6696L62.701 14.2899C63.9037 13.7894 64.6962 12.2432 64.6962 12.2432Z" fill="var(--fill-0, #D9D9D9)"/>
</g>
<g id="Group_4">
<path id="Vector_18" d="M90.0573 25.3438C89.7101 25.3438 89.3789 25.3438 89.0361 25.3438C89.1013 25.1491 89.1643 24.9626 89.2254 24.7754C89.2392 24.7331 89.2705 24.7369 89.3034 24.7369C90.0576 24.7372 90.8119 24.7378 91.5661 24.7359C91.6363 24.7356 91.6322 24.7611 91.615 24.8123C91.3765 25.5177 91.1425 26.2246 90.9006 26.9287C90.8207 27.1609 90.6088 27.2252 90.3948 27.2711C90.2416 27.3041 90.0849 27.3146 89.9279 27.3146C88.9697 27.3149 88.0114 27.3152 87.0532 27.3143C86.8856 27.314 86.7182 27.3047 86.5572 27.2525C86.356 27.1873 86.3049 27.0883 86.3713 26.8902C86.8119 25.5773 87.255 24.2653 87.6921 22.9511C87.7633 22.7372 87.9149 22.6307 88.1174 22.5739C88.3007 22.5223 88.4896 22.5068 88.6795 22.5065C89.6377 22.5056 90.596 22.5056 91.5542 22.5065C91.7256 22.5068 91.8967 22.5177 92.0612 22.5708C92.2605 22.6353 92.3116 22.7369 92.2464 22.9328C92.1396 23.2535 92.0299 23.5736 91.9262 23.8952C91.9049 23.961 91.8745 23.9818 91.804 23.9812C91.4104 23.9772 91.0168 23.9759 90.6236 23.9815C90.5214 23.9831 90.5223 23.9529 90.5509 23.8735C90.6286 23.6565 90.6975 23.4363 90.7737 23.219C90.7946 23.1594 90.8031 23.1321 90.7191 23.1327C90.1726 23.1361 89.6262 23.1355 89.0797 23.133C89.0214 23.1327 88.9982 23.1529 88.981 23.2044C88.6005 24.3407 88.2195 25.477 87.8356 26.612C87.8118 26.6828 87.8309 26.6878 87.8927 26.6875C88.4392 26.6859 88.9857 26.6865 89.5321 26.6865C89.5716 26.6865 89.607 26.6915 89.6246 26.6384C89.7647 26.2115 89.9088 25.7856 90.0573 25.3438Z" fill="var(--fill-0, #D9D9D9)"/>
<path id="Vector_19" d="M94.6844 22.5057C94.215 23.9019 93.7484 25.289 93.2787 26.6864C93.5854 26.6864 93.8797 26.6864 94.1739 26.6864C94.4619 26.6864 94.7496 26.6833 95.0375 26.6886C95.1124 26.6898 95.1419 26.6678 95.1654 26.5973C95.6081 25.2719 96.055 23.9475 96.4974 22.6222C96.5269 22.5337 96.5633 22.5011 96.6626 22.5029C97.0737 22.5101 97.4851 22.506 97.9097 22.506C97.8251 22.7569 97.7433 22.9981 97.6622 23.2393C97.2589 24.4402 96.8525 25.6398 96.4551 26.8426C96.3793 27.072 96.2264 27.1921 96.0052 27.2502C95.8247 27.2977 95.6395 27.3141 95.4537 27.3141C94.4773 27.3154 93.5005 27.3154 92.5241 27.3141C92.3527 27.3138 92.1813 27.303 92.0174 27.2486C91.825 27.185 91.7746 27.0832 91.8394 26.8907C92.3211 25.4548 92.8036 24.0192 93.2856 22.5837C93.3003 22.5393 93.31 22.5032 93.3764 22.5039C93.8064 22.5079 94.2363 22.5057 94.6844 22.5057Z" fill="var(--fill-0, #D9D9D9)"/>
<path id="Vector_20" d="M80.6411 27.3161C81.0635 26.7178 81.4737 26.1363 81.8839 25.5551C82.5864 24.5598 83.2893 23.5648 83.99 22.5685C84.0313 22.5098 84.0714 22.4828 84.1473 22.4837C84.5625 22.4881 84.9777 22.4875 85.3928 22.484C85.4677 22.4834 85.4991 22.4931 85.5013 22.5803C85.5357 23.9255 85.5743 25.2707 85.6122 26.616C85.6181 26.8215 85.6235 27.027 85.6335 27.2325C85.6366 27.2953 85.625 27.3192 85.5533 27.3182C85.1525 27.3142 84.752 27.3151 84.3513 27.3176C84.2892 27.3179 84.2714 27.3015 84.2742 27.24C84.2855 26.9913 84.2886 26.7423 84.3021 26.4936C84.3061 26.4204 84.2848 26.4049 84.2143 26.4052C83.697 26.408 83.1799 26.408 82.6626 26.4052C82.599 26.4049 82.5658 26.4278 82.5341 26.4781C82.3731 26.7352 82.2085 26.9901 82.045 27.2453C82.0227 27.28 82.0077 27.3179 81.9494 27.3176C81.5201 27.3148 81.0908 27.3161 80.6411 27.3161ZM82.9747 25.778C83.4187 25.778 83.8439 25.7768 84.2692 25.7793C84.339 25.7796 84.3215 25.7339 84.3224 25.6992C84.3431 25.0283 84.3632 24.3574 84.3823 23.6868C84.3829 23.6691 84.3979 23.6436 84.3632 23.6321C83.9047 24.3409 83.4457 25.0503 82.9747 25.778Z" fill="var(--fill-0, #D9D9D9)"/>
<path id="Vector_21" d="M80.4295 26.6848C80.3618 26.8841 80.2963 27.067 80.2393 27.252C80.2227 27.3054 80.1979 27.3222 80.1475 27.3163C80.1368 27.315 80.1256 27.316 80.1146 27.316C78.9157 27.316 77.7168 27.315 76.5179 27.3178C76.4239 27.3181 76.4133 27.2989 76.4424 27.2126C76.9632 25.6715 77.4809 24.1291 77.9988 22.5867C78.0154 22.5367 78.0305 22.5044 78.0997 22.5048C79.3168 22.5079 80.5339 22.5069 81.7509 22.5072C81.7616 22.5072 81.7725 22.5097 81.7957 22.5125C81.7306 22.709 81.6663 22.9031 81.6018 23.0968C81.5817 23.1573 81.5297 23.1347 81.4905 23.1347C80.7582 23.1359 80.0256 23.1372 79.2933 23.1334C79.2099 23.1331 79.1774 23.1561 79.1517 23.2359C79.0194 23.6469 78.8787 24.0555 78.7412 24.465C78.7333 24.4883 78.7155 24.5097 78.7283 24.542C79.407 24.542 80.0876 24.542 80.7811 24.542C80.7131 24.7435 80.6457 24.9363 80.5837 25.1306C80.5627 25.1968 80.5132 25.1701 80.4762 25.1704C79.8567 25.1722 79.2372 25.1735 78.6177 25.1694C78.5325 25.1688 78.4917 25.1887 78.4642 25.2738C78.3178 25.7258 78.1643 26.1756 78.0132 26.6261C78.0076 26.6426 78.0032 26.6596 77.996 26.6845C78.807 26.6848 79.6107 26.6848 80.4295 26.6848Z" fill="var(--fill-0, #D9D9D9)"/>
<path id="Vector_22" d="M99.5095 24.5445C100.206 24.5445 100.886 24.5445 101.577 24.5445C101.51 24.7429 101.442 24.9322 101.383 25.1241C101.363 25.189 101.319 25.171 101.28 25.171C100.774 25.1719 100.267 25.1716 99.7608 25.1716C99.6295 25.1716 99.4985 25.1732 99.3673 25.1707C99.3224 25.1697 99.2946 25.1778 99.2786 25.2263C99.12 25.7047 98.9586 26.1822 98.7988 26.66C98.797 26.6662 98.8004 26.6739 98.802 26.6863C99.606 26.6863 100.41 26.6863 101.225 26.6863C101.157 26.8878 101.091 27.0809 101.028 27.2753C101.01 27.334 100.966 27.3144 100.93 27.3147C100.478 27.316 100.026 27.3156 99.5744 27.3156C98.8201 27.3156 98.0659 27.3144 97.3113 27.3175C97.2264 27.3178 97.2076 27.3076 97.2374 27.2194C97.7594 25.6746 98.2777 24.1288 98.7966 22.583C98.812 22.5374 98.8239 22.5048 98.8891 22.5048C100.11 22.5075 101.33 22.5069 102.551 22.5072C102.561 22.5072 102.571 22.5113 102.592 22.5156C102.526 22.7125 102.463 22.9065 102.397 23.0999C102.377 23.1589 102.323 23.1344 102.284 23.1344C101.551 23.1356 100.819 23.1365 100.086 23.1334C100.009 23.1331 99.9755 23.1536 99.951 23.2287C99.8094 23.6634 99.6612 24.0952 99.5095 24.5445Z" fill="var(--fill-0, #D9D9D9)"/>
<path id="Vector_23" d="M73.7576 26.6682C74.5065 26.6682 75.2445 26.6682 75.9934 26.6682C75.9241 26.874 75.8555 27.0705 75.7935 27.2686C75.7715 27.3385 75.7201 27.3158 75.6782 27.3158C74.9061 27.317 74.134 27.3167 73.3618 27.3167C72.9689 27.3167 72.576 27.3167 72.1695 27.3167C72.251 27.0724 72.3284 26.8374 72.4074 26.603C72.8558 25.2699 73.3054 23.9374 73.752 22.6036C73.7761 22.5313 73.8046 22.5049 73.8848 22.5058C74.3035 22.5105 74.7224 22.508 75.1561 22.508C74.6895 23.8964 74.2251 25.2776 73.7576 26.6682Z" fill="var(--fill-0, #D9D9D9)"/>
</g>
<path id="Vector_24" d="M71.6383 24.2565L30.7018 24.455L71.1228 25.5017L71.6383 24.2565Z" fill="var(--fill-0, #D9D9D9)"/>
</g>
</g>
</svg>
