<svg preserveAspectRatio="none" width="100%" height="100%" overflow="visible" style="display: block;" viewBox="0 0 48 48" fill="none" xmlns="http://www.w3.org/2000/svg">
<g id="Frame 1618868758">
<rect x="1.5" y="1.5" width="45" height="45" rx="22.5" fill="var(--fill-0, #333333)"/>
<rect x="1.5" y="1.5" width="45" height="45" rx="22.5" stroke="var(--stroke-0, black)" stroke-width="3"/>
<path id="Path 10364" fill-rule="evenodd" clip-rule="evenodd" d="M32.9993 24.5025C32.9993 23.8245 32.5899 22.9581 31.8083 22.5815L15.395 14.1061C14.4273 13.6164 13.4969 14.9348 14.3157 15.6882L23.7319 24.4272C24.1785 24.8415 24.253 25.5572 23.918 26.0469L22.206 28.9097C22.206 28.9097 22.206 28.9097 22.1688 28.9097C22.1688 28.9097 19.9356 32.7519 19.1541 34.0326C19.0424 34.1832 18.8563 34.5223 19.0424 34.8236C19.1541 34.9366 19.4146 35.0873 19.6751 34.9366C22.9503 33.0909 32.0688 26.3859 32.0688 26.3859C32.1061 26.3483 32.6271 25.8963 32.8504 25.3312C32.9993 24.9922 32.9993 24.6532 32.9993 24.5025L32.9993 24.5025Z" fill="var(--fill-0, #D9D9D9)"/>
</g>
</svg>
