<svg preserveAspectRatio="none" width="100%" height="100%" overflow="visible" style="display: block;" viewBox="0 0 61.6281 9.28146" fill="none" xmlns="http://www.w3.org/2000/svg">
<g id="Group 1000007839">
<path id="Vector" d="M3.19929 2.80208L0.378631 3.21103L0.328673 3.2212C0.253045 3.24128 0.184101 3.28107 0.12888 3.3365C0.073659 3.39194 0.0341405 3.46104 0.0143599 3.53675C-0.00542068 3.61245 -0.00475466 3.69205 0.0162899 3.76742C0.0373345 3.84278 0.0780037 3.91121 0.134144 3.96572L2.17758 5.95477L1.69568 8.76438L1.68993 8.81301C1.6853 8.89123 1.70154 8.96928 1.73699 9.03915C1.77244 9.10903 1.82583 9.16823 1.89168 9.2107C1.95753 9.25316 2.03349 9.27736 2.11177 9.28081C2.19005 9.28427 2.26784 9.26686 2.33718 9.23036L4.85986 7.90403L7.37679 9.23036L7.42101 9.2507C7.49398 9.27945 7.57329 9.28826 7.6508 9.27624C7.7283 9.26422 7.80121 9.23179 7.86205 9.18229C7.92289 9.13279 7.96947 9.068 7.997 8.99456C8.02454 8.92112 8.03204 8.84168 8.01874 8.76438L7.5364 5.95477L9.58071 3.96527L9.6152 3.92769C9.66446 3.86702 9.69676 3.79438 9.7088 3.71716C9.72085 3.63994 9.71221 3.56091 9.68377 3.48812C9.65532 3.41532 9.60809 3.35137 9.54689 3.30278C9.48568 3.25418 9.41269 3.22268 9.33534 3.21148L6.51468 2.80208L5.25378 0.246684C5.2173 0.172646 5.16081 0.1103 5.09073 0.0667029C5.02064 0.0231062 4.93975 0 4.85721 0C4.77467 0 4.69378 0.0231062 4.62369 0.0667029C4.5536 0.1103 4.49712 0.172646 4.46064 0.246684L3.19929 2.80208Z" fill="var(--fill-0, #C3C3C3)"/>
<path id="Vector_2" d="M16.1798 2.80208L13.3591 3.21103L13.3091 3.2212C13.2335 3.24128 13.1646 3.28107 13.1093 3.3365C13.0541 3.39194 13.0146 3.46104 12.9948 3.53675C12.975 3.61245 12.9757 3.69205 12.9968 3.76742C13.0178 3.84278 13.0585 3.91121 13.1146 3.96572L15.158 5.95477L14.6761 8.76438L14.6704 8.81301C14.6658 8.89123 14.682 8.96928 14.7175 9.03915C14.7529 9.10903 14.8063 9.16823 14.8721 9.2107C14.938 9.25316 15.014 9.27736 15.0922 9.28081C15.1705 9.28427 15.2483 9.26686 15.3176 9.23036L17.8403 7.90403L20.3573 9.23036L20.4015 9.2507C20.4744 9.27945 20.5538 9.28826 20.6313 9.27624C20.7088 9.26422 20.7817 9.23179 20.8425 9.18229C20.9034 9.13279 20.9499 9.068 20.9775 8.99456C21.005 8.92112 21.0125 8.84168 20.9992 8.76438L20.5169 5.95477L22.5612 3.96527L22.5957 3.92769C22.6449 3.86702 22.6772 3.79438 22.6893 3.71716C22.7013 3.63994 22.6927 3.56091 22.6642 3.48812C22.6358 3.41532 22.5886 3.35137 22.5274 3.30278C22.4662 3.25418 22.3932 3.22268 22.3158 3.21148L19.4951 2.80208L18.2343 0.246684C18.1978 0.172646 18.1413 0.1103 18.0712 0.0667029C18.0011 0.0231062 17.9202 0 17.8377 0C17.7551 0 17.6742 0.0231062 17.6042 0.0667029C17.5341 0.1103 17.4776 0.172646 17.4411 0.246684L16.1798 2.80208Z" fill="var(--fill-0, #C3C3C3)"/>
<path id="Vector_3" d="M29.1563 2.80208L26.3357 3.21103L26.2857 3.2212C26.2101 3.24128 26.1411 3.28107 26.0859 3.3365C26.0307 3.39194 25.9912 3.46104 25.9714 3.53675C25.9516 3.61245 25.9523 3.69205 25.9733 3.76742C25.9944 3.84278 26.035 3.91121 26.0912 3.96572L28.1346 5.95477L27.6527 8.76438L27.647 8.81301C27.6423 8.89123 27.6586 8.96928 27.694 9.03915C27.7295 9.10903 27.7829 9.16823 27.8487 9.2107C27.9146 9.25316 27.9905 9.27736 28.0688 9.28081C28.1471 9.28427 28.2249 9.26686 28.2942 9.23036L30.8169 7.90403L33.3338 9.23036L33.378 9.2507C33.451 9.27945 33.5303 9.28826 33.6078 9.27624C33.6853 9.26422 33.7582 9.23179 33.8191 9.18229C33.8799 9.13279 33.9265 9.068 33.954 8.99456C33.9816 8.92112 33.9891 8.84168 33.9758 8.76438L33.4934 5.95477L35.5377 3.96527L35.5722 3.92769C35.6215 3.86702 35.6538 3.79438 35.6658 3.71716C35.6779 3.63994 35.6692 3.56091 35.6408 3.48812C35.6124 3.41532 35.5651 3.35137 35.5039 3.30278C35.4427 3.25418 35.3697 3.22268 35.2924 3.21148L32.4717 2.80208L31.2108 0.246684C31.1743 0.172646 31.1178 0.1103 31.0478 0.0667029C30.9777 0.0231062 30.8968 0 30.8142 0C30.7317 0 30.6508 0.0231062 30.5807 0.0667029C30.5106 0.1103 30.4542 0.172646 30.4177 0.246684L29.1563 2.80208Z" fill="var(--fill-0, #C3C3C3)"/>
<path id="Vector_4" d="M42.1368 2.80208L39.3161 3.21103L39.2662 3.2212C39.1905 3.24128 39.1216 3.28107 39.0664 3.3365C39.0112 3.39194 38.9716 3.46104 38.9519 3.53675C38.9321 3.61245 38.9327 3.69205 38.9538 3.76742C38.9748 3.84278 39.0155 3.91121 39.0716 3.96572L41.1151 5.95477L40.6332 8.76438L40.6274 8.81301C40.6228 8.89123 40.639 8.96928 40.6745 9.03915C40.7099 9.10903 40.7633 9.16823 40.8292 9.2107C40.895 9.25316 40.971 9.27736 41.0493 9.28081C41.1275 9.28427 41.2053 9.26686 41.2747 9.23036L43.7974 7.90403L46.3143 9.23036L46.3585 9.2507C46.4315 9.27945 46.5108 9.28826 46.5883 9.27624C46.6658 9.26422 46.7387 9.23179 46.7996 9.18229C46.8604 9.13279 46.907 9.068 46.9345 8.99456C46.962 8.92112 46.9695 8.84168 46.9562 8.76438L46.4739 5.95477L48.5182 3.96527L48.5527 3.92769C48.602 3.86702 48.6343 3.79438 48.6463 3.71716C48.6583 3.63994 48.6497 3.56091 48.6213 3.48812C48.5928 3.41532 48.5456 3.35137 48.4844 3.30278C48.4232 3.25418 48.3502 3.22268 48.2728 3.21148L45.4522 2.80208L44.1913 0.246684C44.1548 0.172646 44.0983 0.1103 44.0282 0.0667029C43.9581 0.0231062 43.8772 0 43.7947 0C43.7122 0 43.6313 0.0231062 43.5612 0.0667029C43.4911 0.1103 43.4346 0.172646 43.3981 0.246684L42.1368 2.80208Z" fill="var(--fill-0, #C3C3C3)"/>
<path id="Vector_5" d="M55.1134 2.80208L52.2927 3.21103L52.2427 3.2212C52.1671 3.24128 52.0982 3.28107 52.0429 3.3365C51.9877 3.39194 51.9482 3.46104 51.9284 3.53675C51.9086 3.61245 51.9093 3.69205 51.9304 3.76742C51.9514 3.84278 51.9921 3.91121 52.0482 3.96572L54.0916 5.95477L53.6097 8.76438L53.604 8.81301C53.5994 8.89123 53.6156 8.96928 53.6511 9.03915C53.6865 9.10903 53.7399 9.16823 53.8057 9.2107C53.8716 9.25316 53.9476 9.27736 54.0258 9.28081C54.1041 9.28427 54.1819 9.26686 54.2512 9.23036L56.7739 7.90403L59.2909 9.23036L59.3351 9.2507C59.408 9.27945 59.4874 9.28826 59.5649 9.27624C59.6424 9.26422 59.7153 9.23179 59.7761 9.18229C59.837 9.13279 59.8835 9.068 59.9111 8.99456C59.9386 8.92112 59.9461 8.84168 59.9328 8.76438L59.4505 5.95477L61.4948 3.96527L61.5293 3.92769C61.5785 3.86702 61.6108 3.79438 61.6229 3.71716C61.6349 3.63994 61.6263 3.56091 61.5978 3.48812C61.5694 3.41532 61.5222 3.35137 61.4609 3.30278C61.3997 3.25418 61.3268 3.22268 61.2494 3.21148L58.4287 2.80208L57.1678 0.246684C57.1314 0.172646 57.0749 0.1103 57.0048 0.0667029C56.9347 0.0231062 56.8538 0 56.7713 0C56.6887 0 56.6078 0.0231062 56.5378 0.0667029C56.4677 0.1103 56.4112 0.172646 56.3747 0.246684L55.1134 2.80208Z" fill="var(--fill-0, #C3C3C3)"/>
</g>
</svg>
