<svg preserveAspectRatio="none" width="100%" height="100%" overflow="visible" style="display: block;" viewBox="0 0 434.951 137.534" fill="none" xmlns="http://www.w3.org/2000/svg">
<g id="Group 1000007828" filter="url(#filter0_d_14169_49424)">
<rect id="Rectangle 13248" x="24" y="24" width="386.951" height="89.534" rx="20" fill="var(--fill-0, #1B1B1B)"/>
<rect id="Rectangle 13249" x="116.621" y="48.6992" width="262.427" height="12.3495" rx="6.17476" fill="var(--fill-0, #3F3F3F)"/>
<g id="Group 1000007840">
<path id="Vector" d="M120.655 78.9901L117.098 79.5057L117.036 79.5185C116.94 79.5439 116.853 79.594 116.784 79.6639C116.714 79.7338 116.664 79.821 116.639 79.9164C116.614 80.0119 116.615 80.1122 116.642 80.2073C116.668 80.3023 116.719 80.3886 116.79 80.4573L119.367 82.9652L118.759 86.5078L118.752 86.5691C118.746 86.6677 118.767 86.7661 118.811 86.8542C118.856 86.9423 118.923 87.017 119.006 87.0705C119.089 87.1241 119.185 87.1546 119.284 87.1589C119.382 87.1633 119.481 87.1413 119.568 87.0953L122.749 85.423L125.922 87.0953L125.978 87.121C126.07 87.1572 126.17 87.1683 126.268 87.1532C126.365 87.138 126.457 87.0971 126.534 87.0347C126.611 86.9723 126.67 86.8906 126.704 86.798C126.739 86.7054 126.748 86.6052 126.732 86.5078L126.124 82.9652L128.701 80.4567L128.745 80.4093C128.807 80.3328 128.847 80.2412 128.863 80.1439C128.878 80.0465 128.867 79.9469 128.831 79.8551C128.795 79.7633 128.736 79.6827 128.658 79.6214C128.581 79.5601 128.489 79.5204 128.392 79.5063L124.835 78.9901L123.245 75.7681C123.199 75.6747 123.128 75.5961 123.04 75.5411C122.951 75.4862 122.849 75.457 122.745 75.457C122.641 75.457 122.539 75.4862 122.451 75.5411C122.363 75.5961 122.291 75.6747 122.245 75.7681L120.655 78.9901Z" fill="var(--fill-0, #C3C3C3)"/>
<path id="Vector_2" d="M137.022 78.9901L133.466 79.5057L133.403 79.5185C133.307 79.5439 133.22 79.594 133.151 79.6639C133.081 79.7338 133.031 79.821 133.006 79.9164C132.981 80.0119 132.982 80.1122 133.009 80.2073C133.035 80.3023 133.087 80.3886 133.157 80.4573L135.734 82.9652L135.126 86.5078L135.119 86.5691C135.113 86.6677 135.134 86.7661 135.178 86.8542C135.223 86.9423 135.29 87.017 135.373 87.0705C135.456 87.1241 135.552 87.1546 135.651 87.1589C135.75 87.1633 135.848 87.1413 135.935 87.0953L139.116 85.423L142.289 87.0953L142.345 87.121C142.437 87.1572 142.537 87.1683 142.635 87.1532C142.733 87.138 142.825 87.0971 142.901 87.0347C142.978 86.9723 143.037 86.8906 143.071 86.798C143.106 86.7054 143.116 86.6052 143.099 86.5078L142.491 82.9652L145.068 80.4567L145.112 80.4093C145.174 80.3328 145.215 80.2412 145.23 80.1439C145.245 80.0465 145.234 79.9469 145.198 79.8551C145.162 79.7633 145.103 79.6827 145.026 79.6214C144.948 79.5601 144.856 79.5204 144.759 79.5063L141.202 78.9901L139.613 75.7681C139.567 75.6747 139.495 75.5961 139.407 75.5411C139.319 75.4862 139.217 75.457 139.113 75.457C139.009 75.457 138.907 75.4862 138.818 75.5411C138.73 75.5961 138.659 75.6747 138.613 75.7681L137.022 78.9901Z" fill="var(--fill-0, #C3C3C3)"/>
<path id="Vector_3" d="M153.385 78.9901L149.829 79.5057L149.766 79.5185C149.671 79.5439 149.584 79.594 149.514 79.6639C149.444 79.7338 149.395 79.821 149.37 79.9164C149.345 80.0119 149.346 80.1122 149.372 80.2073C149.399 80.3023 149.45 80.3886 149.521 80.4573L152.097 82.9652L151.49 86.5078L151.482 86.5691C151.477 86.6677 151.497 86.7661 151.542 86.8542C151.586 86.9423 151.654 87.017 151.737 87.0705C151.82 87.1241 151.916 87.1546 152.014 87.1589C152.113 87.1633 152.211 87.1413 152.298 87.0953L155.479 85.423L158.653 87.0953L158.708 87.121C158.8 87.1572 158.9 87.1683 158.998 87.1532C159.096 87.138 159.188 87.0971 159.265 87.0347C159.341 86.9723 159.4 86.8906 159.435 86.798C159.469 86.7054 159.479 86.6052 159.462 86.5078L158.854 82.9652L161.432 80.4567L161.475 80.4093C161.537 80.3328 161.578 80.2412 161.593 80.1439C161.608 80.0465 161.597 79.9469 161.562 79.8551C161.526 79.7633 161.466 79.6827 161.389 79.6214C161.312 79.5601 161.22 79.5204 161.122 79.5063L157.566 78.9901L155.976 75.7681C155.93 75.6747 155.859 75.5961 155.77 75.5411C155.682 75.4862 155.58 75.457 155.476 75.457C155.372 75.457 155.27 75.4862 155.181 75.5411C155.093 75.5961 155.022 75.6747 154.976 75.7681L153.385 78.9901Z" fill="var(--fill-0, #C3C3C3)"/>
<path id="Vector_4" d="M169.749 78.9901L166.192 79.5057L166.129 79.5185C166.034 79.5439 165.947 79.594 165.877 79.6639C165.808 79.7338 165.758 79.821 165.733 79.9164C165.708 80.0119 165.709 80.1122 165.735 80.2073C165.762 80.3023 165.813 80.3886 165.884 80.4573L168.46 82.9652L167.853 86.5078L167.846 86.5691C167.84 86.6677 167.86 86.7661 167.905 86.8542C167.95 86.9423 168.017 87.017 168.1 87.0705C168.183 87.1241 168.279 87.1546 168.378 87.1589C168.476 87.1633 168.574 87.1413 168.662 87.0953L171.842 85.423L175.016 87.0953L175.072 87.121C175.164 87.1572 175.264 87.1683 175.361 87.1532C175.459 87.138 175.551 87.0971 175.628 87.0347C175.705 86.9723 175.763 86.8906 175.798 86.798C175.833 86.7054 175.842 86.6052 175.825 86.5078L175.217 82.9652L177.795 80.4567L177.838 80.4093C177.9 80.3328 177.941 80.2412 177.956 80.1439C177.972 80.0465 177.961 79.9469 177.925 79.8551C177.889 79.7633 177.829 79.6827 177.752 79.6214C177.675 79.5601 177.583 79.5204 177.485 79.5063L173.929 78.9901L172.339 75.7681C172.293 75.6747 172.222 75.5961 172.134 75.5411C172.045 75.4862 171.943 75.457 171.839 75.457C171.735 75.457 171.633 75.4862 171.545 75.5411C171.456 75.5961 171.385 75.6747 171.339 75.7681L169.749 78.9901Z" fill="var(--fill-0, #C3C3C3)"/>
<path id="Vector_5" d="M186.112 78.9901L182.556 79.5057L182.493 79.5185C182.397 79.5439 182.31 79.594 182.241 79.6639C182.171 79.7338 182.121 79.821 182.096 79.9164C182.071 80.0119 182.072 80.1122 182.099 80.2073C182.125 80.3023 182.176 80.3886 182.247 80.4573L184.824 82.9652L184.216 86.5078L184.209 86.5691C184.203 86.6677 184.224 86.7661 184.268 86.8542C184.313 86.9423 184.38 87.017 184.463 87.0705C184.546 87.1241 184.642 87.1546 184.741 87.1589C184.839 87.1633 184.938 87.1413 185.025 87.0953L188.206 85.423L191.379 87.0953L191.435 87.121C191.527 87.1572 191.627 87.1683 191.725 87.1532C191.823 87.138 191.914 87.0971 191.991 87.0347C192.068 86.9723 192.127 86.8906 192.161 86.798C192.196 86.7054 192.205 86.6052 192.189 86.5078L191.581 82.9652L194.158 80.4567L194.202 80.4093C194.264 80.3328 194.304 80.2412 194.32 80.1439C194.335 80.0465 194.324 79.9469 194.288 79.8551C194.252 79.7633 194.193 79.6827 194.116 79.6214C194.038 79.5601 193.946 79.5204 193.849 79.5063L190.292 78.9901L188.702 75.7681C188.656 75.6747 188.585 75.5961 188.497 75.5411C188.408 75.4862 188.307 75.457 188.202 75.457C188.098 75.457 187.996 75.4862 187.908 75.5411C187.82 75.5961 187.748 75.6747 187.702 75.7681L186.112 78.9901Z" fill="var(--fill-0, #C3C3C3)"/>
</g>
<circle id="Ellipse 2111" cx="70.8265" cy="68.767" r="27.2718" fill="var(--fill-0, #3D5B60)"/>
<g id="Frame">
<path id="Vector_6" d="M75.9532 67.8343C75.9532 68.8489 75.6523 69.8406 75.0887 70.6842C74.525 71.5277 73.7239 72.1852 72.7866 72.5734C71.8493 72.9617 70.8179 73.0632 69.8229 72.8653C68.8279 72.6674 67.9139 72.1788 67.1965 71.4615C66.4791 70.7441 65.9906 69.8301 65.7926 68.8351C65.5947 67.84 65.6963 66.8086 66.0845 65.8713C66.4728 64.934 67.1302 64.1329 67.9738 63.5693C68.8173 63.0056 69.8091 62.7048 70.8236 62.7048C72.1836 62.7063 73.4874 63.2472 74.4491 64.2089C75.4107 65.1705 75.9516 66.4744 75.9532 67.8343ZM82.948 68.767C82.948 71.1649 82.2369 73.5091 80.9047 75.5029C79.5724 77.4968 77.6789 79.0508 75.4634 79.9684C73.248 80.8861 70.8102 81.1262 68.4583 80.6584C66.1064 80.1906 63.946 79.0358 62.2504 77.3402C60.5547 75.6446 59.4 73.4842 58.9322 71.1323C58.4644 68.7804 58.7045 66.3426 59.6221 64.1272C60.5398 61.9117 62.0938 60.0182 64.0877 58.6859C66.0815 57.3537 68.4256 56.6426 70.8236 56.6426C74.0382 56.646 77.1201 57.9245 79.3931 60.1975C81.6661 62.4705 82.9446 65.5524 82.948 68.767ZM81.0827 68.767C81.0812 67.3861 80.8013 66.0197 80.2596 64.7496C79.7179 63.4794 78.9256 62.3315 77.9302 61.3745C76.9347 60.4175 75.7564 59.6712 74.4658 59.18C73.1753 58.6889 71.7989 58.463 70.4191 58.516C64.9281 58.7282 60.5494 63.3017 60.5645 68.7961C60.5698 71.2974 61.4923 73.7098 63.1573 75.5765C63.8353 74.593 64.6966 73.7495 65.6941 73.0921C65.7791 73.036 65.8802 73.0092 65.9819 73.0159C66.0836 73.0227 66.1803 73.0625 66.2572 73.1294C67.5246 74.2257 69.1443 74.829 70.8201 74.829C72.4959 74.829 74.1156 74.2257 75.3831 73.1294C75.46 73.0625 75.5567 73.0227 75.6583 73.0159C75.76 73.0092 75.8611 73.036 75.9462 73.0921C76.9448 73.7491 77.8074 74.5927 78.4865 75.5765C80.1597 73.703 81.084 71.2788 81.0827 68.767Z" fill="var(--fill-0, white)"/>
</g>
</g>
<defs>
<filter id="filter0_d_14169_49424" x="0" y="0" width="434.951" height="137.534" filterUnits="userSpaceOnUse" color-interpolation-filters="sRGB">
<feFlood flood-opacity="0" result="BackgroundImageFix"/>
<feColorMatrix in="SourceAlpha" type="matrix" values="0 0 0 0 0 0 0 0 0 0 0 0 0 0 0 0 0 0 127 0" result="hardAlpha"/>
<feOffset/>
<feGaussianBlur stdDeviation="12"/>
<feComposite in2="hardAlpha" operator="out"/>
<feColorMatrix type="matrix" values="0 0 0 0 0 0 0 0 0 0 0 0 0 0 0 0 0 0 0.55 0"/>
<feBlend mode="normal" in2="BackgroundImageFix" result="effect1_dropShadow_14169_49424"/>
<feBlend mode="normal" in="SourceGraphic" in2="effect1_dropShadow_14169_49424" result="shape"/>
</filter>
</defs>
</svg>
