<svg preserveAspectRatio="none" width="100%" height="100%" overflow="visible" style="display: block;" viewBox="0 0 48 48" fill="none" xmlns="http://www.w3.org/2000/svg">
<g id="Frame 1618868756">
<rect x="1.5" y="1.5" width="45" height="45" rx="22.5" fill="var(--fill-0, #333333)"/>
<rect x="1.5" y="1.5" width="45" height="45" rx="22.5" stroke="var(--stroke-0, black)" stroke-width="3"/>
<path id="Path 3" d="M33.9823 17.7793C33.7477 17.2055 33.3481 16.7136 32.8336 16.3655C32.5427 16.1468 32.225 15.9658 31.8884 15.8268C31.6027 15.7442 31.3074 15.6989 31.01 15.6921H30.9412C30.5358 15.6921 29.7927 15.7595 29.3873 16.3655C29.2848 16.4974 29.2134 16.6506 29.1783 16.8138C29.1433 16.9769 29.1455 17.1459 29.1847 17.3081C29.2145 17.4471 29.28 17.576 29.3747 17.6822C29.4695 17.7884 29.5903 17.8683 29.7253 17.9141C29.7821 17.9608 29.8543 17.9848 29.9279 17.9812C29.9162 18.0516 29.8933 18.1197 29.8603 18.1831C29.6577 18.3849 29.3197 18.7217 28.3064 18.7217H28.2395C27.6989 18.6546 27.2936 18.5198 26.6856 17.9138C26.3479 17.5099 26.1451 16.7692 26.1451 15.6248C26.1584 15.1237 26.0899 14.6238 25.9423 14.1446C25.8414 13.867 25.6514 13.6304 25.4017 13.4713C25.1911 13.3321 24.9643 13.2191 24.7262 13.1347C24.3473 13.0606 23.9633 13.0156 23.5775 13C23.1722 13 22.9018 13.0674 22.7668 13.2694H22.3614C22.1589 13.2694 21.8878 13.3366 21.6859 13.3366C21.3347 13.4101 21.0085 13.5726 20.7387 13.8085C20.5573 13.9756 20.4184 14.1832 20.3333 14.4143C20.3459 14.5728 20.3684 14.7305 20.4007 14.8862L20.4683 14.9534C20.683 14.7979 20.9473 14.7261 21.2114 14.7515C21.685 14.7515 22.3599 14.9534 22.4951 15.2901C22.8329 15.8288 22.6977 16.2327 22.6977 16.704C22.4951 17.9831 22.0222 18.5891 21.0087 18.7236C20.8334 18.7753 20.6508 18.798 20.4681 18.791C19.725 18.791 19.1844 18.5891 18.914 18.1176V17.9829C18.9659 17.9781 19.0141 17.9541 19.0492 17.9158C19.1784 17.8604 19.2938 17.7774 19.3872 17.6727C19.4806 17.568 19.5498 17.4441 19.5898 17.3098C19.6252 17.1473 19.6254 16.9793 19.5905 16.8167C19.5555 16.6542 19.4862 16.501 19.3872 16.3672C19.1857 16.1582 18.9446 15.991 18.6779 15.8754C18.4111 15.7599 18.124 15.6981 17.8332 15.6939C17.5132 15.6957 17.1949 15.741 16.8872 15.8286C16.0763 16.0304 15.3332 16.7038 14.7929 17.7806C14.3567 18.6631 14.1042 19.6244 14.0508 20.6066C13.9831 21.5255 13.9831 22.4481 14.0508 23.367C14.0936 24.4088 14.3224 25.4347 14.7266 26.3966C15.0498 27.2429 15.4571 28.0549 15.9424 28.8205C16.0397 29.0092 16.1527 29.1894 16.2802 29.3592L16.3478 29.292C16.4312 29.2153 16.4998 29.124 16.5503 29.0226C16.8829 28.6977 17.1776 28.3364 17.4287 27.9456C17.6147 27.6698 17.7733 27.3767 17.9023 27.0703L17.9699 26.9358L18.1051 27.003C18.2403 27.1494 18.313 27.3427 18.3076 27.5416C18.2819 27.8197 18.2136 28.0922 18.1051 28.3497C17.9243 28.8837 17.698 29.4013 17.4284 29.8968C17.4958 29.9641 17.4958 30.0988 17.4284 30.0988C17.2961 30.2732 17.2249 30.486 17.2259 30.7046H17.2928C17.4974 30.6749 17.6869 30.5805 17.8334 30.4352C18.0359 30.3007 18.5765 29.8294 19.2522 28.8868C19.7928 28.2135 20.1306 27.473 20.5359 26.6651L20.6035 26.5304L20.7385 26.5978C20.8061 26.6649 20.8737 26.6649 20.9411 26.7323C21.001 26.9052 21.0241 27.0886 21.0087 27.2709C20.9411 27.8095 20.6033 28.5503 20.4005 29.0889C19.9952 30.0315 19.252 31.041 18.7115 31.7819C18.6969 31.8295 18.6708 31.8728 18.6355 31.908C18.6001 31.9432 18.5567 31.9692 18.5089 31.9838C18.5858 32.0669 18.6774 32.1354 18.7791 32.1856L18.9819 32.3875C19.6929 32.9798 20.4625 33.4987 21.2788 33.936C22.2183 34.4902 23.215 34.9417 24.2518 35.2825C25.1977 35.0807 26.5489 34.3398 27.2247 33.936C28.041 33.4987 28.8107 32.9798 29.5219 32.3875L29.7244 32.1856C29.8594 32.1185 29.927 31.9838 29.9946 31.9838C30.0417 31.902 30.0651 31.8088 30.0622 31.7145L29.994 31.648C29.3236 30.8219 28.7564 29.9176 28.3049 28.955C28.1023 28.4164 27.7644 27.6759 27.6968 27.1373C27.6475 26.9558 27.6718 26.7624 27.7644 26.5986L27.8993 26.4639C27.9578 26.42 28.029 26.3965 28.1021 26.3968L28.1695 26.5313C28.5422 27.3022 28.9713 28.0447 29.4532 28.753C30.1289 29.6955 30.6693 30.1668 30.8721 30.3015C31.0105 30.4576 31.2043 30.5541 31.4126 30.5708H31.4802C31.5476 30.5036 31.4802 30.3689 31.2774 30.0321C31.2518 30.0056 31.2325 29.9737 31.2209 29.9388C31.2092 29.9039 31.2055 29.8668 31.21 29.8303C30.9407 29.3343 30.7146 28.8162 30.5343 28.2817C30.4328 28.022 30.3648 27.7506 30.3317 27.4738C30.3262 27.2748 30.3989 27.0816 30.5343 26.9352L30.6695 26.8678L30.7369 27.0026C30.8875 27.3327 31.0684 27.6482 31.2774 27.9451C31.4126 28.147 31.9532 28.7532 32.0884 28.955C32.2235 29.0898 32.2909 29.1569 32.2909 29.2243L32.3583 29.2916C32.468 29.1463 32.5588 28.9877 32.6287 28.8197L32.6961 28.7525C33.1453 27.9774 33.5295 27.1667 33.8448 26.3285C34.1825 25.5207 34.3853 24.6455 34.5205 23.299C34.6222 22.3817 34.6222 21.4561 34.5205 20.5388C34.5653 19.5891 34.3807 18.6425 33.9823 17.7785V17.7793Z" fill="var(--fill-0, #D9D9D9)"/>
</g>
</svg>
