<svg preserveAspectRatio="none" width="100%" height="100%" overflow="visible" style="display: block;" viewBox="0 0 261.895 32" fill="none" xmlns="http://www.w3.org/2000/svg">
<g id="Frame 1618867464" clip-path="url(#clip0_14169_49413)" filter="url(#filter0_d_14169_49413)">
<path id="Vector 84" d="M-205 24H-189.5H-182.818C-181.318 24 -179.862 23.4892 -178.69 22.5517C-176.735 20.9879 -174.064 20.6627 -171.791 21.7117L-169.93 22.5709C-169.313 22.8554 -168.659 23.0488 -167.986 23.1448L-163.072 23.8468C-162.362 23.9483 -161.64 23.9399 -160.932 23.8219L-156.571 23.0952C-156.191 23.0319 -155.806 23 -155.421 23H-153.037C-152.025 23 -151.024 22.7802 -150.104 22.3557L-147.239 21.0333C-145.79 20.3646 -144.156 20.211 -142.608 20.5981L-141 21L-137.252 22.4993C-136.425 22.8301 -135.542 23 -134.652 23H-130H-127.212C-126.418 23 -125.637 22.7928 -124.948 22.3989L-124.601 22.2007C-123.313 21.4648 -121.72 21.5197 -120.486 22.3424C-119.843 22.7712 -119.087 23 -118.314 23H-116.346C-115.457 23 -114.576 23.1697 -113.75 23.5C-112.924 23.8303 -112.043 24 -111.154 24H-108H-105.636C-104.884 24 -104.136 23.8787 -103.422 23.6408L-101.5 23L-96.3617 21.6298C-94.8603 21.2294 -93.2592 21.4939 -91.9663 22.3558C-91.3293 22.7804 -90.6096 23.0651 -89.8545 23.1909L-85.5715 23.9048C-85.1911 23.9681 -84.8062 24 -84.4207 24H-80.3617C-79.7894 24 -79.2192 23.9298 -78.664 23.791L-76.336 23.209C-75.7808 23.0702 -75.2106 23 -74.6383 23H-70.6931C-70.2322 23 -69.7723 22.9545 -69.3203 22.8641L-66.6641 22.3328C-65.5705 22.1141 -64.4405 22.1598 -63.3682 22.4662L-62.4427 22.7307C-61.8173 22.9094 -61.17 23 -60.5196 23H-58.9855C-58.0061 23 -57.0375 22.7945 -56.1425 22.3967L-55.4809 22.1026C-53.8849 21.3933 -52.0813 21.3062 -50.4244 21.8585L-50 22L-47.4427 22.7307C-46.8173 22.9094 -46.17 23 -45.5196 23H-42.5H-40H-38H-36.5793C-36.1938 23 -35.8089 22.9681 -35.4285 22.9048L-31.5565 22.2594C-30.5317 22.0886 -29.4817 22.1481 -28.4827 22.4335L-27.4427 22.7307C-26.8173 22.9094 -26.17 23 -25.5196 23H-24H-22.3751C-21.797 23 -21.2242 22.8897 -20.6875 22.675C-19.6042 22.2417 -18.3958 22.2417 -17.3125 22.675L-15.2517 23.4993C-14.4248 23.8301 -13.5425 24 -12.6519 24H-9.80278C-8.62728 24 -7.47808 23.6521 -6.5 23L-6.35428 22.9029C-5.47122 22.3141 -4.43366 22 -3.37236 22C-2.79457 22 -2.21915 22.0936 -1.67101 22.2763C1.18004 23.2267 4.27041 21.6888 5.22076 18.8377L7.70457 11.3863C8.74162 8.27515 11.8703 6.36467 15.1116 6.86333C15.7013 6.95404 16.2762 7.12276 16.8214 7.36505L18.3912 8.06277C19.7608 8.67148 21.2896 8.82453 22.7527 8.4994L24.2499 8.16669C24.7485 8.0559 25.2577 8 25.7684 8H29.1883C29.7221 8 30.2486 8.12429 30.726 8.36302C31.5417 8.77087 32.4861 8.83798 33.3512 8.54959L36.0662 7.6446C37.3292 7.22361 38.686 7.1715 39.9775 7.49439L40.6697 7.66743C41.5482 7.88706 42.461 7.93414 43.3574 7.80608L48.1203 7.12568C48.7044 7.04223 49.2968 7.03297 49.8832 7.09814L58 8H61.4647C61.821 8 62.1769 7.97279 62.5291 7.9186L67.9709 7.0814C68.3231 7.02721 68.679 7 69.0353 7H73.5H75H76.8688C77.2888 7 77.7078 7.03779 78.121 7.11291L87.0147 8.72994C87.9936 8.90793 88.9993 8.87517 89.9646 8.63385L95.664 7.209C96.2192 7.07019 96.7894 7 97.3617 7H99.2316C99.7423 7 100.252 7.0559 100.75 7.16669L103.75 7.83331C104.248 7.9441 104.758 8 105.268 8H110.921C111.306 8 111.691 7.96814 112.071 7.90476L116.929 7.09524C117.309 7.03186 117.694 7 118.079 7H122L132.5 8H137.232C137.742 8 138.252 7.9441 138.75 7.83331L141.75 7.16669C142.248 7.0559 142.758 7 143.268 7H151.086C151.991 7 152.86 7.35971 153.5 8C154.14 8.64029 155.009 9 155.914 9H162.188C162.727 9 163.265 8.93756 163.791 8.81392L170.176 7.31145C171.051 7.10574 171.956 7.0702 172.844 7.20677L177.471 7.9186C177.823 7.97279 178.179 8 178.535 8H181.462C182.793 8 184.097 7.62037 185.22 6.90563L186.189 6.28876C187.967 5.15708 190.161 4.88703 192.161 5.55361L192.422 5.64078C193.136 5.87871 193.884 6 194.636 6H199.578C200.466 6 201.296 5.55594 201.789 4.81665L202.526 3.7111C203.227 2.65924 204.773 2.65924 205.474 3.7111C205.803 4.20396 206.356 4.5 206.948 4.5H213H215.638C216.211 4.5 216.781 4.57019 217.336 4.709L219.146 5.16147C221.208 5.67691 223.385 5.00435 224.797 3.41596L225.574 2.5423C226.163 1.87932 227.008 1.5 227.895 1.5H229.5C230.328 1.5 231 2.17157 231 3C231 3.82843 231.672 4.5 232.5 4.5H233.828C234.579 4.5 235.298 4.20201 235.828 3.67157L236.276 3.22428C237.317 2.18288 238.888 1.88042 240.241 2.46057C241.052 2.80806 241.962 2.84591 242.799 2.56696L244.558 1.98057C245.481 1.67286 246.489 1.74447 247.359 2.17962C248.392 2.69606 249.608 2.69606 250.641 2.17962L250.701 2.14972C251.537 1.73132 252.499 1.6361 253.402 1.88226L257.5 3" stroke="var(--stroke-0, #203A65)" stroke-width="3"/>
</g>
<defs>
<filter id="filter0_d_14169_49413" x="0" y="0" width="262" height="32" filterUnits="userSpaceOnUse" color-interpolation-filters="sRGB">
<feFlood flood-opacity="0" result="BackgroundImageFix"/>
<feColorMatrix in="SourceAlpha" type="matrix" values="0 0 0 0 0 0 0 0 0 0 0 0 0 0 0 0 0 0 127 0" result="hardAlpha"/>
<feOffset dy="4"/>
<feGaussianBlur stdDeviation="2"/>
<feComposite in2="hardAlpha" operator="out"/>
<feColorMatrix type="matrix" values="0 0 0 0 0 0 0 0 0 0 0 0 0 0 0 0 0 0 0.25 0"/>
<feBlend mode="normal" in2="BackgroundImageFix" result="effect1_dropShadow_14169_49413"/>
<feBlend mode="normal" in="SourceGraphic" in2="effect1_dropShadow_14169_49413" result="shape"/>
</filter>
<clipPath id="clip0_14169_49413">
<rect width="254" height="24" fill="white" transform="translate(4)"/>
</clipPath>
</defs>
</svg>
