<svg preserveAspectRatio="none" width="100%" height="100%" overflow="visible" style="display: block;" viewBox="0 0 102 102" fill="none" xmlns="http://www.w3.org/2000/svg">
<g id="Twister">
<path id="Vector" d="M66.1395 57.4211C52.5289 57.4211 40.3207 61.7242 33.4676 68.7686C26.0089 64.2424 21.5145 58.0586 21.5145 51.0461C21.5936 48.328 22.2449 45.657 23.4257 43.2075C24.6065 40.758 26.2904 38.5848 28.3676 36.8299C33.4357 32.1124 45.357 24.8449 69.8051 25.1636H74.3314L73.6939 25.3868C71.0832 26.3411 68.7119 27.8531 66.7451 29.8174L57.3739 39.1886L61.8682 43.683L83.3839 22.3586L62.0276 0.970498L57.5014 5.49675L66.1395 14.1349C68.2039 16.1931 70.7115 17.7522 73.4707 18.693H73.6939H69.6139C49.5964 18.693 33.627 23.1874 24.0326 32.0805C21.3105 34.4475 19.1132 37.3574 17.5817 40.6234C16.0502 43.8895 15.2183 47.4397 15.1395 51.0461C15.1395 69.2149 37.0695 82.9211 66.1395 82.9211C79.272 82.9211 85.2645 76.323 85.2645 70.1711C85.2645 64.0193 79.3039 57.4211 66.1395 57.4211ZM66.1395 76.5461C57.0557 76.6826 48.0304 75.0702 39.5557 71.7968C47.2778 66.242 56.6343 63.4261 66.1395 63.7961C74.3951 63.7961 78.8895 66.9836 78.8895 70.1711C78.8895 73.3586 74.427 76.5461 66.1395 76.5461ZM27.8895 79.3193C27.8456 79.9879 27.8456 80.6587 27.8895 81.3274C27.8895 89.7105 34.6151 97.2649 45.8351 101.664L48.162 95.6711C39.5876 92.4836 34.2645 87.0968 34.2645 81.5186C34.2645 81.4549 27.8895 79.3193 27.8895 79.3193Z" fill="var(--fill-0, #A5A9AC)"/>
</g>
</svg>
