<svg preserveAspectRatio="none" width="100%" height="100%" overflow="visible" style="display: block;" viewBox="0 0 174 34" fill="none" xmlns="http://www.w3.org/2000/svg">
<g id="Logo client s 42" clip-path="url(#clip0_13915_44828)">
<path id="Vector" d="M47.2571 7.67294C52.0255 7.67294 56.1844 11.3991 56.1844 16.8081C56.1844 22.2171 52.0255 25.942 47.2571 25.942C42.4887 25.942 38.3285 22.2158 38.3285 16.8081C38.3285 11.4004 42.4874 7.67294 47.2571 7.67294ZM47.2571 22.8724C50.5199 22.8724 52.8867 20.3882 52.8867 16.8068C52.8867 13.2254 50.5199 10.7412 47.2571 10.7412C43.9942 10.7412 41.6275 13.2254 41.6275 16.8068C41.6275 20.3882 43.9942 22.8724 47.2571 22.8724Z" fill="var(--fill-0, #D9D9D9)"/>
<path id="Vector_2" d="M77.4135 25.5753V0H80.5691V25.5753H77.4135Z" fill="var(--fill-0, #D9D9D9)"/>
<path id="Vector_3" d="M136.921 8.03818V18.2694C136.921 22.8731 133.765 25.9414 129.57 25.9414C125.375 25.9414 122.22 22.8731 122.22 18.2694V8.03818H125.375V18.2694C125.375 20.9732 127.312 22.8731 129.57 22.8731C131.829 22.8731 133.765 20.9732 133.765 18.2694V8.03818H136.921Z" fill="var(--fill-0, #D9D9D9)"/>
<path id="Vector_4" d="M139.395 8.03872H142.407V10.0478H142.48C143.555 8.33081 145.026 7.67294 147.141 7.67294H147.858V10.7426H147.391C144.344 10.7426 142.551 12.6425 142.551 17.3923V25.5775H139.395V8.03872Z" fill="var(--fill-0, #D9D9D9)"/>
<path id="Vector_5" d="M164.103 8.03818V18.2694C164.103 22.8731 160.947 25.9414 156.752 25.9414C152.557 25.9414 149.401 22.8731 149.401 18.2694V8.03818H152.557V18.2694C152.557 20.9732 154.494 22.8731 156.752 22.8731C159.01 22.8731 160.947 20.9732 160.947 18.2694V8.03818H164.103Z" fill="var(--fill-0, #D9D9D9)"/>
<g id="Group">
<path id="Vector_6" d="M166.003 8.92382V8.337H168.889V8.92382H167.757V13.0118H167.142V8.92382H166.003Z" fill="var(--fill-0, #D9D9D9)"/>
<path id="Vector_7" d="M168.888 13.0094L169.399 8.8609C169.416 8.67933 169.478 8.53065 169.586 8.41749C169.693 8.30434 169.815 8.24645 169.949 8.24645C170.066 8.24645 170.172 8.28855 170.268 8.37276C170.363 8.45697 170.436 8.58459 170.485 8.75301L171.447 11.9687L172.365 8.82406C172.42 8.63854 172.498 8.49907 172.598 8.40565C172.7 8.31224 172.81 8.26618 172.928 8.26618C173.062 8.26618 173.178 8.31224 173.279 8.40565C173.381 8.49907 173.439 8.62012 173.452 8.77011L174.002 13.0107H173.354L172.903 9.18589L171.856 12.666C171.773 12.9265 171.63 13.0489 171.449 13.0489C171.269 13.0489 171.105 12.9252 171.025 12.6779L169.976 9.17141L169.545 13.0094H168.89H168.888Z" fill="var(--fill-0, #D9D9D9)"/>
</g>
<path id="Vector_8" d="M8.92861 7.62766C4.15894 7.62766 0 11.3538 0 16.7615V33.4661H3.15568V23.7902C4.7361 25.1283 6.76844 25.8954 8.92861 25.8954C13.697 25.8954 17.8559 22.1692 17.8559 16.7615C17.8559 11.3538 13.697 7.62766 8.92861 7.62766ZM8.92861 22.8271C5.66576 22.8271 3.299 20.343 3.299 16.7615C3.299 13.1801 5.66576 10.696 8.92861 10.696C12.1915 10.696 14.5582 13.1801 14.5582 16.7615C14.5582 20.343 12.1915 22.8271 8.92861 22.8271Z" fill="var(--fill-0, #D9D9D9)"/>
<path id="Vector_9" d="M33.8733 17.3923C33.2277 20.608 31.8294 22.8737 28.1004 22.8737C26.2527 22.8737 24.6917 22.075 23.6858 20.733L36.4183 13.2267C34.8043 9.82944 32.116 7.67294 28.1004 7.67294C23.332 7.67294 19.1731 11.3991 19.1731 16.8081C19.1731 22.2171 23.332 25.942 28.1004 25.942C32.8688 25.942 36.7062 22.4342 37.0639 17.7949L33.8733 17.3923ZM28.1004 10.7426C30.0372 10.7426 30.9333 11.3267 32.0089 12.4228L22.5754 18.0673C22.507 17.666 22.4721 17.2449 22.4721 16.8081C22.4721 13.2267 24.8389 10.7426 28.1017 10.7426H28.1004Z" fill="var(--fill-0, #D9D9D9)"/>
<path id="Vector_10" d="M66.8025 7.62766C62.0341 7.62766 57.8739 11.3538 57.8739 16.7628V33.4675H61.0296V23.7915C62.61 25.1296 64.6424 25.8967 66.8025 25.8967C71.5709 25.8967 75.7298 22.1705 75.7298 16.7628C75.7298 11.3552 71.5709 7.62766 66.8025 7.62766ZM66.8025 22.8271C63.5397 22.8271 61.1729 20.343 61.1729 16.7615C61.1729 13.1801 63.5397 10.696 66.8025 10.696C70.0654 10.696 72.4321 13.1801 72.4321 16.7615C72.4321 20.343 70.0654 22.8271 66.8025 22.8271Z" fill="var(--fill-0, #D9D9D9)"/>
<path id="Vector_11" d="M97.3029 17.3923C96.6574 20.608 95.259 22.8737 91.53 22.8737C89.6823 22.8737 88.1213 22.075 87.1154 20.733L99.8479 13.2267C98.2339 9.82944 95.5456 7.67294 91.53 7.67294C86.7616 7.67294 82.6027 11.3991 82.6027 16.8081C82.6027 22.2171 86.7616 25.942 91.53 25.942C96.2984 25.942 100.136 22.4342 100.493 17.7949L97.3029 17.3923ZM91.53 10.7426C93.4668 10.7426 94.3629 11.3267 95.4385 12.4228L86.005 18.0673C85.9366 17.666 85.9017 17.2449 85.9017 16.8081C85.9017 13.2267 88.2685 10.7426 91.5313 10.7426H91.53Z" fill="var(--fill-0, #D9D9D9)"/>
<g id="Group_2">
<path id="Vector_12" d="M120.428 14.8797C120.521 10.168 117.443 7.87073 114.35 7.6839C113.137 7.61811 111.928 7.9431 110.745 8.6707C109.561 7.94178 108.352 7.60627 107.14 7.6839C104.048 7.87073 100.97 10.1667 101.063 14.8797C101.105 17.0164 102.289 19.3006 104.581 21.6702C106.599 23.7543 108.738 25.1253 109.958 25.6674L110.744 26.0148L111.537 25.6661C112.576 25.2043 114.285 24.1333 116.016 22.536C116.016 22.536 116.675 21.8491 117.257 21.2386L117.275 25.3779C117.275 29.6528 114.119 30.9317 111.288 30.9317C109.674 30.9317 108.097 30.4935 106.519 30.0554L105.767 32.9777C107.595 33.5987 109.496 34.0013 111.432 34.0013C116.487 34.0013 120.432 30.8593 120.432 24.2833C120.432 24.2833 120.429 14.9152 120.429 14.8797H120.428ZM114.645 19.5387C113.295 20.9084 111.773 21.9241 110.863 22.3215L110.745 22.3728L110.629 22.3228C109.718 21.9241 108.195 20.9097 106.846 19.54C105.781 18.4585 104.505 16.8296 104.473 15.2086C104.413 12.2508 106.346 11.0851 108.02 10.9864C108.912 10.9338 109.829 11.2798 110.745 12.0153C111.662 11.2798 112.578 10.9338 113.471 10.9864C115.144 11.0851 117.077 12.2508 117.018 15.2086C116.986 16.8296 115.71 18.4585 114.645 19.54V19.5387Z" fill="var(--fill-0, #D9D9D9)"/>
<path id="Vector_13" d="M110.745 22.3728L110.629 22.3228C109.717 21.9241 108.195 20.9097 106.845 19.54C105.78 18.4585 104.505 16.8296 104.472 15.2086C104.413 12.2508 106.346 11.0851 108.019 10.9864C108.911 10.9338 109.828 11.2798 110.745 12.0153C111.662 11.2798 112.577 10.9338 113.471 10.9864C115.144 11.0851 117.077 12.2508 117.018 15.2086C116.985 16.8296 115.71 18.4585 114.644 19.54C113.295 20.9097 111.773 21.9254 110.862 22.3228L110.745 22.3741V22.3728Z" fill="var(--fill-0, #D9D9D9)"/>
</g>
</g>
<defs>
<clipPath id="clip0_13915_44828">
<rect width="174" height="34" fill="white"/>
</clipPath>
</defs>
</svg>
