<svg preserveAspectRatio="none" width="100%" height="100%" overflow="visible" style="display: block;" viewBox="0 0 94 35" fill="none" xmlns="http://www.w3.org/2000/svg">
<g id="Replenium-Primary-Logo-2 1">
<path id="Vector" d="M17.6762 2.455C18.268 2.09 19.019 2.0775 19.6187 2.4375C21.2693 3.32 22.9224 4.205 24.6043 5.03249C24.6095 4.13249 24.6043 3.23249 24.6069 2.3325C26.2053 2.34749 27.8011 2.345 29.3995 2.335C29.4177 4.0425 29.3526 5.755 29.4256 7.4625C30.7006 8.485 32.3694 8.98503 33.7201 9.92504C34.046 10.1775 34.265 10.575 34.252 10.985C34.2807 12.2525 34.2572 13.5225 34.2598 14.7925C33.2064 14.79 32.1529 14.79 31.0995 14.7925C31.0891 13.855 31.0891 12.92 31.0969 11.985C27.0188 9.71504 22.8025 7.67499 18.7296 5.395C14.6932 7.55499 10.649 9.70751 6.64388 11.9175C6.6152 13.615 6.68039 15.315 6.61781 17.01C6.58131 17.9775 5.3975 18.6975 4.46923 18.3075C3.8982 18.095 3.4836 17.5525 3.49925 16.96C3.47317 14.9725 3.4836 12.985 3.48881 10.9975C3.43146 10.34 3.95035 9.83754 4.51356 9.55999C8.89936 7.1875 13.2982 4.835 17.6762 2.455Z" fill="var(--fill-0, #D9D9D9)"/>
<path id="Vector_2" d="M0.962159 25.17C2.34674 22.985 3.68177 20.7675 5.00638 18.5475C6.45354 20.71 7.68166 22.995 9.10535 25.17C8.28399 25.18 7.46263 25.18 6.64127 25.1725C6.63084 26.7375 6.62563 28.305 6.6517 29.87C14.8001 29.865 22.9485 29.8725 31.0969 29.8675C31.0917 29.285 31.0917 28.7025 31.0891 28.1225C32.1477 28.1275 33.2064 28.1275 34.265 28.1225C34.2468 29.2525 34.3015 30.38 34.2416 31.5075C34.2155 32.3125 33.428 32.9825 32.5936 32.9225C23.4674 32.9275 14.3412 32.8975 5.21497 32.885C4.35711 32.975 3.47839 32.33 3.49925 31.4725C3.46274 29.375 3.50186 27.275 3.48621 25.1775C2.64399 25.1775 1.80438 25.18 0.962159 25.17Z" fill="var(--fill-0, #D9D9D9)"/>
<path id="Vector_3" d="M63.7844 12.9376C64.6162 12.94 65.448 12.9376 66.2824 12.94C66.2876 13.7551 66.285 14.5701 66.285 15.385C65.448 15.3826 64.6136 15.3826 63.7792 15.3876C63.7792 14.5701 63.7792 13.7525 63.7844 12.9376Z" fill="var(--fill-0, #D9D9D9)"/>
<path id="Vector_4" d="M10.8471 13.1651C12.5316 13.1676 14.2134 13.1676 15.8979 13.1626C16.8679 13.1701 17.9239 13.2201 18.74 13.7826C20.122 14.7251 20.5653 16.7101 19.6944 18.1101C19.3632 18.7151 18.7348 19.0726 18.1612 19.4351C18.8939 21.0401 19.6005 22.6551 20.2602 24.2851C19.3007 24.2876 18.341 24.2776 17.379 24.3101C16.6097 22.8851 16.1769 21.3251 15.5042 19.8601C14.8731 19.8626 14.2447 19.8626 13.6163 19.8601C13.6267 21.2926 13.5877 22.7226 13.6476 24.1526C12.7271 24.3401 11.7832 24.1876 10.8523 24.2976C10.8341 20.5876 10.8471 16.8776 10.8471 13.1651ZM13.6111 15.1626C13.619 16.0976 13.6163 17.0326 13.6163 17.9676C14.5341 17.9476 15.4598 18.0251 16.3724 17.8951C17.6005 17.5376 17.6866 15.6151 16.4272 15.2501C15.5042 15.0701 14.5472 15.1926 13.6111 15.1626Z" fill="var(--fill-0, #D9D9D9)"/>
<path id="Vector_5" d="M40.4656 13.1626C41.2922 13.1676 42.1188 13.1676 42.9453 13.1626C42.9271 16.8451 42.9818 20.5301 42.9219 24.2101C42.1397 24.3776 41.3131 24.2576 40.5152 24.3076C40.4005 20.5951 40.4969 16.8776 40.4656 13.1626Z" fill="var(--fill-0, #D9D9D9)"/>
<path id="Vector_6" d="M90.2817 13.8551C90.5893 13.8551 90.8996 13.8526 91.2126 13.8476C91.9895 14.3525 91.8435 15.3401 91.2204 15.9001C91.2569 15.6101 90.6076 15.2126 90.9284 14.9125C91.2464 14.5275 91.6482 15.4526 91.2986 15.5926L91.5569 15.0676C91.5624 14.9101 91.5724 14.5975 91.5779 14.44C90.9205 14.61 89.7107 14.0576 89.7733 15.105C90.2426 15.1801 90.5659 15.4725 90.6233 15.9351C90.3261 15.6125 89.6872 15.4725 89.6455 14.9776C89.5021 14.5001 90.0262 14.1926 90.2817 13.8551Z" fill="var(--fill-0, #D9D9D9)"/>
<path id="Vector_7" d="M22.7894 16.85C24.3956 15.4125 27.2718 15.6175 28.6016 17.31C29.3603 18.23 29.4881 19.445 29.548 20.575C27.6916 20.5875 25.835 20.565 23.9785 20.59C24.0567 21.1125 24.0071 21.7075 24.3904 22.135C24.8337 22.745 25.7307 22.8025 26.4034 22.565C26.8624 22.3275 27.0266 21.8225 27.2665 21.415C28.0044 21.48 28.7424 21.5625 29.4829 21.6275C29.0344 22.98 27.8924 24.2225 26.3513 24.38C24.8468 24.605 23.1545 24.17 22.2288 22.9475C20.8886 21.15 21.0816 18.3725 22.7894 16.85ZM24.7268 17.71C24.2419 18.035 24.1401 18.6224 23.9733 19.125C25.0085 19.155 26.0462 19.155 27.0814 19.1325C26.9379 18.6275 26.8832 18.0275 26.4113 17.6875C25.9054 17.3875 25.2249 17.4025 24.7268 17.71Z" fill="var(--fill-0, #D9D9D9)"/>
<path id="Vector_8" d="M31.1204 16.08C31.8974 16.08 32.6718 16.08 33.4488 16.085C33.4411 16.45 33.4306 16.815 33.4202 17.18C34.0199 16.055 35.4749 15.5925 36.6822 16.0576C38.0459 16.5076 38.6613 17.95 38.7655 19.23C38.8855 20.6901 38.8151 22.33 37.7929 23.51C36.7473 24.7275 34.4762 24.8026 33.5324 23.4251C33.5636 24.6326 33.5506 25.8425 33.5453 27.05C32.7475 27.0476 31.9496 27.0525 31.1542 27.0725C31.0839 23.4076 31.149 19.7425 31.1204 16.08ZM34.5466 17.62C33.9261 17.7851 33.6314 18.4326 33.5845 19C33.5219 19.9175 33.5011 20.8476 33.621 21.76C33.8087 22.6475 35.1933 23.095 35.7487 22.2651C36.3927 21.3076 36.1946 20.0675 36.1268 18.9875C36.085 18.2276 35.441 17.3375 34.5466 17.62Z" fill="var(--fill-0, #D9D9D9)"/>
<path id="Vector_9" d="M46.2595 16.6101C48.0248 15.3576 50.8774 15.7826 52.0064 17.6376C52.627 18.5001 52.64 19.5751 52.6504 20.5826C50.833 20.5776 49.0182 20.5801 47.2034 20.5776C47.1174 21.4576 47.459 22.5701 48.528 22.6751C49.4328 22.8876 50.1942 22.2476 50.3741 21.4301C51.1433 21.4776 51.9099 21.5526 52.6792 21.6251C52.2489 22.7901 51.3832 23.8926 50.1056 24.2601C48.5724 24.6601 46.7445 24.3951 45.6389 23.2251C43.918 21.3825 44.1709 18.1076 46.2595 16.6101ZM47.1721 19.1301C48.1968 19.1526 49.2216 19.1526 50.2463 19.1426C50.1473 18.4551 49.8917 17.5526 49.0208 17.4901C47.9518 17.2601 47.2373 18.2176 47.1721 19.1301Z" fill="var(--fill-0, #D9D9D9)"/>
<path id="Vector_10" d="M56.6294 17.3651C57.044 16.8375 57.443 16.2126 58.1418 16.0076C59.0987 15.7651 60.2304 15.8701 60.984 16.54C61.5889 17.1126 61.6984 17.9701 61.701 18.7476C61.7088 20.5676 61.6932 22.3901 61.7063 24.2101C60.8823 24.1151 59.8393 24.5776 59.164 24.0501C58.9945 22.21 59.4169 20.355 59.0858 18.5276C59.0414 17.9925 58.4208 17.7001 57.915 17.8026C57.1822 17.8551 56.8459 18.6126 56.7989 19.2276C56.6972 20.9201 56.8459 22.6176 56.7233 24.31C55.915 24.2876 55.1067 24.2826 54.2983 24.2826C54.2618 21.5501 54.3088 18.8176 54.2749 16.085C55.0597 16.0801 55.8472 16.0801 56.6321 16.0901C56.6294 16.5151 56.6269 16.9401 56.6294 17.3651Z" fill="var(--fill-0, #D9D9D9)"/>
<path id="Vector_11" d="M63.7792 16.08C64.6136 16.08 65.448 16.08 66.285 16.0776C66.2876 18.7925 66.285 21.5076 66.285 24.2201C65.448 24.2151 64.6136 24.2151 63.7766 24.2175C63.7844 21.505 63.7792 18.7925 63.7792 16.08Z" fill="var(--fill-0, #D9D9D9)"/>
<path id="Vector_12" d="M68.3761 16.0826C69.1871 16.08 69.9981 16.08 70.8116 16.0826C70.8455 18.0451 70.7255 20.0151 70.8663 21.9726C71.3226 22.9676 73.0488 22.4026 73.1166 21.4151C73.187 19.6376 73.1166 17.8551 73.1427 16.0776C73.9796 16.0826 74.8167 16.0826 75.6537 16.08C75.6459 18.7501 75.6876 21.4226 75.6406 24.0901C75.0488 24.5701 74.0579 24.1351 73.3148 24.1951C73.3278 23.7751 73.3434 23.3526 73.3617 22.9301C72.5638 24.7976 69.2158 25.0726 68.5092 23.0176C68.2172 20.7251 68.4648 18.39 68.3761 16.0826Z" fill="var(--fill-0, #D9D9D9)"/>
<path id="Vector_13" d="M80.1178 17.1875C81.0199 15.4351 83.9638 15.4526 84.8425 17.2251C85.6873 15.7776 87.8645 15.4526 89.1735 16.4976C89.9453 17.1051 89.8698 18.1401 89.8854 19.0001C89.8619 20.7676 89.9271 22.5375 89.8463 24.3026C89.0353 24.2875 88.2218 24.2826 87.4109 24.2925C87.377 22.6125 87.4082 20.9351 87.3978 19.2551C87.3665 18.8376 87.4109 18.3151 87.038 18.0176C86.3209 17.5101 85.0876 17.9875 85.1163 18.9025C85.0042 20.6676 85.1007 22.4401 85.0746 24.2101C84.235 24.2151 83.3953 24.2151 82.5584 24.2276C82.5479 22.6526 82.5584 21.0801 82.5584 19.5051C82.5348 18.9876 82.6078 18.3651 82.1333 17.9976C81.4241 17.5526 80.3159 17.9451 80.2116 18.7876C80.0969 20.6175 80.2064 22.4526 80.1595 24.2875C79.3746 24.2826 78.5923 24.2875 77.8101 24.3126C77.6641 21.575 77.7997 18.8275 77.7397 16.085C78.535 16.08 79.3303 16.08 80.1255 16.0926C80.123 16.3676 80.1203 16.9151 80.1178 17.1875Z" fill="var(--fill-0, #D9D9D9)"/>
</g>
</svg>
