<svg preserveAspectRatio="none" width="100%" height="100%" overflow="visible" style="display: block;" viewBox="0 0 116 20" fill="none" xmlns="http://www.w3.org/2000/svg">
<path id="Path 5" d="M5.58544 19.7532H0V0.3236H9.65984L20.7418 14.829V0.3236H26.3274V19.7532H16.863L5.58525 5.00039L5.58544 19.7532ZM53.0512 13.7455C53.0512 16.4462 52.5846 17.3771 51.8112 18.2705C50.626 19.6004 48.9027 20 45.5802 20H36.0438C32.7213 20 30.9957 19.6 29.8116 18.2705C29.0396 17.3786 28.572 16.4462 28.572 13.7455V6.25562C28.572 3.55534 29.0398 2.62486 29.8116 1.73065C30.9957 0.399604 32.7217 0 36.0438 0H45.5806C48.902 0 50.6268 0.399992 51.8112 1.73065C52.5844 2.62467 53.0512 3.55495 53.0512 6.25562V13.7455ZM45.3456 15.0766C46.6212 15.0766 47.0704 15.0004 47.3765 14.7158C47.6633 14.4496 47.7897 14.1073 47.7897 12.9657V7.03467C47.7897 5.89363 47.6633 5.55316 47.3765 5.28579C47.0712 5.00039 46.6212 4.92496 45.3456 4.92496H36.2784C35.0028 4.92496 34.5536 5.00039 34.2486 5.28579C33.9611 5.55297 33.8354 5.89383 33.8354 7.03467V12.9651C33.8354 14.1062 33.9607 14.449 34.2486 14.7152C34.5532 14.9998 35.0028 15.076 36.2784 15.076H45.3465L45.3456 15.0766ZM61.1684 0.3236V19.7532H55.3324V0.3236H61.1684ZM71.0284 0.3236H78.7329L68.3348 9.41213L80.0627 19.7532H71.8176L61.1684 9.62017L71.0284 0.3236ZM81.1393 0.3236H86.9773V19.7532H81.1393V0.3236ZM109.23 19.7532L107.502 16.3685H96.2089L94.503 19.7532H88.0548L98.4002 0.3236H105.655L116 19.7532H109.23ZM98.2363 12.1483H105.493L101.864 5.11401L98.2363 12.1483Z" fill="var(--fill-0, #D9D9D9)"/>
</svg>
