<svg preserveAspectRatio="none" width="100%" height="100%" overflow="visible" style="display: block;" viewBox="0 0 175.489 26.1947" fill="none" xmlns="http://www.w3.org/2000/svg">
<g id="Container">
<path id="Path 1" d="M41.5562 25.2875H33.8065C34.8093 24.3809 35.0847 21.1177 35.4475 15.2263L35.5384 13.8666C35.8121 10.603 35.9033 7.97488 35.9033 6.16203C35.9033 4.62124 35.7209 3.62398 35.2642 3.26153H43.925C46.0221 3.26153 50.1249 3.35192 50.1249 7.61214C50.1249 10.5126 47.4813 12.2348 45.0193 12.8685C48.4838 13.1402 51.0367 14.8612 51.0367 18.3977C51.128 22.2048 47.481 25.2867 41.5547 25.2867L41.5562 25.2875ZM41.2811 14.5906H39.7313L39.4579 17.8542C39.3667 19.3043 39.2755 20.4823 39.2755 21.933C39.2755 22.1144 39.9146 22.5684 41.3726 22.5684C44.4726 22.5684 46.4782 21.0273 46.4782 18.4892C46.5691 15.6797 44.1077 14.5918 41.2811 14.5918V14.5906ZM41.9202 5.89026C41.4019 5.87786 40.8834 5.90811 40.3701 5.98066C40.1198 7.5407 39.9681 9.11482 39.916 10.6937C39.916 10.6937 39.8248 12.0534 39.8248 11.9628H40.3718C43.1981 11.9628 45.7513 10.9658 45.7513 8.42774C45.842 6.97763 44.5655 5.88997 41.9216 5.88997L41.9202 5.89026ZM69.2733 25.4686C67.3589 25.4686 67.1765 25.3779 65.7179 20.2123L65.1706 18.3087C64.259 18.7619 62.6179 18.9441 60.065 18.9441H57.4214L56.9656 19.9411C56.5098 20.9383 55.4158 23.0233 55.4158 24.292C55.4084 24.6267 55.4389 24.9611 55.5067 25.289H50.2196C51.6782 23.8389 53.6844 20.3035 56.3283 14.6839L57.8781 11.4204C59.2458 8.42918 60.7956 5.07525 60.7956 4.62239C60.7927 4.18516 60.6996 3.75317 60.5222 3.35307H65.3524C65.3524 3.35307 66.6289 8.06643 67.7229 12.0549L68.6348 15.4992C70.2759 21.3909 71.3699 24.2007 72.6464 25.2898C71.3699 25.3808 69.8201 25.4715 69.2728 25.4715L69.2733 25.4686ZM62.3437 8.43178L58.6967 16.1366H64.5318L62.3428 8.42803L62.3437 8.43178ZM90.2418 26.1938C88.6008 26.1938 88.2374 25.922 87.6892 25.1968L81.3983 16.677C80.9425 15.9518 80.4865 15.4986 79.7573 15.4986H79.6664L79.5751 17.2208C79.4842 19.4871 79.3018 21.2997 79.3018 22.6594C79.3018 24.1095 79.4842 25.016 79.9409 25.3785H73.9234C74.8353 24.6533 75.1087 22.115 75.6557 15.3173L75.7466 13.9576C76.02 10.694 76.1115 8.06586 76.1115 6.25301C76.1115 4.71221 75.929 3.71524 75.4724 3.3525H83.587C86.3221 3.3525 89.8778 3.80564 89.8778 8.06586C89.8778 11.6009 87.5073 13.5044 84.5907 14.4107C84.9776 14.8144 85.3428 15.2381 85.6847 15.68L90.1523 21.5717C92.9786 25.2881 93.1608 25.4706 94.1642 25.9226C92.8645 26.1003 91.5543 26.1912 90.2424 26.1947L90.2418 26.1938ZM82.219 5.98153C81.6401 5.96649 81.0609 5.99681 80.4867 6.07221C80.3043 6.97849 80.2134 8.60997 80.0309 11.2387L79.94 12.7798C80.2687 12.8546 80.606 12.885 80.9428 12.8702C83.6779 12.8702 85.5926 11.148 85.5926 8.70066C85.5014 6.9785 84.3161 5.98153 82.219 5.98153V5.98153ZM102.004 25.7415C96.2599 25.7415 92.9778 21.0282 92.9778 15.8614C92.9778 8.61026 96.9893 2.89965 104.557 2.89965C106.927 2.89965 108.021 3.35279 110.027 3.35279L109.48 8.97185C108.386 6.97907 106.563 5.70831 104.193 5.70831C99.4519 5.70831 97.5375 10.7841 97.5375 15.135C97.5375 19.8484 100.273 22.4771 103.737 22.4771C105.652 22.4771 107.384 22.024 110.21 20.0298C109.025 23.4741 106.381 25.7404 102.005 25.7404L102.004 25.7415ZM141.027 25.4683C139.112 25.4683 139.022 25.3776 137.471 20.212L136.924 18.3085C136.012 18.7616 134.371 18.9438 131.819 18.9438H129.083L128.628 19.9408C127.898 21.3912 127.078 23.1134 127.078 24.2917C127.078 24.5635 127.169 24.9271 127.169 25.2887H111.486C112.398 24.2917 112.671 21.0285 113.127 15.2274L113.218 13.8677C113.492 10.5141 113.583 7.97604 113.583 6.16319C113.583 4.71308 113.4 3.71582 113.036 3.26268H119.144C118.233 3.89806 117.959 7.43221 117.594 13.3239L117.503 14.6836C117.412 16.8589 117.048 19.1249 117.048 21.2107C117.048 22.2077 117.412 22.4797 118.506 22.4797C122.244 22.4797 123.065 22.3893 124.797 21.3014C125.891 19.3978 126.985 17.0412 128.17 14.5938L129.72 11.3303C131.179 8.24838 132.638 5.07582 132.638 4.53199C132.635 4.09486 132.542 3.66296 132.364 3.26297H137.197C137.197 3.26297 139.111 10.4237 139.567 11.9645L140.479 15.4091C142.12 21.3008 143.123 24.1106 144.582 25.1997C143.402 25.3543 142.215 25.4451 141.026 25.4718L141.027 25.4683ZM134.097 8.43206L130.541 16.1329H136.285L134.097 8.42803L134.097 8.43206ZM154.885 13.4131C154.429 14.3197 153.7 15.4059 153.335 16.3137C152.97 17.9451 152.879 20.1207 152.879 22.4774C152.879 23.4744 153.061 24.8341 153.518 25.2872H147.499C148.593 24.2903 148.958 18.2172 148.958 16.223C148.033 13.224 146.843 10.3121 145.402 7.52145C144.308 5.52867 143.123 3.62253 142.302 3.26123C143.67 3.17055 145.402 3.07987 146.224 3.07987C147.683 3.07987 148.139 3.26123 149.05 5.25517C150.509 8.51871 151.512 10.9655 152.15 12.6877C153.609 10.331 154.703 8.69951 156.072 6.43351C156.345 5.88969 156.711 5.16449 156.711 4.52997C156.711 4.07683 156.62 3.44232 156.438 3.26094H162.364C161.088 3.53329 155.982 11.6006 154.888 13.4131H154.885ZM174.942 8.42803C174.414 7.54829 173.667 6.81898 172.772 6.31081C171.878 5.80263 170.866 5.53282 169.836 5.52752C167.921 5.52752 166.28 6.25272 166.28 8.24694C166.28 9.96911 168.377 11.0568 170.566 12.5069C172.936 13.957 175.398 15.7704 175.398 18.9424C175.398 23.0215 171.386 25.6503 166.645 25.6503C164.525 25.6218 162.426 25.223 160.445 24.4719L160.81 19.0334C161.904 21.2087 163.91 22.9308 166.918 22.9308C169.198 22.9308 171.021 21.8429 171.021 19.849C171.021 18.2175 169.654 17.1298 167.921 16.1329C164.274 13.9576 161.995 12.2339 161.995 9.06283C161.995 4.34947 165.915 2.80868 170.11 2.80868C172.48 2.80868 174.03 3.26182 175.489 3.26182L174.942 8.42803Z" fill="var(--fill-0, #D9D9D9)"/>
<path id="Path 3" d="M23.284 5.5767C23.0106 4.90712 22.5449 4.33315 21.9455 3.92697C21.6065 3.67184 21.2364 3.46065 20.844 3.29846C20.5112 3.20203 20.1671 3.14919 19.8206 3.14127H19.7403C19.268 3.14127 18.4021 3.21987 17.9298 3.92697C17.8103 4.08093 17.7271 4.2597 17.6863 4.45007C17.6454 4.64044 17.6479 4.83753 17.6937 5.02679C17.7284 5.18897 17.8046 5.3394 17.9151 5.46335C18.0255 5.58729 18.1662 5.68051 18.3236 5.73389C18.3897 5.78844 18.4739 5.81637 18.5596 5.81223C18.546 5.8944 18.5194 5.97389 18.4809 6.04777C18.2448 6.2833 17.851 6.67627 16.6703 6.67627H16.5923C15.9624 6.59792 15.4901 6.44074 14.7817 5.73364C14.3881 5.26232 14.1518 4.39803 14.1518 3.06268C14.1674 2.47801 14.0876 1.89471 13.9155 1.3356C13.7979 1.01169 13.5765 0.735522 13.2856 0.549909C13.0403 0.38754 12.7759 0.255658 12.4985 0.157187C12.057 0.0707267 11.6095 0.0181787 11.16 0C10.6877 0 10.3726 0.0785898 10.2153 0.314373H9.74299C9.50695 0.314373 9.19114 0.392722 8.95585 0.392722C8.54661 0.478516 8.16647 0.668173 7.85214 0.943379C7.64081 1.13834 7.47892 1.38061 7.3798 1.65023C7.39443 1.83524 7.42065 2.01916 7.45832 2.2009L7.53708 2.27924C7.78721 2.09784 8.09521 2.01406 8.40299 2.0437C8.95484 2.0437 9.74124 2.27924 9.89877 2.67221C10.2923 3.30072 10.1348 3.77203 10.1348 4.32194C9.89877 5.81449 9.34767 6.52158 8.1667 6.67852C7.96243 6.73876 7.74967 6.76531 7.53683 6.75712C6.67092 6.75712 6.04105 6.52159 5.726 5.97143V5.81423C5.78644 5.80855 5.84259 5.78063 5.88352 5.73589C6.03403 5.67129 6.16847 5.57447 6.27731 5.45228C6.38616 5.33009 6.46675 5.18551 6.51339 5.02879C6.5546 4.83925 6.55486 4.64314 6.51416 4.4535C6.47346 4.26385 6.39273 4.08504 6.27735 3.92897C6.04255 3.68506 5.76161 3.49003 5.45078 3.35517C5.13996 3.22031 4.80541 3.14829 4.46651 3.14327C4.09366 3.14544 3.72284 3.19832 3.36431 3.30046C2.41938 3.53599 1.55347 4.32169 0.923858 5.5782C0.415585 6.60787 0.12146 7.72955 0.0592024 8.87567C-0.0197341 9.94785 -0.0197341 11.0244 0.0592024 12.0965C0.109065 13.3122 0.375701 14.5093 0.846598 15.6315C1.22325 16.6191 1.69786 17.5666 2.26336 18.4599C2.37669 18.6801 2.50834 18.8903 2.65693 19.0884L2.7357 19.0101C2.83289 18.9205 2.91289 18.814 2.97174 18.6957C3.35927 18.3166 3.70259 17.895 3.99518 17.439C4.21194 17.1172 4.39677 16.7752 4.54703 16.4177L4.6258 16.2608L4.78333 16.3391C4.94094 16.51 5.02561 16.7355 5.01937 16.9676C4.98943 17.2921 4.90982 17.6101 4.78333 17.9105C4.57276 18.5336 4.309 19.1376 3.99493 19.7157C4.07344 19.7943 4.07344 19.9515 3.99493 19.9515C3.8407 20.1549 3.75777 20.4033 3.75888 20.6583H3.8369C4.07522 20.6237 4.29606 20.5135 4.46676 20.3439C4.70281 20.187 5.33267 19.6371 6.12007 18.5373C6.74994 17.7516 7.14351 16.8875 7.61585 15.9449L7.69461 15.7877L7.85189 15.8663C7.93065 15.9447 8.00942 15.9447 8.08793 16.0233C8.15781 16.225 8.18464 16.4391 8.1667 16.6518C8.08793 17.2803 7.69436 18.1446 7.45807 18.7731C6.98573 19.8729 6.11982 21.0508 5.48995 21.9153C5.47294 21.9709 5.44252 22.0214 5.40136 22.0625C5.36021 22.1035 5.30957 22.1339 5.25391 22.1509C5.34352 22.2479 5.45023 22.3278 5.56872 22.3864L5.80501 22.6219C6.63358 23.3131 7.53034 23.9185 8.4815 24.4289C9.57617 25.0755 10.7376 25.6023 11.9456 26C13.0478 25.7645 14.6224 24.8999 15.4098 24.4289C16.361 23.9185 17.2579 23.3131 18.0865 22.6219L18.3226 22.3864C18.4799 22.3081 18.5586 22.1509 18.6374 22.1509C18.6923 22.0555 18.7196 21.9467 18.7161 21.8367L18.6366 21.7591C17.8555 20.7951 17.1946 19.74 16.6685 18.6169C16.4325 17.9884 16.0386 17.1243 15.9599 16.4958C15.9025 16.2841 15.9307 16.0584 16.0386 15.8673L16.1959 15.7101C16.264 15.6589 16.347 15.6314 16.4322 15.6318L16.5107 15.7887C16.945 16.6882 17.445 17.5547 18.0065 18.3811C18.7939 19.4809 19.4235 20.0308 19.6598 20.188C19.8211 20.3701 20.0469 20.4827 20.2897 20.5021H20.3684C20.447 20.4238 20.3684 20.2666 20.1322 19.8736C20.1023 19.8427 20.0798 19.8055 20.0662 19.7647C20.0527 19.724 20.0484 19.6807 20.0536 19.6381C19.7397 19.0594 19.4763 18.4549 19.2662 17.8312C19.148 17.5282 19.0687 17.2114 19.0302 16.8885C19.0238 16.6564 19.1085 16.4308 19.2662 16.26L19.4238 16.1814L19.5023 16.3386C19.6778 16.7239 19.8886 17.092 20.1322 17.4385C20.2897 17.674 20.9196 18.3813 21.0771 18.6169C21.2346 18.7741 21.3131 18.8524 21.3131 18.931L21.3916 19.0096C21.5194 18.84 21.6253 18.655 21.7067 18.4589L21.7852 18.3806C22.3086 17.4762 22.7563 16.5301 23.1237 15.5522C23.5173 14.6096 23.7536 13.5883 23.9111 12.0172C24.0296 10.9469 24.0296 9.86685 23.9111 8.79657C23.9633 7.68835 23.7482 6.58382 23.284 5.5757V5.5767Z" fill="var(--fill-0, #D9D9D9)"/>
</g>
</svg>
