<svg preserveAspectRatio="none" width="100%" height="100%" overflow="visible" style="display: block;" viewBox="0 0 111.924 31.7561" fill="none" xmlns="http://www.w3.org/2000/svg">
<g id="Group">
<path id="Vector" d="M10.957 9.01382V11.9469C10.7078 11.9469 10.4608 11.9027 10.2524 11.9027C5.70507 11.9027 2.94543 14.88 2.94543 20.1521V31.5444H0V9.17923H2.81175V13.5614C4.17571 10.5864 6.94668 9.01382 10.957 9.01382Z" fill="var(--fill-0, white)"/>
<path id="Vector_2" d="M32.9091 21.2981H14.7267C15.0575 25.9761 18.5308 29.0793 23.2866 29.0793C25.9306 29.0793 28.2893 28.1008 29.9432 26.1462L31.5949 28.1008C29.6532 30.4818 26.6353 31.7561 23.2118 31.7561C16.4124 31.7561 11.7813 26.9966 11.7813 20.3639C11.7813 13.7312 16.29 9.01355 22.4075 9.01355C28.5249 9.01355 32.9521 13.6473 32.9521 20.3639C32.9521 20.6178 32.9091 20.9673 32.9091 21.2981ZM14.7267 19.0453H30.1336C29.7665 14.6771 26.667 11.6065 22.4075 11.6065C18.191 11.6065 15.0892 14.6771 14.7267 19.0453Z" fill="var(--fill-0, white)"/>
<path id="Vector_3" d="M36.8789 0H39.813V31.5442H36.8789V0Z" fill="var(--fill-0, white)"/>
<path id="Vector_4" d="M43.7441 20.3639C43.7441 13.7312 48.4568 9.01355 54.8235 9.01355C61.1902 9.01355 65.8643 13.7312 65.8643 20.3639C65.8643 26.9966 61.1924 31.7561 54.8235 31.7561C48.4546 31.7561 43.7441 26.9966 43.7441 20.3639ZM62.8872 20.3639C62.8872 15.143 59.4546 11.6484 54.8326 11.6484C50.2105 11.6484 46.7213 15.143 46.7213 20.3639C46.7213 25.5848 50.1946 29.0793 54.8235 29.0793C59.4524 29.0793 62.8872 25.5917 62.8872 20.3639Z" fill="var(--fill-0, white)"/>
<path id="Vector_5" d="M86.0819 17.6843V31.5437H83.2702V28.0492C81.947 30.3439 79.3845 31.7464 75.7933 31.7464C70.8744 31.7464 67.8633 29.1115 67.8633 25.2419C67.8633 21.7986 70.0112 18.9074 76.2464 18.9074H83.1546V17.5585C83.1546 13.7308 81.0384 11.648 76.9851 11.648C74.1733 11.648 71.5292 12.6685 69.7506 14.2829L68.4274 12.0301C70.6184 10.1174 73.8425 9.0015 77.2751 9.0015C82.8986 9.01314 86.0819 11.902 86.0819 17.6843ZM83.1365 24.8272V21.1719H76.3235C72.107 21.1719 70.743 22.8702 70.743 25.1673C70.743 27.7603 72.7686 29.3748 76.2419 29.3748C79.5499 29.3748 81.9878 27.7603 83.1546 24.8272H83.1365Z" fill="var(--fill-0, white)"/>
<path id="Vector_6" d="M111.924 0V31.5442H109.105V27.1178C107.327 30.1464 104.309 31.7516 100.711 31.7516C94.5097 31.7516 89.8809 27.1178 89.8809 20.3593C89.8809 13.6008 94.5097 9.00898 100.711 9.00898C104.184 9.00898 107.162 10.5396 108.981 13.4354V0H111.924ZM109.022 20.364C109.022 15.1431 105.551 11.6485 100.96 11.6485C96.3291 11.6485 92.8558 15.1431 92.8558 20.364C92.8558 25.5848 96.3291 29.0794 100.96 29.0794C105.551 29.0794 109.022 25.5918 109.022 20.364Z" fill="var(--fill-0, white)"/>
</g>
</svg>
