<svg preserveAspectRatio="none" width="100%" height="100%" overflow="visible" style="display: block;" viewBox="0 0 34 13" fill="none" xmlns="http://www.w3.org/2000/svg">
<g id="Logo" clip-path="url(#clip0_14175_49614)">
<path id="Vector" d="M8.07051 0C6.74272 0 5.46934 0.524355 4.53046 1.45772L1.46634 4.50381C0.527458 5.43716 0 6.70306 0 8.02304C0 10.7718 2.24145 13 5.00641 13C6.3342 13 7.60759 12.4756 8.54647 11.5423L10.6659 9.43527C10.666 9.43531 10.6659 9.43523 10.6659 9.43527L16.8413 3.29619C17.2897 2.85043 17.8979 2.6 18.532 2.6C19.5937 2.6 20.4938 3.28788 20.8059 4.23976L22.7548 2.30228C21.8657 0.917947 20.3067 0 18.532 0C17.2043 0 15.9309 0.524355 14.992 1.45772L6.69713 9.70381C6.24872 10.1496 5.64056 10.4 5.00641 10.4C3.68588 10.4 2.61538 9.33582 2.61538 8.02304C2.61538 7.39262 2.86729 6.78804 3.3157 6.34227L6.37979 3.29619C6.8282 2.85043 7.43637 2.6 8.07051 2.6C9.13223 2.6 10.0323 3.28791 10.3443 4.23982L12.2933 2.30233C11.4042 0.917973 9.84522 0 8.07051 0Z" fill="var(--fill-0, #333333)"/>
<path id="Vector_2" d="M17.1587 9.70381C16.7103 10.1496 16.1021 10.4 15.468 10.4C14.4064 10.4 13.5064 9.7123 13.1943 8.76057L11.2454 10.698C12.1345 12.0822 13.6934 13 15.468 13C16.7957 13 18.0691 12.4756 19.008 11.5423L27.3029 3.29619C27.7513 2.85043 28.3594 2.6 28.9936 2.6C30.3141 2.6 31.3846 3.6642 31.3846 4.97696C31.3846 5.60738 31.1327 6.21196 30.6843 6.65773L27.6202 9.70381C27.1718 10.1496 26.5636 10.4 25.9295 10.4C24.8679 10.4 23.9678 9.71217 23.6557 8.76035L21.7068 10.6978C22.5959 12.0821 24.1549 13 25.9295 13C27.2573 13 28.5307 12.4756 29.4695 11.5423L32.5336 8.49619C33.4725 7.56284 34 6.29694 34 4.97696C34 2.22826 31.7586 0 28.9936 0C27.6658 0 26.3924 0.524355 25.4535 1.45772L17.1587 9.70381Z" fill="var(--fill-0, #333333)"/>
</g>
<defs>
<clipPath id="clip0_14175_49614">
<rect width="34" height="13" fill="white"/>
</clipPath>
</defs>
</svg>
