<svg preserveAspectRatio="none" width="100%" height="100%" overflow="visible" style="display: block;" viewBox="0 0 79.9343 32.4004" fill="none" xmlns="http://www.w3.org/2000/svg">
<g id="Group">
<path id="Vector" fill-rule="evenodd" clip-rule="evenodd" d="M50.9089 5.2366C48.048 7.5411 44.9297 9.4152 41.6215 10.8083C39.8415 7.5399 37.6033 4.4534 34.9566 1.606C36.5196 1.0904 38.1872 0.7988 39.9257 0.7988C44.2044 0.7988 48.0812 2.4946 50.9089 5.2366ZM40.3621 14.0345C40.7906 14.9319 41.178 15.8484 41.5426 16.7726C36.2644 18.4962 31.6497 22.0813 28.7707 27.0925C25.9967 24.32 24.2782 20.5202 24.2578 16.3211C29.8916 16.6301 35.3389 15.8071 40.3621 14.0345ZM42.7866 13.0938C43.2511 14.077 43.6662 15.0765 44.0563 16.0833C47.8775 15.2947 51.8398 15.4832 55.5662 16.6309C55.5682 16.579 55.5719 16.5274 55.5756 16.4758C55.5811 16.3979 55.5866 16.3199 55.5866 16.2405C55.5866 12.8563 54.4697 9.7346 52.5968 7.1888C49.6317 9.5852 46.3375 11.5842 42.7866 13.0938ZM47.0185 30.01C46.8171 26.1319 46.1361 22.2761 44.9353 18.5416C48.3802 17.8855 51.9296 18.1229 55.2962 19.2506C54.3531 23.9618 51.2361 27.8941 47.0185 30.01ZM39.171 11.7328C37.3581 8.4729 35.0877 5.4416 32.419 2.6888C30.3298 3.8174 28.5291 5.401 27.1538 7.3191C25.7786 9.2372 24.8651 11.4394 24.4828 13.758C29.5381 14.0256 34.5073 13.3304 39.171 11.7328ZM40.956 19.7142C41.4365 19.518 41.9261 19.3566 42.4156 19.1982C43.645 22.986 44.3155 26.9639 44.4416 31.0355C42.9759 31.4721 41.4531 31.6941 39.9221 31.6943C36.5121 31.6943 33.3667 30.6084 30.794 28.784C33.0045 24.6934 36.554 21.5115 40.956 19.7142Z" fill="var(--fill-0, white)"/>
<path id="Vector_2" d="M9.61415 2.2786C10.3703 1.0988 10.697 0 10.697 0C10.697 0 9.70588 0.329001 8.48829 1.2857C7.37481 2.2815 6.08562 4.0156 6.17641 6.2845C7.8413 4.9654 8.94009 3.5529 9.61415 2.2786Z" fill="var(--fill-0, white)"/>
<path id="Vector_3" d="M9.61415 2.2786C10.3703 1.0988 10.697 0 10.697 0C10.697 0 9.70588 0.329001 8.48829 1.2857C7.37481 2.2815 6.08562 4.0156 6.17641 6.2845C7.8413 4.9654 8.94009 3.5529 9.61415 2.2786Z" fill="var(--fill-0, white)"/>
<path id="Vector_4" d="M3.25574 15.3847L3.19114 16.3115C3.17958 16.5089 3.31613 16.6839 3.5155 16.6888C3.70723 16.7045 3.8804 16.5444 3.89102 16.3536L3.95625 15.4295C5.32381 14.6146 6.26178 13.4519 6.85226 12.4152C7.14984 11.8406 7.41688 11.3231 7.60869 10.9516C7.76392 10.5573 7.86501 10.3185 7.86501 10.3185C7.86501 10.3185 6.97574 10.4035 5.88202 11.1079C5.10816 11.6906 4.06787 12.7538 3.68261 14.4476C3.68012 14.4472 3.67784 14.4453 3.67485 14.4448C3.68738 12.698 3.47384 11.3087 3.03179 10.2039C2.62824 8.8989 2.0465 8.0928 2.0465 8.0928C2.0465 8.0928 1.95239 8.4122 1.80242 8.921C1.67352 9.4395 1.50629 10.15 1.55577 10.981C1.5667 12.4859 1.94961 14.2512 3.25574 15.3847Z" fill="var(--fill-0, white)"/>
<path id="Vector_5" d="M3.25574 15.3847L3.19114 16.3115C3.17958 16.5089 3.31613 16.6839 3.5155 16.6888C3.70723 16.7045 3.8804 16.5444 3.89102 16.3536L3.95625 15.4295C5.32381 14.6146 6.26178 13.4519 6.85226 12.4152C7.14984 11.8406 7.41688 11.3231 7.60869 10.9516C7.76392 10.5573 7.86501 10.3185 7.86501 10.3185C7.86501 10.3185 6.97574 10.4035 5.88202 11.1079C5.10816 11.6906 4.06787 12.7538 3.68261 14.4476C3.68012 14.4472 3.67784 14.4453 3.67485 14.4448C3.68738 12.698 3.47384 11.3087 3.03179 10.2039C2.62824 8.8989 2.0465 8.0928 2.0465 8.0928C2.0465 8.0928 1.95239 8.4122 1.80242 8.921C1.67352 9.4395 1.50629 10.15 1.55577 10.981C1.5667 12.4859 1.94961 14.2512 3.25574 15.3847Z" fill="var(--fill-0, white)"/>
<path id="Vector_6" d="M4.11112 10.5872C4.04051 10.78 4.15058 10.9798 4.34209 11.0403C4.52278 11.098 4.71165 10.9822 4.78068 10.8006L5.07525 9.9474C6.56558 9.5062 7.53708 8.5326 8.38056 7.7352C8.81745 7.2797 9.13101 6.8267 9.3401 6.492C9.56885 6.1664 9.71882 5.9753 9.71882 5.9753C9.71882 5.9753 8.79729 5.8113 7.73767 6.3106C6.85567 6.6906 5.74586 7.4622 5.02144 8.9087C5.0141 8.9064 5.00784 8.9038 5.00093 8.9021C5.36659 7.3037 5.37856 5.9764 5.22957 4.878C4.99903 3.5224 4.68391 2.6859 4.68391 2.6859C4.56231 2.5677 2.3347 6.9487 4.39154 9.762L4.11112 10.5872Z" fill="var(--fill-0, white)"/>
<path id="Vector_7" d="M4.11112 10.5872C4.04051 10.78 4.15058 10.9798 4.34209 11.0403C4.52278 11.098 4.71165 10.9822 4.78068 10.8006L5.07525 9.9474C6.56558 9.5062 7.53708 8.5326 8.38056 7.7352C8.81745 7.2797 9.13101 6.8267 9.3401 6.492C9.56885 6.1664 9.71882 5.9753 9.71882 5.9753C9.71882 5.9753 8.79729 5.8113 7.73767 6.3106C6.85567 6.6906 5.74586 7.4622 5.02144 8.9087C5.0141 8.9064 5.00784 8.9038 5.00093 8.9021C5.36659 7.3037 5.37856 5.9764 5.22957 4.878C4.99903 3.5224 4.68391 2.6859 4.68391 2.6859C4.56231 2.5677 2.3347 6.9487 4.39154 9.762L4.11112 10.5872Z" fill="var(--fill-0, white)"/>
<path id="Vector_8" d="M6.15545 26.8541C6.41434 27.2253 6.89472 27.8998 6.93187 27.8642C7.07782 28.0126 7.30822 28.029 7.44473 27.8935C7.58045 27.7569 7.59038 27.5311 7.45394 27.3952C7.41643 27.4219 6.93468 26.7503 6.69168 26.4074C7.94808 22.5319 7.17041 19.4353 7.308 19.2275C7.308 19.2275 6.3086 19.7665 5.76271 21.0041C5.18028 22.085 4.86261 24.0915 6.08533 26.1043C6.07733 26.1102 6.06878 26.113 6.06128 26.1191C6.0483 26.1279 6.04166 26.1424 6.03102 26.1526C4.60644 24.2827 3.39114 22.9291 2.25719 21.8701C0.916056 20.71 0.0107127 20.1173 0.0115057 20.1117C-0.0624863 20.0827 0.204345 21.8534 1.28169 23.7356C2.27369 25.456 4.13631 26.9312 6.15545 26.8541Z" fill="var(--fill-0, white)"/>
<path id="Vector_9" d="M6.15545 26.8541C6.41434 27.2253 6.89472 27.8998 6.93187 27.8642C7.07782 28.0126 7.30822 28.029 7.44473 27.8935C7.58045 27.7569 7.59038 27.5311 7.45394 27.3952C7.41643 27.4219 6.93468 26.7503 6.69168 26.4074C7.94808 22.5319 7.17041 19.4353 7.308 19.2275C7.308 19.2275 6.3086 19.7665 5.76271 21.0041C5.18028 22.085 4.86261 24.0915 6.08533 26.1043C6.07733 26.1102 6.06878 26.113 6.06128 26.1191C6.0483 26.1279 6.04166 26.1424 6.03102 26.1526C4.60644 24.2827 3.39114 22.9291 2.25719 21.8701C0.916056 20.71 0.0107127 20.1173 0.0115057 20.1117C-0.0624863 20.0827 0.204345 21.8534 1.28169 23.7356C2.27369 25.456 4.13631 26.9312 6.15545 26.8541Z" fill="var(--fill-0, white)"/>
<path id="Vector_10" d="M10.5426 30.9456L12.8129 32.3492C12.9851 32.4629 13.2083 32.3752 13.2878 32.2058C13.3708 32.0161 13.2867 31.82 13.1247 31.7133L10.8853 30.3227C10.7872 28.1809 10.2024 26.4394 9.70498 25.2138C9.24246 23.853 8.68878 22.9781 8.72708 22.9385C8.72708 22.9385 7.96035 23.8103 7.85919 25.3102C7.63938 26.7214 8.25958 28.7725 10.3177 30.3156C10.3039 30.3305 10.2873 30.3429 10.2751 30.3613C8.13157 29.01 6.22769 28.2532 4.74251 27.5924C3.02683 26.9665 1.85156 26.7093 1.85156 26.7093C1.85156 26.7093 2.0108 27.15 2.48168 27.7509C2.96129 28.3298 3.60556 29.152 4.49324 29.8336C6.20314 31.1253 8.58351 31.8945 10.5426 30.9456Z" fill="var(--fill-0, white)"/>
<path id="Vector_11" d="M10.5426 30.9456L12.8129 32.3492C12.9851 32.4629 13.2083 32.3752 13.2878 32.2058C13.3708 32.0161 13.2867 31.82 13.1247 31.7133L10.8853 30.3227C10.7872 28.1809 10.2024 26.4394 9.70498 25.2138C9.24246 23.853 8.68878 22.9781 8.72708 22.9385C8.72708 22.9385 7.96035 23.8103 7.85919 25.3102C7.63938 26.7214 8.25958 28.7725 10.3177 30.3156C10.3039 30.3305 10.2873 30.3429 10.2751 30.3613C8.13157 29.01 6.22769 28.2532 4.74251 27.5924C3.02683 26.9665 1.85156 26.7093 1.85156 26.7093C1.85156 26.7093 2.0108 27.15 2.48168 27.7509C2.96129 28.3298 3.60556 29.152 4.49324 29.8336C6.20314 31.1253 8.58351 31.8945 10.5426 30.9456Z" fill="var(--fill-0, white)"/>
<path id="Vector_12" d="M3.65057 21.4504L3.99493 22.6976C4.05078 22.8947 4.23944 23.0116 4.42161 22.9395C4.60427 22.8676 4.70698 22.6572 4.65617 22.4677L4.326 21.2683C5.58574 19.8329 6.38906 18.2796 6.75992 17.0128C7.32131 15.6295 7.32966 14.5118 7.39281 14.4947C7.39281 14.4947 6.37788 14.7571 5.39084 15.8084C4.47406 16.7164 3.53326 18.43 3.89567 20.7523C3.87038 20.7507 3.84559 20.7456 3.8205 20.7498C3.22015 18.486 2.50505 16.76 1.77897 15.4656C0.926783 14.0235 0.115135 13.2012 0.115135 13.2012C0.115135 13.2012 0.0157847 13.5937 0.0333267 14.2498C0.0295697 14.9013 0.0743757 15.8124 0.232257 16.7755C0.683164 18.6269 1.66897 20.7307 3.65057 21.4504Z" fill="var(--fill-0, white)"/>
<path id="Vector_13" d="M3.65057 21.4504L3.99493 22.6976C4.05078 22.8947 4.23944 23.0116 4.42161 22.9395C4.60427 22.8676 4.70698 22.6572 4.65617 22.4677L4.326 21.2683C5.58574 19.8329 6.38906 18.2796 6.75992 17.0128C7.32131 15.6295 7.32966 14.5118 7.39281 14.4947C7.39281 14.4947 6.37788 14.7571 5.39084 15.8084C4.47406 16.7164 3.53326 18.43 3.89567 20.7523C3.87038 20.7507 3.84559 20.7456 3.8205 20.7498C3.22015 18.486 2.50505 16.76 1.77897 15.4656C0.926783 14.0235 0.115135 13.2012 0.115135 13.2012C0.115135 13.2012 0.0157847 13.5937 0.0333267 14.2498C0.0295697 14.9013 0.0743757 15.8124 0.232257 16.7755C0.683164 18.6269 1.66897 20.7307 3.65057 21.4504Z" fill="var(--fill-0, white)"/>
<path id="Vector_14" d="M70.3094 2.2786C69.5533 1.0988 69.2266 0 69.2266 0C69.2266 0 70.2177 0.329001 71.4353 1.2857C72.5486 2.2815 73.8381 4.0156 73.7474 6.2845C72.082 4.9654 70.9835 3.5529 70.3094 2.2786Z" fill="var(--fill-0, white)"/>
<path id="Vector_15" d="M70.3094 2.2786C69.5533 1.0988 69.2266 0 69.2266 0C69.2266 0 70.2177 0.329001 71.4353 1.2857C72.5486 2.2815 73.8381 4.0156 73.7474 6.2845C72.082 4.9654 70.9835 3.5529 70.3094 2.2786Z" fill="var(--fill-0, white)"/>
<path id="Vector_16" d="M76.6719 15.3847L76.7367 16.3115C76.7483 16.5089 76.6115 16.6839 76.412 16.6888C76.2205 16.7045 76.047 16.5444 76.0369 16.3536L75.9714 15.4295C74.6041 14.6146 73.6659 13.4519 73.0755 12.4152C72.7782 11.8406 72.5111 11.3231 72.3188 10.9516C72.164 10.5573 72.0625 10.3185 72.0625 10.3185C72.0625 10.3185 72.9517 10.4035 74.0454 11.1079C74.8194 11.6906 75.8598 12.7538 76.245 14.4476C76.2479 14.4472 76.25 14.4453 76.2529 14.4448C76.2407 12.698 76.4538 11.3087 76.8959 10.2039C77.2998 8.8989 77.8815 8.0928 77.8815 8.0928C77.8815 8.0928 77.9751 8.4122 78.1256 8.921C78.2545 9.4395 78.4215 10.15 78.3719 10.981C78.3611 12.4859 77.978 14.2512 76.6719 15.3847Z" fill="var(--fill-0, white)"/>
<path id="Vector_17" d="M76.6719 15.3847L76.7367 16.3115C76.7483 16.5089 76.6115 16.6839 76.412 16.6888C76.2205 16.7045 76.047 16.5444 76.0369 16.3536L75.9714 15.4295C74.6041 14.6146 73.6659 13.4519 73.0755 12.4152C72.7782 11.8406 72.5111 11.3231 72.3188 10.9516C72.164 10.5573 72.0625 10.3185 72.0625 10.3185C72.0625 10.3185 72.9517 10.4035 74.0454 11.1079C74.8194 11.6906 75.8598 12.7538 76.245 14.4476C76.2479 14.4472 76.25 14.4453 76.2529 14.4448C76.2407 12.698 76.4538 11.3087 76.8959 10.2039C77.2998 8.8989 77.8815 8.0928 77.8815 8.0928C77.8815 8.0928 77.9751 8.4122 78.1256 8.921C78.2545 9.4395 78.4215 10.15 78.3719 10.981C78.3611 12.4859 77.978 14.2512 76.6719 15.3847Z" fill="var(--fill-0, white)"/>
<path id="Vector_18" d="M75.8189 10.5872C75.8894 10.78 75.7793 10.9798 75.5878 11.0403C75.407 11.098 75.2184 10.9822 75.1493 10.8006L74.8548 9.9474C73.3644 9.5062 72.3924 8.5326 71.5492 7.7352C71.1123 7.2797 70.7987 6.8267 70.5897 6.492C70.3609 6.1664 70.2109 5.9753 70.2109 5.9753C70.2109 5.9753 71.1325 5.8113 72.1922 6.3106C73.0742 6.6906 74.1838 7.4622 74.9081 8.9087C74.916 8.9064 74.9218 8.9038 74.929 8.9021C74.5632 7.3037 74.5509 5.9764 74.7 4.878C74.9304 3.5224 75.2458 2.6859 75.2458 2.6859C75.3674 2.5677 77.5951 6.9487 75.5381 9.762L75.8189 10.5872Z" fill="var(--fill-0, white)"/>
<path id="Vector_19" d="M75.8189 10.5872C75.8894 10.78 75.7793 10.9798 75.5878 11.0403C75.407 11.098 75.2184 10.9822 75.1493 10.8006L74.8548 9.9474C73.3644 9.5062 72.3924 8.5326 71.5492 7.7352C71.1123 7.2797 70.7987 6.8267 70.5897 6.492C70.3609 6.1664 70.2109 5.9753 70.2109 5.9753C70.2109 5.9753 71.1325 5.8113 72.1922 6.3106C73.0742 6.6906 74.1838 7.4622 74.9081 8.9087C74.916 8.9064 74.9218 8.9038 74.929 8.9021C74.5632 7.3037 74.5509 5.9764 74.7 4.878C74.9304 3.5224 75.2458 2.6859 75.2458 2.6859C75.3674 2.5677 77.5951 6.9487 75.5381 9.762L75.8189 10.5872Z" fill="var(--fill-0, white)"/>
<path id="Vector_20" d="M73.7789 26.8541C73.5197 27.2253 73.0395 27.8998 73.0021 27.8642C72.8566 28.0126 72.6262 28.029 72.4894 27.8935C72.3541 27.7569 72.344 27.5311 72.4801 27.3952C72.5175 27.4219 72.9999 26.7503 73.2425 26.4074C71.9861 22.5319 72.7637 19.4353 72.6262 19.2275C72.6262 19.2275 73.6256 19.7665 74.1713 21.0041C74.7538 22.085 75.0713 24.0915 73.8488 26.1043C73.8567 26.1102 73.8653 26.113 73.8733 26.1191C73.8862 26.1279 73.8927 26.1424 73.9035 26.1526C75.3277 24.2827 76.543 22.9291 77.677 21.8701C79.0184 20.71 79.9234 20.1173 79.9227 20.1117C79.9969 20.0827 79.7297 21.8534 78.6526 23.7356C77.6605 25.456 75.7978 26.9312 73.7789 26.8541Z" fill="var(--fill-0, white)"/>
<path id="Vector_21" d="M73.7789 26.8541C73.5197 27.2253 73.0395 27.8998 73.0021 27.8642C72.8566 28.0126 72.6262 28.029 72.4894 27.8935C72.3541 27.7569 72.344 27.5311 72.4801 27.3952C72.5175 27.4219 72.9999 26.7503 73.2425 26.4074C71.9861 22.5319 72.7637 19.4353 72.6262 19.2275C72.6262 19.2275 73.6256 19.7665 74.1713 21.0041C74.7538 22.085 75.0713 24.0915 73.8488 26.1043C73.8567 26.1102 73.8653 26.113 73.8733 26.1191C73.8862 26.1279 73.8927 26.1424 73.9035 26.1526C75.3277 24.2827 76.543 22.9291 77.677 21.8701C79.0184 20.71 79.9234 20.1173 79.9227 20.1117C79.9969 20.0827 79.7297 21.8534 78.6526 23.7356C77.6605 25.456 75.7978 26.9312 73.7789 26.8541Z" fill="var(--fill-0, white)"/>
<path id="Vector_22" d="M69.387 30.9456L67.1168 32.3492C66.9445 32.4629 66.7213 32.3752 66.6418 32.2058C66.5588 32.0161 66.6429 31.82 66.8049 31.7133L69.0444 30.3227C69.1424 28.1809 69.7272 26.4394 70.2246 25.2138C70.6872 23.853 71.2409 22.9781 71.2026 22.9385C71.2026 22.9385 71.9694 23.8103 72.0702 25.3102C72.2905 26.7214 71.6699 28.7725 69.6119 30.3156C69.6258 30.3305 69.6423 30.3429 69.6545 30.3613C71.7981 29.01 73.7017 28.2532 75.1871 27.5924C76.9029 26.9665 78.0779 26.7093 78.0779 26.7093C78.0779 26.7093 77.9188 27.15 77.4479 27.7509C76.9684 28.3298 76.324 29.152 75.4362 29.8336C73.7262 31.1253 71.3461 31.8945 69.387 30.9456Z" fill="var(--fill-0, white)"/>
<path id="Vector_23" d="M69.387 30.9456L67.1168 32.3492C66.9445 32.4629 66.7213 32.3752 66.6418 32.2058C66.5588 32.0161 66.6429 31.82 66.8049 31.7133L69.0444 30.3227C69.1424 28.1809 69.7272 26.4394 70.2246 25.2138C70.6872 23.853 71.2409 22.9781 71.2026 22.9385C71.2026 22.9385 71.9694 23.8103 72.0702 25.3102C72.2905 26.7214 71.6699 28.7725 69.6119 30.3156C69.6258 30.3305 69.6423 30.3429 69.6545 30.3613C71.7981 29.01 73.7017 28.2532 75.1871 27.5924C76.9029 26.9665 78.0779 26.7093 78.0779 26.7093C78.0779 26.7093 77.9188 27.15 77.4479 27.7509C76.9684 28.3298 76.324 29.152 75.4362 29.8336C73.7262 31.1253 71.3461 31.8945 69.387 30.9456Z" fill="var(--fill-0, white)"/>
<path id="Vector_24" d="M76.2738 21.4504L75.9296 22.6976C75.8735 22.8947 75.6848 23.0116 75.5027 22.9395C75.3198 22.8676 75.2176 22.6572 75.268 22.4677L75.5984 21.2683C74.3384 19.8329 73.5356 18.2796 73.1648 17.0128C72.6032 15.6295 72.5946 14.5118 72.5312 14.4947C72.5312 14.4947 73.5464 14.7571 74.5336 15.8084C75.4501 16.7164 76.3912 18.43 76.029 20.7523C76.0542 20.7507 76.0787 20.7456 76.1039 20.7498C76.7044 18.486 77.4193 16.76 78.1451 15.4656C78.9976 14.0235 79.809 13.2012 79.809 13.2012C79.809 13.2012 79.9084 13.5937 79.8911 14.2498C79.8947 14.9013 79.85 15.8124 79.6924 16.7755C79.2409 18.6269 78.2552 20.7307 76.2738 21.4504Z" fill="var(--fill-0, white)"/>
<path id="Vector_25" d="M76.2738 21.4504L75.9296 22.6976C75.8735 22.8947 75.6848 23.0116 75.5027 22.9395C75.3198 22.8676 75.2176 22.6572 75.268 22.4677L75.5984 21.2683C74.3384 19.8329 73.5356 18.2796 73.1648 17.0128C72.6032 15.6295 72.5946 14.5118 72.5312 14.4947C72.5312 14.4947 73.5464 14.7571 74.5336 15.8084C75.4501 16.7164 76.3912 18.43 76.029 20.7523C76.0542 20.7507 76.0787 20.7456 76.1039 20.7498C76.7044 18.486 77.4193 16.76 78.1451 15.4656C78.9976 14.0235 79.809 13.2012 79.809 13.2012C79.809 13.2012 79.9084 13.5937 79.8911 14.2498C79.8947 14.9013 79.85 15.8124 79.6924 16.7755C79.2409 18.6269 78.2552 20.7307 76.2738 21.4504Z" fill="var(--fill-0, white)"/>
</g>
</svg>
