<svg preserveAspectRatio="none" width="100%" height="100%" overflow="visible" style="display: block;" viewBox="0 0 154 34" fill="none" xmlns="http://www.w3.org/2000/svg">
<g id="Pendulum logo (1) 1" clip-path="url(#clip0_14175_49744)">
<path id="Vector" fill-rule="evenodd" clip-rule="evenodd" d="M33.7731 16.5219C33.6499 15.8183 33.4622 15.1488 33.2099 14.513C32.7169 13.2708 32.0422 12.2098 31.1859 11.3299C30.3556 10.4242 29.3825 9.72548 28.2668 9.23379C27.151 8.7421 25.9833 8.49626 24.7638 8.49626C23.3626 8.49626 22.1949 8.76798 21.2608 9.31143C20.3526 9.82899 19.678 10.463 19.2368 11.2135H18.8476V9.11733H13.3986V33.3397C5.74583 31.7363 0 24.9657 0 16.8568C0 7.55482 7.56111 0.0140255 16.8882 0.0140255C26.1031 0.0140255 33.5942 7.37445 33.7731 16.5219ZM30.9164 26.2382C30.1471 26.9876 29.264 27.5821 28.2668 28.0215C27.151 28.5132 25.9833 28.759 24.7638 28.759C23.3626 28.759 22.1949 28.5002 21.2608 27.9827C20.3526 27.4392 19.678 26.7922 19.2368 26.0418H18.8476L19.2368 28.759V33.5382C24.0985 32.8636 28.2979 30.1248 30.9164 26.2382ZM21.689 14.2801C22.2598 14.0472 22.8567 13.9307 23.4794 13.9307C24.1021 13.9307 24.686 14.0472 25.2308 14.2801C25.8017 14.487 26.2947 14.7976 26.7099 15.2117C27.151 15.6257 27.4883 16.1174 27.7219 16.6867C27.9813 17.2561 28.1111 17.903 28.1111 18.6277C28.1111 19.3522 27.9813 20.0122 27.7219 20.6073C27.4883 21.1766 27.151 21.6683 26.7099 22.0824C26.2947 22.4706 25.8017 22.7811 25.2308 23.014C24.686 23.2211 24.1021 23.3246 23.4794 23.3246C22.8567 23.3246 22.2598 23.2211 21.689 23.014C21.1441 22.7811 20.651 22.4706 20.2099 22.0824C19.7948 21.6683 19.4574 21.1766 19.1979 20.6073C18.9645 20.0122 18.8476 19.3522 18.8476 18.6277C18.8476 17.903 18.9645 17.2561 19.1979 16.6867C19.4574 16.1174 19.7948 15.6257 20.2099 15.2117C20.651 14.7976 21.1441 14.487 21.689 14.2801Z" fill="var(--fill-0, #A5A9AC)"/>
<path id="Vector_2" fill-rule="evenodd" clip-rule="evenodd" d="M47.1902 26.6601C48.5205 25.8506 49.5915 24.7373 50.4033 23.3207L46.277 21.2631C45.9162 21.8927 45.4201 22.41 44.7887 22.8147C44.18 23.2195 43.402 23.4219 42.4551 23.4219C41.5081 23.4219 40.6512 23.1745 39.8846 22.6798C39.118 22.1851 38.6106 21.398 38.3626 20.3186H50.5723C50.5723 20.1837 50.5836 20.0375 50.6062 19.8802C50.6287 19.7452 50.64 19.5878 50.64 19.4079C50.6625 19.2279 50.6738 19.0481 50.6738 18.8681C50.6738 17.6764 50.4934 16.5632 50.1326 15.5287C49.7719 14.4719 49.242 13.5612 48.543 12.7965C47.844 12.0095 46.9647 11.3911 45.9049 10.9414C44.8677 10.4916 43.6614 10.2667 42.2859 10.2667C41.0233 10.2667 39.8507 10.5029 38.7685 10.9751C37.7087 11.4473 36.773 12.0882 35.9612 12.8977C35.1721 13.6848 34.552 14.618 34.101 15.6974C33.9782 15.9854 33.872 16.2784 33.7827 16.5763C33.8939 17.2308 33.9495 17.9146 33.9495 18.6275C33.9495 19.5555 33.8553 20.434 33.6669 21.263C33.7753 21.7292 33.92 22.1789 34.101 22.6123C34.552 23.6693 35.1834 24.5913 35.9951 25.3783C36.8068 26.1653 37.7537 26.7838 38.8361 27.2335C39.9409 27.6608 41.136 27.8744 42.4212 27.8744C44.2928 27.8744 45.8824 27.4697 47.1902 26.6601ZM45.5667 16.001C45.7471 16.3159 45.8598 16.6082 45.9049 16.8781H38.5993C38.915 16.0235 39.4111 15.3714 40.0875 14.9217C40.7639 14.4719 41.4968 14.2471 42.2859 14.2471C42.827 14.2471 43.3119 14.337 43.7403 14.5168C44.1913 14.6743 44.5633 14.8879 44.8564 15.1578C45.1721 15.4052 45.4088 15.6862 45.5667 16.001ZM55.8961 12.8977H55.5579V10.8064H50.8228V27.3347H55.8961V19.7452C55.8961 18.3285 56.1892 17.1816 56.7755 16.3046C57.3843 15.4276 58.2636 14.9891 59.4136 14.9891C60.3156 14.9891 60.9807 15.2815 61.4091 15.8662C61.8375 16.4283 62.0518 17.1591 62.0518 18.0586V27.3347H67.1251V19.4227C67.1603 20.59 67.3728 21.6646 67.7623 22.6461C68.1907 23.7254 68.7657 24.6587 69.4873 25.4457C70.2314 26.2104 71.0882 26.8062 72.0578 27.2335C73.0273 27.6608 74.042 27.8744 75.1017 27.8744C76.3193 27.8744 77.3227 27.6495 78.1119 27.1998C78.9236 26.7275 79.5211 26.1653 79.9045 25.5132H80.2427V27.3347H84.9778V3.18321H79.9045V10.2667L80.2427 12.628H79.9045C79.5211 11.9757 78.9236 11.4248 78.1119 10.9751C77.3227 10.5029 76.3193 10.2667 75.1017 10.2667C74.042 10.2667 73.0273 10.4804 72.0578 10.9076C71.0882 11.3349 70.2314 11.9421 69.4873 12.7291C68.7657 13.4937 68.1907 14.4156 67.7623 15.4951C67.3728 16.4765 67.1603 17.551 67.1251 18.7185V17.4851C67.1251 15.3264 66.6177 13.5836 65.6031 12.2569C64.5884 10.9301 63.0438 10.2667 60.9694 10.2667C58.7147 10.2667 57.0235 11.1437 55.8961 12.8977ZM77.7398 22.8821C77.2664 23.0621 76.759 23.152 76.2179 23.152C75.6767 23.152 75.1581 23.0621 74.662 22.8821C74.1885 22.6798 73.7601 22.41 73.3768 22.0727C73.016 21.7129 72.7229 21.2855 72.4974 20.7909C72.2945 20.2736 72.1931 19.7002 72.1931 19.0706C72.1931 18.4409 72.2945 17.8787 72.4974 17.384C72.7229 16.8893 73.016 16.462 73.3768 16.1022C73.7601 15.7425 74.1885 15.4726 74.662 15.2927C75.1581 15.0903 75.6767 14.9891 76.2179 14.9891C76.759 14.9891 77.2664 15.0903 77.7398 15.2927C78.2359 15.4726 78.6643 15.7425 79.025 16.1022C79.4084 16.462 79.7015 16.8893 79.9045 17.384C80.13 17.8787 80.2427 18.4409 80.2427 19.0706C80.2427 19.7002 80.13 20.2736 79.9045 20.7909C79.7015 21.2855 79.4084 21.7129 79.025 22.0727C78.6643 22.41 78.2359 22.6798 77.7398 22.8821ZM97.164 25.2434H97.5022V27.3347H102.237V10.8064H97.164V18.3959C97.164 19.8126 96.8595 20.9595 96.2508 21.8366C95.6646 22.7135 94.7964 23.152 93.6465 23.152C92.7446 23.152 92.0794 22.871 91.651 22.3087C91.2225 21.7241 91.0084 20.982 91.0084 20.0825V10.8064H85.9351V20.6559C85.9351 22.8147 86.4424 24.5575 87.4571 25.8842C88.4717 27.211 90.0163 27.8744 92.0907 27.8744C94.3455 27.8744 96.0365 26.9974 97.164 25.2434ZM103.314 3.18321V27.3347H108.388V3.18321H103.314ZM120.554 25.2434H120.892V27.3347H125.628V10.8064H120.554V18.3959C120.554 19.8126 120.249 20.9595 119.64 21.8366C119.055 22.7135 118.186 23.152 117.036 23.152C116.135 23.152 115.469 22.871 115.041 22.3087C114.613 21.7241 114.398 20.982 114.398 20.0825V10.8064H109.325V20.6559C109.325 22.8147 109.832 24.5575 110.847 25.8842C111.862 27.211 113.406 27.8744 115.481 27.8744C117.736 27.8744 119.426 26.9974 120.554 25.2434ZM131.44 10.8064H126.704V27.3347H131.778V19.8802C131.778 18.396 132.037 17.2154 132.555 16.3383C133.074 15.4388 133.852 14.9891 134.889 14.9891C135.768 14.9891 136.411 15.259 136.817 15.7986C137.246 16.3159 137.46 17.0018 137.46 17.8562V27.3347H142.533V19.8802C142.533 18.396 142.814 17.2154 143.379 16.3383C143.942 15.4388 144.776 14.9891 145.881 14.9891C146.648 14.9891 147.223 15.259 147.606 15.7986C148.012 16.3159 148.215 17.0018 148.215 17.8562V27.3347H153.289V16.8781C153.289 15.9111 153.164 15.0228 152.916 14.2133C152.668 13.4037 152.297 12.7066 151.8 12.1219C151.327 11.5373 150.718 11.0875 149.974 10.7727C149.23 10.4354 148.362 10.2667 147.37 10.2667C145.972 10.2667 144.811 10.5703 143.885 11.1775C142.961 11.7621 142.251 12.448 141.755 13.235C141.417 12.448 140.83 11.7621 139.997 11.1775C139.162 10.5703 138.113 10.2667 136.851 10.2667C135.701 10.2667 134.697 10.5029 133.841 10.9751C133.007 11.4248 132.319 12.0658 131.778 12.8977H131.44V10.8064Z" fill="var(--fill-0, #A5A9AC)"/>
</g>
<defs>
<clipPath id="clip0_14175_49744">
<rect width="154" height="34" fill="white"/>
</clipPath>
</defs>
</svg>
