<svg width="396" height="406" viewBox="0 0 396 406" fill="none" xmlns="http://www.w3.org/2000/svg">
<rect width="396" height="406" fill="#31195B"/>
<g filter="url(#filter0_n_12688_58518)">
<g clip-path="url(#clip0_12688_58518)">
<rect x="32" y="32" width="332" height="204" rx="4" fill="white"/>
<g clip-path="url(#clip1_12688_58518)" filter="url(#filter1_i_12688_58518)">
<rect width="353" height="249" transform="translate(21 32)" fill="url(#paint0_linear_12688_58518)"/>
<rect x="37" y="44.376" width="18.2485" height="18.2485" rx="9.12423" fill="#224155"/>
<g clip-path="url(#clip2_12688_58518)">
<path fill-rule="evenodd" clip-rule="evenodd" d="M45.008 59.0633C44.9995 56.7238 43.1038 54.8298 40.7666 54.8298C43.109 54.8298 45.008 52.9273 45.008 50.5806C45.0164 52.9201 46.9121 54.8141 49.2494 54.8141C46.9069 54.8141 45.008 56.7166 45.008 59.0633Z" fill="#E3CAFF"/>
<path fill-rule="evenodd" clip-rule="evenodd" d="M48.4584 52.843C48.4538 51.5952 47.4428 50.5851 46.1963 50.5851C47.4456 50.5851 48.4584 49.5705 48.4584 48.3188C48.4629 49.5666 49.4739 50.5767 50.7204 50.5767C49.4711 50.5767 48.4584 51.5914 48.4584 52.843Z" fill="#E3CAFF"/>
</g>
<path d="M56.2414 58V49.7992H57.8238L61.6123 56.4869V49.7992H62.8598V58H61.2196L57.4888 51.4625V58H56.2414ZM66.4585 58.1386C65.8424 58.1386 65.3496 57.9345 64.98 57.5264C64.6181 57.1106 64.4371 56.5369 64.4371 55.8054V51.8552H65.6615V55.4936C65.6615 56.048 65.7577 56.4561 65.9502 56.7179C66.1428 56.9797 66.4354 57.1106 66.8281 57.1106C67.2747 57.1106 67.6212 56.9682 67.8676 56.6833C68.1217 56.3906 68.2488 55.9825 68.2488 55.4589V51.8552H69.4731V58H68.3296L68.3065 56.3945L68.4798 56.4638C68.372 57.0028 68.1448 57.4186 67.7983 57.7112C67.4518 57.9961 67.0052 58.1386 66.4585 58.1386ZM71.1357 58V51.8552H72.2561L72.3023 53.4838L72.1983 53.4491C72.283 52.8947 72.4524 52.4904 72.7065 52.2363C72.9683 51.9822 73.3187 51.8552 73.7576 51.8552H74.3467V52.9525H73.7576C73.4496 52.9525 73.1916 53.0025 72.9837 53.1026C72.7758 53.2027 72.618 53.3567 72.5102 53.5646C72.4101 53.7725 72.36 54.0421 72.36 54.3732V58H71.1357ZM76.8932 58.1386C76.2541 58.1386 75.742 57.9923 75.357 57.6997C74.9797 57.4071 74.791 56.9951 74.791 56.4638C74.791 55.9325 74.9489 55.5205 75.2646 55.2279C75.588 54.9276 76.0847 54.712 76.7546 54.5811L78.8683 54.1768C78.8683 53.6994 78.7567 53.3452 78.5334 53.1142C78.3101 52.8755 77.9789 52.7561 77.54 52.7561C77.1473 52.7561 76.8393 52.8447 76.616 53.0218C76.3927 53.1912 76.2387 53.4453 76.154 53.7841L74.895 53.7032C75.0105 53.0872 75.2954 52.6021 75.7497 52.2479C76.2117 51.8937 76.8085 51.7166 77.54 51.7166C78.3717 51.7166 79.0031 51.9399 79.4343 52.3865C79.8732 52.8254 80.0927 53.4453 80.0927 54.2461V56.637C80.0927 56.7834 80.1158 56.8873 80.162 56.9489C80.2159 57.0028 80.3006 57.0298 80.4161 57.0298H80.6355V58C80.597 58.0077 80.5354 58.0154 80.4507 58.0231C80.366 58.0308 80.2775 58.0347 80.1851 58.0347C79.9233 58.0347 79.6961 57.9923 79.5036 57.9076C79.3188 57.8229 79.1802 57.6843 79.0878 57.4918C78.9954 57.2916 78.9492 57.0259 78.9492 56.6948L79.0762 56.7526C79.0146 57.0221 78.8799 57.2608 78.672 57.4687C78.4718 57.6766 78.2138 57.8421 77.8981 57.9653C77.5901 58.0809 77.2551 58.1386 76.8932 58.1386ZM77.0896 57.1684C77.4592 57.1684 77.7749 57.0991 78.0367 56.9605C78.2985 56.8142 78.5026 56.6139 78.6489 56.3598C78.7952 56.1057 78.8683 55.817 78.8683 55.4936V55.1008L77.0665 55.4474C76.6968 55.5167 76.435 55.6283 76.281 55.7823C76.1347 55.9286 76.0616 56.1173 76.0616 56.3483C76.0616 56.6101 76.1501 56.8142 76.3272 56.9605C76.512 57.0991 76.7661 57.1684 77.0896 57.1684ZM83.7379 58L86.6948 49.7992H88.2772L91.2341 58H89.9058L89.1551 55.8632H85.8054L85.0662 58H83.7379ZM86.1982 54.7312H88.7739L87.4803 50.9889L86.1982 54.7312ZM92.1463 58V49.7992H93.3937V58H92.1463Z" fill="white"/>
<g clip-path="url(#clip3_12688_58518)">
<path d="M353.019 47.8279C352.858 47.667 352.599 47.667 352.438 47.8279L350.421 49.84L348.405 47.8237C348.244 47.6629 347.985 47.6629 347.824 47.8237C347.663 47.9845 347.663 48.2443 347.824 48.4051L349.84 50.4214L347.824 52.4377C347.663 52.5986 347.663 52.8583 347.824 53.0191C347.985 53.1799 348.244 53.1799 348.405 53.0191L350.421 51.0028L352.438 53.0191C352.599 53.1799 352.858 53.1799 353.019 53.0191C353.18 52.8583 353.18 52.5986 353.019 52.4377L351.003 50.4214L353.019 48.4051C353.176 48.2484 353.176 47.9845 353.019 47.8279Z" fill="white" fill-opacity="0.4"/>
</g>
<rect x="123.242" y="90.1743" width="148.887" height="39.7748" rx="19.8874" fill="#E0DFFF"/>
<rect opacity="0.2" x="110.344" y="79.1699" width="174.987" height="62.2906" rx="31.1453" fill="#B2F2C4"/>
<rect opacity="0.2" x="117.138" y="84.3872" width="161.249" height="51.6372" rx="25.8186" fill="#B2F2C4"/>
<rect x="190.94" y="104.5" width="3.2915" height="9.8745" rx="1.64575" fill="#3B698D"/>
<rect x="186.003" y="106.968" width="3.2915" height="4.93725" rx="1.64575" fill="#3B698D"/>
<rect x="195.877" y="101.208" width="3.2915" height="16.4575" rx="1.64575" fill="#3B698D"/>
<rect x="200.814" y="104.5" width="3.2915" height="9.8745" rx="1.64575" fill="#3B698D"/>
<rect x="205.752" y="106.968" width="3.2915" height="4.93725" rx="1.64575" fill="#3B698D"/>
<path d="M138.151 181V172.03H139.515V176.351L138.858 175.87H144.316L143.659 176.351V172.03H145.024V181H143.659V176.629L144.316 177.109H138.858L139.515 176.629V181H138.151ZM149.623 181.152C148.966 181.152 148.398 181.008 147.918 180.722C147.446 180.436 147.08 180.027 146.818 179.497C146.566 178.966 146.439 178.347 146.439 177.639C146.439 176.932 146.566 176.317 146.818 175.795C147.08 175.264 147.446 174.856 147.918 174.569C148.389 174.274 148.945 174.127 149.585 174.127C150.192 174.127 150.727 174.27 151.19 174.557C151.653 174.834 152.011 175.239 152.264 175.769C152.525 176.3 152.656 176.94 152.656 177.69V178.031H147.829C147.863 178.688 148.036 179.181 148.347 179.509C148.667 179.838 149.097 180.002 149.636 180.002C150.032 180.002 150.36 179.909 150.621 179.724C150.883 179.539 151.064 179.29 151.165 178.979L152.554 179.067C152.378 179.69 152.028 180.196 151.506 180.583C150.992 180.962 150.364 181.152 149.623 181.152ZM147.829 177.02H151.24C151.198 176.422 151.026 175.98 150.722 175.694C150.428 175.407 150.049 175.264 149.585 175.264C149.105 175.264 148.709 175.416 148.398 175.719C148.095 176.014 147.905 176.447 147.829 177.02ZM155.464 181C155.026 181 154.672 180.886 154.403 180.659C154.133 180.431 153.998 180.069 153.998 179.572V172.03H155.338V179.446C155.338 179.598 155.376 179.711 155.451 179.787C155.536 179.863 155.653 179.901 155.805 179.901H156.336V181H155.464ZM158.831 181C158.393 181 158.039 180.886 157.769 180.659C157.5 180.431 157.365 180.069 157.365 179.572V172.03H158.704V179.446C158.704 179.598 158.742 179.711 158.818 179.787C158.902 179.863 159.02 179.901 159.172 179.901H159.702V181H158.831ZM163.535 181.152C162.895 181.152 162.335 181.008 161.855 180.722C161.375 180.436 161.004 180.027 160.743 179.497C160.482 178.966 160.352 178.347 160.352 177.639C160.352 176.923 160.482 176.304 160.743 175.782C161.004 175.26 161.375 174.856 161.855 174.569C162.335 174.274 162.895 174.127 163.535 174.127C164.176 174.127 164.736 174.274 165.216 174.569C165.696 174.856 166.067 175.26 166.328 175.782C166.589 176.304 166.719 176.923 166.719 177.639C166.719 178.347 166.589 178.966 166.328 179.497C166.067 180.027 165.696 180.436 165.216 180.722C164.736 181.008 164.176 181.152 163.535 181.152ZM163.535 179.989C164.108 179.989 164.55 179.783 164.862 179.37C165.174 178.949 165.33 178.372 165.33 177.639C165.33 176.906 165.174 176.334 164.862 175.921C164.55 175.5 164.108 175.289 163.535 175.289C162.971 175.289 162.529 175.5 162.209 175.921C161.897 176.334 161.741 176.906 161.741 177.639C161.741 178.372 161.897 178.949 162.209 179.37C162.529 179.783 162.971 179.989 163.535 179.989ZM168.209 178.322C168.175 178.027 168.141 177.677 168.108 177.273C168.074 176.86 168.04 176.443 168.007 176.022C167.981 175.593 167.969 175.209 167.969 174.872V172.03H169.333V174.872C169.333 175.209 169.321 175.593 169.295 176.022C169.27 176.443 169.236 176.86 169.194 177.273C169.161 177.677 169.131 178.027 169.106 178.322H168.209ZM167.792 181V179.408H169.434V181H167.792ZM175.823 181L173.448 172.03H174.901L176.645 179.117L178.388 172.03H179.778L181.522 179.117L183.252 172.03H184.731L182.343 181H180.751L179.083 174.455L177.415 181H175.823ZM188.279 181.152C187.622 181.152 187.053 181.008 186.573 180.722C186.101 180.436 185.735 180.027 185.474 179.497C185.221 178.966 185.095 178.347 185.095 177.639C185.095 176.932 185.221 176.317 185.474 175.795C185.735 175.264 186.101 174.856 186.573 174.569C187.045 174.274 187.601 174.127 188.241 174.127C188.847 174.127 189.382 174.27 189.845 174.557C190.309 174.834 190.667 175.239 190.919 175.769C191.18 176.3 191.311 176.94 191.311 177.69V178.031H186.485C186.518 178.688 186.691 179.181 187.003 179.509C187.323 179.838 187.752 180.002 188.291 180.002C188.687 180.002 189.016 179.909 189.277 179.724C189.538 179.539 189.719 179.29 189.82 178.979L191.21 179.067C191.033 179.69 190.683 180.196 190.161 180.583C189.647 180.962 189.02 181.152 188.279 181.152ZM186.485 177.02H189.896C189.854 176.422 189.681 175.98 189.378 175.694C189.083 175.407 188.704 175.264 188.241 175.264C187.761 175.264 187.365 175.416 187.053 175.719C186.75 176.014 186.56 176.447 186.485 177.02ZM194.119 181C193.681 181 193.328 180.886 193.058 180.659C192.789 180.431 192.654 180.069 192.654 179.572V172.03H193.993V179.446C193.993 179.598 194.031 179.711 194.107 179.787C194.191 179.863 194.309 179.901 194.461 179.901H194.991V181H194.119ZM198.824 181.152C198.184 181.152 197.624 181.008 197.144 180.722C196.664 180.436 196.293 180.027 196.032 179.497C195.771 178.966 195.64 178.347 195.64 177.639C195.64 176.932 195.771 176.317 196.032 175.795C196.293 175.264 196.664 174.856 197.144 174.569C197.624 174.274 198.184 174.127 198.824 174.127C199.372 174.127 199.856 174.224 200.277 174.418C200.707 174.603 201.052 174.877 201.313 175.239C201.583 175.601 201.755 176.043 201.831 176.565L200.429 176.641C200.362 176.203 200.185 175.87 199.898 175.643C199.612 175.407 199.254 175.289 198.824 175.289C198.26 175.289 197.818 175.5 197.498 175.921C197.186 176.334 197.03 176.906 197.03 177.639C197.03 178.372 197.186 178.949 197.498 179.37C197.818 179.783 198.26 179.989 198.824 179.989C199.254 179.989 199.612 179.871 199.898 179.635C200.185 179.391 200.362 179.025 200.429 178.536L201.831 178.612C201.755 179.126 201.583 179.572 201.313 179.951C201.052 180.33 200.707 180.625 200.277 180.836C199.856 181.046 199.372 181.152 198.824 181.152ZM205.744 181.152C205.104 181.152 204.544 181.008 204.064 180.722C203.584 180.436 203.213 180.027 202.952 179.497C202.691 178.966 202.56 178.347 202.56 177.639C202.56 176.923 202.691 176.304 202.952 175.782C203.213 175.26 203.584 174.856 204.064 174.569C204.544 174.274 205.104 174.127 205.744 174.127C206.384 174.127 206.945 174.274 207.425 174.569C207.905 174.856 208.275 175.26 208.536 175.782C208.798 176.304 208.928 176.923 208.928 177.639C208.928 178.347 208.798 178.966 208.536 179.497C208.275 180.027 207.905 180.436 207.425 180.722C206.945 181.008 206.384 181.152 205.744 181.152ZM205.744 179.989C206.317 179.989 206.759 179.783 207.071 179.37C207.383 178.949 207.538 178.372 207.538 177.639C207.538 176.906 207.383 176.334 207.071 175.921C206.759 175.5 206.317 175.289 205.744 175.289C205.18 175.289 204.738 175.5 204.418 175.921C204.106 176.334 203.95 176.906 203.95 177.639C203.95 178.372 204.106 178.949 204.418 179.37C204.738 179.783 205.18 179.989 205.744 179.989ZM210.206 181V174.279H211.431L211.469 175.946L211.318 175.896C211.393 175.525 211.524 175.209 211.709 174.948C211.903 174.687 212.139 174.485 212.417 174.342C212.695 174.199 212.998 174.127 213.326 174.127C213.899 174.127 214.367 174.291 214.729 174.62C215.091 174.94 215.318 175.382 215.411 175.946H215.196C215.272 175.55 215.398 175.222 215.575 174.961C215.761 174.691 215.996 174.485 216.283 174.342C216.569 174.199 216.894 174.127 217.256 174.127C217.727 174.127 218.127 174.228 218.456 174.43C218.793 174.624 219.046 174.91 219.214 175.289C219.391 175.668 219.479 176.132 219.479 176.679V181H218.14V177.008C218.14 176.426 218.035 175.988 217.824 175.694C217.614 175.399 217.294 175.251 216.864 175.251C216.586 175.251 216.342 175.323 216.131 175.466C215.921 175.609 215.756 175.816 215.639 176.085C215.529 176.355 215.474 176.679 215.474 177.058V181H214.198V177.058C214.198 176.485 214.101 176.043 213.908 175.731C213.722 175.411 213.402 175.251 212.947 175.251C212.661 175.251 212.413 175.323 212.202 175.466C212 175.609 211.84 175.82 211.722 176.098C211.604 176.367 211.545 176.687 211.545 177.058V181H210.206ZM223.927 181.152C223.27 181.152 222.702 181.008 222.222 180.722C221.75 180.436 221.384 180.027 221.122 179.497C220.87 178.966 220.743 178.347 220.743 177.639C220.743 176.932 220.87 176.317 221.122 175.795C221.384 175.264 221.75 174.856 222.222 174.569C222.693 174.274 223.249 174.127 223.889 174.127C224.496 174.127 225.031 174.27 225.494 174.557C225.957 174.834 226.315 175.239 226.568 175.769C226.829 176.3 226.959 176.94 226.959 177.69V178.031H222.133C222.167 178.688 222.339 179.181 222.651 179.509C222.971 179.838 223.401 180.002 223.94 180.002C224.336 180.002 224.664 179.909 224.925 179.724C225.186 179.539 225.368 179.29 225.469 178.979L226.858 179.067C226.681 179.69 226.332 180.196 225.81 180.583C225.296 180.962 224.668 181.152 223.927 181.152ZM222.133 177.02H225.544C225.502 176.422 225.33 175.98 225.026 175.694C224.732 175.407 224.353 175.264 223.889 175.264C223.409 175.264 223.013 175.416 222.702 175.719C222.398 176.014 222.209 176.447 222.133 177.02Z" fill="white"/>
<path d="M234.494 181.152C234.03 181.152 233.618 181.051 233.256 180.848C232.893 180.638 232.615 180.351 232.422 179.989L232.384 181H231.424V172.03H232.485V175.239C232.653 174.961 232.914 174.712 233.268 174.493C233.622 174.266 234.03 174.152 234.494 174.152C235.083 174.152 235.593 174.295 236.022 174.582C236.452 174.868 236.785 175.272 237.021 175.795C237.256 176.317 237.374 176.936 237.374 177.652C237.374 178.368 237.256 178.987 237.021 179.509C236.785 180.031 236.452 180.436 236.022 180.722C235.593 181.008 235.083 181.152 234.494 181.152ZM234.431 180.141C234.995 180.141 235.441 179.918 235.77 179.471C236.098 179.025 236.263 178.418 236.263 177.652C236.263 176.877 236.098 176.271 235.77 175.833C235.441 175.386 235.003 175.163 234.456 175.163C234.043 175.163 233.689 175.264 233.395 175.466C233.1 175.66 232.872 175.942 232.712 176.313C232.561 176.683 232.485 177.13 232.485 177.652C232.485 178.157 232.561 178.599 232.712 178.979C232.872 179.349 233.096 179.635 233.382 179.838C233.677 180.04 234.026 180.141 234.431 180.141ZM240.718 181.152C240.027 181.152 239.475 180.992 239.063 180.672C238.658 180.351 238.456 179.905 238.456 179.332C238.456 178.76 238.625 178.309 238.962 177.98C239.299 177.652 239.833 177.42 240.566 177.286L242.941 176.843C242.941 176.279 242.807 175.858 242.537 175.58C242.276 175.302 241.88 175.163 241.35 175.163C240.886 175.163 240.52 175.268 240.25 175.479C239.981 175.681 239.796 175.976 239.694 176.363L238.57 176.275C238.696 175.643 239 175.133 239.48 174.746C239.968 174.35 240.591 174.152 241.35 174.152C242.209 174.152 242.866 174.396 243.32 174.885C243.775 175.365 244.003 176.031 244.003 176.881V179.648C244.003 179.8 244.028 179.909 244.079 179.977C244.137 180.036 244.23 180.065 244.356 180.065H244.622V181C244.588 181.008 244.533 181.013 244.458 181.013C244.382 181.021 244.302 181.025 244.218 181.025C243.914 181.025 243.666 180.979 243.472 180.886C243.287 180.785 243.152 180.634 243.068 180.431C242.984 180.221 242.941 179.947 242.941 179.61L243.068 179.635C243.009 179.922 242.866 180.183 242.638 180.419C242.411 180.646 242.129 180.827 241.792 180.962C241.455 181.088 241.097 181.152 240.718 181.152ZM240.819 180.217C241.265 180.217 241.644 180.132 241.956 179.964C242.276 179.787 242.52 179.551 242.689 179.256C242.857 178.953 242.941 178.616 242.941 178.246V177.766L240.768 178.17C240.314 178.254 239.998 178.385 239.821 178.562C239.652 178.73 239.568 178.953 239.568 179.231C239.568 179.543 239.678 179.787 239.897 179.964C240.124 180.132 240.431 180.217 240.819 180.217ZM248.335 181.152C247.712 181.152 247.169 181.008 246.705 180.722C246.251 180.436 245.897 180.031 245.644 179.509C245.392 178.979 245.265 178.359 245.265 177.652C245.265 176.944 245.392 176.33 245.644 175.807C245.897 175.285 246.251 174.881 246.705 174.594C247.169 174.3 247.712 174.152 248.335 174.152C248.849 174.152 249.304 174.245 249.7 174.43C250.104 174.607 250.433 174.868 250.685 175.213C250.938 175.559 251.102 175.98 251.178 176.477L250.066 176.553C249.99 176.106 249.797 175.765 249.485 175.529C249.173 175.285 248.79 175.163 248.335 175.163C247.72 175.163 247.24 175.386 246.895 175.833C246.55 176.271 246.377 176.877 246.377 177.652C246.377 178.427 246.55 179.037 246.895 179.484C247.24 179.922 247.72 180.141 248.335 180.141C248.79 180.141 249.173 180.015 249.485 179.762C249.797 179.509 249.99 179.13 250.066 178.625L251.178 178.701C251.102 179.198 250.938 179.631 250.685 180.002C250.433 180.364 250.104 180.646 249.7 180.848C249.304 181.051 248.849 181.152 248.335 181.152ZM252.418 181V172.03H253.479V177.905L256.739 174.304H258.154L255.513 177.147L258.268 181H256.979L254.793 177.867L253.479 179.256V181H252.418Z" fill="#CABEE8"/>
<path d="M259.093 181V179.572H260.52V181H259.093ZM138.002 199L135.64 190.03H136.827L138.672 197.509L140.504 190.03H141.742L143.587 197.509L145.419 190.03H146.619L144.256 199H142.892L141.123 192.051L139.354 199H138.002ZM147.754 199V190.03H148.815V193.782L148.689 193.757C148.773 193.386 148.916 193.083 149.119 192.847C149.321 192.611 149.569 192.439 149.864 192.329C150.159 192.211 150.483 192.152 150.837 192.152C151.317 192.152 151.721 192.262 152.05 192.481C152.387 192.691 152.639 192.99 152.808 193.378C152.985 193.757 153.073 194.195 153.073 194.692V199H152.012V194.995C152.012 194.346 151.894 193.866 151.658 193.555C151.431 193.243 151.081 193.087 150.609 193.087C150.07 193.087 149.637 193.251 149.308 193.58C148.98 193.908 148.815 194.384 148.815 195.008V199H147.754ZM156.703 199.152C156.012 199.152 155.461 198.992 155.048 198.672C154.643 198.351 154.441 197.905 154.441 197.332C154.441 196.76 154.61 196.309 154.947 195.98C155.284 195.652 155.818 195.42 156.551 195.286L158.927 194.843C158.927 194.279 158.792 193.858 158.522 193.58C158.261 193.302 157.865 193.163 157.335 193.163C156.871 193.163 156.505 193.268 156.235 193.479C155.966 193.681 155.781 193.976 155.68 194.363L154.555 194.275C154.681 193.643 154.985 193.133 155.465 192.746C155.953 192.35 156.577 192.152 157.335 192.152C158.194 192.152 158.851 192.396 159.306 192.885C159.76 193.365 159.988 194.031 159.988 194.881V197.648C159.988 197.8 160.013 197.909 160.064 197.977C160.123 198.036 160.215 198.065 160.342 198.065H160.607V199C160.573 199.008 160.518 199.013 160.443 199.013C160.367 199.021 160.287 199.025 160.203 199.025C159.899 199.025 159.651 198.979 159.457 198.886C159.272 198.785 159.137 198.634 159.053 198.431C158.969 198.221 158.927 197.947 158.927 197.61L159.053 197.635C158.994 197.922 158.851 198.183 158.623 198.419C158.396 198.646 158.114 198.827 157.777 198.962C157.44 199.088 157.082 199.152 156.703 199.152ZM156.804 198.217C157.25 198.217 157.629 198.132 157.941 197.964C158.261 197.787 158.505 197.551 158.674 197.256C158.842 196.953 158.927 196.616 158.927 196.246V195.766L156.753 196.17C156.299 196.254 155.983 196.385 155.806 196.562C155.637 196.73 155.553 196.953 155.553 197.231C155.553 197.543 155.663 197.787 155.882 197.964C156.109 198.132 156.417 198.217 156.804 198.217ZM163.848 199C163.241 199 162.791 198.861 162.496 198.583C162.209 198.305 162.066 197.871 162.066 197.282V190.737H163.128V197.256C163.128 197.56 163.195 197.77 163.33 197.888C163.464 198.006 163.671 198.065 163.949 198.065H164.909V199H163.848ZM161.081 193.239V192.304H164.909V193.239H161.081ZM171.967 199.152C171.343 199.152 170.8 199.008 170.337 198.722C169.882 198.436 169.528 198.031 169.275 197.509C169.023 196.979 168.896 196.359 168.896 195.652C168.896 194.944 169.023 194.33 169.275 193.807C169.528 193.285 169.882 192.881 170.337 192.594C170.8 192.3 171.343 192.152 171.967 192.152C172.48 192.152 172.935 192.245 173.331 192.43C173.735 192.607 174.064 192.868 174.316 193.213C174.569 193.559 174.733 193.98 174.809 194.477L173.697 194.553C173.622 194.106 173.428 193.765 173.116 193.529C172.805 193.285 172.421 193.163 171.967 193.163C171.352 193.163 170.872 193.386 170.526 193.833C170.181 194.271 170.008 194.877 170.008 195.652C170.008 196.427 170.181 197.037 170.526 197.484C170.872 197.922 171.352 198.141 171.967 198.141C172.421 198.141 172.805 198.015 173.116 197.762C173.428 197.509 173.622 197.13 173.697 196.625L174.809 196.701C174.733 197.198 174.569 197.631 174.316 198.002C174.064 198.364 173.735 198.646 173.331 198.848C172.935 199.051 172.48 199.152 171.967 199.152ZM178.029 199.152C177.338 199.152 176.786 198.992 176.373 198.672C175.969 198.351 175.767 197.905 175.767 197.332C175.767 196.76 175.935 196.309 176.272 195.98C176.609 195.652 177.144 195.42 177.877 195.286L180.252 194.843C180.252 194.279 180.117 193.858 179.848 193.58C179.587 193.302 179.191 193.163 178.66 193.163C178.197 193.163 177.831 193.268 177.561 193.479C177.292 193.681 177.106 193.976 177.005 194.363L175.881 194.275C176.007 193.643 176.31 193.133 176.79 192.746C177.279 192.35 177.902 192.152 178.66 192.152C179.519 192.152 180.176 192.396 180.631 192.885C181.086 193.365 181.313 194.031 181.313 194.881V197.648C181.313 197.8 181.339 197.909 181.389 197.977C181.448 198.036 181.541 198.065 181.667 198.065H181.933V199C181.899 199.008 181.844 199.013 181.768 199.013C181.692 199.021 181.612 199.025 181.528 199.025C181.225 199.025 180.977 198.979 180.783 198.886C180.597 198.785 180.463 198.634 180.378 198.431C180.294 198.221 180.252 197.947 180.252 197.61L180.378 197.635C180.32 197.922 180.176 198.183 179.949 198.419C179.722 198.646 179.439 198.827 179.102 198.962C178.766 199.088 178.408 199.152 178.029 199.152ZM178.13 198.217C178.576 198.217 178.955 198.132 179.267 197.964C179.587 197.787 179.831 197.551 179.999 197.256C180.168 196.953 180.252 196.616 180.252 196.246V195.766L178.079 196.17C177.624 196.254 177.308 196.385 177.131 196.562C176.963 196.73 176.879 196.953 176.879 197.231C176.879 197.543 176.988 197.787 177.207 197.964C177.435 198.132 177.742 198.217 178.13 198.217ZM183.055 199V192.304H184.028L184.066 194.009L183.94 193.896C184.024 193.5 184.171 193.176 184.382 192.923C184.593 192.662 184.845 192.468 185.14 192.342C185.443 192.215 185.768 192.152 186.113 192.152C186.627 192.152 187.048 192.266 187.376 192.493C187.713 192.721 187.962 193.028 188.122 193.416C188.29 193.795 188.374 194.22 188.374 194.692V199H187.313V194.995C187.313 194.582 187.263 194.237 187.162 193.959C187.069 193.673 186.917 193.458 186.707 193.315C186.496 193.163 186.222 193.087 185.885 193.087C185.372 193.087 184.946 193.251 184.609 193.58C184.281 193.9 184.117 194.372 184.117 194.995V199H183.055ZM193.555 199V190.03H194.642V199H193.555ZM202.191 199.152C201.61 199.152 201.105 199.008 200.675 198.722C200.254 198.436 199.93 198.031 199.702 197.509C199.475 196.987 199.361 196.368 199.361 195.652C199.361 194.936 199.475 194.317 199.702 193.795C199.93 193.272 200.254 192.868 200.675 192.582C201.105 192.295 201.61 192.152 202.191 192.152C202.638 192.152 203.046 192.249 203.417 192.443C203.787 192.628 204.065 192.893 204.251 193.239V190.03H205.312V199H204.352L204.314 197.989C204.128 198.351 203.846 198.638 203.467 198.848C203.088 199.051 202.663 199.152 202.191 199.152ZM202.406 198.141C202.802 198.141 203.134 198.04 203.404 197.838C203.682 197.635 203.893 197.349 204.036 196.979C204.179 196.599 204.251 196.157 204.251 195.652C204.251 195.13 204.179 194.683 204.036 194.313C203.893 193.942 203.682 193.66 203.404 193.466C203.134 193.264 202.802 193.163 202.406 193.163C201.816 193.163 201.345 193.386 200.991 193.833C200.646 194.271 200.473 194.877 200.473 195.652C200.473 196.418 200.646 197.025 200.991 197.471C201.345 197.918 201.816 198.141 202.406 198.141ZM209.746 199.152C209.131 199.152 208.592 199.008 208.129 198.722C207.665 198.436 207.308 198.031 207.055 197.509C206.802 196.979 206.676 196.359 206.676 195.652C206.676 194.936 206.802 194.317 207.055 193.795C207.308 193.272 207.665 192.868 208.129 192.582C208.592 192.295 209.131 192.152 209.746 192.152C210.361 192.152 210.896 192.295 211.35 192.582C211.814 192.868 212.172 193.272 212.424 193.795C212.677 194.317 212.803 194.936 212.803 195.652C212.803 196.359 212.677 196.979 212.424 197.509C212.172 198.031 211.814 198.436 211.35 198.722C210.896 199.008 210.361 199.152 209.746 199.152ZM209.746 198.141C210.361 198.141 210.837 197.922 211.174 197.484C211.519 197.037 211.692 196.427 211.692 195.652C211.692 194.877 211.519 194.271 211.174 193.833C210.837 193.386 210.361 193.163 209.746 193.163C209.131 193.163 208.651 193.386 208.306 193.833C207.96 194.271 207.788 194.877 207.788 195.652C207.788 196.427 207.96 197.037 208.306 197.484C208.651 197.922 209.131 198.141 209.746 198.141ZM218.037 199V191.697C218.037 191.2 218.18 190.8 218.467 190.497C218.753 190.185 219.199 190.03 219.806 190.03H220.867V190.965H219.882C219.621 190.965 219.423 191.036 219.288 191.179C219.162 191.323 219.098 191.52 219.098 191.773V199H218.037ZM217.127 193.239V192.304H220.779V193.239H217.127ZM224.349 199.152C223.734 199.152 223.195 199.008 222.732 198.722C222.269 198.436 221.911 198.031 221.658 197.509C221.405 196.979 221.279 196.359 221.279 195.652C221.279 194.936 221.405 194.317 221.658 193.795C221.911 193.272 222.269 192.868 222.732 192.582C223.195 192.295 223.734 192.152 224.349 192.152C224.964 192.152 225.499 192.295 225.954 192.582C226.417 192.868 226.775 193.272 227.028 193.795C227.28 194.317 227.407 194.936 227.407 195.652C227.407 196.359 227.28 196.979 227.028 197.509C226.775 198.031 226.417 198.436 225.954 198.722C225.499 199.008 224.964 199.152 224.349 199.152ZM224.349 198.141C224.964 198.141 225.44 197.922 225.777 197.484C226.122 197.037 226.295 196.427 226.295 195.652C226.295 194.877 226.122 194.271 225.777 193.833C225.44 193.386 224.964 193.163 224.349 193.163C223.734 193.163 223.254 193.386 222.909 193.833C222.563 194.271 222.391 194.877 222.391 195.652C222.391 196.427 222.563 197.037 222.909 197.484C223.254 197.922 223.734 198.141 224.349 198.141ZM228.777 199V192.304H229.712L229.763 193.997L229.661 193.959C229.746 193.386 229.927 192.969 230.205 192.708C230.491 192.439 230.87 192.304 231.342 192.304H231.999V193.315H231.354C231.018 193.315 230.735 193.378 230.508 193.504C230.289 193.622 230.121 193.803 230.003 194.047C229.893 194.283 229.838 194.586 229.838 194.957V199H228.777ZM236.862 200.895V199.96H237.633C237.868 199.96 238.041 199.922 238.151 199.846C238.268 199.779 238.357 199.665 238.416 199.505L238.656 198.874H238.29L235.838 192.304H237.001L238.997 197.888L240.905 192.304H242.067L239.351 199.846C239.224 200.209 239.035 200.474 238.782 200.642C238.53 200.811 238.18 200.895 237.734 200.895H236.862ZM245.564 199.152C244.949 199.152 244.41 199.008 243.946 198.722C243.483 198.436 243.125 198.031 242.872 197.509C242.62 196.979 242.493 196.359 242.493 195.652C242.493 194.936 242.62 194.317 242.872 193.795C243.125 193.272 243.483 192.868 243.946 192.582C244.41 192.295 244.949 192.152 245.564 192.152C246.178 192.152 246.713 192.295 247.168 192.582C247.631 192.868 247.989 193.272 248.242 193.795C248.495 194.317 248.621 194.936 248.621 195.652C248.621 196.359 248.495 196.979 248.242 197.509C247.989 198.031 247.631 198.436 247.168 198.722C246.713 199.008 246.178 199.152 245.564 199.152ZM245.564 198.141C246.178 198.141 246.654 197.922 246.991 197.484C247.337 197.037 247.509 196.427 247.509 195.652C247.509 194.877 247.337 194.271 246.991 193.833C246.654 193.386 246.178 193.163 245.564 193.163C244.949 193.163 244.469 193.386 244.123 193.833C243.778 194.271 243.605 194.877 243.605 195.652C243.605 196.427 243.778 197.037 244.123 197.484C244.469 197.922 244.949 198.141 245.564 198.141ZM252.19 199.152C251.525 199.152 250.99 198.928 250.585 198.482C250.19 198.027 249.992 197.404 249.992 196.612V192.304H251.053V196.322C251.053 196.97 251.167 197.45 251.394 197.762C251.63 198.065 251.988 198.217 252.468 198.217C252.999 198.217 253.416 198.048 253.719 197.711C254.022 197.366 254.174 196.894 254.174 196.296V192.304H255.235V199H254.224V197.345L254.388 197.433C254.254 197.981 253.997 198.406 253.618 198.709C253.239 199.004 252.763 199.152 252.19 199.152ZM258.882 196.461C258.882 195.854 258.975 195.374 259.16 195.02C259.354 194.658 259.669 194.342 260.107 194.073C260.436 193.87 260.684 193.694 260.853 193.542C261.03 193.382 261.148 193.218 261.207 193.049C261.266 192.872 261.295 192.658 261.295 192.405C261.295 191.967 261.148 191.605 260.853 191.318C260.567 191.032 260.166 190.889 259.653 190.889C259.029 190.889 258.549 191.049 258.212 191.369C257.884 191.689 257.686 192.152 257.619 192.759L256.481 192.683C256.532 192.127 256.692 191.634 256.962 191.205C257.231 190.775 257.593 190.438 258.048 190.194C258.503 189.95 259.038 189.827 259.653 189.827C260.2 189.827 260.68 189.937 261.093 190.156C261.514 190.375 261.843 190.678 262.078 191.066C262.314 191.453 262.432 191.9 262.432 192.405C262.432 192.759 262.373 193.066 262.255 193.327C262.146 193.588 261.973 193.828 261.737 194.047C261.501 194.266 261.202 194.494 260.84 194.73C260.503 194.949 260.272 195.18 260.145 195.424C260.027 195.669 259.968 196.014 259.968 196.461H258.882ZM258.68 199V197.572H260.107V199H258.68Z" fill="#CABEE8"/>
</g>
<g clip-path="url(#clip4_12688_58518)">
<g filter="url(#filter2_d_12688_58518)">
<path d="M253.098 171.729L250.695 159.109L261.268 165.419L255.982 166.875L253.098 171.729Z" fill="#271262"/>
<path d="M250.943 158.691L250.025 158.144L250.227 159.201L252.63 171.821L252.867 173.067L253.513 171.979L256.298 167.292L261.397 165.887L262.494 165.585L261.515 165.001L250.943 158.691Z" stroke="white" stroke-width="0.799441" stroke-linecap="square"/>
</g>
<rect width="21.8525" height="12.9508" transform="translate(261.072 173.42)" fill="#271262"/>
<path d="M266.466 183.396V180.766L264.189 176.957H265.115L266.856 179.968L268.597 176.957H269.522L267.246 180.766V183.396H266.466ZM271.835 183.505C270.502 183.505 269.632 182.525 269.632 180.993C269.632 179.46 270.502 178.481 271.835 178.481C273.16 178.481 274.03 179.46 274.03 180.993C274.03 182.525 273.16 183.505 271.835 183.505ZM271.835 182.779C272.715 182.779 273.232 182.108 273.232 180.993C273.232 179.877 272.715 179.206 271.835 179.206C270.947 179.206 270.43 179.877 270.43 180.993C270.43 182.108 270.947 182.779 271.835 182.779ZM276.618 183.505C275.657 183.505 275.04 182.825 275.04 181.682V178.589H275.802V181.473C275.802 182.407 276.128 182.834 276.817 182.834C277.579 182.834 278.042 182.317 278.042 181.455V178.589H278.804V183.396H278.078V182.616C277.815 183.187 277.307 183.505 276.618 183.505Z" fill="white"/>
</g>
</g>
</g>
<path d="M40.64 276.36C39.264 276.36 38.052 276.08 37.004 275.52C35.964 274.96 35.148 274.172 34.556 273.156C33.972 272.14 33.68 270.948 33.68 269.58V258.744L36.608 258.72V269.508C36.608 270.156 36.716 270.736 36.932 271.248C37.156 271.76 37.456 272.196 37.832 272.556C38.208 272.908 38.64 273.176 39.128 273.36C39.616 273.544 40.12 273.636 40.64 273.636C41.176 273.636 41.684 273.544 42.164 273.36C42.652 273.168 43.084 272.896 43.46 272.544C43.836 272.184 44.132 271.748 44.348 271.236C44.564 270.724 44.672 270.148 44.672 269.508V258.72H47.6V269.58C47.6 270.948 47.304 272.14 46.712 273.156C46.128 274.172 45.312 274.96 44.264 275.52C43.224 276.08 42.016 276.36 40.64 276.36ZM59.9174 276V269.76C59.9174 269.352 59.8894 268.9 59.8334 268.404C59.7774 267.908 59.6454 267.432 59.4374 266.976C59.2374 266.512 58.9334 266.132 58.5254 265.836C58.1254 265.54 57.5814 265.392 56.8934 265.392C56.5254 265.392 56.1614 265.452 55.8014 265.572C55.4414 265.692 55.1134 265.9 54.8174 266.196C54.5294 266.484 54.2974 266.884 54.1214 267.396C53.9454 267.9 53.8574 268.548 53.8574 269.34L52.1414 268.608C52.1414 267.504 52.3534 266.504 52.7774 265.608C53.2094 264.712 53.8414 264 54.6734 263.472C55.5054 262.936 56.5294 262.668 57.7454 262.668C58.7054 262.668 59.4974 262.828 60.1214 263.148C60.7454 263.468 61.2414 263.876 61.6094 264.372C61.9774 264.868 62.2494 265.396 62.4254 265.956C62.6014 266.516 62.7134 267.048 62.7614 267.552C62.8174 268.048 62.8454 268.452 62.8454 268.764V276H59.9174ZM50.9294 276V263.04H53.5094V267.06H53.8574V276H50.9294ZM66.2169 276V258.36H69.1089V276H66.2169ZM78.4274 276.36C77.1314 276.36 75.9994 276.068 75.0314 275.484C74.0634 274.9 73.3114 274.096 72.7754 273.072C72.2474 272.04 71.9834 270.856 71.9834 269.52C71.9834 268.16 72.2554 266.968 72.7994 265.944C73.3434 264.92 74.0994 264.12 75.0674 263.544C76.0354 262.968 77.1554 262.68 78.4274 262.68C79.7314 262.68 80.8674 262.972 81.8354 263.556C82.8034 264.14 83.5554 264.948 84.0914 265.98C84.6274 267.004 84.8954 268.184 84.8954 269.52C84.8954 270.864 84.6234 272.052 84.0794 273.084C83.5434 274.108 82.7914 274.912 81.8234 275.496C80.8554 276.072 79.7234 276.36 78.4274 276.36ZM78.4274 273.648C79.5794 273.648 80.4354 273.264 80.9954 272.496C81.5554 271.728 81.8354 270.736 81.8354 269.52C81.8354 268.264 81.5514 267.264 80.9834 266.52C80.4154 265.768 79.5634 265.392 78.4274 265.392C77.6514 265.392 77.0114 265.568 76.5074 265.92C76.0114 266.264 75.6434 266.748 75.4034 267.372C75.1634 267.988 75.0434 268.704 75.0434 269.52C75.0434 270.776 75.3274 271.78 75.8954 272.532C76.4714 273.276 77.3154 273.648 78.4274 273.648ZM93.1674 276.36C91.8314 276.36 90.6914 276.064 89.7474 275.472C88.8034 274.872 88.0794 274.056 87.5754 273.024C87.0794 271.992 86.8274 270.824 86.8194 269.52C86.8274 268.192 87.0874 267.016 87.5994 265.992C88.1194 264.96 88.8554 264.152 89.8074 263.568C90.7594 262.976 91.8914 262.68 93.2034 262.68C94.6754 262.68 95.9194 263.052 96.9354 263.796C97.9594 264.532 98.6274 265.54 98.9394 266.82L96.0594 267.6C95.8354 266.904 95.4634 266.364 94.9434 265.98C94.4234 265.588 93.8314 265.392 93.1674 265.392C92.4154 265.392 91.7954 265.572 91.3074 265.932C90.8194 266.284 90.4594 266.772 90.2274 267.396C89.9954 268.02 89.8794 268.728 89.8794 269.52C89.8794 270.752 90.1554 271.748 90.7074 272.508C91.2594 273.268 92.0794 273.648 93.1674 273.648C93.9354 273.648 94.5394 273.472 94.9794 273.12C95.4274 272.768 95.7634 272.26 95.9874 271.596L98.9394 272.256C98.5394 273.576 97.8394 274.592 96.8394 275.304C95.8394 276.008 94.6154 276.36 93.1674 276.36ZM101.32 276L101.344 258.72H104.272V269.28L109.012 263.04H112.624L107.596 269.52L113.056 276H109.228L104.272 269.76V276H101.32ZM126.335 272.136C125.663 273.464 124.879 274.48 123.983 275.184C123.103 275.888 122.159 276.24 121.151 276.24C120.111 276.24 119.279 275.888 118.655 275.184C118.031 274.464 117.719 273.512 117.719 272.328C117.719 271.624 117.823 270.904 118.031 270.168C118.239 269.432 118.519 268.72 118.871 268.032C119.223 267.344 119.639 266.696 120.119 266.088C120.599 265.48 121.111 264.952 121.655 264.504C122.199 264.056 122.759 263.704 123.335 263.448C123.927 263.176 124.503 263.04 125.063 263.04C125.831 263.04 126.463 263.248 126.959 263.664C127.455 264.08 127.703 264.6 127.703 265.224C127.703 265.624 127.583 265.952 127.343 266.208C127.119 266.448 126.823 266.568 126.455 266.568C126.087 266.568 125.783 266.456 125.543 266.232C125.319 265.992 125.207 265.704 125.207 265.368C125.207 265.16 125.239 264.992 125.303 264.864C125.367 264.736 125.399 264.616 125.399 264.504C125.399 264.28 125.207 264.168 124.823 264.168C124.295 264.168 123.759 264.416 123.215 264.912C122.671 265.408 122.175 266.048 121.727 266.832C121.295 267.616 120.935 268.496 120.647 269.472C120.375 270.432 120.239 271.392 120.239 272.352C120.239 273.12 120.383 273.728 120.671 274.176C120.975 274.608 121.391 274.824 121.919 274.824C122.207 274.824 122.503 274.744 122.807 274.584C123.127 274.424 123.447 274.208 123.767 273.936C124.087 273.648 124.391 273.312 124.679 272.928C124.983 272.544 125.255 272.12 125.495 271.656L126.335 272.136ZM132.465 276.24C131.921 276.24 131.409 276.136 130.929 275.928C130.465 275.704 130.057 275.384 129.705 274.968C129.353 274.552 129.073 274.048 128.865 273.456C128.657 272.848 128.553 272.168 128.553 271.416C128.553 270.376 128.745 269.352 129.129 268.344C129.529 267.336 130.049 266.44 130.689 265.656C131.329 264.872 132.057 264.24 132.873 263.76C133.705 263.28 134.561 263.04 135.441 263.04C136.017 263.04 136.545 263.152 137.025 263.376C137.521 263.584 137.937 263.896 138.273 264.312C138.625 264.712 138.897 265.2 139.089 265.776C139.297 266.336 139.401 266.96 139.401 267.648C139.401 268.656 139.201 269.672 138.801 270.696C138.401 271.72 137.873 272.64 137.217 273.456C136.577 274.272 135.841 274.944 135.009 275.472C134.177 275.984 133.329 276.24 132.465 276.24ZM132.609 275.04C133.153 275.04 133.689 274.76 134.217 274.2C134.761 273.64 135.241 272.936 135.657 272.088C136.089 271.224 136.433 270.288 136.689 269.28C136.961 268.272 137.097 267.312 137.097 266.4C137.097 265.552 136.945 264.968 136.641 264.648C136.353 264.328 135.953 264.168 135.441 264.168C135.089 264.168 134.729 264.296 134.361 264.552C134.009 264.792 133.673 265.128 133.353 265.56C133.033 265.992 132.729 266.488 132.441 267.048C132.169 267.608 131.929 268.2 131.721 268.824C131.513 269.448 131.353 270.088 131.241 270.744C131.129 271.384 131.073 272 131.073 272.592C131.073 273.488 131.217 274.12 131.505 274.488C131.793 274.856 132.161 275.04 132.609 275.04ZM150.739 264.288C150.355 264.288 149.915 264.488 149.419 264.888C148.939 265.272 148.443 265.792 147.931 266.448C147.435 267.088 146.955 267.824 146.491 268.656C146.027 269.488 145.635 270.336 145.315 271.2L143.539 276H141.427L143.203 270.504C143.491 269.624 143.731 268.872 143.923 268.248C144.115 267.624 144.267 267.104 144.379 266.688C144.507 266.256 144.595 265.912 144.643 265.656C144.691 265.384 144.715 265.168 144.715 265.008C144.715 264.576 144.579 264.36 144.307 264.36C144.131 264.36 143.923 264.472 143.683 264.696C143.443 264.92 143.195 265.216 142.939 265.584C142.699 265.936 142.467 266.344 142.243 266.808C142.019 267.272 141.827 267.744 141.667 268.224L140.947 267.864C141.507 266.216 142.131 265 142.819 264.216C143.523 263.432 144.323 263.04 145.219 263.04C145.731 263.04 146.091 263.184 146.299 263.472C146.523 263.76 146.635 264.248 146.635 264.936C146.635 265.752 146.499 266.48 146.227 267.12L146.299 267.192C147.115 265.752 147.939 264.704 148.771 264.048C149.619 263.376 150.539 263.04 151.531 263.04C152.235 263.04 152.771 263.208 153.139 263.544C153.507 263.88 153.691 264.36 153.691 264.984C153.691 265.192 153.667 265.424 153.619 265.68C153.587 265.936 153.523 266.248 153.427 266.616C153.331 266.968 153.195 267.392 153.019 267.888C152.859 268.384 152.659 268.992 152.419 269.712C152.051 270.8 151.747 271.712 151.507 272.448C151.267 273.184 151.147 273.704 151.147 274.008C151.147 274.248 151.227 274.368 151.387 274.368C151.611 274.368 151.939 274.184 152.371 273.816C152.803 273.448 153.387 272.856 154.123 272.04L154.747 272.376C154.491 272.856 154.155 273.328 153.739 273.792C153.339 274.24 152.915 274.648 152.467 275.016C152.035 275.384 151.603 275.68 151.171 275.904C150.739 276.128 150.363 276.24 150.043 276.24C149.643 276.24 149.323 276.064 149.083 275.712C148.859 275.36 148.747 274.896 148.747 274.32C148.747 274.096 148.763 273.872 148.795 273.648C148.843 273.408 148.931 273.072 149.059 272.64C149.187 272.208 149.371 271.632 149.611 270.912C149.867 270.176 150.211 269.208 150.643 268.008C150.787 267.592 150.907 267.24 151.003 266.952C151.099 266.664 151.171 266.416 151.219 266.208C151.283 265.984 151.323 265.792 151.339 265.632C151.371 265.472 151.387 265.32 151.387 265.176C151.387 264.584 151.171 264.288 150.739 264.288ZM166.416 267.432C166.416 267.112 166.384 266.824 166.32 266.568C166.272 266.296 166.208 266.04 166.128 265.8C166.064 265.56 166 265.328 165.936 265.104C165.888 264.88 165.864 264.648 165.864 264.408C165.864 263.496 166.28 263.04 167.112 263.04C167.608 263.04 167.96 263.216 168.168 263.568C168.392 263.92 168.504 264.504 168.504 265.32C168.504 266.168 168.4 267.032 168.192 267.912C167.984 268.776 167.696 269.616 167.328 270.432C166.96 271.232 166.528 271.984 166.032 272.688C165.536 273.392 165.008 274.008 164.448 274.536C163.888 275.064 163.304 275.48 162.696 275.784C162.104 276.088 161.512 276.24 160.92 276.24C160.488 276.24 160.08 276.16 159.696 276C159.328 275.824 159.008 275.584 158.736 275.28C158.464 274.976 158.248 274.616 158.088 274.2C157.944 273.784 157.872 273.336 157.872 272.856C157.872 271.944 158.12 270.872 158.616 269.64C159.112 268.408 159.816 267.136 160.728 265.824L160.68 265.752C160.248 265.752 159.888 265.688 159.6 265.56C159.312 265.432 159.064 265.288 158.856 265.128C158.664 264.968 158.488 264.824 158.328 264.696C158.184 264.568 158.032 264.504 157.872 264.504C157.6 264.504 157.464 264.64 157.464 264.912C157.464 265.056 157.504 265.184 157.584 265.296C157.68 265.408 157.776 265.52 157.872 265.632C157.984 265.744 158.08 265.872 158.16 266.016C158.256 266.144 158.304 266.304 158.304 266.496C158.304 266.784 158.192 267.024 157.968 267.216C157.744 267.392 157.456 267.48 157.104 267.48C156.688 267.48 156.368 267.352 156.144 267.096C155.92 266.84 155.808 266.48 155.808 266.016C155.808 265.616 155.888 265.24 156.048 264.888C156.208 264.52 156.424 264.2 156.696 263.928C156.968 263.656 157.28 263.44 157.632 263.28C158 263.12 158.384 263.04 158.784 263.04C159.104 263.04 159.376 263.096 159.6 263.208C159.824 263.304 160.032 263.424 160.224 263.568C160.416 263.696 160.6 263.816 160.776 263.928C160.968 264.024 161.192 264.072 161.448 264.072C161.752 264.072 162.024 263.952 162.264 263.712C162.6 263.408 162.824 263.224 162.936 263.16C163.064 263.08 163.224 263.04 163.416 263.04C163.736 263.04 163.896 263.176 163.896 263.448C163.896 263.512 163.888 263.568 163.872 263.616C163.856 263.664 163.816 263.736 163.752 263.832C163.704 263.928 163.608 264.056 163.464 264.216C163.336 264.376 163.152 264.6 162.912 264.888C162.544 265.336 162.208 265.84 161.904 266.4C161.6 266.96 161.336 267.544 161.112 268.152C160.888 268.76 160.712 269.376 160.584 270C160.456 270.608 160.392 271.184 160.392 271.728C160.392 272.592 160.536 273.288 160.824 273.816C161.128 274.328 161.512 274.584 161.976 274.584C162.424 274.584 162.904 274.344 163.416 273.864C163.928 273.384 164.408 272.792 164.856 272.088C165.304 271.368 165.672 270.592 165.96 269.76C166.264 268.928 166.416 268.152 166.416 267.432ZM178.131 272.808C176.739 275.096 175.027 276.24 172.995 276.24C171.891 276.24 171.043 275.904 170.451 275.232C169.859 274.544 169.563 273.576 169.563 272.328C169.563 271.224 169.787 270.12 170.235 269.016C170.699 267.912 171.299 266.92 172.035 266.04C172.771 265.144 173.595 264.424 174.507 263.88C175.419 263.32 176.331 263.04 177.243 263.04C178.011 263.04 178.635 263.24 179.115 263.64C179.611 264.024 179.859 264.52 179.859 265.128C179.859 265.688 179.651 266.264 179.235 266.856C178.819 267.448 178.251 268.008 177.531 268.536C176.827 269.064 175.995 269.544 175.035 269.976C174.091 270.408 173.083 270.744 172.011 270.984C171.979 271.208 171.955 271.432 171.939 271.656C171.923 271.864 171.915 272.08 171.915 272.304C171.915 274.048 172.531 274.92 173.763 274.92C174.355 274.92 174.963 274.688 175.587 274.224C176.227 273.76 176.819 273.12 177.363 272.304L178.131 272.808ZM176.763 264.168C176.347 264.168 175.915 264.328 175.467 264.648C175.019 264.968 174.587 265.4 174.171 265.944C173.771 266.472 173.403 267.08 173.067 267.768C172.731 268.456 172.459 269.168 172.251 269.904C173.019 269.696 173.731 269.424 174.387 269.088C175.043 268.752 175.603 268.376 176.067 267.96C176.547 267.528 176.923 267.08 177.195 266.616C177.467 266.136 177.603 265.656 177.603 265.176C177.603 264.504 177.323 264.168 176.763 264.168ZM180.676 266.616C180.852 266.216 181.116 265.808 181.468 265.392C181.836 264.96 182.228 264.576 182.644 264.24C183.076 263.888 183.508 263.6 183.94 263.376C184.372 263.152 184.748 263.04 185.068 263.04C185.452 263.04 185.732 263.184 185.908 263.472C186.084 263.76 186.172 264.224 186.172 264.864C186.172 265.12 186.156 265.368 186.124 265.608C186.108 265.848 186.068 266.128 186.004 266.448L186.076 266.52C186.268 266.056 186.54 265.6 186.892 265.152C187.244 264.704 187.62 264.312 188.02 263.976C188.436 263.624 188.852 263.344 189.268 263.136C189.7 262.912 190.1 262.8 190.468 262.8C190.932 262.8 191.316 262.952 191.62 263.256C191.94 263.544 192.1 263.904 192.1 264.336C192.1 264.752 191.964 265.096 191.692 265.368C191.436 265.64 191.1 265.776 190.684 265.776C190.428 265.776 190.22 265.728 190.06 265.632C189.916 265.536 189.788 265.44 189.676 265.344C189.564 265.232 189.46 265.128 189.364 265.032C189.268 264.936 189.148 264.888 189.004 264.888C188.7 264.888 188.348 265.096 187.948 265.512C187.548 265.912 187.132 266.464 186.7 267.168C186.268 267.872 185.836 268.696 185.404 269.64C184.988 270.584 184.604 271.6 184.252 272.688L183.172 276H180.94L182.5 271.032C182.804 270.072 183.052 269.28 183.244 268.656C183.452 268.016 183.612 267.488 183.724 267.072C183.836 266.64 183.908 266.304 183.94 266.064C183.988 265.824 184.012 265.616 184.012 265.44C184.012 265.088 183.892 264.912 183.652 264.912C183.492 264.912 183.292 264.976 183.052 265.104C182.828 265.232 182.604 265.392 182.38 265.584C182.156 265.776 181.94 265.992 181.732 266.232C181.54 266.472 181.396 266.704 181.3 266.928L180.676 266.616ZM193.129 266.712C193.129 266.184 193.225 265.696 193.417 265.248C193.625 264.8 193.905 264.416 194.257 264.096C194.609 263.76 195.025 263.504 195.505 263.328C196.001 263.136 196.537 263.04 197.113 263.04C197.881 263.04 198.521 263.232 199.033 263.616C199.545 264 199.801 264.496 199.801 265.104C199.801 265.44 199.705 265.704 199.513 265.896C199.337 266.088 199.089 266.184 198.769 266.184C198.401 266.184 198.137 266.08 197.977 265.872C197.817 265.648 197.681 265.408 197.569 265.152C197.457 264.88 197.337 264.632 197.209 264.408C197.081 264.184 196.865 264.072 196.561 264.072C196.209 264.072 195.913 264.224 195.673 264.528C195.433 264.832 195.313 265.208 195.313 265.656C195.313 266.184 195.465 266.68 195.769 267.144C196.089 267.592 196.441 268.064 196.825 268.56C197.209 269.056 197.553 269.6 197.857 270.192C198.177 270.784 198.337 271.48 198.337 272.28C198.337 272.824 198.217 273.336 197.977 273.816C197.753 274.296 197.441 274.72 197.041 275.088C196.657 275.44 196.209 275.72 195.697 275.928C195.185 276.136 194.657 276.24 194.113 276.24C193.153 276.24 192.385 276.032 191.809 275.616C191.249 275.2 190.969 274.656 190.969 273.984C190.969 273.52 191.073 273.16 191.281 272.904C191.505 272.632 191.801 272.496 192.169 272.496C192.857 272.496 193.249 272.968 193.345 273.912C193.393 274.424 193.473 274.768 193.585 274.944C193.713 275.104 193.961 275.184 194.329 275.184C194.905 275.184 195.361 275.016 195.697 274.68C196.033 274.328 196.201 273.848 196.201 273.24C196.201 272.6 196.041 272.032 195.721 271.536C195.401 271.04 195.049 270.56 194.665 270.096C194.281 269.616 193.929 269.112 193.609 268.584C193.289 268.056 193.129 267.432 193.129 266.712ZM208.39 264.288C207.782 264.288 207.15 264.568 206.494 265.128C205.854 265.688 205.27 266.392 204.742 267.24C204.214 268.072 203.782 268.976 203.446 269.952C203.11 270.912 202.942 271.808 202.942 272.64C202.942 273.216 203.062 273.68 203.302 274.032C203.542 274.368 203.87 274.536 204.286 274.536C204.654 274.536 205.038 274.392 205.438 274.104C205.838 273.8 206.222 273.408 206.59 272.928C206.974 272.432 207.334 271.872 207.67 271.248C208.006 270.624 208.302 269.984 208.558 269.328C208.814 268.656 209.014 268 209.158 267.36C209.302 266.72 209.374 266.144 209.374 265.632C209.374 265.216 209.286 264.888 209.11 264.648C208.934 264.408 208.694 264.288 208.39 264.288ZM210.862 263.28H212.854L211.486 266.952C211.262 267.56 211.038 268.208 210.814 268.896C210.606 269.584 210.414 270.248 210.238 270.888C210.078 271.528 209.95 272.112 209.854 272.64C209.758 273.168 209.71 273.56 209.71 273.816C209.71 274.28 209.862 274.512 210.166 274.512C210.39 274.512 210.71 274.28 211.126 273.816C211.558 273.352 212.038 272.752 212.566 272.016L213.19 272.52C212.518 273.704 211.79 274.624 211.006 275.28C210.238 275.92 209.494 276.24 208.774 276.24C208.406 276.24 208.118 276.104 207.91 275.832C207.718 275.544 207.622 275.08 207.622 274.44C207.622 274.296 207.622 274.128 207.622 273.936C207.638 273.744 207.662 273.488 207.694 273.168L207.598 273.144C207.358 273.592 207.07 274.008 206.734 274.392C206.414 274.76 206.062 275.088 205.678 275.376C205.294 275.648 204.894 275.856 204.478 276C204.062 276.16 203.654 276.24 203.254 276.24C202.438 276.24 201.798 275.936 201.334 275.328C200.886 274.704 200.662 273.848 200.662 272.76C200.662 271.656 200.894 270.528 201.358 269.376C201.822 268.224 202.422 267.184 203.158 266.256C203.894 265.312 204.71 264.544 205.606 263.952C206.502 263.344 207.382 263.04 208.246 263.04C208.774 263.04 209.206 263.168 209.542 263.424C209.878 263.664 210.15 264.064 210.358 264.624L210.862 263.28ZM219.749 265.272L217.757 271.872C217.485 272.736 217.341 273.392 217.325 273.84C217.325 273.984 217.357 274.112 217.421 274.224C217.501 274.336 217.629 274.392 217.805 274.392C218.093 274.392 218.397 274.288 218.717 274.08C219.037 273.856 219.341 273.6 219.629 273.312C219.933 273.008 220.197 272.704 220.421 272.4C220.661 272.08 220.837 271.832 220.949 271.656L221.645 272.064C221.373 272.608 221.029 273.136 220.613 273.648C220.197 274.144 219.757 274.584 219.293 274.968C218.829 275.352 218.357 275.664 217.877 275.904C217.413 276.128 216.989 276.24 216.605 276.24C216.045 276.24 215.637 276.12 215.381 275.88C215.141 275.64 215.021 275.24 215.021 274.68C215.021 274.36 215.077 273.928 215.189 273.384C215.301 272.84 215.493 272.096 215.765 271.152L217.541 265.272H215.477L215.789 264.168H217.877L219.125 260.04H221.333L220.085 264.168H222.701L222.365 265.272H219.749ZM226.019 268.08C226.243 267.456 226.403 266.952 226.499 266.568C226.595 266.184 226.643 265.88 226.643 265.656C226.643 265.432 226.603 265.288 226.523 265.224C226.459 265.144 226.387 265.104 226.307 265.104C226.131 265.104 225.939 265.192 225.731 265.368C225.523 265.528 225.315 265.72 225.107 265.944C224.899 266.168 224.715 266.392 224.555 266.616C224.395 266.84 224.283 267.016 224.219 267.144L223.523 266.712C223.715 266.36 223.979 265.968 224.315 265.536C224.667 265.104 225.059 264.704 225.491 264.336C225.923 263.968 226.371 263.664 226.835 263.424C227.299 263.168 227.739 263.04 228.155 263.04C228.555 263.04 228.851 263.16 229.043 263.4C229.251 263.624 229.355 264.04 229.355 264.648C229.355 265.112 229.211 265.736 228.923 266.52C228.651 267.304 228.291 268.312 227.843 269.544L226.955 271.968C226.923 272.048 226.875 272.176 226.811 272.352C226.763 272.512 226.707 272.688 226.643 272.88C226.595 273.056 226.547 273.232 226.499 273.408C226.467 273.584 226.451 273.728 226.451 273.84C226.451 273.984 226.491 274.112 226.571 274.224C226.651 274.336 226.779 274.392 226.955 274.392C227.195 274.392 227.443 274.296 227.699 274.104C227.955 273.896 228.203 273.656 228.443 273.384C228.683 273.112 228.899 272.84 229.091 272.568C229.283 272.28 229.427 272.056 229.523 271.896L230.243 272.304C230.051 272.688 229.787 273.112 229.451 273.576C229.131 274.04 228.763 274.472 228.347 274.872C227.931 275.256 227.475 275.584 226.979 275.856C226.483 276.112 225.971 276.24 225.443 276.24C224.979 276.24 224.627 276.12 224.387 275.88C224.163 275.64 224.051 275.24 224.051 274.68C224.051 274.216 224.123 273.72 224.267 273.192C224.427 272.648 224.651 271.968 224.939 271.152L226.019 268.08ZM229.547 259.104C229.147 259.104 228.795 258.968 228.491 258.696C228.203 258.424 228.059 258.072 228.059 257.64C228.059 257.208 228.203 256.84 228.491 256.536C228.779 256.232 229.131 256.08 229.547 256.08C229.995 256.08 230.363 256.232 230.651 256.536C230.939 256.84 231.083 257.2 231.083 257.616C231.083 258.032 230.931 258.384 230.627 258.672C230.323 258.96 229.963 259.104 229.547 259.104ZM235.613 276.24C235.069 276.24 234.557 276.136 234.077 275.928C233.613 275.704 233.205 275.384 232.853 274.968C232.501 274.552 232.221 274.048 232.013 273.456C231.805 272.848 231.701 272.168 231.701 271.416C231.701 270.376 231.893 269.352 232.277 268.344C232.677 267.336 233.197 266.44 233.837 265.656C234.477 264.872 235.205 264.24 236.021 263.76C236.853 263.28 237.709 263.04 238.589 263.04C239.165 263.04 239.693 263.152 240.173 263.376C240.669 263.584 241.085 263.896 241.421 264.312C241.773 264.712 242.045 265.2 242.237 265.776C242.445 266.336 242.549 266.96 242.549 267.648C242.549 268.656 242.349 269.672 241.949 270.696C241.549 271.72 241.021 272.64 240.365 273.456C239.725 274.272 238.989 274.944 238.157 275.472C237.325 275.984 236.477 276.24 235.613 276.24ZM235.757 275.04C236.301 275.04 236.837 274.76 237.365 274.2C237.909 273.64 238.389 272.936 238.805 272.088C239.237 271.224 239.581 270.288 239.837 269.28C240.109 268.272 240.245 267.312 240.245 266.4C240.245 265.552 240.093 264.968 239.789 264.648C239.501 264.328 239.101 264.168 238.589 264.168C238.237 264.168 237.877 264.296 237.509 264.552C237.157 264.792 236.821 265.128 236.501 265.56C236.181 265.992 235.877 266.488 235.589 267.048C235.317 267.608 235.077 268.2 234.869 268.824C234.661 269.448 234.501 270.088 234.389 270.744C234.277 271.384 234.221 272 234.221 272.592C234.221 273.488 234.365 274.12 234.653 274.488C234.941 274.856 235.309 275.04 235.757 275.04ZM253.888 264.288C253.504 264.288 253.064 264.488 252.568 264.888C252.088 265.272 251.592 265.792 251.08 266.448C250.584 267.088 250.104 267.824 249.64 268.656C249.176 269.488 248.784 270.336 248.464 271.2L246.688 276H244.576L246.352 270.504C246.64 269.624 246.88 268.872 247.072 268.248C247.264 267.624 247.416 267.104 247.528 266.688C247.656 266.256 247.744 265.912 247.792 265.656C247.84 265.384 247.864 265.168 247.864 265.008C247.864 264.576 247.728 264.36 247.456 264.36C247.28 264.36 247.072 264.472 246.832 264.696C246.592 264.92 246.344 265.216 246.088 265.584C245.848 265.936 245.616 266.344 245.392 266.808C245.168 267.272 244.976 267.744 244.816 268.224L244.096 267.864C244.656 266.216 245.28 265 245.968 264.216C246.672 263.432 247.472 263.04 248.368 263.04C248.88 263.04 249.24 263.184 249.448 263.472C249.672 263.76 249.784 264.248 249.784 264.936C249.784 265.752 249.648 266.48 249.376 267.12L249.448 267.192C250.264 265.752 251.088 264.704 251.92 264.048C252.768 263.376 253.688 263.04 254.68 263.04C255.384 263.04 255.92 263.208 256.288 263.544C256.656 263.88 256.84 264.36 256.84 264.984C256.84 265.192 256.816 265.424 256.768 265.68C256.736 265.936 256.672 266.248 256.576 266.616C256.48 266.968 256.344 267.392 256.168 267.888C256.008 268.384 255.808 268.992 255.568 269.712C255.2 270.8 254.896 271.712 254.656 272.448C254.416 273.184 254.296 273.704 254.296 274.008C254.296 274.248 254.376 274.368 254.536 274.368C254.76 274.368 255.088 274.184 255.52 273.816C255.952 273.448 256.536 272.856 257.272 272.04L257.896 272.376C257.64 272.856 257.304 273.328 256.888 273.792C256.488 274.24 256.064 274.648 255.616 275.016C255.184 275.384 254.752 275.68 254.32 275.904C253.888 276.128 253.512 276.24 253.192 276.24C252.792 276.24 252.472 276.064 252.232 275.712C252.008 275.36 251.896 274.896 251.896 274.32C251.896 274.096 251.912 273.872 251.944 273.648C251.992 273.408 252.08 273.072 252.208 272.64C252.336 272.208 252.52 271.632 252.76 270.912C253.016 270.176 253.36 269.208 253.792 268.008C253.936 267.592 254.056 267.24 254.152 266.952C254.248 266.664 254.32 266.416 254.368 266.208C254.432 265.984 254.472 265.792 254.488 265.632C254.52 265.472 254.536 265.32 254.536 265.176C254.536 264.584 254.32 264.288 253.888 264.288ZM266.702 264.288C266.094 264.288 265.462 264.568 264.806 265.128C264.166 265.688 263.582 266.392 263.054 267.24C262.526 268.072 262.094 268.976 261.758 269.952C261.422 270.912 261.254 271.808 261.254 272.64C261.254 273.216 261.374 273.68 261.614 274.032C261.854 274.368 262.182 274.536 262.598 274.536C262.966 274.536 263.35 274.392 263.75 274.104C264.15 273.8 264.534 273.408 264.902 272.928C265.286 272.432 265.646 271.872 265.982 271.248C266.318 270.624 266.614 269.984 266.87 269.328C267.126 268.656 267.326 268 267.47 267.36C267.614 266.72 267.686 266.144 267.686 265.632C267.686 265.216 267.598 264.888 267.422 264.648C267.246 264.408 267.006 264.288 266.702 264.288ZM269.174 263.28H271.166L269.798 266.952C269.574 267.56 269.35 268.208 269.126 268.896C268.918 269.584 268.726 270.248 268.55 270.888C268.39 271.528 268.262 272.112 268.166 272.64C268.07 273.168 268.022 273.56 268.022 273.816C268.022 274.28 268.174 274.512 268.478 274.512C268.702 274.512 269.022 274.28 269.438 273.816C269.87 273.352 270.35 272.752 270.878 272.016L271.502 272.52C270.83 273.704 270.102 274.624 269.318 275.28C268.55 275.92 267.806 276.24 267.086 276.24C266.718 276.24 266.43 276.104 266.222 275.832C266.03 275.544 265.934 275.08 265.934 274.44C265.934 274.296 265.934 274.128 265.934 273.936C265.95 273.744 265.974 273.488 266.006 273.168L265.91 273.144C265.67 273.592 265.382 274.008 265.046 274.392C264.726 274.76 264.374 275.088 263.99 275.376C263.606 275.648 263.206 275.856 262.79 276C262.374 276.16 261.966 276.24 261.566 276.24C260.75 276.24 260.11 275.936 259.646 275.328C259.198 274.704 258.974 273.848 258.974 272.76C258.974 271.656 259.206 270.528 259.67 269.376C260.134 268.224 260.734 267.184 261.47 266.256C262.206 265.312 263.022 264.544 263.918 263.952C264.814 263.344 265.694 263.04 266.558 263.04C267.086 263.04 267.518 263.168 267.854 263.424C268.19 263.664 268.462 264.064 268.67 264.624L269.174 263.28ZM276.814 259.416C276.894 259.128 276.974 258.84 277.054 258.552C277.134 258.248 277.174 258.024 277.174 257.88C277.174 257.32 276.566 257.04 275.35 257.04L275.542 256.32L279.934 256.104L275.638 271.872C275.51 272.304 275.414 272.688 275.35 273.024C275.286 273.344 275.254 273.616 275.254 273.84C275.254 273.984 275.294 274.112 275.374 274.224C275.454 274.336 275.582 274.392 275.758 274.392C276.014 274.392 276.286 274.288 276.574 274.08C276.862 273.856 277.134 273.6 277.39 273.312C277.662 273.008 277.902 272.704 278.11 272.4C278.318 272.08 278.47 271.832 278.566 271.656L279.286 272.064C279.046 272.608 278.734 273.136 278.35 273.648C277.966 274.144 277.558 274.584 277.126 274.968C276.694 275.352 276.254 275.664 275.806 275.904C275.374 276.128 274.974 276.24 274.606 276.24C274.046 276.24 273.63 276.12 273.358 275.88C273.102 275.64 272.974 275.24 272.974 274.68C272.974 274.36 273.022 273.928 273.118 273.384C273.214 272.84 273.382 272.096 273.622 271.152L276.814 259.416ZM289.55 261.624C289.63 261.304 289.702 260.976 289.766 260.64C289.83 260.288 289.862 260 289.862 259.776C289.862 259.296 289.694 258.96 289.358 258.768C289.022 258.576 288.438 258.48 287.606 258.48L287.918 257.52H295.574L295.31 258.48C294.734 258.48 294.27 258.528 293.918 258.624C293.566 258.704 293.262 258.88 293.006 259.152C292.766 259.424 292.55 259.824 292.358 260.352C292.182 260.88 291.982 261.576 291.758 262.44L290.198 268.464C290.086 268.88 290.006 269.28 289.958 269.664C289.91 270.032 289.886 270.384 289.886 270.72C289.886 272 290.214 273.016 290.87 273.768C291.526 274.52 292.486 274.896 293.75 274.896C294.534 274.896 295.23 274.752 295.838 274.464C296.462 274.16 297.014 273.752 297.494 273.24C297.974 272.712 298.39 272.096 298.742 271.392C299.094 270.672 299.406 269.888 299.678 269.04C299.918 268.272 300.15 267.416 300.374 266.472C300.614 265.528 300.822 264.616 300.998 263.736C301.19 262.856 301.334 262.072 301.43 261.384C301.542 260.68 301.598 260.192 301.598 259.92C301.598 259.44 301.374 259.088 300.926 258.864C300.494 258.64 299.902 258.512 299.15 258.48L299.438 257.52H305.75L305.462 258.48C305.078 258.48 304.75 258.52 304.478 258.6C304.206 258.664 303.974 258.816 303.782 259.056C303.59 259.296 303.422 259.632 303.278 260.064C303.134 260.496 302.982 261.072 302.822 261.792L301.79 266.592C301.102 269.776 300.078 272.184 298.718 273.816C297.358 275.432 295.638 276.24 293.558 276.24C291.51 276.24 289.982 275.768 288.974 274.824C287.982 273.864 287.486 272.504 287.486 270.744C287.486 270.232 287.526 269.72 287.606 269.208C287.686 268.68 287.806 268.12 287.966 267.528L289.55 261.624ZM317.837 271.992C318.109 272.6 318.365 273.104 318.605 273.504C318.861 273.888 319.125 274.192 319.397 274.416C319.685 274.64 319.989 274.8 320.309 274.896C320.645 274.992 321.029 275.04 321.461 275.04L321.245 276H313.325L313.541 275.04C314.885 275.04 315.557 274.64 315.557 273.84C315.557 273.632 315.517 273.384 315.437 273.096C315.357 272.792 315.253 272.488 315.125 272.184L313.181 267.888L311.189 270.096C310.229 271.152 309.533 272.008 309.101 272.664C308.685 273.32 308.477 273.824 308.477 274.176C308.477 274.48 308.621 274.704 308.909 274.848C309.213 274.976 309.693 275.04 310.349 275.04L310.133 276H303.197L303.437 275.04C303.885 274.992 304.245 274.944 304.517 274.896C304.805 274.848 305.069 274.752 305.309 274.608C305.549 274.464 305.797 274.264 306.053 274.008C306.325 273.736 306.661 273.368 307.061 272.904L312.605 266.52L310.013 261.072C309.757 260.544 309.517 260.112 309.293 259.776C309.069 259.44 308.829 259.176 308.573 258.984C308.333 258.792 308.061 258.664 307.757 258.6C307.469 258.52 307.125 258.48 306.725 258.48L306.989 257.52H314.453L314.189 258.48C313.117 258.48 312.581 258.88 312.581 259.68C312.581 260.192 312.829 261 313.325 262.104L314.501 264.696L316.565 262.392C317.301 261.576 317.837 260.912 318.173 260.4C318.509 259.888 318.677 259.488 318.677 259.2C318.677 258.72 318.213 258.48 317.285 258.48L317.573 257.52H323.765L323.501 258.48C323.149 258.48 322.821 258.528 322.517 258.624C322.213 258.72 321.893 258.88 321.557 259.104C321.237 259.312 320.885 259.592 320.501 259.944C320.133 260.296 319.709 260.736 319.229 261.264L315.029 265.872L317.837 271.992ZM36.44 306L32.48 293.016L35.312 293.04L37.844 301.356L40.412 293.04H42.848L45.404 301.356L47.948 293.04H50.78L46.82 306H44.564L41.624 297.084L38.696 306H36.44ZM53.1856 291.072V288.42H56.0776V291.072H53.1856ZM53.1856 306V293.04H56.0776V306H53.1856ZM67.2682 306C66.4122 306.16 65.5722 306.228 64.7482 306.204C63.9322 306.188 63.2002 306.04 62.5522 305.76C61.9042 305.472 61.4122 305.02 61.0762 304.404C60.7802 303.844 60.6242 303.272 60.6082 302.688C60.5922 302.104 60.5842 301.444 60.5842 300.708V289.44H63.4642V300.54C63.4642 301.06 63.4682 301.516 63.4762 301.908C63.4922 302.3 63.5762 302.62 63.7282 302.868C64.0162 303.348 64.4762 303.616 65.1082 303.672C65.7402 303.728 66.4602 303.696 67.2682 303.576V306ZM58.2322 295.308V293.04H67.2682V295.308H58.2322ZM79.019 306V299.76C79.019 299.352 78.991 298.9 78.935 298.404C78.879 297.908 78.747 297.432 78.539 296.976C78.339 296.512 78.035 296.132 77.627 295.836C77.227 295.54 76.683 295.392 75.995 295.392C75.627 295.392 75.263 295.452 74.903 295.572C74.543 295.692 74.215 295.9 73.919 296.196C73.631 296.484 73.399 296.884 73.223 297.396C73.047 297.9 72.959 298.548 72.959 299.34L71.243 298.608C71.243 297.504 71.455 296.504 71.879 295.608C72.311 294.712 72.943 294 73.775 293.472C74.607 292.936 75.631 292.668 76.847 292.668C77.807 292.668 78.599 292.828 79.223 293.148C79.847 293.468 80.343 293.876 80.711 294.372C81.079 294.868 81.351 295.396 81.527 295.956C81.703 296.516 81.815 297.048 81.863 297.552C81.919 298.048 81.947 298.452 81.947 298.764V306H79.019ZM70.031 306V288.72H72.611V297.816H72.959V306H70.031ZM95.5111 306.36C94.1751 306.36 93.0351 306.064 92.0911 305.472C91.1471 304.872 90.4231 304.056 89.9191 303.024C89.4231 301.992 89.1711 300.824 89.1631 299.52C89.1711 298.192 89.4311 297.016 89.9431 295.992C90.4631 294.96 91.1991 294.152 92.1511 293.568C93.1031 292.976 94.2351 292.68 95.5471 292.68C97.0191 292.68 98.2631 293.052 99.2791 293.796C100.303 294.532 100.971 295.54 101.283 296.82L98.4031 297.6C98.1791 296.904 97.8071 296.364 97.2871 295.98C96.7671 295.588 96.1751 295.392 95.5111 295.392C94.7591 295.392 94.1391 295.572 93.6511 295.932C93.1631 296.284 92.8031 296.772 92.5711 297.396C92.3391 298.02 92.2231 298.728 92.2231 299.52C92.2231 300.752 92.4991 301.748 93.0511 302.508C93.6031 303.268 94.4231 303.648 95.5111 303.648C96.2791 303.648 96.8831 303.472 97.3231 303.12C97.7711 302.768 98.1071 302.26 98.3311 301.596L101.283 302.256C100.883 303.576 100.183 304.592 99.1831 305.304C98.1831 306.008 96.9591 306.36 95.5111 306.36ZM112.652 306V299.76C112.652 299.352 112.624 298.9 112.568 298.404C112.512 297.908 112.38 297.432 112.172 296.976C111.972 296.512 111.668 296.132 111.26 295.836C110.86 295.54 110.316 295.392 109.628 295.392C109.26 295.392 108.896 295.452 108.536 295.572C108.176 295.692 107.848 295.9 107.552 296.196C107.264 296.484 107.032 296.884 106.856 297.396C106.68 297.9 106.592 298.548 106.592 299.34L104.876 298.608C104.876 297.504 105.088 296.504 105.512 295.608C105.944 294.712 106.576 294 107.408 293.472C108.24 292.936 109.264 292.668 110.48 292.668C111.44 292.668 112.232 292.828 112.856 293.148C113.48 293.468 113.976 293.876 114.344 294.372C114.712 294.868 114.984 295.396 115.16 295.956C115.336 296.516 115.448 297.048 115.496 297.552C115.552 298.048 115.58 298.452 115.58 298.764V306H112.652ZM103.664 306V288.72H106.244V297.816H106.592V306H103.664ZM122.335 306.36C121.399 306.36 120.607 306.184 119.959 305.832C119.311 305.472 118.819 304.996 118.483 304.404C118.155 303.812 117.991 303.16 117.991 302.448C117.991 301.824 118.095 301.264 118.303 300.768C118.511 300.264 118.831 299.832 119.263 299.472C119.695 299.104 120.255 298.804 120.943 298.572C121.463 298.404 122.071 298.252 122.767 298.116C123.471 297.98 124.231 297.856 125.047 297.744C125.871 297.624 126.731 297.496 127.627 297.36L126.595 297.948C126.603 297.052 126.403 296.392 125.995 295.968C125.587 295.544 124.899 295.332 123.931 295.332C123.347 295.332 122.783 295.468 122.239 295.74C121.695 296.012 121.315 296.48 121.099 297.144L118.459 296.316C118.779 295.22 119.387 294.34 120.283 293.676C121.187 293.012 122.403 292.68 123.931 292.68C125.083 292.68 126.095 292.868 126.967 293.244C127.847 293.62 128.499 294.236 128.923 295.092C129.155 295.548 129.295 296.016 129.343 296.496C129.391 296.968 129.415 297.484 129.415 298.044V306H126.883V303.192L127.303 303.648C126.719 304.584 126.035 305.272 125.251 305.712C124.475 306.144 123.503 306.36 122.335 306.36ZM122.911 304.056C123.567 304.056 124.127 303.94 124.591 303.708C125.055 303.476 125.423 303.192 125.695 302.856C125.975 302.52 126.163 302.204 126.259 301.908C126.411 301.54 126.495 301.12 126.511 300.648C126.535 300.168 126.547 299.78 126.547 299.484L127.435 299.748C126.563 299.884 125.815 300.004 125.191 300.108C124.567 300.212 124.031 300.312 123.583 300.408C123.135 300.496 122.739 300.596 122.395 300.708C122.059 300.828 121.775 300.968 121.543 301.128C121.311 301.288 121.131 301.472 121.003 301.68C120.883 301.888 120.823 302.132 120.823 302.412C120.823 302.732 120.903 303.016 121.063 303.264C121.223 303.504 121.455 303.696 121.759 303.84C122.071 303.984 122.455 304.056 122.911 304.056ZM140.135 306C139.279 306.16 138.439 306.228 137.615 306.204C136.799 306.188 136.067 306.04 135.419 305.76C134.771 305.472 134.279 305.02 133.943 304.404C133.647 303.844 133.491 303.272 133.475 302.688C133.459 302.104 133.451 301.444 133.451 300.708V289.44H136.331V300.54C136.331 301.06 136.335 301.516 136.343 301.908C136.359 302.3 136.443 302.62 136.595 302.868C136.883 303.348 137.343 303.616 137.975 303.672C138.607 303.728 139.327 303.696 140.135 303.576V306ZM131.099 295.308V293.04H140.135V295.308H131.099ZM142.682 309.06L142.85 307.812C143.218 307.844 143.51 307.78 143.726 307.62C143.942 307.468 144.086 307.248 144.158 306.96C144.238 306.68 144.258 306.36 144.218 306H142.682V302.916H145.646V306.12C145.646 307.168 145.398 307.96 144.902 308.496C144.406 309.032 143.666 309.22 142.682 309.06ZM158.52 306L153.816 293.04H156.708L159.972 302.436L163.224 293.04H166.128L161.424 306H158.52ZM173.537 306.36C172.241 306.36 171.109 306.068 170.141 305.484C169.173 304.9 168.421 304.096 167.885 303.072C167.357 302.04 167.093 300.856 167.093 299.52C167.093 298.16 167.365 296.968 167.909 295.944C168.453 294.92 169.209 294.12 170.177 293.544C171.145 292.968 172.265 292.68 173.537 292.68C174.841 292.68 175.977 292.972 176.945 293.556C177.913 294.14 178.665 294.948 179.201 295.98C179.737 297.004 180.005 298.184 180.005 299.52C180.005 300.864 179.733 302.052 179.189 303.084C178.653 304.108 177.901 304.912 176.933 305.496C175.965 306.072 174.833 306.36 173.537 306.36ZM173.537 303.648C174.689 303.648 175.545 303.264 176.105 302.496C176.665 301.728 176.945 300.736 176.945 299.52C176.945 298.264 176.661 297.264 176.093 296.52C175.525 295.768 174.673 295.392 173.537 295.392C172.761 295.392 172.121 295.568 171.617 295.92C171.121 296.264 170.753 296.748 170.513 297.372C170.273 297.988 170.153 298.704 170.153 299.52C170.153 300.776 170.437 301.78 171.005 302.532C171.581 303.276 172.425 303.648 173.537 303.648ZM182.889 291.072V288.42H185.781V291.072H182.889ZM182.889 306V293.04H185.781V306H182.889ZM195.003 306.36C193.667 306.36 192.527 306.064 191.583 305.472C190.639 304.872 189.915 304.056 189.411 303.024C188.915 301.992 188.663 300.824 188.655 299.52C188.663 298.192 188.923 297.016 189.435 295.992C189.955 294.96 190.691 294.152 191.643 293.568C192.595 292.976 193.727 292.68 195.039 292.68C196.511 292.68 197.755 293.052 198.771 293.796C199.795 294.532 200.463 295.54 200.775 296.82L197.895 297.6C197.671 296.904 197.299 296.364 196.779 295.98C196.259 295.588 195.667 295.392 195.003 295.392C194.251 295.392 193.631 295.572 193.143 295.932C192.655 296.284 192.295 296.772 192.063 297.396C191.831 298.02 191.715 298.728 191.715 299.52C191.715 300.752 191.991 301.748 192.543 302.508C193.095 303.268 193.915 303.648 195.003 303.648C195.771 303.648 196.375 303.472 196.815 303.12C197.263 302.768 197.599 302.26 197.823 301.596L200.775 302.256C200.375 303.576 199.675 304.592 198.675 305.304C197.675 306.008 196.451 306.36 195.003 306.36ZM208.72 306.36C207.408 306.36 206.256 306.076 205.264 305.508C204.272 304.94 203.496 304.152 202.936 303.144C202.384 302.136 202.108 300.976 202.108 299.664C202.108 298.248 202.38 297.02 202.924 295.98C203.468 294.932 204.224 294.12 205.192 293.544C206.16 292.968 207.28 292.68 208.552 292.68C209.896 292.68 211.036 292.996 211.972 293.628C212.916 294.252 213.616 295.136 214.072 296.28C214.528 297.424 214.7 298.772 214.588 300.324H211.72V299.268C211.712 297.86 211.464 296.832 210.976 296.184C210.488 295.536 209.72 295.212 208.672 295.212C207.488 295.212 206.608 295.58 206.032 296.316C205.456 297.044 205.168 298.112 205.168 299.52C205.168 300.832 205.456 301.848 206.032 302.568C206.608 303.288 207.448 303.648 208.552 303.648C209.264 303.648 209.876 303.492 210.388 303.18C210.908 302.86 211.308 302.4 211.588 301.8L214.444 302.664C213.948 303.832 213.18 304.74 212.14 305.388C211.108 306.036 209.968 306.36 208.72 306.36ZM204.256 300.324V298.14H213.172V300.324H204.256ZM216.557 309.06L216.725 307.812C217.093 307.844 217.385 307.78 217.601 307.62C217.817 307.468 217.961 307.248 218.033 306.96C218.113 306.68 218.133 306.36 218.093 306H216.557V302.916H219.521V306.12C219.521 307.168 219.273 307.96 218.777 308.496C218.281 309.032 217.541 309.22 216.557 309.06ZM232.515 306.36C231.579 306.36 230.787 306.184 230.139 305.832C229.491 305.472 228.999 304.996 228.663 304.404C228.335 303.812 228.171 303.16 228.171 302.448C228.171 301.824 228.275 301.264 228.483 300.768C228.691 300.264 229.011 299.832 229.443 299.472C229.875 299.104 230.435 298.804 231.123 298.572C231.643 298.404 232.251 298.252 232.947 298.116C233.651 297.98 234.411 297.856 235.227 297.744C236.051 297.624 236.911 297.496 237.807 297.36L236.775 297.948C236.783 297.052 236.583 296.392 236.175 295.968C235.767 295.544 235.079 295.332 234.111 295.332C233.527 295.332 232.963 295.468 232.419 295.74C231.875 296.012 231.495 296.48 231.279 297.144L228.639 296.316C228.959 295.22 229.567 294.34 230.463 293.676C231.367 293.012 232.583 292.68 234.111 292.68C235.263 292.68 236.275 292.868 237.147 293.244C238.027 293.62 238.679 294.236 239.103 295.092C239.335 295.548 239.475 296.016 239.523 296.496C239.571 296.968 239.595 297.484 239.595 298.044V306H237.063V303.192L237.483 303.648C236.899 304.584 236.215 305.272 235.431 305.712C234.655 306.144 233.683 306.36 232.515 306.36ZM233.091 304.056C233.747 304.056 234.307 303.94 234.771 303.708C235.235 303.476 235.603 303.192 235.875 302.856C236.155 302.52 236.343 302.204 236.439 301.908C236.591 301.54 236.675 301.12 236.691 300.648C236.715 300.168 236.727 299.78 236.727 299.484L237.615 299.748C236.743 299.884 235.995 300.004 235.371 300.108C234.747 300.212 234.211 300.312 233.763 300.408C233.315 300.496 232.919 300.596 232.575 300.708C232.239 300.828 231.955 300.968 231.723 301.128C231.491 301.288 231.311 301.472 231.183 301.68C231.063 301.888 231.003 302.132 231.003 302.412C231.003 302.732 231.083 303.016 231.243 303.264C231.403 303.504 231.635 303.696 231.939 303.84C232.251 303.984 232.635 304.056 233.091 304.056ZM251.683 306V299.76C251.683 299.352 251.655 298.9 251.599 298.404C251.543 297.908 251.411 297.432 251.203 296.976C251.003 296.512 250.699 296.132 250.291 295.836C249.891 295.54 249.347 295.392 248.659 295.392C248.291 295.392 247.927 295.452 247.567 295.572C247.207 295.692 246.879 295.9 246.583 296.196C246.295 296.484 246.063 296.884 245.887 297.396C245.711 297.9 245.623 298.548 245.623 299.34L243.907 298.608C243.907 297.504 244.119 296.504 244.543 295.608C244.975 294.712 245.607 294 246.439 293.472C247.271 292.936 248.295 292.668 249.511 292.668C250.471 292.668 251.263 292.828 251.887 293.148C252.511 293.468 253.007 293.876 253.375 294.372C253.743 294.868 254.015 295.396 254.191 295.956C254.367 296.516 254.479 297.048 254.527 297.552C254.583 298.048 254.611 298.452 254.611 298.764V306H251.683ZM242.695 306V293.04H245.275V297.06H245.623V306H242.695ZM262.728 306.36C261.536 306.36 260.496 306.06 259.608 305.46C258.72 304.86 258.032 304.044 257.544 303.012C257.056 301.98 256.812 300.816 256.812 299.52C256.812 298.208 257.056 297.04 257.544 296.016C258.04 294.984 258.74 294.172 259.644 293.58C260.548 292.98 261.612 292.68 262.836 292.68C264.068 292.68 265.1 292.98 265.932 293.58C266.772 294.172 267.408 294.984 267.84 296.016C268.272 297.048 268.488 298.216 268.488 299.52C268.488 300.808 268.272 301.972 267.84 303.012C267.408 304.044 266.764 304.86 265.908 305.46C265.052 306.06 263.992 306.36 262.728 306.36ZM263.172 303.768C263.948 303.768 264.572 303.592 265.044 303.24C265.524 302.88 265.872 302.38 266.088 301.74C266.312 301.1 266.424 300.36 266.424 299.52C266.424 298.672 266.312 297.932 266.088 297.3C265.872 296.66 265.532 296.164 265.068 295.812C264.604 295.452 264.004 295.272 263.268 295.272C262.492 295.272 261.852 295.464 261.348 295.848C260.844 296.224 260.472 296.736 260.232 297.384C259.992 298.024 259.872 298.736 259.872 299.52C259.872 300.312 259.988 301.032 260.22 301.68C260.46 302.32 260.824 302.828 261.312 303.204C261.8 303.58 262.42 303.768 263.172 303.768ZM266.424 306V296.904H266.064V288.72H268.98V306H266.424ZM292.713 306V298.128C292.713 297.24 292.493 296.548 292.053 296.052C291.613 295.548 291.017 295.296 290.265 295.296C289.801 295.296 289.385 295.404 289.017 295.62C288.649 295.828 288.357 296.14 288.141 296.556C287.925 296.964 287.817 297.452 287.817 298.02L286.533 297.264C286.525 296.368 286.725 295.58 287.133 294.9C287.549 294.212 288.109 293.676 288.813 293.292C289.517 292.908 290.301 292.716 291.165 292.716C292.597 292.716 293.693 293.148 294.453 294.012C295.221 294.868 295.605 295.996 295.605 297.396V306H292.713ZM277.125 306V293.04H279.681V297.06H280.041V306H277.125ZM284.937 306V298.164C284.937 297.26 284.717 296.556 284.277 296.052C283.837 295.548 283.237 295.296 282.477 295.296C281.741 295.296 281.149 295.548 280.701 296.052C280.261 296.556 280.041 297.212 280.041 298.02L278.745 297.156C278.745 296.316 278.953 295.56 279.369 294.888C279.785 294.216 280.345 293.688 281.049 293.304C281.761 292.912 282.557 292.716 283.437 292.716C284.405 292.716 285.213 292.924 285.861 293.34C286.517 293.748 287.005 294.308 287.325 295.02C287.653 295.724 287.817 296.52 287.817 297.408V306H284.937ZM304.248 306.36C302.952 306.36 301.82 306.068 300.852 305.484C299.884 304.9 299.132 304.096 298.596 303.072C298.068 302.04 297.804 300.856 297.804 299.52C297.804 298.16 298.076 296.968 298.62 295.944C299.164 294.92 299.92 294.12 300.888 293.544C301.856 292.968 302.976 292.68 304.248 292.68C305.552 292.68 306.688 292.972 307.656 293.556C308.624 294.14 309.376 294.948 309.912 295.98C310.448 297.004 310.716 298.184 310.716 299.52C310.716 300.864 310.444 302.052 309.9 303.084C309.364 304.108 308.612 304.912 307.644 305.496C306.676 306.072 305.544 306.36 304.248 306.36ZM304.248 303.648C305.4 303.648 306.256 303.264 306.816 302.496C307.376 301.728 307.656 300.736 307.656 299.52C307.656 298.264 307.372 297.264 306.804 296.52C306.236 295.768 305.384 295.392 304.248 295.392C303.472 295.392 302.832 295.568 302.328 295.92C301.832 296.264 301.464 296.748 301.224 297.372C300.984 297.988 300.864 298.704 300.864 299.52C300.864 300.776 301.148 301.78 301.716 302.532C302.292 303.276 303.136 303.648 304.248 303.648ZM313.36 306V293.04H315.916V296.196L315.604 295.788C315.764 295.356 315.976 294.964 316.24 294.612C316.512 294.252 316.836 293.956 317.212 293.724C317.532 293.508 317.884 293.34 318.268 293.22C318.66 293.092 319.06 293.016 319.468 292.992C319.876 292.96 320.272 292.976 320.656 293.04V295.74C320.272 295.628 319.828 295.592 319.324 295.632C318.828 295.672 318.38 295.812 317.98 296.052C317.58 296.268 317.252 296.544 316.996 296.88C316.748 297.216 316.564 297.6 316.444 298.032C316.324 298.456 316.264 298.916 316.264 299.412V306H313.36ZM328.603 306.36C327.291 306.36 326.139 306.076 325.147 305.508C324.155 304.94 323.379 304.152 322.819 303.144C322.267 302.136 321.991 300.976 321.991 299.664C321.991 298.248 322.263 297.02 322.807 295.98C323.351 294.932 324.107 294.12 325.075 293.544C326.043 292.968 327.163 292.68 328.435 292.68C329.779 292.68 330.919 292.996 331.855 293.628C332.799 294.252 333.499 295.136 333.955 296.28C334.411 297.424 334.583 298.772 334.471 300.324H331.603V299.268C331.595 297.86 331.347 296.832 330.859 296.184C330.371 295.536 329.603 295.212 328.555 295.212C327.371 295.212 326.491 295.58 325.915 296.316C325.339 297.044 325.051 298.112 325.051 299.52C325.051 300.832 325.339 301.848 325.915 302.568C326.491 303.288 327.331 303.648 328.435 303.648C329.147 303.648 329.759 303.492 330.271 303.18C330.791 302.86 331.191 302.4 331.471 301.8L334.327 302.664C333.831 303.832 333.063 304.74 332.023 305.388C330.991 306.036 329.851 306.36 328.603 306.36ZM324.139 300.324V298.14H333.055V300.324H324.139ZM337.16 306V303.036H340.124V306H337.16Z" fill="white"/>
<rect x="32" y="328" width="332" height="46" rx="23" fill="white"/>
<path d="M113.12 357.24C112.315 357.24 111.589 357.107 110.944 356.84C110.304 356.568 109.773 356.184 109.352 355.688C108.936 355.192 108.664 354.603 108.536 353.92L109.736 353.72C109.928 354.467 110.333 355.053 110.952 355.48C111.571 355.901 112.309 356.112 113.168 356.112C113.733 356.112 114.24 356.024 114.688 355.848C115.136 355.667 115.488 355.411 115.744 355.08C116 354.749 116.128 354.357 116.128 353.904C116.128 353.605 116.075 353.352 115.968 353.144C115.861 352.931 115.72 352.755 115.544 352.616C115.368 352.477 115.176 352.363 114.968 352.272C114.76 352.176 114.557 352.099 114.36 352.04L111.44 351.168C111.088 351.067 110.763 350.939 110.464 350.784C110.165 350.624 109.904 350.435 109.68 350.216C109.461 349.992 109.291 349.731 109.168 349.432C109.045 349.133 108.984 348.792 108.984 348.408C108.984 347.757 109.155 347.195 109.496 346.72C109.837 346.245 110.304 345.88 110.896 345.624C111.488 345.368 112.163 345.243 112.92 345.248C113.688 345.248 114.373 345.384 114.976 345.656C115.584 345.928 116.085 346.317 116.48 346.824C116.875 347.325 117.136 347.92 117.264 348.608L116.032 348.832C115.952 348.331 115.768 347.896 115.48 347.528C115.192 347.16 114.824 346.877 114.376 346.68C113.933 346.477 113.445 346.373 112.912 346.368C112.395 346.368 111.933 346.456 111.528 346.632C111.128 346.803 110.811 347.037 110.576 347.336C110.341 347.635 110.224 347.976 110.224 348.36C110.224 348.749 110.331 349.061 110.544 349.296C110.763 349.531 111.029 349.715 111.344 349.848C111.664 349.981 111.973 350.091 112.272 350.176L114.528 350.84C114.763 350.904 115.037 350.997 115.352 351.12C115.672 351.237 115.981 351.408 116.28 351.632C116.584 351.851 116.835 352.139 117.032 352.496C117.229 352.853 117.328 353.307 117.328 353.856C117.328 354.389 117.221 354.867 117.008 355.288C116.8 355.709 116.504 356.064 116.12 356.352C115.741 356.64 115.296 356.859 114.784 357.008C114.277 357.163 113.723 357.24 113.12 357.24ZM123.683 357C123.198 357.101 122.718 357.141 122.243 357.12C121.774 357.099 121.353 356.997 120.979 356.816C120.611 356.635 120.331 356.352 120.139 355.968C119.985 355.648 119.899 355.325 119.883 355C119.873 354.669 119.867 354.293 119.867 353.872V345.96H121.035V353.824C121.035 354.187 121.038 354.491 121.043 354.736C121.054 354.976 121.11 355.189 121.211 355.376C121.403 355.733 121.707 355.947 122.123 356.016C122.545 356.085 123.065 356.069 123.683 355.968V357ZM118.019 349.368V348.36H123.683V349.368H118.019ZM127.858 357.24C127.207 357.24 126.66 357.123 126.218 356.888C125.78 356.653 125.452 356.341 125.234 355.952C125.015 355.563 124.906 355.139 124.906 354.68C124.906 354.211 124.999 353.811 125.186 353.48C125.378 353.144 125.636 352.869 125.962 352.656C126.292 352.443 126.674 352.28 127.106 352.168C127.543 352.061 128.026 351.968 128.554 351.888C129.087 351.803 129.607 351.731 130.114 351.672C130.626 351.608 131.074 351.547 131.458 351.488L131.042 351.744C131.058 350.891 130.892 350.259 130.546 349.848C130.199 349.437 129.596 349.232 128.738 349.232C128.146 349.232 127.644 349.365 127.234 349.632C126.828 349.899 126.543 350.32 126.378 350.896L125.234 350.56C125.431 349.787 125.828 349.187 126.426 348.76C127.023 348.333 127.799 348.12 128.754 348.12C129.543 348.12 130.212 348.269 130.762 348.568C131.316 348.861 131.708 349.288 131.938 349.848C132.044 350.099 132.114 350.379 132.146 350.688C132.178 350.997 132.194 351.312 132.194 351.632V357H131.146V354.832L131.45 354.96C131.156 355.701 130.7 356.267 130.082 356.656C129.463 357.045 128.722 357.24 127.858 357.24ZM127.994 356.224C128.543 356.224 129.023 356.125 129.434 355.928C129.844 355.731 130.175 355.461 130.426 355.12C130.676 354.773 130.839 354.384 130.914 353.952C130.978 353.675 131.012 353.371 131.018 353.04C131.023 352.704 131.026 352.453 131.026 352.288L131.474 352.52C131.074 352.573 130.639 352.627 130.17 352.68C129.706 352.733 129.247 352.795 128.794 352.864C128.346 352.933 127.94 353.016 127.578 353.112C127.332 353.181 127.095 353.28 126.866 353.408C126.636 353.531 126.447 353.696 126.298 353.904C126.154 354.112 126.082 354.371 126.082 354.68C126.082 354.931 126.143 355.173 126.266 355.408C126.394 355.643 126.596 355.837 126.874 355.992C127.156 356.147 127.53 356.224 127.994 356.224ZM134.276 357V348.36H135.332V350.44L135.124 350.168C135.22 349.912 135.346 349.677 135.5 349.464C135.655 349.245 135.823 349.067 136.004 348.928C136.228 348.731 136.49 348.581 136.788 348.48C137.087 348.373 137.388 348.312 137.692 348.296C137.996 348.275 138.274 348.296 138.524 348.36V349.464C138.21 349.384 137.866 349.365 137.492 349.408C137.119 349.451 136.775 349.6 136.46 349.856C136.172 350.08 135.956 350.349 135.812 350.664C135.668 350.973 135.572 351.304 135.524 351.656C135.476 352.003 135.452 352.347 135.452 352.688V357H134.276ZM144.746 357C144.261 357.101 143.781 357.141 143.306 357.12C142.837 357.099 142.415 356.997 142.042 356.816C141.674 356.635 141.394 356.352 141.202 355.968C141.047 355.648 140.962 355.325 140.946 355C140.935 354.669 140.93 354.293 140.93 353.872V345.96H142.098V353.824C142.098 354.187 142.101 354.491 142.106 354.736C142.117 354.976 142.173 355.189 142.274 355.376C142.466 355.733 142.77 355.947 143.186 356.016C143.607 356.085 144.127 356.069 144.746 355.968V357ZM139.082 349.368V348.36H144.746V349.368H139.082ZM150.883 360.84L152.555 356.304L152.579 357.648L148.795 348.36H150.043L153.147 356.128H152.635L155.499 348.36H156.699L152.059 360.84H150.883ZM161.384 357.24C160.526 357.24 159.792 357.045 159.184 356.656C158.576 356.267 158.11 355.728 157.784 355.04C157.459 354.352 157.296 353.563 157.296 352.672C157.296 351.765 157.462 350.971 157.792 350.288C158.123 349.605 158.592 349.075 159.2 348.696C159.814 348.312 160.542 348.12 161.384 348.12C162.248 348.12 162.984 348.315 163.592 348.704C164.206 349.088 164.672 349.624 164.992 350.312C165.318 350.995 165.48 351.781 165.48 352.672C165.48 353.579 165.318 354.376 164.992 355.064C164.667 355.747 164.198 356.28 163.584 356.664C162.971 357.048 162.238 357.24 161.384 357.24ZM161.384 356.112C162.344 356.112 163.059 355.795 163.528 355.16C163.998 354.52 164.232 353.691 164.232 352.672C164.232 351.627 163.995 350.795 163.52 350.176C163.051 349.557 162.339 349.248 161.384 349.248C160.739 349.248 160.206 349.395 159.784 349.688C159.368 349.976 159.056 350.379 158.848 350.896C158.646 351.408 158.544 352 158.544 352.672C158.544 353.712 158.784 354.547 159.264 355.176C159.744 355.8 160.451 356.112 161.384 356.112ZM170.549 357.216C170.032 357.216 169.578 357.136 169.189 356.976C168.805 356.816 168.477 356.6 168.205 356.328C167.938 356.056 167.722 355.747 167.557 355.4C167.392 355.048 167.272 354.677 167.197 354.288C167.122 353.893 167.085 353.501 167.085 353.112V348.36H168.269V352.768C168.269 353.243 168.314 353.683 168.405 354.088C168.496 354.493 168.64 354.848 168.837 355.152C169.04 355.451 169.298 355.683 169.613 355.848C169.933 356.013 170.32 356.096 170.773 356.096C171.189 356.096 171.554 356.024 171.869 355.88C172.189 355.736 172.456 355.531 172.669 355.264C172.888 354.992 173.053 354.664 173.165 354.28C173.277 353.891 173.333 353.453 173.333 352.968L174.165 353.152C174.165 354.037 174.01 354.781 173.701 355.384C173.392 355.987 172.965 356.443 172.421 356.752C171.877 357.061 171.253 357.216 170.549 357.216ZM173.453 357V354.872H173.333V348.36H174.509V357H173.453ZM176.745 357V348.36H177.801V350.44L177.593 350.168C177.689 349.912 177.814 349.677 177.969 349.464C178.124 349.245 178.292 349.067 178.473 348.928C178.697 348.731 178.958 348.581 179.257 348.48C179.556 348.373 179.857 348.312 180.161 348.296C180.465 348.275 180.742 348.296 180.993 348.36V349.464C180.678 349.384 180.334 349.365 179.961 349.408C179.588 349.451 179.244 349.6 178.929 349.856C178.641 350.08 178.425 350.349 178.281 350.664C178.137 350.973 178.041 351.304 177.993 351.656C177.945 352.003 177.921 352.347 177.921 352.688V357H176.745ZM184.914 357L188.882 345.48H190.442L194.41 357H193.186L189.418 346.136H189.882L186.138 357H184.914ZM186.682 354.208V353.104H192.634V354.208H186.682ZM196.014 357V345.48H197.19V357H196.014ZM201.512 360.84V359.704H202C202.389 359.704 202.699 359.603 202.928 359.4C203.163 359.203 203.28 358.869 203.28 358.4V348.36H204.448V358.696C204.448 359.416 204.275 359.952 203.928 360.304C203.587 360.661 203.061 360.84 202.352 360.84H201.512ZM203.28 346.72V345.4H204.448V346.72H203.28ZM210.416 357.24C209.557 357.24 208.824 357.045 208.216 356.656C207.608 356.267 207.141 355.728 206.816 355.04C206.49 354.352 206.328 353.563 206.328 352.672C206.328 351.765 206.493 350.971 206.824 350.288C207.154 349.605 207.624 349.075 208.232 348.696C208.845 348.312 209.573 348.12 210.416 348.12C211.28 348.12 212.016 348.315 212.624 348.704C213.237 349.088 213.704 349.624 214.024 350.312C214.349 350.995 214.512 351.781 214.512 352.672C214.512 353.579 214.349 354.376 214.024 355.064C213.698 355.747 213.229 356.28 212.616 356.664C212.002 357.048 211.269 357.24 210.416 357.24ZM210.416 356.112C211.376 356.112 212.09 355.795 212.56 355.16C213.029 354.52 213.264 353.691 213.264 352.672C213.264 351.627 213.026 350.795 212.552 350.176C212.082 349.557 211.37 349.248 210.416 349.248C209.77 349.248 209.237 349.395 208.816 349.688C208.4 349.976 208.088 350.379 207.88 350.896C207.677 351.408 207.576 352 207.576 352.672C207.576 353.712 207.816 354.547 208.296 355.176C208.776 355.8 209.482 356.112 210.416 356.112ZM219.58 357.216C219.063 357.216 218.61 357.136 218.22 356.976C217.836 356.816 217.508 356.6 217.236 356.328C216.97 356.056 216.754 355.747 216.588 355.4C216.423 355.048 216.303 354.677 216.228 354.288C216.154 353.893 216.116 353.501 216.116 353.112V348.36H217.3V352.768C217.3 353.243 217.346 353.683 217.436 354.088C217.527 354.493 217.671 354.848 217.868 355.152C218.071 355.451 218.33 355.683 218.644 355.848C218.964 356.013 219.351 356.096 219.804 356.096C220.22 356.096 220.586 356.024 220.9 355.88C221.22 355.736 221.487 355.531 221.7 355.264C221.919 354.992 222.084 354.664 222.196 354.28C222.308 353.891 222.364 353.453 222.364 352.968L223.196 353.152C223.196 354.037 223.042 354.781 222.732 355.384C222.423 355.987 221.996 356.443 221.452 356.752C220.908 357.061 220.284 357.216 219.58 357.216ZM222.484 357V354.872H222.364V348.36H223.54V357H222.484ZM225.776 357V348.36H226.832V350.44L226.624 350.168C226.72 349.912 226.846 349.677 227 349.464C227.155 349.245 227.323 349.067 227.504 348.928C227.728 348.731 227.99 348.581 228.288 348.48C228.587 348.373 228.888 348.312 229.192 348.296C229.496 348.275 229.774 348.296 230.024 348.36V349.464C229.71 349.384 229.366 349.365 228.992 349.408C228.619 349.451 228.275 349.6 227.96 349.856C227.672 350.08 227.456 350.349 227.312 350.664C227.168 350.973 227.072 351.304 227.024 351.656C226.976 352.003 226.952 352.347 226.952 352.688V357H225.776ZM237.782 357V352.592C237.782 352.112 237.737 351.672 237.646 351.272C237.555 350.867 237.409 350.515 237.206 350.216C237.009 349.912 236.75 349.677 236.43 349.512C236.115 349.347 235.731 349.264 235.278 349.264C234.862 349.264 234.494 349.336 234.174 349.48C233.859 349.624 233.593 349.832 233.374 350.104C233.161 350.371 232.998 350.696 232.886 351.08C232.774 351.464 232.718 351.901 232.718 352.392L231.886 352.208C231.886 351.323 232.041 350.579 232.35 349.976C232.659 349.373 233.086 348.917 233.63 348.608C234.174 348.299 234.798 348.144 235.502 348.144C236.019 348.144 236.47 348.224 236.854 348.384C237.243 348.544 237.571 348.76 237.838 349.032C238.11 349.304 238.329 349.616 238.494 349.968C238.659 350.315 238.779 350.685 238.854 351.08C238.929 351.469 238.966 351.859 238.966 352.248V357H237.782ZM231.534 357V348.36H232.598V350.488H232.718V357H231.534ZM244.651 357.24C243.808 357.24 243.078 357.053 242.459 356.68C241.846 356.307 241.368 355.781 241.027 355.104C240.686 354.427 240.515 353.632 240.515 352.72C240.515 351.776 240.683 350.96 241.019 350.272C241.355 349.584 241.827 349.053 242.435 348.68C243.048 348.307 243.771 348.12 244.603 348.12C245.456 348.12 246.184 348.317 246.787 348.712C247.39 349.101 247.846 349.661 248.155 350.392C248.464 351.123 248.606 351.995 248.579 353.008H247.379V352.592C247.358 351.472 247.115 350.627 246.651 350.056C246.192 349.485 245.52 349.2 244.635 349.2C243.707 349.2 242.995 349.501 242.499 350.104C242.008 350.707 241.763 351.565 241.763 352.68C241.763 353.768 242.008 354.613 242.499 355.216C242.995 355.813 243.696 356.112 244.603 356.112C245.222 356.112 245.76 355.971 246.219 355.688C246.683 355.4 247.048 354.987 247.315 354.448L248.411 354.872C248.07 355.624 247.566 356.208 246.899 356.624C246.238 357.035 245.488 357.24 244.651 357.24ZM241.347 353.008V352.024H247.947V353.008H241.347ZM251.43 360.84L253.102 356.304L253.126 357.648L249.342 348.36H250.59L253.694 356.128H253.182L256.046 348.36H257.246L252.606 360.84H251.43Z" fill="black"/>
<g clip-path="url(#clip5_12688_58518)">
<path d="M270.584 351H283.417" stroke="black" stroke-width="1.5" stroke-linecap="round" stroke-linejoin="round"/>
<path d="M277.916 356.5L283.416 351" stroke="black" stroke-width="1.5" stroke-linecap="round" stroke-linejoin="round"/>
<path d="M277.916 345.5L283.416 351" stroke="black" stroke-width="1.5" stroke-linecap="round" stroke-linejoin="round"/>
</g>
<defs>
<filter id="filter0_n_12688_58518" x="32" y="32" width="332" height="204" filterUnits="userSpaceOnUse" color-interpolation-filters="sRGB">
<feFlood flood-opacity="0" result="BackgroundImageFix"/>
<feBlend mode="normal" in="SourceGraphic" in2="BackgroundImageFix" result="shape"/>
<feTurbulence type="fractalNoise" baseFrequency="1 1" stitchTiles="stitch" numOctaves="3" result="noise" seed="7131" />
<feColorMatrix in="noise" type="luminanceToAlpha" result="alphaNoise" />
<feComponentTransfer in="alphaNoise" result="coloredNoise1">
<feFuncA type="discrete" tableValues="1 1 1 1 1 1 1 1 1 1 1 1 1 1 1 1 1 1 1 1 1 1 1 1 1 1 1 1 1 1 1 1 1 1 1 1 1 1 1 1 1 1 1 1 1 1 1 1 1 1 1 0 0 0 0 0 0 0 0 0 0 0 0 0 0 0 0 0 0 0 0 0 0 0 0 0 0 0 0 0 0 0 0 0 0 0 0 0 0 0 0 0 0 0 0 0 0 0 0 0 "/>
</feComponentTransfer>
<feComposite operator="in" in2="shape" in="coloredNoise1" result="noise1Clipped" />
<feFlood flood-color="rgba(0, 0, 0, 0.02)" result="color1Flood" />
<feComposite operator="in" in2="noise1Clipped" in="color1Flood" result="color1" />
<feMerge result="effect1_noise_12688_58518">
<feMergeNode in="shape" />
<feMergeNode in="color1" />
</feMerge>
</filter>
<filter id="filter1_i_12688_58518" x="21" y="32" width="354.404" height="250.404" filterUnits="userSpaceOnUse" color-interpolation-filters="sRGB">
<feFlood flood-opacity="0" result="BackgroundImageFix"/>
<feBlend mode="normal" in="SourceGraphic" in2="BackgroundImageFix" result="shape"/>
<feColorMatrix in="SourceAlpha" type="matrix" values="0 0 0 0 0 0 0 0 0 0 0 0 0 0 0 0 0 0 127 0" result="hardAlpha"/>
<feOffset dx="1.40381" dy="1.40381"/>
<feGaussianBlur stdDeviation="0.701906"/>
<feComposite in2="hardAlpha" operator="arithmetic" k2="-1" k3="1"/>
<feColorMatrix type="matrix" values="0 0 0 0 1 0 0 0 0 1 0 0 0 0 1 0 0 0 0.12 0"/>
<feBlend mode="normal" in2="shape" result="effect1_innerShadow_12688_58518"/>
</filter>
<filter id="filter2_d_12688_58518" x="247.068" y="155.745" width="18.8328" height="21.6311" filterUnits="userSpaceOnUse" color-interpolation-filters="sRGB">
<feFlood flood-opacity="0" result="BackgroundImageFix"/>
<feColorMatrix in="SourceAlpha" type="matrix" values="0 0 0 0 0 0 0 0 0 0 0 0 0 0 0 0 0 0 127 0" result="hardAlpha"/>
<feOffset dy="0.799441"/>
<feGaussianBlur stdDeviation="1.19916"/>
<feColorMatrix type="matrix" values="0 0 0 0 0 0 0 0 0 0 0 0 0 0 0 0 0 0 0.35 0"/>
<feBlend mode="normal" in2="BackgroundImageFix" result="effect1_dropShadow_12688_58518"/>
<feBlend mode="normal" in="SourceGraphic" in2="effect1_dropShadow_12688_58518" result="shape"/>
</filter>
<linearGradient id="paint0_linear_12688_58518" x1="195.693" y1="-38.9685" x2="174.687" y2="248.868" gradientUnits="userSpaceOnUse">
<stop offset="0.179942" stop-color="#3B698D"/>
<stop offset="0.712807" stop-color="#9F8AD5"/>
</linearGradient>
<clipPath id="clip0_12688_58518">
<rect x="32" y="32" width="332" height="204" rx="4" fill="white"/>
</clipPath>
<clipPath id="clip1_12688_58518">
<rect width="353" height="249" fill="white" transform="translate(21 32)"/>
</clipPath>
<clipPath id="clip2_12688_58518">
<rect width="11.0597" height="11.0597" fill="white" transform="translate(40.2139 47.7656)"/>
</clipPath>
<clipPath id="clip3_12688_58518">
<rect width="9.896" height="9.896" fill="white" transform="translate(345.474 45.4731)"/>
</clipPath>
<clipPath id="clip4_12688_58518">
<rect width="85.5402" height="40.7715" fill="white" transform="translate(245.896 155.229)"/>
</clipPath>
<clipPath id="clip5_12688_58518">
<rect width="22" height="22" fill="white" transform="translate(266 340)"/>
</clipPath>
</defs>
</svg>
