<svg width="120" height="24" viewBox="0 0 120 24" fill="none" xmlns="http://www.w3.org/2000/svg">
<g id="Layer 1">
<g id="U">
<g id="Group">
<path id="Vector" d="M92.2043 19.033C92.4887 19.4337 92.8641 19.7568 93.2977 19.9741C93.7314 20.1914 94.2102 20.2962 94.6923 20.2796C95.1718 20.296 95.6477 20.1908 96.0783 19.9734C96.5089 19.756 96.8809 19.4331 97.1615 19.033C97.7688 18.202 98.0725 17.0669 98.0725 15.6279V5.70459H101.759V15.7564C101.759 18.361 101.098 20.3618 99.7745 21.7586C98.4515 23.1554 96.7574 23.8538 94.6923 23.8538C92.6284 23.8538 90.9309 23.1495 89.5999 21.741C88.2688 20.3324 87.6027 18.337 87.6016 15.7546V5.70459H91.2899V15.6279C91.2854 17.0646 91.5901 18.1996 92.2043 19.033Z" fill="white"/>
</g>
</g>
<g id="U_2">
<path id="Vector_2" d="M116.299 5.50195H120.58L114.416 14.3054L120.923 23.6371H116.471L112.19 17.2986L107.909 23.6371H103.457L116.299 5.50195Z" fill="white"/>
<path id="Vector_3" d="M103.971 5.50195H108.252L110.649 8.84727L108.423 12.0165L103.971 5.50195Z" fill="white"/>
</g>
<g id="Group_2">
<path id="Vector_4" d="M8.28083 6.81201V9.02872C8.09247 9.02872 7.90583 8.99527 7.7483 8.99527C4.31165 8.99527 2.22603 11.2454 2.22603 15.2299V23.8397H0V6.93702H2.125V10.2489C3.15583 8.00048 5.25001 6.81201 8.28083 6.81201Z" fill="white"/>
<path id="Vector_5" d="M24.8718 16.0966H11.1303C11.3803 19.6321 14.0053 21.9773 17.5995 21.9773C19.5978 21.9773 21.3803 21.2379 22.6303 19.7606L23.8786 21.2379C22.4112 23.0373 20.1303 24.0004 17.543 24.0004C12.4043 24.0004 8.9043 20.4033 8.9043 15.3906C8.9043 10.3779 12.3118 6.8125 16.9351 6.8125C21.5584 6.8125 24.9043 10.3145 24.9043 15.3906C24.9043 15.5825 24.8718 15.8466 24.8718 16.0966ZM11.1303 14.394H22.7742C22.4968 11.0927 20.1543 8.77215 16.9351 8.77215C13.7485 8.77215 11.4043 11.0927 11.1303 14.394Z" fill="white"/>
<path id="Vector_6" d="M27.8711 0H30.0886V23.8398H27.8711V0Z" fill="white"/>
<path id="Vector_7" d="M33.0586 15.3906C33.0586 10.3779 36.6202 6.8125 41.4319 6.8125C46.2435 6.8125 49.7761 10.3779 49.7761 15.3906C49.7761 20.4033 46.2453 24.0004 41.4319 24.0004C36.6185 24.0004 33.0586 20.4033 33.0586 15.3906ZM47.5261 15.3906C47.5261 11.4449 44.9319 8.80384 41.4387 8.80384C37.9456 8.80384 35.3086 11.4449 35.3086 15.3906C35.3086 19.3363 37.9336 21.9773 41.4319 21.9773C44.9302 21.9773 47.5261 19.3416 47.5261 15.3906Z" fill="white"/>
<path id="Vector_8" d="M65.054 13.3653V23.8397H62.929V21.1986C61.929 22.9329 59.9924 23.9929 57.2783 23.9929C53.5608 23.9929 51.2852 22.0015 51.2852 19.077C51.2852 16.4747 52.9084 14.2897 57.6208 14.2897H62.8417V13.2702C62.8417 10.3774 61.2424 8.80337 58.179 8.80337C56.054 8.80337 54.0557 9.57455 52.7115 10.7947L51.7115 9.09212C53.3674 7.64659 55.804 6.80322 58.3982 6.80322C62.6482 6.81203 65.054 8.99529 65.054 13.3653ZM62.828 18.7636V16.0011H57.679C54.4924 16.0011 53.4615 17.2846 53.4615 19.0207C53.4615 20.9803 54.9924 22.2005 57.6174 22.2005C60.1174 22.2005 61.9598 20.9803 62.8417 18.7636H62.828Z" fill="white"/>
<path id="Vector_9" d="M84.589 0V23.8398H82.4588V20.4945C81.1147 22.7834 78.8338 23.9965 76.1146 23.9965C71.428 23.9965 67.9297 20.4945 67.9297 15.3867C67.9297 10.2789 71.428 6.8086 76.1146 6.8086C78.7397 6.8086 80.9897 7.96537 82.3647 10.1539V0H84.589ZM82.3955 15.3902C82.3955 11.4445 79.7722 8.80346 76.303 8.80346C72.803 8.80346 70.178 11.4445 70.178 15.3902C70.178 19.3359 72.803 21.977 76.303 21.977C79.7722 21.977 82.3955 19.3412 82.3955 15.3902Z" fill="white"/>
</g>
</g>
</svg>
