<svg width="40" height="16" viewBox="0 0 40 16" fill="none" xmlns="http://www.w3.org/2000/svg">
<g id="Frame 1000007641">
<path id="Vector" d="M1.80148 15.3376C1.50248 15.2616 1.22418 15.1186 0.989586 14.918C0.766489 14.7197 0.596291 14.4684 0.497392 14.1894C0.380093 13.8412 0.324893 13.4746 0.334093 13.108C0.334093 13.0296 0.338693 12.9397 0.345593 12.8382C0.352493 12.7368 0.363993 12.6284 0.382393 12.5154C0.398493 12.4001 0.414592 12.2849 0.432992 12.1696C0.451392 12.052 0.469792 11.9482 0.490492 11.856L1.41278 7.24454H0.269694C0.230594 7.24685 0.191495 7.23993 0.156995 7.22609C0.122495 7.20995 0.0902957 7.1869 0.067296 7.15462C0.0143965 7.04855 -0.00860325 6.92866 0.00289663 6.81106C0.00519661 6.65197 0.0189965 6.49518 0.0396963 6.33839C0.064996 6.14471 0.104096 5.95333 0.159295 5.76657C0.207595 5.59595 0.283494 5.43224 0.382393 5.28467C0.414592 5.22472 0.462892 5.1763 0.520391 5.14172C0.577891 5.10713 0.64459 5.08638 0.711289 5.08407H1.84748L2.27067 2.97433C2.28447 2.90286 2.32127 2.83599 2.37187 2.78296C2.44087 2.71609 2.52367 2.66767 2.61567 2.64C2.75367 2.5962 2.89627 2.56622 3.03887 2.55469C3.21136 2.53625 3.42986 2.52933 3.69206 2.52933C3.90366 2.52702 4.11755 2.53625 4.32915 2.55469C4.46485 2.56392 4.59595 2.59389 4.72245 2.64C4.79835 2.66537 4.86275 2.71609 4.90875 2.78296C4.94095 2.8406 4.95015 2.90977 4.93405 2.97433L4.50855 5.08407H6.55553C6.60383 5.07946 6.65213 5.08638 6.69583 5.10713C6.73953 5.12788 6.77633 5.16016 6.80163 5.20167C6.84993 5.30773 6.87063 5.42532 6.86603 5.54061C6.86373 5.63053 6.85683 5.72046 6.84533 5.81038C6.83153 5.92105 6.81083 6.03865 6.78783 6.16546C6.76253 6.29458 6.72803 6.4214 6.68663 6.54821C6.64753 6.6658 6.59923 6.78109 6.54403 6.89176C6.49803 6.9863 6.43593 7.07161 6.36463 7.14539C6.33703 7.17537 6.30253 7.20073 6.26573 7.21687C6.22893 7.23301 6.18753 7.24454 6.14613 7.24454H4.07845L3.18606 11.6854C3.16536 11.7914 3.14466 11.9159 3.12856 12.0612C3.11246 12.1788 3.10326 12.2964 3.10326 12.4163C3.09406 12.527 3.10556 12.6399 3.14006 12.746C3.17456 12.8521 3.22976 12.9512 3.30336 13.0365C3.48276 13.1818 3.71046 13.2533 3.94046 13.2348C4.08535 13.2371 4.23025 13.2256 4.37515 13.1979C4.48095 13.1772 4.58675 13.1495 4.68795 13.1126C4.77535 13.0803 4.85125 13.0527 4.91565 13.0273C4.97315 13.0042 5.03294 12.9904 5.09504 12.9904C5.12264 12.9904 5.15254 12.9973 5.17554 13.0112C5.20084 13.025 5.22154 13.0457 5.23764 13.0688C5.28364 13.1472 5.30434 13.2371 5.29514 13.3294C5.29284 13.4815 5.27904 13.6337 5.25144 13.7859C5.22384 13.9519 5.18704 14.1179 5.13874 14.2793C5.09734 14.4269 5.04444 14.5721 4.98465 14.7128C4.94325 14.8212 4.88115 14.918 4.80525 15.0033C4.72245 15.0794 4.62355 15.1417 4.52005 15.1832C4.37515 15.2454 4.22335 15.2961 4.06925 15.3307C3.88526 15.3745 3.69896 15.4091 3.51266 15.4322C3.31486 15.4575 3.11706 15.4691 2.91927 15.4691C2.54207 15.4737 2.16717 15.4299 1.80148 15.3376ZM13.0346 15.3007C12.8966 15.2938 12.7632 15.2685 12.6321 15.227C12.5493 15.2016 12.478 15.1532 12.4205 15.0886C12.3722 15.0264 12.3377 14.9549 12.3193 14.8765L10.0814 9.89382L9.0832 14.8972C9.0625 14.9664 9.0234 15.031 8.9705 15.0817C8.90151 15.144 8.81641 15.1901 8.72671 15.2131C8.58641 15.2546 8.44151 15.28 8.29661 15.2915C8.11951 15.31 7.90332 15.3169 7.65032 15.3169C7.43642 15.3192 7.22252 15.31 7.00862 15.2915C6.87753 15.28 6.74643 15.2569 6.62223 15.2177C6.54633 15.1993 6.48193 15.1532 6.43593 15.0909C6.40373 15.0356 6.39453 14.9687 6.41063 14.9065L9.2097 0.956823C9.2235 0.885346 9.258 0.820786 9.304 0.765448C9.3707 0.698582 9.4558 0.647856 9.5478 0.622493C9.6881 0.578684 9.833 0.546404 9.97789 0.53257C10.1941 0.509512 10.4126 0.497984 10.6311 0.50029C10.845 0.497984 11.0589 0.509512 11.2728 0.53257C11.4062 0.546404 11.535 0.576379 11.6592 0.622493C11.7351 0.647856 11.7972 0.698582 11.8386 0.765448C11.8662 0.825397 11.8754 0.892263 11.8593 0.956823L10.2033 9.25744L13.7476 5.47144C13.8143 5.39074 13.8902 5.31695 13.9753 5.2547C14.0696 5.18783 14.1754 5.13941 14.288 5.11174C14.4398 5.07255 14.5939 5.04718 14.7503 5.03796C14.9297 5.02413 15.1551 5.01721 15.4242 5.01721C15.6864 5.01721 15.9072 5.02413 16.082 5.03796C16.2223 5.04488 16.3603 5.06793 16.496 5.10713C16.5742 5.12788 16.6478 5.16939 16.703 5.22934C16.7421 5.27776 16.7628 5.3377 16.7605 5.39996C16.7513 5.54291 16.7007 5.68126 16.6179 5.79654C16.4776 6.00406 16.3189 6.19543 16.1441 6.37528L12.8069 9.5226L14.9826 14.081C15.0447 14.224 15.0953 14.3738 15.1321 14.526C15.1574 14.6229 15.1712 14.722 15.1758 14.8235C15.1781 14.9042 15.1528 14.9803 15.1068 15.0448C15.0447 15.1186 14.9642 15.1739 14.8745 15.2016C14.7296 15.25 14.5801 15.2823 14.4283 15.2915C14.2421 15.31 14.0052 15.3169 13.7223 15.3169C13.4371 15.3169 13.2094 15.3123 13.0346 15.3007Z" fill="white"/>
<path id="Vector_2" d="M26.4472 15.289C25.9826 15.1691 25.5502 14.9478 25.1799 14.6434C24.8349 14.346 24.5727 13.9655 24.4163 13.5367C24.2369 13.0248 24.1495 12.4852 24.161 11.9411C24.1633 11.4315 24.2093 10.922 24.2944 10.4193C24.3841 9.87285 24.529 9.33792 24.7245 8.81914C24.9246 8.28882 25.1799 7.78386 25.4881 7.30888C25.7963 6.8316 26.1781 6.40273 26.6174 6.04304C27.0774 5.66951 27.5949 5.37438 28.1515 5.16917C28.7886 4.9409 29.4602 4.83023 30.1364 4.84176C30.6975 4.83023 31.2587 4.90632 31.7969 5.07002C32.2132 5.19684 32.5996 5.39974 32.9377 5.67412C33.2206 5.907 33.4483 6.19983 33.6001 6.53185C33.7427 6.84313 33.8163 7.17976 33.8186 7.52332C33.8255 8.00291 33.7082 8.47558 33.4736 8.89523C33.2137 9.33101 32.8434 9.69301 32.4018 9.94433C31.8291 10.2717 31.2035 10.4977 30.5549 10.6176C29.6764 10.7859 28.7817 10.8643 27.887 10.8505H26.9095C26.8819 11.0142 26.8589 11.1733 26.8451 11.3324C26.8313 11.4915 26.8244 11.6367 26.8244 11.7728C26.806 12.008 26.8382 12.2431 26.9141 12.4645C26.99 12.6858 27.1119 12.891 27.2706 13.064C27.6731 13.3891 28.186 13.5436 28.7035 13.4975C29.1244 13.5021 29.5453 13.4675 29.9616 13.396C30.2905 13.3384 30.617 13.2646 30.9367 13.1747C31.215 13.094 31.4473 13.0202 31.6313 12.9533C31.7601 12.9003 31.8958 12.8657 32.0338 12.8519C32.0683 12.8495 32.1028 12.8542 32.1327 12.8657C32.1649 12.8795 32.1925 12.898 32.2132 12.9256C32.2546 12.9971 32.273 13.0778 32.2661 13.1585C32.2638 13.2969 32.2546 13.4352 32.2339 13.5712C32.2132 13.7257 32.1833 13.8802 32.1442 14.0324C32.1074 14.18 32.0568 14.3229 31.9947 14.4613C31.9464 14.5765 31.8774 14.6803 31.7877 14.7679C31.6497 14.8832 31.491 14.9685 31.3208 15.0215C31.054 15.1184 30.7803 15.1968 30.5043 15.2544C30.1502 15.3305 29.7937 15.3882 29.4326 15.4297C29.0324 15.4758 28.6276 15.4988 28.2228 15.4988C27.6248 15.5104 27.0268 15.4389 26.4472 15.289ZM28.9404 6.92844C28.6644 7.05295 28.416 7.22588 28.2021 7.44031C27.9836 7.66627 27.7973 7.92221 27.6547 8.20351C27.5006 8.50325 27.3764 8.81683 27.289 9.14194H28.1791C28.6552 9.14886 29.1313 9.11196 29.6005 9.03126C29.9225 8.97823 30.233 8.87447 30.5227 8.72921C30.7297 8.62545 30.9045 8.47097 31.031 8.2796C31.1345 8.11358 31.1897 7.9199 31.1897 7.72392C31.192 7.58788 31.1621 7.45415 31.1046 7.33194C31.0471 7.20974 30.962 7.10137 30.8562 7.01836C30.5756 6.81315 30.233 6.71401 29.8857 6.73706C29.5637 6.73015 29.2394 6.79471 28.9404 6.92844ZM34.6903 15.2913C34.5592 15.2821 34.4281 15.2544 34.3039 15.2129C34.228 15.1899 34.1636 15.1437 34.1176 15.0815C34.0854 15.0262 34.0762 14.9593 34.0923 14.897L36.8822 0.961218C36.896 0.889741 36.9305 0.82518 36.9765 0.769843C37.0455 0.702977 37.1283 0.652251 37.2203 0.626888C37.3606 0.583079 37.5032 0.553104 37.6504 0.536964C37.8666 0.513907 38.0851 0.502378 38.3036 0.504684C38.5175 0.502378 38.7314 0.513907 38.9453 0.536964C39.0787 0.550799 39.2098 0.580773 39.334 0.626888C39.4099 0.652251 39.472 0.702977 39.5134 0.769843C39.541 0.829792 39.5502 0.896658 39.5341 0.961218L36.7534 14.897C36.7396 14.9685 36.7028 15.0331 36.6522 15.0815C36.5832 15.1414 36.5027 15.1876 36.4153 15.2106C36.2773 15.2521 36.1347 15.2775 35.9898 15.289C35.8127 15.3075 35.5965 15.3144 35.3435 15.3144C35.125 15.3213 34.9065 15.3121 34.6903 15.2913ZM21.0859 15.2982C20.9525 15.2913 20.8214 15.2683 20.6927 15.2337C20.6191 15.2175 20.5524 15.176 20.5064 15.1161C20.4742 15.063 20.4512 15.0077 20.4374 14.9455L19.292 11.6068L16.8977 14.9593C16.8586 15.0192 16.8103 15.0746 16.7551 15.123C16.6769 15.1806 16.5849 15.2175 16.4906 15.2337C16.3296 15.2659 16.1663 15.289 16.003 15.2982C15.8006 15.3121 15.5315 15.319 15.1911 15.319C14.8875 15.319 14.6437 15.3098 14.4597 15.2936C14.3217 15.2867 14.1837 15.2544 14.0572 15.1991C14.0204 15.1852 13.9905 15.1622 13.9698 15.1276C13.9491 15.0953 13.9399 15.0561 13.9445 15.0169C13.9675 14.9109 14.0135 14.8117 14.0779 14.7264L17.6774 10.0204L16.0973 5.65337C16.0582 5.55423 16.0444 5.44586 16.0536 5.33979C16.0628 5.29598 16.0835 5.25448 16.1111 5.2199C16.1387 5.18531 16.1755 5.15764 16.2169 5.1415C16.3572 5.08155 16.509 5.04697 16.6631 5.04005C16.8655 5.0216 17.1323 5.01469 17.4635 5.01469C17.7533 5.01469 17.981 5.0193 18.1466 5.03083C18.2754 5.03544 18.4019 5.05158 18.5284 5.07925C18.5997 5.09078 18.6618 5.12536 18.7078 5.1807C18.7423 5.23373 18.7699 5.29368 18.786 5.35593L19.89 8.51478L22.1715 5.35593C22.2129 5.3006 22.2589 5.25218 22.3095 5.20837C22.3785 5.15764 22.459 5.12075 22.5441 5.1023C22.6798 5.07002 22.8178 5.04927 22.9581 5.03774C23.1283 5.02391 23.3583 5.01699 23.6481 5.01699C23.9724 5.01699 24.2323 5.02391 24.4278 5.03774C24.575 5.04236 24.7199 5.07002 24.8579 5.12306C24.9499 5.16456 24.9913 5.22451 24.9798 5.29829C24.9522 5.40897 24.8993 5.51272 24.8257 5.60034L21.5367 9.99967L23.2295 14.7057C23.264 14.8002 23.2709 14.9039 23.2502 15.0031C23.2341 15.0469 23.2065 15.0884 23.1743 15.1207C23.1398 15.153 23.0984 15.1783 23.0547 15.1945C22.9029 15.2544 22.7442 15.2867 22.5809 15.2959C22.3762 15.3144 22.1094 15.3213 21.7851 15.3213C21.4884 15.3213 21.2561 15.3144 21.0859 15.2982Z" fill="white"/>
</g>
</svg>
