<svg preserveAspectRatio="none" width="100%" height="100%" overflow="visible" style="display: block;" viewBox="0 0 99.9694 17.2361" fill="none" xmlns="http://www.w3.org/2000/svg">
<path id="Path 5" d="M4.81356 17.0234H0V0.27888H8.32491L17.8754 12.7797V0.27888H22.6891V17.0234H14.5326L4.8134 4.30936L4.81356 17.0234ZM45.7198 11.846C45.7198 14.1734 45.3177 14.9757 44.6512 15.7456C43.6298 16.8917 42.1446 17.2361 39.2813 17.2361H31.0627C28.1994 17.2361 26.7123 16.8914 25.6918 15.7456C25.0265 14.977 24.6235 14.1734 24.6235 11.846V5.39113C24.6235 3.06401 25.0267 2.26212 25.6918 1.49148C26.7123 0.344381 28.1997 0 31.0627 0H39.2816C42.144 0 43.6305 0.344715 44.6512 1.49148C45.3175 2.26196 45.7198 3.06367 45.7198 5.39113V11.846ZM39.0791 12.9931C40.1784 12.9931 40.5655 12.9274 40.8293 12.6821C41.0765 12.4527 41.1854 12.1578 41.1854 11.1739V6.06252C41.1854 5.07917 41.0765 4.78575 40.8293 4.55532C40.5662 4.30936 40.1784 4.24436 39.0791 4.24436H31.2649C30.1656 4.24436 29.7785 4.30936 29.5156 4.55532C29.2678 4.78558 29.1595 5.07933 29.1595 6.06252V11.1734C29.1595 12.1568 29.2675 12.4522 29.5156 12.6816C29.7781 12.9269 30.1656 12.9926 31.2649 12.9926H39.0799L39.0791 12.9931ZM52.7153 0.27888V17.0234H47.6857V0.27888H52.7153ZM61.2127 0.27888H67.8525L58.8913 8.11143L68.9985 17.0234H61.8928L52.7153 8.29072L61.2127 0.27888ZM69.9263 0.27888H74.9575V17.0234H69.9263V0.27888ZM94.1346 17.0234L92.6462 14.1064H82.9134L81.4432 17.0234H75.8861L84.8018 0.27888H91.0539L99.9694 17.0234H94.1346ZM84.6605 10.4695H90.9148L87.7871 4.40728L84.6605 10.4695Z" fill="var(--fill-0, #D9D9D9)"/>
</svg>
