<svg preserveAspectRatio="none" width="100%" height="100%" overflow="visible" style="display: block;" viewBox="0 0 113.309 20.6834" fill="none" xmlns="http://www.w3.org/2000/svg">
<g id="Logo client s 40">
<path id="image 7 (Traced)" fill-rule="evenodd" clip-rule="evenodd" d="M7.00617 0.187015C4.39782 0.801907 1.89108 3.05075 0.66424 5.87605C0.124057 7.12024 0.0046755 7.91063 0.00015987 10.2751C-0.00463799 12.7913 0.0949881 13.3896 0.784751 14.9838C1.74884 17.2115 3.89122 19.4776 5.69099 20.1736C7.4041 20.8359 10.394 20.8243 12.1506 20.1483C14.1499 19.3787 16.7876 16.3103 17.4345 14.0013C17.6992 13.0565 17.9159 11.5792 17.9159 10.7186V9.15419H12.8223H7.72895L7.81277 11.1558L7.89687 13.1574L10.387 13.3175L12.8771 13.4776L12.0803 14.3379C9.0382 17.6227 4.38766 15.1513 4.37355 10.2424C4.36565 7.43633 6.07369 5.33898 8.59031 5.06452C9.84593 4.92777 10.2137 5.03633 11.4521 5.90999C12.7328 6.81344 13.0947 6.9124 15.1123 6.9124C16.3439 6.9124 17.3515 6.83457 17.3515 6.73946C17.3515 6.17324 16.119 4.00831 15.1919 2.94538C13.2027 0.665158 9.81658 -0.475595 7.00617 0.187015ZM40.0648 0.200146C37.3837 0.615198 34.7485 2.78333 33.382 5.6983C32.8356 6.86404 32.7374 7.55867 32.7354 10.2751C32.7323 14.0698 33.2598 15.6256 35.337 17.9494C37.1774 20.0083 39.136 20.7849 42.0464 20.6097C46.9235 20.3161 50.2823 16.5246 50.5848 10.971C50.9478 4.30743 46.0337 -0.724113 40.0648 0.200146ZM86.9859 0.215838C83.8188 0.78045 80.8193 3.67364 79.8769 7.07284C78.7796 11.0322 79.8459 15.4658 82.5617 18.237C84.2596 19.9689 85.9857 20.6834 88.4727 20.6834C90.971 20.6834 92.6869 19.968 94.4136 18.2065C96.4027 16.1768 97.2813 14.097 97.4433 11.0351C97.6313 7.48245 97.0349 5.68293 94.8479 3.20095C92.5709 0.617439 90.0673 -0.333081 86.9859 0.215838ZM19.0448 10.4352V20.3632H21.1514H23.2579L23.3386 17.2407L23.4194 14.1182L25.0769 17.2407L26.7344 20.3632H29.4156C31.5153 20.3632 32.0383 20.2764 31.828 19.9628C30.4753 17.9462 28.0761 13.9587 28.0761 13.7274C28.0761 13.5673 28.5161 13.1981 29.0537 12.9073C29.5914 12.6162 30.385 11.7713 30.8177 11.0299C31.5165 9.83153 31.604 9.39054 31.604 7.07252C31.604 4.77821 31.5125 4.30711 30.8465 3.16476C29.5417 0.927767 28.3527 0.507271 23.3302 0.507271H19.0448V10.4352ZM51.832 8.11336C51.9195 15.2304 51.9655 15.8043 52.5475 17.0402C53.8361 19.7764 55.7663 20.8586 58.9038 20.6037C61.4416 20.3977 62.8832 19.3367 63.9895 16.8608L64.7656 15.1241V7.81584V0.507271H62.6489H60.5322V7.02481C60.5322 13.7614 60.3324 15.3153 59.3923 15.8863C58.5623 16.3904 57.4715 16.2495 56.8633 15.5593C56.3324 14.9569 56.2988 14.4919 56.2988 7.71304V0.507271H54.0187H51.7383L51.832 8.11336ZM66.1768 10.4352V20.3632H68.2935H70.4102V17.1606V13.958L72.033 13.9561C75.5069 13.9523 77.6851 12.3612 78.4838 9.24386C79.2069 6.42112 78.6758 3.85139 76.9971 2.04898C75.7443 0.703909 74.9021 0.507271 70.3918 0.507271H66.1768V10.4352ZM98.3507 10.4352V20.3632H100.608H102.866V14.8634V9.36396L106.072 14.7833L109.277 20.203L111.293 20.2972L113.309 20.3913V10.4493V0.507271H111.058H108.807L108.729 5.84274L108.652 11.1782L105.547 5.84978L102.443 0.521363L100.397 0.514317L98.3507 0.507271V10.4352ZM26.5521 5.23585C26.976 5.55707 27.5117 6.75739 27.5117 7.38637C27.5117 7.67012 27.1998 8.25587 26.8188 8.68822C26.2665 9.31528 25.8378 9.47444 24.7021 9.47444H23.2783V7.23265V4.99086L24.7599 4.99566C25.575 4.99854 26.3813 5.10647 26.5521 5.23585ZM44.1134 5.85619C44.5288 6.20527 45.1655 6.98221 45.5285 7.58237C46.4632 9.12889 46.3119 12.0989 45.2149 13.731C43.7025 15.9814 40.8655 16.4455 38.9193 14.7609C36.0064 12.2399 36.4783 7.17308 39.7885 5.42705C40.9186 4.83105 43.158 5.05331 44.1134 5.85619ZM73.734 5.4895C74.1994 5.85907 74.3613 6.30935 74.3613 7.23265C74.3613 8.82464 73.6067 9.47444 71.7584 9.47444H70.4102V7.23265V4.99086H71.7584C72.5221 4.99086 73.3789 5.20703 73.734 5.4895ZM90.5894 5.63137C93.6581 7.3172 93.874 12.5681 90.9744 15.0046C89.0724 16.603 85.8342 15.665 84.598 13.1574C82.2524 8.39998 86.3227 3.28742 90.5894 5.63137Z" fill="var(--fill-0, #D9D9D9)"/>
</g>
</svg>
