<svg preserveAspectRatio="none" width="100%" height="100%" overflow="visible" style="display: block;" viewBox="0 0 122 64" fill="none" xmlns="http://www.w3.org/2000/svg">
<g id="65c3616e39ba3a003c448666_i5.svg">
<path id="Vector" fill-rule="evenodd" clip-rule="evenodd" d="M33.0872 22L22.876 42H13.2848L17.5582 33.7111H17.3665C13.841 38.2964 8.58082 41.315 1.08594 42V33.8259C1.08594 33.8259 5.88059 33.5422 8.69923 30.5731H1.08594V22.0002H9.64246V29.0512L9.83451 29.0504L13.331 22.0002H19.8021V29.0065L19.9941 29.0062L23.6218 22H33.0872Z" fill="var(--fill-0, #146EF5)"/>
<path id="Vector_2" d="M89.0859 40H91.586V24H89.0859V40Z" fill="var(--fill-0, white)"/>
<path id="Vector_3" fill-rule="evenodd" clip-rule="evenodd" d="M73.5545 39.627C74.1463 39.8757 74.7481 40 75.3599 40C76.3706 40 77.2749 39.7514 78.0729 39.254C78.8708 38.7566 79.4892 38.071 79.9281 37.1973C80.367 36.3168 80.5864 35.3187 80.5864 34.2029C80.5864 33.0872 80.3604 32.0891 79.9082 31.2086C79.456 30.3281 78.8277 29.6459 78.023 29.162C77.2185 28.6713 76.3041 28.4293 75.28 28.4361C74.6284 28.4361 74.0034 28.5638 73.4049 28.8192C72.8064 29.0746 72.3077 29.4375 71.9087 29.908C71.8779 29.9438 71.848 29.98 71.8189 30.0166V24H69.0859V39.7884H71.799L71.7935 38.3134C71.8638 38.4004 71.9387 38.4853 72.0185 38.5684C72.4507 39.0188 72.9627 39.3716 73.5545 39.627ZM76.3473 37.0763C75.9018 37.3518 75.3931 37.4897 74.8213 37.4897C74.256 37.4897 73.7373 37.3485 73.2652 37.0662C72.7931 36.7771 72.4174 36.384 72.1381 35.8866C71.8655 35.3893 71.7292 34.8247 71.7292 34.1929C71.7225 33.561 71.8555 32.9965 72.1281 32.4991C72.4074 31.995 72.7831 31.6052 73.2552 31.3296C73.7274 31.0473 74.2493 30.9095 74.8213 30.9162C75.3931 30.9095 75.9018 31.0439 76.3473 31.3195C76.7995 31.5883 77.1453 31.9748 77.3847 32.4789C77.6306 32.9763 77.7537 33.5476 77.7537 34.1929C77.7537 34.8381 77.6306 35.4094 77.3847 35.9068C77.1453 36.4041 76.7995 36.794 76.3473 37.0763Z" fill="var(--fill-0, white)"/>
<path id="Vector_4" d="M37.0859 25H40.2461L43.0731 35.3865L46.0804 25H48.7139L51.9755 35.1781L54.6899 25H57.5868L53.3124 40H50.5877L47.2713 30.0568L44.2268 40H41.4717L37.0859 25Z" fill="var(--fill-0, white)"/>
<path id="Vector_5" fill-rule="evenodd" clip-rule="evenodd" d="M62.3506 39.9998C61.2573 40.0064 60.2714 39.7666 59.3928 39.2804C58.521 38.7875 57.8335 38.1048 57.3304 37.2323C56.8341 36.3596 56.5859 35.3639 56.5859 34.2449C56.5859 33.1592 56.8409 32.1767 57.3506 31.2975C57.8602 30.4183 58.5511 29.7322 59.4229 29.2393C60.2949 28.7465 61.2673 28.5 62.3405 28.5C63.5477 28.5 64.6041 28.7664 65.5095 29.2993C66.4216 29.8321 67.1024 30.5881 67.5517 31.5673C68.0078 32.5397 68.1721 33.6554 68.0447 34.9142H59.4272C59.4513 35.4158 59.5773 35.8721 59.8053 36.283C60.0601 36.736 60.4156 37.089 60.8716 37.3421C61.3277 37.5952 61.8375 37.7217 62.4008 37.7217C62.8301 37.7152 63.2291 37.6418 63.598 37.502C63.9669 37.3555 64.2787 37.1589 64.5337 36.9126C64.7951 36.6661 64.9796 36.3863 65.0869 36.0733H67.9642C67.7898 36.8392 67.4411 37.522 66.9179 38.1214C66.3948 38.7142 65.7374 39.1771 64.9461 39.5102C64.1546 39.8432 63.2894 40.0064 62.3506 39.9998ZM59.8154 32.1667C59.6546 32.4451 59.5433 32.7448 59.4813 33.066H65.1935C65.1521 32.6603 65.026 32.2906 64.8153 31.9569C64.5739 31.5639 64.2452 31.2609 63.8294 31.0477C63.4135 30.8279 62.9441 30.718 62.421 30.718C61.8643 30.718 61.358 30.8446 60.9019 31.0977C60.4458 31.3508 60.0836 31.7071 59.8154 32.1667Z" fill="var(--fill-0, white)"/>
<path id="Vector_6" d="M82.8011 28.7263C82.8011 27.8124 82.9994 27.0008 83.3957 26.2916C83.792 25.5754 84.3475 25.0196 85.0621 24.624C85.7832 24.2216 86.6247 24.0136 87.5862 24V26.4859C87.1379 26.4927 86.7546 26.5916 86.4363 26.7826C86.1244 26.9667 85.884 27.2361 85.715 27.5908C85.5595 27.9173 85.4756 28.2958 85.4633 28.7263H87.5278V31.0895H85.4617V40H82.8011V31.0895H81.0859V28.7263H82.8011Z" fill="var(--fill-0, white)"/>
<path id="Vector_7" fill-rule="evenodd" clip-rule="evenodd" d="M98.5785 40C97.4278 40 96.3976 39.7566 95.4879 39.27C94.5853 38.7766 93.8755 38.0966 93.3587 37.23C92.8488 36.3566 92.5938 35.3667 92.5938 34.26C92.5938 33.1467 92.8488 32.1533 93.3587 31.28C93.8755 30.4 94.5853 29.7167 95.4879 29.23C96.3976 28.7433 97.4278 28.5 98.5785 28.5C99.7362 28.5 100.77 28.7433 101.679 29.23C102.596 29.7167 103.309 30.3967 103.819 31.27C104.329 32.1433 104.587 33.14 104.594 34.26C104.587 35.3667 104.329 36.3566 103.819 37.23C103.316 38.0966 102.606 38.7766 101.69 39.27C100.773 39.7566 99.7362 40 98.5785 40ZM98.5785 37.49C99.1849 37.49 99.7224 37.3567 100.191 37.0899C100.66 36.8166 101.021 36.4366 101.276 35.95C101.531 35.4566 101.659 34.8933 101.659 34.26C101.659 33.62 101.531 33.0533 101.276 32.56C101.021 32.0667 100.66 31.6867 100.191 31.42C99.7224 31.1467 99.1849 31.01 98.5785 31.01C97.979 31.01 97.445 31.1467 96.9764 31.42C96.5147 31.6867 96.1563 32.0667 95.9014 32.56C95.6464 33.0533 95.5224 33.62 95.5294 34.26C95.5294 34.8933 95.6567 35.4566 95.9118 35.95C96.1736 36.4366 96.5319 36.8166 96.9868 37.0899C97.4484 37.3567 97.979 37.49 98.5785 37.49Z" fill="var(--fill-0, white)"/>
<path id="Vector_8" d="M107.65 29H104.586L107.902 40H110.583L112.765 32.9743L115.12 40H117.76L121.087 29H118.315L116.428 35.8468L114.344 29H111.662L109.587 35.9977L107.65 29Z" fill="var(--fill-0, white)"/>
</g>
</svg>
