<svg preserveAspectRatio="none" width="100%" height="100%" overflow="visible" style="display: block;" viewBox="0 0 9.60938 9.60938" fill="none" xmlns="http://www.w3.org/2000/svg">
<g id="Frame" clip-path="url(#clip0_13922_57243)">
<g id="Vector">
</g>
<g id="Frame_2" clip-path="url(#clip1_13922_57243)">
<g id="Vector_2">
</g>
<path id="Vector_3" d="M4.13701 1.72932C4.30757 1.02623 5.30775 1.02623 5.47832 1.72932C5.50391 1.83494 5.55408 1.93303 5.62474 2.0156C5.69541 2.09817 5.78457 2.16288 5.88497 2.20448C5.98538 2.24608 6.09418 2.26338 6.20254 2.25498C6.31089 2.24658 6.41573 2.21271 6.50852 2.15613C7.12632 1.77977 7.83381 2.48686 7.45745 3.10506C7.40095 3.19781 7.36714 3.30259 7.35876 3.41087C7.35038 3.51915 7.36766 3.62788 7.40921 3.72822C7.45076 3.82856 7.5154 3.91768 7.59788 3.98834C7.68035 4.059 7.77833 4.1092 7.88386 4.13486C8.58695 4.30543 8.58695 5.30561 7.88386 5.47617C7.77824 5.50177 7.68015 5.55194 7.59758 5.6226C7.51502 5.69327 7.4503 5.78243 7.4087 5.88283C7.3671 5.98323 7.3498 6.09204 7.3582 6.20039C7.3666 6.30875 7.40047 6.41359 7.45705 6.50638C7.83341 7.12418 7.12632 7.83167 6.50812 7.4553C6.41537 7.39881 6.31059 7.365 6.20231 7.35661C6.09403 7.34823 5.9853 7.36552 5.88496 7.40707C5.78462 7.44862 5.6955 7.51326 5.62484 7.59573C5.55418 7.67821 5.50398 7.77619 5.47832 7.88172C5.30775 8.58481 4.30757 8.58481 4.13701 7.88172C4.11142 7.7761 4.06125 7.67801 3.99058 7.59544C3.91992 7.51287 3.83075 7.44816 3.73035 7.40656C3.62995 7.36496 3.52114 7.34766 3.41279 7.35606C3.30443 7.36446 3.19959 7.39833 3.1068 7.4549C2.489 7.83127 1.78151 7.12418 2.15788 6.50598C2.21437 6.41323 2.24818 6.30845 2.25657 6.20017C2.26495 6.09189 2.24766 5.98316 2.20611 5.88282C2.16456 5.78248 2.09992 5.69335 2.01745 5.6227C1.93497 5.55204 1.83699 5.50184 1.73146 5.47617C1.02837 5.30561 1.02837 4.30543 1.73146 4.13486C1.83708 4.10927 1.93517 4.0591 2.01774 3.98844C2.10031 3.91777 2.16503 3.82861 2.20662 3.72821C2.24822 3.6278 2.26552 3.519 2.25712 3.41064C2.24872 3.30229 2.21485 3.19745 2.15828 3.10466C1.78191 2.48686 2.489 1.77937 3.1072 2.15573C3.50759 2.39917 4.0265 2.18376 4.13701 1.72932Z" stroke="var(--stroke-0, #929292)" stroke-width="0.600586" stroke-linecap="round" stroke-linejoin="round"/>
<path id="Vector_4" d="M4.80604 6.00377C5.46943 6.00377 6.00721 5.46599 6.00721 4.8026C6.00721 4.13921 5.46943 3.60142 4.80604 3.60142C4.14265 3.60142 3.60486 4.13921 3.60486 4.8026C3.60486 5.46599 4.14265 6.00377 4.80604 6.00377Z" stroke="var(--stroke-0, #929292)" stroke-width="0.600586" stroke-linecap="round" stroke-linejoin="round"/>
</g>
</g>
<defs>
<clipPath id="clip0_13922_57243">
<rect width="9.60938" height="9.60938" fill="white"/>
</clipPath>
<clipPath id="clip1_13922_57243">
<rect width="9.60938" height="9.60938" fill="white" transform="translate(2.30331e-05 -0.00146865)"/>
</clipPath>
</defs>
</svg>
