<svg preserveAspectRatio="none" width="100%" height="100%" overflow="visible" style="display: block;" viewBox="0 0 58.4655 49.1116" fill="none" xmlns="http://www.w3.org/2000/svg">
<g id="Group">
<path id="Vector" d="M52.8303 11.2701C55.9425 11.2701 58.4653 8.74716 58.4653 5.63503C58.4653 2.52287 55.9425 0 52.8303 0C49.7181 0 47.1953 2.52287 47.1953 5.63503C47.1953 8.74716 49.7181 11.2701 52.8303 11.2701Z" fill="var(--fill-0, white)"/>
<path id="Vector_2" d="M43.3553 2.47696H29.5107L23.4383 49.1116H32.6681L33.6395 42.7965L39.2261 43.0395L40.1975 49.1116H49.1848L43.3553 2.47696ZM34.3684 34.5382L36.5543 15.3501L38.4976 34.5382H34.3684Z" fill="var(--fill-0, white)"/>
<path id="Vector_3" d="M15.0106 2.47696H8.98688H0V37.4772V49.1116H8.98688V37.4772H15.0106C19.0182 37.4772 22.2974 34.1984 22.2974 30.1906V9.76365C22.2974 5.78026 19.0182 2.47696 15.0106 2.47696ZM13.0917 28.4418C13.0917 29.1948 12.4845 29.802 11.7316 29.802H9.42409V10.6623H11.7316C12.4845 10.6623 13.0917 11.2695 13.0917 12.0225V28.4418Z" fill="var(--fill-0, white)"/>
</g>
</svg>
