<svg preserveAspectRatio="none" width="100%" height="100%" overflow="visible" style="display: block;" viewBox="0 0 7.73391 7.73389" fill="none" xmlns="http://www.w3.org/2000/svg">
<g id="Group 8666">
<path id="Vector" d="M2.66483 3.46623C3.55001 3.46623 4.2676 2.74864 4.2676 1.86346C4.2676 0.978276 3.55001 0.260693 2.66483 0.260693C1.77965 0.260693 1.06206 0.978276 1.06206 1.86346C1.06206 2.74864 1.77965 3.46623 2.66483 3.46623Z" stroke="var(--stroke-0, #929292)" stroke-width="0.521386" stroke-linecap="round" stroke-linejoin="round"/>
<path id="Vector_2" d="M0.260693 7.4732V6.67182C0.260693 6.24674 0.429555 5.83907 0.730132 5.53849C1.03071 5.23791 1.43838 5.06905 1.86346 5.06905H3.46622C3.8913 5.06905 4.29897 5.23791 4.59955 5.53849C4.90013 5.83907 5.06899 6.24674 5.06899 6.67182V7.4732" stroke="var(--stroke-0, #929292)" stroke-width="0.521386" stroke-linecap="round" stroke-linejoin="round"/>
<path id="Vector_3" d="M5.47028 0.314419C5.81504 0.402692 6.12062 0.603198 6.33883 0.884326C6.55705 1.16546 6.6755 1.51122 6.6755 1.8671C6.6755 2.22298 6.55705 2.56874 6.33883 2.84987C6.12062 3.131 5.81504 3.3315 5.47028 3.41978" stroke="var(--stroke-0, #929292)" stroke-width="0.521386" stroke-linecap="round" stroke-linejoin="round"/>
<path id="Vector_4" d="M7.47321 7.47115V6.66976C7.47118 6.31602 7.35217 5.97288 7.13474 5.69384C6.9173 5.4148 6.61366 5.21553 6.27114 5.1271" stroke="var(--stroke-0, #929292)" stroke-width="0.521386" stroke-linecap="round" stroke-linejoin="round"/>
</g>
</svg>
