<svg preserveAspectRatio="none" width="100%" height="100%" overflow="visible" style="display: block;" viewBox="0 0 9.60938 9.60938" fill="none" xmlns="http://www.w3.org/2000/svg">
<g id="Frame" clip-path="url(#clip0_13922_57308)">
<g id="Vector">
</g>
<g id="Frame_2" clip-path="url(#clip1_13922_57308)">
<g id="Vector_2">
</g>
<path id="Vector_3" d="M7.20979 3.20515C7.52836 3.20515 7.83388 3.3317 8.05915 3.55697C8.28441 3.78223 8.41096 4.08775 8.41096 4.40633C8.41096 4.7249 8.28441 5.03042 8.05915 5.25568C7.83388 5.48095 7.52836 5.6075 7.20979 5.6075" stroke="var(--stroke-0, #929292)" stroke-width="0.600586" stroke-linecap="round" stroke-linejoin="round"/>
<path id="Vector_4" d="M4.0037 3.20515V7.60945C4.0037 7.71564 3.96152 7.81748 3.88643 7.89257C3.81135 7.96766 3.7095 8.00984 3.60331 8.00984H3.20292C3.09673 8.00984 2.99489 7.96766 2.91981 7.89257C2.84472 7.81748 2.80253 7.71564 2.80253 7.60945V5.6075" stroke="var(--stroke-0, #929292)" stroke-width="0.600586" stroke-linecap="round" stroke-linejoin="round"/>
<path id="Vector_5" d="M4.80766 3.20394L6.61903 1.69446C6.67166 1.65062 6.7357 1.62269 6.80364 1.61395C6.87158 1.6052 6.9406 1.616 7.00262 1.64508C7.06464 1.67415 7.11709 1.72031 7.15382 1.77812C7.19055 1.83594 7.21004 1.90303 7.21001 1.97153V6.83868C7.21004 6.90718 7.19055 6.97427 7.15382 7.03209C7.11709 7.08991 7.06464 7.13606 7.00262 7.16514C6.9406 7.19422 6.87158 7.20501 6.80364 7.19627C6.7357 7.18752 6.67166 7.15959 6.61903 7.11575L4.80766 5.60628H1.60454C1.49835 5.60628 1.39651 5.56409 1.32142 5.48901C1.24633 5.41392 1.20415 5.31208 1.20415 5.20589V3.60433C1.20415 3.49814 1.24633 3.39629 1.32142 3.32121C1.39651 3.24612 1.49835 3.20394 1.60454 3.20394H4.80766" stroke="var(--stroke-0, #929292)" stroke-width="0.600586" stroke-linecap="round" stroke-linejoin="round"/>
</g>
</g>
<defs>
<clipPath id="clip0_13922_57308">
<rect width="9.60938" height="9.60938" fill="white"/>
</clipPath>
<clipPath id="clip1_13922_57308">
<rect width="9.60938" height="9.60938" fill="white"/>
</clipPath>
</defs>
</svg>
