<svg preserveAspectRatio="none" width="100%" height="100%" overflow="visible" style="display: block;" viewBox="0 0 12.198 12.1969" fill="none" xmlns="http://www.w3.org/2000/svg">
<g id="#0096a1ff">
<path id="Vector" d="M3.51176 0.243687C4.67421 0.00420907 5.87097 -0.0393036 7.05343 0.0296177C7.68356 0.0705893 8.31306 0.148721 8.927 0.299586C9.36276 0.408208 9.7944 0.552085 10.1851 0.77727C10.57 1.01294 10.9197 1.31117 11.189 1.67483C11.6362 2.24367 11.8408 2.95639 11.9827 3.65449C12.1514 4.52125 12.2044 5.40706 12.1974 6.28906C12.1863 7.02147 12.1304 7.75483 11.9964 8.47549C11.883 9.05767 11.7258 9.6408 11.4339 10.161C11.1309 10.6851 10.6888 11.1278 10.165 11.4315C9.70769 11.69 9.19888 11.8402 8.68848 11.953C7.92177 12.1143 7.13791 12.1804 6.35532 12.1956C5.48253 12.2058 4.60624 12.1575 3.74647 12C3.39107 11.9308 3.03439 11.8517 2.69551 11.723C2.83017 11.5249 2.96103 11.3241 3.10014 11.1294C3.26149 11.1764 3.42378 11.2279 3.58926 11.2549C3.72392 10.7 3.85859 10.1452 3.98945 9.58966C4.00374 9.49089 3.87892 9.43689 3.80523 9.49438C3.80936 9.41942 3.84557 9.3505 3.84525 9.27555C3.84176 8.74546 3.84525 8.21537 3.84366 7.68559C3.83636 7.6154 3.85478 7.52838 3.79158 7.47851C3.90973 7.30923 4.0193 7.13327 4.14762 6.97129C4.43378 6.62351 4.88987 6.43675 5.3377 6.45962C5.78267 6.46057 6.22764 6.45803 6.67293 6.46089C7.12552 6.46311 7.56891 6.69719 7.82649 7.06911C8.10821 7.48232 8.38739 7.89712 8.66847 8.31065C8.82664 8.16455 8.98163 8.01527 9.14012 7.86949C9.30941 7.71132 9.55428 7.63986 9.78264 7.68083C10.0323 7.72117 10.2562 7.89744 10.3543 8.13088C10.469 8.40402 10.3994 8.74101 10.1873 8.94746C9.9659 9.15771 9.75565 9.37972 9.54539 9.60078C9.75819 9.92379 9.97766 10.243 10.1955 10.5631C10.4499 10.3541 10.6656 10.0978 10.8311 9.81326C11.1201 9.29206 11.2544 8.7029 11.3539 8.11977C11.486 7.2727 11.5225 6.4123 11.493 5.55634C11.4603 4.77184 11.3796 3.98386 11.1687 3.2254C11.0664 2.8773 10.94 2.52952 10.7317 2.22938C10.4166 1.75868 9.95511 1.38676 9.4266 1.18286C8.99497 1.01135 8.53857 0.911937 8.08121 0.837934C6.93178 0.666425 5.76012 0.65372 4.60497 0.773459C3.91227 0.855085 3.2113 0.975141 2.57386 1.26925C2.04441 1.52175 1.60293 1.94957 1.32343 2.46473C1.10079 2.89604 0.977873 3.37055 0.885766 3.84474C0.682814 4.9748 0.654547 6.13248 0.744113 7.27556C0.789848 7.80946 0.863851 8.34273 1.00011 8.8617C1.12239 9.32795 1.30056 9.79103 1.61309 10.1652C1.47747 10.3624 1.34058 10.559 1.20369 10.7553C0.970886 10.4933 0.765075 10.2033 0.622786 9.88186C0.377591 9.33875 0.24356 8.75308 0.14923 8.16709C-0.0279959 6.97796 -0.0419708 5.76596 0.0787208 4.57016C0.170192 3.7682 0.316293 2.95702 0.666298 2.22303C0.978191 1.59575 1.48732 1.07106 2.09808 0.729947C2.53956 0.49301 3.02455 0.351039 3.51176 0.243687ZM6.76948 7.1879C6.42424 7.26127 6.12061 7.51408 5.9996 7.84726C5.8843 8.1493 5.91543 8.50376 6.0844 8.77976C6.22669 9.02146 6.47061 9.199 6.74217 9.26538C7.05279 9.34256 7.39613 9.27713 7.65466 9.08784C8.08089 8.78674 8.20984 8.15693 7.95131 7.70687C7.73279 7.29303 7.22144 7.07419 6.76948 7.1879ZM4.39599 8.05338C4.18986 8.10897 4.06408 8.34431 4.1238 8.54758C4.14984 8.68035 4.27085 8.75498 4.35216 8.85249L4.30833 8.85027C4.31468 8.86583 4.3277 8.89759 4.33437 8.91347C4.69899 9.4677 5.0617 10.0238 5.42885 10.5765C5.61751 10.8388 5.56098 11.1783 5.60894 11.4804C5.72074 11.5087 5.84143 11.502 5.95608 11.4934C6.32864 11.515 6.7085 11.4893 7.08264 11.4686C7.80362 11.415 8.52904 11.3216 9.21666 11.0904C9.04992 10.8093 8.88 10.5298 8.71325 10.2487C8.64751 10.1474 8.65958 10.0038 8.74343 9.91648C9.14647 9.5055 9.55365 9.09832 9.95225 8.6832C10.1015 8.52186 10.0796 8.23982 9.90461 8.10611C9.75914 7.98542 9.52983 7.99082 9.38976 8.11722C8.91335 8.56092 8.44233 9.01098 7.96814 9.4569C7.5219 9.85963 6.81458 9.92252 6.30291 9.60808C6.18032 9.53535 6.07106 9.44261 5.97419 9.33907C5.57654 8.9411 5.18683 8.53552 4.7822 8.14486C4.68152 8.04894 4.52875 8.01178 4.39599 8.05338Z" fill="var(--fill-0, white)"/>
<path id="Vector_2" d="M4.35626 2.98879C4.76375 2.40471 5.49394 2.06868 6.20284 2.1395C6.1841 3.28957 6.2022 4.44058 6.19649 5.59128C6.20348 5.78344 6.1787 5.97781 6.2165 6.16774C5.73405 6.21507 5.23604 6.08453 4.84093 5.80281C4.41279 5.50235 4.10789 5.03039 4.01705 4.51459C3.91955 3.98767 4.0431 3.42392 4.35626 2.98879Z" fill="var(--fill-0, white)"/>
</g>
</svg>
