<svg preserveAspectRatio="none" width="100%" height="100%" overflow="visible" style="display: block;" viewBox="0 0 31 31" fill="none" xmlns="http://www.w3.org/2000/svg">
<g id="Group 1618868326">
<path id="Vector 6" d="M18.6176 0.5H12.2059C10.7941 0.5 9.26471 1.81624 9.26471 3.25214V6.30342C9.26471 7.93077 7.34314 8.89601 6.38235 9.17521H3.32353C1.58235 9.17521 0.715686 11.0897 0.5 12.047V18.6282C0.5 20.112 1.85294 21.5 3.32353 21.5H7.08824C7.93529 21.5 8.81373 20.7821 9.14706 20.4231L20.4412 8.9359C21.2882 8.07436 21.5 6.86182 21.5 6.36325V3.31197C21.5 1.49316 19.7353 0.5 18.6176 0.5Z" stroke="var(--stroke-0, #333333)"/>
<path id="Vector 7" d="M24.0112 9.5C23.3034 9.5 22.4972 10.046 22.1826 10.3189L10.6208 21.7256C10.0899 22.2521 9.67697 22.837 9.5 23.4805V27.6922C9.5 29.0961 11.3287 30.5 12.3315 30.5H18.8792C20.5309 30.5 21.7697 28.6866 21.7697 27.6337V24.3579C21.7697 22.6265 23.4803 21.5501 24.6011 21.5501H27.8455C29.4972 21.5501 30.3034 19.7953 30.5 18.9178V12.2493C30.5 10.6114 28.8287 9.5 27.8455 9.5H24.0112Z" stroke="var(--stroke-0, #333333)"/>
</g>
</svg>
