<svg preserveAspectRatio="none" width="100%" height="100%" overflow="visible" style="display: block;" viewBox="0 0 30.2107 13" fill="none" xmlns="http://www.w3.org/2000/svg">
<g id="Group 1000003449">
<path id="Vector" d="M16.355 12.9994C14.6272 12.1589 13.1944 11.0094 12.5038 9.16687C11.469 6.40193 12.4663 3.03296 14.7771 1.20684C16.5587 -0.197873 21.0374 -0.394533 22.7675 1.8811C23.704 3.12895 23.7461 4.49621 23.6338 5.91965C23.5986 6.33638 23.2428 6.50963 22.8401 6.51197C21.1263 6.51197 19.4149 6.52601 17.7035 6.51197C17.3289 6.51197 16.9286 6.38554 16.9028 5.94072C16.8771 5.49589 17.2845 5.36713 17.652 5.31328C18.2163 5.23368 18.7828 5.17281 19.3517 5.13769C19.8785 5.10491 20.0892 4.84036 20.0681 4.33935C20.0495 3.64274 19.8902 2.9571 19.5999 2.32359C19.1832 1.43862 18.3731 1.33795 17.631 1.99816C17.1408 2.38684 16.8082 2.93994 16.6945 3.55505C16.3831 5.71128 16.2754 7.83005 18.0828 9.50869C19.0848 10.4452 20.8922 10.6301 22.0628 9.91371C22.2551 9.78314 22.4579 9.6688 22.6692 9.5719C23.004 9.43845 23.409 9.25115 23.6736 9.60233C23.9381 9.95351 23.711 10.3445 23.4535 10.6465C22.7484 11.4786 21.8618 12.1378 20.8618 12.5733C20.5528 12.7067 20.2531 12.8566 19.9487 12.9994H16.355Z" fill="var(--fill-0, #333333)"/>
<path id="Vector_2" d="M27.518 8.97382C26.0454 8.97382 24.9427 7.84068 24.9216 6.29784C24.9135 5.95051 24.9743 5.60501 25.1005 5.28129C25.2266 4.95756 25.4156 4.66202 25.6565 4.41172C25.8975 4.16141 26.1856 3.9613 26.5043 3.82292C26.823 3.68454 27.1659 3.61064 27.5133 3.60548C27.8674 3.60455 28.2181 3.67353 28.5454 3.80845C28.8728 3.94337 29.1702 4.14157 29.4208 4.39171C29.6714 4.64184 29.8701 4.93897 30.0056 5.26607C30.1411 5.59317 30.2107 5.94379 30.2103 6.29784C30.2158 6.65214 30.1497 7.0039 30.0161 7.3321C29.8826 7.6603 29.6842 7.9582 29.4328 8.20799C29.1815 8.45778 28.8824 8.65434 28.5534 8.78593C28.2244 8.91751 27.8722 8.98141 27.518 8.97382Z" fill="var(--fill-0, #333333)"/>
<g id="Group 1000003448">
<path id="Vector_3" d="M0.00234102 1.71782C0.150827 1.49191 0.348346 1.30238 0.580199 1.16335C0.812053 1.02432 1.07227 0.939362 1.3415 0.914797C2.23583 0.776667 3.07866 0.430171 3.93788 0.146887C4.91415 -0.178537 5.15997 0.00641631 5.16232 1.00844C5.16232 3.75466 5.18339 6.50087 5.16232 9.24708C5.1415 9.67039 5.22548 10.0923 5.40681 10.4754C5.58814 10.8585 5.86121 11.1909 6.2018 11.4431C6.86202 11.9558 6.88543 12.293 6.39378 13H0.00234102V11.4548C0.256257 11.2775 0.459979 11.0374 0.593715 10.7581C0.72745 10.4787 0.786652 10.1695 0.765568 9.86047C0.742156 7.98752 0.73045 6.10287 0.765568 4.22523C0.80543 3.42085 0.53089 2.63249 0 2.02686L0.00234102 1.71782Z" fill="var(--fill-0, #333333)"/>
<path id="Vector_4" d="M9.43747 0.0310372C11.7459 0.0310372 12.2305 1.24845 11.6546 3.3087C11.6092 3.47846 11.5255 3.63555 11.4099 3.76791C11.2943 3.90026 11.1499 4.00435 10.9878 4.07218C10.8257 4.14 10.6502 4.16976 10.4748 4.15917C10.2994 4.14857 10.1287 4.0979 9.97595 4.01105C9.08396 3.57325 8.24113 3.66924 7.37255 4.06022C6.90431 4.27561 6.35647 4.73214 5.86482 4.34116C5.32635 3.91507 5.61432 3.24314 5.75011 2.68594C6.16684 1.01199 7.54111 0.028696 9.43747 0.0310372Z" fill="var(--fill-0, #333333)"/>
</g>
</g>
</svg>
