<svg preserveAspectRatio="none" width="100%" height="100%" overflow="visible" style="display: block;" viewBox="0 0 20 20" fill="none" xmlns="http://www.w3.org/2000/svg">
<g id="Frame" clip-path="url(#clip0_14159_46468)">
<g id="Vector">
</g>
<path id="Vector_2" d="M2.5 5.83333C2.5 5.39131 2.67559 4.96738 2.98816 4.65482C3.30072 4.34226 3.72464 4.16667 4.16667 4.16667H15.8333C16.2754 4.16667 16.6993 4.34226 17.0118 4.65482C17.3244 4.96738 17.5 5.39131 17.5 5.83333V14.1667C17.5 14.6087 17.3244 15.0326 17.0118 15.3452C16.6993 15.6577 16.2754 15.8333 15.8333 15.8333H4.16667C3.72464 15.8333 3.30072 15.6577 2.98816 15.3452C2.67559 15.0326 2.5 14.6087 2.5 14.1667V5.83333Z" stroke="var(--stroke-0, #565656)" stroke-width="1.25" stroke-linecap="round" stroke-linejoin="round"/>
<path id="Vector_3" d="M2.5 5.83333L10 10.8333L17.5 5.83333" stroke="var(--stroke-0, #565656)" stroke-width="1.25" stroke-linecap="round" stroke-linejoin="round"/>
</g>
<defs>
<clipPath id="clip0_14159_46468">
<rect width="20" height="20" fill="white"/>
</clipPath>
</defs>
</svg>
