<svg preserveAspectRatio="none" width="100%" height="100%" overflow="visible" style="display: block;" viewBox="0 0 17.2667 17.2664" fill="none" xmlns="http://www.w3.org/2000/svg">
<g id="Frame 1000007636">
<path id="Vector" d="M9.52085 0.00106219C10.1508 -0.00135521 10.7808 0.00497625 11.4106 0.0200546L11.5781 0.0260976C11.7714 0.0330039 11.9622 0.0416368 12.1927 0.0519963C13.1113 0.0951607 13.738 0.240193 14.2879 0.453426C14.8577 0.672701 15.3377 0.969672 15.8177 1.44966C16.2566 1.88097 16.5962 2.40269 16.8131 2.97855C17.0263 3.52846 17.1713 4.15607 17.2145 5.07461C17.2248 5.30425 17.2335 5.4959 17.2404 5.68927L17.2456 5.85675C17.2609 6.48626 17.2675 7.11594 17.2654 7.74563L17.2663 8.38964V9.52055C17.2684 10.1505 17.2618 10.7805 17.2464 11.4103L17.2412 11.5778C17.2343 11.7711 17.2257 11.9619 17.2153 12.1924C17.1722 13.111 17.0254 13.7377 16.8131 14.2876C16.5969 14.8641 16.2572 15.3863 15.8177 15.8174C15.386 16.2562 14.864 16.5959 14.2879 16.8128C13.738 17.026 13.1113 17.171 12.1927 17.2142C11.9622 17.2245 11.7714 17.2332 11.5781 17.2401L11.4106 17.2453C10.7808 17.2606 10.1508 17.2672 9.52085 17.2651L8.87684 17.266H7.74679C7.11682 17.2681 6.48684 17.2615 5.85705 17.2461L5.68957 17.2409C5.48464 17.2335 5.27975 17.2249 5.07491 17.215C4.15637 17.1719 3.52962 17.0251 2.97884 16.8128C2.40276 16.5964 1.88095 16.2566 1.44996 15.8174C1.01059 15.386 0.670604 14.8639 0.453725 14.2876C0.240493 13.7377 0.0954599 13.111 0.0522954 12.1924C0.0426809 11.9876 0.0340479 11.7827 0.0263968 11.5778L0.0220804 11.4103C0.00616447 10.7805 -0.00103038 10.1505 0.000498118 9.52055V7.74563C-0.00191129 7.11595 0.00442017 6.48626 0.0194905 5.85675L0.0255335 5.68927C0.0324398 5.4959 0.0410727 5.30425 0.0514322 5.07461C0.0945966 4.15521 0.239629 3.52932 0.452861 2.97855C0.669869 2.4024 1.01052 1.88083 1.45082 1.45052C1.88151 1.0109 2.403 0.670606 2.97884 0.453426C3.52962 0.240193 4.15551 0.0951607 5.07491 0.0519963L5.68957 0.0260976L5.85705 0.0217813C6.48655 0.00587328 7.11623 -0.00132157 7.74593 0.00019896L9.52085 0.00106219ZM8.63339 4.31751C8.06146 4.30942 7.49364 4.41508 6.9629 4.62835C6.43217 4.84162 5.94912 5.15825 5.54182 5.55983C5.13452 5.96141 4.81109 6.43994 4.59034 6.9676C4.36958 7.49526 4.2559 8.06154 4.2559 8.63352C4.2559 9.2055 4.36958 9.77178 4.59034 10.2994C4.81109 10.8271 5.13452 11.3056 5.54182 11.7072C5.94912 12.1088 6.43217 12.4254 6.9629 12.6387C7.49364 12.852 8.06146 12.9576 8.63339 12.9495C9.77818 12.9495 10.8761 12.4948 11.6856 11.6853C12.4951 10.8758 12.9498 9.77788 12.9498 8.63309C12.9498 7.4883 12.4951 6.39039 11.6856 5.5809C10.8761 4.77141 9.77818 4.31751 8.63339 4.31751ZM8.63339 6.04409C8.97741 6.03775 9.31926 6.10002 9.63894 6.22728C9.95863 6.35454 10.2498 6.54422 10.4953 6.78526C10.7409 7.02629 10.9359 7.31384 11.0691 7.63111C11.2023 7.94837 11.2709 8.289 11.271 8.63308C11.271 8.97717 11.2025 9.31781 11.0694 9.63512C10.9364 9.95244 10.7414 10.24 10.4959 10.4812C10.2505 10.7223 9.95939 10.9121 9.63975 11.0394C9.3201 11.1668 8.97828 11.2292 8.63425 11.223C7.94738 11.223 7.28863 10.9501 6.80294 10.4644C6.31724 9.97871 6.04438 9.31997 6.04438 8.63309C6.04438 7.94621 6.31724 7.28747 6.80294 6.80178C7.28863 6.31608 7.94738 6.04322 8.63425 6.04322L8.63339 6.04409ZM13.1657 3.02257C12.8872 3.03372 12.6238 3.1522 12.4307 3.35319C12.2375 3.55418 12.1297 3.8221 12.1297 4.10082C12.1297 4.37955 12.2375 4.64746 12.4307 4.84846C12.6238 5.04945 12.8872 5.16792 13.1657 5.17907C13.4519 5.17907 13.7263 5.06538 13.9287 4.86301C14.1311 4.66063 14.2448 4.38616 14.2448 4.09996C14.2448 3.81376 14.1311 3.53928 13.9287 3.33691C13.7263 3.13454 13.4519 3.02085 13.1657 3.02085V3.02257Z" fill="var(--fill-0, #A5A9AC)"/>
</g>
</svg>
