<svg width="178" height="66" viewBox="0 0 178 66" fill="none" xmlns="http://www.w3.org/2000/svg">
<path d="M43.5588 43.2879H35.8091C36.8119 42.3814 37.0873 39.1181 37.4501 33.2267L37.5411 31.867C37.8147 28.6034 37.9059 25.9753 37.9059 24.1624C37.9059 22.6216 37.7235 21.6244 37.2668 21.2619H45.9276C48.0247 21.2619 52.1275 21.3523 52.1275 25.6125C52.1275 28.5131 49.4839 30.2352 47.0219 30.8689C50.4864 31.1406 53.0394 32.8616 53.0394 36.3981C53.1306 40.2052 49.4836 43.2871 43.5574 43.2871L43.5588 43.2879ZM43.2837 32.591H41.7339L41.4605 35.8546C41.3693 37.3047 41.2781 38.4827 41.2781 39.9334C41.2781 40.1148 41.9172 40.5688 43.3752 40.5688C46.4752 40.5688 48.4808 39.0277 48.4808 36.4897C48.5717 33.6801 46.1103 32.5922 43.2837 32.5922V32.591ZM43.9228 23.8907C43.4045 23.8783 42.886 23.9085 42.3727 23.9811C42.1224 25.5411 41.9707 27.1152 41.9186 28.6941C41.9186 28.6941 41.8274 30.0538 41.8274 29.9632H42.3744C45.2007 29.9632 47.754 28.9662 47.754 26.4281C47.8446 24.978 46.5681 23.8904 43.9243 23.8904L43.9228 23.8907ZM71.276 43.469C69.3616 43.469 69.1791 43.3783 67.7205 38.2127L67.1732 36.3092C66.2616 36.7623 64.6205 36.9445 62.0676 36.9445H59.424L58.9682 37.9415C58.5124 38.9388 57.4184 41.0237 57.4184 42.2924C57.411 42.6271 57.4415 42.9615 57.5093 43.2894H52.2222C53.6808 41.8393 55.687 38.304 58.3309 32.6843L59.8807 29.4208C61.2484 26.4296 62.7982 23.0757 62.7982 22.6228C62.7953 22.1856 62.7023 21.7536 62.5249 21.3535H67.3551C67.3551 21.3535 68.6315 26.0668 69.7256 30.0553L70.6374 33.4996C72.2785 39.3913 73.3725 42.2011 74.649 43.2902C73.3725 43.3812 71.8227 43.4719 71.2754 43.4719L71.276 43.469ZM64.3463 26.4322L60.6993 34.137H66.5344L64.3454 26.4284L64.3463 26.4322ZM92.2444 44.1942C90.6034 44.1942 90.24 43.9224 89.6918 43.1972L83.401 34.6774C82.9452 33.9522 82.4891 33.499 81.7599 33.499H81.669L81.5778 35.2212C81.4868 37.4875 81.3044 39.3001 81.3044 40.6598C81.3044 42.1099 81.4869 43.0164 81.9435 43.3789H75.926C76.8379 42.6537 77.1113 40.1154 77.6583 33.3177L77.7492 31.958C78.0226 28.6944 78.1141 26.0663 78.1141 24.2534C78.1141 22.7126 77.9317 21.7157 77.475 21.3529H85.5896C88.3247 21.3529 91.8804 21.8061 91.8804 26.0663C91.8804 29.6013 89.5099 31.5048 86.5933 32.4111C86.9802 32.8148 87.3454 33.2385 87.6873 33.6804L92.155 39.5721C94.9813 43.2885 95.1634 43.471 96.1668 43.923C94.8671 44.1007 93.5569 44.1916 92.245 44.1951L92.2444 44.1942ZM84.2216 23.9819C83.6427 23.9669 83.0635 23.9972 82.4894 24.0726C82.3069 24.9789 82.216 26.6104 82.0336 29.2391L81.9426 30.7802C82.2713 30.855 82.6086 30.8854 82.9455 30.8706C85.6805 30.8706 87.5952 29.1484 87.5952 26.7011C87.504 24.9789 86.3188 23.9819 84.2216 23.9819ZM104.006 43.7419C98.2625 43.7419 94.9804 39.0286 94.9804 33.8618C94.9804 26.6107 98.992 20.9001 106.559 20.9001C108.93 20.9001 110.024 21.3532 112.029 21.3532L111.483 26.9723C110.389 24.9795 108.565 23.7087 106.196 23.7087C101.455 23.7087 99.5401 28.7845 99.5401 33.1354C99.5401 37.8488 102.275 40.4775 105.74 40.4775C107.654 40.4775 109.387 40.0244 112.213 38.0302C111.028 41.4745 108.384 43.7408 104.007 43.7408L104.006 43.7419ZM143.03 43.4687C141.115 43.4687 141.025 43.378 139.474 38.2124L138.927 36.3089C138.015 36.762 136.374 36.9442 133.821 36.9442H131.086L130.63 37.9412C129.901 39.3916 129.08 41.1138 129.08 42.2921C129.08 42.5639 129.171 42.9275 129.171 43.2891H113.489C114.4 42.2921 114.674 39.0289 115.13 33.2279L115.221 31.8681C115.494 28.5145 115.585 25.9764 115.585 24.1636C115.585 22.7135 115.403 21.7162 115.038 21.2631H121.147C120.235 21.8985 119.962 25.4326 119.597 31.3243L119.506 32.684C119.415 34.8593 119.05 37.1253 119.05 39.2111C119.05 40.2081 119.415 40.4801 120.509 40.4801C124.247 40.4801 125.067 40.3897 126.8 39.3018C127.894 37.3982 128.988 35.0416 130.173 32.5942L131.723 29.3307C133.181 26.2488 134.64 23.0762 134.64 22.5324C134.637 22.0953 134.544 21.6634 134.367 21.2634H139.199C139.199 21.2634 141.114 28.4241 141.57 29.9649L142.482 33.4095C144.123 39.3012 145.125 42.111 146.584 43.2001C145.405 43.3547 144.218 43.4455 143.029 43.4722L143.03 43.4687ZM136.099 26.4325L132.544 34.1333H138.287L136.1 26.4284L136.099 26.4325ZM156.887 31.4136C156.432 32.3201 155.702 33.4063 155.337 34.3141C154.973 35.9455 154.881 38.1211 154.881 40.4778C154.881 41.4748 155.064 42.8345 155.521 43.2876H149.502C150.596 42.2907 150.961 36.2176 150.961 34.2234C150.036 31.2244 148.846 28.3125 147.405 25.5219C146.311 23.5291 145.126 21.6229 144.305 21.2616C145.673 21.171 147.405 21.0803 148.227 21.0803C149.685 21.0803 150.141 21.2616 151.053 23.2556C152.512 26.5191 153.515 28.9659 154.153 30.6881C155.611 28.3314 156.706 26.6999 158.075 24.4339C158.348 23.8901 158.714 23.1649 158.714 22.5304C158.714 22.0772 158.623 21.4427 158.44 21.2614H164.367C163.09 21.5337 157.985 29.601 156.891 31.4136H156.887ZM176.944 26.4284C176.417 25.5487 175.669 24.8194 174.775 24.3112C173.88 23.803 172.869 23.5332 171.839 23.5279C169.924 23.5279 168.283 24.2531 168.283 26.2473C168.283 27.9695 170.38 29.0572 172.568 30.5073C174.939 31.9574 177.4 33.7708 177.4 36.9428C177.4 41.0219 173.389 43.6507 168.648 43.6507C166.527 43.6222 164.429 43.2234 162.448 42.4723L162.812 37.0338C163.907 39.2091 165.912 40.9313 168.921 40.9313C171.2 40.9313 173.024 39.8433 173.024 37.8494C173.024 36.2179 171.656 35.1302 169.924 34.1333C166.277 31.958 163.998 30.2344 163.998 27.0632C163.998 22.3499 167.918 20.8091 172.112 20.8091C174.483 20.8091 176.033 21.2622 177.492 21.2622L176.944 26.4284Z" fill="#D9D9D9"/>
<path d="M26.9653 24.4347C26.6487 23.6621 26.1094 22.9998 25.4152 22.5311C25.0226 22.2367 24.5939 21.9931 24.1396 21.8059C23.7541 21.6947 23.3557 21.6337 22.9544 21.6245H22.8614C22.3144 21.6245 21.3116 21.7152 20.7645 22.5311C20.6262 22.7088 20.5299 22.915 20.4826 23.1347C20.4352 23.3543 20.4382 23.5818 20.4912 23.8001C20.5313 23.9873 20.6197 24.1608 20.7475 24.3039C20.8754 24.4469 21.0384 24.5544 21.2206 24.616C21.2972 24.679 21.3947 24.7112 21.494 24.7064C21.4782 24.8012 21.4474 24.893 21.4028 24.9782C21.1294 25.25 20.6733 25.7034 19.3059 25.7034H19.2156C18.4861 25.613 17.9391 25.4316 17.1187 24.6157C16.6629 24.0719 16.3893 23.0747 16.3893 21.5339C16.4073 20.8592 16.3149 20.1862 16.1156 19.5411C15.9794 19.1673 15.723 18.8487 15.3862 18.6345C15.102 18.4472 14.7959 18.295 14.4746 18.1814C13.9633 18.0816 13.4451 18.021 12.9245 18C12.3774 18 12.0126 18.0907 11.8304 18.3627H11.2834C11.01 18.3627 10.6443 18.4531 10.3718 18.4531C9.89788 18.5521 9.45763 18.771 9.09361 19.0885C8.84886 19.3135 8.66138 19.593 8.54659 19.9041C8.56353 20.1176 8.5939 20.3298 8.63752 20.5395L8.72873 20.6299C9.01841 20.4206 9.37511 20.3239 9.73155 20.3581C10.3707 20.3581 11.2814 20.6299 11.4638 21.0833C11.9196 21.8085 11.7372 22.3523 11.7372 22.9869C11.4638 24.709 10.8256 25.5249 9.4579 25.706C9.22133 25.7755 8.97494 25.8061 8.72844 25.7967C7.72563 25.7967 6.99618 25.5249 6.63131 24.8901V24.7087C6.7013 24.7022 6.76634 24.67 6.81374 24.6183C6.98804 24.5438 7.14374 24.4321 7.26979 24.2911C7.39585 24.1501 7.48918 23.9833 7.54319 23.8024C7.59092 23.5838 7.59122 23.3575 7.54408 23.1386C7.49695 22.9198 7.40345 22.7135 7.26983 22.5334C6.99791 22.252 6.67255 22.027 6.31258 21.8713C5.95261 21.7157 5.56518 21.6326 5.17269 21.6269C4.74089 21.6293 4.31144 21.6904 3.89622 21.8082C2.8019 22.08 1.79909 22.9866 1.06992 24.4364C0.481291 25.6245 0.140663 26.9187 0.0685626 28.2412C-0.0228542 29.4783 -0.0228542 30.7204 0.0685626 31.9575C0.126308 33.3602 0.435101 34.7414 0.98045 36.0364C1.41665 37.1759 1.9663 38.2691 2.62121 39.2999C2.75245 39.5539 2.90492 39.7965 3.07701 40.0251L3.16822 39.9347C3.28079 39.8314 3.37343 39.7084 3.44159 39.572C3.89038 39.1346 4.28799 38.6481 4.62684 38.1219C4.87787 37.7507 5.09192 37.356 5.26594 36.9435L5.35716 36.7625L5.5396 36.8528C5.72212 37.05 5.82018 37.3102 5.81296 37.5781C5.77828 37.9525 5.68609 38.3194 5.5396 38.666C5.29574 39.385 4.99027 40.0818 4.62655 40.7489C4.71747 40.8396 4.71747 41.0209 4.62655 41.0209C4.44794 41.2556 4.35189 41.5422 4.35318 41.8365H4.44353C4.71954 41.7966 4.97529 41.6694 5.17298 41.4738C5.44635 41.2927 6.1758 40.6582 7.08769 39.3892C7.81714 38.4826 8.27294 37.4856 8.81995 36.398L8.91117 36.2166L9.09332 36.3073C9.18453 36.3977 9.27575 36.3977 9.36668 36.4884C9.4476 36.7211 9.47867 36.9682 9.4579 37.2136C9.36668 37.9388 8.91088 38.936 8.63723 39.6612C8.09021 40.9302 7.0874 42.2894 6.35794 43.2869C6.33824 43.351 6.30301 43.4093 6.25535 43.4567C6.20768 43.5041 6.14904 43.5391 6.08458 43.5587C6.18836 43.6707 6.31194 43.7628 6.44916 43.8305L6.72281 44.1022C7.68238 44.8997 8.72093 45.5983 9.82248 46.1871C11.0902 46.9332 12.4353 47.5411 13.8343 48C15.1108 47.7282 16.9343 46.7307 17.8462 46.1871C18.9478 45.5983 19.9865 44.8998 20.9461 44.1022L21.2195 43.8305C21.4016 43.7401 21.4928 43.5587 21.5841 43.5587C21.6477 43.4486 21.6792 43.3231 21.6753 43.1962L21.5832 43.1067C20.6785 41.9944 19.9131 40.7769 19.3039 39.481C19.0305 38.7558 18.5744 37.7588 18.4832 37.0336C18.4167 36.7894 18.4495 36.5289 18.5744 36.3084L18.7566 36.1271C18.8354 36.068 18.9315 36.0363 19.0302 36.0367L19.1212 36.2178C19.6241 37.2557 20.2031 38.2554 20.8534 39.2089C21.7653 40.478 22.4945 41.1125 22.7681 41.2939C22.955 41.504 23.2164 41.6339 23.4976 41.6563H23.5888C23.6797 41.5659 23.5888 41.3845 23.3152 40.9311C23.2806 40.8954 23.2546 40.8525 23.2388 40.8054C23.2231 40.7584 23.2181 40.7085 23.2242 40.6593C22.8607 39.9917 22.5556 39.2941 22.3123 38.5744C22.1754 38.2248 22.0836 37.8594 22.039 37.4868C22.0316 37.2189 22.1297 36.9587 22.3123 36.7616L22.4948 36.6709L22.5857 36.8523C22.789 37.2968 23.0331 37.7216 23.3152 38.1213C23.4976 38.3931 24.227 39.2092 24.4095 39.481C24.5919 39.6624 24.6828 39.7528 24.6828 39.8435L24.7738 39.9341C24.9218 39.7384 25.0444 39.525 25.1386 39.2988L25.2296 39.2084C25.8358 38.1648 26.3542 37.0732 26.7797 35.9448C27.2355 34.8572 27.5091 33.6788 27.6916 31.866C27.8288 30.631 27.8288 29.3848 27.6916 28.1499C27.752 26.8712 27.5029 25.5967 26.9653 24.4335V24.4347Z" fill="#D9D9D9"/>
</svg>
