<svg width="198" height="66" viewBox="0 0 198 66" fill="none" xmlns="http://www.w3.org/2000/svg">
<g clip-path="url(#clip0_6614_58192)">
<path d="M62.677 31.3614C62.6705 37.335 60.2854 41.9436 56.3677 45.86C51.9783 50.2485 46.681 53.0774 40.4401 53.7823C33.7307 54.5413 27.3792 53.374 22.0689 48.9441C18.0731 45.6113 16.2542 41.21 16.0297 36.1039C15.8768 32.6244 16.2868 29.2724 17.9007 26.1214C21.0927 19.8863 26.1785 15.7561 32.8261 13.4917C39.1418 11.3421 45.4804 11.4697 51.6008 14.1742C58.1248 17.0542 61.6487 22.1762 62.4948 29.1034C62.5989 29.9709 62.6347 30.8448 62.677 31.3614ZM35.5105 31.4986C35.7481 31.3869 35.9498 31.304 36.1385 31.2052C37.4791 30.5035 38.2112 28.9057 37.9607 27.2472C37.7036 25.5473 36.8316 24.4917 35.1201 24.3673C32.6667 24.1887 30.197 24.2365 27.7338 24.2365C27.5711 24.2365 27.2718 24.6447 27.2718 24.868C27.2425 28.8004 27.2555 32.7328 27.249 36.6653C27.249 37.1309 27.4247 37.3446 27.9193 37.3318C28.6514 37.3127 29.3868 37.2904 30.1157 37.3382C30.8152 37.386 31.0723 37.1692 31.043 36.4484C30.9877 35.0228 31.0267 33.5908 31.0267 32.1747C31.7914 31.9578 32.2176 32.28 32.5007 32.8221C32.9498 33.6705 33.4964 34.4965 33.7697 35.3959C34.2643 37.0256 35.2567 37.6284 36.939 37.3446C37.5475 37.2425 38.1885 37.3286 38.8165 37.3286C38.8457 37.2393 38.875 37.15 38.9043 37.0607C37.7947 35.2205 37.4824 32.937 35.5105 31.4986ZM43.7298 27.1388C45.0866 27.1388 46.3556 27.1388 47.6246 27.1388C49.9642 27.1388 49.9544 27.1388 49.8145 24.8552C49.7885 24.4056 49.6648 24.1919 49.1539 24.1951C46.2808 24.2142 43.4076 24.211 40.5345 24.1982C40.0724 24.1951 39.9065 24.3832 39.9098 24.8138C39.913 28.7717 39.913 32.7296 39.9098 36.6876C39.9098 37.1086 40.0659 37.3286 40.5247 37.3286C43.4792 37.3222 46.4337 37.3222 49.3882 37.3286C49.86 37.3286 49.9967 37.0862 49.9869 36.6748C49.9772 36.1167 49.9609 35.5586 49.9934 35.0004C50.026 34.4264 49.8242 34.2031 49.206 34.2191C47.6897 34.2573 46.1702 34.235 44.6539 34.2286C44.3643 34.2286 44.0747 34.2031 43.7656 34.1872C43.7656 33.3611 43.7656 32.6085 43.7656 31.8781C43.8762 31.8398 43.925 31.8111 43.9771 31.8111C45.0866 31.8047 46.1995 31.7984 47.309 31.7952C49.5639 31.792 49.5477 31.792 49.3882 29.5914C49.3492 29.0651 49.0824 28.995 48.6529 29.0013C47.3513 29.0109 46.0498 29.0045 44.7482 29.0045C44.4131 29.0045 44.0779 29.0045 43.733 29.0045C43.7298 28.3252 43.7298 27.799 43.7298 27.1388ZM51.9035 30.7236C51.9035 32.6882 51.9165 34.656 51.8937 36.6206C51.8872 37.1277 52.0531 37.3478 52.5868 37.3318C53.4002 37.3063 54.2137 37.3159 55.0239 37.3286C55.4925 37.3382 55.7137 37.1755 55.7137 36.6812C55.704 32.7233 55.704 28.7653 55.7105 24.8106C55.7105 24.3768 55.5478 24.1855 55.089 24.1982C54.3308 24.2206 53.5694 24.2461 52.8145 24.1919C52.1182 24.1408 51.8644 24.3418 51.8872 25.0689C51.9392 26.9506 51.9035 28.8387 51.9035 30.7236Z" fill="#D9D9D9"/>
<path d="M115.925 24.3951C116.709 24.3951 117.458 24.3951 118.284 24.3951C118.284 26.2162 118.284 28.0118 118.284 30.0051C118.564 29.75 118.72 29.6351 118.844 29.4948C120.191 27.9671 121.551 26.449 122.866 24.8958C123.217 24.4812 123.578 24.3122 124.112 24.3377C124.89 24.3696 125.667 24.3473 126.679 24.3473C125.052 26.1141 123.575 27.7184 122.059 29.3672C123.66 31.9538 125.254 34.5307 126.949 37.2703C125.843 37.2703 124.906 37.299 123.975 37.2448C123.79 37.2353 123.575 36.9291 123.455 36.7154C122.426 34.9134 121.418 33.0987 120.441 31.351C117.803 32.6299 118.291 34.9964 118.333 37.2257C117.487 37.2257 116.742 37.2257 115.922 37.2257C115.925 32.9712 115.925 28.7389 115.925 24.3951Z" fill="#D9D9D9"/>
<path d="M178.141 37.2677C177.099 37.2677 176.234 37.3092 175.378 37.2422C175.134 37.2231 174.835 36.936 174.695 36.6968C173.758 35.0798 172.86 33.4437 171.949 31.8172C171.848 31.6386 171.734 31.4632 171.571 31.2048C170.927 31.8937 170.305 32.5156 169.743 33.1854C169.596 33.3608 169.583 33.6766 169.577 33.9317C169.56 35.0129 169.57 36.094 169.57 37.2231C168.731 37.2231 167.985 37.2231 167.156 37.2231C167.133 36.9552 167.094 36.7 167.094 36.4481C167.091 32.7006 167.11 28.9564 167.074 25.2089C167.068 24.4882 167.299 24.2617 167.998 24.3319C168.477 24.3797 168.965 24.3414 169.534 24.3414C169.534 26.2104 169.534 28.006 169.534 29.7984C169.593 29.8271 169.651 29.8558 169.71 29.8845C170.039 29.5241 170.371 29.1701 170.693 28.8033C171.841 27.4957 172.964 26.1625 174.151 24.8868C174.418 24.5998 174.9 24.4052 175.307 24.3606C176.081 24.2777 176.868 24.3383 177.806 24.3383C177.61 24.6157 177.513 24.7879 177.383 24.9315C176.169 26.255 174.968 27.5914 173.725 28.8862C173.377 29.2466 173.367 29.4922 173.624 29.9004C175.024 32.1106 176.39 34.3431 177.767 36.5661C177.867 36.7447 177.955 36.9296 178.141 37.2677Z" fill="#D9D9D9"/>
<path d="M111.558 32.54C112.371 32.8111 113.107 33.0567 113.826 33.2991C113.497 35.4264 112.043 36.9636 110.045 37.3527C107.588 37.8311 105.424 36.9413 104.162 34.9288C102.721 32.6261 102.844 28.4482 104.471 26.2699C105.825 24.4583 107.715 23.8555 109.918 24.1936C112.01 24.5125 113.286 25.75 113.852 27.8677C113.058 28.0718 112.293 28.2664 111.512 28.4641C111.434 28.3206 111.379 28.2345 111.34 28.142C110.79 26.8567 109.944 26.2762 108.685 26.3241C107.429 26.3719 106.381 27.1597 106.023 28.4194C105.571 30.0141 105.587 31.6311 106.052 33.2194C106.414 34.46 107.452 35.2318 108.659 35.2637C109.872 35.2956 110.774 34.6386 111.262 33.3629C111.353 33.1205 111.438 32.8717 111.558 32.54Z" fill="#D9D9D9"/>
<path d="M83.4501 24.4839C83.4501 27.9985 83.4501 31.4908 83.4501 35.0851C85.5391 35.0851 87.5532 35.0851 89.6162 35.0851C89.6162 35.8378 89.6162 36.4884 89.6162 37.1741C89.4925 37.206 89.3656 37.2634 89.242 37.2666C86.6975 37.273 84.153 37.2698 81.6085 37.2762C81.244 37.2762 80.9805 37.2411 80.9805 36.7787C80.9967 32.7474 81 28.7129 81.0098 24.6816C81.0098 24.6338 81.0488 24.5859 81.0878 24.4871C81.833 24.4839 82.6009 24.4839 83.4501 24.4839Z" fill="#D9D9D9"/>
<path d="M35.5109 31.4995C37.4827 32.9379 37.7951 35.2247 38.9014 37.0649C38.8721 37.1542 38.8428 37.2435 38.8135 37.3328C38.1856 37.3328 37.5445 37.2467 36.9361 37.3487C35.2538 37.6326 34.2614 37.0298 33.7668 35.4001C33.4935 34.4975 32.9468 33.6715 32.4978 32.8263C32.2115 32.2873 31.7852 31.9652 31.0238 32.1789C31.0238 33.5949 30.9848 35.0269 31.0401 36.4525C31.0694 37.1733 30.8123 37.3902 30.1127 37.3424C29.3839 37.2945 28.6485 37.3137 27.9164 37.336C27.4218 37.3487 27.2461 37.1351 27.2461 36.6694C27.2526 32.737 27.2428 28.8046 27.2689 24.8722C27.2689 24.6521 27.5715 24.2407 27.7309 24.2407C30.1941 24.2407 32.6638 24.1928 35.1172 24.3714C36.8287 24.4958 37.7007 25.5483 37.9578 27.2514C38.2083 28.9098 37.4762 30.5045 36.1356 31.2093C35.9469 31.3018 35.7484 31.3879 35.5109 31.4995ZM31.1247 27.0058C30.7277 29.3531 31.3459 29.9495 33.3601 29.283C34.0011 29.0693 34.2386 28.6164 34.1735 27.9913C34.1085 27.3662 33.7148 27.0409 33.0998 27.0122C32.4555 26.9835 31.8047 27.0058 31.1247 27.0058Z" fill="#090909"/>
<path d="M43.7295 27.1391C43.7295 27.7993 43.7295 28.3255 43.7295 29.0048C44.0712 29.0048 44.4063 29.0048 44.7447 29.0048C46.0463 29.0048 47.3478 29.0112 48.6494 29.0016C49.0821 28.9984 49.3489 29.0654 49.3847 29.5917C49.5442 31.7955 49.5604 31.7923 47.3055 31.7955C46.1959 31.7987 45.0831 31.805 43.9736 31.8114C43.9248 31.8114 43.8727 31.8433 43.7621 31.8784C43.7621 32.6087 43.7621 33.3614 43.7621 34.1874C44.0712 34.2034 44.3608 34.2257 44.6504 34.2289C46.1667 34.2321 47.6862 34.2576 49.2025 34.2193C49.824 34.2034 50.0225 34.4266 49.9899 35.0007C49.9574 35.5557 49.9737 36.117 49.9834 36.6751C49.9899 37.0865 49.8565 37.3289 49.3847 37.3289C46.4302 37.3225 43.4757 37.3225 40.5212 37.3289C40.0624 37.3289 39.9062 37.112 39.9062 36.6879C39.9128 32.7299 39.9128 28.772 39.9062 24.8141C39.9062 24.3835 40.0689 24.1985 40.531 24.1985C43.4041 24.2113 46.2773 24.2145 49.1504 24.1953C49.6613 24.1922 49.785 24.4058 49.811 24.8555C49.9509 27.1391 49.9607 27.1391 47.6211 27.1391C46.3554 27.1391 45.0864 27.1391 43.7295 27.1391Z" fill="#090909"/>
<path d="M51.9001 30.7247C51.9001 28.8399 51.9359 26.9518 51.8839 25.0669C51.8643 24.3398 52.1149 24.142 52.8112 24.1899C53.5661 24.2441 54.3275 24.2186 55.0857 24.1962C55.5444 24.1835 55.7104 24.3748 55.7071 24.8086C55.7006 28.7665 55.6974 32.7244 55.7104 36.6792C55.7104 37.1735 55.4891 37.333 55.0206 37.3266C54.2071 37.3107 53.3937 37.3043 52.5834 37.3298C52.0498 37.3457 51.8839 37.1257 51.8904 36.6186C51.9131 34.6572 51.9001 32.6894 51.9001 30.7247Z" fill="#090909"/>
<path fill-rule="evenodd" clip-rule="evenodd" d="M128.332 37.1368V24.4752C129.044 24.4752 129.752 24.4667 130.457 24.4582C132.154 24.4378 133.834 24.4176 135.507 24.5167C136.72 24.5869 137.521 25.499 137.866 26.6663C138.227 27.891 137.931 28.9753 137.01 29.8843C136.901 29.9911 136.78 30.0873 136.643 30.1958L136.643 30.1959L136.643 30.1959C136.568 30.256 136.487 30.3198 136.402 30.3914C137.462 30.8602 138.26 31.5268 138.507 32.6526C138.735 33.6796 138.578 34.6555 138.042 35.5708C137.521 36.4575 136.737 37.0826 135.712 37.1145C133.988 37.1663 132.266 37.156 130.518 37.1455H130.518C129.794 37.1412 129.066 37.1368 128.332 37.1368ZM132.038 35.019H132.038H132.038C132.626 35.0281 133.201 35.0371 133.772 35.0259C134.11 35.0198 134.446 35.0067 134.782 34.9826C135.622 34.9188 136.068 34.2459 136.071 33.4039C136.074 32.6483 135.676 31.9727 135.013 31.802C134.95 31.7853 134.885 31.7732 134.817 31.766C133.91 31.6709 132.997 31.6356 132.064 31.5995H132.064C131.651 31.5836 131.234 31.5675 130.811 31.5459V35.0063C131.227 35.0063 131.635 35.0127 132.038 35.019ZM130.811 29.5457V29.5494C131.199 29.5308 131.582 29.5185 131.962 29.5063C132.816 29.4789 133.651 29.4521 134.479 29.3549C135.259 29.2624 135.647 28.6245 135.604 27.8495C135.591 27.604 135.533 27.3819 135.433 27.1924C135.223 26.7916 134.828 26.5356 134.275 26.5096C133.489 26.4741 132.701 26.4818 131.89 26.4898C131.536 26.4933 131.178 26.4969 130.813 26.4969C130.813 26.497 130.813 26.4971 130.813 26.4973C130.812 26.4973 130.812 26.4973 130.811 26.4973V28.7578C130.811 29.0143 130.81 29.2757 130.81 29.5458C130.81 29.5458 130.811 29.5458 130.811 29.5457Z" fill="#D9D9D9"/>
<path fill-rule="evenodd" clip-rule="evenodd" d="M76.7686 30.392C78.8901 31.5018 79.5246 33.291 78.5517 35.2844C78.0214 36.3751 77.1461 37.0831 75.9161 37.1373C74.4894 37.2023 73.0601 37.222 71.6306 37.2418H71.6306C70.8138 37.2531 69.997 37.2643 69.1806 37.2841C68.6357 37.298 68.6478 36.9795 68.6598 36.6629L68.6598 36.6629C68.6615 36.6166 68.6633 36.5702 68.6633 36.525C68.66 32.7042 68.66 28.8834 68.6633 25.0626C68.6633 24.9273 68.679 24.7906 68.6934 24.6654C68.7007 24.6018 68.7077 24.5412 68.7121 24.4854C69.4255 24.4854 70.1347 24.4773 70.8406 24.4694C72.5332 24.4503 74.2067 24.4314 75.8738 24.5236C77.1005 24.5938 77.901 25.5283 78.2296 26.6764C78.555 27.8118 78.3402 28.8898 77.4715 29.7764C77.3379 29.9116 77.19 30.0356 77.0279 30.1715C76.9452 30.2408 76.8588 30.3133 76.7686 30.392ZM75.3434 31.824C76.0739 31.9219 76.421 32.6215 76.3963 33.4722C76.3953 33.5089 76.3936 33.5458 76.3911 33.583L76.3899 33.6007C76.3559 34.0923 76.1769 34.4924 75.8547 34.7359C75.661 34.8833 75.4156 34.9736 75.1189 34.9927C74.2159 35.0486 73.3097 35.0371 72.3723 35.0252C71.9721 35.0202 71.5662 35.015 71.1524 35.015V31.5387L71.1525 31.5387L71.1525 31.5369C71.5627 31.5618 71.9713 31.5809 72.3781 31.5998H72.3781C73.3782 31.6464 74.3674 31.6925 75.3434 31.824ZM75.2875 29.2207C75.1266 29.303 74.9355 29.356 74.7136 29.3751C73.9182 29.4462 73.1133 29.4306 72.2857 29.4146C71.925 29.4077 71.5601 29.4006 71.1897 29.4006V26.4888C71.1903 26.4888 71.1909 26.4888 71.1915 26.4888V26.4882C71.5074 26.4882 71.8174 26.4861 72.1231 26.4838C72.1625 26.4834 72.2017 26.4831 72.2409 26.4828C72.9376 26.4767 73.6116 26.4709 74.2833 26.4908C74.3579 26.4928 74.4326 26.4952 74.5072 26.4978C75.4183 26.5329 75.8803 26.9953 75.9389 27.8054C75.9879 28.4586 75.7768 28.9726 75.2875 29.2207Z" fill="#D9D9D9"/>
<path d="M153.129 30.7217C153.405 29.5959 153.536 28.4126 153.985 27.3602C154.98 25.016 157.105 23.9125 159.845 24.1198C162.315 24.308 164.221 25.8357 164.895 28.1958C165.373 29.867 165.386 31.5605 164.95 33.2381C164.234 35.9904 162.064 37.5341 159.054 37.4767C156.21 37.4224 154.102 35.7002 153.506 32.9032C153.357 32.2047 153.334 31.484 153.253 30.7727C153.21 30.7568 153.168 30.7377 153.129 30.7217ZM162.812 30.8429C162.65 30.0264 162.562 29.2036 162.311 28.4286C161.882 27.105 160.766 26.3587 159.367 26.33C157.958 26.3013 156.776 26.9902 156.292 28.2628C155.644 29.9627 155.605 31.7072 156.36 33.388C156.923 34.6477 157.964 35.3047 159.389 35.2633C160.785 35.225 161.761 34.501 162.246 33.2604C162.542 32.5045 162.627 31.6689 162.812 30.8429Z" fill="#D9D9D9"/>
<path fill-rule="evenodd" clip-rule="evenodd" d="M149.499 36.4701C151.484 35.0827 151.959 33.0097 152.024 30.5348C152.01 30.4205 151.996 30.2859 151.981 30.1373C151.944 29.7716 151.899 29.3208 151.816 28.8763C151.318 26.2164 149.483 24.4878 146.821 24.137C144.153 23.7862 141.898 24.9056 140.766 27.2115C139.926 28.9273 139.874 30.758 140.177 32.5982C140.883 36.9102 145.894 38.996 149.499 36.4701ZM149.499 30.7979C149.513 30.8019 149.527 30.8058 149.541 30.809C149.493 31.0455 149.451 31.2838 149.409 31.5219C149.357 31.8169 149.306 32.1117 149.241 32.4024C149.187 32.6495 149.125 32.8936 149.045 33.1322C148.622 34.4112 147.474 35.2149 146.189 35.2627C145.239 35.2977 144.389 34.9913 143.771 34.3827C143.489 34.1048 143.255 33.7639 143.082 33.3637C142.353 31.6765 142.36 29.9384 143.047 28.2416C143.577 26.9276 144.755 26.2579 146.209 26.3249C147.318 26.3763 148.229 26.9061 148.774 27.8026C148.906 28.0189 149.017 28.2566 149.104 28.5141C149.215 28.8394 149.309 29.1775 149.361 29.5188C149.405 29.8148 149.421 30.1157 149.437 30.4169C149.444 30.5404 149.45 30.6639 149.459 30.7872C149.473 30.7903 149.486 30.7941 149.499 30.7979Z" fill="#D9D9D9"/>
<path fill-rule="evenodd" clip-rule="evenodd" d="M101.889 37.2814C102.112 37.2795 102.342 37.2776 102.584 37.2776C102.216 36.3158 101.854 35.3644 101.494 34.4207C100.407 31.5716 99.3474 28.7937 98.2694 26.0193C97.6174 24.3318 97.59 24.3319 95.7897 24.3352C95.7662 24.3353 95.7425 24.3353 95.7184 24.3354C95.2206 24.3386 94.9505 24.4566 94.7683 24.9541C93.7785 27.6702 92.7693 30.3811 91.7602 33.092C91.3959 34.0704 91.0317 35.0488 90.6684 36.0274C90.5668 36.3013 90.4701 36.5767 90.3621 36.8846C90.3179 37.0106 90.2718 37.1419 90.2227 37.2808C90.457 37.2808 90.6799 37.2834 90.8947 37.286C91.4255 37.2923 91.906 37.298 92.3832 37.2616C92.585 37.2457 92.8615 37.0384 92.9429 36.8502C93.2195 36.2155 93.4537 35.5617 93.6392 34.8984C93.7759 34.42 94.0362 34.286 94.5177 34.302C95.1701 34.3246 95.8241 34.3199 96.4775 34.3153C96.7463 34.3134 97.0151 34.3115 97.2835 34.3115C98.0561 34.3115 98.4359 34.3115 98.688 34.4909C98.9318 34.6644 99.0562 35.0055 99.3009 35.6765C99.3406 35.7846 99.3784 35.8939 99.4162 36.0032C99.5179 36.2972 99.6198 36.5918 99.7597 36.8662C99.8508 37.0384 100.079 37.2489 100.258 37.2584C100.78 37.2908 101.307 37.2863 101.889 37.2814ZM97.8924 31.8176C97.93 31.9234 97.9678 32.0297 98.0059 32.1364H98.0051C98.0052 32.1369 98.0054 32.1373 98.0056 32.1378H94.6313C94.6315 32.1373 94.6316 32.1369 94.6318 32.1364H94.6316C95.175 30.5513 95.6956 29.0396 96.2911 27.311C96.3442 27.4606 96.3968 27.6085 96.4488 27.7549C96.9556 29.1749 97.4117 30.4588 97.8924 31.8176Z" fill="#D9D9D9"/>
<path d="M31.1227 27.0049C31.8061 27.0049 32.4536 26.9825 33.0978 27.0112C33.7128 27.0399 34.1065 27.3621 34.1716 27.9903C34.2367 28.6186 33.9992 29.0715 33.3581 29.282C31.344 29.9518 30.7225 29.3522 31.1227 27.0049Z" fill="#D9D9D9"/>
</g>
<defs>
<clipPath id="clip0_6614_58192">
<rect width="162.14" height="42" fill="white" transform="translate(16 12)"/>
</clipPath>
</defs>
</svg>
