<svg width="123" height="67" viewBox="0 0 123 67" fill="none" xmlns="http://www.w3.org/2000/svg">
<g clip-path="url(#clip0_7303_66929)">
<path d="M0.000715175 37.128C-0.0206492 34.8377 0.436553 32.8166 1.38514 31.0604C2.32946 29.3085 3.6498 27.9156 5.35042 26.8901C7.04678 25.8646 9.02514 25.3518 11.2813 25.3518C12.999 25.3518 14.6398 25.7236 16.2037 26.4628C17.7633 27.1934 19.0281 28.3258 19.998 29.864C20.0749 30.0478 20.1561 30.2529 20.2373 30.4793C20.3142 30.6972 20.357 30.9152 20.357 31.1288C20.357 31.6074 20.1903 32.0261 19.8613 32.3765C19.528 32.7183 19.1093 32.8893 18.5965 32.8893C18.1051 32.8893 17.6906 32.7183 17.3488 32.3765C17.007 32.0261 16.8361 31.6074 16.8361 31.1288C16.8361 30.6502 17.007 30.24 17.3488 29.8982C17.6906 29.5478 18.1051 29.3684 18.5965 29.3684C18.8358 29.3684 19.058 29.4154 19.2631 29.5051C18.417 28.3685 17.3873 27.5353 16.1695 27.0097C14.9602 26.4756 13.7083 26.2064 12.4093 26.2064C10.4267 26.2064 8.71749 26.7191 7.28179 27.7446C5.85463 28.7702 4.76931 30.1119 4.01727 31.7612C3.26523 33.4148 2.88922 35.1881 2.88922 37.0767C2.9234 39.6063 3.41051 41.6744 4.3591 43.281C5.30342 44.8876 6.50412 46.0841 7.96546 46.8703C9.42253 47.6565 10.9223 48.0496 12.4606 48.0496C14.2039 48.0496 15.8276 47.601 17.3317 46.6994C18.8358 45.7892 19.8698 44.4903 20.4424 42.8025L20.7501 42.8537C20.3954 44.1185 19.7331 45.1953 18.7674 46.0841C17.8103 46.9728 16.6737 47.6522 15.3662 48.118C14.0544 48.5709 12.6828 48.8016 11.2471 48.8016C9.88828 48.8016 8.55085 48.5795 7.23051 48.1351C5.9059 47.6821 4.70521 46.9814 3.62416 46.0328C2.53884 45.0885 1.6757 43.8792 1.02622 42.4093C0.376733 40.9309 0.0348986 39.1705 0.000715175 37.128Z" fill="#D9D9D9"/>
<path d="M24.7214 42.8639V28.7462C24.7214 28.1779 24.5718 27.6694 24.277 27.225C23.9907 26.7721 23.5506 26.5413 22.9609 26.5413L27.2851 25.9089V42.8639C27.251 44.2441 27.5159 45.3679 28.0885 46.231C28.6696 47.0856 29.4131 47.7009 30.3275 48.0769C31.2504 48.4529 32.2332 48.6409 33.2843 48.6409C34.3098 48.6409 35.3054 48.4914 36.2754 48.1965C37.2539 47.8889 38.1213 47.4787 38.8733 46.9659C39.6254 46.4532 40.1638 45.8678 40.497 45.2055L40.6338 44.8978V28.7462C40.6338 28.1779 40.4885 27.6694 40.2065 27.225C39.9202 26.7721 39.4758 26.5413 38.8733 26.5413L43.2146 25.9089V45.2055C43.2146 46.1413 43.2873 46.8378 43.4368 47.2907C43.5821 47.7351 43.9239 47.9573 44.4623 47.9573C44.8811 47.9573 45.3938 47.8547 46.0006 47.6496C45.6117 47.9487 45.1204 48.1923 44.5307 48.3846C43.9496 48.5768 43.3855 48.6751 42.8386 48.6751C42.2447 48.6751 41.7276 48.5256 41.2833 48.2307C40.8474 47.9359 40.6338 47.4103 40.6338 46.6583V45.9233C39.698 46.9488 38.5187 47.718 37.0958 48.2307C35.6686 48.7435 34.2329 48.9999 32.7887 48.9999C31.4085 48.9999 30.0967 48.7648 28.8576 48.2991C27.627 47.8333 26.6271 47.1497 25.8665 46.2481C25.1017 45.3508 24.7214 44.2227 24.7214 42.8639Z" fill="#D9D9D9"/>
<path d="M57.1537 48.4088H48.8984C49.6718 48.4088 50.3256 48.1267 50.864 47.5542C51.4109 46.9731 51.6844 46.1441 51.6844 45.0588V28.6849C51.6844 28.1166 51.5477 27.6081 51.2742 27.1637C51.0093 26.7108 50.5777 26.4801 49.9752 26.4801L54.2994 25.8477V31.0436C54.8122 29.8728 55.5471 28.8815 56.5043 28.0696C57.4699 27.2492 58.5424 26.6296 59.7175 26.2066C60.8883 25.7879 62.0334 25.5742 63.1529 25.5742C63.5973 25.5742 64.1101 25.6383 64.6912 25.7622C65.2809 25.8776 65.8406 26.0699 66.3662 26.3433C66.8875 26.6168 67.2592 26.9843 67.4771 27.4372L67.6139 27.7961C67.7592 28.2747 67.7164 28.7276 67.4771 29.1464C67.2379 29.5694 66.8789 29.8557 66.4004 30.001C65.909 30.1163 65.4603 30.0651 65.0501 29.8471C64.6485 29.6207 64.375 29.266 64.2297 28.7875C64.1015 28.3003 64.1528 27.8474 64.3835 27.4372C64.61 27.0185 64.9647 26.745 65.4432 26.6168C65.4988 26.6168 65.55 26.6125 65.5971 26.5997C65.6398 26.5784 65.6825 26.5655 65.7167 26.5655C65.3279 26.3604 64.9006 26.2152 64.4348 26.1212C63.9648 26.0314 63.5033 25.9844 63.0504 25.9844C61.8198 25.9844 60.5892 26.2664 59.3586 26.8219C58.128 27.3817 57.0555 28.1123 56.1453 29.0097C55.2437 29.9112 54.6455 30.8855 54.3507 31.9323C54.3507 31.9665 54.3379 31.9964 54.3165 32.0178C54.3037 32.0306 54.2994 32.0477 54.2994 32.0691V45.0588C54.2994 46.1441 54.5814 46.9731 55.154 47.5542C55.7351 48.1267 56.4017 48.4088 57.1537 48.4088Z" fill="#D9D9D9"/>
<path d="M70.0156 36.907C70.0156 34.8005 70.4173 32.8691 71.2291 31.113C72.0495 29.3482 73.2289 27.9253 74.7671 26.84C76.3139 25.759 78.1726 25.2163 80.339 25.2163C81.9328 25.2163 83.4583 25.5581 84.9196 26.2418C86.3767 26.9169 87.5603 27.9125 88.4747 29.2329C89.3976 30.5575 89.8591 32.1641 89.8591 34.0527H73.075C72.9041 34.9671 72.8187 35.8986 72.8187 36.8558C72.84 39.2614 73.2844 41.2996 74.1518 42.9746C75.0278 44.6411 76.1558 45.893 77.536 46.7348C78.9247 47.5808 80.3988 47.9996 81.9627 47.9996C83.2275 47.9996 84.4752 47.7176 85.7058 47.145C86.945 46.5767 88.073 45.7349 89.09 44.6154C89.1584 44.5599 89.2524 44.547 89.3805 44.5812C89.5173 44.6069 89.4831 44.7351 89.278 44.9743C88.2183 46.2733 86.9535 47.239 85.4836 47.8628C84.0137 48.4867 82.4969 48.8029 80.9372 48.8029C79.1255 48.8029 77.3907 48.367 75.7414 47.5039C74.0877 46.628 72.7332 45.3076 71.6735 43.5386C70.6224 41.7611 70.0712 39.552 70.0156 36.907ZM81.3816 26.1222C79.9331 26.1222 78.6469 26.4726 77.5189 27.1648C76.3908 27.8484 75.4679 28.7671 74.75 29.9165C74.0322 31.0574 73.5066 32.3051 73.1776 33.6596H87.0219C88.1029 33.6596 88.7353 33.3306 88.9191 32.6683C89.0985 32.0103 89.0088 31.301 88.6456 30.5489C87.8936 28.9765 86.8339 27.8484 85.4665 27.1648C84.0992 26.4726 82.7361 26.1222 81.3816 26.1222Z" fill="#D9D9D9"/>
<path d="M111.727 48.8541V44.8888C110.736 46.1792 109.492 47.162 108.001 47.8457C106.518 48.5165 104.98 48.8541 103.386 48.8541C101.664 48.8541 100.024 48.4439 98.464 47.6235C96.9001 46.7945 95.6267 45.5212 94.6354 43.812C93.6441 42.0943 93.1484 39.9237 93.1484 37.3001C93.2083 33.6339 94.2509 30.7369 96.2933 28.6175C98.3443 26.4981 101.156 25.4384 104.737 25.4384C106.057 25.4384 107.317 25.6606 108.514 26.105C109.719 26.5409 110.791 27.2331 111.727 28.1902V15.3372C111.727 14.7689 111.582 14.2604 111.3 13.8161C111.014 13.3631 110.569 13.1324 109.967 13.1324L114.291 12.5V43.9317C114.291 45.3247 114.522 46.2519 114.992 46.7176C115.457 47.1877 116.158 47.4184 117.094 47.4184L111.727 48.8541ZM96.1224 37.1805C96.1224 39.6758 96.5198 41.7439 97.3188 43.3847C98.1136 45.017 99.1519 46.2305 100.43 47.0253C101.703 47.8243 103.049 48.2217 104.463 48.2217C105.783 48.2217 107.087 47.8799 108.377 47.1962C109.676 46.504 110.791 45.4785 111.727 44.1197V29.0619C111.18 28.2201 110.3 27.4638 109.095 26.7887C107.899 26.105 106.625 25.7461 105.284 25.7119C103.835 25.6905 102.404 26.0836 100.994 26.8912C99.5792 27.7031 98.4127 28.9551 97.4897 30.6514C96.5753 32.352 96.1224 34.527 96.1224 37.1805Z" fill="#D9D9D9"/>
<path d="M118.984 46.5454C118.984 46.0113 119.177 45.5498 119.565 45.161C119.95 44.7636 120.42 44.5627 120.967 44.5627C121.501 44.5627 121.963 44.7636 122.351 45.161C122.749 45.5498 122.95 46.0113 122.95 46.5454C122.95 47.0923 122.749 47.5666 122.351 47.964C121.963 48.3528 121.501 48.5451 120.967 48.5451C120.42 48.5451 119.95 48.3528 119.565 47.964C119.177 47.5666 118.984 47.0923 118.984 46.5454Z" fill="#D9D9D9"/>
</g>
<defs>
<clipPath id="clip0_7303_66929">
<rect width="122.952" height="66" fill="white" transform="translate(0 0.5)"/>
</clipPath>
</defs>
</svg>
