<svg width="235" height="66" viewBox="0 0 235 66" fill="none" xmlns="http://www.w3.org/2000/svg">
<g clip-path="url(#clip0_8042_35696)">
<g clip-path="url(#clip1_8042_35696)">
<mask id="mask0_8042_35696" style="mask-type:luminance" maskUnits="userSpaceOnUse" x="0" y="11" width="43" height="45">
<path d="M42.1196 11.458H0.851562V55.4589H42.1196V11.458Z" fill="white"/>
</mask>
<g mask="url(#mask0_8042_35696)">
<path d="M21.1393 26.9692L0.851562 30.9681V36.3357L21.1393 39.6904L36.0171 36.6711V30.6326L21.1393 26.9692Z" fill="white"/>
<path d="M42.1186 45.0595V39.6919L21.1545 44.3885L6.95312 40.6984V47.7433L21.1545 55.4592L42.1186 45.0595Z" fill="white"/>
<path d="M6.9375 26.2311V18.8507L21.139 11.4702L42.103 21.5344L42.1165 26.9691L21.139 22.5409L6.9375 26.2311Z" fill="#CACACA"/>
<path d="M21.1562 22.5287V11.458L42.1203 21.5222V26.9703L21.1562 22.5287Z" fill="white"/>
<path d="M21.1406 39.6904V26.9692L36.0183 30.324V37.0335L21.1406 39.6904Z" fill="#CACACA"/>
<path d="M21.139 55.4181V44.3475L6.9375 40.3218V47.7022L21.139 55.4181Z" fill="#CACACA"/>
</g>
<path d="M67.8813 46.5364C65.6125 46.5364 63.5911 46.0026 61.8172 44.9348C60.0426 43.8671 58.6466 42.4098 57.6286 40.5629C56.6105 38.6871 56.1016 36.5949 56.1016 34.2864C56.1016 31.9489 56.596 29.8711 57.5849 28.053C58.603 26.235 59.9703 24.8065 61.6859 23.7677C63.4312 22.6999 65.3803 22.1661 67.5324 22.1661C69.2778 22.1661 70.8189 22.4835 72.1569 23.1184C73.5242 23.7244 74.6732 24.5613 75.6039 25.629C76.5638 26.6679 77.2909 27.8655 77.7852 29.2218C78.3086 30.5492 78.5706 31.9344 78.5706 33.3773C78.5706 33.6948 78.5415 34.0555 78.4831 34.4595C78.4545 34.8346 78.4108 35.1954 78.3524 35.5416H59.0681V32.0787H75.9966L74.0768 33.637C74.3388 32.1364 74.1929 30.7945 73.6403 29.6114C73.0877 28.4282 72.2737 27.4903 71.197 26.7978C70.121 26.1051 68.8996 25.7589 67.5324 25.7589C66.1651 25.7589 64.9146 26.1051 63.7802 26.7978C62.6458 27.4903 61.7588 28.4859 61.1187 29.7845C60.5083 31.0543 60.2609 32.5693 60.377 34.3296C60.2609 36.0322 60.5229 37.5328 61.1624 38.8314C61.8318 40.1012 62.7625 41.0968 63.9547 41.8182C65.1766 42.5108 66.5001 42.8571 67.9251 42.8571C69.496 42.8571 70.8189 42.4963 71.8955 41.7749C72.9716 41.0535 73.844 40.13 74.5133 39.0046L77.9159 40.736C77.4508 41.8038 76.7237 42.7849 75.7346 43.6796C74.7747 44.5453 73.6257 45.2379 72.2882 45.7573C70.9794 46.2767 69.51 46.5364 67.8813 46.5364ZM83.861 46.017V22.6855H87.8315V27.4471L87.2642 26.7111C87.846 25.2394 88.7768 24.114 90.0565 23.3348C91.3362 22.5557 92.7758 22.1661 94.3759 22.1661C96.2082 22.1661 97.8514 22.6711 99.3056 23.6811C100.789 24.6912 101.807 26.0186 102.36 27.6635L101.225 27.7068C101.836 25.8887 102.869 24.518 104.323 23.5945C105.778 22.6422 107.392 22.1661 109.166 22.1661C110.795 22.1661 112.264 22.5412 113.573 23.2915C114.911 24.0418 115.972 25.0807 116.758 26.4082C117.543 27.7356 117.935 29.2362 117.935 30.91V46.017H113.834V32.2086C113.834 30.91 113.602 29.8134 113.136 28.9188C112.671 28.0242 112.031 27.3316 111.216 26.841C110.431 26.3216 109.501 26.0619 108.424 26.0619C107.377 26.0619 106.432 26.3216 105.589 26.841C104.774 27.3316 104.119 28.0386 103.625 28.9621C103.16 29.8567 102.927 30.9388 102.927 32.2086V46.017H98.8259V32.2086C98.8259 30.91 98.5931 29.8134 98.128 28.9188C97.6624 28.0242 97.0222 27.3316 96.2082 26.841C95.4227 26.3216 94.492 26.0619 93.4159 26.0619C92.3685 26.0619 91.4231 26.3216 90.5799 26.841C89.7653 27.3316 89.1112 28.0386 88.6163 28.9621C88.1512 29.8567 87.9184 30.9388 87.9184 32.2086V46.017H83.861ZM134.518 46.5364C132.249 46.5364 130.228 46.0026 128.454 44.9348C126.68 43.8671 125.284 42.4098 124.265 40.5629C123.247 38.6871 122.738 36.5949 122.738 34.2864C122.738 31.9489 123.233 29.8711 124.222 28.053C125.24 26.235 126.607 24.8065 128.323 23.7677C130.068 22.6999 132.017 22.1661 134.169 22.1661C135.915 22.1661 137.456 22.4835 138.794 23.1184C140.161 23.7244 141.31 24.5613 142.241 25.629C143.201 26.6679 143.928 27.8655 144.422 29.2218C144.946 30.5492 145.208 31.9344 145.208 33.3773C145.208 33.6948 145.178 34.0555 145.12 34.4595C145.091 34.8346 145.048 35.1954 144.989 35.5416H125.705V32.0787H142.634L140.714 33.637C140.976 32.1364 140.83 30.7945 140.277 29.6114C139.725 28.4282 138.911 27.4903 137.834 26.7978C136.758 26.1051 135.537 25.7589 134.169 25.7589C132.802 25.7589 131.552 26.1051 130.417 26.7978C129.283 27.4903 128.396 28.4859 127.756 29.7845C127.145 31.0543 126.898 32.5693 127.014 34.3296C126.898 36.0322 127.16 37.5328 127.799 38.8314C128.469 40.1012 129.399 41.0968 130.592 41.8182C131.814 42.5108 133.137 42.8571 134.562 42.8571C136.132 42.8571 137.456 42.4963 138.532 41.7749C139.608 41.0535 140.481 40.13 141.15 39.0046L144.553 40.736C144.088 41.8038 143.361 42.7849 142.372 43.6796C141.412 44.5453 140.263 45.2379 138.925 45.7573C137.616 46.2767 136.147 46.5364 134.518 46.5364ZM150.498 46.017V22.6855H154.468V26.9709L154.032 26.3649C154.584 25.0374 155.428 24.0563 156.562 23.4214C157.697 22.7577 159.078 22.4258 160.707 22.4258H162.147V26.235H160.096C158.438 26.235 157.101 26.7544 156.082 27.7933C155.064 28.8034 154.555 30.2463 154.555 32.122V46.017H150.498ZM172.645 46.5364C171.103 46.5364 169.736 46.2623 168.543 45.714C167.38 45.1368 166.464 44.3577 165.795 43.3765C165.126 42.3665 164.791 41.2122 164.791 39.9136C164.791 38.6727 165.053 37.5617 165.577 36.5805C166.129 35.5705 166.973 34.7192 168.107 34.0266C169.27 33.334 170.725 32.8434 172.47 32.5549L181.196 31.1264V34.5028L173.386 35.8014C171.874 36.0611 170.768 36.5372 170.071 37.2298C169.401 37.9224 169.067 38.7737 169.067 39.7837C169.067 40.736 169.445 41.5296 170.201 42.1645C170.987 42.7994 171.961 43.1168 173.124 43.1168C174.608 43.1168 175.888 42.8138 176.964 42.2078C178.069 41.5729 178.927 40.7216 179.538 39.6539C180.178 38.5862 180.498 37.4029 180.498 36.1043V30.1741C180.498 28.9044 180.018 27.8799 179.058 27.1007C178.127 26.2927 176.891 25.8887 175.349 25.8887C174.012 25.8887 172.819 26.235 171.772 26.9276C170.754 27.5913 169.998 28.4859 169.503 29.6114L165.969 27.7933C166.405 26.7256 167.104 25.7733 168.064 24.9364C169.023 24.0707 170.143 23.3925 171.423 22.9019C172.703 22.4114 174.04 22.1661 175.437 22.1661C177.24 22.1661 178.825 22.5124 180.193 23.205C181.559 23.8687 182.621 24.8065 183.377 26.0186C184.162 27.2017 184.555 28.5869 184.555 30.1741V46.017H180.585V41.6018L181.326 41.8615C180.832 42.7849 180.163 43.5929 179.32 44.2855C178.476 44.9782 177.487 45.5264 176.353 45.9304C175.219 46.3344 173.983 46.5364 172.645 46.5364ZM190.846 46.017V13.249H194.904V46.017H190.846ZM211.889 46.5364C209.678 46.5364 207.686 46.0026 205.912 44.9348C204.167 43.8671 202.785 42.4098 201.767 40.5629C200.749 38.716 200.24 36.6527 200.24 34.3729C200.24 32.0354 200.749 29.9576 201.767 28.1396C202.785 26.2927 204.167 24.8354 205.912 23.7677C207.686 22.6999 209.678 22.1661 211.889 22.1661C213.838 22.1661 215.569 22.5845 217.081 23.4214C218.593 24.2294 219.786 25.326 220.658 26.7111L220.004 27.7068V13.249H224.105V46.017H220.135V41.039L220.658 41.7316C219.844 43.2611 218.652 44.4442 217.081 45.2811C215.539 46.118 213.809 46.5364 211.889 46.5364ZM212.238 42.6407C213.722 42.6407 215.045 42.2799 216.208 41.5585C217.372 40.837 218.288 39.8559 218.957 38.615C219.655 37.3453 220.004 35.9312 220.004 34.3729C220.004 32.7857 219.655 31.3717 218.957 30.1308C218.288 28.861 217.372 27.8655 216.208 27.144C215.045 26.4226 213.722 26.0619 212.238 26.0619C210.784 26.0619 209.46 26.437 208.268 27.1873C207.104 27.9088 206.188 28.8899 205.519 30.1308C204.85 31.3428 204.516 32.7569 204.516 34.3729C204.516 35.9312 204.85 37.3453 205.519 38.615C206.188 39.8559 207.104 40.837 208.268 41.5585C209.431 42.2799 210.754 42.6407 212.238 42.6407Z" fill="white"/>
</g>
</g>
<defs>
<clipPath id="clip0_8042_35696">
<rect width="234" height="66" fill="white" transform="translate(0.546875)"/>
</clipPath>
<clipPath id="clip1_8042_35696">
<rect width="234" height="48.0536" fill="white" transform="translate(0.546875 11)"/>
</clipPath>
</defs>
</svg>
