<svg width="193" height="66" viewBox="0 0 193 66" fill="none" xmlns="http://www.w3.org/2000/svg">
<g clip-path="url(#clip0_8042_35709)">
<rect x="38.1406" y="11.6455" width="6.67761" height="29.4157" rx="3.33881" transform="rotate(45 38.1406 11.6455)" fill="#D9D9D9"/>
<rect x="13.7422" y="36.084" width="6.67761" height="18.6595" rx="3.33881" transform="rotate(45 13.7422 36.084)" fill="#D9D9D9"/>
<rect width="6.67761" height="18.6595" rx="3.33881" transform="matrix(0.707107 -0.707107 -0.707107 -0.707107 13.7422 28.916)" fill="#D9D9D9"/>
<rect x="37.3203" y="27.0278" width="8.01313" height="8.01313" rx="4.00657" transform="rotate(45 37.3203 27.0278)" fill="#D9D9D9"/>
<rect x="17.3203" y="32.4722" width="6.67761" height="29.4097" rx="3.33881" transform="rotate(-45 17.3203 32.4722)" fill="#D9D9D9"/>
<path d="M74.193 31.1452C74.193 31.817 74.1482 32.4215 74.0587 32.9589H60.4566C60.5686 34.3023 61.0388 35.3546 61.8672 36.1159C62.6956 36.8772 63.7144 37.2578 64.9235 37.2578C66.6699 37.2578 67.9126 36.5078 68.6514 35.0076H73.7228C73.1854 36.7988 72.1555 38.2766 70.633 39.4408C69.1104 40.5827 67.2409 41.1537 65.0242 41.1537C63.233 41.1537 61.6209 40.7619 60.1879 39.9782C58.7774 39.1721 57.669 38.0415 56.863 36.5861C56.0793 35.1308 55.6875 33.4515 55.6875 31.5483C55.6875 29.6228 56.0793 27.9323 56.863 26.4769C57.6467 25.0216 58.7438 23.902 60.1543 23.1184C61.5649 22.3348 63.1883 21.9429 65.0242 21.9429C66.793 21.9429 68.3715 22.3235 69.7597 23.0848C71.1703 23.8461 72.2563 24.932 73.0175 26.3425C73.8012 27.7308 74.193 29.3316 74.193 31.1452ZM69.3231 29.8018C69.3008 28.5928 68.8642 27.63 68.0133 26.9135C67.1625 26.1746 66.1213 25.8052 64.8899 25.8052C63.7256 25.8052 62.7404 26.1635 61.9344 26.8799C61.1507 27.5741 60.6694 28.5481 60.4902 29.8018H69.3231Z" fill="#D9D9D9"/>
<path d="M87.9039 40.8494L84.0752 35.0728L80.6831 40.8494H75.6453L81.7242 31.5127L75.5781 22.2432H80.8846L84.6797 27.9863L88.1055 22.2432H93.1433L87.0307 31.5127L93.2104 40.8494H87.9039Z" fill="#D9D9D9"/>
<path d="M94.5625 31.5483C94.5625 29.6228 94.9543 27.9435 95.738 26.5105C96.5216 25.0552 97.6075 23.9356 98.9958 23.1519C100.384 22.3459 101.974 21.9429 103.764 21.9429C106.071 21.9429 107.974 22.5251 109.474 23.6893C110.997 24.8312 112.016 26.4433 112.53 28.5256H107.459C107.19 27.7195 106.731 27.0927 106.082 26.6448C105.455 26.1746 104.671 25.9395 103.731 25.9395C102.387 25.9395 101.324 26.4322 100.54 27.4173C99.757 28.3801 99.3652 29.7571 99.3652 31.5483C99.3652 33.3172 99.757 34.6942 100.54 35.6793C101.324 36.6421 102.387 37.1234 103.731 37.1234C105.635 37.1234 106.877 36.2727 107.459 34.5709H112.53C112.016 36.5861 110.997 38.187 109.474 39.3736C107.952 40.5604 106.048 41.1537 103.764 41.1537C101.974 41.1537 100.384 40.7619 98.9958 39.9782C97.6075 39.1721 96.5216 38.0527 95.738 36.6197C94.9543 35.1644 94.5625 33.4739 94.5625 31.5483Z" fill="#D9D9D9"/>
<path d="M126.44 21.9781C127.85 21.9781 129.104 22.2916 130.201 22.9185C131.299 23.5231 132.149 24.4299 132.754 25.6389C133.381 26.8257 133.694 28.2586 133.694 29.9379V40.8531H128.992V30.576C128.992 29.0982 128.623 27.9676 127.884 27.1839C127.145 26.3778 126.137 25.9748 124.861 25.9748C123.563 25.9748 122.533 26.3778 121.771 27.1839C121.032 27.9676 120.663 29.0982 120.663 30.576V40.8531H115.961V16H120.663V24.5642C121.267 23.7582 122.073 23.1313 123.081 22.6834C124.089 22.2132 125.208 21.9781 126.44 21.9781Z" fill="#D9D9D9"/>
<path d="M155.466 31.1452C155.466 31.817 155.421 32.4215 155.332 32.9589H141.73C141.841 34.3023 142.311 35.3546 143.141 36.1159C143.969 36.8772 144.988 37.2578 146.197 37.2578C147.943 37.2578 149.186 36.5078 149.925 35.0076H154.996C154.459 36.7988 153.428 38.2766 151.906 39.4408C150.384 40.5827 148.514 41.1537 146.298 41.1537C144.506 41.1537 142.894 40.7619 141.461 39.9782C140.051 39.1721 138.942 38.0415 138.136 36.5861C137.352 35.1308 136.961 33.4515 136.961 31.5483C136.961 29.6228 137.352 27.9323 138.136 26.4769C138.919 25.0216 140.017 23.902 141.428 23.1184C142.838 22.3348 144.461 21.9429 146.298 21.9429C148.066 21.9429 149.645 22.3235 151.033 23.0848C152.444 23.8461 153.529 24.932 154.291 26.3425C155.074 27.7308 155.466 29.3316 155.466 31.1452ZM150.597 29.8018C150.573 28.5928 150.137 27.63 149.287 26.9135C148.436 26.1746 147.394 25.8052 146.163 25.8052C144.998 25.8052 144.014 26.1635 143.208 26.8799C142.424 27.5741 141.942 28.5481 141.764 29.8018H150.597Z" fill="#D9D9D9"/>
<path d="M157.695 31.5167C157.695 29.6584 158.075 28.0127 158.837 26.5797C159.62 25.1244 160.673 23.9936 161.994 23.1876C163.315 22.3815 164.77 21.9785 166.36 21.9785C167.681 21.9785 168.846 22.2361 169.853 22.751C170.883 23.2436 171.711 23.8818 172.339 24.6653V22.2472H177.074V49.72H172.339V38.301C171.711 39.107 170.871 39.7787 169.82 40.3161C168.767 40.8535 167.58 41.1221 166.26 41.1221C164.692 41.1221 163.247 40.7191 161.927 39.9131C160.628 39.0847 159.598 37.9428 158.837 36.4874C158.075 35.0321 157.695 33.3752 157.695 31.5167ZM172.339 31.5503C172.339 30.4084 172.103 29.4233 171.633 28.5948C171.163 27.7664 170.547 27.1395 169.786 26.714C169.047 26.2887 168.252 26.0759 167.401 26.0759C166.572 26.0759 165.778 26.2887 165.017 26.714C164.278 27.1395 163.673 27.7664 163.203 28.5948C162.733 29.4009 162.498 30.3748 162.498 31.5167C162.498 32.6586 162.733 33.6551 163.203 34.5058C163.673 35.3343 164.278 35.9612 165.017 36.3866C165.778 36.8121 166.572 37.0247 167.401 37.0247C168.252 37.0247 169.047 36.8121 169.786 36.3866C170.547 35.9612 171.163 35.3343 171.633 34.5058C172.103 33.6774 172.339 32.6922 172.339 31.5503Z" fill="#D9D9D9"/>
<path d="M186.374 25.1355C186.978 24.1504 187.762 23.378 188.725 22.8181C189.71 22.2584 190.83 21.9785 192.083 21.9785V26.9156H190.841C189.363 26.9156 188.244 27.2626 187.482 27.9567C186.743 28.6509 186.374 29.8599 186.374 31.5839V40.8535H181.672V22.2472H186.374V25.1355Z" fill="#D9D9D9"/>
</g>
<defs>
<clipPath id="clip0_8042_35709">
<rect width="191.53" height="66" fill="white" transform="translate(0.546875)"/>
</clipPath>
</defs>
</svg>
