<svg width="192" height="66" viewBox="0 0 192 66" fill="none" xmlns="http://www.w3.org/2000/svg">
<g clip-path="url(#clip0_4352_80745)">
<rect x="37.9043" y="11.6455" width="6.67761" height="29.4157" rx="3.33881" transform="rotate(45 37.9043 11.6455)" fill="#D9D9D9"/>
<rect x="13.5049" y="36.084" width="6.67761" height="18.6595" rx="3.33881" transform="rotate(45 13.5049 36.084)" fill="#D9D9D9"/>
<rect width="6.67761" height="18.6595" rx="3.33881" transform="matrix(0.707107 -0.707107 -0.707107 -0.707107 13.5049 28.916)" fill="#D9D9D9"/>
<rect x="37.084" y="27.0276" width="8.01313" height="8.01313" rx="4.00657" transform="rotate(45 37.084 27.0276)" fill="#D9D9D9"/>
<rect x="17.082" y="32.4724" width="6.67761" height="29.4097" rx="3.33881" transform="rotate(-45 17.082 32.4724)" fill="#D9D9D9"/>
<path d="M73.9538 31.1452C73.9538 31.817 73.9089 32.4215 73.8194 32.9589H60.2174C60.3293 34.3023 60.7995 35.3546 61.6279 36.1159C62.4563 36.8772 63.4751 37.2578 64.6842 37.2578C66.4306 37.2578 67.6733 36.5078 68.4122 35.0076H73.4836C72.9462 36.7988 71.9163 38.2766 70.3937 39.4408C68.8711 40.5827 67.0016 41.1537 64.785 41.1537C62.9937 41.1537 61.3816 40.7619 59.9487 39.9782C58.5381 39.1721 57.4298 38.0415 56.6237 36.5861C55.84 35.1308 55.4482 33.4515 55.4482 31.5483C55.4482 29.6228 55.84 27.9323 56.6237 26.4769C57.4074 25.0216 58.5045 23.902 59.9151 23.1184C61.3257 22.3348 62.949 21.9429 64.785 21.9429C66.5538 21.9429 68.1323 22.3235 69.5205 23.0848C70.9311 23.8461 72.017 24.932 72.7783 26.3425C73.562 27.7308 73.9538 29.3316 73.9538 31.1452ZM69.0839 29.8018C69.0615 28.5928 68.6249 27.63 67.7741 26.9135C66.9232 26.1746 65.882 25.8052 64.6506 25.8052C63.4864 25.8052 62.5012 26.1635 61.6951 26.8799C60.9114 27.5741 60.4301 28.5481 60.2509 29.8018H69.0839Z" fill="#D9D9D9"/>
<path d="M87.6676 40.8497L83.8389 35.073L80.4468 40.8497H75.409L81.4879 31.513L75.3418 22.2434H80.6483L84.4434 27.9865L87.8691 22.2434H92.9069L86.7944 31.513L92.9741 40.8497H87.6676Z" fill="#D9D9D9"/>
<path d="M94.3203 31.5483C94.3203 29.6228 94.7121 27.9435 95.4958 26.5105C96.2794 25.0552 97.3653 23.9356 98.7536 23.1519C100.142 22.3459 101.732 21.9429 103.522 21.9429C105.829 21.9429 107.732 22.5251 109.232 23.6893C110.755 24.8312 111.774 26.4433 112.288 28.5256H107.217C106.948 27.7195 106.489 27.0927 105.84 26.6448C105.213 26.1746 104.429 25.9395 103.489 25.9395C102.145 25.9395 101.082 26.4322 100.298 27.4173C99.5148 28.3801 99.123 29.7571 99.123 31.5483C99.123 33.3172 99.5148 34.6942 100.298 35.6793C101.082 36.6421 102.145 37.1234 103.489 37.1234C105.392 37.1234 106.635 36.2727 107.217 34.5709H112.288C111.774 36.5861 110.755 38.187 109.232 39.3736C107.71 40.5604 105.806 41.1537 103.522 41.1537C101.732 41.1537 100.142 40.7619 98.7536 39.9782C97.3653 39.1721 96.2794 38.0527 95.4958 36.6197C94.7121 35.1644 94.3203 33.4739 94.3203 31.5483Z" fill="#D9D9D9"/>
<path d="M126.199 21.9781C127.61 21.9781 128.864 22.2916 129.961 22.9185C131.059 23.5231 131.909 24.4299 132.513 25.6389C133.141 26.8257 133.454 28.2586 133.454 29.9379V40.8531H128.752V30.576C128.752 29.0982 128.382 27.9676 127.643 27.1839C126.905 26.3778 125.897 25.9748 124.621 25.9748C123.323 25.9748 122.293 26.3778 121.531 27.1839C120.792 27.9676 120.423 29.0982 120.423 30.576V40.8531H115.721V16H120.423V24.5642C121.027 23.7582 121.833 23.1313 122.841 22.6834C123.848 22.2132 124.968 21.9781 126.199 21.9781Z" fill="#D9D9D9"/>
<path d="M155.228 31.1452C155.228 31.817 155.183 32.4215 155.094 32.9589H141.492C141.603 34.3023 142.073 35.3546 142.902 36.1159C143.73 36.8772 144.75 37.2578 145.959 37.2578C147.705 37.2578 148.948 36.5078 149.687 35.0076H154.758C154.221 36.7988 153.19 38.2766 151.668 39.4408C150.145 40.5827 148.276 41.1537 146.059 41.1537C144.268 41.1537 142.656 40.7619 141.223 39.9782C139.813 39.1721 138.704 38.0415 137.898 36.5861C137.114 35.1308 136.723 33.4515 136.723 31.5483C136.723 29.6228 137.114 27.9323 137.898 26.4769C138.681 25.0216 139.779 23.902 141.19 23.1184C142.6 22.3348 144.223 21.9429 146.059 21.9429C147.828 21.9429 149.406 22.3235 150.795 23.0848C152.205 23.8461 153.291 24.932 154.053 26.3425C154.836 27.7308 155.228 29.3316 155.228 31.1452ZM150.358 29.8018C150.335 28.5928 149.899 27.63 149.048 26.9135C148.197 26.1746 147.156 25.8052 145.925 25.8052C144.76 25.8052 143.776 26.1635 142.97 26.8799C142.186 27.5741 141.704 28.5481 141.525 29.8018H150.358Z" fill="#D9D9D9"/>
<path d="M157.456 31.5165C157.456 29.6582 157.836 28.0125 158.598 26.5795C159.381 25.1242 160.434 23.9934 161.755 23.1873C163.075 22.3813 164.531 21.9783 166.121 21.9783C167.441 21.9783 168.606 22.2358 169.614 22.7507C170.644 23.2434 171.472 23.8815 172.099 24.6651V22.247H176.835V49.7197H172.099V38.3007C171.472 39.1068 170.632 39.7785 169.58 40.3158C168.528 40.8532 167.341 41.1219 166.02 41.1219C164.452 41.1219 163.008 40.7189 161.688 39.9128C160.388 39.0844 159.359 37.9425 158.598 36.4871C157.836 35.0318 157.456 33.3749 157.456 31.5165ZM172.099 31.5501C172.099 30.4082 171.864 29.4231 171.394 28.5946C170.924 27.7662 170.308 27.1393 169.547 26.7138C168.808 26.2884 168.012 26.0757 167.162 26.0757C166.333 26.0757 165.539 26.2884 164.778 26.7138C164.039 27.1393 163.434 27.7662 162.964 28.5946C162.494 29.4006 162.259 30.3746 162.259 31.5165C162.259 32.6584 162.494 33.6548 162.964 34.5056C163.434 35.3341 164.039 35.961 164.778 36.3864C165.539 36.8119 166.333 37.0245 167.162 37.0245C168.012 37.0245 168.808 36.8119 169.547 36.3864C170.308 35.961 170.924 35.3341 171.394 34.5056C171.864 33.6772 172.099 32.692 172.099 31.5501Z" fill="#D9D9D9"/>
<path d="M186.132 25.1353C186.736 24.1502 187.52 23.3777 188.483 22.8179C189.468 22.2582 190.588 21.9783 191.841 21.9783V26.9153H190.598C189.121 26.9153 188.002 27.2624 187.24 27.9565C186.501 28.6506 186.132 29.8597 186.132 31.5837V40.8532H181.43V22.247H186.132V25.1353Z" fill="#D9D9D9"/>
</g>
<defs>
<clipPath id="clip0_4352_80745">
<rect width="191.53" height="66" fill="white" transform="translate(0.310547)"/>
</clipPath>
</defs>
</svg>
