<svg width="145" height="66" viewBox="0 0 145 66" fill="none" xmlns="http://www.w3.org/2000/svg">
<path fill-rule="evenodd" clip-rule="evenodd" d="M9.80711 20.235C6.52829 21.0079 3.37719 23.8348 1.83498 27.3864C1.15595 28.9504 1.00588 29.944 1.0002 32.9162C0.99417 36.0793 1.1194 36.8313 1.98647 38.8353C3.19838 41.6356 5.89147 44.4843 8.15386 45.3591C10.3073 46.1916 14.0658 46.1771 16.2739 45.3273C18.7871 44.3599 22.1029 40.5028 22.916 37.6002C23.2488 36.4126 23.5212 34.5555 23.5212 33.4738V31.5072H17.1183H10.7157L10.821 34.0233L10.9268 36.5394L14.0569 36.7407L17.1871 36.942L16.1856 38.0233C12.3615 42.1526 6.51551 39.0459 6.49778 32.8751C6.48784 29.3478 8.63493 26.7113 11.7984 26.3663C13.3768 26.1944 13.8391 26.3308 15.3959 27.4291C17.0058 28.5647 17.4606 28.6891 19.9969 28.6891C21.5451 28.6891 22.8117 28.5913 22.8117 28.4717C22.8117 27.76 21.2624 25.0386 20.097 23.7024C17.5965 20.836 13.3399 19.4021 9.80711 20.235ZM51.3635 20.2515C47.9932 20.7732 44.6807 23.4987 42.9628 27.163C42.276 28.6283 42.1525 29.5015 42.1501 32.9162C42.1462 37.6864 42.8092 39.6421 45.4204 42.5632C47.7338 45.1514 50.196 46.1276 53.8544 45.9074C59.9852 45.5382 64.2074 40.7721 64.5877 33.791C65.044 25.4146 58.8666 19.0897 51.3635 20.2515ZM110.346 20.2712C106.364 20.981 102.594 24.6179 101.409 28.8908C100.03 33.8679 101.37 39.4412 104.784 42.9247C106.919 45.1018 109.088 46 112.215 46C115.355 46 117.512 45.1006 119.683 42.8865C122.183 40.3349 123.288 37.7206 123.491 33.8715C123.727 29.4057 122.978 27.1436 120.229 24.0237C117.366 20.7761 114.219 19.5812 110.346 20.2712ZM24.9403 33.1175V45.5974H27.5884H30.2364L30.3379 41.6723L30.4393 37.7471L32.5229 41.6723L34.6065 45.5974H37.9769C40.6164 45.5974 41.2738 45.4883 41.0095 45.0942C39.309 42.5592 36.2931 37.5467 36.2931 37.256C36.2931 37.0547 36.8462 36.5905 37.522 36.225C38.1979 35.8591 39.1955 34.7971 39.7394 33.8651C40.6178 32.3586 40.7278 31.8043 40.7278 28.8904C40.7278 26.0064 40.6128 25.4142 39.7756 23.9782C38.1354 21.1662 36.6408 20.6376 30.3272 20.6376H24.9403V33.1175ZM66.1555 30.1988C66.2654 39.1453 66.3233 39.8667 67.0548 41.4203C68.6747 44.8599 71.101 46.2202 75.045 45.8998C78.2352 45.6409 80.0473 44.3072 81.438 41.1948L82.4137 39.0116V29.8248V20.6376H79.7529H77.0921V28.8304C77.0921 37.2987 76.8409 39.252 75.6591 39.9698C74.6158 40.6034 73.2446 40.4263 72.48 39.5587C71.8127 38.8015 71.7705 38.217 71.7705 29.6956V20.6376H68.9043H66.0377L66.1555 30.1988ZM84.1875 33.1175V45.5974H86.8484H89.5092V41.5716V37.5459L91.5491 37.5434C95.916 37.5386 98.6542 35.5386 99.6582 31.6199C100.567 28.0716 99.8994 24.8413 97.7892 22.5756C96.2144 20.8848 95.1557 20.6376 89.4861 20.6376H84.1875V33.1175ZM124.632 33.1175V45.5974H127.47H130.308V38.6839V31.7709L134.337 38.5833L138.366 45.3961L140.901 45.5145L143.435 45.6328V33.1352V20.6376H140.605H137.775L137.678 27.3445L137.581 34.0515L133.678 27.3534L129.776 20.6553L127.204 20.6464L124.632 20.6376V33.1175ZM34.3773 26.5816C34.9102 26.9854 35.5835 28.4943 35.5835 29.285C35.5835 29.6416 35.1915 30.3779 34.7126 30.9214C34.0183 31.7097 33.4794 31.9098 32.0518 31.9098H30.2619V29.0917V26.2737L32.1245 26.2797C33.1491 26.2833 34.1627 26.419 34.3773 26.5816ZM56.4528 27.3614C56.975 27.8002 57.7754 28.7769 58.2316 29.5313C59.4066 31.4754 59.2164 35.2089 57.8374 37.2604C55.9362 40.0893 52.37 40.6727 49.9235 38.5551C46.2619 35.386 46.8551 29.0168 51.0162 26.822C52.4367 26.0728 55.2519 26.3522 56.4528 27.3614ZM93.6873 26.9005C94.2723 27.3651 94.476 27.9311 94.476 29.0917C94.476 31.0929 93.5273 31.9098 91.2039 31.9098H89.5092V29.0917V26.2737H91.2039C92.1639 26.2737 93.241 26.5454 93.6873 26.9005ZM114.875 27.0788C118.733 29.198 119.004 35.7987 115.359 38.8615C112.969 40.8708 108.898 39.6916 107.344 36.5394C104.395 30.5591 109.512 24.1324 114.875 27.0788Z" fill="#D9D9D9"/>
</svg>
