<svg width="169" height="67" viewBox="0 0 169 67" fill="none" xmlns="http://www.w3.org/2000/svg">
<g clip-path="url(#clip0_7303_66961)">
<path d="M21.9335 16.5H14.5086C12.8738 16.5 11.1027 18.0242 11.1027 19.687V23.2204C11.1027 25.1049 8.87752 26.2226 7.76492 26.5459H4.22279C2.2065 26.5459 1.20289 28.763 0.953125 29.8715V37.4926C0.953125 39.2108 2.51984 40.8181 4.22279 40.8181H8.58234C9.56324 40.8181 10.5805 39.9867 10.9665 39.571L24.0451 26.2688C25.026 25.2712 25.2713 23.867 25.2713 23.2897V19.7563C25.2713 17.6501 23.2277 16.5 21.9335 16.5Z" fill="#D9D9D9"/>
<path d="M28.3084 26.2271C27.4477 26.2271 26.4674 26.8909 26.0849 27.2228L12.0268 41.0923C11.3813 41.7324 10.8792 42.4436 10.6641 43.226V48.3471C10.6641 50.0541 12.8875 51.7611 14.1069 51.7611H22.0683C24.0766 51.7611 25.5828 49.5562 25.5828 48.2759V44.2929C25.5828 42.1876 27.6628 40.8789 29.0256 40.8789H32.9705C34.9788 40.8789 35.959 38.7451 36.1981 37.6782V29.5699C36.1981 27.5784 34.1659 26.2271 32.9705 26.2271H28.3084Z" fill="#D9D9D9"/>
<path d="M60.2596 44.6589C60.0289 44.7218 59.6935 44.7847 59.2532 44.8476C58.8338 44.9105 58.3726 44.942 57.8694 44.942C56.821 44.942 56.0662 44.7743 55.605 44.4388C55.1437 44.0824 54.9131 43.4114 54.9131 42.426V35.4442C54.9131 34.5845 54.6929 33.987 54.2526 33.6515C53.8333 33.2951 53.3092 33.1169 52.6802 33.1169C52.2608 33.1169 51.8729 33.1693 51.5165 33.2741C51.1811 33.379 50.8666 33.5152 50.573 33.683V44.6589C50.3424 44.7218 50.0069 44.7847 49.5666 44.8476C49.1473 44.9105 48.686 44.942 48.1828 44.942C47.1345 44.942 46.3797 44.7743 45.9185 44.4388C45.4572 44.0824 45.2266 43.4114 45.2266 42.426V24.1851C45.4572 24.1222 45.7822 24.0593 46.2015 23.9964C46.6418 23.9335 47.1135 23.9021 47.6167 23.9021C48.6651 23.9021 49.4199 24.0803 49.8811 24.4367C50.3424 24.7722 50.573 25.4327 50.573 26.4181V29.5316C50.9924 29.3639 51.4641 29.2276 51.9883 29.1228C52.5124 28.997 53.0785 28.9341 53.6865 28.9341C55.7622 28.9341 57.3767 29.4582 58.5298 30.5065C59.683 31.5339 60.2596 33.0749 60.2596 35.1297V44.6589Z" fill="#D9D9D9"/>
<path d="M79.3798 37.0481C79.3798 38.3061 79.1806 39.4383 78.7822 40.4447C78.4048 41.4511 77.8492 42.3107 77.1154 43.0236C76.4025 43.7154 75.5429 44.2501 74.5365 44.6275C73.5301 45.0049 72.3979 45.1936 71.1399 45.1936C69.882 45.1936 68.7498 45.0154 67.7434 44.6589C66.737 44.2815 65.8669 43.7469 65.133 43.055C64.4202 42.3421 63.8646 41.4825 63.4662 40.4761C63.0888 39.4697 62.9001 38.3271 62.9001 37.0481C62.9001 35.8111 63.0993 34.6894 63.4976 33.683C63.896 32.6766 64.4516 31.8274 65.1645 31.1355C65.8983 30.4227 66.7684 29.8776 67.7748 29.5002C68.7812 29.1228 69.9029 28.9341 71.1399 28.9341C72.377 28.9341 73.4987 29.1332 74.5051 29.5316C75.5115 29.909 76.3711 30.4541 77.0839 31.167C77.8178 31.8589 78.3839 32.708 78.7822 33.7144C79.1806 34.7208 79.3798 35.832 79.3798 37.0481ZM71.1399 33.1169C70.2593 33.1169 69.5779 33.4628 69.0957 34.1547C68.6135 34.8256 68.3724 35.7901 68.3724 37.0481C68.3724 38.369 68.6135 39.3649 69.0957 40.0358C69.5779 40.6858 70.2593 41.0108 71.1399 41.0108C72.0205 41.0108 72.7019 40.6753 73.1842 40.0044C73.6664 39.3334 73.9075 38.348 73.9075 37.0481C73.9075 35.7901 73.6664 34.8256 73.1842 34.1547C72.7019 33.4628 72.0205 33.1169 71.1399 33.1169Z" fill="#D9D9D9"/>
<path d="M85.1017 44.942C84.0533 44.942 83.2986 44.7743 82.8373 44.4388C82.376 44.0824 82.1454 43.4114 82.1454 42.426V24.1851C82.376 24.1222 82.701 24.0593 83.1203 23.9964C83.5606 23.9335 84.0324 23.9021 84.5356 23.9021C85.5839 23.9021 86.3387 24.0803 86.8 24.4367C87.2612 24.7722 87.4919 25.4327 87.4919 26.4181V44.6589C87.2612 44.7218 86.9258 44.7847 86.4855 44.8476C86.0661 44.9105 85.6049 44.942 85.1017 44.942Z" fill="#D9D9D9"/>
<path d="M97.4671 41.2938C97.8235 41.2938 98.2114 41.2624 98.6307 41.1995C99.071 41.1156 99.396 41.0108 99.6057 40.885V38.369L97.3413 38.5577C96.7542 38.5996 96.272 38.7254 95.8946 38.9351C95.5172 39.1447 95.3285 39.4592 95.3285 39.8786C95.3285 40.2979 95.4857 40.6439 95.8002 40.9164C96.1357 41.168 96.6913 41.2938 97.4671 41.2938ZM97.2155 28.9341C98.3477 28.9341 99.375 29.0494 100.298 29.28C101.241 29.5106 102.038 29.8671 102.688 30.3493C103.359 30.8106 103.872 31.4081 104.229 32.1419C104.585 32.8548 104.763 33.7039 104.763 34.6894V41.7341C104.763 42.2792 104.606 42.73 104.292 43.0865C103.998 43.4219 103.642 43.7154 103.222 43.967C101.86 44.7847 99.9411 45.1936 97.4671 45.1936C96.3559 45.1936 95.3495 45.0888 94.4479 44.8791C93.5673 44.6694 92.802 44.3549 92.1521 43.9356C91.5231 43.5163 91.0304 42.9816 90.6739 42.3317C90.3385 41.6817 90.1707 40.9269 90.1707 40.0673C90.1707 38.6206 90.6006 37.5094 91.4602 36.7336C92.3198 35.9578 93.6512 35.4756 95.4543 35.2869L99.5742 34.8466V34.6265C99.5742 34.0184 99.3017 33.5886 98.7565 33.337C98.2324 33.0645 97.4671 32.9282 96.4607 32.9282C95.6849 32.9282 94.9092 33.012 94.1334 33.1798C93.3786 33.3475 92.6972 33.5572 92.0892 33.8088C91.8166 33.6201 91.586 33.337 91.3973 32.9596C91.2086 32.5613 91.1142 32.1524 91.1142 31.7331C91.1142 31.188 91.24 30.7581 91.4916 30.4437C91.7642 30.1082 92.173 29.8251 92.7182 29.5945C93.3262 29.3639 94.0391 29.1961 94.8568 29.0913C95.6954 28.9865 96.4817 28.9341 97.2155 28.9341Z" fill="#D9D9D9"/>
<path d="M116.65 33.1483C116.126 33.1483 115.622 33.2322 115.14 33.3999C114.679 33.5677 114.27 33.8193 113.914 34.1547C113.578 34.4902 113.306 34.9095 113.096 35.4127C112.886 35.8949 112.781 36.461 112.781 37.111C112.781 38.4109 113.148 39.3754 113.882 40.0044C114.616 40.6334 115.528 40.9479 116.618 40.9479C117.247 40.9479 117.803 40.8745 118.285 40.7277C118.767 40.56 119.187 40.3923 119.543 40.2245C119.941 40.5181 120.235 40.8326 120.424 41.168C120.633 41.5035 120.738 41.9123 120.738 42.3946C120.738 43.2332 120.319 43.9041 119.48 44.4073C118.663 44.9105 117.488 45.1621 115.958 45.1621C114.637 45.1621 113.442 44.9944 112.373 44.6589C111.324 44.3025 110.423 43.7888 109.668 43.1179C108.934 42.426 108.368 41.5873 107.97 40.6019C107.571 39.5955 107.372 38.4319 107.372 37.111C107.372 35.7272 107.592 34.5216 108.032 33.4943C108.494 32.4669 109.112 31.6178 109.888 30.9468C110.664 30.2759 111.555 29.7727 112.561 29.4373C113.589 29.1018 114.668 28.9341 115.801 28.9341C117.31 28.9341 118.474 29.2066 119.291 29.7518C120.109 30.2969 120.518 30.9993 120.518 31.8589C120.518 32.2573 120.424 32.6346 120.235 32.9911C120.046 33.3265 119.826 33.6201 119.575 33.8717C119.218 33.7039 118.788 33.5467 118.285 33.3999C117.782 33.2322 117.237 33.1483 116.65 33.1483Z" fill="#D9D9D9"/>
<path d="M123.42 29.4687C123.65 29.4058 123.975 29.3429 124.394 29.28C124.835 29.2171 125.307 29.1857 125.81 29.1857C126.858 29.1857 127.613 29.3639 128.074 29.7203C128.535 30.0558 128.766 30.7162 128.766 31.7016V38.6206C128.766 39.4802 128.976 40.0987 129.395 40.4761C129.814 40.8326 130.422 41.0108 131.219 41.0108C131.701 41.0108 132.089 40.9688 132.383 40.885C132.697 40.8011 132.938 40.7172 133.106 40.6334V29.4687C133.337 29.4058 133.662 29.3429 134.081 29.28C134.521 29.2171 134.993 29.1857 135.496 29.1857C136.545 29.1857 137.299 29.3639 137.761 29.7203C138.222 30.0558 138.453 30.7162 138.453 31.7016V41.4196C138.453 42.4679 138.012 43.2542 137.132 43.7783C136.398 44.2396 135.517 44.5856 134.49 44.8162C133.483 45.0678 132.383 45.1936 131.188 45.1936C130.055 45.1936 129.007 45.0678 128.043 44.8162C127.099 44.5646 126.281 44.1767 125.59 43.6525C124.898 43.1284 124.363 42.4575 123.986 41.6398C123.608 40.8011 123.42 39.7947 123.42 38.6206V29.4687Z" fill="#D9D9D9"/>
<path d="M147.071 44.6589C146.84 44.7218 146.505 44.7847 146.064 44.8476C145.645 44.9105 145.184 44.942 144.681 44.942C143.632 44.942 142.877 44.7743 142.416 44.4388C141.955 44.0824 141.724 43.4114 141.724 42.426V33.0854C141.724 32.4774 141.882 31.9532 142.196 31.5129C142.511 31.0517 142.94 30.6533 143.485 30.3179C144.219 29.8776 145.068 29.5421 146.033 29.3115C147.018 29.0808 148.046 28.9655 149.115 28.9655C151.4 28.9655 152.543 29.7727 152.543 31.3871C152.543 31.7645 152.491 32.121 152.386 32.4564C152.281 32.7709 152.155 33.0435 152.008 33.2741C151.61 33.1903 151.033 33.1483 150.279 33.1483C149.733 33.1483 149.167 33.2112 148.58 33.337C148.014 33.4628 147.511 33.6515 147.071 33.9031V44.6589Z" fill="#D9D9D9"/>
<path d="M158.662 39.1552C158.956 39.91 159.449 40.4447 160.141 40.7592C160.832 41.0527 161.608 41.1995 162.468 41.1995C163.348 41.1995 164.187 41.0946 164.984 40.885C165.781 40.6543 166.42 40.3923 166.902 40.0987C167.238 40.3084 167.521 40.6019 167.751 40.9793C167.982 41.3567 168.097 41.7551 168.097 42.1744C168.097 42.6986 167.951 43.1494 167.657 43.5267C167.364 43.9041 166.944 44.2186 166.399 44.4702C165.875 44.7218 165.246 44.9001 164.512 45.0049C163.778 45.1307 162.971 45.1936 162.09 45.1936C160.853 45.1936 159.7 45.0259 158.631 44.6904C157.583 44.334 156.671 43.8098 155.895 43.1179C155.119 42.426 154.511 41.5559 154.071 40.5076C153.63 39.4592 153.41 38.2327 153.41 36.828C153.41 35.4442 153.63 34.2596 154.071 33.2741C154.532 32.2677 155.13 31.45 155.863 30.821C156.618 30.1711 157.467 29.6993 158.411 29.4058C159.354 29.0913 160.319 28.9341 161.304 28.9341C162.415 28.9341 163.422 29.1018 164.323 29.4373C165.246 29.7727 166.032 30.234 166.682 30.821C167.353 31.4081 167.867 32.1105 168.223 32.9282C168.58 33.7459 168.758 34.637 168.758 35.6014C168.758 36.3143 168.559 36.8594 168.16 37.2368C167.762 37.6142 167.206 37.8553 166.493 37.9601L158.662 39.1552ZM161.336 32.8338C160.539 32.8338 159.868 33.0749 159.323 33.5572C158.799 34.0394 158.484 34.7208 158.379 35.6014L163.726 34.7208C163.705 34.5112 163.642 34.3015 163.537 34.0918C163.432 33.8612 163.286 33.6515 163.097 33.4628C162.908 33.2741 162.667 33.1274 162.374 33.0225C162.08 32.8967 161.734 32.8338 161.336 32.8338Z" fill="#D9D9D9"/>
</g>
<defs>
<clipPath id="clip0_7303_66961">
<rect width="167.802" height="66" fill="white" transform="translate(0.953125 0.5)"/>
</clipPath>
</defs>
</svg>
