<svg width="197" height="66" viewBox="0 0 197 66" fill="none" xmlns="http://www.w3.org/2000/svg">
<g clip-path="url(#clip0_4352_109417)">
<path d="M6.72556 32.3491C11.6855 26.0876 16.5966 19.7758 21.5426 13.5C21.5496 26.1667 21.5496 38.8334 21.5426 51.5C16.3943 46.2594 11.1065 41.1481 6.03493 35.8213C4.93273 34.7717 5.93727 33.2405 6.72556 32.3491Z" fill="#D9D9D9"/>
<path d="M30.5961 25.5C35.2455 25.5073 39.9023 25.5 44.5593 25.5073C42.7367 28.2675 40.6761 30.8807 38.9576 33.7143C38.1691 34.8154 39.1956 35.9384 39.8726 36.7827C43.4509 41.0035 46.9993 45.2538 50.5478 49.4967C45.4743 49.5041 40.4008 49.4967 35.3273 49.4967C31.7268 45.1731 28.1188 40.8421 24.5182 36.5184C23.7669 35.7256 23.0974 34.463 23.9381 33.4867C26.0582 30.7486 28.4089 28.1867 30.5961 25.5Z" fill="#D9D9D9"/>
<path d="M59.0791 19.5C60.5786 19.5085 62.078 19.5085 63.5775 19.5C63.5861 28.8022 63.5861 38.1045 63.5775 47.4067C62.078 47.3982 60.5786 47.3982 59.0791 47.4067C59.0791 38.1045 59.0791 28.8022 59.0791 19.5Z" fill="#D9D9D9"/>
<path d="M148.353 47.4067C148.353 38.1045 148.353 28.8022 148.353 19.5C149.852 19.5085 151.351 19.5085 152.852 19.5C152.852 28.8022 152.852 38.1045 152.852 47.4067C151.351 47.3982 149.852 47.3982 148.353 47.4067Z" fill="#D9D9D9"/>
<path d="M72.6941 27.5327C74.4506 27.5412 76.1985 27.5412 77.955 27.5412C75.1874 30.855 72.4285 34.1602 69.6609 37.4568C72.4285 40.7705 75.2047 44.0842 77.9722 47.3979C76.2156 47.3979 74.4592 47.3979 72.7027 47.4064C69.9351 44.0842 67.1504 40.779 64.3828 37.4568C67.159 34.1602 69.918 30.8379 72.6941 27.5327Z" fill="#D9D9D9"/>
<path d="M79.4888 27.5327C80.894 27.5497 82.2992 27.5582 83.7043 27.5497C83.7473 28.3675 83.8243 29.9945 83.8585 30.8122C86.489 26.3997 94.5091 25.5393 96.334 31.0167C97.4822 36.3834 96.634 41.9545 96.891 47.4063C95.3915 47.3978 93.8921 47.3978 92.3926 47.4063C92.1356 42.5849 92.941 37.6355 91.9385 32.8993C90.1991 29.313 84.9468 31.4852 84.2356 34.7734C83.6272 38.9389 84.1585 43.1982 83.9786 47.4063C82.4877 47.3978 80.9882 47.3978 79.4888 47.4063C79.4888 40.7789 79.4888 34.16 79.4888 27.5327Z" fill="#D9D9D9"/>
<path d="M105.459 27.5668C109.736 26.3231 115.065 27.8394 117.069 32.0306C118.972 36.0171 118.758 41.2731 115.836 44.7316C111.851 49.2379 103.377 48.7609 100.267 43.4879C97.071 38.1213 98.776 29.2876 105.459 27.5668ZM106.325 31.1786C101.638 34.0068 102.332 44.1609 108.638 44.2631C113.248 44.1353 114.328 38.3768 113.307 34.8076C112.819 31.6898 109.203 29.6198 106.325 31.1786Z" fill="#D9D9D9"/>
<path d="M117.935 27.5412C119.468 27.5497 121.002 27.5497 122.536 27.5327C123.77 32.4905 124.995 37.4482 126.229 42.406C127.583 37.4482 128.92 32.4905 130.256 27.5327C131.764 27.5497 133.263 27.5497 134.772 27.5412C136.1 32.499 137.445 37.4482 138.79 42.3975C140.015 37.4482 141.241 32.499 142.449 27.5412C144 27.5582 145.559 27.5497 147.111 27.5327C145.217 34.1602 143.314 40.779 141.403 47.4064C139.887 47.3979 138.37 47.3979 136.854 47.4064C135.415 42.4997 133.975 37.6017 132.527 32.7035C131.088 37.6017 129.665 42.5082 128.234 47.4064C126.709 47.3979 125.192 47.3979 123.675 47.4064C121.766 40.779 119.845 34.1602 117.935 27.5412Z" fill="#D9D9D9"/>
<path d="M156.106 32.0987C158.635 26.5617 167.366 25.3265 171.161 30.182C173.089 32.5162 173.183 35.6339 173.329 38.5047C168.685 38.5217 164.041 38.5047 159.397 38.5217C159.765 40.3872 160.228 42.5339 162.078 43.505C165.018 45.1747 168.531 43.8969 171.161 42.2527C171.709 43.2069 172.267 44.1609 172.815 45.115C168.968 47.909 163.373 48.8547 159.157 46.3247C154.572 43.3347 153.948 36.7413 156.106 32.0987ZM159.286 35.3869C162.541 35.438 165.797 35.438 169.054 35.3954C168.797 32.9165 167.246 30.1139 164.341 30.378C161.436 30.2075 159.851 32.9505 159.286 35.3869Z" fill="#D9D9D9"/>
<path d="M177.297 28.5126C181.152 26.0848 186.241 27.0815 189.772 29.637C189.181 30.6337 188.58 31.6303 187.989 32.6355C185.813 31.3663 183.337 29.9437 180.724 30.7785C179.207 31.0085 178.582 33.2148 179.952 34.0411C182.592 35.583 185.934 35.7022 188.298 37.7296C190.989 40.1488 190.055 44.817 187.038 46.5463C182.781 49.0166 177.262 47.6366 173.741 44.4848C174.495 43.5308 175.249 42.5852 176.002 41.6311C178.376 43.7437 184.117 46.197 185.497 41.9973C184.219 39.1266 180.252 39.493 177.845 37.9426C174.05 36.3752 173.869 30.557 177.297 28.5126Z" fill="#D9D9D9"/>
</g>
<defs>
<clipPath id="clip0_4352_109417">
<rect width="197" height="66" fill="white"/>
</clipPath>
</defs>
</svg>
