<svg width="178" height="67" viewBox="0 0 178 67" fill="none" xmlns="http://www.w3.org/2000/svg">
<g clip-path="url(#clip0_7303_66917)">
<path d="M19.875 49.8495C19.875 49.8495 23.2767 41.5249 30.7094 40.6436C30.7094 40.6436 25.8323 51.9747 19.875 49.8495Z" fill="#C3C3C3"/>
<path d="M1.34797 11.5807C1.03359 11.6101 0.73979 11.7548 0.519732 11.9885C0.299674 12.2222 0.167886 12.5295 0.148209 12.8548C-0.241955 19.6535 -1.27589 54.5911 18.759 55.5001C22.173 55.5001 29.7324 51.2195 30.7078 40.6438C30.7078 40.6438 26.6842 50.0864 21.0756 50.0864C18.1494 50.0864 14.0039 45.5539 13.2723 35.9854C12.5579 26.6511 15.7889 10.1958 1.34797 11.5807Z" fill="#D9D9D9"/>
<path d="M46.4622 40.9836H56.9283V43.1441H44.1797V19.9783H46.4622V40.9836Z" fill="#D9D9D9"/>
<path d="M62.3139 21.9321C62.3182 22.146 62.2767 22.3583 62.1924 22.5537C62.1081 22.7491 61.983 22.9229 61.8261 23.0627C61.5447 23.3421 61.1704 23.4998 60.78 23.5033C60.3896 23.4998 60.0153 23.3421 59.7339 23.0627C59.5792 22.9217 59.4564 22.7474 59.3743 22.552C59.2921 22.3567 59.2525 22.145 59.2584 21.9321C59.2526 21.7195 59.2922 21.5083 59.3743 21.3133C59.4565 21.1183 59.5793 20.9445 59.7339 20.804C60.0151 20.5239 60.3893 20.3654 60.78 20.3608C61.1707 20.3654 61.545 20.5239 61.8261 20.804C61.983 20.9433 62.108 21.1166 62.1924 21.3116C62.2767 21.5067 62.3182 21.7186 62.3139 21.9321V21.9321ZM61.8261 43.1439H59.7339V27.8243H61.8261V43.1439Z" fill="#D9D9D9"/>
<path d="M73.4061 43.144H71.07L65.0469 27.8243H67.5098L72.2649 40.7191H72.3283L77.0517 27.8218H79.4293L73.4061 43.144Z" fill="#D9D9D9"/>
<path d="M83.6179 36.0733C83.6758 36.8201 83.8582 37.551 84.1568 38.2338C84.4358 38.893 84.8339 39.4912 85.3298 39.9964C85.8152 40.4877 86.3849 40.8813 87.0099 41.1572C87.6607 41.4451 88.3624 41.59 89.0704 41.5828C90.0915 41.6107 91.0986 41.3326 91.9698 40.782C92.7147 40.3162 93.3488 39.6838 93.8256 38.9313L95.4423 40.3061C94.6736 41.3651 93.6701 42.2182 92.5161 42.7939C91.4363 43.2993 90.2633 43.557 89.0778 43.5494C88.0289 43.5594 86.9886 43.354 86.0174 42.945C85.1062 42.5598 84.2812 41.9856 83.5935 41.258C82.9034 40.5213 82.357 39.6545 81.9841 38.7047C81.5869 37.6854 81.388 36.5953 81.3989 35.4967C81.3882 34.3995 81.5819 33.3104 81.9695 32.2887C82.3296 31.338 82.8683 30.4703 83.5545 29.7355C84.2299 29.0153 85.0384 28.4425 85.9321 28.0509C86.8637 27.6408 87.8675 27.4342 88.8802 27.4441C89.9156 27.4271 90.9424 27.6392 91.8918 28.066C92.7392 28.4519 93.4998 29.0152 94.1255 29.7204C94.7383 30.424 95.2077 31.2478 95.5057 32.1427C95.8312 33.0937 95.9961 34.0953 95.9934 35.1039V36.0859L83.6179 36.0733ZM93.6988 34.3107C93.6988 32.8503 93.2761 31.6668 92.4307 30.7603C91.5854 29.8538 90.4003 29.3964 88.8754 29.388C88.2002 29.3871 87.5317 29.5267 86.9099 29.7984C86.2955 30.0572 85.7313 30.4282 85.2444 30.8938C84.7758 31.3425 84.3892 31.8748 84.1032 32.465C83.8233 33.0329 83.6771 33.6609 83.6764 34.2981L93.6988 34.3107Z" fill="#D9D9D9"/>
<path d="M101.695 20.22H109.177L114.344 35.3432H114.407L119.606 20.22H127.056V43.3858H122.111V25.6111H122.047L116.151 43.3858H112.378L106.704 25.6111H106.641V43.3858H101.695V20.22Z" fill="#D9D9D9"/>
<path d="M130.454 35.4312C130.438 34.2498 130.665 33.0782 131.12 31.9941C131.545 30.996 132.165 30.0993 132.941 29.3603C133.732 28.6163 134.659 28.0428 135.668 27.6732C136.741 27.2755 137.873 27.076 139.013 27.084C140.152 27.0763 141.284 27.2757 142.356 27.6732C143.365 28.0421 144.292 28.6157 145.083 29.3603C145.861 30.0985 146.482 30.9953 146.907 31.9941C147.362 33.0782 147.589 34.2498 147.572 35.4312C147.589 36.6127 147.362 37.7844 146.907 38.8683C146.482 39.8679 145.861 40.7655 145.083 41.5047C144.291 42.2477 143.365 42.8204 142.356 43.1893C141.284 43.5867 140.152 43.7862 139.013 43.7785C137.873 43.7864 136.741 43.587 135.668 43.1893C134.66 42.8197 133.733 42.2471 132.941 41.5047C132.165 40.7647 131.545 39.8672 131.12 38.8683C130.664 37.7844 130.437 36.6127 130.454 35.4312V35.4312ZM135.209 35.4312C135.209 36.6315 135.542 37.6026 136.206 38.3446C136.871 39.0866 137.807 39.4575 139.013 39.4575C140.218 39.4575 141.153 39.0866 141.817 38.3446C142.482 37.6026 142.816 36.6315 142.817 35.4312C142.817 34.2326 142.484 33.2615 141.817 32.5179C141.151 31.7742 140.216 31.4032 139.013 31.4049C137.809 31.4049 136.873 31.7759 136.206 32.5179C135.54 33.2598 135.207 34.231 135.207 35.4312H135.209Z" fill="#D9D9D9"/>
<path d="M150.359 27.4871H155.114V30.0403H155.178C155.598 29.1641 156.218 28.4063 156.985 27.832C157.769 27.3151 158.687 27.0577 159.616 27.0942C159.889 27.0942 160.165 27.1068 160.44 27.127C160.697 27.1464 160.952 27.1902 161.201 27.2579V31.7425C160.874 31.6338 160.54 31.5497 160.201 31.4907C159.861 31.4342 159.517 31.4065 159.172 31.4076C158.434 31.3741 157.699 31.5082 157.017 31.8004C156.516 32.0372 156.093 32.4185 155.797 32.8983C155.496 33.4117 155.308 33.9865 155.244 34.5829C155.155 35.2993 155.113 36.0211 155.117 36.7433V43.3884H150.362L150.359 27.4871Z" fill="#D9D9D9"/>
<path d="M177.27 40.6462C176.506 41.6527 175.516 42.4507 174.385 42.9704C173.252 43.5096 172.019 43.7888 170.771 43.7887C169.631 43.7967 168.498 43.5972 167.425 43.1995C166.418 42.8299 165.491 42.2573 164.699 41.515C163.923 40.775 163.303 39.8775 162.878 38.8786C162.422 37.7946 162.195 36.623 162.212 35.4415C162.196 34.26 162.422 33.0885 162.878 32.0044C163.303 31.0062 163.923 30.1095 164.699 29.3705C165.49 28.6266 166.417 28.053 167.425 27.6834C168.498 27.2857 169.631 27.0863 170.771 27.0942C171.797 27.0799 172.816 27.2804 173.766 27.6834C174.641 28.058 175.422 28.6352 176.048 29.3705C176.694 30.1408 177.184 31.0362 177.492 32.0044C177.841 33.1138 178.013 34.2749 177.999 35.4415V36.98H166.967C167.12 37.8514 167.556 38.6429 168.203 39.2235C168.86 39.7883 169.695 40.0848 170.549 40.057C171.246 40.0809 171.934 39.8936 172.529 39.5182C173.079 39.1479 173.558 38.6758 173.941 38.1257L177.27 40.6462ZM173.241 33.6411C173.258 33.2492 173.196 32.858 173.06 32.4919C172.923 32.1258 172.715 31.7927 172.449 31.5134C172.174 31.2209 171.843 30.9912 171.477 30.8389C171.112 30.6867 170.719 30.6154 170.325 30.6295C169.848 30.6167 169.374 30.7023 168.93 30.8813C168.551 31.0412 168.201 31.2688 167.898 31.5536C167.617 31.8206 167.391 32.1435 167.233 32.5029C167.075 32.858 166.984 33.2408 166.964 33.631L173.241 33.6411Z" fill="#D9D9D9"/>
</g>
<defs>
<clipPath id="clip0_7303_66917">
<rect width="178" height="44" fill="white" transform="translate(0 11.5)"/>
</clipPath>
</defs>
</svg>
