<svg width="185" height="66" viewBox="0 0 185 66" fill="none" xmlns="http://www.w3.org/2000/svg">
<g clip-path="url(#clip0_4352_109479)">
<mask id="mask0_4352_109479" style="mask-type:luminance" maskUnits="userSpaceOnUse" x="0" y="18" width="185" height="28">
<path d="M184.402 18.2698H0.261719V45.5639H184.402V18.2698Z" fill="white"/>
</mask>
<g mask="url(#mask0_4352_109479)">
<path d="M0.261719 29.3255C0.261719 27.4174 1.84985 23.1809 8.38402 23.1809C12.0904 23.1809 14.1551 24.2046 15.4376 26.3087C15.5157 26.2508 15.5874 26.1843 15.6513 26.1105C17.1477 23.9781 19.6826 23.1156 22.1749 23.1853C26.4496 23.3051 29.3758 26.1345 29.5147 30.5191C29.6537 34.9037 29.5574 39.3318 29.564 43.7383C29.5541 43.8065 29.5375 43.8736 29.5147 43.9386H25.2827C25.2827 43.7383 25.2549 43.5247 25.2549 43.3113C25.2549 39.5359 25.2549 35.7604 25.2549 31.985C25.2549 31.0157 25.1866 30.0573 24.7271 29.1795C24.0024 27.8051 22.8033 27.2584 21.3391 27.2737C19.7616 27.2889 18.4727 27.901 17.7053 29.3886C17.1475 30.4494 17.0298 31.6038 17.0298 32.7822C17.0298 36.2672 17.0298 39.7522 17.0298 43.2373V43.9473H12.7102V43.2939C12.7102 39.5533 12.7102 35.8135 12.7102 32.0743C12.7201 31.5191 12.6793 30.9642 12.5884 30.4167C12.131 28.0208 10.2842 26.8315 7.94371 27.3934C6.08413 27.8421 4.86792 29.2928 4.62211 31.3903C4.55978 31.9231 4.52838 32.4591 4.52806 32.9957C4.52806 36.4226 4.52806 39.848 4.52806 43.2721V43.9626H0.261719V29.3255Z" fill="#D9D9D9"/>
<path d="M171.94 26.2845V23.736H176.188V43.9405H171.965V41.1612C171.866 41.2256 171.771 41.2985 171.683 41.379C169.367 44.2106 166.34 44.9707 162.943 44.2717C158.692 43.4003 155.463 39.5842 155.054 35.1648C154.719 31.6188 155.695 28.5345 158.171 26.0035C161.163 22.9541 166.045 22.2876 169.584 24.42C170.011 24.7001 170.42 25.0071 170.808 25.3392C171.193 25.6463 171.563 25.973 171.94 26.291M159.31 33.8514C159.31 37.5826 161.992 40.3314 165.617 40.3248C169.243 40.3183 171.938 37.5324 171.926 33.8296C171.916 30.1267 169.201 27.3409 165.596 27.3474C161.99 27.3539 159.306 30.1158 159.31 33.8514Z" fill="#D9D9D9"/>
<path d="M100.509 38.0028L103.999 40.0765C103.366 41.0669 102.553 41.9244 101.603 42.603C97.728 45.4585 90.5824 45.2429 86.9679 41.0152C84.6916 38.3731 84.0503 35.2693 84.5698 31.8866C85.4247 26.4717 89.9348 22.893 95.4473 23.1914C100.331 23.4571 104.157 27.0881 104.82 32.0521C104.933 32.8233 104.974 33.6036 104.944 34.3827C104.93 34.7337 104.783 35.0654 104.534 35.309C104.286 35.5525 103.955 35.6888 103.61 35.6896H89.0414C88.911 37.0466 90.3794 39.0004 92.1128 39.8281C94.9513 41.1981 97.9779 40.5512 100.509 38.0028ZM100.554 32.1022C100.306 29.6866 98.4161 27.2602 95.1009 27.1491C91.9268 27.0402 89.2807 29.1573 88.9344 32.1022H100.554Z" fill="#D9D9D9"/>
<path d="M41.901 23.1775C47.8302 23.195 52.4514 27.8976 52.4215 33.8809C52.3915 39.8643 47.7448 44.5212 41.8667 44.5059C35.9887 44.4907 31.3141 39.7553 31.3291 33.7916C31.344 27.8279 36.0314 23.1623 41.901 23.1775ZM41.8732 40.2367C45.4191 40.2367 48.0995 37.5032 48.108 33.8635C48.1166 30.2238 45.4554 27.4598 41.9095 27.4489C38.325 27.4358 35.6531 30.1716 35.6575 33.8483C35.6616 37.5251 38.3143 40.2345 41.8689 40.2367" fill="#D9D9D9"/>
<path d="M124.694 43.9605H120.419V32.4751C120.419 32.2181 120.419 31.9567 120.419 31.6997C120.344 28.9639 118.735 27.5612 116.061 27.4893C112.855 27.4109 111.337 28.744 111.119 31.41C110.998 32.0766 110.926 32.7515 110.905 33.4291C110.893 36.6963 110.905 39.9832 110.905 43.2592V43.9518H106.844V30.3427C106.765 26.9666 109.817 23.1875 115.704 23.1875C119.87 23.1875 124.863 24.7427 124.698 30.5671C124.756 35.0083 124.72 39.4496 124.72 43.9605" fill="#D9D9D9"/>
<path d="M138.553 40.0836V43.9716C136.287 44.1895 134.041 44.4203 131.927 43.3638C130.322 42.5644 129.655 41.0899 129.439 39.3734C129.359 38.6941 129.32 38.0102 129.324 37.326C129.311 34.4378 129.324 31.5496 129.324 28.6635V27.9382H125.63V26.4549C125.63 25.7143 125.649 24.9738 125.63 24.2332C125.615 23.8237 125.741 23.6799 126.152 23.6908C127.184 23.717 128.216 23.6908 129.328 23.6908V21.5018C129.328 20.8897 129.313 20.2777 129.341 19.67C129.346 19.5877 129.37 19.5079 129.41 19.4367C129.451 19.3656 129.508 19.3053 129.576 19.2605C130.606 18.9229 131.647 18.6223 132.731 18.2977C132.833 18.2674 132.941 18.2616 133.046 18.281C133.151 18.3004 133.25 18.3443 133.335 18.4094C133.421 18.4744 133.49 18.5588 133.538 18.6559C133.586 18.7529 133.611 18.86 133.611 18.9686C133.611 20.3386 133.633 21.7087 133.611 23.0788C133.601 23.5536 133.71 23.7322 134.208 23.7104C135.443 23.6756 136.679 23.6995 137.914 23.6995H138.555V26.7925C138.556 26.9373 138.528 27.0808 138.473 27.2146C138.419 27.3485 138.34 27.4701 138.239 27.5725C138.139 27.6749 138.019 27.756 137.888 27.8113C137.757 27.8666 137.616 27.8949 137.474 27.8946H133.626V37.3391C133.626 37.4502 133.626 37.557 133.626 37.6723C133.663 39.2427 134.218 39.8963 135.764 40.0553C136.482 40.1315 137.215 40.0791 137.94 40.0836H138.581" fill="#D9D9D9"/>
<path d="M184.248 43.9863C182.966 43.9863 181.726 43.9863 180.475 43.9863C180.335 43.9863 180.196 43.9645 180.021 43.9493V23.7405H184.248V43.9863Z" fill="#D9D9D9"/>
<path d="M147.615 44.0365C146.818 44.034 146.039 43.7904 145.378 43.3368C144.717 42.8832 144.202 42.2399 143.9 41.4883C143.597 40.7367 143.521 39.9107 143.679 39.1145C143.837 38.3184 144.224 37.5881 144.79 37.016C145.356 36.4438 146.076 36.0557 146.858 35.9005C147.641 35.7454 148.451 35.8302 149.186 36.1444C149.921 36.4585 150.548 36.9878 150.988 37.6652C151.428 38.3428 151.661 39.1381 151.657 39.9503C151.655 40.4893 151.55 41.0227 151.346 41.5198C151.142 42.0171 150.843 42.4685 150.468 42.848C150.092 43.2276 149.647 43.528 149.157 43.732C148.668 43.9359 148.144 44.0394 147.615 44.0365Z" fill="#D9D9D9"/>
<path d="M53.6865 29.3255C53.6865 27.4087 55.2767 23.1809 61.8088 23.1809C65.5151 23.1809 67.5799 24.2046 68.8624 26.3087C68.9396 26.2521 69.0111 26.1879 69.0762 26.1171C70.5722 23.9847 73.1052 23.1221 75.5974 23.1918C79.8723 23.3116 82.8007 26.141 82.9375 30.5256C83.0742 34.9102 82.9823 39.3383 82.9823 43.7535C82.9724 43.8217 82.956 43.8889 82.9331 43.9539H78.7074C78.6967 43.7535 78.6796 43.5401 78.6796 43.3265C78.6796 39.5511 78.6796 35.7756 78.6796 32.0002C78.6796 31.031 78.6113 30.0726 78.1516 29.1948C77.4271 27.8204 76.228 27.2737 74.7638 27.2889C73.1864 27.3041 71.8997 27.9162 71.1302 29.4039C70.5809 30.4647 70.4569 31.6191 70.4569 32.7974C70.4569 36.2824 70.4569 39.7675 70.4569 43.2525V43.9626H66.1349V43.3091C66.1349 39.5686 66.1349 35.8286 66.1349 32.0895C66.146 31.5343 66.1051 30.9793 66.0131 30.432C65.5579 28.036 63.709 26.8467 61.3685 27.4087C59.5111 27.8574 58.2927 29.308 58.0468 31.4056C57.9842 31.9383 57.9536 32.4744 57.9549 33.0109C57.9549 36.4371 57.9549 39.8634 57.9549 43.2874V43.9778H53.6865V29.3255Z" fill="#D9D9D9"/>
</g>
</g>
<defs>
<clipPath id="clip0_4352_109479">
<rect width="185" height="66" fill="white"/>
</clipPath>
</defs>
</svg>
