<svg width="211" height="66" viewBox="0 0 211 66" fill="none" xmlns="http://www.w3.org/2000/svg">
<g clip-path="url(#clip0_4352_109294)">
<path opacity="0.964" fill-rule="evenodd" clip-rule="evenodd" d="M203.669 21C205.869 21 208.068 21 210.268 21C210.237 27.994 210.268 34.9877 210.36 41.9813C210.704 42.6969 211.194 43.3103 211.826 43.8218C211.916 44.0598 211.947 44.3053 211.918 44.558C209.168 44.558 206.419 44.558 203.669 44.558C203.935 43.8269 204.393 43.2133 205.044 42.7175C205.201 42.4254 205.324 42.1186 205.41 41.7973C205.533 35.7237 205.533 29.6502 205.41 23.5767C205.324 23.2553 205.201 22.9485 205.044 22.6564C204.474 22.1777 204.015 21.6256 203.669 21Z" fill="#D9D9D9"/>
<path opacity="0.951" fill-rule="evenodd" clip-rule="evenodd" d="M1.66027 21.7363C1.91196 21.7074 2.1565 21.7382 2.39352 21.8284C7.2513 26.2147 12.1091 30.6013 16.9668 34.9877C17.0891 31.6136 17.0891 28.2393 16.9668 24.8651C16.5461 24.2583 16.0573 23.7062 15.5003 23.2087C15.4118 23.0342 15.3814 22.8502 15.4087 22.6566C18.1584 22.6566 20.9081 22.6566 23.6577 22.6566C23.3298 23.4502 22.8103 24.1251 22.0996 24.6811C22.0385 24.8651 21.9773 25.0492 21.9163 25.2332C21.8246 31.8585 21.794 38.4842 21.8246 45.1103C21.4296 45.1338 21.063 45.0418 20.7247 44.8342C16.0065 40.4876 11.271 36.1625 6.51805 31.8589C6.39578 35.3558 6.39578 38.8527 6.51805 42.3496C7.00694 42.8404 7.49565 43.3311 7.98454 43.8219C8.07437 44.0599 8.10498 44.3054 8.0762 44.5581C5.38756 44.5581 2.6991 44.5581 0.010462 44.5581C-0.018318 44.3054 0.0122951 44.0599 0.102118 43.8219C0.659021 43.3245 1.14791 42.7723 1.56862 42.1655C1.66027 35.3562 1.69089 28.5464 1.66027 21.7363Z" fill="#D9D9D9"/>
<path opacity="0.95" fill-rule="evenodd" clip-rule="evenodd" d="M67.2852 21.9207C67.4685 21.9207 67.6518 21.9207 67.8352 21.9207C67.3092 24.5238 66.6676 27.1005 65.9104 29.6506C64.1535 26.833 61.6788 25.9435 58.4862 26.9819C55.7673 28.3577 54.4231 30.5968 54.4534 33.6996C54.5863 38.5274 57.0304 40.828 61.7859 40.6014C63.4578 40.2847 64.8021 39.4564 65.8187 38.1168C66.9252 39.1726 67.903 40.3384 68.7517 41.6137C66.5325 43.9833 63.7829 45.0875 60.5027 44.9265C54.0902 44.8361 50.2711 41.6459 49.0456 35.3561C48.6101 27.2354 52.429 22.8797 60.5027 22.2887C62.3954 22.4789 64.2895 22.5709 66.1853 22.5648C66.5936 22.3916 66.9602 22.1768 67.2852 21.9207Z" fill="#D9D9D9"/>
<path opacity="0.92" fill-rule="evenodd" clip-rule="evenodd" d="M117.512 21.9203C120.681 21.8794 121.751 23.3518 120.72 26.3374C119.667 27.4599 118.414 27.736 116.962 27.1656C115.575 26.2391 115.178 24.9815 115.771 23.3926C116.167 22.6555 116.747 22.1649 117.512 21.9203Z" fill="#D9D9D9"/>
<path opacity="0.958" fill-rule="evenodd" clip-rule="evenodd" d="M25.6721 22.6563C30.4386 22.6256 35.2047 22.6563 39.9704 22.7483C44.8722 23.6023 46.4914 26.3936 44.8282 31.1225C44.1128 32.1104 43.1656 32.7546 41.9869 33.0549C45.7627 34.1624 47.1376 36.647 46.1114 40.5088C45.3653 42.4229 43.9905 43.6192 41.9869 44.0977C41.2643 44.2805 40.531 44.4033 39.7871 44.4658C35.0824 44.5579 30.3775 44.5886 25.6721 44.5579C25.6433 44.3052 25.6739 44.0596 25.7637 43.8217C26.3747 43.4536 26.8636 42.9627 27.2302 42.3493C27.3525 36.5211 27.3525 30.6931 27.2302 24.8649C26.8095 24.2581 26.3206 23.7059 25.7637 23.2084C25.6752 23.034 25.6448 22.8499 25.6721 22.6563ZM32.4546 26.7053C34.472 26.6746 36.4884 26.7053 38.5039 26.7974C40.358 27.3985 40.8773 28.5948 40.0621 30.3863C39.8396 30.6714 39.5646 30.886 39.2372 31.0304C36.9861 31.287 34.7251 31.379 32.4546 31.3065C32.4546 29.7728 32.4546 28.239 32.4546 26.7053ZM32.4546 35.1715C34.8472 35.0977 37.2303 35.1897 39.6038 35.4475C41.2126 36.3056 41.6096 37.5633 40.7953 39.2205C40.5125 39.5661 40.1765 39.8422 39.7871 40.0487C37.354 40.311 34.9099 40.403 32.4546 40.3248C32.4546 38.6071 32.4546 36.8892 32.4546 35.1715Z" fill="#D9D9D9"/>
<path opacity="0.959" fill-rule="evenodd" clip-rule="evenodd" d="M70.4023 22.6565C73.2742 22.6565 76.146 22.6565 79.0179 22.6565C78.69 23.4501 78.1705 24.125 77.4598 24.681C77.3987 24.8651 77.3375 25.0491 77.2765 25.2331C77.1542 29.0981 77.1542 32.9631 77.2765 36.8281C77.6455 39.3151 79.0814 40.6034 81.5843 40.6931C83.8656 40.701 85.2405 39.5967 85.7088 37.3802C85.8311 33.2084 85.8311 29.0368 85.7088 24.8651C85.3462 24.2862 84.888 23.7954 84.334 23.3927C84.1637 23.1738 84.1027 22.9285 84.1507 22.6565C87.0226 22.6565 89.8944 22.6565 92.7664 22.6565C92.4384 23.4501 91.9189 24.125 91.2082 24.681C91.1472 24.8651 91.0859 25.0491 91.0249 25.2331C90.9639 29.4662 90.9026 33.6993 90.8416 37.9324C90.0271 42.0107 87.5524 44.3112 83.4174 44.8341C80.2516 45.3279 77.3797 44.653 74.8018 42.8096C73.4242 41.5469 72.5993 39.9825 72.327 38.1164C72.266 33.8833 72.2048 29.6503 72.1437 25.4172C71.8107 24.529 71.2607 23.7928 70.4939 23.2086C70.4054 23.0342 70.3749 22.8501 70.4023 22.6565Z" fill="#D9D9D9"/>
<path opacity="0.943" fill-rule="evenodd" clip-rule="evenodd" d="M183.873 28.9143C184.117 28.9143 184.362 28.9143 184.606 28.9143C184.179 30.8759 183.752 32.8391 183.323 34.8038C183.13 34.8312 182.947 34.8007 182.773 34.7118C182.133 33.685 181.217 33.0714 180.023 32.8713C179.23 32.7486 178.434 32.7486 177.64 32.8713C176.456 33.4512 176.456 34.0649 177.64 34.7118C178.861 34.9571 180.082 35.2024 181.307 35.448C184.832 36.4945 185.902 38.7336 184.514 42.1657C183.389 43.7893 181.831 44.679 179.84 44.8343C177.459 45.1108 175.138 44.8655 172.874 44.0982C172.194 43.7575 171.582 43.3281 171.041 42.8098C171.736 41.7129 172.469 40.6394 173.241 39.589C175.037 40.9447 177.054 41.4661 179.29 41.1534C180.265 40.6786 180.386 40.0651 179.657 39.3129C178.265 38.9471 176.859 38.6404 175.441 38.3927C173.232 37.8327 172.011 36.4216 171.774 34.1596C171.959 31.3962 173.426 29.801 176.174 29.3744C178.174 29.2038 180.159 29.2958 182.131 29.6505C182.531 29.573 182.929 29.481 183.323 29.3744C183.587 29.305 183.77 29.1517 183.873 28.9143Z" fill="#D9D9D9"/>
<path opacity="0.944" fill-rule="evenodd" clip-rule="evenodd" d="M104.68 29.282C108.312 28.633 110.481 30.1054 111.188 33.6991C111.249 36.4598 111.31 39.2205 111.371 41.9812C111.777 42.7588 112.327 43.4337 113.021 44.0057C113.109 44.1802 113.14 44.3642 113.112 44.5578C110.913 44.5578 108.713 44.5578 106.513 44.5578C106.592 41.2976 106.5 38.0461 106.238 34.8034C105.195 33.232 103.881 32.9559 102.297 33.9751C101.902 34.4296 101.628 34.951 101.472 35.5395C101.35 37.7481 101.35 39.9567 101.472 42.1652C101.893 42.772 102.382 43.3242 102.939 43.8216C103.028 44.0596 103.059 44.3051 103.03 44.5578C100.281 44.5578 97.5309 44.5578 94.7812 44.5578C94.7539 44.3642 94.7843 44.1802 94.8728 44.0057C95.4297 43.5082 95.9186 42.9561 96.3393 42.3493C96.4616 38.7911 96.4616 35.2327 96.3393 31.6746C95.9186 31.0678 95.4297 30.5156 94.8728 30.0181C94.7843 29.8437 94.7539 29.6596 94.7812 29.466C96.9199 29.466 99.0584 29.466 101.197 29.466C101.167 30.2048 101.197 30.9409 101.289 31.6746C102.148 30.4716 103.279 29.6742 104.68 29.282Z" fill="#D9D9D9"/>
<path opacity="0.945" fill-rule="evenodd" clip-rule="evenodd" d="M146.475 29.2824C153.208 28.6187 156.325 31.686 155.824 38.4847C152.341 38.454 148.858 38.4847 145.375 38.5767C146.457 40.7139 148.169 41.4501 150.508 40.7853C151.179 40.6009 151.76 40.2634 152.249 39.7731C153.17 40.789 154.055 41.8318 154.907 42.9018C153.743 44.0378 152.337 44.6819 150.691 44.8343C147.082 45.5078 144.057 44.4955 141.617 41.7976C140.029 38.7301 140.029 35.6627 141.617 32.5952C142.835 30.8672 144.453 29.7629 146.475 29.2824ZM147.942 32.7793C149.751 32.8166 150.728 33.7369 150.875 35.54C149.042 35.54 147.208 35.54 145.375 35.54C145.606 34.0203 146.462 33.1001 147.942 32.7793Z" fill="#D9D9D9"/>
<path opacity="0.932" fill-rule="evenodd" clip-rule="evenodd" d="M167.372 29.2824C168.291 29.2519 169.207 29.2826 170.122 29.3744C170.472 29.4495 170.655 29.6643 170.672 30.0186C170.3 31.5125 169.873 32.9849 169.389 34.4357C167.779 33.1735 166.281 33.2963 164.897 34.8038C164.74 35.0959 164.617 35.4027 164.531 35.7241C164.408 37.9326 164.408 40.1412 164.531 42.3497C164.952 42.9565 165.44 43.5087 165.997 44.0062C166.085 44.1806 166.117 44.3647 166.089 44.5583C163.339 44.5583 160.59 44.5583 157.84 44.5583C157.811 44.3056 157.842 44.0601 157.932 43.8221C158.489 43.3246 158.976 42.7725 159.398 42.1657C159.521 38.7301 159.521 35.2947 159.398 31.8591C159.107 31.168 158.648 30.6158 158.023 30.2027C157.853 29.9838 157.792 29.7385 157.84 29.4665C159.979 29.4665 162.117 29.4665 164.256 29.4665C164.225 30.2663 164.256 31.0638 164.348 31.8591C165 30.558 166.008 29.6991 167.372 29.2824Z" fill="#D9D9D9"/>
<path opacity="0.945" fill-rule="evenodd" clip-rule="evenodd" d="M191.57 29.2822C193.414 29.2151 195.247 29.3071 197.069 29.5583C199.296 30.1386 200.548 31.5803 200.827 33.8834C200.887 36.6441 200.95 39.4048 201.01 42.1655C201.432 42.7723 201.92 43.3245 202.477 43.8219C202.567 44.0599 202.598 44.3054 202.568 44.5581C200.429 44.5581 198.292 44.5581 196.153 44.5581C196.393 43.0307 196.087 42.8159 195.236 43.914C193.005 45.1841 190.745 45.2454 188.453 44.098C186.879 42.7585 186.36 41.0715 186.895 39.0367C187.619 37.1513 188.994 36.0778 191.02 35.8159C192.55 35.6481 194.079 35.464 195.603 35.2638C196.317 34.6016 196.257 33.9881 195.419 33.4233C193.359 32.6597 191.495 32.9972 189.828 34.4356C188.84 33.5911 187.955 32.6404 187.17 31.5828C188.42 30.3722 189.887 29.6054 191.57 29.2822ZM195.419 37.9324C195.663 37.9324 195.909 37.9324 196.153 37.9324C196.241 40.5141 195.018 41.6491 192.486 41.3373C191.562 40.7828 191.35 40.0159 191.845 39.0367C192.087 38.671 192.422 38.4562 192.853 38.3926C193.731 38.2265 194.587 38.0732 195.419 37.9324Z" fill="#D9D9D9"/>
<path opacity="0.947" fill-rule="evenodd" clip-rule="evenodd" d="M114.212 29.4658C116.412 29.4658 118.611 29.4658 120.811 29.4658C120.78 33.6993 120.811 37.9323 120.903 42.165C121.323 42.7718 121.812 43.324 122.369 43.8215C122.459 44.0594 122.49 44.305 122.461 44.5576C119.711 44.5576 116.962 44.5576 114.212 44.5576C114.185 44.364 114.215 44.18 114.303 44.0055C114.86 43.508 115.349 42.9559 115.77 42.3491C116.063 39.0443 116.124 35.7315 115.953 32.4106C115.702 31.4195 115.152 30.622 114.303 30.018C114.215 29.8435 114.185 29.6594 114.212 29.4658Z" fill="#D9D9D9"/>
<path opacity="0.94" fill-rule="evenodd" clip-rule="evenodd" d="M122.646 29.4664C124.602 29.4356 126.558 29.4664 128.512 29.5584C129.519 31.8558 130.528 34.1564 131.537 36.4601C132.424 34.1564 133.309 31.8558 134.195 29.5584C136.149 29.4664 138.104 29.4356 140.061 29.4664C140.109 29.7384 140.048 29.9837 139.877 30.2025C139.137 30.9157 138.495 31.7132 137.953 32.5952C135.906 36.7055 133.859 40.816 131.812 44.9263C131.536 45.1558 131.261 45.1558 130.987 44.9263C128.758 40.3288 126.436 35.7891 124.021 31.3068C123.37 30.811 122.912 30.1974 122.646 29.4664Z" fill="#D9D9D9"/>
</g>
<defs>
<clipPath id="clip0_4352_109294">
<rect width="211" height="66" fill="white"/>
</clipPath>
</defs>
</svg>
