<svg width="142" height="66" viewBox="0 0 142 66" fill="none" xmlns="http://www.w3.org/2000/svg">
<g clip-path="url(#clip0_4352_109448)">
<path d="M42.7387 18.3474L32.1797 40.3978H42.9506L53.5366 18.3474H42.7387Z" fill="#D9D9D9"/>
<path d="M29.3228 18.3474L24.1478 29.1528L18.9729 18.3474L8.17635 18.3474L9.27876 20.6432L0 40.3978H10.7709L14.7823 32.1096L18.7624 40.3978H18.7638H29.5333H29.5347L40.1207 18.3474L29.3228 18.3474Z" fill="#D9D9D9"/>
<path d="M142.776 22.3517L131.582 14L129.36 18.5888L108.849 18.5888L100.872 18.5888H100.794C100.05 18.5888 99.3357 18.7805 98.7099 19.1229C97.8407 19.5796 97.1224 20.3082 96.6899 21.2271L94.5093 26.1132H94.5107L91.1822 33.1909L90.626 34.3184C89.2021 37.2019 91.3216 40.5645 94.5605 40.5645H112.926C114.72 40.5645 116.35 39.5357 117.108 37.9263L119.411 33.1571H119.38L122.488 26.8996L111.471 26.8996L108.474 33.1571H101.615L105.112 26.1132L125.714 26.1132L123.511 30.6626L142.776 22.3517Z" fill="#D9D9D9"/>
<path d="M69.3651 25.8706C71.587 25.5281 72.6069 25.4139 73.6226 23.307L76.0137 18.3447L56.2329 18.3447L52.6867 25.8706H56.533L54.4434 30.2339L49.5771 40.3966H60.3481L66.0849 28.4468C66.0835 28.4468 67.1418 26.2144 69.3651 25.8706Z" fill="#D9D9D9"/>
<path d="M89.9883 31.0277L90.9114 29.111L93.7862 23.0635C95.6426 18.3437 91.3183 18.3042 91.3183 18.3042H89.4676H78.5673L75.627 24.401H80.8091C80.8091 24.401 82.0153 24.4996 81.9342 25.5158C81.8517 26.5319 80.9755 26.6165 80.9755 26.6165L77.6412 26.7517C77.6412 26.7517 76.0139 26.6996 72.2927 27.0393C69.2544 27.4874 67.5104 30.8783 67.5104 30.8783L62.7949 40.356H73.5659L76.0054 35.1147C76.0111 35.1035 76.0168 35.0922 76.021 35.0809C76.2984 34.4157 76.452 34.1508 76.8205 34.1508C77.1491 34.1508 77.452 35.0936 77.452 35.0936L79.1675 40.356H89.9513L87.213 33.8745C88.8858 33.1783 89.9883 31.0277 89.9883 31.0277Z" fill="#D9D9D9"/>
<path d="M125.265 49.2495C124.782 49.2495 124.321 49.2495 123.844 49.2495C123.935 48.9787 124.023 48.7192 124.108 48.4588C124.127 48.4001 124.17 48.4053 124.216 48.4053C125.265 48.4057 126.314 48.4066 127.363 48.404C127.461 48.4035 127.455 48.4389 127.431 48.5102C127.1 49.4913 126.774 50.4746 126.438 51.454C126.327 51.777 126.032 51.8664 125.734 51.9303C125.521 51.9761 125.303 51.9908 125.085 51.9908C123.752 51.9912 122.419 51.9916 121.086 51.9903C120.853 51.9899 120.62 51.977 120.396 51.9044C120.116 51.8137 120.045 51.676 120.138 51.4005C120.751 49.5742 121.367 47.7493 121.975 45.9214C122.074 45.6238 122.285 45.4757 122.566 45.3967C122.821 45.325 123.084 45.3034 123.348 45.303C124.681 45.3017 126.014 45.3017 127.347 45.303C127.585 45.3034 127.823 45.3185 128.052 45.3924C128.329 45.4822 128.4 45.6234 128.31 45.8959C128.161 46.342 128.009 46.7872 127.864 47.2346C127.835 47.3261 127.792 47.355 127.694 47.3542C127.147 47.3486 126.599 47.3468 126.052 47.3546C125.91 47.3568 125.912 47.3149 125.951 47.2043C126.059 46.9025 126.155 46.5963 126.261 46.294C126.29 46.2111 126.302 46.1731 126.185 46.174C125.425 46.1787 124.665 46.1779 123.905 46.1744C123.824 46.174 123.792 46.2021 123.768 46.2737C123.239 47.8542 122.709 49.4348 122.175 51.0135C122.141 51.112 122.168 51.1189 122.254 51.1185C123.014 51.1163 123.774 51.1172 124.534 51.1172C124.589 51.1172 124.638 51.1241 124.663 51.0502C124.858 50.4565 125.058 49.864 125.265 49.2495Z" fill="#D9D9D9"/>
<path d="M131.7 45.3031C131.048 47.245 130.399 49.1745 129.745 51.1181C130.172 51.1181 130.581 51.1181 130.99 51.1181C131.391 51.1181 131.791 51.1138 132.192 51.1212C132.296 51.1229 132.337 51.0922 132.37 50.9942C132.985 49.1507 133.607 47.3085 134.222 45.465C134.263 45.3419 134.314 45.2966 134.452 45.2992C135.024 45.3091 135.596 45.3035 136.187 45.3035C136.069 45.6524 135.955 45.988 135.842 46.3235C135.281 47.9938 134.716 49.6624 134.164 51.3353C134.058 51.6545 133.845 51.8216 133.538 51.9023C133.287 51.9684 133.029 51.9913 132.771 51.9913C131.412 51.993 130.054 51.993 128.696 51.9913C128.457 51.9909 128.219 51.9758 127.991 51.9002C127.723 51.8117 127.653 51.67 127.743 51.4023C128.413 49.405 129.084 47.4083 129.755 45.4115C129.775 45.3497 129.789 45.2996 129.881 45.3005C130.479 45.3061 131.077 45.3031 131.7 45.3031Z" fill="#D9D9D9"/>
<path d="M112.166 51.9935C112.754 51.1613 113.324 50.3525 113.895 49.5441C114.872 48.1597 115.849 46.7756 116.824 45.3899C116.882 45.3083 116.937 45.2707 117.043 45.272C117.62 45.2781 118.198 45.2772 118.775 45.2724C118.88 45.2716 118.923 45.285 118.926 45.4063C118.974 47.2774 119.028 49.1486 119.08 51.0197C119.089 51.3056 119.096 51.5915 119.11 51.8773C119.114 51.9646 119.098 51.9978 118.999 51.9965C118.441 51.9909 117.884 51.9922 117.327 51.9957C117.24 51.9961 117.215 51.9732 117.219 51.8877C117.235 51.5418 117.239 51.1955 117.258 50.8496C117.264 50.7477 117.234 50.7261 117.136 50.7265C116.417 50.7304 115.697 50.7304 114.978 50.7265C114.889 50.7261 114.843 50.758 114.799 50.828C114.575 51.1855 114.346 51.5401 114.119 51.895C114.088 51.9434 114.067 51.9961 113.986 51.9957C113.389 51.9918 112.791 51.9935 112.166 51.9935ZM115.412 49.8542C116.029 49.8542 116.621 49.8525 117.212 49.8559C117.31 49.8563 117.285 49.7929 117.286 49.7445C117.315 48.8113 117.343 47.8781 117.37 46.9454C117.371 46.9207 117.392 46.8853 117.343 46.8694C116.705 47.8552 116.067 48.842 115.412 49.8542Z" fill="#D9D9D9"/>
<path d="M111.872 51.1147C111.778 51.392 111.687 51.6463 111.608 51.9037C111.585 51.978 111.55 52.0013 111.48 51.9931C111.465 51.9914 111.45 51.9927 111.434 51.9927C109.767 51.9927 108.099 51.9914 106.432 51.9953C106.301 51.9957 106.286 51.9689 106.327 51.8489C107.051 49.7052 107.771 47.5599 108.491 45.4145C108.515 45.345 108.536 45.3001 108.632 45.3005C110.325 45.3049 112.018 45.3036 113.71 45.304C113.725 45.304 113.741 45.3074 113.773 45.3113C113.682 45.5847 113.593 45.8546 113.503 46.124C113.475 46.2083 113.403 46.1767 113.348 46.1767C112.33 46.1785 111.311 46.1802 110.292 46.175C110.176 46.1746 110.131 46.2065 110.095 46.3175C109.911 46.8893 109.715 47.4575 109.524 48.0271C109.513 48.0595 109.488 48.0893 109.506 48.1342C110.45 48.1342 111.397 48.1342 112.361 48.1342C112.267 48.4145 112.173 48.6827 112.087 48.953C112.058 49.045 111.989 49.0078 111.937 49.0083C111.076 49.0109 110.214 49.0126 109.352 49.007C109.234 49.0061 109.177 49.0337 109.139 49.1521C108.935 49.7808 108.722 50.4065 108.512 51.0331C108.504 51.056 108.498 51.0798 108.488 51.1143C109.616 51.1147 110.734 51.1147 111.872 51.1147Z" fill="#D9D9D9"/>
<path d="M138.412 48.1377C139.381 48.1377 140.327 48.1377 141.288 48.1377C141.195 48.4136 141.101 48.677 141.018 48.9439C140.99 49.0342 140.929 49.0091 140.875 49.0091C140.171 49.0104 139.466 49.01 138.762 49.01C138.579 49.01 138.397 49.0121 138.214 49.0087C138.152 49.0074 138.113 49.0186 138.091 49.086C137.87 49.7514 137.646 50.4156 137.424 51.0802C137.421 51.0888 137.426 51.0996 137.428 51.1169C138.546 51.1169 139.665 51.1169 140.798 51.1169C140.704 51.3972 140.612 51.6658 140.525 51.9361C140.499 52.0177 140.438 51.9905 140.388 51.9909C139.759 51.9927 139.131 51.9922 138.502 51.9922C137.453 51.9922 136.404 51.9905 135.355 51.9948C135.237 51.9953 135.21 51.981 135.252 51.8584C135.978 49.7096 136.699 47.5595 137.421 45.4094C137.442 45.3459 137.459 45.3005 137.549 45.3005C139.247 45.3044 140.945 45.3036 142.643 45.304C142.657 45.304 142.671 45.3096 142.699 45.3157C142.608 45.5894 142.52 45.8593 142.428 46.1284C142.4 46.2104 142.325 46.1763 142.271 46.1763C141.252 46.178 140.233 46.1793 139.215 46.175C139.107 46.1746 139.06 46.2031 139.026 46.3076C138.829 46.9121 138.623 47.5128 138.412 48.1377Z" fill="#D9D9D9"/>
<path d="M102.592 51.0916C103.633 51.0916 104.66 51.0916 105.702 51.0916C105.605 51.3779 105.51 51.6513 105.424 51.9268C105.393 52.024 105.322 51.9924 105.263 51.9924C104.189 51.9942 103.115 51.9937 102.041 51.9937C101.495 51.9937 100.948 51.9937 100.383 51.9937C100.496 51.6539 100.604 51.327 100.714 51.0009C101.337 49.1466 101.963 47.2932 102.584 45.4381C102.617 45.3374 102.657 45.3007 102.769 45.302C103.351 45.3085 103.934 45.3051 104.537 45.3051C103.888 47.2362 103.242 49.1574 102.592 51.0916Z" fill="#D9D9D9"/>
<path d="M99.6464 47.738L42.7061 48.0142L98.9294 49.4701L99.6464 47.738Z" fill="#D9D9D9"/>
<path d="M42.7387 18.3486L32.1797 40.3991H42.9506L53.5366 18.3486H42.7387Z" fill="#D9D9D9"/>
<path d="M29.3228 18.3486L24.1478 29.154L18.9729 18.3486L8.17635 18.3486L9.27876 20.6444L0 40.3991H10.7709L14.7823 32.1108L18.7624 40.3991H18.7638H29.5333H29.5347L40.1207 18.3486L29.3228 18.3486Z" fill="#D9D9D9"/>
<path d="M142.776 22.3529L131.582 14.0012L129.36 18.59L108.849 18.59L100.872 18.59H100.794C100.05 18.59 99.3357 18.7817 98.7099 19.1241C97.8407 19.5808 97.1224 20.3094 96.6899 21.2283L94.5093 26.1144H94.5107L91.1822 33.1921L90.626 34.3196C89.2021 37.2031 91.3216 40.5658 94.5605 40.5658H112.926C114.72 40.5658 116.35 39.5369 117.108 37.9275L119.411 33.1583H119.38L122.488 26.9009L111.471 26.9009L108.474 33.1583H101.615L105.112 26.1144L125.714 26.1144L123.511 30.6638L142.776 22.3529Z" fill="#D9D9D9"/>
<path d="M69.3651 25.8718C71.587 25.5293 72.6069 25.4152 73.6226 23.3082L76.0137 18.3459L56.2329 18.3459L52.6867 25.8718H56.533L54.4434 30.2351L49.5771 40.3978H60.3481L66.0849 28.4481C66.0835 28.4481 67.1418 26.2157 69.3651 25.8718Z" fill="#D9D9D9"/>
<path d="M89.9883 31.0299L90.9114 29.1132L93.7862 23.0657C95.6426 18.3459 91.3183 18.3064 91.3183 18.3064H89.4676H78.5673L75.627 24.4032H80.8091C80.8091 24.4032 82.0153 24.5018 81.9342 25.518C81.8517 26.5341 80.9755 26.6186 80.9755 26.6186L77.6412 26.7539C77.6412 26.7539 76.0139 26.7018 72.2927 27.0414C69.2544 27.4896 67.5104 30.8805 67.5104 30.8805L62.7949 40.3582H73.5659L76.0054 35.1169C76.0111 35.1057 76.0168 35.0944 76.021 35.0831C76.2984 34.4179 76.452 34.1529 76.8205 34.1529C77.1491 34.1529 77.452 35.0958 77.452 35.0958L79.1675 40.3582H89.9513L87.213 33.8767C88.8858 33.1805 89.9883 31.0299 89.9883 31.0299Z" fill="#D9D9D9"/>
<path d="M125.265 49.2517C124.782 49.2517 124.321 49.2517 123.844 49.2517C123.935 48.9809 124.023 48.7214 124.108 48.461C124.127 48.4023 124.17 48.4075 124.216 48.4075C125.265 48.4079 126.314 48.4088 127.363 48.4062C127.461 48.4057 127.455 48.4411 127.431 48.5124C127.1 49.4935 126.774 50.4768 126.438 51.4562C126.327 51.7792 126.032 51.8686 125.734 51.9325C125.521 51.9783 125.303 51.993 125.085 51.993C123.752 51.9934 122.419 51.9938 121.086 51.9925C120.853 51.9921 120.62 51.9792 120.396 51.9066C120.116 51.8159 120.045 51.6782 120.138 51.4027C120.751 49.5764 121.367 47.7515 121.975 45.9236C122.074 45.626 122.285 45.4779 122.566 45.3989C122.821 45.3272 123.084 45.3056 123.348 45.3052C124.681 45.3039 126.014 45.3039 127.347 45.3052C127.585 45.3056 127.823 45.3207 128.052 45.3946C128.329 45.4844 128.4 45.6256 128.31 45.8981C128.161 46.3442 128.009 46.7894 127.864 47.2368C127.835 47.3283 127.792 47.3572 127.694 47.3564C127.147 47.3508 126.599 47.349 126.052 47.3568C125.91 47.359 125.912 47.3171 125.951 47.2065C126.059 46.9047 126.155 46.5985 126.261 46.2962C126.29 46.2133 126.302 46.1753 126.185 46.1762C125.425 46.1809 124.665 46.1801 123.905 46.1766C123.824 46.1762 123.792 46.2042 123.768 46.2759C123.239 47.8564 122.709 49.437 122.175 51.0157C122.141 51.1142 122.168 51.1211 122.254 51.1207C123.014 51.1185 123.774 51.1194 124.534 51.1194C124.589 51.1194 124.638 51.1263 124.663 51.0524C124.858 50.4587 125.058 49.8662 125.265 49.2517Z" fill="#D9D9D9"/>
<path d="M131.7 45.3043C131.048 47.2462 130.399 49.1757 129.745 51.1194C130.172 51.1194 130.581 51.1194 130.99 51.1194C131.391 51.1194 131.791 51.115 132.192 51.1224C132.296 51.1241 132.337 51.0934 132.37 50.9954C132.985 49.1519 133.607 47.3097 134.222 45.4662C134.263 45.3431 134.314 45.2978 134.452 45.3004C135.024 45.3103 135.596 45.3047 136.187 45.3047C136.069 45.6536 135.955 45.9892 135.842 46.3247C135.281 47.995 134.716 49.6636 134.164 51.3366C134.058 51.6557 133.845 51.8228 133.538 51.9036C133.287 51.9696 133.029 51.9925 132.771 51.9925C131.412 51.9942 130.054 51.9942 128.696 51.9925C128.457 51.9921 128.219 51.977 127.991 51.9014C127.723 51.8129 127.653 51.6712 127.743 51.4035C128.413 49.4063 129.084 47.4095 129.755 45.4127C129.775 45.3509 129.789 45.3008 129.881 45.3017C130.479 45.3073 131.077 45.3043 131.7 45.3043Z" fill="#D9D9D9"/>
<path d="M112.166 51.9947C112.754 51.1626 113.324 50.3537 113.895 49.5454C114.872 48.1609 115.849 46.7769 116.824 45.3911C116.882 45.3095 116.937 45.2719 117.043 45.2732C117.62 45.2793 118.198 45.2784 118.775 45.2737C118.88 45.2728 118.923 45.2862 118.926 45.4075C118.974 47.2787 119.028 49.1498 119.08 51.0209C119.089 51.3068 119.096 51.5927 119.11 51.8786C119.114 51.9658 119.098 51.999 118.999 51.9977C118.441 51.9921 117.884 51.9934 117.327 51.9969C117.24 51.9973 117.215 51.9744 117.219 51.8889C117.235 51.543 117.239 51.1967 117.258 50.8508C117.264 50.7489 117.234 50.7273 117.136 50.7277C116.417 50.7316 115.697 50.7316 114.978 50.7277C114.889 50.7273 114.843 50.7592 114.799 50.8292C114.575 51.1868 114.346 51.5413 114.119 51.8963C114.088 51.9446 114.067 51.9973 113.986 51.9969C113.389 51.993 112.791 51.9947 112.166 51.9947ZM115.412 49.8554C116.029 49.8554 116.621 49.8537 117.212 49.8571C117.31 49.8576 117.285 49.7941 117.286 49.7457C117.315 48.8125 117.343 47.8793 117.37 46.9466C117.371 46.922 117.392 46.8866 117.343 46.8706C116.705 47.8565 116.067 48.8432 115.412 49.8554Z" fill="#D9D9D9"/>
<path d="M111.872 51.1165C111.778 51.3937 111.687 51.648 111.608 51.9054C111.585 51.9797 111.55 52.003 111.48 51.9948C111.465 51.9931 111.45 51.9944 111.434 51.9944C109.767 51.9944 108.099 51.9931 106.432 51.997C106.301 51.9974 106.286 51.9706 106.327 51.8506C107.051 49.707 107.771 47.5616 108.491 45.4163C108.515 45.3467 108.536 45.3018 108.632 45.3022C110.325 45.3066 112.018 45.3053 113.71 45.3057C113.725 45.3057 113.741 45.3092 113.773 45.313C113.682 45.5864 113.593 45.8563 113.503 46.1258C113.475 46.21 113.403 46.1784 113.348 46.1784C112.33 46.1802 111.311 46.1819 110.292 46.1767C110.176 46.1763 110.131 46.2082 110.095 46.3192C109.911 46.891 109.715 47.4593 109.524 48.0288C109.513 48.0612 109.488 48.091 109.506 48.1359C110.45 48.1359 111.397 48.1359 112.361 48.1359C112.267 48.4162 112.173 48.6844 112.087 48.9547C112.058 49.0467 111.989 49.0095 111.937 49.01C111.076 49.0126 110.214 49.0143 109.352 49.0087C109.234 49.0078 109.177 49.0355 109.139 49.1538C108.935 49.7825 108.722 50.4082 108.512 51.0348C108.504 51.0577 108.498 51.0815 108.488 51.116C109.616 51.1165 110.734 51.1165 111.872 51.1165Z" fill="#D9D9D9"/>
<path d="M138.412 48.1394C139.381 48.1394 140.327 48.1394 141.288 48.1394C141.195 48.4153 141.101 48.6788 141.018 48.9456C140.99 49.0359 140.929 49.0108 140.875 49.0108C140.171 49.0121 139.466 49.0117 138.762 49.0117C138.579 49.0117 138.397 49.0139 138.214 49.0104C138.152 49.0091 138.113 49.0203 138.091 49.0877C137.87 49.7532 137.646 50.4173 137.424 51.0819C137.421 51.0905 137.426 51.1013 137.428 51.1186C138.546 51.1186 139.665 51.1186 140.798 51.1186C140.704 51.3989 140.612 51.6675 140.525 51.9378C140.499 52.0194 140.438 51.9922 140.388 51.9926C139.759 51.9944 139.131 51.9939 138.502 51.9939C137.453 51.9939 136.404 51.9922 135.355 51.9965C135.237 51.997 135.21 51.9827 135.252 51.8601C135.978 49.7113 136.699 47.5612 137.421 45.4111C137.442 45.3476 137.459 45.3022 137.549 45.3022C139.247 45.3061 140.945 45.3053 142.643 45.3057C142.657 45.3057 142.671 45.3113 142.699 45.3174C142.608 45.5911 142.52 45.861 142.428 46.1301C142.4 46.2121 142.325 46.178 142.271 46.178C141.252 46.1797 140.233 46.181 139.215 46.1767C139.107 46.1763 139.06 46.2048 139.026 46.3093C138.829 46.9138 138.623 47.5145 138.412 48.1394Z" fill="#D9D9D9"/>
<path d="M102.592 51.0938C103.633 51.0938 104.66 51.0938 105.702 51.0938C105.605 51.3801 105.51 51.6535 105.424 51.929C105.393 52.0262 105.322 51.9946 105.263 51.9946C104.189 51.9964 103.115 51.9959 102.041 51.9959C101.495 51.9959 100.948 51.9959 100.383 51.9959C100.496 51.6561 100.604 51.3292 100.714 51.0031C101.337 49.1488 101.963 47.2954 102.584 45.4403C102.617 45.3396 102.657 45.3029 102.769 45.3042C103.351 45.3107 103.934 45.3073 104.537 45.3073C103.888 47.2384 103.242 49.1596 102.592 51.0938Z" fill="#D9D9D9"/>
<path d="M99.6474 47.7393L42.707 48.0154L98.9304 49.4713L99.6474 47.7393Z" fill="#D9D9D9"/>
</g>
<defs>
<clipPath id="clip0_4352_109448">
<rect width="142" height="66" fill="white"/>
</clipPath>
</defs>
</svg>
