<svg width="156" height="66" viewBox="0 0 156 66" fill="none" xmlns="http://www.w3.org/2000/svg">
<g clip-path="url(#clip0_4352_109415)">
<path d="M6.54034 45.6668H-1V19.4369H12.0408L27.0015 39.0191V19.4369H34.5421V45.6668H21.7651L6.54009 25.7505L6.54034 45.6668ZM70.6192 37.5565C70.6192 41.2024 69.9892 42.4591 68.9452 43.6652C67.3452 45.4605 65.0187 46 60.5333 46H47.6591C43.1737 46 40.8442 45.46 39.2457 43.6652C38.2035 42.4611 37.5722 41.2024 37.5722 37.5565V27.4451C37.5722 23.7997 38.2037 22.5436 39.2457 21.3364C40.8442 19.5395 43.1743 19 47.6591 19H60.5338C65.0177 19 67.3462 19.54 68.9452 21.3364C69.9889 22.5433 70.6192 23.7992 70.6192 27.4451V37.5565ZM60.2165 39.3534C61.9386 39.3534 62.5451 39.2505 62.9583 38.8663C63.3455 38.5069 63.5161 38.0449 63.5161 36.5037V28.4968C63.5161 26.9564 63.3455 26.4968 62.9583 26.1358C62.5461 25.7505 61.9386 25.6487 60.2165 25.6487H47.9759C46.2538 25.6487 45.6474 25.7505 45.2356 26.1358C44.8475 26.4965 44.6778 26.9567 44.6778 28.4968V36.5029C44.6778 38.0433 44.847 38.5061 45.2356 38.8655C45.6468 39.2497 46.2538 39.3526 47.9759 39.3526H60.2178L60.2165 39.3534ZM81.5773 19.4369V45.6668H73.6987V19.4369H81.5773ZM94.8883 19.4369H105.289L91.252 31.7064L107.085 45.6668H95.9538L81.5773 31.9872L94.8883 19.4369ZM108.538 19.4369H116.419V45.6668H108.538V19.4369ZM146.46 45.6668L144.128 41.0974H128.882L126.579 45.6668H117.874L131.84 19.4369H141.634L155.6 45.6668H146.46ZM131.619 35.4002H141.416L136.517 25.9039L131.619 35.4002Z" fill="#D9D9D9"/>
</g>
<defs>
<clipPath id="clip0_4352_109415">
<rect width="156" height="66" fill="white"/>
</clipPath>
</defs>
</svg>
