<svg width="182" height="66" viewBox="0 0 182 66" fill="none" xmlns="http://www.w3.org/2000/svg">
<path fill-rule="evenodd" clip-rule="evenodd" d="M19.5179 30.742V19.0226H31.3895V13.1628H19.5863L13.582 13.1628V19.0901V30.742H19.5179Z" fill="#D9D9D9"/>
<path fill-rule="evenodd" clip-rule="evenodd" d="M34.9492 19.0223H46.8208V30.7417H52.7566L52.7567 19.0899V13.1626H46.7524L34.9492 13.1626V19.0223Z" fill="#D9D9D9"/>
<path fill-rule="evenodd" clip-rule="evenodd" d="M46.8208 34.2581V45.9776H34.9492V51.8373H46.7524H52.7567V45.91V34.2581H46.8208Z" fill="#D9D9D9"/>
<path fill-rule="evenodd" clip-rule="evenodd" d="M31.3895 45.9776H19.5179V34.2581H13.582V45.91L13.582 51.8373H19.5863H31.3895V45.9776Z" fill="#D9D9D9"/>
<path fill-rule="evenodd" clip-rule="evenodd" d="M29.0139 40.1175V28.3981H40.8856V22.5383H29.0824H23.0781V28.4656V40.1175H29.0139Z" fill="#D9D9D9"/>
<path d="M71.1341 46.9165C70.3766 46.9165 69.6783 46.7903 69.0389 46.5378C68.4094 46.2756 67.8586 45.9115 67.3864 45.4454C66.9241 44.9696 66.5651 44.4113 66.3093 43.7704C66.0536 43.1199 65.9258 42.411 65.9258 41.6439C65.9258 40.8963 66.0585 40.2068 66.3241 39.5757C66.5897 38.9348 66.9635 38.3813 67.4455 37.9152C67.9274 37.4395 68.493 37.0705 69.1422 36.8083C69.7913 36.5461 70.4947 36.415 71.2521 36.415C71.7439 36.415 72.2258 36.483 72.698 36.619C73.18 36.7452 73.6177 36.9345 74.0111 37.187C74.4144 37.4395 74.7586 37.7405 75.0439 38.09L73.657 39.6048C73.421 39.3718 73.175 39.1727 72.9192 39.0076C72.6734 38.8329 72.4078 38.7018 72.1225 38.6144C71.8471 38.5173 71.552 38.4687 71.2373 38.4687C70.8144 38.4687 70.4159 38.5464 70.0422 38.7018C69.6783 38.8571 69.3586 39.0756 69.0832 39.3572C68.8077 39.6291 68.5864 39.9641 68.4192 40.3622C68.2618 40.7506 68.1831 41.1827 68.1831 41.6585C68.1831 42.144 68.2618 42.5858 68.4192 42.9839C68.5766 43.3723 68.7979 43.7073 69.0832 43.9889C69.3684 44.2608 69.7078 44.4744 70.1012 44.6298C70.5045 44.7754 70.9472 44.8483 71.4291 44.8483C71.7439 44.8483 72.0488 44.8046 72.3439 44.7172C72.6389 44.6298 72.9094 44.5084 73.1554 44.353C73.411 44.1977 73.6373 44.018 73.8341 43.8141L74.9111 45.5183C74.675 45.7804 74.3553 46.0183 73.9521 46.232C73.5586 46.4456 73.116 46.6155 72.6242 46.7417C72.1324 46.8583 71.6357 46.9165 71.1341 46.9165Z" fill="#D9D9D9"/>
<path d="M80.3217 46.9166C79.525 46.9166 78.8119 46.7467 78.1824 46.4068C77.5627 46.0573 77.0709 45.5815 76.707 44.9794C76.3529 44.3774 76.1758 43.688 76.1758 42.9112C76.1758 42.1344 76.3529 41.4498 76.707 40.8575C77.0709 40.2555 77.5627 39.7797 78.1824 39.4301C78.8119 39.0806 79.525 38.9058 80.3217 38.9058C81.1086 38.9058 81.8119 39.0806 82.4316 39.4301C83.0612 39.7797 83.553 40.2555 83.9071 40.8575C84.2611 41.4498 84.4382 42.1344 84.4382 42.9112C84.4382 43.688 84.2611 44.3774 83.9071 44.9794C83.553 45.5815 83.0612 46.0573 82.4316 46.4068C81.8119 46.7467 81.1086 46.9166 80.3217 46.9166ZM80.3217 45.1105C80.7054 45.1105 81.0497 45.0183 81.3546 44.8338C81.6595 44.6396 81.8955 44.3774 82.0628 44.0473C82.2398 43.7074 82.3284 43.3287 82.3284 42.9112C82.3284 42.484 82.2398 42.1053 82.0628 41.7751C81.8955 41.4353 81.6595 41.1731 81.3546 40.9886C81.0497 40.7944 80.7054 40.6973 80.3217 40.6973C79.9283 40.6973 79.5791 40.7944 79.2742 40.9886C78.9693 41.1828 78.7283 41.445 78.5512 41.7751C78.3742 42.1053 78.2906 42.484 78.3004 42.9112C78.2906 43.3287 78.3742 43.7074 78.5512 44.0473C78.7283 44.3774 78.9693 44.6396 79.2742 44.8338C79.5791 45.0183 79.9283 45.1105 80.3217 45.1105Z" fill="#D9D9D9"/>
<path d="M86.3984 46.771V39.066H88.405L88.464 40.639L88.0509 40.8138C88.1591 40.4643 88.3509 40.1487 88.6263 39.8671C88.9116 39.5758 89.2509 39.3427 89.6444 39.168C90.0378 38.9932 90.4509 38.9058 90.8837 38.9058C91.4739 38.9058 91.9657 39.0223 92.3592 39.2553C92.7624 39.4884 93.0625 39.8428 93.2592 40.3186C93.4657 40.7847 93.569 41.3624 93.569 42.0519V46.771H91.4739V42.2121C91.4739 41.8625 91.4247 41.5712 91.3263 41.3382C91.228 41.1051 91.0755 40.9352 90.869 40.8284C90.6722 40.7119 90.4264 40.6633 90.1313 40.6827C89.8952 40.6827 89.6738 40.7216 89.4673 40.7992C89.2706 40.8672 89.0985 40.9692 88.9509 41.1051C88.8132 41.2411 88.7 41.3964 88.6115 41.5712C88.5329 41.746 88.4935 41.9353 88.4935 42.1392V46.771H87.4608C87.2345 46.771 87.0329 46.771 86.8558 46.771C86.6787 46.771 86.5263 46.771 86.3984 46.771Z" fill="#D9D9D9"/>
<path d="M96.8786 46.771V37.1143H98.9738V46.771H96.8786ZM95.418 40.9158V39.066H100.567V40.9158H95.418Z" fill="#D9D9D9"/>
<path d="M102.484 46.771V39.066H104.506L104.58 41.5421L104.225 41.0323C104.343 40.6342 104.535 40.2749 104.801 39.9545C105.066 39.6243 105.376 39.367 105.73 39.1825C106.094 38.998 106.473 38.9058 106.866 38.9058C107.034 38.9058 107.196 38.9203 107.353 38.9495C107.511 38.9786 107.644 39.0126 107.752 39.0514L107.191 41.3236C107.073 41.2653 106.93 41.2168 106.763 41.1779C106.596 41.1294 106.424 41.1051 106.247 41.1051C106.011 41.1051 105.789 41.1488 105.583 41.2362C105.386 41.3139 105.214 41.4304 105.066 41.5858C104.919 41.7314 104.801 41.9062 104.712 42.1101C104.634 42.314 104.594 42.5374 104.594 42.7801V46.771H102.484Z" fill="#D9D9D9"/>
<path d="M112.093 46.9166C111.444 46.9166 110.859 46.7418 110.337 46.3923C109.816 46.0427 109.403 45.5669 109.098 44.9649C108.793 44.3629 108.641 43.6734 108.641 42.8966C108.641 42.1198 108.793 41.4353 109.098 40.8429C109.413 40.2409 109.836 39.77 110.367 39.4301C110.898 39.0806 111.503 38.9058 112.182 38.9058C112.565 38.9058 112.914 38.964 113.229 39.0806C113.554 39.1874 113.834 39.3379 114.07 39.5321C114.317 39.7263 114.522 39.9496 114.69 40.2021C114.858 40.4545 114.975 40.7264 115.044 41.0177L114.601 40.9449V39.066H116.682V46.771H114.572V44.9212L115.044 44.8775C114.965 45.1494 114.837 45.4067 114.66 45.6494C114.484 45.8922 114.262 46.1107 113.996 46.3049C113.741 46.4894 113.45 46.6399 113.126 46.7564C112.801 46.8632 112.457 46.9166 112.093 46.9166ZM112.669 45.1251C113.062 45.1251 113.406 45.0329 113.701 44.8484C113.996 44.6639 114.223 44.4066 114.38 44.0764C114.548 43.7366 114.631 43.3433 114.631 42.8966C114.631 42.4597 114.548 42.0761 114.38 41.746C114.223 41.4158 113.996 41.1585 113.701 40.974C113.406 40.7798 113.062 40.6827 112.669 40.6827C112.285 40.6827 111.946 40.7798 111.651 40.974C111.365 41.1585 111.139 41.4158 110.972 41.746C110.805 42.0761 110.721 42.4597 110.721 42.8966C110.721 43.3433 110.805 43.7366 110.972 44.0764C111.139 44.4066 111.365 44.6639 111.651 44.8484C111.946 45.0329 112.285 45.1251 112.669 45.1251Z" fill="#D9D9D9"/>
<path d="M122.175 46.9166C121.427 46.9166 120.759 46.7418 120.169 46.3923C119.578 46.0427 119.111 45.5669 118.767 44.9649C118.433 44.3629 118.266 43.6783 118.266 42.9112C118.266 42.1538 118.433 41.4741 118.767 40.8721C119.111 40.2603 119.578 39.7797 120.169 39.4301C120.759 39.0806 121.427 38.9058 122.175 38.9058C122.874 38.9058 123.513 39.032 124.093 39.2845C124.674 39.5369 125.126 39.8865 125.451 40.3332L124.3 41.7023C124.162 41.5178 123.99 41.3527 123.783 41.2071C123.577 41.0517 123.351 40.9303 123.105 40.8429C122.869 40.7556 122.622 40.7119 122.367 40.7119C121.964 40.7119 121.604 40.809 121.289 41.0032C120.984 41.1877 120.744 41.445 120.567 41.7751C120.39 42.1053 120.302 42.484 120.302 42.9112C120.302 43.3287 120.39 43.7026 120.567 44.0327C120.754 44.3531 121.005 44.6153 121.32 44.8192C121.634 45.0134 121.988 45.1105 122.381 45.1105C122.638 45.1105 122.879 45.0766 123.105 45.0086C123.331 44.9309 123.542 44.8192 123.739 44.6736C123.945 44.5279 124.133 44.3531 124.3 44.1492L125.436 45.5184C125.101 45.9359 124.639 46.2757 124.049 46.5379C123.459 46.7904 122.834 46.9166 122.175 46.9166Z" fill="#D9D9D9"/>
<path d="M128.644 46.771V37.1143H130.74V46.771H128.644ZM127.184 40.9158V39.066H132.334V40.9158H127.184Z" fill="#D9D9D9"/>
<path d="M137.806 46.9166C137.009 46.9166 136.296 46.7467 135.667 46.4068C135.047 46.0573 134.556 45.5815 134.191 44.9794C133.837 44.3774 133.66 43.688 133.66 42.9112C133.66 42.1344 133.837 41.4498 134.191 40.8575C134.556 40.2555 135.047 39.7797 135.667 39.4301C136.296 39.0806 137.009 38.9058 137.806 38.9058C138.593 38.9058 139.296 39.0806 139.916 39.4301C140.545 39.7797 141.038 40.2555 141.391 40.8575C141.746 41.4498 141.923 42.1344 141.923 42.9112C141.923 43.688 141.746 44.3774 141.391 44.9794C141.038 45.5815 140.545 46.0573 139.916 46.4068C139.296 46.7467 138.593 46.9166 137.806 46.9166ZM137.806 45.1105C138.19 45.1105 138.535 45.0183 138.84 44.8338C139.144 44.6396 139.38 44.3774 139.548 44.0473C139.724 43.7074 139.813 43.3287 139.813 42.9112C139.813 42.484 139.724 42.1053 139.548 41.7751C139.38 41.4353 139.144 41.1731 138.84 40.9886C138.535 40.7944 138.19 40.6973 137.806 40.6973C137.413 40.6973 137.064 40.7944 136.759 40.9886C136.454 41.1828 136.213 41.445 136.036 41.7751C135.858 42.1053 135.775 42.484 135.785 42.9112C135.775 43.3287 135.858 43.7074 136.036 44.0473C136.213 44.3774 136.454 44.6396 136.759 44.8338C137.064 45.0183 137.413 45.1105 137.806 45.1105Z" fill="#D9D9D9"/>
<path d="M143.5 46.771V39.066H145.521L145.595 41.5421L145.24 41.0323C145.359 40.6342 145.55 40.2749 145.816 39.9545C146.082 39.6243 146.391 39.367 146.746 39.1825C147.109 38.998 147.488 38.9058 147.882 38.9058C148.049 38.9058 148.211 38.9203 148.368 38.9495C148.526 38.9786 148.659 39.0126 148.767 39.0514L148.206 41.3236C148.088 41.2653 147.946 41.2168 147.779 41.1779C147.612 41.1294 147.44 41.1051 147.262 41.1051C147.026 41.1051 146.804 41.1488 146.598 41.2362C146.401 41.3139 146.229 41.4304 146.082 41.5858C145.934 41.7314 145.816 41.9062 145.728 42.1101C145.649 42.314 145.61 42.5374 145.61 42.7801V46.771H143.5Z" fill="#D9D9D9"/>
<path d="M72.5868 31.4564C71.6263 31.4564 70.7406 31.2901 69.9298 30.9577C69.119 30.6252 68.408 30.1634 67.7968 29.5723C67.1981 28.969 66.7366 28.2609 66.4122 27.4482C66.0879 26.6232 65.9258 25.7304 65.9258 24.7699C65.9258 23.7971 66.0879 22.9105 66.4122 22.1101C66.7366 21.2974 67.1981 20.5894 67.7968 19.986C68.408 19.3826 69.119 18.9147 69.9298 18.5822C70.7406 18.2497 71.6263 18.0835 72.5868 18.0835C73.5597 18.0835 74.4453 18.2497 75.2436 18.5822C76.0544 18.9147 76.7593 19.3826 77.3579 19.986C77.9692 20.5894 78.437 21.2974 78.7612 22.1101C79.0856 22.9228 79.2478 23.8095 79.2478 24.7699C79.2478 25.7304 79.0856 26.617 78.7612 27.4297C78.437 28.2424 77.9692 28.9505 77.3579 29.5539C76.7593 30.1573 76.0544 30.6252 75.2436 30.9577C74.4453 31.2901 73.5597 31.4564 72.5868 31.4564ZM72.5868 28.8335C73.1356 28.8335 73.6408 28.735 74.1023 28.538C74.5763 28.341 74.9817 28.0577 75.3185 27.6883C75.6553 27.3189 75.9173 26.8879 76.1044 26.3954C76.3039 25.9028 76.4037 25.361 76.4037 24.7699C76.4037 24.1789 76.3039 23.6371 76.1044 23.1445C75.9173 22.6519 75.6553 22.2271 75.3185 21.87C74.9817 21.5006 74.5763 21.2174 74.1023 21.0204C73.6408 20.811 73.1356 20.7063 72.5868 20.7063C72.0379 20.7063 71.5327 20.811 71.0711 21.0204C70.6096 21.2174 70.2042 21.5006 69.855 21.87C69.5057 22.2271 69.2375 22.6519 69.0504 23.1445C68.8758 23.6371 68.7885 24.1789 68.7885 24.7699C68.7885 25.361 68.8758 25.9028 69.0504 26.3954C69.2375 26.8879 69.5057 27.3189 69.855 27.6883C70.2042 28.0577 70.6096 28.341 71.0711 28.538C71.5327 28.735 72.0379 28.8335 72.5868 28.8335Z" fill="#D9D9D9"/>
<path d="M81.7891 31.2717V18.342H84.2962L91.5373 28.0023H91.0134C90.9635 27.6206 90.9198 27.2512 90.8824 26.8941C90.845 26.5247 90.8076 26.1552 90.7702 25.7858C90.7452 25.4041 90.7203 25.0162 90.6953 24.6222C90.6829 24.2158 90.6703 23.791 90.6579 23.3477C90.6454 22.892 90.6392 22.3995 90.6392 21.87V18.342H93.3897V31.2717H90.845L83.4543 21.519L84.1653 21.5375C84.2276 22.1778 84.2776 22.7258 84.3149 23.1814C84.3649 23.6247 84.4023 24.0126 84.4272 24.3451C84.4522 24.6776 84.4708 24.967 84.4834 25.2132C84.5083 25.4595 84.5208 25.6935 84.5208 25.9151C84.5332 26.1368 84.5395 26.3707 84.5395 26.617V31.2717H81.7891Z" fill="#D9D9D9"/>
<path d="M96.2266 31.2717V18.342H105.077V20.7802H98.9583V28.8335H105.208V31.2717H96.2266ZM97.5363 25.8597V23.4954H104.179V25.8597H97.5363Z" fill="#D9D9D9"/>
<path d="M113.847 31.4564C112.887 31.4564 112.001 31.2963 111.19 30.9761C110.392 30.6437 109.693 30.1819 109.095 29.5908C108.508 28.9874 108.053 28.2794 107.729 27.4667C107.404 26.6416 107.242 25.7427 107.242 24.7699C107.242 23.8218 107.411 22.9475 107.747 22.1471C108.084 21.3344 108.558 20.6325 109.169 20.0414C109.781 19.438 110.498 18.9701 111.321 18.6376C112.144 18.3052 113.036 18.1389 113.997 18.1389C114.62 18.1389 115.232 18.2251 115.831 18.3975C116.441 18.5576 116.997 18.7977 117.496 19.1179C118.008 19.438 118.444 19.8198 118.806 20.2631L117.046 22.184C116.747 21.8885 116.435 21.6361 116.111 21.4267C115.799 21.2051 115.463 21.0388 115.1 20.928C114.752 20.8049 114.377 20.7433 113.978 20.7433C113.442 20.7433 112.936 20.8418 112.462 21.0388C112.001 21.2359 111.595 21.5129 111.246 21.87C110.897 22.2148 110.616 22.6396 110.404 23.1445C110.205 23.6371 110.105 24.185 110.105 24.7884C110.105 25.4041 110.205 25.9644 110.404 26.4693C110.604 26.9618 110.884 27.3866 111.246 27.7437C111.608 28.0885 112.038 28.3594 112.537 28.5565C113.049 28.7412 113.61 28.8335 114.221 28.8335C114.62 28.8335 115.007 28.7781 115.381 28.6673C115.756 28.5565 116.099 28.4025 116.41 28.2055C116.735 28.0085 117.022 27.7807 117.271 27.5221L118.637 29.6832C118.338 30.0156 117.933 30.3173 117.421 30.5882C116.922 30.8591 116.36 31.0746 115.736 31.2347C115.113 31.3825 114.483 31.4564 113.847 31.4564Z" fill="#D9D9D9"/>
<path d="M121 31.2717V18.342H123.806V28.7781H129.738V31.2717H121Z" fill="#D9D9D9"/>
<path d="M132.516 31.2717V28.8889V20.7248V18.342H135.323V20.7248V28.8889V31.2717H132.516Z" fill="#D9D9D9"/>
<path d="M144.374 31.4564C143.414 31.4564 142.529 31.2963 141.718 30.9761C140.919 30.6437 140.221 30.1819 139.622 29.5908C139.036 28.9874 138.581 28.2794 138.256 27.4667C137.932 26.6416 137.77 25.7427 137.77 24.7699C137.77 23.8218 137.938 22.9475 138.275 22.1471C138.611 21.3344 139.085 20.6325 139.697 20.0414C140.308 19.438 141.025 18.9701 141.849 18.6376C142.672 18.3052 143.564 18.1389 144.524 18.1389C145.148 18.1389 145.759 18.2251 146.358 18.3975C146.969 18.5576 147.525 18.7977 148.023 19.1179C148.535 19.438 148.971 19.8198 149.333 20.2631L147.574 22.184C147.274 21.8885 146.963 21.6361 146.638 21.4267C146.327 21.2051 145.99 21.0388 145.628 20.928C145.279 20.8049 144.905 20.7433 144.506 20.7433C143.969 20.7433 143.465 20.8418 142.99 21.0388C142.529 21.2359 142.123 21.5129 141.774 21.87C141.424 22.2148 141.144 22.6396 140.932 23.1445C140.733 23.6371 140.632 24.185 140.632 24.7884C140.632 25.4041 140.733 25.9644 140.932 26.4693C141.132 26.9618 141.412 27.3866 141.774 27.7437C142.136 28.0885 142.566 28.3594 143.064 28.5565C143.576 28.7412 144.137 28.8335 144.749 28.8335C145.148 28.8335 145.535 28.7781 145.909 28.6673C146.283 28.5565 146.626 28.4025 146.938 28.2055C147.262 28.0085 147.549 27.7807 147.799 27.5221L149.165 29.6832C148.865 30.0156 148.46 30.3173 147.948 30.5882C147.45 30.8591 146.888 31.0746 146.264 31.2347C145.64 31.3825 145.01 31.4564 144.374 31.4564Z" fill="#D9D9D9"/>
<path d="M153.641 27.4482L153.043 24.9362L159.667 18.342H163.072L153.641 27.4482ZM151.527 31.2717V18.342H154.334V31.2717H151.527ZM160.022 31.2717L155.12 24.8438L157.047 23.1999L163.353 31.2717H160.022Z" fill="#D9D9D9"/>
</svg>
