<svg width="191" height="66" viewBox="0 0 191 66" fill="none" xmlns="http://www.w3.org/2000/svg">
<g clip-path="url(#clip0_6614_58277)">
<g clip-path="url(#clip1_6614_58277)">
<path fill-rule="evenodd" clip-rule="evenodd" d="M40.6176 30.4376C40.4728 29.6099 40.2522 28.8222 39.9558 28.0742C39.3764 26.6128 38.5837 25.3645 37.5776 24.3294C36.6019 23.2639 35.4585 22.4418 34.1475 21.8634C32.8365 21.2849 31.4644 20.9957 30.0314 20.9957C28.385 20.9957 27.013 21.3154 25.9154 21.9547C24.8482 22.5636 24.0556 23.3095 23.5372 24.1924H23.0798V21.7264H16.6771V50.2233C7.68504 48.3369 0.933594 40.3716 0.933594 30.8317C0.933594 19.8881 9.81801 11.0166 20.7774 11.0166C31.6052 11.0166 40.4073 19.6759 40.6176 30.4376ZM37.2608 41.8685C36.3569 42.7502 35.3192 43.4496 34.1475 43.9666C32.8365 44.5451 31.4644 44.8342 30.0314 44.8342C28.385 44.8342 27.013 44.5298 25.9154 43.9209C24.8482 43.2815 24.0556 42.5204 23.5372 41.6375H23.0798L23.5372 44.8342V50.4568C29.2497 49.6631 34.1841 46.4411 37.2608 41.8685ZM26.4185 27.8002C27.0892 27.5262 27.7905 27.3892 28.5222 27.3892C29.2539 27.3892 29.94 27.5262 30.5802 27.8002C31.251 28.0437 31.8303 28.4091 32.3182 28.8962C32.8365 29.3833 33.2328 29.9618 33.5072 30.6315C33.8121 31.3013 33.9646 32.0624 33.9646 32.915C33.9646 33.7674 33.8121 34.5438 33.5072 35.244C33.2328 35.9138 32.8365 36.4922 32.3182 36.9794C31.8303 37.4361 31.251 37.8013 30.5802 38.0754C29.94 38.319 29.2539 38.4408 28.5222 38.4408C27.7905 38.4408 27.0892 38.319 26.4185 38.0754C25.7782 37.8013 25.1989 37.4361 24.6805 36.9794C24.1927 36.4922 23.7963 35.9138 23.4915 35.244C23.2171 34.5438 23.0798 33.7674 23.0798 32.915C23.0798 32.0624 23.2171 31.3013 23.4915 30.6315C23.7963 29.9618 24.1927 29.3833 24.6805 28.8962C25.1989 28.4091 25.7782 28.0437 26.4185 27.8002Z" fill="#D9D9D9"/>
<path fill-rule="evenodd" clip-rule="evenodd" d="M56.3823 42.365C57.9454 41.4126 59.2039 40.1029 60.1577 38.4363L55.3093 36.0156C54.8854 36.7563 54.3024 37.3649 53.5605 37.841C52.8453 38.3173 51.9311 38.5553 50.8185 38.5553C49.7057 38.5553 48.6989 38.2643 47.7981 37.6822C46.8973 37.1003 46.3012 36.1742 46.0097 34.9044H60.3563C60.3563 34.7457 60.3696 34.5737 60.3961 34.3886C60.4226 34.2298 60.4359 34.0446 60.4359 33.833C60.4623 33.6213 60.4755 33.4097 60.4755 33.198C60.4755 31.7959 60.2637 30.4862 59.8397 29.2693C59.4158 28.026 58.7932 26.9545 57.9719 26.0549C57.1506 25.129 56.1174 24.4015 54.8721 23.8724C53.6534 23.3432 52.2359 23.0787 50.6197 23.0787C49.136 23.0787 47.7583 23.3565 46.4867 23.912C45.2414 24.4676 44.1419 25.2215 43.1881 26.174C42.2608 27.0999 41.5322 28.1978 41.0023 29.4678C40.858 29.8065 40.7332 30.1512 40.6282 30.5017C40.7589 31.2718 40.8243 32.0762 40.8243 32.9149C40.8243 34.0066 40.7136 35.0402 40.4922 36.0155C40.6195 36.5639 40.7896 37.093 41.0023 37.6029C41.5322 38.8464 42.2741 39.9311 43.2279 40.857C44.1817 41.7829 45.2943 42.5105 46.5661 43.0396C47.8643 43.5422 49.2685 43.7935 50.7787 43.7935C52.9778 43.7935 54.8456 43.3174 56.3823 42.365ZM54.4747 29.8249C54.6866 30.1953 54.8191 30.5392 54.8721 30.8567H46.2879C46.6588 29.8513 47.2417 29.0842 48.0365 28.5551C48.8313 28.026 49.6924 27.7614 50.6197 27.7614C51.2555 27.7614 51.8252 27.8672 52.3287 28.0788C52.8586 28.264 53.2956 28.5153 53.6401 28.8329C54.011 29.1239 54.2892 29.4545 54.4747 29.8249ZM66.6119 26.174H66.2145V23.7136H60.6507V43.1586H66.6119V34.2298C66.6119 32.5631 66.9563 31.2138 67.6451 30.1821C68.3605 29.1502 69.3937 28.6344 70.7449 28.6344C71.8048 28.6344 72.5864 28.9784 73.0897 29.6662C73.5931 30.3276 73.8449 31.1873 73.8449 32.2455V43.1586H79.8061V33.8504C79.8475 35.2238 80.0971 36.4879 80.5549 37.6426C81.0583 38.9124 81.7339 40.0104 82.5817 40.9363C83.4561 41.8359 84.4628 42.5369 85.6021 43.0396C86.7413 43.5422 87.9336 43.7935 89.1787 43.7935C90.6095 43.7935 91.7885 43.529 92.7157 42.9999C93.6695 42.4443 94.3717 41.7829 94.8221 41.0157H95.2195V43.1586H100.783V14.7451H94.8221V23.0787L95.2195 25.8566H94.8221C94.3717 25.0893 93.6695 24.4412 92.7157 23.912C91.7885 23.3565 90.6095 23.0787 89.1787 23.0787C87.9336 23.0787 86.7413 23.33 85.6021 23.8327C84.4628 24.3353 83.4561 25.0497 82.5817 25.9756C81.7339 26.8751 81.0583 27.9598 80.5549 29.2297C80.0971 30.3843 79.8475 31.6484 79.8061 33.022V31.5709C79.8061 29.0312 79.2099 26.9809 78.0177 25.42C76.8255 23.8591 75.0106 23.0787 72.5731 23.0787C69.9238 23.0787 67.9366 24.1105 66.6119 26.174ZM92.2786 37.9203C91.7223 38.132 91.1261 38.2378 90.4903 38.2378C89.8543 38.2378 89.245 38.132 88.6621 37.9203C88.1057 37.6822 87.6024 37.3649 87.1519 36.968C86.728 36.5447 86.3836 36.042 86.1187 35.46C85.8803 34.8515 85.7611 34.1769 85.7611 33.4362C85.7611 32.6953 85.8803 32.034 86.1187 31.4519C86.3836 30.87 86.728 30.3672 87.1519 29.9439C87.6024 29.5207 88.1057 29.2032 88.6621 28.9916C89.245 28.7534 89.8543 28.6344 90.4903 28.6344C91.1261 28.6344 91.7223 28.7534 92.2786 28.9916C92.8615 29.2032 93.3648 29.5207 93.7887 29.9439C94.2392 30.3672 94.5836 30.87 94.8221 31.4519C95.087 32.034 95.2195 32.6953 95.2195 33.4362C95.2195 34.1769 95.087 34.8515 94.8221 35.46C94.5836 36.042 94.2392 36.5447 93.7887 36.968C93.3648 37.3649 92.8615 37.6822 92.2786 37.9203ZM115.102 40.6982H115.5V43.1586H121.064V23.7136H115.102V32.6424C115.102 34.3091 114.745 35.6584 114.029 36.6902C113.34 37.722 112.32 38.2378 110.969 38.2378C109.909 38.2378 109.128 37.9072 108.624 37.2457C108.121 36.558 107.869 35.6849 107.869 34.6266V23.7136H101.908V35.3013C101.908 37.841 102.504 39.8913 103.697 41.4522C104.889 43.0131 106.704 43.7935 109.141 43.7935C111.79 43.7935 113.777 42.7618 115.102 40.6982ZM122.329 14.7451V43.1586H128.29V14.7451H122.329ZM142.586 40.6982H142.983V43.1586H148.547V23.7136H142.586V32.6424C142.586 34.3091 142.228 35.6584 141.512 36.6902C140.824 37.722 139.804 38.2378 138.453 38.2378C137.393 38.2378 136.611 37.9072 136.108 37.2457C135.605 36.558 135.353 35.6849 135.353 34.6266V23.7136H129.392V35.3013C129.392 37.841 129.988 39.8913 131.18 41.4522C132.372 43.0131 134.187 43.7935 136.625 43.7935C139.275 43.7935 141.261 42.7618 142.586 40.6982ZM155.377 23.7136H149.813V43.1586H155.774V34.3886C155.774 32.6425 156.078 31.2535 156.688 30.2217C157.297 29.1635 158.211 28.6344 159.429 28.6344C160.463 28.6344 161.218 28.9519 161.695 29.5868C162.199 30.1953 162.45 31.0022 162.45 32.0075V43.1586H168.412V34.3886C168.412 32.6425 168.742 31.2535 169.405 30.2217C170.067 29.1635 171.048 28.6344 172.346 28.6344C173.247 28.6344 173.922 28.9519 174.373 29.5868C174.849 30.1953 175.088 31.0022 175.088 32.0075V43.1586H181.05V30.8567C181.05 29.7191 180.903 28.6741 180.612 27.7217C180.32 26.7693 179.884 25.9491 179.301 25.2613C178.744 24.5734 178.029 24.0443 177.154 23.6739C176.28 23.2771 175.261 23.0787 174.095 23.0787C172.452 23.0787 171.088 23.4358 170.001 24.1501C168.915 24.838 168.081 25.6449 167.498 26.5708C167.1 25.6449 166.411 24.838 165.431 24.1501C164.451 23.4358 163.218 23.0787 161.735 23.0787C160.384 23.0787 159.204 23.3565 158.199 23.912C157.218 24.4412 156.41 25.1952 155.774 26.174H155.377V23.7136Z" fill="#D9D9D9"/>
</g>
</g>
<defs>
<clipPath id="clip0_6614_58277">
<rect width="190" height="66" fill="white" transform="translate(0.933594)"/>
</clipPath>
<clipPath id="clip1_6614_58277">
<rect width="180.952" height="40" fill="white" transform="translate(0.933594 11)"/>
</clipPath>
</defs>
</svg>
