<svg width="179" height="66" viewBox="0 0 179 66" fill="none" xmlns="http://www.w3.org/2000/svg">
<g clip-path="url(#clip0_4352_109398)">
<g clip-path="url(#clip1_4352_109398)">
<path d="M48.6468 22.8987C53.5554 22.8987 57.8367 26.7344 57.8367 32.3025C57.8367 37.8706 53.5554 41.705 48.6468 41.705C43.7382 41.705 39.4556 37.8693 39.4556 32.3025C39.4556 26.7358 43.7368 22.8987 48.6468 22.8987ZM48.6468 38.5451C52.0056 38.5451 54.442 35.988 54.442 32.3012C54.442 28.6144 52.0056 26.0572 48.6468 26.0572C45.288 26.0572 42.8516 28.6144 42.8516 32.3012C42.8516 35.988 45.288 38.5451 48.6468 38.5451Z" fill="#D9D9D9"/>
<path d="M79.6904 41.3275V15H82.9389V41.3275H79.6904Z" fill="#D9D9D9"/>
<path d="M140.948 23.2747V33.8068C140.948 38.5459 137.7 41.7045 133.381 41.7045C129.063 41.7045 125.814 38.5459 125.814 33.8068V23.2747H129.063V33.8068C129.063 36.5901 131.057 38.5459 133.381 38.5459C135.706 38.5459 137.7 36.5901 137.7 33.8068V23.2747H140.948Z" fill="#D9D9D9"/>
<path d="M143.495 23.2752H146.596V25.3434H146.671C147.778 23.5759 149.292 22.8987 151.469 22.8987H152.207V26.0586H151.727C148.59 26.0586 146.744 28.0144 146.744 32.9039V41.3299H143.495V23.2752Z" fill="#D9D9D9"/>
<path d="M168.929 23.2747V33.8068C168.929 38.5459 165.681 41.7045 161.362 41.7045C157.044 41.7045 153.795 38.5459 153.795 33.8068V23.2747H157.044V33.8068C157.044 36.5901 159.038 38.5459 161.362 38.5459C163.687 38.5459 165.681 36.5901 165.681 33.8068V23.2747H168.929Z" fill="#D9D9D9"/>
<path d="M170.886 24.1864V23.5823H173.856V24.1864H172.691V28.3946H172.058V24.1864H170.886Z" fill="#D9D9D9"/>
<path d="M173.855 28.3921L174.381 24.1215C174.399 23.9346 174.462 23.7816 174.574 23.6651C174.684 23.5486 174.809 23.489 174.948 23.489C175.069 23.489 175.178 23.5324 175.276 23.619C175.374 23.7057 175.449 23.8371 175.499 24.0105L176.489 27.3207L177.434 24.0836C177.492 23.8926 177.571 23.7491 177.675 23.6529C177.78 23.5567 177.893 23.5093 178.014 23.5093C178.152 23.5093 178.272 23.5567 178.375 23.6529C178.48 23.7491 178.54 23.8737 178.554 24.0281L179.12 28.3934H178.453L177.989 24.4561L176.911 28.0386C176.826 28.3067 176.678 28.4327 176.492 28.4327C176.306 28.4327 176.137 28.3054 176.055 28.0508L174.975 24.4412L174.532 28.3921H173.858H173.855Z" fill="#D9D9D9"/>
<path d="M9.19121 22.8521C4.28126 22.8521 0 26.6878 0 32.2545V49.4505H3.24849V39.49C4.8754 40.8674 6.96751 41.657 9.19121 41.657C14.0998 41.657 18.3811 37.8213 18.3811 32.2545C18.3811 26.6878 14.0998 22.8521 9.19121 22.8521ZM9.19121 38.4985C5.8324 38.4985 3.39603 35.9413 3.39603 32.2545C3.39603 28.5678 5.8324 26.0106 9.19121 26.0106C12.55 26.0106 14.9864 28.5678 14.9864 32.2545C14.9864 35.9413 12.55 38.4985 9.19121 38.4985Z" fill="#D9D9D9"/>
<path d="M34.8694 32.9039C34.2048 36.2141 32.7653 38.5465 28.9267 38.5465C27.0247 38.5465 25.4177 37.7243 24.3823 36.3428L37.4892 28.6158C35.8277 25.1186 33.0604 22.8987 28.9267 22.8987C24.0181 22.8987 19.7368 26.7344 19.7368 32.3025C19.7368 37.8706 24.0181 41.705 28.9267 41.705C33.8353 41.705 37.7856 38.0941 38.1538 33.3184L34.8694 32.9039ZM28.9267 26.0586C30.9205 26.0586 31.8429 26.66 32.9501 27.7882L23.2392 33.5987C23.1687 33.1856 23.1328 32.7522 23.1328 32.3025C23.1328 28.6158 25.5692 26.0586 28.928 26.0586H28.9267Z" fill="#D9D9D9"/>
<path d="M68.7674 22.8521C63.8588 22.8521 59.5762 26.6878 59.5762 32.2559V49.4518H62.8247V39.4913C64.4516 40.8688 66.5437 41.6584 68.7674 41.6584C73.676 41.6584 77.9573 37.8226 77.9573 32.2559C77.9573 26.6892 73.676 22.8521 68.7674 22.8521ZM68.7674 38.4985C65.4086 38.4985 62.9722 35.9413 62.9722 32.2546C62.9722 28.5678 65.4086 26.0106 68.7674 26.0106C72.1262 26.0106 74.5626 28.5678 74.5626 32.2546C74.5626 35.9413 72.1262 38.4985 68.7674 38.4985Z" fill="#D9D9D9"/>
<path d="M100.165 32.9039C99.5002 36.2141 98.0608 38.5465 94.2221 38.5465C92.3201 38.5465 90.7131 37.7243 89.6777 36.3428L102.785 28.6158C101.123 25.1186 98.3558 22.8987 94.2221 22.8987C89.3135 22.8987 85.0322 26.7344 85.0322 32.3025C85.0322 37.8706 89.3135 41.705 94.2221 41.705C99.1307 41.705 103.081 38.0941 103.449 33.3184L100.165 32.9039ZM94.2221 26.0586C96.2159 26.0586 97.1383 26.66 98.2455 27.7882L88.5346 33.5987C88.4641 33.1856 88.4283 32.7522 88.4283 32.3025C88.4283 28.6158 90.8646 26.0586 94.2234 26.0586H94.2221Z" fill="#D9D9D9"/>
<path d="M123.97 30.3174C124.066 25.4671 120.897 23.1023 117.714 22.91C116.464 22.8422 115.22 23.1768 114.003 23.9258C112.784 23.1754 111.538 22.83 110.292 22.91C107.108 23.1023 103.94 25.4658 104.035 30.3174C104.079 32.517 105.298 34.8683 107.657 37.3076C109.735 39.453 111.936 40.8644 113.192 41.4224L114.001 41.78L114.818 41.421C115.888 40.9456 117.646 39.8431 119.428 38.1988C119.428 38.1988 120.106 37.4918 120.706 36.8634L120.724 41.1244C120.724 45.525 117.476 46.8415 114.561 46.8415C112.9 46.8415 111.277 46.3905 109.652 45.9394L108.877 48.9476C110.76 49.5869 112.716 50.0014 114.71 50.0014C119.914 50.0014 123.974 46.767 123.974 39.9975C123.974 39.9975 123.972 30.3539 123.972 30.3174H123.97ZM118.017 35.1134C116.628 36.5234 115.061 37.569 114.124 37.9781L114.003 38.0309L113.883 37.9794C112.945 37.569 111.378 36.5248 109.989 35.1148C108.892 34.0014 107.579 32.3246 107.546 30.656C107.485 27.6112 109.474 26.4112 111.197 26.3096C112.115 26.2554 113.059 26.6116 114.003 27.3688C114.946 26.6116 115.889 26.2554 116.809 26.3096C118.531 26.4112 120.521 27.6112 120.46 30.656C120.427 32.3246 119.113 34.0014 118.017 35.1148V35.1134Z" fill="#D9D9D9"/>
<path d="M114.002 38.0309L113.883 37.9794C112.944 37.569 111.377 36.5247 109.988 35.1148C108.892 34.0014 107.579 32.3246 107.545 30.656C107.484 27.6112 109.474 26.4111 111.197 26.3096C112.115 26.2554 113.059 26.6116 114.002 27.3687C114.946 26.6116 115.889 26.2554 116.808 26.3096C118.531 26.4111 120.521 27.6112 120.46 30.656C120.426 32.3246 119.113 34.0014 118.017 35.1148C116.628 36.5247 115.06 37.5704 114.123 37.9794L114.002 38.0322V38.0309Z" fill="#D9D9D9"/>
</g>
</g>
<defs>
<clipPath id="clip0_4352_109398">
<rect width="179" height="66" fill="white"/>
</clipPath>
<clipPath id="clip1_4352_109398">
<rect width="179.118" height="35" fill="white" transform="translate(0 15)"/>
</clipPath>
</defs>
</svg>
