<svg width="221" height="66" viewBox="0 0 221 66" fill="none" xmlns="http://www.w3.org/2000/svg">
<g clip-path="url(#clip0_4352_109333)">
<mask id="mask0_4352_109333" style="mask-type:luminance" maskUnits="userSpaceOnUse" x="-4" y="16" width="228" height="35">
<path d="M223.697 16H-4V51H223.697V16Z" fill="white"/>
</mask>
<g mask="url(#mask0_4352_109333)">
<mask id="mask1_4352_109333" style="mask-type:luminance" maskUnits="userSpaceOnUse" x="0" y="16" width="220" height="35">
<path d="M219.602 16.6438H0.275879V50.3578H219.602V16.6438Z" fill="white"/>
</mask>
<g mask="url(#mask1_4352_109333)">
<path d="M36.4791 32.1615C36.9595 34.1938 38.4009 35.1019 40.7408 35.1019C43.0806 35.1019 44.1041 34.165 44.1041 32.6996C44.1041 31.0276 43.1431 30.3213 39.6646 29.5285C34.1393 28.236 32.7892 26.2086 32.7892 23.4747C32.7892 19.9481 35.4317 17.5698 40.2219 17.5698C45.5983 17.5698 47.7459 20.4526 48.039 23.417H43.6236C43.3881 22.1534 42.7107 20.7985 40.097 20.7985C38.3049 20.7985 37.243 21.5336 37.243 22.975C37.243 24.4164 38.0983 24.9738 41.3894 25.7089C47.2654 27.1214 48.5579 29.2931 48.5579 32.1711C48.5579 35.8466 45.7664 38.4171 40.4189 38.4171C35.2779 38.4171 32.5441 35.8898 32.0732 32.1711L36.4791 32.1615Z" fill="#D9D9D9"/>
<path d="M49.2363 22.89H51.5857V18.7581H55.7898V22.89H58.7879V26.061H55.7898V33.5707C55.7898 34.719 56.1406 35.1562 57.4042 35.1562C57.6396 35.1562 58.0528 35.1562 58.3651 35.1274V38.0102C57.4459 38.2537 56.4944 38.3526 55.5447 38.3033C52.5756 38.3033 51.605 36.7177 51.605 34.0416V26.0466H49.2363V22.89Z" fill="#D9D9D9"/>
<path d="M69.7183 28.8057C69.6895 27.0423 68.9832 25.5433 66.9268 25.5433C64.8705 25.5433 64.1066 26.927 63.9288 28.8057H69.7183ZM63.8423 31.3905C63.8423 33.3124 64.8032 35.1525 66.898 35.1525C68.6613 35.1525 69.161 34.451 69.5694 33.5382H73.7878C73.2593 35.388 71.5826 38.4437 66.8211 38.4437C61.7955 38.4437 59.6143 34.7153 59.6143 30.7178C59.6143 25.9132 62.0549 22.5164 66.9605 22.5164C72.1639 22.5164 73.956 26.3072 73.956 30.098C73.9687 30.5299 73.9478 30.9619 73.8936 31.3905H63.8423Z" fill="#D9D9D9"/>
<path d="M76.3023 27.0135C76.3023 25.4856 76.3023 24.1643 76.2734 22.8719H80.415C80.4726 23.2226 80.5351 24.7217 80.5351 25.5433C81.2078 23.8136 82.8221 22.55 85.4118 22.5164V26.5427C82.3561 26.4562 80.5159 27.2778 80.5159 31.4529V38.0929H76.2831L76.3023 27.0135Z" fill="#D9D9D9"/>
<path d="M87.0825 26.73C87.0825 25.4376 87.0825 24.025 87.0537 22.8863H91.1377C91.2297 23.5234 91.2889 24.1649 91.3154 24.8082C91.7957 23.8713 93.0498 22.5164 95.7259 22.5164C98.7815 22.5164 100.747 24.6064 100.747 28.4261V38.0929H96.5475V28.8969C96.5475 27.1624 95.9904 25.9276 94.1066 25.9276C92.3148 25.9276 91.3154 26.927 91.3154 29.632V38.0929H87.0825V26.73Z" fill="#D9D9D9"/>
<path d="M113.119 28.8057C113.09 27.0423 112.384 25.5433 110.328 25.5433C108.271 25.5433 107.508 26.927 107.33 28.8057H113.119ZM107.243 31.3905C107.243 33.3124 108.204 35.1525 110.299 35.1525C112.062 35.1525 112.562 34.451 112.975 33.5382H117.174C116.646 35.388 114.97 38.4437 110.212 38.4437C105.187 38.4437 103.005 34.7153 103.005 30.7178C103.005 25.9132 105.446 22.5164 110.352 22.5164C115.555 22.5164 117.348 26.3072 117.348 30.098C117.359 30.5297 117.34 30.9616 117.289 31.3905H107.243Z" fill="#D9D9D9"/>
<path d="M123.991 17.8528H128.314V26.8759C129.66 25.2951 133.85 20.7596 136.391 17.8528H141.624L133.479 26.2561L141.946 38.0994H136.66L130.414 29.1052L128.271 31.1375V38.0994H123.947L123.991 17.8528Z" fill="#D9D9D9"/>
<path d="M151.696 28.8056C151.667 27.0423 150.965 25.5433 148.909 25.5433C146.853 25.5433 146.084 26.927 145.911 28.8056H151.696ZM145.82 31.3905C145.82 33.3124 146.781 35.1525 148.875 35.1525C150.639 35.1525 151.138 34.451 151.551 33.5381H155.756C155.227 35.3783 153.546 38.4436 148.789 38.4436C143.763 38.4436 141.582 34.7153 141.582 30.7178C141.582 25.9132 144.018 22.5164 148.928 22.5164C154.136 22.5163 155.948 26.3072 155.948 30.0932C155.959 30.5249 155.94 30.9568 155.89 31.3857L145.82 31.3905Z" fill="#D9D9D9"/>
<path d="M161.396 33.5164C161.718 34.7512 162.717 35.4382 164.279 35.4382C165.84 35.4382 166.398 34.8809 166.398 33.944C166.398 33.0071 165.749 32.5891 163.573 32.0606C158.609 30.8258 157.807 29.298 157.807 27.1551C157.807 24.921 159.364 22.5378 163.947 22.5378C168.531 22.5378 170.15 25.065 170.266 27.1215H166.268C166.119 26.5641 165.739 25.5071 163.77 25.5071C162.391 25.5071 161.92 26.1269 161.92 26.7995C161.92 27.5635 162.401 27.919 164.856 28.5052C169.938 29.6823 170.674 31.4168 170.674 33.6461C170.674 36.1734 168.752 38.4508 164.125 38.4508C159.498 38.4508 157.6 36.2118 157.245 33.5116L161.396 33.5164Z" fill="#D9D9D9"/>
<path d="M175.973 33.5164C176.299 34.7512 177.298 35.4382 178.855 35.4382C180.411 35.4382 180.969 34.8809 180.969 33.944C180.969 33.0071 180.32 32.5891 178.148 32.0606C173.181 30.8258 172.383 29.298 172.383 27.1551C172.383 24.921 173.94 22.5378 178.523 22.5378C183.107 22.5378 184.726 25.065 184.841 27.1215H180.849C180.7 26.5641 180.316 25.5071 178.351 25.5071C176.967 25.5071 176.496 26.1269 176.496 26.7995C176.496 27.5635 176.976 27.919 179.436 28.5052C184.525 29.6679 185.26 31.4024 185.26 33.6317C185.26 36.1589 183.338 38.4364 178.706 38.4364C174.075 38.4364 172.181 36.1974 171.831 33.4972L175.973 33.5164Z" fill="#D9D9D9"/>
<path d="M191.517 16.6443H187.285V38.0969H191.517V16.6443Z" fill="#D9D9D9"/>
<path d="M203.92 28.8057C203.891 27.0423 203.185 25.5433 201.129 25.5433C199.072 25.5433 198.304 26.927 198.13 28.8057H203.92ZM198.039 31.3905C198.039 33.3124 199 35.1525 201.099 35.1525C202.863 35.1525 203.358 34.451 203.771 33.5382H207.976C207.447 35.388 205.77 38.4437 201.008 38.4437C195.983 38.4437 193.801 34.7153 193.801 30.7178C193.801 25.9132 196.238 22.5164 201.148 22.5164C206.346 22.5164 208.144 26.3072 208.144 30.098C208.156 30.5299 208.135 30.9619 208.081 31.3905H198.039Z" fill="#D9D9D9"/>
<path d="M210.499 27.0135C210.499 25.4856 210.499 24.1643 210.47 22.8719H214.616C214.674 23.2226 214.732 24.7217 214.732 25.5433C215.409 23.8136 217.023 22.55 219.608 22.5164V26.5427C216.553 26.4562 214.732 27.2778 214.732 31.4529V38.0929H210.499V27.0135Z" fill="#D9D9D9"/>
<path d="M33.3064 48.3896C33.465 49.0815 33.9551 49.4131 34.7718 49.4131C35.5886 49.4131 35.9538 49.0527 35.9538 48.529C35.9538 48.0053 35.6414 47.6833 34.4595 47.3951C32.7779 46.9963 32.3119 46.3957 32.3119 45.5021C32.3119 44.4307 33.1094 43.6523 34.6181 43.6523C36.2805 43.6523 36.9483 44.5748 37.0204 45.4829H35.8337C35.7472 45.0024 35.4733 44.5844 34.5989 44.5844C33.9551 44.5844 33.5803 44.8534 33.5803 45.3723C33.5803 45.8913 33.8878 46.0835 34.9688 46.3333C36.833 46.7753 37.2174 47.4864 37.2174 48.3704C37.2174 49.5043 36.367 50.3212 34.695 50.3212C33.023 50.3212 32.2446 49.4851 32.0957 48.3704L33.3064 48.3896Z" fill="#D9D9D9"/>
<path d="M40.4542 44.7771H38.4458V43.7634H43.6829V44.7771H41.6698V50.2545H40.4542V44.7771Z" fill="#D9D9D9"/>
<path d="M49.6925 47.3765H46.5503V49.2502H50.0097L49.8607 50.2545H45.354V43.7634H49.8319V44.7771H46.5503V46.3723H49.6925V47.3765Z" fill="#D9D9D9"/>
<path d="M53.0849 46.5886H54.3437C55.1893 46.5886 55.5257 46.2666 55.5257 45.6564C55.5257 45.0462 55.1509 44.7484 54.3918 44.7484H53.0849V46.5886ZM53.0849 47.5734V50.2784H51.8838V43.7634H54.6368C56.0206 43.7634 56.7652 44.5225 56.7652 45.5363C56.7857 45.8654 56.699 46.1922 56.5179 46.4677C56.3368 46.7431 56.0712 46.9525 55.7611 47.0642C56.1551 47.1891 56.6307 47.5446 56.6307 48.6978V49.0004C56.6089 49.4224 56.6411 49.8454 56.7268 50.2592H55.5641C55.4464 49.7884 55.4042 49.3019 55.4392 48.8179V48.7025C55.4392 47.9242 55.2326 47.5686 54.1467 47.5686L53.0849 47.5734Z" fill="#D9D9D9"/>
<path d="M58.8696 50.2784V43.7634H60.4071C61.2624 45.2432 62.944 48.0875 63.261 48.7842C63.1938 48.0491 63.1938 46.9633 63.1938 45.9015V43.7634H64.3084V50.2784H62.8671C62.1079 48.9668 60.2918 45.7861 59.9362 45.0462C59.9843 45.6708 59.9939 46.92 59.9939 48.0924V50.2784H58.8696Z" fill="#D9D9D9"/>
<path d="M71.0662 47.3765H67.924V49.2502H71.3833L71.2344 50.2545H66.7324V43.7634H71.2055V44.7771H67.924V46.3723H71.0662V47.3765Z" fill="#D9D9D9"/>
<path d="M76.3511 43.7634H77.5619V46.7663C78.0039 46.257 79.4501 44.7387 80.3389 43.7634H81.8139L79.1378 46.4732L81.9197 50.2784H80.4783L78.321 47.2852L77.5859 47.9818V50.2784H76.3751L76.3511 43.7634Z" fill="#D9D9D9"/>
<path d="M87.7771 47.3765H84.63V49.2502H88.0942L87.9453 50.2545H83.4385V43.7634H87.9165V44.7771H84.63V46.3723H87.7771V47.3765Z" fill="#D9D9D9"/>
<path d="M90.8112 48.3899C90.9695 49.0818 91.4594 49.4133 92.2766 49.4133C93.0929 49.4133 93.4582 49.053 93.4582 48.5292C93.4582 48.0056 93.146 47.6837 91.9635 47.4098C90.2823 47.011 89.8162 46.4104 89.8162 45.5168C89.8162 44.4454 90.614 43.667 92.1227 43.667C93.7845 43.667 94.4531 44.5895 94.5248 45.4975H93.2999C93.2132 45.0171 92.939 44.5991 92.0652 44.5991C91.4214 44.5991 91.0464 44.8681 91.0464 45.3871C91.0464 45.9059 91.3533 46.0981 92.4349 46.348C94.3037 46.79 94.6831 47.501 94.6831 48.3851C94.6831 49.519 93.8332 50.3358 92.1608 50.3358C90.4893 50.3358 89.711 49.4998 89.5615 48.3851L90.8112 48.3899Z" fill="#D9D9D9"/>
<path d="M97.5319 48.3899C97.6911 49.0818 98.1757 49.4133 98.9735 49.4133C99.7712 49.4133 100.156 49.053 100.156 48.5292C100.156 48.0056 99.8481 47.6837 98.6666 47.4098C96.9845 47.011 96.514 46.4104 96.514 45.5168C96.514 44.4454 97.3161 43.667 98.8249 43.667C100.488 43.667 101.155 44.5895 101.227 45.4975H99.9967C99.9154 45.0171 99.6412 44.5991 98.7674 44.5991C98.1236 44.5991 97.7442 44.8681 97.7442 45.3871C97.7442 45.9059 98.0564 46.0981 99.1327 46.348C101.001 46.79 101.385 47.501 101.385 48.3851C101.385 49.519 100.53 50.3358 98.8629 50.3358C97.1958 50.3358 96.4131 49.4998 96.2637 48.3851L97.5319 48.3899Z" fill="#D9D9D9"/>
<path d="M103.33 43.7634H104.551V49.2502H107.833L107.693 50.2545H103.33V43.7634Z" fill="#D9D9D9"/>
<path d="M113.833 47.3765H110.69V49.2502H114.149L114.001 50.2545H109.494V43.7634H113.971V44.7771H110.69V46.3723H113.833V47.3765Z" fill="#D9D9D9"/>
<path d="M117.218 46.5886H118.472C119.318 46.5886 119.655 46.2666 119.655 45.6564C119.655 45.0462 119.28 44.7484 118.521 44.7484H117.214L117.218 46.5886ZM117.218 47.5734V50.2784H116.017V43.7634H118.77C120.159 43.7634 120.899 44.5225 120.899 45.5363C120.921 45.8632 120.838 46.1885 120.66 46.4639C120.482 46.7393 120.221 46.9498 119.914 47.0642C120.308 47.1891 120.788 47.5446 120.788 48.6978V49.0004C120.765 49.4284 120.794 49.8576 120.875 50.2784H119.712C119.596 49.8073 119.556 49.3209 119.592 48.837V48.7217C119.592 47.9434 119.385 47.5878 118.294 47.5878L117.218 47.5734Z" fill="#D9D9D9"/>
<path d="M131.569 50.2737H130.67C130.612 50.0374 130.576 49.796 130.564 49.553C130.237 50.0334 129.627 50.3794 128.642 50.3794C126.764 50.3794 125.76 48.938 125.76 47.1026C125.76 45.1808 126.864 43.6865 128.883 43.6865C130.497 43.6865 131.462 44.5898 131.63 45.7141H130.386C130.296 45.3816 130.089 45.0925 129.803 44.8995C129.518 44.7064 129.172 44.6221 128.83 44.6619C127.441 44.6619 126.98 45.8102 126.98 47.0642C126.98 48.3182 127.46 49.4088 128.82 49.4088C130.18 49.4088 130.377 48.5248 130.377 47.7753V47.708H128.82V46.6654H131.569V50.2737Z" fill="#D9D9D9"/>
<path d="M134.811 46.9809C134.811 48.2926 135.416 49.3448 136.656 49.3448C137.991 49.3448 138.487 48.2397 138.487 47.0001C138.487 45.7606 137.924 44.6698 136.637 44.6698C135.349 44.6698 134.811 45.6741 134.811 46.9809ZM139.755 46.9809C139.755 48.7827 138.693 50.3441 136.613 50.3441C134.614 50.3441 133.552 48.8595 133.552 46.9809C133.552 45.1023 134.695 43.6177 136.694 43.6177C138.572 43.6177 139.755 44.9726 139.755 46.9328" fill="#D9D9D9"/>
<path d="M141.775 43.7634H142.996V49.2502H146.282L146.138 50.2545H141.775V43.7634Z" fill="#D9D9D9"/>
<path d="M149.166 49.2599H150.328C151.669 49.2599 152.279 48.299 152.279 46.9441C152.279 45.8102 151.708 44.7579 150.328 44.7579H149.166V49.2599ZM147.946 43.7634H150.429C152.299 43.7634 153.548 44.9934 153.548 46.9152C153.548 48.837 152.337 50.2784 150.381 50.2784H147.946V43.7634Z" fill="#D9D9D9"/>
<path d="M156.361 48.3899C156.519 49.0818 157.009 49.4133 157.825 49.4133C158.642 49.4133 159.008 49.053 159.008 48.5292C159.008 48.0056 158.695 47.6837 157.513 47.4098C155.836 47.011 155.366 46.4104 155.366 45.5168C155.366 44.4454 156.163 43.667 157.672 43.667C159.334 43.667 160.002 44.5895 160.098 45.4975H158.868C158.782 45.0171 158.508 44.5991 157.639 44.5991C156.989 44.5991 156.614 44.8681 156.614 45.3871C156.614 45.9059 156.922 46.0981 158.003 46.348C159.873 46.79 160.252 47.501 160.252 48.3851C160.252 49.519 159.401 50.3358 157.73 50.3358C156.057 50.3358 155.279 49.4998 155.13 48.3851L156.361 48.3899Z" fill="#D9D9D9"/>
<path d="M163.51 44.7771H161.502V43.7634H166.738V44.7771H164.731V50.2545H163.51V44.7771Z" fill="#D9D9D9"/>
<path d="M172.75 47.3765H169.608V49.2502H173.068L172.919 50.2545H168.412V43.7634H172.89V44.7771H169.608V46.3723H172.75V47.3765Z" fill="#D9D9D9"/>
<path d="M176.161 43.7634H174.94V50.2592H176.161V43.7634Z" fill="#D9D9D9"/>
<path d="M178.566 50.2784V43.7634H180.108C180.964 45.2432 182.64 48.0875 182.962 48.7842C182.895 48.0491 182.895 46.9633 182.895 45.9015V43.7634H184.009V50.2784H182.568C181.809 48.9668 179.998 45.7861 179.642 45.0462C179.69 45.6708 179.7 46.92 179.7 48.0924V50.2784H178.566Z" fill="#D9D9D9"/>
<path d="M190.856 45.2636C190.856 45.6144 191.062 45.8738 191.476 46.2678C192.086 45.8738 192.225 45.5855 192.225 45.2444C192.232 45.1511 192.221 45.0573 192.19 44.9689C192.159 44.8805 192.11 44.7994 192.046 44.7308C191.983 44.6622 191.906 44.6075 191.82 44.5702C191.734 44.5329 191.641 44.5138 191.548 44.5141C191.449 44.5127 191.353 44.5323 191.263 44.5715C191.173 44.6107 191.093 44.6687 191.027 44.7415C190.962 44.8142 190.912 44.9002 190.883 44.9936C190.853 45.087 190.844 45.1856 190.856 45.2828M192.46 48.7373L191.019 47.3488C190.814 47.4492 190.64 47.6032 190.516 47.7943C190.392 47.9855 190.322 48.2068 190.313 48.4346C190.309 48.5601 190.331 48.6849 190.379 48.801C190.427 48.9172 190.498 49.0221 190.589 49.1091C190.679 49.1959 190.787 49.2629 190.905 49.3057C191.023 49.3484 191.149 49.3659 191.273 49.3571C191.507 49.3576 191.737 49.3013 191.944 49.1934C192.15 49.0854 192.328 48.9289 192.46 48.7373ZM195.492 46.1957L193.791 48.5596L195.545 50.2797H194.026L193.153 49.4292C192.921 49.7382 192.619 49.9868 192.27 50.1542C191.922 50.3214 191.54 50.4023 191.154 50.3901C189.784 50.3901 189.136 49.4821 189.136 48.6172C189.136 47.9013 189.448 47.3969 190.467 46.7771C190.264 46.6036 190.099 46.3913 189.98 46.1529C189.861 45.9143 189.791 45.6544 189.774 45.3885C189.77 45.1585 189.813 44.9302 189.903 44.718C189.991 44.5058 190.123 44.3144 190.29 44.1562C190.456 43.9979 190.654 43.8762 190.871 43.7988C191.088 43.7215 191.318 43.6902 191.548 43.7069C191.765 43.6884 191.984 43.7148 192.19 43.7847C192.397 43.8546 192.587 43.9662 192.748 44.1127C192.909 44.2593 193.039 44.4376 193.128 44.6364C193.217 44.8353 193.265 45.0504 193.268 45.2684C193.268 45.9026 192.922 46.3542 192.037 46.8731L193.104 47.8774L194.296 46.2005L195.492 46.1957Z" fill="#D9D9D9"/>
<path d="M200.607 43.7634H205.017V44.7771H201.798V46.5404H204.816V47.5542H201.798V50.2545H200.607V43.7634Z" fill="#D9D9D9"/>
<path d="M207.88 46.9809C207.88 48.2926 208.49 49.3448 209.73 49.3448C211.065 49.3448 211.56 48.2397 211.56 47.0001C211.56 45.7606 210.998 44.6698 209.71 44.6698C208.423 44.6698 207.88 45.6741 207.88 46.9809ZM212.829 46.9809C212.829 48.7827 211.766 50.3441 209.686 50.3441C207.682 50.3441 206.625 48.8595 206.625 46.9809C206.625 45.1023 207.769 43.6177 209.768 43.6177C211.646 43.6177 212.829 44.9726 212.829 46.9328" fill="#D9D9D9"/>
<path d="M218.194 50.2545L216.695 47.8329H216.685L215.157 50.2545H213.831L216.002 46.9825L213.898 43.7634H215.315L216.743 46.0408H216.752L218.218 43.7634H219.52L217.406 46.8671L219.601 50.2545H218.194Z" fill="#D9D9D9"/>
<path d="M25.8409 40.9332H25.4709V40.3182H25.8793C25.9143 40.3126 25.95 40.3152 25.9837 40.3259C26.0174 40.3367 26.0481 40.3552 26.0734 40.38C26.0986 40.4047 26.1177 40.4351 26.129 40.4686C26.1404 40.5021 26.1438 40.5378 26.1387 40.5729V40.6401C26.1446 40.6803 26.1408 40.7214 26.1278 40.7599C26.1148 40.7985 26.0929 40.8334 26.0639 40.862C26.0349 40.8905 25.9996 40.9118 25.9609 40.9242C25.9221 40.9365 25.881 40.9396 25.8409 40.9332ZM26.5568 41.7259V41.5146C26.5661 41.4069 26.5325 41.2999 26.4631 41.2172C26.3938 41.1343 26.2944 41.0823 26.1868 41.0726C26.2434 41.0684 26.2984 41.0521 26.3482 41.0247C26.3979 40.9974 26.4412 40.9595 26.4749 40.9139C26.5087 40.8683 26.5322 40.8159 26.5439 40.7604C26.5555 40.7048 26.5549 40.6474 26.5424 40.5921V40.5585C26.5424 40.2028 26.379 39.9771 25.9177 39.9771H25.0625V42.1103H25.4661V41.2166H25.8697C26.0667 41.2166 26.1484 41.3416 26.1484 41.529V41.7692C26.1484 42.0335 26.2493 42.1151 26.5568 42.1151H26.6672V41.8269C26.5856 41.8269 26.5471 41.798 26.5471 41.7307" fill="#D9D9D9"/>
</g>
<mask id="mask2_4352_109333" style="mask-type:luminance" maskUnits="userSpaceOnUse" x="0" y="16" width="220" height="35">
<path d="M219.602 16.6438H0.275879V50.3578H219.602V16.6438Z" fill="white"/>
</mask>
<g mask="url(#mask2_4352_109333)">
<path d="M25.7054 43.0668C25.3041 43.0677 24.9116 42.9488 24.5782 42.7255C24.2446 42.5021 23.9854 42.1844 23.8334 41.813C23.6815 41.4415 23.6437 41.0332 23.7251 40.6402C23.8063 40.2471 24.0029 39.8873 24.2898 39.6066C24.5766 39.3259 24.9407 39.1371 25.3354 39.0643C25.7301 38.9916 26.1375 39.0383 26.5055 39.1982C26.8736 39.3582 27.1856 39.6243 27.4017 39.9625C27.6177 40.3007 27.728 40.6957 27.7185 41.097C27.7219 41.3602 27.6719 41.6215 27.5713 41.8649C27.4708 42.1083 27.3219 42.3287 27.1337 42.5129C26.9455 42.6971 26.7218 42.8412 26.4763 42.9363C26.2308 43.0316 25.9685 43.076 25.7054 43.0668ZM25.8062 38.6994C25.3412 38.6862 24.8827 38.8114 24.4889 39.059C24.0951 39.3067 23.7836 39.6657 23.5941 40.0905C23.4045 40.5154 23.3453 40.9869 23.424 41.4455C23.5027 41.904 23.7159 42.3288 24.0363 42.6661C24.3567 43.0034 24.7701 43.238 25.2239 43.3401C25.6778 43.4422 26.1518 43.4073 26.5857 43.2397C27.0198 43.0722 27.3943 42.7795 27.6618 42.3989C27.9293 42.0183 28.0778 41.5668 28.0884 41.1017C28.1 40.7933 28.0498 40.4855 27.9407 40.1967C27.8316 39.9079 27.6659 39.6438 27.4532 39.42C27.2406 39.1962 26.9853 39.0171 26.7025 38.8934C26.4196 38.7697 26.115 38.7037 25.8062 38.6994Z" fill="#D9D9D9"/>
<path d="M8.53895 26.2118C8.71191 27.0238 9.9803 29.2771 10.9413 30.9012L10.9701 30.9444C11.0229 31.0308 11.0566 31.0933 11.071 31.1222L16.1975 39.9194C15.007 40.3533 13.7455 40.5603 12.4787 40.5296C9.83437 40.469 7.31445 39.3946 5.44 37.5284C3.56556 35.6622 2.47999 33.147 2.40779 30.503C2.3356 27.8589 3.28229 25.2882 5.05212 23.3226C6.82193 21.3569 9.2795 20.1465 11.9166 19.9418C12.1376 19.9418 12.3683 19.9418 12.5988 19.9418H12.8679C14.9013 19.9854 16.8764 20.6295 18.5446 21.7929C20.2129 22.9563 21.4998 24.5871 22.2435 26.4801C22.9871 28.3732 23.1542 30.4438 22.724 32.4317C22.2936 34.4195 21.285 36.2357 19.825 37.6516C19.2185 38.2333 18.5443 38.7398 17.8167 39.1603C16.7212 36.2151 14.7129 30.3822 14.4534 29.5846L14.3237 29.2099C13.8433 27.8118 13.0745 25.4671 12.325 24.4677C12.1005 24.1661 11.7962 23.933 11.4466 23.7947C11.0969 23.6564 10.7156 23.6182 10.3455 23.6846C10.1358 23.7202 9.93201 23.7849 9.74009 23.8768C9.71047 23.8883 9.68287 23.9045 9.65846 23.9248C9.48495 24.0069 9.32337 24.1119 9.17797 24.2371C9.10818 24.3073 9.04393 24.3828 8.98577 24.4629L8.93293 24.535L8.88488 24.5879C8.84436 24.6318 8.8089 24.6801 8.77918 24.732C8.50922 25.1749 8.41978 25.7048 8.52934 26.2118M21.2711 39.1554C22.444 38.0264 23.3829 36.6772 24.0341 35.1852C24.6854 33.693 25.0361 32.0872 25.0665 30.4596C25.0969 28.8318 24.8061 27.214 24.211 25.6988C23.6158 24.1834 22.7278 22.8002 21.5979 21.6282C20.4725 20.4513 19.1249 19.5095 17.6329 18.8571C16.141 18.2047 14.5344 17.8549 12.9063 17.8278C10.4547 17.7804 8.04412 18.4615 5.97976 19.7848C3.91541 21.1082 2.29011 23.0143 1.30961 25.2619C0.329104 27.5094 0.0374928 29.9973 0.471687 32.4106C0.905882 34.824 2.04636 37.0543 3.74874 38.8192C4.87411 39.996 6.22179 40.9378 7.71373 41.5903C9.20565 42.2426 10.8122 42.5925 12.4403 42.6196C12.8247 42.6196 13.2138 42.6196 13.5982 42.5908C15.0689 42.4847 16.5088 42.117 17.8503 41.5049C19.1134 40.9176 20.2696 40.1235 21.2711 39.1554Z" fill="#D9D9D9"/>
</g>
<mask id="mask3_4352_109333" style="mask-type:luminance" maskUnits="userSpaceOnUse" x="0" y="16" width="220" height="35">
<path d="M219.602 16.6438H0.275879V50.3578H219.602V16.6438Z" fill="white"/>
</mask>
<g mask="url(#mask3_4352_109333)">
<path d="M21.3479 41.533L15.814 44.0806L16.9231 46.4897L22.457 43.9421L21.3479 41.533Z" fill="#D9D9D9"/>
<path d="M23.0896 45.2979L17.5557 47.8455L18.6647 50.2546L24.1987 47.707L23.0896 45.2979Z" fill="#D9D9D9"/>
</g>
</g>
</g>
<defs>
<clipPath id="clip0_4352_109333">
<rect width="221" height="66" fill="white"/>
</clipPath>
</defs>
</svg>
