<svg width="142" height="66" viewBox="0 0 142 66" fill="none" xmlns="http://www.w3.org/2000/svg">
<path d="M128.464 16.8663C128.553 17.7222 128.725 18.5675 128.976 19.3908C129.164 19.9481 129.415 20.4824 129.723 20.9838C130.384 21.4907 131.837 21.8508 132.579 21.9917C132.857 21.3037 133.189 20.6383 133.571 20.0014C133.72 19.7353 133.883 19.4593 134.063 19.1756C134.405 18.6178 134.693 18.1716 134.805 18.0014C134.218 16.3289 133.861 14.5852 133.742 12.8174L133.546 12.7665L130.368 11.9641C130.031 12.3555 128.776 13.8956 128.456 15.3986V15.4612C128.424 15.9291 128.426 16.3988 128.464 16.8663Z" fill="#090909"/>
<path d="M128.723 12.0772C129.129 11.8365 129.491 11.5528 129.886 11.2944C129.63 11.2335 129.381 11.1503 129.14 11.0459C128.987 11.389 128.848 11.7328 128.723 12.0772Z" fill="#090909"/>
<path d="M137.333 13.3827L134.762 13.097L136.807 14.6821L135.736 17.0383L137.876 15.5843L139.789 17.3299L139.069 14.8446L141.32 13.5667L138.729 13.4864L138.212 10.9502L137.333 13.3827Z" fill="#090909"/>
<path d="M130.449 11.4919V11.5193L133.554 12.3295L133.987 12.4391C134.468 12.0712 136.833 10.2864 138.224 9.84216C138.32 9.26485 138.545 8.40965 138.775 7.60925C139.106 6.36853 139.346 5.67576 139.35 5.66597C138.603 5.16411 137.72 4.90191 136.82 4.9145C136.606 4.93848 136.394 4.97639 136.186 5.028C135.444 5.24606 134.728 5.54534 134.052 5.92038C133.129 6.4438 132.297 7.11407 131.591 7.90475C130.543 9.11612 130.449 10.9205 130.449 11.4919Z" fill="#090909"/>
<path d="M136.459 4.51599L136.818 4.20874C136.015 4.44633 135.241 4.77461 134.512 5.18723C134.934 4.98076 135.372 4.80927 135.822 4.6745C136.031 4.60874 136.244 4.5558 136.459 4.51599Z" fill="#090909"/>
<path d="M142.118 29.5439C142.807 29.4899 143.49 29.38 144.16 29.2152C144.334 29.0042 144.476 28.7688 144.582 28.5165C143.907 28.4363 142.285 28.1408 141.414 27.1055L141.059 27.1603C138.957 27.5517 136.595 27.1232 135.868 26.8159C135.495 27.3071 134.951 27.6404 134.344 27.7494C135.352 28.3494 136.436 28.8102 137.568 29.1193C139.056 29.4828 140.589 29.6259 142.118 29.5439Z" fill="#090909"/>
<path d="M129.296 21.6409C129.296 21.5 129.296 21.3571 129.314 21.2123C129.264 21.1714 129.217 21.1269 129.173 21.0792L129.161 21.0655L129.151 21.0479C128.901 20.5581 128.7 20.0448 128.551 19.5156C128.243 18.6034 128.061 17.6532 128.012 16.6917C128.012 16.5997 128 16.5097 127.996 16.4197V16.4334C128.029 18.4554 128.48 20.4489 129.322 22.2886C129.308 22.0773 129.296 21.862 129.296 21.6409Z" fill="#090909"/>
<path d="M145.766 12.5143C146.459 12.443 147.156 12.4071 147.853 12.4066C148.345 11.2168 148.616 9.9476 148.653 8.66097C148.637 8.62966 148.596 8.55921 148.533 8.46528C147.495 7.09103 146.145 5.98125 144.595 5.22648C141.888 5.01709 140.174 5.70007 139.762 5.88794C139.653 6.23041 139.435 6.92318 139.219 7.66879C139.054 8.28719 138.866 9.03867 138.672 9.92714C140.033 10.659 142.157 12.5593 142.695 13.0583C143.701 12.7893 144.728 12.6073 145.766 12.5143Z" fill="#090909"/>
<path d="M133.526 23.7635C134.148 24.7733 134.961 25.6521 135.921 26.3506C136.076 26.4093 138.221 27.1725 141.232 26.695L141.428 26.6461C142.787 25.2762 143.274 23.4993 143.405 22.8848L141.024 19.4014C140.753 19.0237 140.561 18.7497 140.451 18.5716L135.185 18.2878C134.946 18.6029 134.724 18.9239 134.518 19.2409C134.312 19.5579 134.103 19.9239 133.889 20.2977C133.524 20.9525 133.201 21.6297 132.922 22.3251C132.999 22.64 133.107 22.9467 133.244 23.2409C133.336 23.4073 133.426 23.5815 133.526 23.7635Z" fill="#090909"/>
<path d="M150.758 16.8414C149.693 14.3912 148.199 13.0566 147.926 12.8433C147.681 12.8433 146.824 12.855 145.755 12.9568C144.76 13.0591 143.776 13.2444 142.813 13.5106C141.716 16.0018 141.01 17.8805 140.852 18.3306C140.883 18.3795 141.112 18.722 141.428 19.178L141.711 19.5694C142.264 20.3365 143.019 21.3855 143.856 22.6203L148.783 22.0684C149.052 21.6673 150.48 19.4539 150.758 16.8414Z" fill="#090909"/>
<path d="M133.763 27.0857L132.378 24.7726L132.482 23.1287L131.588 23.8665L129.746 22.1052L130.923 24.2462L130.631 24.4242C130.953 24.8442 131.299 25.2447 131.668 25.6239L132.282 25.8333L133.763 27.0857Z" fill="#090909"/>
<path d="M138.98 3.59696L138.195 4.49717L140.278 3.86898L142.251 4.7868L141.439 3.55391L141.832 3.46193L141.571 3.44627C140.704 3.41234 139.836 3.46281 138.98 3.59696Z" fill="#090909"/>
<path d="M74.2583 46.268C73.9242 47.2364 73.2963 48.077 72.4617 48.6731C71.6524 49.2289 70.6253 49.5068 69.3805 49.5068C68.8221 49.508 68.2676 49.414 67.7409 49.2289C67.229 49.0514 66.7518 48.7865 66.3307 48.4461C65.9096 48.1019 65.574 47.6652 65.3501 47.1702C65.101 46.621 64.9777 46.0233 64.9892 45.4206C64.9889 44.9285 65.0217 44.4368 65.0872 43.949H77.8357C77.8808 43.7102 77.9337 43.3932 78.0004 43.0018C78.0669 42.5909 78.0997 42.1753 78.0985 41.7591C78.0985 39.3821 77.5245 37.5393 76.3765 36.2307C75.2285 34.9221 73.4097 34.2698 70.9201 34.2737C69.7626 34.2704 68.6205 34.5386 67.5859 35.0565C66.5092 35.5915 65.5591 36.3494 64.7989 37.2796C63.9632 38.3069 63.3188 39.4755 62.8965 40.7298C62.4173 42.1539 62.1819 43.6484 62.2002 45.1506C62.2061 45.9301 62.3162 46.7054 62.5277 47.4559C62.7482 48.2598 63.1365 49.0081 63.6673 49.6516C64.2701 50.3585 65.0277 50.9175 65.8816 51.2857C66.8099 51.7123 67.9736 51.925 69.3727 51.9237C70.2586 51.9279 71.1408 51.8074 71.993 51.5655C72.8011 51.337 73.5663 50.978 74.2583 50.5029C74.9419 50.0283 75.5311 49.4311 75.996 48.7416C76.4949 47.99 76.85 47.1526 77.0433 46.2719L74.2583 46.268ZM66.2601 39.6437C66.5803 39.0756 66.9895 38.5622 67.4722 38.1231C67.9669 37.6793 68.5393 37.3304 69.1609 37.0937C69.8574 36.8339 70.5964 36.7065 71.3399 36.718C72.0095 36.6954 72.6745 36.8358 73.2776 37.127C73.7796 37.3796 74.2129 37.7496 74.5407 38.2053C74.863 38.6675 75.086 39.1912 75.1958 39.7435C75.3159 40.3184 75.3542 40.9074 75.3095 41.493H65.4795C65.6717 40.8492 65.9355 40.2289 66.266 39.6437H66.2601Z" fill="#D9D9D9"/>
<path d="M13.3286 43.7328C12.8915 43.3583 12.4131 43.0347 11.9028 42.768C11.3654 42.4836 10.8136 42.2227 10.2474 41.9852C9.70023 41.766 9.15891 41.5547 8.62544 41.3473C8.12847 41.1583 7.64601 40.9333 7.18193 40.6741C6.80198 40.4713 6.45861 40.2068 6.16597 39.8913C5.91695 39.6128 5.78247 39.2507 5.78941 38.8775C5.77125 38.4961 5.88709 38.1203 6.11694 37.8149C6.3417 37.5357 6.62749 37.3114 6.95245 37.1593C7.32135 36.9874 7.7141 36.872 8.11746 36.8169C8.53991 36.7513 8.96675 36.718 9.39427 36.717C10.2925 36.6917 11.1759 36.9499 11.9185 37.4548C12.6167 37.946 12.9462 38.6701 12.8991 39.629H15.6861C15.7128 38.7616 15.522 37.9013 15.1311 37.1261C14.7816 36.4638 14.2819 35.8922 13.6719 35.4568C13.0536 35.0248 12.3588 34.714 11.6243 34.5409C10.862 34.3566 10.0805 34.2633 9.2962 34.263C8.51484 34.2601 7.737 34.3674 6.9858 34.582C6.26834 34.7844 5.58775 35.0995 4.96958 35.5155C4.38712 35.9105 3.90006 36.4299 3.54372 37.036C3.17599 37.672 2.98885 38.3959 3.0024 39.13C2.98996 39.7081 3.11923 40.2805 3.37897 40.7973C3.6318 41.2797 3.97774 41.7073 4.39688 42.0557C4.83645 42.4278 5.32068 42.744 5.83844 42.997C6.37453 43.2579 6.9263 43.4973 7.49377 43.7152C8.03901 43.9566 8.57968 44.1803 9.11576 44.3864C9.60787 44.5727 10.0846 44.7972 10.5416 45.0577C10.9213 45.2681 11.2644 45.5384 11.5576 45.8581C11.8187 46.1498 11.9589 46.5297 11.9498 46.9207C11.9639 47.3505 11.8432 47.774 11.6047 48.1321C11.3717 48.4628 11.0666 48.7365 10.7123 48.9325C10.323 49.1459 9.9018 49.2952 9.46488 49.3748C9.01233 49.461 8.5527 49.5049 8.09197 49.5059C7.52495 49.5082 6.95917 49.4531 6.40329 49.3415C5.90469 49.2469 5.4271 49.0639 4.99312 48.8014C4.59172 48.554 4.26396 48.204 4.04385 47.7877C3.80319 47.3072 3.70649 46.7677 3.76535 46.2338H1.01953C1.01953 47.3258 1.19409 48.2391 1.5432 48.9736C1.86259 49.6677 2.35317 50.2696 2.96906 50.7231C3.61535 51.1801 4.35018 51.4974 5.12649 51.6546C6.02025 51.8468 6.93255 51.94 7.84681 51.9325C8.67968 51.9325 9.50992 51.8393 10.322 51.6546C11.1056 51.484 11.8539 51.1802 12.5343 50.7564C13.186 50.3449 13.7353 49.7908 14.1406 49.136C14.5718 48.4098 14.7881 47.5766 14.7643 46.7328C14.7776 46.1372 14.6429 45.5476 14.372 45.0166C14.1072 44.5277 13.7533 44.0923 13.3286 43.7328Z" fill="#D9D9D9"/>
<path d="M42.0127 48.5583C41.1181 49.2038 40.0351 49.5367 38.9315 49.5054C38.2493 49.5275 37.571 49.3936 36.9486 49.114C36.4396 48.8731 35.9957 48.5141 35.6542 48.0671C35.3159 47.6088 35.0762 47.0858 34.9501 46.5308C34.8047 45.9199 34.733 45.2938 34.7363 44.6658C34.7408 43.718 34.8842 42.7758 35.1619 41.8693C35.433 40.9478 35.8602 40.0794 36.425 39.3018C36.976 38.5437 37.6794 37.9085 38.4902 37.4368C39.3525 36.9462 40.3319 36.698 41.3243 36.7186C42.4383 36.7186 43.313 37.0075 43.9485 37.5855C44.584 38.1635 44.9004 38.9756 44.8978 40.0219H47.6848C47.6194 38.0376 47.0238 36.5822 45.898 35.6559C44.7722 34.7296 43.2477 34.2658 41.3243 34.2645C39.9367 34.2384 38.5621 34.5353 37.3095 35.1315C36.1735 35.6868 35.1703 36.4789 34.3676 37.4544C33.561 38.4394 32.9494 39.5684 32.5651 40.7812C32.1572 42.0384 31.952 43.3523 31.9571 44.6737C31.9571 46.9855 32.5416 48.7735 33.7105 50.0377C34.8795 51.3019 36.6224 51.9347 38.9393 51.936C40.9281 51.936 42.5893 51.4337 43.923 50.4291C45.2567 49.4246 46.172 47.964 46.6688 46.0475H43.8818C43.5186 47.049 42.8687 47.922 42.0127 48.5583Z" fill="#D9D9D9"/>
<path d="M57.3135 48.5583C56.4189 49.2038 55.3358 49.5367 54.2323 49.5054C53.5501 49.5275 52.8718 49.3936 52.2494 49.114C51.7404 48.8731 51.2965 48.5141 50.955 48.0671C50.6168 47.6085 50.3765 47.0857 50.2489 46.5308C50.1052 45.9196 50.0341 45.2937 50.0371 44.6658C50.0416 43.718 50.185 42.7758 50.4627 41.8693C50.7331 40.9476 51.1603 40.0791 51.7257 39.3018C52.2768 38.5437 52.9802 37.9085 53.791 37.4368C54.6533 36.9462 55.6327 36.698 56.6251 36.7186C57.7391 36.7186 58.6138 37.0075 59.2493 37.5855C59.8847 38.1635 60.2012 38.9756 60.1985 40.0219H62.9855C62.9189 38.0376 62.3233 36.5822 61.1988 35.6559C60.0743 34.7296 58.5497 34.2658 56.6251 34.2645C55.2375 34.2384 53.8629 34.5353 52.6103 35.1315C51.4743 35.6868 50.4711 36.4789 49.6683 37.4544C48.8618 38.4394 48.2502 39.5684 47.8659 40.7812C47.458 42.0384 47.2527 43.3523 47.2579 44.6737C47.2579 46.9855 47.8424 48.7735 49.0113 50.0377C50.1802 51.3019 51.9232 51.9347 54.2401 51.936C56.2289 51.936 57.8894 51.4337 59.2218 50.4291C60.5542 49.4246 61.4695 47.964 61.9676 46.0475H59.1826C58.8194 47.049 58.1695 47.922 57.3135 48.5583Z" fill="#D9D9D9"/>
<path d="M24.7665 34.2642C23.3879 34.2406 22.0233 34.5437 20.785 35.1488C19.6384 35.717 18.6226 36.5167 17.8019 37.4972C16.9691 38.5029 16.3349 39.657 15.9328 40.8984C15.5068 42.1857 15.2909 43.533 15.2934 44.8887C15.2832 45.854 15.45 46.813 15.7857 47.7184C16.0917 48.5611 16.577 49.3276 17.208 49.9654C17.8391 50.6032 18.6011 51.0971 19.4416 51.4132C20.3991 51.7747 21.4167 51.952 22.4404 51.9357C23.8134 51.9578 25.1718 51.6518 26.4022 51.0433C27.5393 50.4692 28.5419 49.6615 29.3441 48.6734C30.1651 47.6585 30.7878 46.4988 31.1799 45.2546C31.5962 43.9654 31.8067 42.6188 31.8036 41.2643C31.8036 38.9747 31.2028 37.2356 30.0012 36.047C28.7996 34.8585 27.0547 34.2642 24.7665 34.2642ZM28.6185 44.143C28.3523 45.0669 27.9433 45.9438 27.4064 46.7419C26.8876 47.5228 26.2215 48.1955 25.4451 48.7224C24.6447 49.2526 23.7009 49.5257 22.7405 49.5052C21.212 49.5052 20.0541 49.0798 19.267 48.2292C18.4799 47.3786 18.0876 46.2553 18.0902 44.8593C18.1 43.9316 18.2379 43.0096 18.5001 42.1195C18.7591 41.1776 19.1712 40.2844 19.7201 39.4757C20.2578 38.6871 20.9488 38.0143 21.752 37.4972C22.5934 36.9645 23.5741 36.6921 24.5703 36.7144C25.2512 36.698 25.9277 36.8261 26.5552 37.0901C27.0904 37.3205 27.567 37.6678 27.9499 38.1064C28.3328 38.545 28.6122 39.0638 28.7675 39.6244C28.9442 40.2302 29.0321 40.8584 29.0284 41.4894C29.0179 42.3888 28.8799 43.2822 28.6185 44.143Z" fill="#D9D9D9"/>
<path d="M3.34571 28.7115C4.06267 29.1257 4.84334 29.4186 5.65612 29.5785C6.48654 29.7501 7.33226 29.8373 8.18031 29.8388C9.16218 29.8363 10.1413 29.7346 11.1026 29.5354C12.0154 29.3596 12.8911 29.0286 13.6916 28.5569C14.4407 28.1164 15.0756 27.5064 15.545 26.7761C16.0332 25.9743 16.2778 25.0484 16.2491 24.1107C16.2631 23.483 16.1462 22.8592 15.9059 22.279C15.6845 21.7665 15.3608 21.3044 14.9546 20.9208C14.5369 20.5299 14.0621 20.2046 13.5464 19.956C12.9768 19.6818 12.3866 19.4521 11.7812 19.2691L9.45907 18.5137C8.67194 18.2672 8.12016 18.0134 7.80374 17.7525C7.6566 17.642 7.53715 17.4989 7.45479 17.3346C7.37243 17.1702 7.32941 16.9891 7.32911 16.8053C7.3126 16.5334 7.38085 16.2631 7.52448 16.0315C7.66811 15.7999 7.88008 15.6183 8.13128 15.5117C8.77836 15.2396 9.47709 15.1114 10.1789 15.136C11.0941 15.136 11.7551 15.3376 12.1617 15.7407C12.5677 16.1458 12.7796 16.7055 12.8011 17.4257H17.1277C17.1513 16.335 16.9767 15.4406 16.6041 14.7427C16.2528 14.0669 15.7266 13.4972 15.0802 13.0929C14.3915 12.6778 13.629 12.3994 12.8345 12.2729C11.9579 12.1175 11.0692 12.0402 10.1789 12.042C9.32154 12.0466 8.46702 12.1404 7.62918 12.3219C6.77198 12.4959 5.94782 12.8044 5.18737 13.2358C4.4646 13.6437 3.84266 14.2081 3.36729 14.8875C2.87983 15.6329 2.63589 16.5108 2.66906 17.4002C2.6543 17.9768 2.73719 18.5518 2.91423 19.1008C3.0676 19.5394 3.31375 19.9398 3.63598 20.275C3.96739 20.6127 4.35577 20.8896 4.78334 21.093C5.28872 21.3331 5.80886 21.541 6.34061 21.7154L9.92586 22.8621C10.3611 23.0025 10.7705 23.2127 11.1379 23.4845C11.4439 23.7232 11.5969 24.1374 11.5969 24.7271C11.6113 25.0681 11.5195 25.4051 11.3341 25.6919C11.1542 25.9476 10.9189 26.1597 10.6457 26.3123C10.3515 26.4808 10.0303 26.5974 9.69639 26.6567C9.35048 26.7222 8.99917 26.7549 8.6471 26.7546C8.24386 26.7534 7.84221 26.7042 7.45071 26.6078C7.07095 26.5198 6.70619 26.3768 6.36807 26.1831C6.0632 26.0081 5.8007 25.7683 5.59924 25.4806C5.39679 25.1811 5.29324 24.826 5.30309 24.4649V23.9091H1V24.6019C1 25.6052 1.21901 26.4395 1.65703 27.1049C2.08595 27.7651 2.6644 28.3154 3.34571 28.7115Z" fill="#D9D9D9"/>
<path d="M16.948 23.8189C16.8951 24.1027 16.8499 24.3806 16.8186 24.6526C16.7891 24.8752 16.7727 25.0993 16.7695 25.3238C16.7695 28.3323 18.419 29.8366 21.7179 29.8366C24.1656 29.8366 26.1432 28.9103 27.6508 27.0577H27.7175L27.1919 29.4061H31.6499L35.192 12.4958H30.5359L28.6354 21.4979C28.5014 22.0927 28.3089 22.6728 28.0607 23.2299C27.8226 23.7771 27.5018 24.2846 27.1095 24.7348C26.7245 25.1737 26.2584 25.5344 25.7366 25.7974C25.1612 26.08 24.5262 26.2202 23.8851 26.2064C23.3381 26.2059 22.8051 26.0341 22.3612 25.7152C22.1477 25.5853 21.971 25.4032 21.8478 25.186C21.7245 24.9689 21.6589 24.724 21.6571 24.4745C21.6571 24.3649 21.6571 24.2181 21.6728 24.0322C21.685 23.8401 21.7073 23.6487 21.7395 23.4588C21.7708 23.2631 21.8042 23.0674 21.8356 22.8874C21.8628 22.727 21.9015 22.5687 21.9513 22.4138L24.0165 12.5017H19.3584L17.2599 22.4138C17.2167 22.5664 17.1677 22.768 17.1128 23.0185C17.0578 23.2612 17.0029 23.5273 16.948 23.8189Z" fill="#D9D9D9"/>
<path d="M34.3543 35.3225C34.9446 35.3224 35.517 35.1205 35.9762 34.7506C36.4355 34.3806 36.7539 33.8649 36.8785 33.2892L38.2083 27.1443H38.3063C38.4749 27.5926 38.7377 27.9996 39.0771 28.3381C39.4129 28.6748 39.8002 28.9562 40.2245 29.1717C40.6591 29.3936 41.1205 29.5587 41.5974 29.6629C42.0757 29.7705 42.5644 29.825 43.0546 29.8254C44.6237 29.8254 45.9842 29.5096 47.1361 28.8782C48.268 28.2615 49.2486 27.402 50.0074 26.3615C50.7866 25.2851 51.3647 24.0772 51.7138 22.7959C51.7393 22.7039 51.7569 22.6002 51.7804 22.518C51.763 23.5944 51.9459 24.6648 52.3198 25.6746C52.6509 26.5459 53.1713 27.3332 53.8437 27.9799C54.5217 28.615 55.3341 29.0899 56.2208 29.3694C57.222 29.6859 58.2675 29.8405 59.3177 29.8273C60.4046 29.8431 61.4891 29.7227 62.546 29.4692C63.4194 29.2535 64.2466 28.8823 64.9878 28.3733C65.6913 27.8787 66.3015 27.2639 66.7902 26.5572C67.3273 25.7732 67.7678 24.9276 68.1023 24.0386H63.4482C63.2717 24.3008 63.0814 24.5728 62.8735 24.8566C62.6681 25.1385 62.4253 25.3913 62.1518 25.6081C61.8649 25.8356 61.5448 26.0177 61.2025 26.1482C60.8096 26.2955 60.3925 26.3678 59.9728 26.3615C58.7058 26.3615 57.7663 26.0562 57.1544 25.4456C56.5425 24.8351 56.2365 24.0392 56.2365 23.0581V22.3712C56.2371 22.2718 56.2483 22.1728 56.2698 22.0757H68.7672C68.9358 21.203 69.0238 20.3167 69.03 19.4279C69.0524 18.3265 68.8578 17.2314 68.4573 16.2048C68.1039 15.3203 67.5548 14.5269 66.851 13.8838C66.1312 13.245 65.2805 12.7702 64.3582 12.4924C63.3081 12.1752 62.2153 12.0207 61.1182 12.0345C59.7677 12.0143 58.4314 12.3113 57.2171 12.9014C56.0825 13.4588 55.0796 14.2506 54.2752 15.2244C53.4655 16.2152 52.8387 17.3416 52.4237 18.5512C52.359 18.7352 52.3021 18.9211 52.2472 19.107C52.2472 18.97 52.261 18.835 52.261 18.698C52.261 16.6497 51.7033 15.0254 50.588 13.8251C49.4726 12.6248 47.8886 12.0247 45.8357 12.0247C44.8213 12.0155 43.8172 12.2279 42.8938 12.647C41.9826 13.0646 41.2302 13.7638 40.7481 14.6412L40.6815 14.5766L41.1404 12.4826H36.6687L31.8164 35.3225H34.3543ZM57.3917 17.7508C57.638 17.3202 57.9541 16.9334 58.3272 16.606C58.7143 16.27 59.1578 16.005 59.6374 15.8232C60.1931 15.6176 60.7825 15.5173 61.3751 15.5277C61.9378 15.5052 62.4982 15.6124 63.0128 15.8408C63.4013 16.0242 63.7308 16.3123 63.964 16.6725C64.1853 17.0279 64.3358 17.4226 64.4073 17.835C64.4836 18.2613 64.5216 18.6935 64.521 19.1266H56.7602C56.9306 18.6507 57.1419 18.1904 57.3917 17.7508ZM39.4949 20.3516C39.6944 19.5267 40.0142 18.7355 40.4441 18.0033C40.8492 17.3086 41.3901 16.7023 42.0348 16.2205C42.6908 15.7447 43.4853 15.4972 44.2961 15.5159C44.7952 15.506 45.2897 15.6133 45.7396 15.8291C46.1383 16.024 46.4902 16.3023 46.7713 16.6451C47.0528 17.0002 47.2644 17.4053 47.395 17.8389C47.5382 18.3056 47.6103 18.7911 47.6088 19.2792C47.6021 20.0708 47.5027 20.859 47.3126 21.6276C47.1258 22.4331 46.8162 23.2054 46.3947 23.9172C45.997 24.5969 45.4628 25.1872 44.8257 25.6511C44.1549 26.1207 43.35 26.3616 42.531 26.338C41.3934 26.338 40.554 26.0053 40.0068 25.34C39.4596 24.6746 39.187 23.7861 39.187 22.6746C39.1992 21.893 39.3052 21.1158 39.5027 20.3595L39.4949 20.3516Z" fill="#D9D9D9"/>
<path d="M70.061 29.4035C70.6735 29.4038 71.2674 29.1937 71.7428 28.8084C72.2183 28.4231 72.5462 27.8862 72.6715 27.288L73.8012 21.9141C73.9503 21.2077 74.1529 20.5136 74.4072 19.8378C74.6498 19.1916 74.9955 18.5889 75.431 18.053C75.8574 17.5301 76.3929 17.106 77.0001 16.8103C77.7144 16.4873 78.4932 16.3314 79.2771 16.3544C79.9138 16.3566 80.5447 16.4753 81.1384 16.7047L81.2443 16.6479L82.1955 12.1351C81.7172 12.0688 81.2349 12.0355 80.752 12.0353C79.5402 12.0271 78.3476 12.3376 77.2943 12.9355C76.2303 13.5394 75.3945 14.4751 74.9152 15.599L74.8505 15.5344L75.5389 12.4913H71.1162L67.6055 29.4035H70.061Z" fill="#D9D9D9"/>
<path d="M125.628 48.2962L127.136 41.4938C127.356 40.5607 127.477 39.6069 127.497 38.6484C127.518 37.6894 127.305 36.921 126.857 36.343C126.404 35.7608 125.813 35.2996 125.137 35.0006C124.407 34.6767 123.633 34.4618 122.841 34.3626C122.048 34.2572 121.249 34.2029 120.45 34.2002C119.514 34.1972 118.58 34.2903 117.663 34.478C116.807 34.6479 115.986 34.963 115.237 35.4096C114.512 35.8496 113.887 36.4346 113.401 37.1278C112.866 37.9256 112.53 38.8394 112.42 39.7932H116.778C116.829 39.4093 116.965 39.0415 117.175 38.7161C117.385 38.3906 117.665 38.1155 117.994 37.9106C118.666 37.5032 119.439 37.2936 120.224 37.3059C120.547 37.3076 120.87 37.3344 121.189 37.3861C121.521 37.4392 121.842 37.5442 122.14 37.6973C122.431 37.8454 122.683 38.0583 122.878 38.3196C123.089 38.6269 123.193 38.9947 123.174 39.3666C123.174 39.9106 123.043 40.319 122.782 40.5916C122.447 40.9036 122.033 41.1188 121.585 41.214C120.922 41.3758 120.245 41.4806 119.563 41.5271C118.755 41.5923 117.805 41.6901 116.712 41.8206C114.657 42.062 113.068 42.6725 111.944 43.6523C110.819 44.6321 110.256 45.9407 110.253 47.578C110.255 47.7573 110.267 47.9363 110.288 48.1142C109.776 48.1701 109.262 48.1982 108.747 48.1984C108.572 48.1984 108.392 48.1984 108.205 48.1827C108.027 48.1729 107.853 48.1227 107.697 48.036C107.541 47.9449 107.411 47.8147 107.321 47.6583C107.21 47.4413 107.159 47.1988 107.174 46.9557C107.177 46.8514 107.188 46.7474 107.205 46.6446C107.231 46.4851 107.264 46.3271 107.305 46.171L109.041 37.756H112.352L113.073 34.6483H109.739L110.435 31.2432H105.771L105.075 34.6483H102.092L101.455 37.3881C101.394 37.2204 101.323 37.0569 101.241 36.8988C100.888 36.2235 100.362 35.6535 99.7169 35.2471C99.0289 34.8279 98.2665 34.5449 97.4712 34.4135C96.5943 34.2614 95.7056 34.1874 94.8156 34.1923C93.9584 34.1972 93.104 34.2903 92.2659 34.4702C91.4084 34.6442 90.5841 34.9533 89.8241 35.3861C89.1009 35.7934 88.4788 36.3579 88.004 37.0378C87.5133 37.7842 87.2673 38.6643 87.2999 39.5564C87.2853 40.133 87.3682 40.7079 87.5451 41.257C87.6982 41.6957 87.9444 42.0962 88.2668 42.4312C88.5972 42.7701 88.9858 43.0472 89.4142 43.2492C89.9187 43.4913 90.439 43.6992 90.9715 43.8715L94.5449 45.0164C94.9801 45.1561 95.3895 45.3656 95.757 45.6367C96.063 45.8768 96.216 46.2916 96.216 46.8813C96.2301 47.2223 96.1383 47.5593 95.9532 47.8461C95.7732 48.1018 95.538 48.3139 95.2647 48.4665C94.9701 48.6341 94.6492 48.7505 94.3155 48.8109C93.9694 48.8754 93.6182 48.9082 93.2662 48.9088C92.8629 48.907 92.4612 48.857 92.0698 48.76C91.6897 48.6733 91.3247 48.5302 90.9872 48.3354C90.6813 48.161 90.418 47.9211 90.2164 47.6328C90.0156 47.3334 89.9128 46.9792 89.9222 46.6191V46.0633H85.6328V46.7502C85.6328 47.7522 85.8518 48.5859 86.2898 49.2512C86.7185 49.9099 87.2963 50.4589 87.9766 50.854C88.6941 51.2685 89.4754 51.5614 90.2889 51.721C91.1193 51.8994 91.9657 51.9931 92.8151 52.0008C93.7954 52.0014 94.7733 51.9024 95.7335 51.7053C96.6461 51.529 97.5217 51.198 98.3224 50.7268C99.0712 50.285 99.706 49.6745 100.176 48.944C100.665 48.1424 100.909 47.2164 100.88 46.2786C100.894 45.6509 100.777 45.0271 100.537 44.4469C100.314 43.9352 99.9905 43.4733 99.5855 43.0887C99.1666 42.6984 98.6912 42.3732 98.1753 42.1239C97.6088 41.8492 97.0219 41.6183 96.4199 41.4331L94.0939 40.6797C93.3093 40.4409 92.7543 40.1885 92.4366 39.9282C92.2897 39.817 92.1705 39.6735 92.0882 39.5089C92.0059 39.3443 91.9627 39.163 91.9619 38.9791C91.9457 38.7073 92.0143 38.4371 92.1583 38.2058C92.3023 37.9745 92.5146 37.7934 92.7661 37.6875C93.4129 37.4144 94.1117 37.2855 94.8136 37.3098C95.7289 37.3098 96.3899 37.512 96.7965 37.9164C97.2032 38.3209 97.4163 38.8819 97.4359 39.5994H101.763C101.783 38.9834 101.717 38.3674 101.566 37.7697H104.416L102.516 46.8285C102.449 47.1338 102.394 47.4156 102.351 47.6955C102.309 47.9386 102.288 48.1847 102.286 48.4313C102.241 49.0189 102.36 49.6076 102.629 50.1319C102.872 50.5585 103.222 50.9141 103.645 51.1632C104.092 51.4214 104.58 51.5983 105.089 51.6857C105.624 51.7837 106.167 51.8328 106.711 51.8325C107.213 51.8325 107.705 51.8162 108.186 51.7836L109.623 51.6857L110.345 48.4567C110.4 48.732 110.482 49.0013 110.588 49.261C110.812 49.8031 111.16 50.2851 111.604 50.6681C112.11 51.0975 112.694 51.4251 113.324 51.6329C114.1 51.8881 114.912 52.0124 115.729 52.0008C116.703 51.9996 117.67 51.8253 118.583 51.4861C119.48 51.1617 120.28 50.6157 120.909 49.899V51.5663H125.565C125.464 51.2496 125.408 50.9202 125.4 50.5879C125.4 50.261 125.418 49.8736 125.449 49.4274C125.471 49.0454 125.531 48.6665 125.628 48.2962ZM121.791 45.0907C121.657 45.5574 121.494 46.0149 121.301 46.4606C121.108 46.9133 120.836 47.3286 120.499 47.6876C120.144 48.0583 119.721 48.3579 119.253 48.5702C118.679 48.8158 118.058 48.9334 117.433 48.9146C116.805 48.9283 116.185 48.7633 115.647 48.4391C115.4 48.2944 115.199 48.0855 115.063 47.8347C114.927 47.584 114.862 47.3011 114.876 47.0164C114.858 46.5673 114.961 46.1217 115.172 45.7248C115.357 45.3981 115.622 45.123 115.941 44.9244C116.281 44.7191 116.652 44.5698 117.039 44.4821C117.46 44.3833 117.887 44.3127 118.318 44.2707C118.996 44.2257 119.673 44.167 120.352 44.0907C121.024 44.0157 121.672 43.7982 122.252 43.4527L121.791 45.0907Z" fill="#D9D9D9"/>
<path d="M154.101 12.9981C153.448 10.584 152.137 8.39786 150.314 6.68256C148.491 4.96726 146.226 3.79004 143.773 3.28175L143.72 3.2661C143.009 3.12376 142.287 3.03804 141.562 3.00973C139.185 2.91963 136.826 3.45631 134.723 4.56569C132.62 5.67506 130.848 7.31793 129.584 9.32874C128.32 11.3395 127.61 13.6472 127.524 16.0193C127.439 18.3913 127.982 20.7438 129.098 22.8398C129.339 23.3329 129.518 23.6226 129.545 23.6715L129.573 23.6597C130.631 25.3493 132.049 26.7863 133.725 27.8692C134.872 28.6674 136.16 29.2405 137.522 29.5581C138.498 29.8216 139.501 29.9739 140.511 30.0121C141.001 30.0307 141.492 30.0229 141.982 29.9886C143.237 29.9397 144.128 29.7596 144.31 29.652L144.365 29.6129C145.95 29.2137 147.447 28.5278 148.784 27.5894C149.753 26.9653 150.621 26.1971 151.357 25.3114H151.379L151.42 25.2566C151.724 24.8652 151.996 24.4738 152.245 24.0824C153.591 22.0981 154.379 19.7905 154.528 17.3994L154.55 17.4366L154.589 16.6831C154.634 15.4362 154.469 14.1906 154.101 12.9981ZM151.849 23.8887C151.62 24.2253 151.374 24.5515 151.11 24.8672C150.829 24.9533 150.129 25.1627 149.578 25.2879C149.593 25.1626 149.6 25.0365 149.6 24.9103C149.618 24.0434 149.448 23.1828 149.102 22.3877C149.1 22.3819 149.1 22.3759 149.102 22.3701C150.234 20.7698 150.949 18.9136 151.182 16.9688C151.567 16.8469 151.939 16.6904 152.295 16.5011C152.607 16.3562 152.892 16.1574 153.136 15.914C153.215 15.8393 153.29 15.7596 153.359 15.6753C153.555 15.8709 153.732 16.0838 153.889 16.3113C153.993 16.5026 154.071 16.7074 154.119 16.9199C153.965 19.3969 153.184 21.7946 151.849 23.8887ZM152.359 10.2897C152.381 10.2212 152.402 10.1586 152.42 10.094C152.989 11.1413 153.437 12.2495 153.756 13.3974C153.947 14.1891 154.066 14.9969 154.109 15.8103C153.942 15.5552 153.738 15.3258 153.505 15.1293L153.481 15.1117C153.506 14.896 153.518 14.679 153.516 14.462C153.492 12.9958 153.093 11.56 152.359 10.2897ZM153.054 13.8964C153.054 13.9551 153.054 14.0099 153.065 14.0627L151.777 12.9355L151.239 15.7027L150.904 12.6165L148.747 12.3112L150.449 11.321L149.305 9.15268L151.116 10.9453L151.9 10.3327L151.924 10.3758L152.01 10.5284L151.9 11.867L153.054 13.8964ZM128.455 15.4033C128.775 13.9003 130.024 12.3621 130.367 11.9688L133.543 12.777L133.739 12.8279C133.858 14.5957 134.215 16.3394 134.802 18.0119C134.69 18.1802 134.409 18.6264 134.06 19.1861C133.88 19.4699 133.717 19.7458 133.568 20.0119C133.186 20.6488 132.854 21.3142 132.576 22.0022C131.834 21.8613 130.381 21.5012 129.72 20.9943C129.412 20.4898 129.162 19.9521 128.975 19.3916C128.725 18.5681 128.555 17.7228 128.467 16.8671C128.428 16.4016 128.424 15.9339 128.455 15.4678V15.4052V15.4033ZM128.724 12.0764C128.854 11.7281 128.994 11.3862 129.141 11.0509C129.382 11.1554 129.631 11.2385 129.887 11.2995C129.492 11.5598 129.13 11.8435 128.724 12.0764ZM138.726 13.4776L141.315 13.5598L139.064 14.8377L139.783 17.3211L137.873 15.5755L135.731 17.0295L136.802 14.6811L134.757 13.096L137.33 13.3837L138.208 10.9492L138.726 13.4776ZM138.665 9.92373C138.862 9.03918 139.058 8.28378 139.213 7.66538C139.428 6.91977 139.646 6.227 139.756 5.88453C140.168 5.68883 141.882 5.01368 144.589 5.22307C146.14 5.97539 147.492 7.08317 148.533 8.456C148.595 8.55776 148.637 8.62821 148.652 8.6517C148.615 9.93832 148.344 11.2075 147.852 12.3973C147.155 12.3978 146.459 12.4337 145.765 12.505C144.726 12.5925 143.697 12.7693 142.688 13.0334C142.151 12.5519 140.027 10.6517 138.665 9.92373ZM132.937 22.3231C133.216 21.6277 133.539 20.9506 133.903 20.2957C134.117 19.9219 134.337 19.5579 134.533 19.2389C134.729 18.9199 134.961 18.601 135.2 18.2859L140.466 18.5696C140.576 18.7477 140.768 19.0217 141.039 19.3994L143.42 22.8828C143.288 23.4973 142.802 25.2801 141.443 26.6441L141.247 26.6931C138.236 27.1706 136.09 26.4073 135.935 26.3486C134.976 25.6502 134.162 24.7713 133.541 23.7615C133.441 23.5795 133.344 23.4053 133.272 23.2468C133.135 22.9526 133.028 22.6459 132.95 22.331L132.937 22.3231ZM145.042 25.2077L144.185 23.284L146.022 24.5795L148.307 23.284L147.04 25.3838L148.446 26.106L148.425 26.1921L146.338 26.2156L145.11 27.7694L145.093 26.3565L142.682 26.6578L145.042 25.2077ZM143.839 22.6225C143.002 21.3877 142.247 20.3388 141.694 19.5716L141.411 19.1802C141.095 18.7164 140.866 18.3818 140.835 18.3329C140.999 17.8828 141.705 16.0041 142.796 13.5128C143.759 13.2466 144.743 13.0614 145.738 12.959C146.807 12.8572 147.664 12.8455 147.909 12.8455C148.172 13.0647 149.674 14.3935 150.741 16.8436C150.463 19.4562 149.035 21.6597 148.752 22.0746L143.839 22.6225ZM152.041 9.85132C151.19 9.09523 150.14 8.59696 149.015 8.4149C148.784 7.9922 147.658 6.23092 144.861 4.86495C144.82 4.55736 144.732 4.25782 144.6 3.97648C149.504 5.51466 151.818 9.04701 152.124 9.54799C152.102 9.65059 152.075 9.75187 152.041 9.85132ZM141.815 3.46571L141.423 3.55769L142.235 4.79058L140.262 3.87276L138.193 4.49704L138.993 3.59683C139.843 3.46407 140.703 3.4136 141.562 3.44614L141.815 3.46571ZM136.82 4.20936L136.469 4.51661C136.251 4.55804 136.035 4.61294 135.824 4.68099C135.373 4.81576 134.935 4.98725 134.513 5.19372C135.242 4.77907 136.016 4.44881 136.82 4.20936ZM134.058 5.9178C134.732 5.54532 135.445 5.24802 136.184 5.03129C136.393 4.97969 136.604 4.94177 136.818 4.91779C137.719 4.90267 138.603 5.16283 139.352 5.66339C139.352 5.67318 139.109 6.36595 138.777 7.60667C138.548 8.40707 138.322 9.26227 138.226 9.83958C136.834 10.2956 134.466 12.0764 133.988 12.4384L133.554 12.3289L130.45 11.5187V11.4893C130.45 10.9159 130.538 9.11159 131.589 7.90022C132.296 7.11023 133.127 6.44062 134.051 5.9178H134.058ZM127.994 16.4091C127.994 16.4992 127.994 16.5892 128.01 16.6812C128.059 17.6454 128.241 18.5983 128.551 19.5129C128.7 20.0421 128.901 20.5554 129.151 21.0452L129.161 21.0628L129.173 21.0765C129.216 21.1275 129.262 21.1753 129.312 21.2194C129.302 21.3642 129.294 21.5071 129.294 21.648C129.294 21.8711 129.306 22.0844 129.322 22.2859C128.479 20.4439 128.027 18.4477 127.994 16.4228V16.4091ZM130.632 24.4327L130.924 24.2547L129.747 22.1137L131.589 23.875L132.483 23.1372L132.379 24.7811L133.764 27.0942L132.287 25.8516L131.673 25.6422C131.303 25.2599 130.956 24.8561 130.634 24.4327H130.632ZM134.345 27.7596C134.952 27.6506 135.496 27.3173 135.869 26.8261C136.596 27.1334 138.958 27.5659 141.06 27.1706L141.415 27.1158C142.286 28.151 143.908 28.4465 144.583 28.5267C144.477 28.779 144.335 29.0144 144.161 29.2254C143.489 29.3871 142.805 29.4938 142.115 29.5444C140.586 29.6283 139.053 29.4872 137.565 29.1256C136.435 28.8141 135.352 28.3513 134.347 27.7498L134.345 27.7596ZM149.923 26.1275C149.625 26.4034 149.313 26.6637 148.994 26.9103C147.731 27.8138 146.338 28.5193 144.861 29.0023C144.98 28.8207 145.085 28.631 145.177 28.4348C145.868 28.2547 146.529 27.9738 147.138 27.6011C147.398 27.4517 147.649 27.287 147.889 27.1079C148.437 26.7115 148.946 26.2653 149.411 25.7752C149.558 25.7518 149.927 25.6872 150.512 25.5443C150.321 25.7341 150.129 25.9298 149.925 26.1177L149.923 26.1275Z" fill="#D9D9D9"/>
<path d="M127.808 28.0908C127.816 28.1298 127.837 28.165 127.868 28.1903C127.898 28.2156 127.937 28.2296 127.977 28.2297L131.625 28.0145C131.658 28.0109 131.689 27.9977 131.715 27.9765C131.741 27.9553 131.76 27.927 131.77 27.8951C131.789 27.8305 131.77 27.9088 131.719 27.8638C131.523 27.7013 131.144 27.4332 130.964 27.263C130.921 27.2199 130.856 27.1064 130.799 27.1221L127.93 27.8931C127.888 27.9046 127.852 27.9314 127.83 27.9681C127.807 28.0048 127.8 28.0486 127.808 28.0908Z" fill="#D9D9D9"/>
<path d="M103.133 28.2258C103.15 28.2277 103.166 28.2277 103.182 28.2258L126.995 21.0926C127.016 21.0858 127.036 21.0749 127.053 21.0605C127.07 21.046 127.084 21.0284 127.095 21.0085C127.105 20.9886 127.112 20.9668 127.115 20.9443C127.117 20.9218 127.115 20.899 127.108 20.8773C127.022 20.5936 126.938 20.2902 126.853 19.9262C126.848 19.9028 126.838 19.8808 126.823 19.8616C126.808 19.8423 126.79 19.8264 126.769 19.8147C126.748 19.8036 126.724 19.7968 126.701 19.7948C126.677 19.7928 126.653 19.7956 126.63 19.803L103.084 27.8931C103.042 27.9082 103.007 27.9391 102.987 27.9791C102.967 28.0192 102.963 28.0655 102.977 28.1084C102.987 28.1417 103.008 28.1708 103.036 28.1918C103.064 28.2128 103.098 28.2247 103.133 28.2258Z" fill="#D9D9D9"/>
<path d="M127.747 22.5372C127.73 22.4975 127.699 22.4658 127.659 22.4486C127.62 22.4315 127.575 22.4303 127.535 22.4452L111.421 27.8445C111.378 27.8588 111.343 27.8892 111.323 27.9291C111.303 27.969 111.299 28.0152 111.313 28.0578C111.323 28.0926 111.345 28.123 111.374 28.1445C111.404 28.166 111.439 28.1775 111.476 28.1772C111.491 28.1792 111.507 28.1792 111.523 28.1772L128.07 23.6761C128.095 23.6693 128.117 23.6569 128.136 23.64C128.156 23.623 128.17 23.6019 128.18 23.5783C128.192 23.5555 128.198 23.5304 128.198 23.5049C128.198 23.4794 128.192 23.4542 128.18 23.4315C128.029 23.1399 127.884 22.8385 127.747 22.5372Z" fill="#D9D9D9"/>
<path d="M129.105 24.9474C129.084 24.9167 129.054 24.8938 129.018 24.8821C128.983 24.8704 128.945 24.8707 128.909 24.8828L118.854 27.9787C118.816 27.9921 118.783 28.0183 118.763 28.0529C118.742 28.0875 118.734 28.1283 118.74 28.1681C118.747 28.2079 118.767 28.2442 118.797 28.2707C118.828 28.2973 118.866 28.3124 118.907 28.3134H118.944L129.602 26.0159C129.63 26.0097 129.657 25.9962 129.679 25.9768C129.701 25.9575 129.718 25.9328 129.728 25.9052C129.737 25.8775 129.74 25.8478 129.735 25.8189C129.73 25.79 129.718 25.7628 129.7 25.7399C129.496 25.4855 129.296 25.2194 129.105 24.9474Z" fill="#D9D9D9"/>
<path d="M94.7822 28.2261C94.7991 28.229 94.8163 28.229 94.8332 28.2261L126.432 18.3512C126.47 18.3393 126.502 18.3147 126.524 18.2815C126.546 18.2483 126.555 18.2087 126.551 18.1692C126.514 17.8405 126.49 17.4941 126.477 17.1399C126.476 17.1132 126.468 17.0871 126.455 17.0637C126.442 17.0403 126.424 17.0201 126.402 17.0048C126.38 16.9902 126.354 16.9809 126.328 16.9775C126.301 16.9741 126.275 16.9768 126.249 16.9853L94.7253 27.8935C94.6859 27.9057 94.6522 27.9319 94.6306 27.967C94.609 28.0022 94.601 28.044 94.6079 28.0846C94.6148 28.1253 94.6363 28.162 94.6684 28.1881C94.7005 28.2141 94.7409 28.2276 94.7822 28.2261Z" fill="#D9D9D9"/>
<path d="M126.521 15.2915C126.554 14.9001 126.601 14.5322 126.662 14.1702C126.666 14.141 126.663 14.111 126.653 14.0832C126.643 14.0555 126.626 14.0308 126.603 14.0117C126.58 13.9921 126.552 13.9788 126.523 13.9733C126.493 13.9678 126.463 13.9703 126.434 13.9804L86.6886 27.8044C86.6463 27.8196 86.6117 27.8505 86.5919 27.8907C86.5721 27.9308 86.5688 27.9771 86.5826 28.0197C86.5938 28.0539 86.6156 28.0838 86.6449 28.1048C86.6741 28.1259 86.7093 28.1372 86.7454 28.1371C86.763 28.14 86.7809 28.14 86.7984 28.1371L126.403 15.4422C126.435 15.4313 126.463 15.4112 126.484 15.3844C126.505 15.3576 126.518 15.3254 126.521 15.2915Z" fill="#D9D9D9"/>
<path d="M76.4768 28.0179C76.488 28.0521 76.5098 28.0819 76.539 28.103C76.5683 28.1241 76.6035 28.1354 76.6396 28.1353C76.6571 28.1382 76.675 28.1382 76.6925 28.1353L127.027 12.2603C127.053 12.252 127.077 12.2375 127.097 12.2181C127.116 12.1987 127.131 12.1749 127.139 12.1488C127.276 11.7143 127.433 11.2897 127.604 10.8826C127.616 10.8524 127.62 10.8193 127.615 10.7871C127.609 10.7548 127.594 10.7249 127.572 10.7006C127.55 10.6759 127.521 10.6584 127.488 10.6504C127.456 10.6424 127.421 10.6442 127.39 10.6556L76.5925 27.8026C76.5705 27.8089 76.5501 27.8195 76.5323 27.8338C76.5145 27.8481 76.4998 27.8658 76.489 27.8859C76.4782 27.9059 76.4716 27.928 76.4695 27.9506C76.4674 27.9733 76.4699 27.9962 76.4768 28.0179Z" fill="#D9D9D9"/>
<path d="M143.916 37.6838C144.563 37.4108 145.262 37.2819 145.963 37.3061C146.879 37.3061 147.54 37.5083 147.946 37.9128C148.352 38.3159 148.564 38.8776 148.586 39.5958H152.912C152.936 38.5077 152.761 37.614 152.389 36.9147C152.036 36.2394 151.51 35.6694 150.865 35.263C150.177 34.8438 149.414 34.5608 148.619 34.4294C147.743 34.272 146.854 34.1928 145.963 34.1926C145.106 34.1965 144.252 34.2896 143.414 34.4705C142.557 34.6457 141.733 34.9548 140.972 35.3863L140.95 35.4L141.184 34.2904C140.712 34.2266 140.236 34.1939 139.76 34.1926C138.548 34.1837 137.355 34.4942 136.302 35.0928C135.238 35.6969 134.403 36.6335 133.925 37.7582L133.86 37.6916L134.549 34.6505H130.114L126.605 51.5607H128.983C129.617 51.5603 130.233 51.3421 130.726 50.9427C131.218 50.5433 131.559 49.9869 131.689 49.367L132.801 44.0694C132.95 43.363 133.153 42.6689 133.407 41.9931C133.647 41.3474 133.991 40.7452 134.425 40.2103C134.851 39.6866 135.386 39.2625 135.994 38.9676C136.708 38.643 137.487 38.4863 138.271 38.5097C138.363 38.5097 138.456 38.5097 138.548 38.5214C138.484 38.8628 138.453 39.2094 138.454 39.5566C138.439 40.1332 138.522 40.7081 138.699 41.2573C138.853 41.6955 139.099 42.0959 139.421 42.4314C139.751 42.7699 140.14 43.0469 140.568 43.2495C141.072 43.4915 141.593 43.6994 142.125 43.8718L145.699 45.0166C146.134 45.1563 146.543 45.3658 146.911 45.637C147.217 45.877 147.37 46.2912 147.37 46.8796C147.384 47.2212 147.292 47.5588 147.107 47.8464C146.931 48.1048 146.699 48.3207 146.428 48.4785C146.134 48.6461 145.813 48.7625 145.479 48.8229C145.133 48.8874 144.782 48.9201 144.43 48.9208C144.026 48.919 143.625 48.869 143.233 48.772C142.853 48.6853 142.488 48.5422 142.151 48.3474C141.846 48.1719 141.583 47.9321 141.38 47.6448C141.179 47.3454 141.076 46.9912 141.086 46.6311V46.0753H136.79V46.7622C136.79 47.7642 137.01 48.5998 137.448 49.2632C137.877 49.921 138.455 50.4698 139.134 50.866C139.852 51.2801 140.633 51.5731 141.447 51.7329C142.275 51.9068 143.119 51.9966 143.965 52.001C144.945 52.0017 145.922 51.9027 146.881 51.7055C147.795 51.5289 148.671 51.1979 149.472 50.7271C150.22 50.2846 150.854 49.6742 151.324 48.9443C151.812 48.1427 152.057 47.2166 152.028 46.2788C152.042 45.6511 151.925 45.0274 151.685 44.4471C151.462 43.9353 151.139 43.4734 150.733 43.089C150.314 42.6987 149.839 42.3734 149.323 42.1242C148.757 41.8517 148.171 41.6221 147.57 41.4373L145.252 40.676C144.467 40.4373 143.912 40.1848 143.596 39.9245C143.449 39.8139 143.329 39.6705 143.246 39.5059C143.163 39.3412 143.12 39.1596 143.12 38.9754C143.103 38.7045 143.17 38.435 143.313 38.2038C143.455 37.9726 143.666 37.791 143.916 37.6838Z" fill="#D9D9D9"/>
<path d="M87.2378 37.2252H87.2809C87.3722 37.0137 87.4832 36.8113 87.6124 36.6205C87.7707 36.3981 87.9457 36.1881 88.1361 35.9923C88.2707 35.8505 88.4127 35.716 88.5617 35.5892C88.6421 35.5207 88.7225 35.4522 88.8068 35.3935L88.952 35.2878C89.0971 35.1841 89.2481 35.0921 89.407 34.9923C89.4147 34.986 89.4233 34.9807 89.4325 34.9766C89.7442 34.7998 90.068 34.6448 90.4013 34.5128C90.1296 34.4093 89.8465 34.3383 89.558 34.3015L89.3069 34.2721C88.812 34.231 88.3141 34.2448 87.8222 34.3132C86.7732 34.4067 85.7706 34.788 84.9254 35.415C83.8994 36.1913 83.0459 37.1716 82.4189 38.2937H82.3542L83.172 34.6635H80.5498L77.043 51.5718H79.7888L81.3951 44.0825C81.5258 43.451 81.7004 42.7693 81.9187 42.0374C82.1136 41.3586 82.4119 40.7137 82.8033 40.1255C83.2251 39.4673 83.751 38.8818 84.3606 38.3916C84.9633 37.909 85.6629 37.5613 86.4121 37.372C86.6813 37.294 86.9581 37.2448 87.2378 37.2252Z" fill="#D9D9D9"/>
</svg>
