<svg width="151" height="66" viewBox="0 0 151 66" fill="none" xmlns="http://www.w3.org/2000/svg">
<g clip-path="url(#clip0_4352_80726)">
<path fill-rule="evenodd" clip-rule="evenodd" d="M64.9022 18.892H60.3833V23.8853H58.4714V28.276H60.3833V43.428H64.9022V28.1899H68.2915V23.7992H64.9022V18.892Z" fill="#D9D9D9"/>
<path fill-rule="evenodd" clip-rule="evenodd" d="M78.7127 39.293C76.2801 39.293 74.2818 37.3989 74.1949 34.9881C74.1949 34.902 74.1949 34.8159 74.1949 34.6438C74.108 32.1469 76.1063 30.0806 78.539 30.0806C81.0585 29.9945 83.1437 31.9747 83.1437 34.3855C83.1437 34.4716 83.1437 34.5577 83.1437 34.6437C83.2306 37.0545 81.4061 39.1208 78.8865 39.293C78.9734 39.293 78.8865 39.293 78.7127 39.293V39.293ZM78.7177 25.7782C73.6787 25.7782 69.6821 29.8248 69.6821 34.7324C69.6821 39.6399 73.7655 43.6865 78.7177 43.6865C83.7568 43.6865 87.7534 39.64 87.7534 34.7324C87.8403 29.7387 83.7568 25.6921 78.7177 25.7782C78.8046 25.7782 78.7177 25.7782 78.7177 25.7782Z" fill="#D9D9D9"/>
<path fill-rule="evenodd" clip-rule="evenodd" d="M99.1356 39.2957C96.7029 39.2957 94.7046 37.4015 94.6178 34.9908C94.6178 34.9047 94.6178 34.8186 94.6178 34.6464C94.5309 32.1496 96.5292 30.1693 99.0487 30.0832C101.568 29.9971 103.567 31.9774 103.653 34.4742C103.653 34.5603 103.653 34.6464 103.653 34.6464C103.74 37.0572 101.916 39.1235 99.3962 39.2957C99.3094 39.2957 99.2225 39.2957 99.1356 39.2957ZM103.832 27.1557C102.442 26.2086 100.791 25.7781 99.1406 25.7781C94.1015 25.7781 90.105 29.8247 90.105 34.7323C90.105 39.726 94.1884 43.6865 99.1406 43.6865C100.791 43.6865 102.442 43.1699 103.832 42.3089V43.3421H108.35V19.0625H103.832V27.1557Z" fill="#D9D9D9"/>
<path fill-rule="evenodd" clip-rule="evenodd" d="M119.549 39.2965C117.116 39.2965 115.118 37.4024 115.031 34.9916C115.031 34.9055 115.031 34.8194 115.031 34.6472C114.944 32.1504 116.942 30.0841 119.375 30.0841C121.895 29.998 123.98 31.9782 123.98 34.389C123.98 34.475 123.98 34.5611 123.98 34.6472C124.067 37.058 122.242 39.1243 119.723 39.2965C119.723 39.2965 119.636 39.2965 119.549 39.2965V39.2965ZM124.414 27.2414C123.024 26.2082 121.286 25.6917 119.549 25.6917C114.51 25.6917 110.513 29.7382 110.513 34.6458C110.513 39.5534 114.597 43.6 119.549 43.6C121.2 43.6 122.85 43.0834 124.24 42.2224V43.2556H128.758V26.036H124.501L124.414 27.2414Z" fill="#D9D9D9"/>
<path fill-rule="evenodd" clip-rule="evenodd" d="M145.355 26.0371L140.142 36.3678L134.93 26.0371H129.891L137.623 41.2749L133.366 49.6255H138.318L150.307 26.0371H145.355Z" fill="#D9D9D9"/>
<path fill-rule="evenodd" clip-rule="evenodd" d="M45.1439 33.0058C45.1439 31.456 44.1883 29.4757 42.364 28.6148L4.05346 9.24257C1.79479 8.12329 -0.377011 11.1367 1.53418 12.8587L23.5128 32.8336C24.5552 33.7807 24.729 35.4166 23.9471 36.5358L19.951 43.0793C19.951 43.0793 19.951 43.0793 19.8641 43.0793C19.8641 43.0793 14.6518 51.8614 12.8275 54.7887C12.5669 55.1331 12.1325 55.908 12.5669 56.5968C12.8275 56.8551 13.4356 57.1995 14.0437 56.8551C21.6885 52.6363 42.9721 37.3107 42.9721 37.3107C43.059 37.2246 44.2752 36.1915 44.7964 34.9C45.1439 34.1251 45.1439 33.3502 45.1439 33.0058L45.1439 33.0058Z" fill="#D9D9D9"/>
</g>
<defs>
<clipPath id="clip0_4352_80726">
<rect width="149.513" height="66" fill="white" transform="translate(0.797363)"/>
</clipPath>
</defs>
</svg>
