<svg width="198" height="66" viewBox="0 0 198 66" fill="none" xmlns="http://www.w3.org/2000/svg">
<path d="M25.5033 39.3927C25.5033 44.7756 15.7685 44.7756 15.7201 39.3927V24.795L6.9969 29.1603V39.3927C7.04534 55.0701 34.2749 55.0701 34.2265 39.3927L34.2265 16.2676L25.5033 20.6704V39.3927Z" fill="white"/>
<path d="M37.25 16.2998H50.6779C58.8868 16.2998 62.9669 22.4428 62.9669 28.5857C62.9669 34.7287 58.8392 40.9211 50.7256 40.9211H45.7439V51.0935H37.2511V16.2998H37.25ZM50.6779 33.1068C55.8027 33.1562 55.8027 24.4575 50.6779 24.5069H45.7428V33.1068H50.6779Z" fill="white"/>
<path d="M68.543 39.9085C72.0454 44.0181 79.7398 44.2102 79.9865 40.5776C80.0857 38.6664 76.8795 37.5672 74.018 37.184C68.3954 36.3239 63.265 32.8823 63.265 26.4314C63.265 19.9805 69.4803 16.2998 75.8926 16.2998C80.1341 16.2998 84.2291 17.447 87.8296 21.7007L82.0582 26.0024C78.4082 22.2268 72.1434 22.3698 71.9959 26.2895C72.095 27.9148 73.92 28.8699 76.6328 29.4441C82.848 30.5432 89.0632 32.6466 88.6677 40.9619C88.3714 47.5089 81.2685 51.0935 74.8562 51.0935C70.6631 51.0935 66.2245 49.0381 62.9688 44.9765L68.543 39.9107V39.9085Z" fill="white"/>
<path d="M109.681 16.2998H120.453L106.927 33.1068L120.405 51.0935H109.439L100.696 38.6605L100.406 39.0534V51.0935H91.7109V16.2998H100.406V29.175L109.681 16.2998Z" fill="white"/>
<path d="M131.048 51.0935H123.484V16.2998H131.048V51.0935Z" fill="white"/>
<path d="M137.102 16.2998H145.829V42.3948H159.793V51.0935H137.102V16.2998Z" fill="white"/>
<path d="M162.812 16.2998H171.54V42.3948H185.504V51.0935H162.812V16.2998Z" fill="white"/>
</svg>
