<svg width="188" height="67" viewBox="0 0 188 67" fill="none" xmlns="http://www.w3.org/2000/svg">
<g clip-path="url(#clip0_7303_66957)">
<path d="M8.36151 38.718L15.6 24.7781H20.6975L10.4005 43.4772H4.55537L0.953125 24.7781H6.05063L8.36151 38.718Z" fill="#D9D9D9"/>
<path d="M31.8039 24.5418C34.2507 24.5418 36.1651 25.1831 37.5471 26.4657C38.9518 27.7483 39.6541 29.4585 39.6541 31.5962C39.6541 32.0912 39.5975 32.6988 39.4842 33.4188C39.3483 34.0939 39.201 34.6339 39.0424 35.039H25.2112C25.1659 35.2865 25.1432 35.6465 25.1432 36.1191C25.1432 37.4242 25.483 38.3805 26.1627 38.9881C26.8424 39.5956 27.7373 39.8994 28.8474 39.8994C29.9575 39.8994 30.9317 39.6294 31.77 39.0893C32.6082 38.5268 33.2086 37.7955 33.5711 36.8954H38.6346C37.887 38.9206 36.5956 40.5632 34.7605 41.8233C32.948 43.0834 30.8298 43.7135 28.4056 43.7135C26.0041 43.7135 24.0897 43.0497 22.6624 41.7221C21.2578 40.3944 20.5554 38.5493 20.5554 36.1866C20.5554 35.4665 20.6234 34.7014 20.7593 33.8914C21.0992 31.9787 21.7902 30.3248 22.8323 28.9297C23.8971 27.5121 25.1998 26.432 26.7404 25.6894C28.3037 24.9243 29.9915 24.5418 31.8039 24.5418ZM34.7265 32.9463C34.8171 32.5187 34.8624 32.0912 34.8624 31.6637C34.8624 30.5386 34.5113 29.6947 33.809 29.1322C33.1066 28.5696 32.2231 28.2884 31.1583 28.2884C29.8442 28.2884 28.6775 28.6822 27.658 29.4697C26.6385 30.2573 25.9475 31.4161 25.585 32.9463H34.7265Z" fill="#D9D9D9"/>
<path d="M48.5609 28.3559C49.4672 27.1633 50.5546 26.2294 51.8234 25.5544C53.1147 24.8568 54.4854 24.508 55.9353 24.508L55.0178 29.6047H53.6245C50.1129 29.6047 48.0738 31.2249 47.5075 34.4652L45.9102 43.4772H41.0846L44.415 24.7781H49.2066L48.5609 28.3559Z" fill="#D9D9D9"/>
<path d="M65.8258 24.5418C67.4797 24.5418 68.8164 24.9243 69.8359 25.6894C70.878 26.432 71.5237 27.422 71.7729 28.6597L72.4866 24.7781H77.2443L73.9139 43.4772H69.1562L69.8699 39.5619C69.1675 40.822 68.182 41.8346 66.9133 42.5996C65.6446 43.3422 64.2173 43.7135 62.6314 43.7135C60.5018 43.7135 58.8253 43.0609 57.6019 41.7558C56.3785 40.4507 55.7668 38.6393 55.7668 36.3216C55.7668 35.444 55.846 34.5777 56.0046 33.7226C56.3445 31.8549 56.9902 30.2235 57.9417 28.8284C58.8932 27.4333 60.0487 26.3757 61.408 25.6556C62.79 24.9131 64.2626 24.5418 65.8258 24.5418ZM66.8114 28.6934C65.3161 28.6934 64.0247 29.1772 62.9372 30.1448C61.8498 31.1124 61.1588 32.44 60.8643 34.1276C60.7736 34.7577 60.7283 35.1965 60.7283 35.444C60.7283 36.7266 61.0908 37.728 61.8158 38.448C62.5634 39.1681 63.5829 39.5281 64.8743 39.5281C66.3243 39.5281 67.6043 39.0443 68.7144 38.0767C69.8245 37.0867 70.5269 35.7703 70.8214 34.1276C70.912 33.5426 70.9573 33.115 70.9573 32.845C70.9573 31.5624 70.5722 30.5498 69.8019 29.8073C69.0543 29.0647 68.0574 28.6934 66.8114 28.6934Z" fill="#D9D9D9"/>
<path d="M92.8676 24.508C94.7027 24.508 96.1413 25.0256 97.1835 26.0607C98.2256 27.0733 98.7467 28.5359 98.7467 30.4486C98.7467 31.1011 98.6787 31.8212 98.5428 32.6088L96.6397 43.4772H91.8821L93.7172 33.1488C93.7851 32.6988 93.8191 32.2937 93.8191 31.9337C93.8191 30.8086 93.5019 29.9535 92.8676 29.3685C92.2332 28.7609 91.361 28.4571 90.2509 28.4571C88.9595 28.4571 87.838 28.8509 86.8865 29.6385C85.9576 30.4036 85.3119 31.5174 84.9495 32.98L83.0804 43.4772H78.2887L82.7066 18.5H87.4982L85.7311 28.4909C86.4787 27.2308 87.4756 26.2519 88.7216 25.5544C89.9903 24.8568 91.3723 24.508 92.8676 24.508Z" fill="#D9D9D9"/>
<path d="M112.581 24.5418C115.028 24.5418 116.942 25.1831 118.324 26.4657C119.729 27.7483 120.431 29.4585 120.431 31.5962C120.431 32.0912 120.374 32.6988 120.261 33.4188C120.125 34.0939 119.978 34.6339 119.819 35.039H105.988C105.943 35.2865 105.92 35.6465 105.92 36.1191C105.92 37.4242 106.26 38.3805 106.94 38.9881C107.619 39.5956 108.514 39.8994 109.624 39.8994C110.734 39.8994 111.709 39.6294 112.547 39.0893C113.385 38.5268 113.986 37.7955 114.348 36.8954H119.412C118.664 38.9206 117.373 40.5632 115.537 41.8233C113.725 43.0834 111.607 43.7135 109.183 43.7135C106.781 43.7135 104.867 43.0497 103.439 41.7221C102.035 40.3944 101.332 38.5493 101.332 36.1866C101.332 35.4665 101.4 34.7014 101.536 33.8914C101.876 31.9787 102.567 30.3248 103.609 28.9297C104.674 27.5121 105.977 26.432 107.517 25.6894C109.081 24.9243 110.768 24.5418 112.581 24.5418ZM115.503 32.9463C115.594 32.5187 115.639 32.0912 115.639 31.6637C115.639 30.5386 115.288 29.6947 114.586 29.1322C113.884 28.5696 113 28.2884 111.935 28.2884C110.621 28.2884 109.454 28.6822 108.435 29.4697C107.415 30.2573 106.724 31.4161 106.362 32.9463H115.503Z" fill="#D9D9D9"/>
<path d="M132.498 24.5418C134.152 24.5418 135.489 24.9243 136.508 25.6894C137.551 26.432 138.196 27.422 138.445 28.6597L139.159 24.7781H143.917L140.586 43.4772H135.829L136.542 39.5619C135.84 40.822 134.855 41.8346 133.586 42.5996C132.317 43.3422 130.89 43.7135 129.304 43.7135C127.174 43.7135 125.498 43.0609 124.274 41.7558C123.051 40.4507 122.439 38.6393 122.439 36.3216C122.439 35.444 122.519 34.5777 122.677 33.7226C123.017 31.8549 123.663 30.2235 124.614 28.8284C125.566 27.4333 126.721 26.3757 128.08 25.6556C129.462 24.9131 130.935 24.5418 132.498 24.5418ZM133.484 28.6934C131.989 28.6934 130.697 29.1772 129.61 30.1448C128.522 31.1124 127.831 32.44 127.537 34.1276C127.446 34.7577 127.401 35.1965 127.401 35.444C127.401 36.7266 127.763 37.728 128.488 38.448C129.236 39.1681 130.255 39.5281 131.547 39.5281C132.997 39.5281 134.277 39.0443 135.387 38.0767C136.497 37.0867 137.199 35.7703 137.494 34.1276C137.585 33.5426 137.63 33.115 137.63 32.845C137.63 31.5624 137.245 30.5498 136.474 29.8073C135.727 29.0647 134.73 28.6934 133.484 28.6934Z" fill="#D9D9D9"/>
<path d="M154.171 18.5L149.753 43.4772H144.961L149.379 18.5H154.171Z" fill="#D9D9D9"/>
<path d="M160.513 36.9629C160.468 37.1654 160.445 37.4354 160.445 37.773C160.445 38.3805 160.603 38.8081 160.921 39.0556C161.238 39.2806 161.759 39.3931 162.484 39.3931H164.353L163.605 43.4772H161.091C159.301 43.4772 157.93 43.1172 156.979 42.3971C156.027 41.6771 155.551 40.4957 155.551 38.8531C155.551 38.2455 155.619 37.5929 155.755 36.8954L157.182 28.7947H154.566L155.279 24.7781H157.896L158.712 20.1539H163.537L162.722 24.7781H166.868L166.154 28.7947H161.974L160.513 36.9629Z" fill="#D9D9D9"/>
<path d="M182.074 24.508C183.909 24.508 185.348 25.0256 186.39 26.0607C187.432 27.0733 187.953 28.5359 187.953 30.4486C187.953 31.1011 187.885 31.8212 187.749 32.6088L185.846 43.4772H181.088L182.924 33.1488C182.992 32.6988 183.026 32.2937 183.026 31.9337C183.026 30.8086 182.708 29.9535 182.074 29.3685C181.44 28.7609 180.567 28.4571 179.457 28.4571C178.166 28.4571 177.044 28.8509 176.093 29.6385C175.164 30.4036 174.518 31.5174 174.156 32.98L172.287 43.4772H167.495L171.913 18.5H176.705L174.937 28.4909C175.685 27.2308 176.682 26.2519 177.928 25.5544C179.197 24.8568 180.579 24.508 182.074 24.508Z" fill="#D9D9D9"/>
</g>
<defs>
<clipPath id="clip0_7303_66957">
<rect width="187" height="66" fill="white" transform="translate(0.953125 0.5)"/>
</clipPath>
</defs>
</svg>
