<svg width="154" height="66" viewBox="0 0 154 66" fill="none" xmlns="http://www.w3.org/2000/svg">
<g clip-path="url(#clip0_6614_58228)">
<path d="M16.3572 22.6117H23.7234L21.0982 24.8945L12.3607 46.1386H11.3419L3.03535 24.8945L0.410156 22.6117H14.0847L11.4595 24.8945L15.2993 37.4266L19.0999 24.8945L16.3572 22.6117ZM33.3346 45.9056C31.9502 45.9056 30.5919 45.6261 29.2597 45.067C27.9536 44.4769 26.7912 43.6383 25.7725 42.5513C24.7799 41.4642 23.9832 40.1598 23.3824 38.6379C22.8077 37.116 22.5204 35.4544 22.5204 33.653C22.5204 32.038 22.7816 30.5006 23.304 29.0408C23.8265 27.55 24.5709 26.2611 25.5374 25.174C26.5039 24.087 27.6532 23.2329 28.9854 22.6117C30.3176 21.9905 31.7543 21.6799 33.2954 21.6799C34.8888 21.6799 36.3647 21.9595 37.723 22.5185C39.1074 23.0776 40.296 23.8851 41.2886 24.9411C42.2812 25.9971 43.0518 27.2705 43.6003 28.7613C44.1488 30.2521 44.4231 31.8827 44.4231 33.653C44.4231 35.3612 44.188 36.9607 43.7178 38.4516C43.2477 39.9424 42.5424 41.2468 41.602 42.3649C40.6878 43.483 39.5254 44.3527 38.1148 44.9739C36.7043 45.595 35.1109 45.9056 33.3346 45.9056ZM37.723 44.2285C38.794 44.2285 39.3295 43.4365 39.3295 41.8525C39.3295 40.8897 38.9638 39.3988 38.2324 37.38C37.5271 35.3302 36.6259 33.2182 35.5288 31.0441C34.4578 28.87 33.3477 27.0531 32.1983 25.5933C31.0751 24.1025 30.1086 23.3571 29.2989 23.3571C28.8026 23.3571 28.4108 23.559 28.1234 23.9627C27.8622 24.3665 27.7316 24.9256 27.7316 25.6399C27.7316 26.7269 28.0973 28.3109 28.8287 30.3919C29.5601 32.4728 30.4743 34.5848 31.5714 36.7278C32.6685 38.8398 33.7787 40.6257 34.9019 42.0854C36.0251 43.5141 36.9655 44.2285 37.723 44.2285ZM56.9969 45.9056C55.6908 45.9056 54.437 45.6416 53.2354 45.1136C52.0338 44.5546 50.9759 43.7626 50.0617 42.7376C49.1474 41.7127 48.4291 40.4704 47.9067 39.0106C47.4104 37.5509 47.1622 35.9669 47.1622 34.2587C47.1622 32.5815 47.4104 30.982 47.9067 29.4601C48.4291 27.9072 49.1605 26.5561 50.1008 25.407C51.0673 24.2267 52.2167 23.3105 53.5489 22.6583C54.9072 22.006 56.383 21.6799 57.9764 21.6799C60.1967 21.6799 62.4432 22.1769 64.7157 23.1707L63.1876 36.1688H63.1484C61.3461 32.1311 59.6221 29.0098 57.9764 26.8046C56.3308 24.5994 54.9202 23.4969 53.7448 23.4969C53.2485 23.4969 52.8566 23.7143 52.5693 24.1491C52.3081 24.5839 52.1775 25.2051 52.1775 26.0126C52.1775 27.814 52.5171 29.6465 53.1962 31.51C53.9015 33.3424 54.8288 35.0196 55.9781 36.5415C57.1275 38.0323 58.3944 39.228 59.7788 40.1287C61.1893 40.9984 62.5607 41.4332 63.8929 41.4332C64.3631 41.4332 64.7549 41.3711 65.0684 41.2468L65.1075 41.2934C64.2455 42.8153 63.1093 43.9645 61.6987 44.7409C60.3143 45.5174 58.747 45.9056 56.9969 45.9056Z" fill="#D9D9D9"/>
<path d="M84.8757 44.6955H86.8348V45.4409H77.0393V42.7854C74.9758 44.8663 72.9514 45.9068 70.9661 45.9068C70.3654 45.9068 69.7254 45.767 69.0462 45.4875C68.3932 45.239 67.8316 44.7421 67.3614 43.9967C66.9173 43.2202 66.6953 42.304 66.6953 41.248C66.6953 39.136 67.5965 37.3967 69.3989 36.0301C71.2274 34.6325 73.7742 33.7163 77.0393 33.2815C77.0393 30.7657 76.6345 28.8556 75.8247 27.5512C75.0149 26.2467 73.8526 25.5945 72.3375 25.5945C71.4494 25.5945 70.6658 25.7498 69.9866 26.0603C69.3074 26.3709 68.6544 26.8057 68.0275 27.3648L67.8316 27.1319C69.1899 25.3305 70.6396 23.9794 72.1808 23.0787C73.7219 22.147 75.4329 21.6811 77.3136 21.6811C79.7951 21.6811 81.6759 22.5352 82.9558 24.2434C84.2358 25.9206 84.8757 28.4363 84.8757 31.7906V44.6955ZM76.1382 42.2729L77.0393 42.1331V33.8871C74.8713 34.6325 73.7872 36.3097 73.7872 38.9186C73.7872 40.0056 73.9832 40.8442 74.375 41.4343C74.7929 41.9934 75.3806 42.2729 76.1382 42.2729ZM104.501 21.6811C106.539 21.6811 108.21 22.6594 109.516 24.6161C110.822 26.5417 111.475 29.2438 111.475 32.7224C111.475 36.9464 110.457 40.2075 108.419 42.5058C106.382 44.7731 103.417 45.9068 99.525 45.9068C98.1144 45.9068 96.4949 45.7515 94.6664 45.4409C92.8379 45.0992 91.2314 44.6644 89.847 44.1364V16.9757L87.6136 14.6929L97.6834 10.5V25.8274C98.7283 24.554 99.8515 23.5446 101.053 22.7992C102.255 22.0538 103.404 21.6811 104.501 21.6811ZM99.6033 44.975C100.674 44.975 101.523 44.183 102.15 42.599C102.777 40.984 103.091 38.5769 103.091 35.3779C103.091 32.241 102.777 29.8961 102.15 28.3431C101.549 26.7902 100.609 26.0138 99.329 26.0138C98.8327 26.0138 98.2842 26.169 97.6834 26.4796V44.2762C98.2319 44.7421 98.8719 44.975 99.6033 44.975ZM113.419 45.4409V44.6955H115.378V16.9757L113.145 14.6929L123.214 10.5V44.6955H125.173V45.4409H113.419ZM144.809 41.2014L144.848 41.248C144.012 42.7388 142.928 43.888 141.596 44.6955C140.264 45.503 138.71 45.9068 136.933 45.9068C135.575 45.9068 134.282 45.6272 133.054 45.0682C131.827 44.5091 130.743 43.7171 129.803 42.6922C128.889 41.6673 128.17 40.4249 127.648 38.9652C127.125 37.4744 126.864 35.8593 126.864 34.12C126.864 32.4429 127.099 30.8434 127.569 29.3215C128.04 27.7996 128.706 26.4796 129.568 25.3615C130.456 24.2124 131.526 23.3117 132.78 22.6594C134.06 22.0072 135.457 21.6811 136.972 21.6811C138.801 21.6811 140.29 22.2557 141.439 23.4048C142.615 24.5229 143.202 25.9361 143.202 27.6443C143.202 29.601 142.575 31.4024 141.322 33.0485C140.094 34.6636 138.318 35.9836 135.993 37.0085C137.116 38.3129 138.357 39.3689 139.715 40.1765C141.1 40.9529 142.419 41.3412 143.673 41.3412C144.091 41.3412 144.469 41.2946 144.809 41.2014ZM133.329 23.3117C132.832 23.3117 132.44 23.5601 132.153 24.0571C131.866 24.554 131.722 25.2218 131.722 26.0603C131.722 27.8928 132.088 29.7563 132.819 31.6509C133.577 33.5455 134.556 35.2381 135.758 36.729C136.777 35.176 137.286 33.2038 137.286 30.8123C137.286 29.4147 137.038 28.1257 136.541 26.9455C136.071 25.7342 135.549 24.8335 134.974 24.2434C134.4 23.6222 133.851 23.3117 133.329 23.3117ZM150.174 46.1397C149.051 46.1397 148.137 45.7359 147.431 44.9284C146.752 44.0898 146.413 42.9873 146.413 41.6207C146.413 40.2541 146.752 39.1671 147.431 38.3595C148.137 37.521 149.051 37.1017 150.174 37.1017C151.297 37.1017 152.199 37.521 152.878 38.3595C153.583 39.1671 153.936 40.2541 153.936 41.6207C153.936 42.9873 153.583 44.0898 152.878 44.9284C152.199 45.7359 151.297 46.1397 150.174 46.1397Z" fill="#D9D9D9"/>
</g>
<defs>
<clipPath id="clip0_6614_58228">
<rect width="153.526" height="66" fill="white" transform="translate(0.410156 -0.5)"/>
</clipPath>
</defs>
</svg>
