<svg width="163" height="66" viewBox="0 0 163 66" fill="none" xmlns="http://www.w3.org/2000/svg">
<g clip-path="url(#clip0_4352_80712)">
<path d="M17.091 23.7914H24.8706L22.098 26.2023L12.8701 48.6385H11.7942L3.02153 26.2023L0.249023 23.7914H14.6909L11.9184 26.2023L15.9737 39.4377L19.9876 26.2023L17.091 23.7914ZM35.0211 48.3925C33.559 48.3925 32.1245 48.0973 30.7175 47.5069C29.3382 46.8837 28.1105 45.998 27.0346 44.85C25.9863 43.7019 25.1449 42.3243 24.5104 40.717C23.9035 39.1097 23.6 37.3548 23.6 35.4523C23.6 33.7467 23.8759 32.123 24.4276 30.5813C24.9794 29.0069 25.7656 27.6456 26.7863 26.4975C27.8071 25.3495 29.0209 24.4474 30.4278 23.7914C31.8348 23.1354 33.3521 22.8074 34.9797 22.8074C36.6625 22.8074 38.2212 23.1026 39.6557 23.693C41.1179 24.2834 42.3731 25.1363 43.4214 26.2515C44.4697 27.3668 45.2835 28.7116 45.8629 30.2861C46.4422 31.8606 46.7318 33.5827 46.7318 35.4523C46.7318 37.2564 46.4836 38.9457 45.987 40.5202C45.4904 42.0946 44.7456 43.4723 43.7524 44.6532C42.7869 45.834 41.5593 46.7525 40.0695 47.4085C38.5798 48.0645 36.897 48.3925 35.0211 48.3925ZM39.6557 46.6212C40.7868 46.6212 41.3524 45.7848 41.3524 44.1119C41.3524 43.0951 40.9661 41.5206 40.1937 39.3885C39.4488 37.2236 38.4971 34.9931 37.3384 32.697C36.2074 30.4009 35.0349 28.482 33.8211 26.9404C32.6348 25.3659 31.6141 24.5787 30.7589 24.5787C30.2347 24.5787 29.8209 24.7919 29.5175 25.2183C29.2416 25.6447 29.1037 26.2351 29.1037 26.9896C29.1037 28.1376 29.4899 29.8105 30.2623 32.0082C31.0348 34.2059 32.0003 36.4364 33.159 38.6997C34.3176 40.9302 35.4901 42.8163 36.6763 44.3579C37.8626 45.8668 38.8557 46.6212 39.6557 46.6212ZM60.0112 48.3925C58.6318 48.3925 57.3077 48.1137 56.0386 47.5561C54.7696 46.9657 53.6524 46.1292 52.6868 45.0468C51.7213 43.9643 50.9626 42.6523 50.4109 41.1106C49.8867 39.5689 49.6246 37.8961 49.6246 36.092C49.6246 34.3207 49.8867 32.6314 50.4109 31.0241C50.9626 29.3841 51.7351 27.9572 52.7282 26.7436C53.7489 25.4971 54.9627 24.5295 56.3697 23.8406C57.8042 23.1518 59.3629 22.8074 61.0457 22.8074C63.3906 22.8074 65.7631 23.3322 68.1632 24.3818L66.5493 38.1093H66.508C64.6044 33.8451 62.7837 30.5485 61.0457 28.2196C59.3077 25.8907 57.818 24.7263 56.5766 24.7263C56.0524 24.7263 55.6386 24.9559 55.3352 25.4151C55.0593 25.8743 54.9214 26.5303 54.9214 27.3832C54.9214 29.2857 55.28 31.221 55.9973 33.189C56.7421 35.1243 57.7215 36.8956 58.9353 38.5029C60.1491 40.0774 61.4871 41.3402 62.9492 42.2915C64.4389 43.2099 65.8873 43.6691 67.2942 43.6691C67.7908 43.6691 68.2046 43.6035 68.5356 43.4723L68.577 43.5215C67.6666 45.1288 66.4666 46.3424 64.9769 47.1625C63.5148 47.9825 61.8595 48.3925 60.0112 48.3925Z" fill="#D9D9D9"/>
<path d="M89.4565 47.1144H91.5255V47.9017H81.1804V45.0971C79.001 47.2948 76.863 48.3937 74.7664 48.3937C74.1319 48.3937 73.456 48.2461 72.7387 47.9509C72.049 47.6884 71.4559 47.1636 70.9593 46.3764C70.4903 45.5563 70.2559 44.5887 70.2559 43.4735C70.2559 41.243 71.2076 39.4061 73.1111 37.9628C75.0422 36.4867 77.732 35.5191 81.1804 35.0599C81.1804 32.403 80.7528 30.3857 79.8976 29.008C79.0424 27.6303 77.8147 26.9415 76.2147 26.9415C75.2767 26.9415 74.4491 27.1055 73.7318 27.4335C73.0146 27.7616 72.3249 28.2208 71.6628 28.8112L71.4559 28.5652C72.8904 26.6627 74.4215 25.2358 76.0492 24.2846C77.6768 23.3006 79.4838 22.8085 81.47 22.8085C84.0908 22.8085 86.0771 23.7106 87.4289 25.5147C88.7806 27.2859 89.4565 29.9429 89.4565 33.4854V47.1144ZM80.2286 44.5559L81.1804 44.4083V35.6995C78.8906 36.4867 77.7458 38.258 77.7458 41.0133C77.7458 42.1614 77.9527 43.047 78.3665 43.6703C78.8079 44.2607 79.4286 44.5559 80.2286 44.5559ZM110.183 22.8085C112.335 22.8085 114.101 23.8418 115.48 25.9083C116.859 27.942 117.549 30.7957 117.549 34.4695C117.549 38.9305 116.473 42.3746 114.321 44.8019C112.169 47.1964 109.038 48.3937 104.928 48.3937C103.438 48.3937 101.728 48.2297 99.7966 47.9017C97.8655 47.5408 96.1689 47.0816 94.7068 46.524V17.8391L92.3481 15.4282L102.983 11V27.1875C104.086 25.8427 105.273 24.7766 106.542 23.9894C107.811 23.2021 109.024 22.8085 110.183 22.8085ZM105.011 47.4096C106.142 47.4096 107.038 46.5732 107.7 44.9003C108.362 43.1946 108.693 40.6525 108.693 37.274C108.693 33.961 108.362 31.4845 107.7 29.8444C107.066 28.2044 106.073 27.3843 104.721 27.3843C104.197 27.3843 103.617 27.5483 102.983 27.8764V46.6716C103.562 47.1636 104.238 47.4096 105.011 47.4096ZM119.601 47.9017V47.1144H121.67V17.8391L119.312 15.4282L129.947 11V47.1144H132.016V47.9017H119.601ZM152.753 43.4243L152.794 43.4735C151.911 45.0479 150.767 46.2616 149.36 47.1144C147.953 47.9673 146.311 48.3937 144.435 48.3937C143.001 48.3937 141.635 48.0985 140.339 47.508C139.042 46.9176 137.898 46.0812 136.905 44.9987C135.939 43.9163 135.181 42.6042 134.629 41.0625C134.077 39.4881 133.801 37.7824 133.801 35.9455C133.801 34.1742 134.049 32.485 134.546 30.8777C135.043 29.2704 135.746 27.8764 136.656 26.6955C137.594 25.4818 138.725 24.5306 140.049 23.8418C141.401 23.1529 142.877 22.8085 144.477 22.8085C146.408 22.8085 147.98 23.4154 149.194 24.629C150.436 25.8099 151.056 27.3023 151.056 29.1064C151.056 31.1729 150.394 33.0754 149.07 34.8139C147.773 36.5195 145.897 37.9136 143.442 38.9961C144.628 40.3737 145.939 41.489 147.373 42.3418C148.836 43.1618 150.229 43.5719 151.553 43.5719C151.994 43.5719 152.394 43.5227 152.753 43.4243ZM140.628 24.5306C140.104 24.5306 139.69 24.793 139.387 25.3178C139.083 25.8427 138.932 26.5479 138.932 27.4335C138.932 29.3688 139.318 31.3369 140.09 33.3378C140.89 35.3387 141.925 37.1264 143.194 38.7008C144.27 37.0608 144.808 34.9779 144.808 32.4522C144.808 30.9761 144.546 29.6148 144.022 28.3684C143.525 27.0891 142.973 26.1379 142.366 25.5147C141.759 24.8586 141.18 24.5306 140.628 24.5306ZM158.419 48.6397C157.233 48.6397 156.267 48.2133 155.523 47.3604C154.805 46.4748 154.447 45.3103 154.447 43.8671C154.447 42.4238 154.805 41.2758 155.523 40.4229C156.267 39.5373 157.233 39.0945 158.419 39.0945C159.606 39.0945 160.557 39.5373 161.275 40.4229C162.019 41.2758 162.392 42.4238 162.392 43.8671C162.392 45.3103 162.019 46.4748 161.275 47.3604C160.557 48.2133 159.606 48.6397 158.419 48.6397Z" fill="#D9D9D9"/>
</g>
<defs>
<clipPath id="clip0_4352_80712">
<rect width="162.141" height="66" fill="white" transform="translate(0.249023)"/>
</clipPath>
</defs>
</svg>
