<svg preserveAspectRatio="none" width="100%" height="100%" overflow="visible" style="display: block;" viewBox="0 0 21 21" fill="none" xmlns="http://www.w3.org/2000/svg">
<g id="uil:linkedin">
<path id="Vector" d="M17.9112 1.75H3.08875C2.92213 1.74769 2.75669 1.77822 2.60187 1.83985C2.44705 1.90148 2.30589 1.99301 2.18645 2.1092C2.06701 2.22539 1.97162 2.36397 1.90574 2.51703C1.83986 2.67009 1.80478 2.83463 1.8025 3.00125V17.9988C1.80478 18.1654 1.83986 18.3299 1.90574 18.483C1.97162 18.636 2.06701 18.7746 2.18645 18.8908C2.30589 19.007 2.44705 19.0985 2.60187 19.1602C2.75669 19.2218 2.92213 19.2523 3.08875 19.25H17.9112C18.0779 19.2523 18.2433 19.2218 18.3981 19.1602C18.5529 19.0985 18.6941 19.007 18.8136 18.8908C18.933 18.7746 19.0284 18.636 19.0943 18.483C19.1601 18.3299 19.1952 18.1654 19.1975 17.9988V3.00125C19.1952 2.83463 19.1601 2.67009 19.0943 2.51703C19.0284 2.36397 18.933 2.22539 18.8136 2.1092C18.6941 1.99301 18.5529 1.90148 18.3981 1.83985C18.2433 1.77822 18.0779 1.74769 17.9112 1.75ZM7.07875 16.3975H4.45375V8.5225H7.07875V16.3975ZM5.76625 7.42C5.40423 7.42 5.05704 7.27619 4.80105 7.0202C4.54506 6.76421 4.40125 6.41702 4.40125 6.055C4.40125 5.69298 4.54506 5.34579 4.80105 5.0898C5.05704 4.83381 5.40423 4.69 5.76625 4.69C5.95848 4.6682 6.15315 4.68725 6.33752 4.7459C6.52188 4.80455 6.69177 4.90148 6.83607 5.03034C6.98038 5.1592 7.09584 5.31709 7.17489 5.49367C7.25394 5.67025 7.2948 5.86153 7.2948 6.055C7.2948 6.24847 7.25394 6.43975 7.17489 6.61633C7.09584 6.79291 6.98038 6.9508 6.83607 7.07966C6.69177 7.20852 6.52188 7.30545 6.33752 7.3641C6.15315 7.42275 5.95848 7.4418 5.76625 7.42ZM16.5463 16.3975H13.9213V12.1713C13.9213 11.1125 13.545 10.4213 12.5912 10.4213C12.2961 10.4234 12.0087 10.516 11.7677 10.6865C11.5268 10.8571 11.3439 11.0973 11.2438 11.375C11.1753 11.5807 11.1456 11.7973 11.1563 12.0138V16.3888H8.53125V8.51375H11.1563V9.625C11.3947 9.21122 11.7415 8.87033 12.1594 8.63905C12.5772 8.40777 13.0502 8.29487 13.5275 8.3125C15.2775 8.3125 16.5463 9.44125 16.5463 11.865V16.3975Z" fill="var(--fill-0, #D1D1D1)"/>
</g>
</svg>
