<svg preserveAspectRatio="none" width="100%" height="100%" overflow="visible" style="display: block;" viewBox="0 0 39.542 15" fill="none" xmlns="http://www.w3.org/2000/svg">
<g id="Frame 1000007641">
<path id="Vector" d="M1.80148 14.8376C1.50248 14.7616 1.22418 14.6186 0.989586 14.418C0.766489 14.2197 0.596291 13.9684 0.497392 13.6894C0.380093 13.3412 0.324893 12.9746 0.334093 12.608C0.334093 12.5296 0.338693 12.4397 0.345593 12.3382C0.352493 12.2368 0.363993 12.1284 0.382393 12.0154C0.398493 11.9001 0.414592 11.7849 0.432992 11.6696C0.451392 11.552 0.469792 11.4482 0.490492 11.356L1.41278 6.74454H0.269694C0.230594 6.74685 0.191495 6.73993 0.156995 6.72609C0.122495 6.70995 0.0902957 6.6869 0.067296 6.65462C0.0143965 6.54855 -0.00860325 6.42866 0.00289663 6.31106C0.00519661 6.15197 0.0189965 5.99518 0.0396963 5.83839C0.064996 5.64471 0.104096 5.45333 0.159295 5.26657C0.207595 5.09595 0.283494 4.93224 0.382393 4.78467C0.414592 4.72472 0.462892 4.6763 0.520391 4.64172C0.577891 4.60713 0.64459 4.58638 0.711289 4.58407H1.84748L2.27067 2.47433C2.28447 2.40286 2.32127 2.33599 2.37187 2.28296C2.44087 2.21609 2.52367 2.16767 2.61567 2.14C2.75367 2.0962 2.89627 2.06622 3.03887 2.05469C3.21136 2.03625 3.42986 2.02933 3.69206 2.02933C3.90366 2.02702 4.11755 2.03625 4.32915 2.05469C4.46485 2.06392 4.59595 2.09389 4.72245 2.14C4.79835 2.16537 4.86275 2.21609 4.90875 2.28296C4.94095 2.3406 4.95015 2.40977 4.93405 2.47433L4.50855 4.58407H6.55553C6.60383 4.57946 6.65213 4.58638 6.69583 4.60713C6.73953 4.62788 6.77633 4.66016 6.80163 4.70167C6.84993 4.80773 6.87063 4.92532 6.86603 5.04061C6.86373 5.13053 6.85683 5.22046 6.84533 5.31038C6.83153 5.42105 6.81083 5.53865 6.78783 5.66546C6.76253 5.79458 6.72803 5.9214 6.68663 6.04821C6.64753 6.1658 6.59923 6.28109 6.54403 6.39176C6.49803 6.4863 6.43593 6.57161 6.36463 6.64539C6.33703 6.67537 6.30253 6.70073 6.26573 6.71687C6.22893 6.73301 6.18753 6.74454 6.14613 6.74454H4.07845L3.18606 11.1854C3.16536 11.2914 3.14466 11.4159 3.12856 11.5612C3.11246 11.6788 3.10326 11.7964 3.10326 11.9163C3.09406 12.027 3.10556 12.1399 3.14006 12.246C3.17456 12.3521 3.22976 12.4512 3.30336 12.5365C3.48276 12.6818 3.71046 12.7533 3.94046 12.7348C4.08535 12.7371 4.23025 12.7256 4.37515 12.6979C4.48095 12.6772 4.58675 12.6495 4.68795 12.6126C4.77535 12.5803 4.85125 12.5527 4.91565 12.5273C4.97315 12.5042 5.03294 12.4904 5.09504 12.4904C5.12264 12.4904 5.15254 12.4973 5.17554 12.5112C5.20084 12.525 5.22154 12.5457 5.23764 12.5688C5.28364 12.6472 5.30434 12.7371 5.29514 12.8294C5.29284 12.9815 5.27904 13.1337 5.25144 13.2859C5.22384 13.4519 5.18704 13.6179 5.13874 13.7793C5.09734 13.9269 5.04444 14.0721 4.98465 14.2128C4.94325 14.3212 4.88115 14.418 4.80525 14.5033C4.72245 14.5794 4.62355 14.6417 4.52005 14.6832C4.37515 14.7454 4.22335 14.7961 4.06925 14.8307C3.88526 14.8745 3.69896 14.9091 3.51266 14.9322C3.31486 14.9575 3.11706 14.9691 2.91927 14.9691C2.54207 14.9737 2.16717 14.9299 1.80148 14.8376ZM13.0346 14.8007C12.8966 14.7938 12.7632 14.7685 12.6321 14.727C12.5493 14.7016 12.478 14.6532 12.4205 14.5886C12.3722 14.5264 12.3377 14.4549 12.3193 14.3765L10.0814 9.39382L9.0832 14.3972C9.0625 14.4664 9.0234 14.531 8.9705 14.5817C8.90151 14.644 8.81641 14.6901 8.72671 14.7131C8.58641 14.7546 8.44151 14.78 8.29661 14.7915C8.11951 14.81 7.90331 14.8169 7.65032 14.8169C7.43642 14.8192 7.22252 14.81 7.00862 14.7915C6.87753 14.78 6.74643 14.7569 6.62223 14.7177C6.54633 14.6993 6.48193 14.6532 6.43593 14.5909C6.40373 14.5356 6.39453 14.4687 6.41063 14.4065L9.2097 0.456823C9.2235 0.385346 9.258 0.320786 9.304 0.265448C9.3707 0.198582 9.4558 0.147856 9.5478 0.122493C9.6881 0.0786843 9.833 0.0464041 9.97789 0.0325697C10.1941 0.00951247 10.4126 -0.00201616 10.6311 0.000289564C10.845 -0.00201616 11.0589 0.00951247 11.2728 0.0325697C11.4062 0.0464041 11.535 0.0763785 11.6592 0.122493C11.7351 0.147856 11.7972 0.198582 11.8386 0.265448C11.8662 0.325397 11.8754 0.392263 11.8593 0.456823L10.2033 8.75744L13.7476 4.97144C13.8143 4.89074 13.8902 4.81695 13.9753 4.7547C14.0696 4.68783 14.1754 4.63941 14.288 4.61174C14.4398 4.57255 14.5939 4.54718 14.7503 4.53796C14.9297 4.52413 15.1551 4.51721 15.4242 4.51721C15.6864 4.51721 15.9072 4.52413 16.082 4.53796C16.2223 4.54488 16.3603 4.56793 16.496 4.60713C16.5742 4.62788 16.6478 4.66939 16.703 4.72934C16.7421 4.77776 16.7628 4.8377 16.7605 4.89996C16.7513 5.04291 16.7007 5.18126 16.6179 5.29654C16.4776 5.50406 16.3189 5.69543 16.1441 5.87528L12.8069 9.0226L14.9826 13.581C15.0447 13.724 15.0953 13.8738 15.1321 14.026C15.1574 14.1229 15.1712 14.222 15.1758 14.3235C15.1781 14.4042 15.1528 14.4803 15.1068 14.5448C15.0447 14.6186 14.9642 14.6739 14.8745 14.7016C14.7296 14.75 14.5801 14.7823 14.4283 14.7915C14.2421 14.81 14.0052 14.8169 13.7223 14.8169C13.4371 14.8169 13.2094 14.8123 13.0346 14.8007Z" fill="var(--fill-0, white)"/>
<path id="Vector_2" d="M26.4472 14.7889C25.9826 14.669 25.5502 14.4477 25.1799 14.1433C24.8349 13.8459 24.5727 13.4655 24.4163 13.0366C24.2369 12.5247 24.1495 11.9852 24.161 11.441C24.1633 10.9315 24.2093 10.4219 24.2944 9.91925C24.3841 9.37279 24.529 8.83786 24.7245 8.31907C24.9246 7.78876 25.1799 7.2838 25.4881 6.80882C25.7963 6.33154 26.1781 5.90267 26.6174 5.54298C27.0774 5.16945 27.5949 4.87432 28.1515 4.66911C28.7886 4.44084 29.4602 4.33017 30.1364 4.3417C30.6975 4.33017 31.2587 4.40626 31.7969 4.56996C32.2132 4.69678 32.5996 4.89968 32.9377 5.17406C33.2206 5.40694 33.4483 5.69977 33.6001 6.03179C33.7427 6.34307 33.8163 6.6797 33.8186 7.02326C33.8255 7.50285 33.7082 7.97552 33.4736 8.39516C33.2137 8.83095 32.8434 9.19295 32.4018 9.44427C31.8291 9.77168 31.2035 9.99764 30.5549 10.1175C29.6764 10.2859 28.7817 10.3643 27.887 10.3504H26.9095C26.8819 10.5141 26.8589 10.6732 26.8451 10.8323C26.8313 10.9914 26.8244 11.1367 26.8244 11.2727C26.806 11.5079 26.8382 11.7431 26.9141 11.9644C26.99 12.1858 27.1119 12.391 27.2706 12.5639C27.6731 12.889 28.186 13.0435 28.7035 12.9974C29.1244 13.002 29.5453 12.9674 29.9616 12.8959C30.2905 12.8383 30.617 12.7645 30.9367 12.6746C31.215 12.5939 31.4473 12.5201 31.6313 12.4532C31.7601 12.4002 31.8958 12.3656 32.0338 12.3518C32.0683 12.3495 32.1028 12.3541 32.1327 12.3656C32.1649 12.3795 32.1925 12.3979 32.2132 12.4256C32.2546 12.4971 32.273 12.5778 32.2661 12.6585C32.2638 12.7968 32.2546 12.9351 32.2339 13.0712C32.2132 13.2257 32.1833 13.3801 32.1442 13.5323C32.1074 13.6799 32.0568 13.8228 31.9947 13.9612C31.9464 14.0765 31.8774 14.1802 31.7877 14.2679C31.6497 14.3831 31.491 14.4684 31.3208 14.5215C31.054 14.6183 30.7803 14.6967 30.5043 14.7544C30.1502 14.8304 29.7937 14.8881 29.4326 14.9296C29.0324 14.9757 28.6276 14.9988 28.2228 14.9988C27.6248 15.0103 27.0268 14.9388 26.4472 14.7889ZM28.9404 6.42838C28.6644 6.55289 28.416 6.72582 28.2021 6.94025C27.9836 7.16621 27.7973 7.42215 27.6547 7.70345C27.5006 8.00319 27.3764 8.31677 27.289 8.64188H28.1791C28.6552 8.64879 29.1313 8.6119 29.6005 8.5312C29.9225 8.47817 30.233 8.37441 30.5227 8.22915C30.7297 8.12539 30.9045 7.97091 31.031 7.77953C31.1345 7.61352 31.1897 7.41984 31.1897 7.22385C31.192 7.08782 31.1621 6.95408 31.1046 6.83188C31.0471 6.70968 30.962 6.60131 30.8562 6.5183C30.5756 6.31309 30.233 6.21395 29.8857 6.237C29.5637 6.23009 29.2394 6.29465 28.9404 6.42838ZM34.6903 14.7913C34.5592 14.782 34.4281 14.7544 34.3039 14.7129C34.228 14.6898 34.1636 14.6437 34.1176 14.5814C34.0854 14.5261 34.0762 14.4592 34.0923 14.397L36.8822 0.461157C36.896 0.389679 36.9305 0.325119 36.9765 0.269782C37.0455 0.202916 37.1283 0.15219 37.2203 0.126827C37.3606 0.0830178 37.5032 0.0530433 37.6504 0.0369032C37.8666 0.013846 38.0851 0.00231733 38.3036 0.00462306C38.5175 0.00231733 38.7314 0.013846 38.9453 0.0369032C39.0787 0.0507376 39.2098 0.080712 39.334 0.126827C39.4099 0.15219 39.472 0.202916 39.5134 0.269782C39.541 0.329731 39.5502 0.396597 39.5341 0.461157L36.7534 14.397C36.7396 14.4684 36.7028 14.533 36.6522 14.5814C36.5832 14.6414 36.5027 14.6875 36.4153 14.7106C36.2773 14.7521 36.1347 14.7774 35.9898 14.7889C35.8127 14.8074 35.5965 14.8143 35.3435 14.8143C35.125 14.8212 34.9065 14.812 34.6903 14.7913ZM21.0859 14.7982C20.9525 14.7913 20.8214 14.7682 20.6927 14.7336C20.6191 14.7175 20.5524 14.676 20.5064 14.616C20.4742 14.563 20.4512 14.5076 20.4374 14.4454L19.292 11.1067L16.8977 14.4592C16.8586 14.5192 16.8103 14.5745 16.7551 14.6229C16.6769 14.6806 16.5849 14.7175 16.4906 14.7336C16.3296 14.7659 16.1663 14.7889 16.003 14.7982C15.8006 14.812 15.5315 14.8189 15.1911 14.8189C14.8875 14.8189 14.6437 14.8097 14.4597 14.7936C14.3217 14.7866 14.1837 14.7544 14.0572 14.699C14.0204 14.6852 13.9905 14.6621 13.9698 14.6275C13.9491 14.5953 13.9399 14.5561 13.9445 14.5169C13.9675 14.4108 14.0135 14.3117 14.0779 14.2263L17.6774 9.52036L16.0973 5.15331C16.0582 5.05417 16.0444 4.9458 16.0536 4.83973C16.0628 4.79592 16.0835 4.75442 16.1111 4.71983C16.1387 4.68525 16.1755 4.65758 16.2169 4.64144C16.3572 4.58149 16.509 4.54691 16.6631 4.53999C16.8655 4.52154 17.1323 4.51463 17.4635 4.51463C17.7533 4.51463 17.981 4.51924 18.1466 4.53077C18.2754 4.53538 18.4019 4.55152 18.5284 4.57919C18.5997 4.59071 18.6618 4.6253 18.7078 4.68064C18.7423 4.73367 18.7699 4.79362 18.786 4.85587L19.89 8.01472L22.1715 4.85587C22.2129 4.80054 22.2589 4.75212 22.3095 4.70831C22.3785 4.65758 22.459 4.62069 22.5441 4.60224C22.6798 4.56996 22.8178 4.54921 22.9581 4.53768C23.1283 4.52385 23.3583 4.51693 23.6481 4.51693C23.9724 4.51693 24.2323 4.52385 24.4278 4.53768C24.575 4.54229 24.7199 4.56996 24.8579 4.62299C24.9499 4.6645 24.9913 4.72445 24.9798 4.79823C24.9522 4.9089 24.8993 5.01266 24.8257 5.10028L21.5367 9.49961L23.2295 14.2056C23.264 14.3001 23.2709 14.4039 23.2502 14.503C23.2341 14.5468 23.2065 14.5883 23.1743 14.6206C23.1398 14.6529 23.0984 14.6783 23.0547 14.6944C22.9029 14.7544 22.7442 14.7866 22.5809 14.7959C22.3762 14.8143 22.1094 14.8212 21.7851 14.8212C21.4884 14.8212 21.2561 14.8143 21.0859 14.7982Z" fill="var(--fill-0, white)"/>
</g>
</svg>
