<svg preserveAspectRatio="none" width="100%" height="100%" overflow="visible" style="display: block;" viewBox="0 0 17.2661 17.2314" fill="none" xmlns="http://www.w3.org/2000/svg">
<g id="Frame 1000007634">
<path id="Vector" d="M0.290985 5.7185H3.87137V17.2314H0.290985V5.7185ZM2.07485 0C3.22614 0 4.14971 0.923562 4.14971 2.07485C4.14971 3.21349 3.22614 4.14971 2.07485 4.14971C0.923562 4.14971 0 3.21349 0 2.07485C0 0.923562 0.923562 0 2.07485 0Z" fill="var(--fill-0, #A5A9AC)"/>
<path id="Vector_2" d="M6.10742 5.71726H9.53599V7.28605H9.58659C10.0674 6.37514 11.2313 5.42627 12.9772 5.42627C16.5955 5.42627 17.2661 7.80476 17.2661 10.9044V17.2175H13.6857V11.6255C13.6857 10.2845 13.6604 8.5765 11.8259 8.5765C9.96614 8.5765 9.67516 10.0314 9.67516 11.537V17.2302H6.10742V5.71726Z" fill="var(--fill-0, #A5A9AC)"/>
</g>
</svg>
