<svg width="321" height="44" viewBox="0 0 321 44" fill="none" xmlns="http://www.w3.org/2000/svg">
<mask id="path-1-inside-1_442_9456" fill="white">
<path d="M320.713 43.7913L0.712921 43.7912L0.712925 0.838305L320.713 0.838333L320.713 43.7913Z"/>
</mask>
<path d="M320.713 43.7913L0.712921 43.7912L0.712925 0.838305L320.713 0.838333L320.713 43.7913Z" fill="white"/>
<path d="M0.712925 1.83718L320.713 1.8372L320.713 -0.160538L0.712925 -0.160566L0.712925 1.83718Z" fill="#D1D1D1" mask="url(#path-1-inside-1_442_9456)"/>
<path d="M301.002 29.1442L295.837 25.9164L290.673 29.1442V14.9417C290.673 14.7705 290.741 14.6063 290.862 14.4852C290.983 14.3642 291.147 14.2961 291.318 14.2961H300.356C300.528 14.2961 300.692 14.3642 300.813 14.4852C300.934 14.6063 301.002 14.7705 301.002 14.9417V29.1442Z" stroke="#A5A9AC" stroke-width="1.29114" stroke-linecap="round" stroke-linejoin="round"/>
<path d="M25.5472 28.4984C25.5472 28.4984 17.4775 23.9794 17.4775 18.4921C17.4775 17.522 17.8136 16.5819 18.4286 15.8318C19.0436 15.0816 19.8996 14.5676 20.8508 14.3774C21.802 14.1871 22.7898 14.3323 23.646 14.7883C24.5022 15.2442 25.1741 15.9827 25.5472 16.8782V16.8782C25.9203 15.9827 26.5921 15.2442 27.4483 14.7883C28.3045 14.3323 29.2923 14.1871 30.2435 14.3774C31.1947 14.5676 32.0507 15.0816 32.6657 15.8318C33.2807 16.5819 33.6168 17.522 33.6168 18.4921C33.6168 23.9794 25.5472 28.4984 25.5472 28.4984Z" stroke="#A5A9AC" stroke-width="1.29114" stroke-linecap="round" stroke-linejoin="round"/>
<path d="M48.1284 25.3513C47.1672 23.7297 46.831 21.8129 47.1829 19.961C47.5348 18.109 48.5506 16.4491 50.0395 15.293C51.5285 14.1369 53.3883 13.564 55.2697 13.6819C57.1511 13.7998 58.9248 14.6004 60.2578 15.9334C61.5908 17.2664 62.3914 19.04 62.5093 20.9215C62.6272 22.8029 62.0543 24.6627 60.8982 26.1516C59.742 27.6406 58.0822 28.6564 56.2302 29.0082C54.3782 29.3601 52.4615 29.0239 50.8398 28.0627V28.0627L48.1607 28.8213C48.0509 28.8534 47.9346 28.8554 47.8238 28.827C47.713 28.7987 47.6118 28.7411 47.531 28.6602C47.4501 28.5793 47.3925 28.4782 47.3641 28.3674C47.3358 28.2566 47.3378 28.1402 47.3699 28.0305L48.1284 25.3513Z" stroke="#A5A9AC" stroke-width="1.29114" stroke-linecap="round" stroke-linejoin="round"/>
</svg>
