<svg preserveAspectRatio="none" width="100%" height="100%" overflow="visible" style="display: block;" viewBox="0 0 119.107 31.7001" fill="none" xmlns="http://www.w3.org/2000/svg">
<g id="Container">
<g id="Group">
<path id="Vector" d="M35.6535 3.6265L26.845 22.0214H35.8303L44.6614 3.6265L35.6535 3.6265Z" fill="var(--fill-0, #D9D9D9)"/>
<path id="Vector_2" d="M24.4616 3.6265L20.1446 12.6405L15.8276 3.6265L6.82087 3.6265L7.74053 5.5417L0 22.0214H8.98533L12.3317 15.1071L15.6519 22.0214H15.6531H24.6373H24.6384L33.4695 3.6265L24.4616 3.6265Z" fill="var(--fill-0, #D9D9D9)"/>
<path id="Vector_3" d="M119.107 6.96716L109.768 0L107.914 3.82806L90.8038 3.82806L84.149 3.82806H84.0838C83.4631 3.82806 82.8674 3.98795 82.3453 4.27365C81.6203 4.65457 81.021 5.26241 80.6603 6.02896L78.8411 10.1051H78.8423L76.0655 16.0094L75.6016 16.95C74.4137 19.3555 76.1818 22.1607 78.8838 22.1607H94.2047C95.7011 22.1607 97.061 21.3024 97.6935 19.9598L99.6146 15.9812H99.5885L102.181 10.7611H92.9908L90.4905 15.9812H84.7684L87.6864 10.1051L104.873 10.1051L103.035 13.9002L119.107 6.96716Z" fill="var(--fill-0, #D9D9D9)"/>
<path id="Vector_4" d="M57.8652 9.9026C59.7188 9.61691 60.5696 9.52168 61.4169 7.76401L63.4116 3.62439L46.9101 3.62439L43.9517 9.9026H47.1604L45.4172 13.5426L41.3577 22.0205H50.343L55.1288 12.0518C55.1276 12.0518 56.0105 10.1895 57.8652 9.9026Z" fill="var(--fill-0, #D9D9D9)"/>
<path id="Vector_5" d="M75.0696 14.2053L75.8398 12.6064L78.238 7.56148C79.7866 3.62408 76.1792 3.59117 76.1792 3.59117H74.6353L65.542 3.59117L63.0892 8.67722H67.4122C67.4122 8.67722 68.4184 8.75952 68.3508 9.60719C68.282 10.4549 67.551 10.5254 67.551 10.5254L64.7695 10.6383C64.7695 10.6383 63.412 10.5948 60.3077 10.8781C57.773 11.252 56.3182 14.0807 56.3182 14.0807L52.3844 21.9873H61.3697L63.4048 17.6148C63.4096 17.6054 63.4143 17.596 63.4179 17.5866C63.6493 17.0317 63.7774 16.8107 64.0848 16.8107C64.3589 16.8107 64.6117 17.5972 64.6117 17.5972L66.0428 21.9873H75.0388L72.7545 16.5802C74.15 15.9994 75.0696 14.2053 75.0696 14.2053Z" fill="var(--fill-0, #D9D9D9)"/>
</g>
<g id="Group_2">
<path id="Vector_6" d="M104.498 29.4066C104.095 29.4066 103.71 29.4066 103.313 29.4066C103.388 29.1808 103.461 28.9643 103.532 28.747C103.548 28.698 103.585 28.7024 103.623 28.7024C104.498 28.7027 105.373 28.7034 106.248 28.7013C106.33 28.7009 106.325 28.7305 106.305 28.7899C106.028 29.6084 105.757 30.4287 105.476 31.2457C105.383 31.5151 105.138 31.5897 104.889 31.643C104.711 31.6812 104.53 31.6935 104.348 31.6935C103.236 31.6938 102.124 31.6942 101.012 31.6931C100.817 31.6927 100.623 31.6819 100.436 31.6214C100.203 31.5458 100.144 31.4309 100.221 31.201C100.732 29.6775 101.246 28.1552 101.753 26.6302C101.836 26.382 102.012 26.2585 102.247 26.1925C102.459 26.1327 102.679 26.1147 102.899 26.1144C104.011 26.1133 105.123 26.1133 106.235 26.1144C106.433 26.1147 106.632 26.1273 106.823 26.1889C107.054 26.2639 107.113 26.3817 107.038 26.609C106.914 26.9811 106.787 27.3525 106.666 27.7257C106.641 27.8021 106.606 27.8262 106.524 27.8255C106.068 27.8208 105.611 27.8194 105.155 27.8259C105.036 27.8277 105.037 27.7927 105.07 27.7005C105.161 27.4487 105.241 27.1933 105.329 26.9411C105.353 26.872 105.363 26.8403 105.266 26.841C104.631 26.8449 103.997 26.8442 103.363 26.8413C103.296 26.841 103.269 26.8644 103.249 26.9242C102.807 28.2427 102.365 29.5612 101.92 30.8782C101.892 30.9604 101.914 30.9661 101.986 30.9658C102.62 30.964 103.254 30.9647 103.888 30.9647C103.934 30.9647 103.975 30.9705 103.996 30.9089C104.158 30.4135 104.325 29.9193 104.498 29.4066Z" fill="var(--fill-0, #D9D9D9)"/>
<path id="Vector_7" d="M109.865 26.1135C109.321 27.7335 108.779 29.3431 108.234 30.9646C108.59 30.9646 108.932 30.9646 109.273 30.9646C109.607 30.9646 109.941 30.961 110.275 30.9671C110.362 30.9685 110.396 30.943 110.424 30.8612C110.937 29.3233 111.456 27.7865 111.969 26.2486C112.003 26.1459 112.046 26.1081 112.161 26.1103C112.638 26.1186 113.115 26.1139 113.608 26.1139C113.51 26.405 113.415 26.6849 113.321 26.9648C112.853 28.3582 112.381 29.7502 111.92 31.1458C111.832 31.412 111.655 31.5514 111.398 31.6188C111.189 31.6739 110.974 31.693 110.758 31.693C109.625 31.6944 108.492 31.6944 107.359 31.693C107.16 31.6926 106.961 31.68 106.771 31.617C106.548 31.5431 106.489 31.425 106.564 31.2016C107.123 29.5355 107.683 27.8697 108.242 26.2039C108.259 26.1524 108.271 26.1106 108.348 26.1114C108.847 26.116 109.346 26.1135 109.865 26.1135Z" fill="var(--fill-0, #D9D9D9)"/>
<path id="Vector_8" d="M93.5717 31.6951C94.0619 31.0009 94.5378 30.3262 95.0138 29.6518C95.829 28.4969 96.6445 27.3423 97.4575 26.1863C97.5055 26.1182 97.5521 26.0868 97.6401 26.0879C98.1218 26.093 98.6036 26.0922 99.0854 26.0883C99.1723 26.0876 99.2086 26.0987 99.2112 26.2C99.2512 27.7609 99.2959 29.3218 99.3399 30.8828C99.3468 31.1213 99.353 31.3597 99.3646 31.5982C99.3683 31.671 99.3548 31.6987 99.2715 31.6976C98.8065 31.693 98.3418 31.694 97.8768 31.6969C97.8048 31.6973 97.784 31.6782 97.7873 31.6069C97.8004 31.3183 97.804 31.0294 97.8197 30.7408C97.8244 30.6558 97.7997 30.6378 97.7179 30.6382C97.1176 30.6414 96.5176 30.6414 95.9173 30.6382C95.8435 30.6378 95.805 30.6645 95.7682 30.7228C95.5813 31.0211 95.3905 31.3169 95.2007 31.613C95.1748 31.6533 95.1574 31.6973 95.0898 31.6969C94.5916 31.6937 94.0935 31.6951 93.5717 31.6951ZM96.2795 29.9105C96.7947 29.9105 97.2881 29.909 97.7815 29.9119C97.8626 29.9123 97.8422 29.8593 97.8433 29.819C97.8673 29.0405 97.8906 28.262 97.9128 27.4839C97.9135 27.4633 97.9309 27.4338 97.8906 27.4205C97.3586 28.2429 96.826 29.0661 96.2795 29.9105Z" fill="var(--fill-0, #D9D9D9)"/>
<path id="Vector_9" d="M93.3256 30.9626C93.2471 31.1939 93.1711 31.4061 93.1049 31.6208C93.0857 31.6828 93.0569 31.7022 92.9984 31.6954C92.986 31.6939 92.973 31.695 92.9602 31.695C91.5691 31.695 90.1779 31.6939 88.7868 31.6972C88.6777 31.6975 88.6654 31.6752 88.6992 31.575C89.3035 29.7868 89.9042 27.9971 90.5052 26.2074C90.5245 26.1494 90.5419 26.1119 90.6223 26.1123C92.0345 26.1159 93.4467 26.1148 94.859 26.1152C94.8713 26.1152 94.884 26.1181 94.911 26.1213C94.8353 26.3493 94.7608 26.5745 94.6859 26.7993C94.6626 26.8695 94.6023 26.8432 94.5568 26.8432C93.7071 26.8447 92.857 26.8461 92.0072 26.8418C91.9105 26.8414 91.8727 26.8681 91.8429 26.9607C91.6894 27.4376 91.5262 27.9117 91.3666 28.3869C91.3575 28.4139 91.3367 28.4388 91.3517 28.4762C92.1392 28.4762 92.929 28.4762 93.7336 28.4762C93.6547 28.71 93.5765 28.9337 93.5045 29.1592C93.4802 29.236 93.4227 29.205 93.3798 29.2054C92.661 29.2075 91.9421 29.209 91.2233 29.2043C91.1244 29.2036 91.0771 29.2266 91.0451 29.3253C90.8753 29.8498 90.6972 30.3718 90.5219 30.8945C90.5154 30.9136 90.5103 30.9334 90.5019 30.9623C91.4429 30.9626 92.3756 30.9626 93.3256 30.9626Z" fill="var(--fill-0, #D9D9D9)"/>
<path id="Vector_10" d="M115.466 28.4791C116.274 28.4791 117.063 28.4791 117.865 28.4791C117.787 28.7093 117.708 28.929 117.64 29.1517C117.616 29.227 117.565 29.2061 117.52 29.2061C116.933 29.2072 116.345 29.2068 115.757 29.2068C115.605 29.2068 115.453 29.2086 115.301 29.2057C115.249 29.2046 115.216 29.214 115.198 29.2702C115.014 29.8253 114.826 30.3794 114.641 30.9338C114.639 30.941 114.643 30.95 114.645 30.9644C115.578 30.9644 116.511 30.9644 117.456 30.9644C117.377 31.1982 117.3 31.4223 117.228 31.6478C117.206 31.7159 117.155 31.6932 117.114 31.6936C116.589 31.695 116.065 31.6946 115.541 31.6946C114.666 31.6946 113.79 31.6932 112.915 31.6968C112.816 31.6972 112.795 31.6853 112.829 31.583C113.435 29.7904 114.036 27.9967 114.638 26.2031C114.656 26.1501 114.67 26.1123 114.746 26.1123C116.162 26.1155 117.578 26.1148 118.995 26.1152C119.007 26.1152 119.018 26.1199 119.042 26.1249C118.966 26.3533 118.892 26.5784 118.816 26.8029C118.793 26.8713 118.73 26.8429 118.685 26.8429C117.835 26.8443 116.985 26.8454 116.135 26.8418C116.046 26.8414 116.006 26.8652 115.978 26.9524C115.814 27.4567 115.642 27.9578 115.466 28.4791Z" fill="var(--fill-0, #D9D9D9)"/>
<path id="Vector_11" d="M85.584 30.9434C86.453 30.9434 87.3092 30.9434 88.1783 30.9434C88.0979 31.1822 88.0183 31.4103 87.9463 31.6401C87.9208 31.7211 87.8612 31.6948 87.8125 31.6948C86.9166 31.6963 86.0206 31.6959 85.1247 31.6959C84.6688 31.6959 84.2128 31.6959 83.7412 31.6959C83.8358 31.4124 83.9256 31.1397 84.0172 30.8677C84.5375 29.3208 85.0593 27.7747 85.5774 26.2271C85.6054 26.1431 85.6385 26.1125 85.7316 26.1136C86.2174 26.119 86.7035 26.1161 87.2067 26.1161C86.6653 27.7271 86.1265 29.3298 85.584 30.9434Z" fill="var(--fill-0, #D9D9D9)"/>
</g>
<path id="Vector_12" d="M83.1264 28.1451L35.6256 28.3755L82.5283 29.59L83.1264 28.1451Z" fill="var(--fill-0, #D9D9D9)"/>
<g id="Container_2">
<g id="Group_3">
<path id="Vector_13" d="M35.6535 3.62703L26.845 22.0219H35.8303L44.6614 3.62703L35.6535 3.62703Z" fill="var(--fill-0, #D9D9D9)"/>
<path id="Vector_14" d="M24.4616 3.62703L20.1446 12.6411L15.8276 3.62703L6.82087 3.62703L7.74053 5.54223L0 22.0219H8.98533L12.3317 15.1077L15.6519 22.0219H15.6531H24.6373H24.6384L33.4695 3.62703L24.4616 3.62703Z" fill="var(--fill-0, #D9D9D9)"/>
<path id="Vector_15" d="M119.107 6.96811L109.768 0.000950028L107.914 3.82901L90.8038 3.82901L84.149 3.82901H84.0838C83.4631 3.82901 82.8674 3.9889 82.3453 4.2746C81.6203 4.65552 81.021 5.26336 80.6603 6.02991L78.8411 10.106H78.8423L76.0655 16.0104L75.6016 16.9509C74.4137 19.3564 76.1818 22.1616 78.8838 22.1616H94.2047C95.7011 22.1616 97.061 21.3034 97.6935 19.9607L99.6146 15.9822H99.5885L102.181 10.7621H92.9908L90.4905 15.9822H84.7684L87.6864 10.106L104.873 10.106L103.035 13.9012L119.107 6.96811Z" fill="var(--fill-0, #D9D9D9)"/>
<path id="Vector_16" d="M57.8652 9.90355C59.7188 9.61786 60.5696 9.52263 61.4169 7.76496L63.4116 3.62534L46.9101 3.62534L43.9517 9.90355H47.1604L45.4172 13.5435L41.3577 22.0214H50.343L55.1288 12.0527C55.1276 12.0527 56.0105 10.1904 57.8652 9.90355Z" fill="var(--fill-0, #D9D9D9)"/>
<path id="Vector_17" d="M75.0696 14.2063L75.8398 12.6073L78.238 7.56243C79.7866 3.62503 76.1792 3.59212 76.1792 3.59212H74.6353L65.542 3.59212L63.0892 8.67817H67.4122C67.4122 8.67817 68.4184 8.76047 68.3508 9.60814C68.282 10.4558 67.551 10.5264 67.551 10.5264L64.7695 10.6392C64.7695 10.6392 63.412 10.5957 60.3077 10.8791C57.773 11.2529 56.3182 14.0817 56.3182 14.0817L52.3844 21.9882H61.3697L63.4048 17.6158C63.4096 17.6064 63.4143 17.597 63.4179 17.5876C63.6493 17.0327 63.7774 16.8116 64.0848 16.8116C64.3589 16.8116 64.6117 17.5982 64.6117 17.5982L66.0428 21.9882H75.0388L72.7545 16.5812C74.15 16.0004 75.0696 14.2063 75.0696 14.2063Z" fill="var(--fill-0, #D9D9D9)"/>
</g>
<g id="Group_4">
<path id="Vector_18" d="M104.498 29.4077C104.095 29.4077 103.71 29.4077 103.313 29.4077C103.388 29.1818 103.461 28.9653 103.532 28.7481C103.548 28.6991 103.585 28.7034 103.623 28.7034C104.498 28.7038 105.373 28.7045 106.248 28.7023C106.33 28.702 106.325 28.7315 106.305 28.791C106.028 29.6094 105.757 30.4297 105.476 31.2467C105.383 31.5162 105.138 31.5908 104.889 31.6441C104.711 31.6823 104.53 31.6945 104.348 31.6945C103.236 31.6949 102.124 31.6952 101.012 31.6942C100.817 31.6938 100.623 31.683 100.436 31.6225C100.203 31.5468 100.144 31.4319 100.221 31.2021C100.732 29.6786 101.246 28.1562 101.753 26.6313C101.836 26.3831 102.012 26.2595 102.247 26.1936C102.459 26.1338 102.679 26.1158 102.899 26.1154C104.011 26.1143 105.123 26.1143 106.235 26.1154C106.433 26.1158 106.632 26.1284 106.823 26.19C107.054 26.2649 107.113 26.3827 107.038 26.61C106.914 26.9822 106.787 27.3536 106.666 27.7268C106.641 27.8032 106.606 27.8273 106.524 27.8266C106.068 27.8219 105.611 27.8205 105.155 27.8269C105.036 27.8287 105.037 27.7938 105.07 27.7016C105.161 27.4498 105.241 27.1944 105.329 26.9422C105.353 26.873 105.363 26.8413 105.266 26.842C104.631 26.846 103.997 26.8453 103.363 26.8424C103.296 26.842 103.269 26.8655 103.249 26.9253C102.807 28.2437 102.365 29.5622 101.92 30.8793C101.892 30.9614 101.914 30.9672 101.986 30.9668C102.62 30.965 103.254 30.9658 103.888 30.9658C103.934 30.9658 103.975 30.9715 103.996 30.9099C104.158 30.4146 104.325 29.9203 104.498 29.4077Z" fill="var(--fill-0, #D9D9D9)"/>
<path id="Vector_19" d="M109.865 26.1146C109.321 27.7346 108.779 29.3442 108.234 30.9656C108.59 30.9656 108.932 30.9656 109.273 30.9656C109.607 30.9656 109.941 30.962 110.275 30.9681C110.362 30.9696 110.396 30.944 110.424 30.8622C110.937 29.3244 111.456 27.7876 111.969 26.2497C112.003 26.147 112.046 26.1092 112.161 26.1113C112.638 26.1196 113.115 26.1149 113.608 26.1149C113.51 26.406 113.415 26.6859 113.321 26.9658C112.853 28.3593 112.381 29.7512 111.92 31.1468C111.832 31.413 111.655 31.5525 111.398 31.6198C111.189 31.6749 110.974 31.694 110.758 31.694C109.625 31.6955 108.492 31.6955 107.359 31.694C107.16 31.6937 106.961 31.6811 106.771 31.618C106.548 31.5442 106.489 31.426 106.564 31.2027C107.123 29.5365 107.683 27.8708 108.242 26.205C108.259 26.1535 108.271 26.1117 108.348 26.1124C108.847 26.1171 109.346 26.1146 109.865 26.1146Z" fill="var(--fill-0, #D9D9D9)"/>
<path id="Vector_20" d="M93.5717 31.6962C94.0619 31.002 94.5378 30.3273 95.0138 29.6529C95.829 28.4979 96.6445 27.3434 97.4575 26.1873C97.5055 26.1192 97.5521 26.0879 97.6401 26.089C98.1218 26.094 98.6036 26.0933 99.0854 26.0893C99.1723 26.0886 99.2086 26.0998 99.2112 26.201C99.2512 27.762 99.2959 29.3229 99.3399 30.8838C99.3468 31.1223 99.353 31.3608 99.3646 31.5993C99.3683 31.672 99.3548 31.6998 99.2715 31.6987C98.8065 31.694 98.3418 31.6951 97.8768 31.698C97.8048 31.6983 97.784 31.6793 97.7873 31.6079C97.8004 31.3194 97.804 31.0305 97.8197 30.7419C97.8244 30.6569 97.7997 30.6389 97.7179 30.6392C97.1176 30.6425 96.5176 30.6425 95.9173 30.6392C95.8435 30.6389 95.805 30.6655 95.7682 30.7239C95.5813 31.0222 95.3905 31.3179 95.2007 31.614C95.1748 31.6544 95.1574 31.6983 95.0898 31.698C94.5916 31.6947 94.0935 31.6962 93.5717 31.6962ZM96.2795 29.9115C96.7947 29.9115 97.2881 29.9101 97.7815 29.913C97.8626 29.9133 97.8422 29.8604 97.8433 29.82C97.8673 29.0415 97.8906 28.2631 97.9128 27.4849C97.9135 27.4644 97.9309 27.4349 97.8906 27.4215C97.3586 28.244 96.826 29.0671 96.2795 29.9115Z" fill="var(--fill-0, #D9D9D9)"/>
<path id="Vector_21" d="M93.3256 30.9637C93.2471 31.195 93.1711 31.4071 93.1049 31.6218C93.0857 31.6838 93.0569 31.7033 92.9984 31.6964C92.986 31.695 92.973 31.6961 92.9602 31.6961C91.5691 31.6961 90.1779 31.695 88.7868 31.6982C88.6777 31.6986 88.6654 31.6762 88.6992 31.5761C89.3035 29.7878 89.9042 27.9982 90.5052 26.2085C90.5245 26.1505 90.5419 26.113 90.6223 26.1134C92.0345 26.117 93.4467 26.1159 94.859 26.1162C94.8713 26.1162 94.884 26.1191 94.911 26.1224C94.8353 26.3504 94.7608 26.5755 94.6859 26.8003C94.6626 26.8706 94.6023 26.8443 94.5568 26.8443C93.7071 26.8457 92.857 26.8472 92.0072 26.8428C91.9105 26.8425 91.8727 26.8691 91.8429 26.9617C91.6894 27.4387 91.5262 27.9128 91.3666 28.3879C91.3575 28.415 91.3367 28.4398 91.3517 28.4773C92.1392 28.4773 92.929 28.4773 93.7336 28.4773C93.6547 28.7111 93.5765 28.9348 93.5045 29.1603C93.4802 29.237 93.4227 29.2061 93.3798 29.2064C92.661 29.2086 91.9421 29.21 91.2233 29.2053C91.1244 29.2046 91.0771 29.2277 91.0451 29.3264C90.8753 29.8509 90.6972 30.3729 90.5219 30.8956C90.5154 30.9147 90.5103 30.9345 90.5019 30.9633C91.4429 30.9637 92.3756 30.9637 93.3256 30.9637Z" fill="var(--fill-0, #D9D9D9)"/>
<path id="Vector_22" d="M115.466 28.4802C116.274 28.4802 117.063 28.4802 117.865 28.4802C117.787 28.7104 117.708 28.9301 117.64 29.1527C117.616 29.228 117.565 29.2071 117.52 29.2071C116.933 29.2082 116.345 29.2078 115.757 29.2078C115.605 29.2078 115.453 29.2097 115.301 29.2068C115.249 29.2057 115.216 29.2151 115.198 29.2713C115.014 29.8264 114.826 30.3804 114.641 30.9349C114.639 30.9421 114.643 30.9511 114.645 30.9655C115.578 30.9655 116.511 30.9655 117.456 30.9655C117.377 31.1993 117.3 31.4234 117.228 31.6489C117.206 31.7169 117.155 31.6943 117.114 31.6946C116.589 31.6961 116.065 31.6957 115.541 31.6957C114.666 31.6957 113.79 31.6943 112.915 31.6979C112.816 31.6982 112.795 31.6863 112.829 31.584C113.435 29.7914 114.036 27.9978 114.638 26.2041C114.656 26.1512 114.67 26.1134 114.746 26.1134C116.162 26.1166 117.578 26.1159 118.995 26.1162C119.007 26.1162 119.018 26.1209 119.042 26.126C118.966 26.3544 118.892 26.5795 118.816 26.8039C118.793 26.8724 118.73 26.8439 118.685 26.8439C117.835 26.8454 116.985 26.8464 116.135 26.8428C116.046 26.8425 116.006 26.8663 115.978 26.9534C115.814 27.4578 115.642 27.9589 115.466 28.4802Z" fill="var(--fill-0, #D9D9D9)"/>
<path id="Vector_23" d="M85.584 30.9444C86.453 30.9444 87.3092 30.9444 88.1783 30.9444C88.0979 31.1833 88.0183 31.4113 87.9463 31.6411C87.9208 31.7222 87.8612 31.6959 87.8125 31.6959C86.9166 31.6973 86.0206 31.697 85.1247 31.697C84.6688 31.697 84.2128 31.697 83.7412 31.697C83.8358 31.4135 83.9256 31.1408 84.0172 30.8688C84.5375 29.3219 85.0593 27.7757 85.5774 26.2281C85.6054 26.1442 85.6385 26.1136 85.7316 26.1146C86.2174 26.12 86.7035 26.1172 87.2067 26.1172C86.6653 27.7282 86.1265 29.3309 85.584 30.9444Z" fill="var(--fill-0, #D9D9D9)"/>
</g>
<path id="Vector_24" d="M83.1264 28.146L35.6256 28.3764L82.5283 29.5909L83.1264 28.146Z" fill="var(--fill-0, #D9D9D9)"/>
</g>
</g>
</svg>
