<svg preserveAspectRatio="none" width="100%" height="100%" overflow="visible" style="display: block;" viewBox="0 0 142.435 26" fill="none" xmlns="http://www.w3.org/2000/svg">
<g id="Logo client s 40">
<path id="image 7 (Traced)" fill-rule="evenodd" clip-rule="evenodd" d="M8.80711 0.23499C5.52829 1.00794 2.37719 3.83485 0.834984 7.38639C0.155947 8.95041 0.00587735 9.94397 0.000200965 12.9162C-0.00583019 16.0793 0.119405 16.8313 0.986472 18.8353C2.19838 21.6356 4.89147 24.4843 7.15386 25.3591C9.30734 26.1916 13.0658 26.1771 15.2739 25.3273C17.7871 24.3599 21.1029 20.5028 21.916 17.6002C22.2488 16.4126 22.5212 14.5555 22.5212 13.4738V11.5072H16.1183H9.71568L9.82105 14.0233L9.92677 16.5394L13.0569 16.7407L16.1871 16.942L15.1856 18.0233C11.3615 22.1526 5.51551 19.0459 5.49778 12.8751C5.48784 9.34775 7.63493 6.71127 10.7984 6.36626C12.3768 6.19436 12.8391 6.33083 14.3959 7.42907C16.0058 8.56474 16.4606 8.68913 18.9969 8.68913C20.5451 8.68913 21.8117 8.59131 21.8117 8.47174C21.8117 7.75998 20.2624 5.03855 19.097 3.7024C16.5965 0.83604 12.3399 -0.597944 8.80711 0.23499ZM50.3635 0.251496C46.9932 0.773238 43.6807 3.49869 41.9628 7.16296C41.276 8.62834 41.1525 9.50154 41.1501 12.9162C41.1462 17.6864 41.8092 19.6421 44.4204 22.5632C46.7338 25.1514 49.196 26.1276 52.8544 25.9074C58.9852 25.5382 63.2074 20.7721 63.5877 13.791C64.044 5.41456 57.8666 -0.910345 50.3635 0.251496ZM109.346 0.271223C105.364 0.980968 101.594 4.61786 100.409 8.89083C99.03 13.8679 100.37 19.4412 103.784 22.9247C105.919 25.1018 108.088 26 111.215 26C114.355 26 116.512 25.1006 118.683 22.8865C121.183 20.3349 122.288 17.7206 122.491 13.8715C122.727 9.40572 121.978 7.14364 119.229 4.02365C116.366 0.776055 113.219 -0.418796 109.346 0.271223ZM23.9403 13.1175V25.5974H26.5884H29.2364L29.3379 21.6723L29.4393 17.7471L31.5229 21.6723L33.6065 25.5974H36.9769C39.6164 25.5974 40.2738 25.4883 40.0095 25.0942C38.309 22.5592 35.2931 17.5467 35.2931 17.256C35.2931 17.0547 35.8462 16.5905 36.522 16.225C37.1979 15.8591 38.1955 14.7971 38.7394 13.8651C39.6178 12.3586 39.7278 11.8043 39.7278 8.89042C39.7278 6.00635 39.6128 5.41416 38.7756 3.97816C37.1354 1.16615 35.6408 0.637569 29.3272 0.637569H23.9403V13.1175ZM65.1555 10.1988C65.2654 19.1453 65.3233 19.8667 66.0548 21.4203C67.6747 24.8599 70.101 26.2202 74.045 25.8998C77.2352 25.6409 79.0473 24.3072 80.4381 21.1948L81.4137 19.0116V9.82481V0.637569H78.7529H76.0921V8.83044C76.0921 17.2987 75.8409 19.252 74.6591 19.9698C73.6158 20.6034 72.2446 20.4263 71.48 19.5587C70.8127 18.8015 70.7705 18.217 70.7705 9.69558V0.637569H67.9042H65.0377L65.1555 10.1988ZM83.1875 13.1175V25.5974H85.8484H88.5092V21.5716V17.5459L90.5491 17.5434C94.916 17.5386 97.6542 15.5386 98.6582 11.6199C99.5671 8.07158 98.8994 4.84129 96.7892 2.57558C95.2144 0.884752 94.1557 0.637569 88.4861 0.637569H83.1875V13.1175ZM123.632 13.1175V25.5974H126.47H129.308V18.6839V11.7709L133.337 18.5833L137.366 25.3961L139.901 25.5145L142.435 25.6328V13.1352V0.637569H139.605H136.775L136.678 7.34452L136.581 14.0515L132.678 7.35338L128.776 0.655282L126.204 0.646426L123.632 0.637569V13.1175ZM33.3773 6.58164C33.9102 6.98542 34.5835 8.49429 34.5835 9.28495C34.5835 9.64163 34.1915 10.378 33.7126 10.9214C33.0183 11.7097 32.4794 11.9098 31.0518 11.9098H29.2619V9.09171V6.27366L31.1245 6.2797C32.1491 6.28333 33.1627 6.419 33.3773 6.58164ZM55.4528 7.36143C55.975 7.80024 56.7754 8.7769 57.2316 9.53133C58.4066 11.4754 58.2164 15.2089 56.8374 17.2604C54.9362 20.0893 51.37 20.6727 48.9235 18.5551C45.2619 15.386 45.8551 9.01683 50.0162 6.82198C51.4367 6.07278 54.2518 6.35217 55.4528 7.36143ZM92.6873 6.90048C93.2723 7.36505 93.476 7.93108 93.476 9.09171C93.476 11.0929 92.5273 11.9098 90.2039 11.9098H88.5092V9.09171V6.27366H90.2039C91.1639 6.27366 92.241 6.54541 92.6873 6.90048ZM113.875 7.07882C117.733 9.19799 118.004 15.7987 114.359 18.8615C111.969 20.8708 107.898 19.6916 106.344 16.5394C103.395 10.5591 108.512 4.13235 113.875 7.07882Z" fill="var(--fill-0, #D9D9D9)"/>
</g>
</svg>
