<svg preserveAspectRatio="none" width="100%" height="100%" overflow="visible" style="display: block;" viewBox="0 0 78.7606 31.0002" fill="none" xmlns="http://www.w3.org/2000/svg">
<g id="Container">
<path id="Vector" fill-rule="evenodd" clip-rule="evenodd" d="M15.6939 24.3478H17.9121V0.0584077H13.4095V8.1711C13.1693 7.82495 12.8746 7.5329 12.5253 7.29493C12.1761 7.05696 11.7995 6.86766 11.3956 6.72705C11.0026 6.5756 10.5933 6.46743 10.1676 6.40252C9.75285 6.33764 9.34898 6.30518 8.95602 6.30518C7.7226 6.30518 6.56012 6.53774 5.46859 7.00288C4.38796 7.46799 3.43833 8.1116 2.61968 8.93369C1.81195 9.75577 1.1734 10.7293 0.704039 11.8543C0.23468 12.9792 0 14.1961 0 15.505C0 16.8246 0.23468 18.047 0.704039 19.1719C1.1734 20.286 1.81195 21.2541 2.61968 22.0762C3.43833 22.8875 4.38796 23.5258 5.46859 23.9908C6.56012 24.4452 7.7226 24.6724 8.95602 24.6724C9.52363 24.6724 10.0803 24.602 10.6261 24.4613C11.1828 24.3208 11.7231 24.1315 12.247 23.8936C12.628 23.7126 12.9945 23.5116 13.3466 23.2907V24.3478H15.6939ZM13.4095 15.505C13.4095 14.8992 13.2894 14.3151 13.0493 13.7526C12.8201 13.1793 12.5035 12.6764 12.0996 12.2437C11.6958 11.8002 11.221 11.4486 10.6752 11.189C10.1403 10.9186 9.5673 10.7834 8.95602 10.7834C8.34477 10.7834 7.76626 10.8916 7.2205 11.1079C6.68564 11.3242 6.21629 11.6379 5.81242 12.049C5.41946 12.4492 5.10838 12.9414 4.87916 13.5255C4.64993 14.1096 4.53533 14.7694 4.53533 15.505C4.53533 16.1432 4.64993 16.7489 4.87916 17.3222C5.10838 17.8955 5.41946 18.3986 5.81242 18.8311C6.21629 19.2638 6.68564 19.6046 7.2205 19.8535C7.76626 20.1022 8.34477 20.2266 8.95602 20.2266C9.5673 20.2266 10.1403 20.0967 10.6752 19.8372C11.221 19.5668 11.6958 19.2152 12.0996 18.7825C12.5035 18.339 12.8201 17.836 13.0493 17.2735C13.2894 16.7002 13.4095 16.1107 13.4095 15.505ZM24.16 24.3478H19.6574V6.97042H24.16V24.3478ZM38.0214 13.7526C38.2615 14.3151 38.3816 14.8992 38.3816 15.505C38.3816 16.1107 38.2615 16.7002 38.0214 17.2735C37.7922 17.836 37.4756 18.339 37.0718 18.7825C36.6678 19.2152 36.193 19.5668 35.6472 19.8372C35.1125 20.0967 34.5394 20.2266 33.9281 20.2266C33.3169 20.2266 32.7383 20.1184 32.1927 19.9021C31.6577 19.6749 31.1885 19.3557 30.7845 18.9448C30.3915 18.5338 30.0805 18.0415 29.8513 17.4682C29.6221 16.8841 29.5074 16.2297 29.5074 15.505C29.5074 14.7478 29.6221 14.0771 29.8513 13.493C30.0805 12.8981 30.3915 12.4005 30.7845 12.0003C31.1885 11.6001 31.6577 11.2972 32.1927 11.0917C32.7383 10.8861 33.3169 10.7834 33.9281 10.7834C34.5394 10.7834 35.1125 10.9186 35.6472 11.189C36.193 11.4486 36.6678 11.8002 37.0718 12.2437C37.4756 12.6764 37.7922 13.1793 38.0214 13.7526ZM42.1802 25.5972C42.6495 24.5264 42.8842 23.3798 42.8842 22.1573V7.00288H41.8035L41.8031 7.00341H38.4957V7.81726C38.0949 7.54783 37.6747 7.30882 37.2356 7.10022C36.7115 6.85143 36.1713 6.65673 35.6146 6.51611C35.0579 6.3755 34.4957 6.30518 33.9281 6.30518C32.6948 6.30518 31.5322 6.53774 30.4408 7.00288C29.3601 7.46799 28.4104 8.1116 27.5917 8.93369C26.7841 9.75577 26.1456 10.7293 25.6761 11.8543C25.2068 12.9792 24.9721 14.1961 24.9721 15.505C24.9721 16.9328 25.2068 18.2146 25.6761 19.3504C26.1456 20.4862 26.7841 21.4489 27.5917 22.2384C28.4104 23.0174 29.3601 23.6177 30.4408 24.0396C31.5322 24.4613 32.6948 24.6724 33.9281 24.6724C34.2993 24.6724 34.6976 24.6506 35.1234 24.6073C35.56 24.5642 35.9747 24.4831 36.3676 24.3641C36.7716 24.2559 37.1373 24.1152 37.4648 23.9422C37.7922 23.7584 38.0432 23.5258 38.2178 23.2445C38.0978 23.688 37.934 24.1098 37.7266 24.5101C37.5302 24.9103 37.2627 25.2619 36.9243 25.5646C36.586 25.8784 36.1713 26.1218 35.68 26.2948C35.1888 26.4788 34.594 26.5707 33.8953 26.5707L30.6791 26.5382V30.9677L33.9281 31.0003C35.1615 31.0003 36.3186 30.7676 37.3991 30.3026C38.4907 29.8374 39.4403 29.2046 40.2481 28.4042C41.0668 27.6037 41.7107 26.668 42.1802 25.5972ZM49.0993 24.3478H44.6295V9.23001L44.6247 9.22852V6.97072H44.6295V6.97042H45.7102L45.7104 6.97072H49.2543V7.31674C49.3756 7.26335 49.4985 7.21279 49.6233 7.16512C50.5401 6.80816 51.4953 6.62969 52.4886 6.62969C53.5582 6.62969 54.568 6.83521 55.5176 7.24625C56.4672 7.64648 57.2968 8.20355 58.0063 8.91747C58.7158 9.62057 59.2725 10.4481 59.6763 11.4C60.091 12.341 60.2985 13.347 60.2985 14.4179V24.3478H55.8286V14.4179C55.8286 13.9636 55.7414 13.5363 55.5666 13.1361C55.392 12.725 55.1519 12.3681 54.8462 12.0652C54.5407 11.7623 54.1859 11.5243 53.7821 11.3513C53.3781 11.1782 52.947 11.0917 52.4886 11.0917C52.0191 11.0917 51.5771 11.1782 51.1623 11.3513C50.7476 11.5243 50.3873 11.7623 50.0817 12.0652C49.776 12.3681 49.5359 12.725 49.3613 13.1361C49.1867 13.5363 49.0993 13.9636 49.0993 14.4179V24.3478ZM78.0566 19.1395C78.5261 18.0145 78.7606 16.803 78.7606 15.505C78.7606 14.1204 78.5261 12.8656 78.0566 11.7407C77.5873 10.6049 76.9488 9.6368 76.141 8.83634C75.3333 8.02508 74.3835 7.40311 73.2921 6.97042C72.2114 6.52692 71.049 6.30518 69.8046 6.30518C68.5712 6.30518 67.4088 6.53774 66.3172 7.00288C65.2367 7.46799 64.2869 8.1116 63.4683 8.93369C62.6605 9.74495 62.022 10.7131 61.5527 11.838C61.0833 12.963 60.8485 14.1853 60.8485 15.505C60.8485 16.803 61.0833 18.0145 61.5527 19.1395C62.022 20.2536 62.6605 21.2217 63.4683 22.0438C64.2869 22.8551 65.2367 23.4987 66.3172 23.9745C67.4088 24.4398 68.5712 24.6724 69.8046 24.6724C71.049 24.6724 72.2114 24.4398 73.2921 23.9745C74.3835 23.4987 75.3333 22.8551 76.141 22.0438C76.9488 21.2217 77.5873 20.2536 78.0566 19.1395ZM73.8979 13.5742C74.1381 14.1474 74.2582 14.791 74.2582 15.505C74.2582 16.2081 74.1381 16.8517 73.8979 17.4358C73.6687 18.02 73.3521 18.5175 72.9482 18.9285C72.5444 19.3396 72.0696 19.6587 71.5238 19.8858C70.9889 20.1129 70.4158 20.2266 69.8046 20.2266C69.1933 20.2266 68.6149 20.1076 68.0691 19.8695C67.5342 19.6208 67.0649 19.2855 66.6611 18.8636C66.2681 18.4417 65.9571 17.9441 65.7277 17.3709C65.4985 16.7976 65.384 16.1756 65.384 15.505C65.384 14.791 65.4985 14.1474 65.7277 13.5742C65.9571 12.99 66.2681 12.4925 66.6611 12.0814C67.0649 11.6596 67.5342 11.3405 68.0691 11.1241C68.6149 10.897 69.1933 10.7834 69.8046 10.7834C70.4158 10.7834 70.9889 10.897 71.5238 11.1241C72.0696 11.3405 72.5444 11.6596 72.9482 12.0814C73.3521 12.4925 73.6687 12.99 73.8979 13.5742Z" fill="var(--fill-0, #D9D9D9)"/>
<path id="Vector_2" d="M21.9404 4.59567C23.221 4.59567 24.2592 3.56689 24.2592 2.29783C24.2592 1.02878 23.221 0 21.9404 0C20.6598 0 19.6217 1.02878 19.6217 2.29783C19.6217 3.56689 20.6598 4.59567 21.9404 4.59567Z" fill="var(--fill-0, #D9D9D9)"/>
</g>
</svg>
