<svg preserveAspectRatio="none" width="100%" height="100%" overflow="visible" style="display: block;" viewBox="0 0 129 30" fill="none" xmlns="http://www.w3.org/2000/svg">
<g id="knowles 1" clip-path="url(#clip0_13915_45848)">
<path id="Vector" d="M1.08408 14.9556C5.05718 10.1167 8.99115 5.23891 12.9531 0.388916C12.9587 10.1778 12.9587 19.9667 12.9531 29.7556C8.82911 25.7056 4.59337 21.7556 0.53086 17.639C-0.352051 16.8278 0.452627 15.6445 1.08408 14.9556Z" fill="var(--fill-0, #D9D9D9)"/>
<path id="Vector_2" d="M19.8264 9.789C23.3189 9.79455 26.817 9.789 30.3152 9.79455C28.9461 11.8835 27.3982 13.8612 26.1073 16.0057C25.515 16.839 26.2861 17.689 26.7947 18.3279C29.4825 21.5223 32.148 24.739 34.8136 27.9501C31.0025 27.9557 27.1914 27.9501 23.3804 27.9501C20.6758 24.6779 17.9656 21.4001 15.2609 18.1279C14.6966 17.5279 14.1936 16.5723 14.8251 15.8335C16.4177 13.7612 18.1835 11.8223 19.8264 9.789Z" fill="var(--fill-0, #D9D9D9)"/>
<path id="Vector_3" d="M43.095 9.789C44.0729 9.79455 45.0508 9.79455 46.0287 9.789C46.0343 15.8557 46.0343 21.9223 46.0287 27.989C45.0508 27.9835 44.0729 27.9835 43.095 27.989C43.095 21.9223 43.095 15.8557 43.095 9.789Z" fill="var(--fill-0, #D9D9D9)"/>
<path id="Vector_4" d="M101.317 27.989C101.317 21.9223 101.317 15.8557 101.317 9.789C102.295 9.79455 103.272 9.79455 104.251 9.789C104.251 15.8557 104.251 21.9223 104.251 27.989C103.272 27.9835 102.295 27.9835 101.317 27.989Z" fill="var(--fill-0, #D9D9D9)"/>
<path id="Vector_5" d="M51.9744 15.0278C53.1199 15.0334 54.2599 15.0334 55.4054 15.0334C53.6005 17.1945 51.8012 19.3501 49.9962 21.5C51.8012 23.6611 53.6117 25.8223 55.4167 27.9834C54.271 27.9834 53.1255 27.9834 51.98 27.9889C50.175 25.8223 48.3589 23.6667 46.554 21.5C48.3645 19.3501 50.1639 17.1834 51.9744 15.0278Z" fill="var(--fill-0, #D9D9D9)"/>
<path id="Vector_6" d="M56.4057 15.0278C57.3222 15.0389 58.2386 15.0445 59.155 15.0389C59.183 15.5722 59.2333 16.6333 59.2556 17.1667C60.9711 14.2889 66.2016 13.7278 67.3918 17.3C68.1406 20.8 67.5874 24.4333 67.755 27.9889C66.7771 27.9833 65.7992 27.9833 64.8213 27.9889C64.6537 24.8445 65.179 21.6166 64.5251 18.5278C63.3908 16.1889 59.9653 17.6056 59.5015 19.75C59.1047 22.4667 59.4512 25.2445 59.3339 27.9889C58.3616 27.9833 57.3837 27.9833 56.4057 27.9889C56.4057 23.6667 56.4057 19.35 56.4057 15.0278Z" fill="var(--fill-0, #D9D9D9)"/>
<path id="Vector_7" d="M73.3431 15.0501C76.1319 14.239 79.6073 15.2278 80.9147 17.9612C82.1557 20.5612 82.0161 23.989 80.1105 26.2445C77.5117 29.1834 71.9852 28.8723 69.9567 25.4334C67.8724 21.9335 68.9844 16.1723 73.3431 15.0501ZM73.9075 17.4056C70.8508 19.2501 71.3034 25.8723 75.4163 25.939C78.4229 25.8557 79.1268 22.1001 78.4614 19.7723C78.1431 17.739 75.7849 16.389 73.9075 17.4056Z" fill="var(--fill-0, #D9D9D9)"/>
<path id="Vector_8" d="M81.479 15.0334C82.4793 15.0389 83.4796 15.0389 84.4799 15.0278C85.2848 18.2611 86.0837 21.4945 86.8887 24.7278C87.7713 21.4945 88.6434 18.2611 89.5147 15.0278C90.4984 15.0389 91.4761 15.0389 92.4598 15.0334C93.3258 18.2667 94.2032 21.4945 95.0805 24.7223C95.8794 21.4945 96.6791 18.2667 97.4667 15.0334C98.4783 15.0445 99.4952 15.0389 100.507 15.0278C99.2719 19.3501 98.031 23.6667 96.7847 27.9889C95.7957 27.9834 94.8067 27.9834 93.8177 27.9889C92.8792 24.7889 91.94 21.5945 90.9955 18.4C90.0571 21.5945 89.1292 24.7945 88.196 27.9889C87.2017 27.9834 86.212 27.9834 85.223 27.9889C83.9775 23.6667 82.7252 19.3501 81.479 15.0334Z" fill="var(--fill-0, #D9D9D9)"/>
<path id="Vector_9" d="M106.374 18.0056C108.023 14.3945 113.717 13.5889 116.192 16.7556C117.45 18.2779 117.511 20.3112 117.606 22.1834C114.577 22.1945 111.549 22.1834 108.52 22.1945C108.76 23.4112 109.062 24.8112 110.269 25.4445C112.185 26.5334 114.477 25.7001 116.192 24.6278C116.55 25.2501 116.913 25.8723 117.271 26.4945C114.762 28.3167 111.113 28.9334 108.363 27.2834C105.373 25.3334 104.966 21.0334 106.374 18.0056ZM108.448 20.1501C110.57 20.1834 112.694 20.1834 114.818 20.1557C114.65 18.539 113.638 16.7112 111.744 16.8834C109.85 16.7723 108.816 18.5612 108.448 20.1501Z" fill="var(--fill-0, #D9D9D9)"/>
<path id="Vector_10" d="M120.193 15.6668C122.708 14.0834 126.027 14.7335 128.329 16.4001C127.944 17.0501 127.552 17.7001 127.167 18.3557C125.748 17.5279 124.133 16.6001 122.429 17.1446C121.44 17.2946 121.031 18.7334 121.925 19.2723C123.647 20.2779 125.826 20.3557 127.368 21.6778C129.123 23.2556 128.514 26.3001 126.547 27.4279C123.77 29.0389 120.171 28.139 117.874 26.0834C118.366 25.4612 118.858 24.8446 119.349 24.2223C120.897 25.6001 124.641 27.2001 125.541 24.4612C124.708 22.5889 122.121 22.8279 120.551 21.8168C118.076 20.7946 117.958 17.0001 120.193 15.6668Z" fill="var(--fill-0, #D9D9D9)"/>
</g>
<defs>
<clipPath id="clip0_13915_45848">
<rect width="129" height="30" fill="white"/>
</clipPath>
</defs>
</svg>
