<svg width="16" height="16" viewBox="0 0 16 16" fill="none" xmlns="http://www.w3.org/2000/svg">
<g clip-path="url(#clip0_4561_275264)">
<mask id="mask0_4561_275264" style="mask-type:luminance" maskUnits="userSpaceOnUse" x="0" y="0" width="16" height="16">
<path d="M16 0H0V16H16V0Z" fill="white"/>
</mask>
<g mask="url(#mask0_4561_275264)">
<path d="M16 0H0V16H16V0Z" fill="#090909"/>
<path d="M3.73888 9.36568L3.73783 9.36423C3.53351 9.08696 3.42646 8.70171 3.42807 8.19767V4.62402V4.52402H3.32807H1.9999H1.8999V4.62402V8.243C1.90032 9.18973 2.14478 9.9361 2.6468 10.4674C3.14633 10.996 3.78455 11.2595 4.55326 11.2595C5.3221 11.2595 5.95914 10.9983 6.45594 10.4738C6.95542 9.94646 7.19799 9.19792 7.19799 8.24364V4.62402V4.52402H7.09799H5.77044H5.67044V4.62402V8.19735C5.67044 8.70257 5.56373 9.08804 5.36166 9.36455L5.36053 9.36613C5.26882 9.49689 5.14744 9.60216 5.00729 9.67291C4.86715 9.74366 4.71241 9.7778 4.55667 9.77249H4.54981C4.393 9.77791 4.23716 9.7438 4.09586 9.67301C3.95455 9.60221 3.83192 9.49677 3.73888 9.36568ZM1.9999 4.72402V4.62402H2.0999H3.22807H3.32807V4.72402H3.22807H1.9999Z" fill="white" stroke="white" stroke-width="0.2"/>
<path d="M12.3345 4.45078H12.2828L12.2529 4.49299L7.62834 11.0234L7.5166 11.1812H7.70995H9.31312H9.36626L9.39599 11.1372L10.8546 8.97739L12.3132 11.1372L12.343 11.1812H12.3961H13.9993H14.1909L14.0813 11.024L11.7782 7.721L13.9579 4.60814L14.0681 4.45078H13.876H12.3345Z" fill="white" stroke="white" stroke-width="0.2"/>
<path d="M7.89551 4.45078H7.70605L7.81295 4.6072L9.41612 6.95307L9.49755 7.07223L9.58051 6.95413L10.3821 5.8129L10.4229 5.75484L10.3816 5.69717L9.5183 4.49253L9.48839 4.45078H9.43703H7.89551Z" fill="white" stroke="white" stroke-width="0.2"/>
</g>
</g>
<defs>
<clipPath id="clip0_4561_275264">
<rect width="16" height="16" fill="white"/>
</clipPath>
</defs>
</svg>
