<svg preserveAspectRatio="none" width="100%" height="100%" overflow="visible" style="display: block;" viewBox="0 0 46 46" fill="none" xmlns="http://www.w3.org/2000/svg">
<g id="Frame 1618868757">
<rect x="1" y="1" width="44" height="44" rx="22" fill="var(--fill-0, #D9D9D9)"/>
<rect x="1" y="1" width="44" height="44" rx="22" stroke="var(--stroke-0, #C3C3C3)" stroke-width="2"/>
<path id="Vector" d="M35.5926 12.1682C35.3352 11.8637 34.8402 11.915 34.6422 12.2579L23.8538 30.9815C23.5865 31.4462 23.0848 31.7315 22.537 31.7315C21.9925 31.7315 21.4875 31.4462 21.2202 30.9815L17.3095 24.2318C16.9035 23.5267 17.1214 22.6132 17.8375 22.2062C18.5669 21.7896 19.5074 22.0396 19.9199 22.7543L22.0255 26.3919C22.2466 26.7765 22.8175 26.7765 23.0386 26.3919L31.9756 10.8798C32.1769 10.5304 31.9492 10.0881 31.54 10.0433C29.1836 9.79327 26.7778 10.8766 25.5204 12.9887L23.0023 17.2225C22.7779 17.5974 22.2202 17.5974 21.9958 17.2225L19.4777 12.9887C17.788 10.1362 14.0027 9.15228 11.0721 10.7964C8.14149 12.4406 7.12832 16.1135 8.81803 18.9628L17.1709 33.0135C17.1841 33.0359 17.1973 33.0551 17.2105 33.0776C17.2435 33.132 17.2765 33.1833 17.3095 33.2378C17.326 33.2602 17.3425 33.2859 17.3557 33.3083C17.4019 33.3788 17.4514 33.4461 17.5009 33.5166C17.5042 33.523 17.5108 33.5295 17.5141 33.5359C18.0058 34.1993 18.6428 34.773 19.415 35.2057C20.4348 35.7762 21.5568 36.0294 22.6591 35.9973C22.735 35.9941 22.8076 35.9909 22.8835 35.9877C22.8934 35.9877 22.9066 35.9877 22.9165 35.9845C23.8241 35.9268 24.7349 35.6736 25.5732 35.2025C26.0649 34.9268 26.5039 34.5903 26.8834 34.2153C26.8867 34.2121 26.89 34.2089 26.8933 34.2057C26.956 34.1416 27.0187 34.0807 27.0781 34.0134C27.0946 33.9942 27.1111 33.975 27.1276 33.9589C27.1738 33.9076 27.2167 33.8564 27.2596 33.8051C27.2893 33.7698 27.3157 33.7346 27.3454 33.7025C27.3751 33.6641 27.4048 33.6288 27.4345 33.5904C27.4708 33.5423 27.5104 33.491 27.5467 33.4397C27.5632 33.4141 27.583 33.3916 27.5995 33.366C27.6424 33.3019 27.6853 33.2378 27.7282 33.1705C27.7348 33.1609 27.7414 33.1481 27.748 33.1385C27.7744 33.0968 27.8008 33.0583 27.8239 33.0167L36.1768 18.966C37.4969 16.7513 37.1767 14.0399 35.5926 12.1682Z" fill="var(--fill-0, #565656)"/>
</g>
</svg>
