<svg preserveAspectRatio="none" width="100%" height="100%" overflow="visible" style="display: block;" viewBox="0 0 28 27" fill="none" xmlns="http://www.w3.org/2000/svg">
<g id="SVG">
<path id="Vector" d="M26.9635 13.2869C19.7849 13.2869 13.9535 19.1183 13.9535 26.2969C13.9535 26.3523 13.9166 26.3892 13.8612 26.3892C13.8059 26.3892 13.7689 26.3523 13.7689 26.2969C13.7689 19.1183 7.93749 13.2869 0.758895 13.2869C0.703533 13.2869 0.666626 13.2499 0.666626 13.1946C0.666626 13.1392 0.703533 13.1023 0.758895 13.1023C7.93749 13.1023 13.7689 7.27086 13.7689 0.0922698C13.7689 0.0369079 13.8059 0 13.8612 0C13.9166 0 13.9535 0.0369079 13.9535 0.0922698C13.9535 7.27086 19.7849 13.1023 26.9635 13.1023C27.0189 13.1023 27.0558 13.1392 27.0558 13.1946C27.0558 13.2499 27.0189 13.2869 26.9635 13.2869Z" fill="url(#paint0_linear_14175_49578)"/>
<path id="Vector_2" d="M2.17387 20.3117C4.11153 20.3117 5.68012 18.7431 5.68012 16.8054C5.68012 16.75 5.71703 16.7131 5.77239 16.7131C5.82775 16.7131 5.86466 16.75 5.86466 16.8054C5.86466 18.7431 7.43325 20.3117 9.37091 20.3117C9.42627 20.3117 9.46318 20.3486 9.46318 20.4039C9.46318 20.4593 9.42627 20.4962 9.37091 20.4962C7.43325 20.4962 5.86466 22.0648 5.86466 24.0025C5.86466 24.0578 5.82775 24.0947 5.77239 24.0947C5.71703 24.0947 5.68012 24.0578 5.68012 24.0025C5.68012 22.0648 4.11153 20.4962 2.17387 20.4962C2.1185 20.4962 2.0816 20.4593 2.0816 20.4039C2.0816 20.3486 2.1185 20.3117 2.17387 20.3117Z" fill="url(#paint1_linear_14175_49578)"/>
</g>
<defs>
<linearGradient id="paint0_linear_14175_49578" x1="13.8618" y1="0" x2="13.8618" y2="26.3892" gradientUnits="userSpaceOnUse">
<stop stop-color="#9662FF"/>
<stop offset="1" stop-color="#A401B7"/>
</linearGradient>
<linearGradient id="paint1_linear_14175_49578" x1="13.8618" y1="1.32428e-06" x2="13.8618" y2="26.3892" gradientUnits="userSpaceOnUse">
<stop stop-color="#9662FF"/>
<stop offset="1" stop-color="#A401B7"/>
</linearGradient>
</defs>
</svg>
