<svg preserveAspectRatio="none" width="100%" height="100%" overflow="visible" style="display: block;" viewBox="0 0 18 17.9877" fill="none" xmlns="http://www.w3.org/2000/svg">
<g id="Group">
<path id="Vector" d="M0.225102 17.9877V5.84865H4.082V17.9877H0.225102ZM6.21791 17.9777C6.23326 14.7213 6.24087 12.0805 6.24087 10.0552C6.24087 8.02984 6.23715 6.82136 6.22946 6.42976L6.21791 5.84241H10.0672V7.56696C10.2037 7.3429 10.3565 7.12905 10.5241 6.92715C10.7241 6.69364 10.9456 6.47942 11.1856 6.2873C11.489 6.04464 11.8368 5.8634 12.2094 5.75368C12.6439 5.62325 13.0957 5.55985 13.5493 5.56559C14.1553 5.54277 14.7588 5.65592 15.3156 5.89614C15.8724 6.13636 16.3685 6.49753 16.7677 6.95402C17.6565 8.11746 18.0892 9.56584 17.9847 11.0262V17.9789H14.1354V11.491C14.1738 10.7876 14.009 10.0877 13.6607 9.4753C13.5002 9.23367 13.2783 9.03895 13.018 8.91109C12.7577 8.78315 12.468 8.72671 12.1787 8.74732C11.7297 8.73286 11.2909 8.88253 10.945 9.16914C10.6135 9.44997 10.3582 9.81047 10.2029 10.2164C10.1061 10.5377 10.0629 10.8726 10.075 11.208V17.9802L6.21791 17.9777ZM2.13184 4.19029C1.85145 4.20443 1.57118 4.16004 1.30875 4.06032C1.04632 3.96061 0.807451 3.80782 0.607199 3.61105C0.406948 3.41429 0.24959 3.17811 0.145277 2.91747C0.0409638 2.65683 -0.00811446 2.377 0.00109222 2.09642C-0.00767114 1.81852 0.0413665 1.54206 0.145121 1.28411C0.248875 1.02615 0.405173 0.792454 0.603919 0.598018C0.812705 0.397962 1.05968 0.242254 1.33015 0.140001C1.60063 0.0377477 1.88901 -0.00874396 2.17792 0.0031581C2.45981 -0.0125433 2.7419 0.0304233 3.00632 0.129378C3.27074 0.228333 3.51164 0.38111 3.71396 0.578022C3.91629 0.774938 4.07558 1.01122 4.18167 1.27286C4.28776 1.5345 4.33844 1.81545 4.33038 2.09766C4.34244 2.37387 4.29613 2.64975 4.19448 2.90685C4.09282 3.16395 3.93805 3.39653 3.74036 3.58981C3.53045 3.79277 3.28141 3.95066 3.00835 4.05407C2.73529 4.15749 2.444 4.20453 2.15231 4.19154L2.13184 4.19029Z" fill="var(--fill-0, black)"/>
</g>
</svg>
