<svg preserveAspectRatio="none" width="100%" height="100%" overflow="visible" style="display: block;" viewBox="0 0 46 46" fill="none" xmlns="http://www.w3.org/2000/svg">
<g id="Frame 1618868758">
<rect x="1" y="1" width="44" height="44" rx="22" fill="var(--fill-0, #D9D9D9)"/>
<rect x="1" y="1" width="44" height="44" rx="22" stroke="var(--stroke-0, #C3C3C3)" stroke-width="2"/>
<path id="Vector" d="M27 34.8318C27 34.8318 29.1978 29.5583 34 29C34 29 30.849 36.1781 27 34.8318Z" fill="var(--fill-0, #333333)"/>
<path id="Vector_2" d="M13.9218 7.05975C13.7068 7.08115 13.5059 7.18635 13.3554 7.35631C13.2049 7.52627 13.1148 7.74975 13.1014 7.98635C12.8345 12.9307 12.1275 38.3389 25.8287 39C28.1633 39 33.333 35.8869 34 28.1958C34 28.1958 31.2484 35.0629 27.4129 35.0629C25.4117 35.0629 22.5768 31.7667 22.0765 24.808C21.5879 18.0196 23.7975 6.05257 13.9218 7.05975Z" fill="var(--fill-0, #333333)"/>
</g>
</svg>
