<svg width="120" height="66" viewBox="0 0 120 66" fill="none" xmlns="http://www.w3.org/2000/svg">
<g clip-path="url(#clip0_4352_109444)">
<path fill-rule="evenodd" clip-rule="evenodd" d="M23.7934 46.9145H27.1564L27.1564 10.0894H20.3301L20.3301 22.389C19.966 21.8642 19.5192 21.4214 18.9896 21.0606C18.4601 20.6998 17.8891 20.4128 17.2768 20.1996C16.6811 19.97 16.0605 19.806 15.4151 19.7076C14.7863 19.6093 14.1739 19.5601 13.5782 19.5601C11.7082 19.5601 9.94577 19.9126 8.2909 20.6178C6.65257 21.323 5.21284 22.2988 3.97168 23.5451C2.74709 24.7915 1.77898 26.2675 1.06739 27.973C0.355797 29.6785 0 31.5235 0 33.5078C0 35.5085 0.355797 37.3618 1.06739 39.0672C1.77898 40.7563 2.74709 42.224 3.97168 43.4704C5.21284 44.7004 6.65257 45.6681 8.2909 46.3731C9.94577 47.0621 11.7082 47.4065 13.5782 47.4065C14.4387 47.4065 15.2827 47.2998 16.1101 47.0865C16.9541 46.8735 17.7733 46.5864 18.5676 46.2257C19.1452 45.9513 19.7009 45.6466 20.2348 45.3117V46.9145L23.7934 46.9145ZM20.3301 33.5078C20.3301 32.5894 20.148 31.7039 19.7839 30.8511C19.4364 29.9819 18.9565 29.2194 18.3442 28.5634C17.7319 27.891 17.0121 27.358 16.1846 26.9644C15.3737 26.5544 14.5049 26.3494 13.5782 26.3494C12.6515 26.3494 11.7744 26.5134 10.947 26.8414C10.1361 27.1694 9.42449 27.645 8.81218 28.2682C8.21642 28.875 7.74479 29.6211 7.39728 30.5067C7.04974 31.3923 6.87599 32.3927 6.87599 33.5078C6.87599 34.4754 7.04974 35.3938 7.39728 36.2629C7.74479 37.1321 8.21642 37.8948 8.81218 38.5505C9.42449 39.2066 10.1361 39.7232 10.947 40.1005C11.7744 40.4776 12.6515 40.6662 13.5782 40.6662C14.5049 40.6662 15.3737 40.4693 16.1846 40.0759C17.0121 39.6659 17.7319 39.1329 18.3442 38.4768C18.9565 37.8045 19.4364 37.0418 19.7839 36.1891C20.148 35.32 20.3301 34.4262 20.3301 33.5078ZM36.6289 46.9145H29.8025L29.8025 20.5686H36.6289L36.6289 46.9145ZM57.6441 30.8511C58.0081 31.7039 58.1901 32.5894 58.1901 33.5078C58.1901 34.4262 58.0081 35.32 57.6441 36.1891C57.2966 37.0418 56.8167 37.8045 56.2044 38.4768C55.5919 39.1329 54.8721 39.6659 54.0446 40.0759C53.2339 40.4693 52.365 40.6662 51.4383 40.6662C50.5116 40.6662 49.6344 40.5022 48.8071 40.1742C47.9962 39.8299 47.2847 39.3459 46.6722 38.7229C46.0765 38.0998 45.6049 37.3535 45.2574 36.4843C44.9099 35.5987 44.736 34.6066 44.736 33.5078C44.736 32.3599 44.9099 31.3431 45.2574 30.4575C45.6049 29.5555 46.0765 28.8012 46.6722 28.1944C47.2847 27.5876 47.9962 27.1284 48.8071 26.8168C49.6344 26.5052 50.5116 26.3494 51.4383 26.3494C52.365 26.3494 53.2339 26.5544 54.0446 26.9644C54.8721 27.358 55.5919 27.891 56.2044 28.5634C56.8167 29.2194 57.2966 29.9819 57.6441 30.8511ZM63.9492 48.8085C64.6607 47.1851 65.0165 45.4467 65.0165 43.5934V20.6178H63.3781L63.3775 20.6186L58.3632 20.6186V21.8525C57.7555 21.444 57.1184 21.0817 56.4527 20.7654C55.6582 20.3882 54.8391 20.093 53.9951 19.8798C53.1511 19.6667 52.2988 19.5601 51.4383 19.5601C49.5684 19.5601 47.8058 19.9126 46.1511 20.6178C44.5126 21.323 43.0729 22.2988 41.8317 23.5451C40.6073 24.7915 39.6392 26.2675 38.9274 27.973C38.216 29.6785 37.8601 31.5235 37.8601 33.5078C37.8601 35.6725 38.216 37.6158 38.9274 39.3379C39.6392 41.0599 40.6073 42.5193 41.8317 43.7164C43.0729 44.8974 44.5126 45.8074 46.1511 46.4471C47.8058 47.0865 49.5684 47.4065 51.4383 47.4065C52.0011 47.4065 52.6049 47.3735 53.2504 47.3078C53.9124 47.2425 54.5411 47.1195 55.1368 46.9391C55.7493 46.7751 56.3037 46.5618 56.8002 46.2994C57.2966 46.0207 57.6771 45.6681 57.9419 45.2417C57.7599 45.9141 57.5116 46.5535 57.1971 47.1605C56.8994 47.7672 56.4938 48.3002 55.9808 48.7592C55.4678 49.2349 54.8391 49.6039 54.0944 49.8662C53.3496 50.1452 52.4478 50.2846 51.3886 50.2846L46.5124 50.2353V56.9508L51.4383 57.0001C53.3083 57.0001 55.0624 56.6475 56.7006 55.9424C58.3556 55.2371 59.7953 54.2777 61.02 53.0643C62.2612 51.8506 63.2374 50.432 63.9492 48.8085ZM74.4392 46.9145H67.6626V23.9944L67.6553 23.9921V20.5691H67.6626V20.5686H69.301L69.3013 20.5691L74.6742 20.5691V21.0937C74.8581 21.0127 75.0444 20.9361 75.2337 20.8638C76.6237 20.3226 78.0718 20.052 79.5777 20.052C81.1994 20.052 82.7302 20.3636 84.1699 20.9868C85.6096 21.5936 86.8674 22.4382 87.9431 23.5205C89.0188 24.5865 89.8628 25.841 90.475 27.2842C91.1037 28.711 91.4182 30.2361 91.4182 31.8597V46.9145H84.6415V31.8597C84.6415 31.1709 84.5093 30.5231 84.2443 29.9163C83.9796 29.2932 83.6156 28.752 83.1521 28.2928C82.6889 27.8336 82.151 27.4728 81.5388 27.2104C80.9263 26.948 80.2727 26.8168 79.5777 26.8168C78.866 26.8168 78.1959 26.948 77.5669 27.2104C76.9382 27.4728 76.3919 27.8336 75.9287 28.2928C75.4652 28.752 75.1012 29.2932 74.8365 29.9163C74.5717 30.5231 74.4392 31.1709 74.4392 31.8597V46.9145ZM118.341 39.0182C119.053 37.3125 119.409 35.4757 119.409 33.5078C119.409 31.4087 119.053 29.5063 118.341 27.8008C117.63 26.0789 116.662 24.6111 115.437 23.3975C114.213 22.1676 112.773 21.2246 111.118 20.5686C109.479 19.8962 107.717 19.5601 105.83 19.5601C103.96 19.5601 102.198 19.9126 100.543 20.6178C98.905 21.323 97.465 22.2988 96.2241 23.5451C94.9994 24.7751 94.0313 26.2429 93.3198 27.9484C92.6081 29.6539 92.2522 31.5071 92.2522 33.5078C92.2522 35.4757 92.6081 37.3125 93.3198 39.0182C94.0313 40.7072 94.9994 42.175 96.2241 43.4213C97.465 44.6514 98.905 45.6271 100.543 46.3485C102.198 47.0538 103.96 47.4065 105.83 47.4065C107.717 47.4065 109.479 47.0538 111.118 46.3485C112.773 45.6271 114.213 44.6514 115.437 43.4213C116.662 42.175 117.63 40.7072 118.341 39.0182ZM112.036 30.5805C112.4 31.4497 112.582 32.4254 112.582 33.5078C112.582 34.5738 112.4 35.5495 112.036 36.4351C111.689 37.3208 111.209 38.0751 110.597 38.6982C109.984 39.3215 109.264 39.8052 108.437 40.1496C107.626 40.4939 106.757 40.6662 105.83 40.6662C104.904 40.6662 104.027 40.4859 103.199 40.1249C102.388 39.7479 101.677 39.2395 101.065 38.5999C100.469 37.9602 99.9972 37.2058 99.6495 36.3367C99.302 35.4675 99.1284 34.5246 99.1284 33.5078C99.1284 32.4254 99.302 31.4497 99.6495 30.5805C99.9972 29.6949 100.469 28.9406 101.065 28.3174C101.677 27.6778 102.388 27.194 103.199 26.866C104.027 26.5216 104.904 26.3494 105.83 26.3494C106.757 26.3494 107.626 26.5216 108.437 26.866C109.264 27.194 109.984 27.6778 110.597 28.3174C111.209 28.9406 111.689 29.6949 112.036 30.5805Z" fill="#D9D9D9"/>
<path d="M33.2625 16.9675C35.204 16.9675 36.7779 15.4078 36.7779 13.4837C36.7779 11.5597 35.204 10 33.2625 10C31.321 10 29.7471 11.5597 29.7471 13.4837C29.7471 15.4078 31.321 16.9675 33.2625 16.9675Z" fill="#D9D9D9"/>
</g>
<defs>
<clipPath id="clip0_4352_109444">
<rect width="120" height="66" fill="white"/>
</clipPath>
</defs>
</svg>
