<svg width="169" height="66" viewBox="0 0 169 66" fill="none" xmlns="http://www.w3.org/2000/svg">
<g clip-path="url(#clip0_4352_109429)">
<path d="M31.8171 5.41891C32.8824 4.76191 34.2342 4.73941 35.3136 5.38741C38.2847 6.97591 41.2603 8.56891 44.2877 10.0584C44.297 8.4384 44.2877 6.81841 44.2924 5.19841C47.1695 5.2254 50.0419 5.22091 52.919 5.20291C52.9518 8.27642 52.8346 11.3589 52.966 14.4324C55.261 16.2729 58.2649 17.173 60.6961 18.865C61.2827 19.3194 61.677 20.0349 61.6535 20.7729C61.7052 23.0545 61.6629 25.3404 61.6676 27.6264C59.7714 27.622 57.8752 27.622 55.979 27.6264C55.9603 25.9389 55.9603 24.2559 55.9745 22.5729C48.6338 18.487 41.0444 14.8149 33.7133 10.7109C26.4477 14.5989 19.1682 18.4734 11.9589 22.4514C11.9073 25.5069 12.0246 28.567 11.912 31.6179C11.8463 33.3594 9.71543 34.6555 8.04455 33.9535C7.01669 33.5709 6.27042 32.5944 6.29857 31.528C6.25164 27.9504 6.27042 24.3729 6.2798 20.7955C6.17655 19.6119 7.11055 18.7075 8.12434 18.2079C16.0188 13.9374 23.9367 9.70291 31.8171 5.41891Z" fill="#D9D9D9"/>
<path d="M1.73193 46.306C4.22418 42.3731 6.62724 38.3816 9.01153 34.3855C11.6164 38.2781 13.827 42.3911 16.3897 46.306C14.9112 46.324 13.4328 46.324 11.9543 46.3106C11.9356 49.1275 11.9262 51.9491 11.9731 54.766C26.6402 54.757 41.3074 54.7706 55.9745 54.7616C55.9652 53.7131 55.9652 52.6646 55.9604 51.6206C57.866 51.6295 59.7715 51.6295 61.6771 51.6206C61.6442 53.6545 61.7428 55.6841 61.6349 57.7136C61.5879 59.1626 60.1705 60.3686 58.6686 60.2605C42.2414 60.2695 25.8142 60.2155 9.387 60.1931C7.84285 60.355 6.26116 59.1941 6.29869 57.6506C6.23298 53.875 6.30339 50.095 6.27523 46.3196C4.75923 46.3196 3.24793 46.324 1.73193 46.306Z" fill="#D9D9D9"/>
<path d="M114.812 24.2876C116.309 24.292 117.807 24.2876 119.309 24.292C119.318 25.7591 119.313 27.2261 119.313 28.693C117.807 28.6886 116.305 28.6886 114.803 28.6976C114.803 27.2261 114.803 25.7546 114.812 24.2876Z" fill="#D9D9D9"/>
<path d="M19.5247 24.697C22.5567 24.7016 25.5841 24.7016 28.616 24.6926C30.3621 24.706 32.2629 24.7961 33.732 25.8085C36.2195 27.5051 37.0174 31.0781 35.4497 33.5981C34.8536 34.6871 33.7226 35.3306 32.69 35.983C34.0089 38.872 35.2807 41.779 36.4682 44.7131C34.7411 44.7176 33.0138 44.6995 31.282 44.7581C29.8974 42.1931 29.1182 39.385 27.9074 36.7481C26.7714 36.7526 25.6404 36.7526 24.5092 36.7481C24.528 39.3266 24.4577 41.9006 24.5656 44.4746C22.9087 44.8121 21.2097 44.5376 19.5341 44.7356C19.5012 38.0576 19.5247 31.3796 19.5247 24.697ZM24.4999 28.2926C24.514 29.9756 24.5092 31.6585 24.5092 33.3416C26.1613 33.3055 27.8275 33.4451 29.4702 33.211C31.6809 32.5676 31.8358 29.107 29.5688 28.4501C27.9074 28.1261 26.1848 28.3466 24.4999 28.2926Z" fill="#D9D9D9"/>
<path d="M72.8384 24.6926C74.3262 24.7016 75.814 24.7016 77.3018 24.6926C77.269 31.321 77.3676 37.9541 77.2596 44.5781C75.8517 44.8796 74.3638 44.6636 72.9276 44.7536C72.7211 38.0711 72.8948 31.3796 72.8384 24.6926Z" fill="#D9D9D9"/>
<path d="M162.507 25.9391C163.061 25.9391 163.619 25.9345 164.183 25.9255C165.581 26.8345 165.318 28.612 164.197 29.62C164.262 29.0981 163.094 28.3825 163.671 27.8425C164.244 27.1495 164.967 28.8146 164.337 29.0666L164.802 28.1216C164.812 27.8381 164.83 27.2755 164.84 26.992C163.657 27.298 161.479 26.3035 161.592 28.189C162.437 28.3241 163.019 28.8505 163.122 29.683C162.587 29.1025 161.437 28.8505 161.362 27.9595C161.104 27.1 162.047 26.5466 162.507 25.9391Z" fill="#D9D9D9"/>
<path d="M41.0212 31.3299C43.9123 28.7425 49.0894 29.1115 51.483 32.1579C52.8487 33.814 53.0787 36.0009 53.1866 38.035C49.845 38.0575 46.5032 38.0169 43.1615 38.0619C43.3022 39.0025 43.213 40.0735 43.903 40.8429C44.7009 41.941 46.3155 42.0445 47.5263 41.617C48.3525 41.1894 48.6481 40.2805 49.0798 39.547C50.4081 39.664 51.7364 39.8124 53.0693 39.9294C52.2621 42.3639 50.2064 44.6004 47.4325 44.8839C44.7243 45.289 41.6783 44.5059 40.012 42.3054C37.5997 39.0699 37.947 34.0704 41.0212 31.3299ZM44.5085 32.878C43.6356 33.4629 43.4524 34.5204 43.1521 35.4249C45.0154 35.4789 46.8834 35.4789 48.7467 35.4384C48.4885 34.5295 48.3899 33.4494 47.5405 32.8375C46.6299 32.2974 45.4049 32.3245 44.5085 32.878Z" fill="#D9D9D9"/>
<path d="M56.0165 29.944C57.4151 29.944 58.8092 29.944 60.2078 29.953C60.1938 30.6099 60.1749 31.267 60.1562 31.924C61.2356 29.899 63.8546 29.0664 66.0278 29.9035C68.4825 30.7136 69.5901 33.31 69.7777 35.614C69.9938 38.2421 69.8669 41.1939 68.0271 43.318C66.145 45.5094 62.057 45.6446 60.3581 43.165C60.4143 45.3385 60.3909 47.5165 60.3814 49.69C58.9453 49.6856 57.5091 49.6945 56.0775 49.7304C55.9508 43.1335 56.0681 36.5365 56.0165 29.944ZM62.1838 32.716C61.0667 33.0131 60.5363 34.1786 60.4519 35.2C60.3392 36.8515 60.3017 38.5256 60.5176 40.168C60.8555 41.7655 63.3478 42.571 64.3474 41.0771C65.5067 39.3535 65.15 37.1215 65.028 35.1774C64.9529 33.8095 63.7937 32.2075 62.1838 32.716Z" fill="#D9D9D9"/>
<path d="M83.2672 30.8981C86.4448 28.6435 91.5794 29.4085 93.6116 32.7475C94.7287 34.3001 94.7522 36.235 94.7709 38.0486C91.4996 38.0395 88.2329 38.044 84.9663 38.0395C84.8114 39.6236 85.4263 41.6261 87.3506 41.8151C88.9791 42.1975 90.3497 41.0455 90.6734 39.574C92.0581 39.6595 93.438 39.7945 94.8226 39.9251C94.0481 42.022 92.49 44.0065 90.1902 44.668C87.4304 45.3881 84.1402 44.911 82.1502 42.8051C79.0525 39.4885 79.5077 33.5936 83.2672 30.8981ZM84.91 35.4341C86.7544 35.4746 88.599 35.4746 90.4435 35.4565C90.2652 34.219 89.8053 32.5945 88.2376 32.4821C86.3133 32.068 85.0273 33.7915 84.91 35.4341Z" fill="#D9D9D9"/>
<path d="M101.933 32.2572C102.679 31.3076 103.398 30.1828 104.655 29.8137C106.378 29.3772 108.415 29.5662 109.771 30.7721C110.86 31.8027 111.057 33.3462 111.062 34.7457C111.076 38.0217 111.048 41.3023 111.071 44.5783C109.588 44.4072 107.711 45.2398 106.495 44.2902C106.19 40.9781 106.95 37.6391 106.354 34.3497C106.275 33.3866 105.158 32.8603 104.247 33.0447C102.928 33.1392 102.323 34.5027 102.238 35.6097C102.055 38.6563 102.323 41.7118 102.102 44.7581C100.647 44.7176 99.1922 44.7087 97.737 44.7087C97.6713 39.7903 97.7559 34.8717 97.6948 29.9531C99.1076 29.9442 100.525 29.9442 101.938 29.9623C101.933 30.7272 101.928 31.4922 101.933 32.2572Z" fill="#D9D9D9"/>
<path d="M114.802 29.9441C116.304 29.9441 117.806 29.9441 119.313 29.9397C119.318 34.8266 119.313 39.7137 119.313 44.5962C117.806 44.5872 116.304 44.5872 114.798 44.5916C114.812 39.7091 114.802 34.8266 114.802 29.9441Z" fill="#D9D9D9"/>
<path d="M123.077 29.9487C124.537 29.9441 125.997 29.9441 127.461 29.9487C127.522 33.4812 127.306 37.0272 127.559 40.5506C128.381 42.3417 131.488 41.3247 131.61 39.5472C131.737 36.3477 131.61 33.1392 131.657 29.9397C133.163 29.9487 134.67 29.9487 136.177 29.9441C136.163 34.7502 136.238 39.5607 136.153 44.3621C135.088 45.2262 133.304 44.4433 131.967 44.5511C131.99 43.7951 132.018 43.0347 132.051 42.2742C130.615 45.6357 124.588 46.1307 123.317 42.4317C122.791 38.3052 123.237 34.1021 123.077 29.9487Z" fill="#D9D9D9"/>
<path d="M144.212 31.9375C145.836 28.7831 151.135 28.8146 152.717 32.0051C154.237 29.3995 158.156 28.8146 160.512 30.6956C161.902 31.7891 161.766 33.652 161.794 35.2001C161.752 38.3816 161.869 41.5675 161.723 44.7446C160.264 44.7175 158.799 44.7085 157.34 44.7265C157.279 41.7025 157.335 38.6831 157.316 35.6591C157.26 34.9076 157.34 33.967 156.668 33.4315C155.378 32.518 153.158 33.3775 153.209 35.0245C153.008 38.2016 153.181 41.3921 153.134 44.5781C151.623 44.5871 150.112 44.5871 148.605 44.6096C148.586 41.7746 148.605 38.944 148.605 36.109C148.563 35.1776 148.694 34.0571 147.84 33.3956C146.563 32.5946 144.569 33.3011 144.381 34.8175C144.174 38.1115 144.372 41.4146 144.287 44.7175C142.874 44.7085 141.466 44.7175 140.058 44.7626C139.795 39.835 140.04 34.8895 139.932 29.953C141.363 29.944 142.795 29.944 144.226 29.9665C144.221 30.4616 144.217 31.447 144.212 31.9375Z" fill="#D9D9D9"/>
</g>
<defs>
<clipPath id="clip0_4352_109429">
<rect width="169" height="66" fill="white"/>
</clipPath>
</defs>
</svg>
