<svg preserveAspectRatio="none" width="100%" height="100%" overflow="visible" style="display: block;" viewBox="0 0 67.8763 26.7162" fill="none" xmlns="http://www.w3.org/2000/svg">
<g id="Group 6355049">
<path id="Vector" fill-rule="evenodd" clip-rule="evenodd" d="M13.5251 20.9831H15.4367V0.050286H11.5564V7.04185C11.3494 6.74354 11.0954 6.49184 10.7944 6.28676C10.4934 6.08168 10.1689 5.91854 9.82079 5.79736C9.48214 5.66684 9.1294 5.57361 8.76252 5.51768C8.40506 5.46176 8.057 5.43379 7.71835 5.43379C6.65538 5.43379 5.65355 5.63421 4.71286 6.03507C3.78157 6.43591 2.96317 6.99057 2.25765 7.69906C1.56155 8.40753 1.01124 9.24653 0.606744 10.216C0.202248 11.1855 0 12.2342 0 13.3622C0 14.4995 0.202248 15.553 0.606744 16.5224C1.01124 17.4825 1.56155 18.3168 2.25765 19.0253C2.96317 19.7245 3.78157 20.2746 4.71286 20.6754C5.65355 21.067 6.65538 21.2627 7.71835 21.2627C8.20752 21.2627 8.68726 21.2021 9.1576 21.0809C9.63736 20.9597 10.103 20.7966 10.5545 20.5916C10.8829 20.4356 11.1987 20.2624 11.5022 20.072V20.9831H13.5251ZM11.5564 13.3622C11.5564 12.8402 11.4529 12.3368 11.2459 11.8521C11.0484 11.358 10.7756 10.9245 10.4275 10.5516C10.0795 10.1694 9.67029 9.86643 9.19994 9.64271C8.739 9.40966 8.24515 9.29313 7.71835 9.29313C7.19157 9.29313 6.69301 9.38635 6.22267 9.57279C5.76172 9.75924 5.35723 10.0296 5.00917 10.3838C4.67052 10.7287 4.40243 11.1529 4.20489 11.6563C4.00733 12.1597 3.90857 12.7283 3.90857 13.3622C3.90857 13.9122 4.00733 14.4343 4.20489 14.9283C4.40243 15.4224 4.67052 15.8559 5.00917 16.2287C5.35723 16.6016 5.76172 16.8953 6.22267 17.1098C6.69301 17.3241 7.19157 17.4313 7.71835 17.4313C8.24515 17.4313 8.739 17.3194 9.19994 17.0958C9.67029 16.8627 10.0795 16.5597 10.4275 16.1868C10.7756 15.8046 11.0484 15.3711 11.2459 14.8864C11.4529 14.3923 11.5564 13.8843 11.5564 13.3622ZM20.8212 20.9831H16.9408V6.0071H20.8212V20.9831ZM32.7671 11.8521C32.974 12.3368 33.0774 12.8402 33.0774 13.3622C33.0774 13.8843 32.974 14.3923 32.7671 14.8864C32.5696 15.3711 32.2967 15.8046 31.9487 16.1868C31.6005 16.5597 31.1913 16.8627 30.721 17.0958C30.2601 17.3194 29.7662 17.4313 29.2395 17.4313C28.7127 17.4313 28.214 17.3381 27.7438 17.1517C27.2828 16.9559 26.8784 16.6808 26.5302 16.3266C26.1916 15.9725 25.9235 15.5482 25.726 15.0542C25.5285 14.5508 25.4296 13.9868 25.4296 13.3622C25.4296 12.7097 25.5285 12.1317 25.726 11.6283C25.9235 11.1156 26.1916 10.6868 26.5302 10.3419C26.8784 9.99695 27.2828 9.73593 27.7438 9.5588C28.214 9.38169 28.7127 9.29313 29.2395 9.29313C29.7662 9.29313 30.2601 9.40966 30.721 9.64271C31.1913 9.86643 31.6005 10.1694 31.9487 10.5516C32.2967 10.9245 32.5696 11.358 32.7671 11.8521ZM36.3511 22.0597C36.7555 21.1369 36.9578 20.1487 36.9578 19.0952V6.03507H36.0265L36.0262 6.03552H33.1758V6.73691C32.8304 6.50472 32.4683 6.29873 32.0898 6.11896C31.6382 5.90455 31.1726 5.73676 30.6928 5.61557C30.2131 5.49439 29.7286 5.43379 29.2395 5.43379C28.1765 5.43379 27.1746 5.63421 26.234 6.03507C25.3027 6.43591 24.4843 6.99057 23.7787 7.69906C23.0827 8.40753 22.5324 9.24653 22.1278 10.216C21.7234 11.1855 21.5211 12.2342 21.5211 13.3622C21.5211 14.5927 21.7234 15.6974 22.1278 16.6762C22.5324 17.6551 23.0827 18.4847 23.7787 19.1652C24.4843 19.8365 25.3027 20.3538 26.234 20.7174C27.1746 21.0809 28.1765 21.2627 29.2395 21.2627C29.5593 21.2627 29.9026 21.244 30.2695 21.2067C30.6458 21.1695 31.0032 21.0996 31.3418 20.9971C31.69 20.9038 32.0051 20.7826 32.2873 20.6335C32.5696 20.475 32.7858 20.2746 32.9363 20.0322C32.8329 20.4144 32.6918 20.7779 32.513 21.1229C32.3437 21.4678 32.1132 21.7708 31.8216 22.0317C31.53 22.3021 31.1726 22.5118 30.7493 22.661C30.3259 22.8195 29.8133 22.8988 29.2112 22.8988L26.4394 22.8707V26.6881L29.2395 26.7161C30.3024 26.7161 31.2996 26.5157 32.2308 26.1149C33.1715 25.714 33.9899 25.1686 34.6861 24.4789C35.3916 23.789 35.9465 22.9825 36.3511 22.0597ZM42.314 20.9831H38.4619V7.95442L38.4578 7.95314V6.00736H38.4619V6.0071H39.3933L39.3934 6.00736H42.4476V6.30556C42.5522 6.25954 42.6581 6.21597 42.7657 6.17489C43.5558 5.86726 44.3789 5.71345 45.2349 5.71345C46.1568 5.71345 47.027 5.89057 47.8453 6.24481C48.6637 6.58973 49.3787 7.06981 49.9901 7.68507C50.6016 8.29101 51.0814 9.00414 51.4294 9.8245C51.7868 10.6355 51.9655 11.5025 51.9655 12.4254V20.9831H48.1134V12.4254C48.1134 12.0338 48.0383 11.6656 47.8876 11.3207C47.7371 10.9665 47.5302 10.6588 47.2668 10.3978C47.0034 10.1368 46.6977 9.93169 46.3497 9.78255C46.0015 9.63338 45.63 9.5588 45.2349 9.5588C44.8304 9.5588 44.4495 9.63338 44.0919 9.78255C43.7345 9.93169 43.424 10.1368 43.1607 10.3978C42.8972 10.6588 42.6903 10.9665 42.5399 11.3207C42.3894 11.6656 42.314 12.0338 42.314 12.4254V20.9831ZM67.2696 16.4945C67.6742 15.5249 67.8763 14.4809 67.8763 13.3622C67.8763 12.169 67.6742 11.0876 67.2696 10.1181C66.8652 9.13932 66.3149 8.30499 65.6187 7.61515C64.9227 6.91601 64.1041 6.37999 63.1636 6.0071C62.2322 5.62489 61.2304 5.43379 60.158 5.43379C59.095 5.43379 58.0933 5.63421 57.1525 6.03507C56.2213 6.43591 55.4028 6.99057 54.6974 7.69906C54.0012 8.3982 53.4509 9.23254 53.0465 10.202C52.6419 11.1715 52.4396 12.2249 52.4396 13.3622C52.4396 14.4809 52.6419 15.5249 53.0465 16.4945C53.4509 17.4546 54.0012 18.289 54.6974 18.9974C55.4028 19.6966 56.2213 20.2513 57.1525 20.6613C58.0933 21.0623 59.095 21.2627 60.158 21.2627C61.2304 21.2627 62.2322 21.0623 63.1636 20.6613C64.1041 20.2513 64.9227 19.6966 65.6187 18.9974C66.3149 18.289 66.8652 17.4546 67.2696 16.4945ZM63.6856 11.6982C63.8926 12.1923 63.9961 12.747 63.9961 13.3622C63.9961 13.9682 63.8926 14.5228 63.6856 15.0262C63.4881 15.5297 63.2152 15.9585 62.8672 16.3126C62.5192 16.6669 62.11 16.9419 61.6396 17.1376C61.1786 17.3334 60.6847 17.4313 60.158 17.4313C59.6312 17.4313 59.1327 17.3288 58.6623 17.1236C58.2013 16.9093 57.7969 16.6203 57.4489 16.2567C57.1102 15.8931 56.8422 15.4643 56.6445 14.9703C56.447 14.4762 56.3483 13.9402 56.3483 13.3622C56.3483 12.747 56.447 12.1923 56.6445 11.6982C56.8422 11.1948 57.1102 10.766 57.4489 10.4118C57.7969 10.0482 58.2013 9.77322 58.6623 9.58677C59.1327 9.39101 59.6312 9.29313 60.158 9.29313C60.6847 9.29313 61.1786 9.39101 61.6396 9.58677C62.11 9.77322 62.5192 10.0482 62.8672 10.4118C63.2152 10.766 63.4881 11.1948 63.6856 11.6982Z" fill="var(--fill-0, #D9D9D9)"/>
<path id="Vector_2" d="M18.9079 3.96057C20.0115 3.96057 20.9062 3.07397 20.9062 1.98029C20.9062 0.886604 20.0115 0 18.9079 0C17.8042 0 16.9096 0.886604 16.9096 1.98029C16.9096 3.07397 17.8042 3.96057 18.9079 3.96057Z" fill="var(--fill-0, #D9D9D9)"/>
</g>
</svg>
