<svg preserveAspectRatio="none" width="100%" height="100%" overflow="visible" style="display: block;" viewBox="0 0 149.954 29.3014" fill="none" xmlns="http://www.w3.org/2000/svg">
<g id="Logo client s 42" clip-path="url(#clip0_13915_53631)">
<path id="Vector" d="M40.7264 6.61239C44.8358 6.61239 48.42 9.82363 48.42 14.4851C48.42 19.1466 44.8358 22.3567 40.7264 22.3567C36.617 22.3567 33.0317 19.1455 33.0317 14.4851C33.0317 9.82476 36.6159 6.61239 40.7264 6.61239ZM40.7264 19.7113C43.5383 19.7113 45.578 17.5705 45.578 14.484C45.578 11.3975 43.5383 9.25667 40.7264 9.25667C37.9145 9.25667 35.8748 11.3975 35.8748 14.484C35.8748 17.5705 37.9145 19.7113 40.7264 19.7113Z" fill="var(--fill-0, #D9D9D9)"/>
<path id="Vector_2" d="M66.7161 22.0408V-0.000112414H69.4357V22.0408H66.7161Z" fill="var(--fill-0, #D9D9D9)"/>
<path id="Vector_3" d="M117.999 6.92715V15.7444C117.999 19.712 115.279 22.3563 111.664 22.3563C108.049 22.3563 105.329 19.712 105.329 15.7444V6.92715H108.049V15.7444C108.049 18.0746 109.718 19.712 111.664 19.712C113.61 19.712 115.279 18.0746 115.279 15.7444V6.92715H117.999Z" fill="var(--fill-0, #D9D9D9)"/>
<path id="Vector_4" d="M120.131 6.92762H122.727V8.6591H122.79C123.717 7.17935 124.984 6.61239 126.807 6.61239H127.424V9.25781H127.023C124.396 9.25781 122.851 10.8952 122.851 14.9886V22.0427H120.131V6.92762Z" fill="var(--fill-0, #D9D9D9)"/>
<path id="Vector_5" d="M141.424 6.92715V15.7444C141.424 19.712 138.705 22.3563 135.089 22.3563C131.474 22.3563 128.754 19.712 128.754 15.7444V6.92715H131.474V15.7444C131.474 18.0746 133.143 19.712 135.089 19.712C137.036 19.712 138.705 18.0746 138.705 15.7444V6.92715H141.424Z" fill="var(--fill-0, #D9D9D9)"/>
<g id="Group">
<path id="Vector_6" d="M143.064 7.69035V7.18462H145.551V7.69035H144.575V11.2134H144.046V7.69035H143.064Z" fill="var(--fill-0, #D9D9D9)"/>
<path id="Vector_7" d="M145.55 11.2113L145.991 7.6361C146.005 7.47962 146.059 7.35149 146.152 7.25397C146.245 7.15646 146.349 7.10656 146.465 7.10656C146.566 7.10656 146.658 7.14285 146.74 7.21542C146.822 7.28799 146.885 7.39798 146.927 7.54312L147.756 10.3144L148.547 7.60435C148.595 7.44447 148.662 7.32428 148.748 7.24377C148.836 7.16326 148.931 7.12357 149.032 7.12357C149.148 7.12357 149.248 7.16326 149.335 7.24377C149.423 7.32428 149.473 7.4286 149.484 7.55786L149.958 11.2125H149.399L149.011 7.91618L148.109 10.9154C148.037 11.1399 147.914 11.2453 147.758 11.2453C147.602 11.2453 147.461 11.1388 147.392 10.9256L146.488 7.9037L146.117 11.2113H145.553H145.55Z" fill="var(--fill-0, #D9D9D9)"/>
</g>
<path id="Vector_8" d="M7.69501 6.57347C3.58448 6.57347 0.000283723 9.7847 0.000283723 14.4451V28.8412H2.71986V20.5024C4.08188 21.6556 5.83336 22.3167 7.69501 22.3167C11.8044 22.3167 15.3886 19.1054 15.3886 14.4451C15.3886 9.7847 11.8044 6.57347 7.69501 6.57347ZM7.69501 19.6724C4.88307 19.6724 2.84338 17.5316 2.84338 14.4451C2.84338 11.3586 4.88307 9.21775 7.69501 9.21775C10.5069 9.21775 12.5466 11.3586 12.5466 14.4451C12.5466 17.5316 10.5069 19.6724 7.69501 19.6724Z" fill="var(--fill-0, #D9D9D9)"/>
<path id="Vector_9" d="M29.1931 14.9886C28.6368 17.7599 27.4316 19.7125 24.218 19.7125C22.6256 19.7125 21.2803 19.0242 20.4135 17.8676L31.3864 11.3986C29.9954 8.47087 27.6787 6.61239 24.218 6.61239C20.1086 6.61239 16.5244 9.82363 16.5244 14.4851C16.5244 19.1466 20.1086 22.3567 24.218 22.3567C28.3274 22.3567 31.6345 19.3337 31.9428 15.3356L29.1931 14.9886ZM24.218 9.25781C25.8871 9.25781 26.6594 9.76126 27.5863 10.7058L19.4565 15.5703C19.3975 15.2244 19.3675 14.8616 19.3675 14.4851C19.3675 11.3986 21.4072 9.25781 24.2191 9.25781H24.218Z" fill="var(--fill-0, #D9D9D9)"/>
<path id="Vector_10" d="M57.5703 6.57347C53.4609 6.57347 49.8756 9.78471 49.8756 14.4462V28.8423H52.5952V20.5036C53.9572 21.6568 55.7087 22.3178 57.5703 22.3178C61.6797 22.3178 65.2639 19.1066 65.2639 14.4462C65.2639 9.78584 61.6797 6.57347 57.5703 6.57347ZM57.5703 19.6724C54.7584 19.6724 52.7187 17.5316 52.7187 14.4451C52.7187 11.3586 54.7584 9.21775 57.5703 9.21775C60.3823 9.21775 62.4219 11.3586 62.4219 14.4451C62.4219 17.5316 60.3823 19.6724 57.5703 19.6724Z" fill="var(--fill-0, #D9D9D9)"/>
<path id="Vector_11" d="M83.8572 14.9886C83.3008 17.7599 82.0957 19.7125 78.8821 19.7125C77.2897 19.7125 75.9444 19.0242 75.0775 17.8676L86.0504 11.3986C84.6595 8.47087 82.3427 6.61239 78.8821 6.61239C74.7726 6.61239 71.1884 9.82363 71.1884 14.4851C71.1884 19.1466 74.7726 22.3567 78.8821 22.3567C82.9915 22.3567 86.2986 19.3337 86.6068 15.3356L83.8572 14.9886ZM78.8821 9.25781C80.5512 9.25781 81.3234 9.76126 82.2504 10.7058L74.1206 15.5703C74.0616 15.2244 74.0315 14.8616 74.0315 14.4851C74.0315 11.3986 76.0712 9.25781 78.8832 9.25781H78.8821Z" fill="var(--fill-0, #D9D9D9)"/>
<g id="Group_2">
<path id="Vector_12" d="M103.785 12.8233C103.865 8.76275 101.212 6.78294 98.5471 6.62192C97.5011 6.56523 96.4596 6.8453 95.4403 7.47236C94.4199 6.84417 93.3772 6.55502 92.3335 6.62192C89.6684 6.78294 87.0156 8.76161 87.0957 12.8233C87.1324 14.6648 88.1528 16.6332 90.128 18.6754C91.8672 20.4715 93.7099 21.653 94.7615 22.1202L95.4392 22.4196L96.1224 22.1191C97.0182 21.7211 98.4903 20.7981 99.9826 19.4215C99.9826 19.4215 100.55 18.8296 101.052 18.3035L101.067 21.8708C101.067 25.5548 98.3479 26.657 95.9076 26.657C94.5167 26.657 93.158 26.2794 91.7982 25.9018L91.1495 28.4202C92.7251 28.9554 94.3631 29.3024 96.0323 29.3024C100.389 29.3024 103.788 26.5946 103.788 20.9273C103.788 20.9273 103.786 12.8539 103.786 12.8233H103.785ZM98.8008 16.8385C97.638 18.0189 96.326 18.8942 95.5415 19.2367L95.4403 19.2809L95.3401 19.2378C94.5545 18.8942 93.2426 18.02 92.0797 16.8396C91.1617 15.9075 90.0623 14.5037 90.0345 13.1068C89.9833 10.5577 91.6491 9.55308 93.0912 9.46804C93.8602 9.42268 94.6502 9.7209 95.4403 10.3548C96.2303 9.7209 97.0193 9.42268 97.7893 9.46804C99.2314 9.55308 100.897 10.5577 100.846 13.1068C100.818 14.5037 99.7188 15.9075 98.8008 16.8396V16.8385Z" fill="var(--fill-0, #D9D9D9)"/>
<path id="Vector_13" d="M95.4398 19.281L95.3396 19.2379C94.554 18.8943 93.2421 18.0201 92.0792 16.8397C91.1612 15.9076 90.0618 14.5038 90.034 13.1068C89.9828 10.5578 91.6486 9.55317 93.0907 9.46813C93.8596 9.42277 94.6497 9.72099 95.4398 10.3548C96.2298 9.72099 97.0188 9.42277 97.7888 9.46813C99.2309 9.55317 100.897 10.5578 100.846 13.1068C100.818 14.5038 99.7183 15.9076 98.8003 16.8397C97.6375 18.0201 96.3255 18.8955 95.541 19.2379L95.4398 19.2821V19.281Z" fill="var(--fill-0, #D9D9D9)"/>
</g>
</g>
<defs>
<clipPath id="clip0_13915_53631">
<rect width="149.954" height="29.3014" fill="white"/>
</clipPath>
</defs>
</svg>
