<svg preserveAspectRatio="none" width="100%" height="100%" overflow="visible" style="display: block;" viewBox="0 0 147.626 21.0585" fill="none" xmlns="http://www.w3.org/2000/svg">
<g id="Group">
<path id="Vector" d="M0 8.87061C0 7.33965 1.27427 3.9404 6.5171 3.9404C9.49095 3.9404 11.1477 4.76182 12.1767 6.45007C12.2393 6.40356 12.2968 6.35024 12.3482 6.29104C13.5488 4.58006 15.5828 3.88798 17.5825 3.94391C21.0124 4.04002 23.3603 6.31027 23.4718 9.82836C23.5833 13.3464 23.506 16.8994 23.5113 20.4351C23.5033 20.4898 23.49 20.5436 23.4718 20.5958H20.0761C20.0761 20.4351 20.0538 20.2637 20.0538 20.0925C20.0538 17.0631 20.0538 14.0338 20.0538 11.0045C20.0538 10.2268 19.999 9.45785 19.6303 8.75353C19.0488 7.65074 18.0867 7.21207 16.9118 7.22431C15.6462 7.23653 14.6119 7.72764 13.9962 8.9213C13.5487 9.77243 13.4542 10.6987 13.4542 11.6442C13.4542 14.4405 13.4542 17.2367 13.4542 20.0331V20.6027H9.9883V20.0785C9.9883 17.0771 9.9883 14.0764 9.9883 11.0762C9.99625 10.6307 9.96353 10.1855 9.89055 9.7462C9.52354 7.82375 8.04176 6.86953 6.1638 7.32042C4.67174 7.68044 3.69588 8.8444 3.49865 10.5274C3.44864 10.9549 3.42344 11.385 3.42319 11.8155C3.42319 14.5652 3.42319 17.3136 3.42319 20.061V20.615H0V8.87061Z" fill="var(--fill-0, #D9D9D9)"/>
<path id="Vector_2" d="M137.748 6.43084V4.38605H141.157V20.5975H137.769V18.3674C137.689 18.4192 137.613 18.4776 137.543 18.5422C135.684 20.8142 133.255 21.4241 130.53 20.8632C127.119 20.1641 124.528 17.1022 124.2 13.5561C123.931 10.7109 124.715 8.23619 126.701 6.20537C129.102 3.75862 133.019 3.22384 135.859 4.93482C136.201 5.15955 136.529 5.40587 136.841 5.67234C137.149 5.91876 137.446 6.18092 137.748 6.43608M127.615 12.5023C127.615 15.4961 129.767 17.7017 132.676 17.6963C135.585 17.6911 137.747 15.4558 137.738 12.4848C137.73 9.51374 135.551 7.27846 132.659 7.2837C129.765 7.28895 127.611 9.50501 127.615 12.5023Z" fill="var(--fill-0, #D9D9D9)"/>
<path id="Vector_3" d="M80.4351 15.8333L83.2358 17.4971C82.7279 18.2918 82.0753 18.9799 81.3133 19.5244C78.204 21.8155 72.4706 21.6425 69.5705 18.2503C67.744 16.1304 67.2294 13.64 67.6462 10.9258C68.3322 6.58106 71.951 3.70962 76.374 3.94906C80.2929 4.16227 83.3627 7.07565 83.8943 11.0586C83.9849 11.6774 84.0182 12.3035 83.9939 12.9286C83.9823 13.2103 83.8647 13.4764 83.6653 13.6719C83.4659 13.8672 83.2003 13.9766 82.9236 13.9772H71.2341C71.1295 15.0661 72.3077 16.6337 73.6986 17.2978C75.9761 18.3971 78.4045 17.878 80.4351 15.8333ZM80.4711 11.0988C80.2722 9.16064 78.7562 7.21372 76.0961 7.12459C73.5493 7.03721 71.4262 8.73595 71.1483 11.0988H80.4711Z" fill="var(--fill-0, #D9D9D9)"/>
<path id="Vector_4" d="M33.4093 3.93791C38.1667 3.9519 41.8747 7.72514 41.8506 12.526C41.8266 17.3269 38.0982 21.0635 33.3818 21.0511C28.6655 21.039 24.9147 17.2394 24.9267 12.4544C24.9387 7.66922 28.6997 3.92569 33.4093 3.93791ZM33.387 17.6257C36.2321 17.6257 38.3828 15.4324 38.3897 12.512C38.3965 9.59167 36.2613 7.37385 33.4161 7.36512C30.54 7.35464 28.3962 9.54972 28.3997 12.4998C28.403 15.4499 30.5314 17.6239 33.3835 17.6257" fill="var(--fill-0, #D9D9D9)"/>
<path id="Vector_5" d="M99.8407 20.6135H96.4106V11.398C96.4106 11.1918 96.4106 10.982 96.4106 10.7758C96.3507 8.58072 95.0593 7.45521 92.9138 7.39755C90.3412 7.33463 89.1235 8.40421 88.9486 10.5434C88.8513 11.0782 88.7939 11.6198 88.7771 12.1635C88.7668 14.785 88.7771 17.4223 88.7771 20.0508V20.6065H85.5186V9.687C85.4552 6.97809 87.9042 3.94587 92.6273 3.94587C95.9699 3.94587 99.9762 5.19371 99.8442 9.86702C99.8905 13.4305 99.8614 16.9941 99.8614 20.6135" fill="var(--fill-0, #D9D9D9)"/>
<path id="Vector_6" d="M110.961 17.5027V20.6224C109.143 20.7972 107.34 20.9824 105.644 20.1347C104.356 19.4933 103.821 18.3102 103.648 16.9329C103.583 16.3879 103.553 15.8392 103.555 15.2902C103.545 12.9727 103.555 10.6553 103.555 8.33965V7.75767H100.591V6.56749C100.591 5.97329 100.607 5.37907 100.591 4.78486C100.58 4.45629 100.681 4.34094 101.01 4.34969C101.838 4.37066 102.667 4.34969 103.558 4.34969V2.59327C103.558 2.10216 103.546 1.61107 103.569 1.12347C103.573 1.05749 103.592 0.993396 103.625 0.936335C103.658 0.879275 103.703 0.830836 103.757 0.794905C104.584 0.524015 105.419 0.282834 106.289 0.0224293C106.371 -0.0019344 106.458 -0.00652384 106.542 0.00902516C106.626 0.0245728 106.705 0.0598332 106.774 0.112026C106.842 0.164218 106.898 0.231915 106.937 0.309781C106.975 0.387645 106.995 0.473547 106.995 0.560716C106.995 1.66 107.013 2.7593 106.995 3.85858C106.987 4.23959 107.074 4.3829 107.474 4.36542C108.465 4.33745 109.456 4.35667 110.448 4.35667H110.962V6.83839C110.963 6.95459 110.94 7.06968 110.897 7.17708C110.853 7.28447 110.789 7.38205 110.709 7.46421C110.628 7.54638 110.532 7.6115 110.427 7.65587C110.321 7.70023 110.208 7.72295 110.094 7.72272H107.007V15.3007C107.007 15.3898 107.007 15.4755 107.007 15.568C107.037 16.8281 107.482 17.3525 108.722 17.48C109.299 17.5412 109.887 17.4992 110.468 17.5027H110.983" fill="var(--fill-0, #D9D9D9)"/>
<path id="Vector_7" d="M147.626 20.6343C146.597 20.6343 145.602 20.6343 144.599 20.6343C144.486 20.6343 144.374 20.6168 144.235 20.6046V4.38961H147.626V20.6343Z" fill="var(--fill-0, #D9D9D9)"/>
<path id="Vector_8" d="M118.231 20.6745C117.592 20.6724 116.967 20.477 116.437 20.113C115.906 19.7491 115.493 19.2329 115.251 18.6299C115.008 18.0268 114.946 17.364 115.074 16.7252C115.201 16.0864 115.511 15.5005 115.965 15.0414C116.419 14.5823 116.997 14.2709 117.624 14.1464C118.252 14.022 118.902 14.09 119.492 14.3421C120.082 14.5941 120.585 15.0188 120.938 15.5624C121.291 16.106 121.478 16.7441 121.475 17.3958C121.473 17.8283 121.389 18.2563 121.225 18.6552C121.061 19.0542 120.822 19.4163 120.521 19.7209C120.219 20.0254 119.862 20.2665 119.469 20.4302C119.076 20.5937 118.656 20.6768 118.231 20.6745Z" fill="var(--fill-0, #D9D9D9)"/>
<path id="Vector_9" d="M42.8664 8.87063C42.8664 7.33266 44.1423 3.9404 49.3835 3.9404C52.3573 3.9404 54.0141 4.76182 55.0431 6.45009C55.105 6.40461 55.1624 6.3531 55.2146 6.29628C56.415 4.5853 58.4474 3.89322 60.4471 3.94915C63.8771 4.04528 66.2268 6.31551 66.3365 9.8336C66.4462 13.3517 66.3725 16.9046 66.3725 20.4472C66.3646 20.502 66.3514 20.5559 66.333 20.6081H62.9424C62.9338 20.4472 62.9201 20.276 62.9201 20.1046C62.9201 17.0753 62.9201 14.046 62.9201 11.0168C62.9201 10.2391 62.8653 9.47007 62.4965 8.76577C61.9152 7.66298 60.9531 7.22431 59.7782 7.23655C58.5125 7.24877 57.4801 7.73988 56.8627 8.93354C56.422 9.78467 56.3225 10.7109 56.3225 11.6564C56.3225 14.4527 56.3225 17.249 56.3225 20.0452V20.6151H52.8547V20.0907C52.8547 17.0894 52.8547 14.0886 52.8547 11.0884C52.8635 10.643 52.8307 10.1976 52.7569 9.75844C52.3917 7.83599 50.9081 6.88177 49.0302 7.33266C47.5399 7.69268 46.5623 8.85664 46.365 10.5397C46.3147 10.9671 46.2902 11.3972 46.2912 11.8277C46.2912 14.5768 46.2912 17.3259 46.2912 20.0733V20.6272H42.8664V8.87063Z" fill="var(--fill-0, #D9D9D9)"/>
</g>
</svg>
