<svg preserveAspectRatio="none" width="100%" height="100%" overflow="visible" style="display: block;" viewBox="0 0 118.71 1.16078" fill="none" xmlns="http://www.w3.org/2000/svg">
<g id="Group">
<path id="Vector" d="M0 0.489087C0 0.404704 1.02456 0.217345 5.24001 0.217345C7.63111 0.217345 8.96317 0.262619 9.79055 0.355672C9.84093 0.353109 9.88716 0.35017 9.92844 0.346907C10.8938 0.252601 12.5292 0.214456 14.137 0.217538C16.8948 0.222836 18.7826 0.347967 18.8723 0.541875C18.9619 0.735784 18.8998 0.931617 18.904 1.12649C18.8976 1.12951 18.8869 1.13248 18.8723 1.13535H16.142C16.142 1.12649 16.1241 1.11705 16.1241 1.10761C16.1241 0.94064 16.1241 0.773671 16.1241 0.606704C16.1241 0.563838 16.08 0.521454 15.7836 0.482633C15.316 0.42185 14.5425 0.397672 13.5978 0.398346C12.5802 0.39902 11.7486 0.426089 11.2535 0.49188C10.8937 0.538793 10.8178 0.589846 10.8178 0.64196C10.8178 0.796085 10.8178 0.950206 10.8178 1.10434V1.13573H8.031V1.10684C8.031 0.94141 8.031 0.776017 8.031 0.610653C8.03739 0.5861 8.01108 0.56156 7.9524 0.537347C7.65731 0.431386 6.4659 0.378792 4.95595 0.403644C3.75626 0.423487 2.97164 0.487642 2.81305 0.580406C2.77285 0.603967 2.75259 0.627673 2.75238 0.6514C2.75238 0.802958 2.75238 0.954446 2.75238 1.10587V1.13641H0V0.489087Z" fill="var(--fill-0, #D9D9D9)"/>
<path id="Vector_2" d="M110.769 0.354541V0.241837H113.51V1.13538H110.786V1.01246C110.722 1.01531 110.66 1.01853 110.604 1.02209C109.11 1.14732 107.157 1.18094 104.966 1.15002C102.223 1.11148 100.139 0.94272 99.8761 0.747272C99.6595 0.590448 100.29 0.454048 101.887 0.342114C103.817 0.207255 106.967 0.177778 109.25 0.272084C109.525 0.284471 109.789 0.298047 110.039 0.312734C110.288 0.326316 110.526 0.340766 110.769 0.35483M102.622 0.689185C102.622 0.854196 104.352 0.975764 106.691 0.97547C109.03 0.975183 110.768 0.851978 110.761 0.688221C110.754 0.524463 109.003 0.40126 106.677 0.401549C104.351 0.401838 102.619 0.523982 102.622 0.689185Z" fill="var(--fill-0, #D9D9D9)"/>
<path id="Vector_3" d="M64.6808 0.872722L66.9326 0.964429C66.5243 1.00823 65.9995 1.04616 65.3868 1.07617C62.8868 1.20245 58.277 1.19291 55.9451 1.00595C54.4766 0.8891 54.0628 0.751833 54.398 0.602233C54.9495 0.362761 57.8591 0.204494 61.4155 0.217691C64.5664 0.229443 67.0346 0.390022 67.4621 0.609554C67.5349 0.643661 67.5617 0.678169 67.5421 0.712626C67.5328 0.728147 67.4382 0.742818 67.278 0.753591C67.1176 0.764356 66.9041 0.770384 66.6816 0.770422H57.2828C57.1986 0.830436 58.146 0.91684 59.2643 0.953445C61.0955 1.01403 63.0481 0.985425 64.6808 0.872722ZM64.7097 0.61177C64.5498 0.504942 63.3308 0.397632 61.192 0.392719C59.1443 0.387903 57.4372 0.481534 57.2138 0.61177H64.7097Z" fill="var(--fill-0, #D9D9D9)"/>
<path id="Vector_4" d="M26.8657 0.217136C30.6909 0.217907 33.6722 0.42588 33.6529 0.690493C33.6336 0.955107 30.6358 1.16106 26.8436 1.16038C23.0515 1.15971 20.0357 0.950287 20.0454 0.686544C20.055 0.422797 23.079 0.216463 26.8657 0.217136ZM26.8478 0.971577C29.1354 0.971577 30.8646 0.850688 30.8701 0.689723C30.8757 0.528758 29.1588 0.406518 26.8712 0.406036C24.5587 0.405458 22.835 0.526446 22.8378 0.689049C22.8405 0.851653 24.5518 0.971478 26.845 0.971577" fill="var(--fill-0, #D9D9D9)"/>
<path id="Vector_5" d="M80.2797 1.13624H77.5232V0.628298C77.5232 0.616932 77.5232 0.605372 77.5232 0.594006C77.4751 0.473018 76.4373 0.410982 74.7132 0.407804C72.6459 0.404336 71.6673 0.463289 71.5268 0.581194C71.4485 0.610673 71.4024 0.640524 71.3889 0.67049C71.3806 0.814982 71.3889 0.960344 71.3889 1.10522V1.13585H68.7704V0.533993C68.7194 0.384684 70.6874 0.217555 74.483 0.217555C77.1691 0.217555 80.3886 0.286333 80.2825 0.543915C80.3197 0.740329 80.2963 0.936746 80.2963 1.13624" fill="var(--fill-0, #D9D9D9)"/>
<path id="Vector_6" d="M89.223 0.964711V1.13666C87.7626 1.14629 86.3144 1.1565 84.9518 1.10978C83.917 1.07443 83.4871 1.00921 83.3479 0.933305C83.2963 0.903264 83.2715 0.873019 83.2736 0.842759C83.2652 0.715028 83.2736 0.587297 83.2736 0.459663V0.427585H80.8926V0.361985C80.8926 0.329234 80.9051 0.296482 80.8926 0.26373C80.883 0.24562 80.9643 0.239263 81.2289 0.239745C81.8944 0.240901 82.5598 0.239745 83.2763 0.239745V0.142935C83.2763 0.115866 83.2667 0.0887984 83.2846 0.0619231C83.2878 0.0582864 83.3032 0.0547537 83.3296 0.0516087C83.3559 0.0484636 83.3924 0.0457938 83.4362 0.0438134C84.1003 0.0288825 84.7712 0.0155892 85.4698 0.00123625C85.5358 -0.00010662 85.6054 -0.000359579 85.6729 0.000497446C85.7406 0.0013544 85.8045 0.00329787 85.8595 0.00617464C85.9145 0.00905133 85.9592 0.0127826 85.9902 0.0170744C86.021 0.0213661 86.0372 0.0261008 86.0374 0.0309054C86.0374 0.0914955 86.0513 0.152086 86.0374 0.212676C86.0306 0.233676 86.1009 0.241575 86.4219 0.240612C87.2183 0.239071 88.0147 0.24013 88.811 0.24013H89.2244V0.376917C89.2247 0.383321 89.2068 0.389665 89.1717 0.395584C89.1367 0.401503 89.0855 0.406882 89.0206 0.41141C88.9559 0.415939 88.8789 0.419529 88.7942 0.421974C88.7096 0.424419 88.6189 0.425671 88.5272 0.425658H86.0472V0.84334C86.0472 0.848251 86.0472 0.852974 86.0472 0.858074C86.0706 0.927526 86.4288 0.956428 87.4249 0.963459C87.8879 0.966831 88.3605 0.964515 88.8277 0.964711H89.241" fill="var(--fill-0, #D9D9D9)"/>
<path id="Vector_7" d="M118.71 1.13733C117.884 1.13733 117.085 1.13733 116.279 1.13733C116.189 1.13733 116.099 1.13637 115.987 1.1357V0.241962H118.71V1.13733Z" fill="var(--fill-0, #D9D9D9)"/>
<path id="Vector_8" d="M95.0712 1.13954C94.5581 1.13943 94.057 1.12865 93.6312 1.10859C93.2056 1.08853 92.8744 1.06008 92.6797 1.02684C92.4851 0.993602 92.4356 0.957073 92.5377 0.921864C92.6396 0.886655 92.8885 0.854358 93.2529 0.829055C93.6171 0.803752 94.0805 0.786589 94.5842 0.779723C95.0878 0.772866 95.6093 0.776615 96.0826 0.790512C96.5557 0.804401 96.9594 0.82781 97.2426 0.857768C97.5257 0.887734 97.6756 0.922905 97.6731 0.958824C97.6723 0.982663 97.6042 1.00625 97.4728 1.02824C97.3415 1.05023 97.1495 1.07019 96.9078 1.08698C96.6661 1.10376 96.3795 1.11705 96.0643 1.12607C95.7492 1.13509 95.4116 1.13967 95.0712 1.13954Z" fill="var(--fill-0, #D9D9D9)"/>
<path id="Vector_9" d="M34.4722 0.489088C34.4722 0.404318 35.4981 0.217345 39.7122 0.217345C42.1033 0.217345 43.4354 0.262619 44.2628 0.355673C44.3126 0.353166 44.3587 0.350327 44.4007 0.347196C45.3658 0.25289 46.9999 0.214744 48.6078 0.217827C51.3657 0.223125 53.2549 0.348256 53.3431 0.542164C53.4314 0.736073 53.3721 0.931904 53.3721 1.12716C53.3657 1.13018 53.3551 1.13315 53.3403 1.13603H50.6142C50.6072 1.12716 50.5962 1.11773 50.5962 1.10828C50.5962 0.941312 50.5962 0.774343 50.5962 0.607378C50.5962 0.564513 50.5522 0.522128 50.2556 0.483308C49.7882 0.422525 49.0146 0.398346 48.07 0.399021C47.0523 0.399694 46.2223 0.426763 45.7258 0.492555C45.3715 0.539467 45.2914 0.590521 45.2914 0.642635C45.2914 0.796757 45.2914 0.950885 45.2914 1.10501V1.13641H42.5032V1.10751C42.5032 0.942089 42.5032 0.776689 42.5032 0.611328C42.5103 0.586774 42.484 0.562228 42.4246 0.538022C42.1309 0.432061 40.9381 0.379466 39.4282 0.404318C38.2299 0.424162 37.4439 0.488317 37.2852 0.581081C37.2448 0.604639 37.2251 0.628348 37.2259 0.652075C37.2259 0.803599 37.2259 0.955125 37.2259 1.10655V1.13708H34.4722V0.489088Z" fill="var(--fill-0, #D9D9D9)"/>
</g>
</svg>
