<svg preserveAspectRatio="none" width="100%" height="100%" overflow="visible" style="display: block;" viewBox="0 0 17.2553 17.0586" fill="none" xmlns="http://www.w3.org/2000/svg">
<g id="Group">
<path id="Vector" opacity="0.951" fill-rule="evenodd" clip-rule="evenodd" d="M1.21096 0.00766129C1.39453 -0.0134142 1.57289 0.00900368 1.74577 0.0747807C5.2889 3.27409 8.83203 6.47354 12.3752 9.67285C12.4643 7.21185 12.4643 4.75072 12.3752 2.28972C12.0683 1.84714 11.7117 1.44442 11.3055 1.08157C11.241 0.954313 11.2188 0.820074 11.2387 0.678855C13.2442 0.678855 15.2498 0.678855 17.2553 0.678855C17.0161 1.25769 16.6372 1.74995 16.1189 2.15548C16.0743 2.28972 16.0297 2.42396 15.9851 2.5582C15.9183 7.39052 15.896 12.2231 15.9183 17.056C15.6302 17.0732 15.3628 17.006 15.1161 16.8546C11.6747 13.6843 8.22074 10.5297 4.75409 7.39079C4.66491 9.94133 4.66491 12.4919 4.75409 15.0424C5.11068 15.4004 5.46713 15.7583 5.82371 16.1163C5.88923 16.2899 5.91156 16.469 5.89057 16.6533C3.92954 16.6533 1.96865 16.6533 0.00763072 16.6533C-0.0133607 16.469 0.00896775 16.2899 0.0744823 16.1163C0.480672 15.7535 0.837258 15.3507 1.14411 14.9082C1.21096 9.9416 1.23329 4.97476 1.21096 0.00766129Z" fill="var(--fill-0, #D9D9D9)"/>
</g>
</svg>
