<svg preserveAspectRatio="none" width="100%" height="100%" overflow="visible" style="display: block;" viewBox="0 0 100 100" fill="none" xmlns="http://www.w3.org/2000/svg">
<g id="DD  3" clip-path="url(#clip0_13915_49696)">
<g id="Vector">
<path d="M53.4618 0.135742C53.5226 0.139917 53.6342 0.14848 53.7977 0.163086C53.9614 0.177709 54.1174 0.198157 54.2665 0.229492C54.77 0.325593 55.1833 0.536854 55.5106 0.858398C55.838 1.18006 56.0736 1.57694 56.2206 2.04688C56.3675 2.5169 56.4214 3.02704 56.3836 3.57227C56.3459 4.12153 56.2242 4.62057 56.0165 5.06543C55.8087 5.51234 55.5213 5.87175 55.1542 6.14746C54.7868 6.42112 54.3479 6.57441 53.8358 6.60156C53.6847 6.612 53.5268 6.61382 53.3631 6.60547C53.2001 6.59714 53.0891 6.59109 53.0282 6.58691L50.9979 6.45117L50.996 6.45312L51.4325 0L53.4618 0.135742ZM52.0204 5.62598L53.0868 5.69629C53.1896 5.70255 53.3115 5.70885 53.452 5.71094C53.5923 5.71302 53.718 5.71157 53.827 5.70117C54.1607 5.66148 54.4406 5.53605 54.661 5.32715C54.8814 5.11825 55.0513 4.85475 55.1688 4.53516C55.2863 4.21557 55.3575 3.87251 55.3827 3.50488C55.4078 3.12485 55.3832 2.76939 55.3055 2.43945C55.2278 2.10955 55.093 1.82763 54.9042 1.59375C54.7133 1.35996 54.4573 1.20356 54.1385 1.12207C54.0315 1.09492 53.9072 1.07211 53.7645 1.05957C53.6218 1.04495 53.5018 1.03361 53.4032 1.02734L52.3368 0.957031L52.0204 5.62598Z" fill="var(--fill-0, white)"/>
<path d="M53.4618 0.135742C53.5226 0.139917 53.6342 0.14848 53.7977 0.163086C53.9614 0.177709 54.1174 0.198157 54.2665 0.229492C54.77 0.325593 55.1833 0.536854 55.5106 0.858398C55.838 1.18006 56.0736 1.57694 56.2206 2.04688C56.3675 2.5169 56.4214 3.02704 56.3836 3.57227C56.3459 4.12153 56.2242 4.62057 56.0165 5.06543C55.8087 5.51234 55.5213 5.87175 55.1542 6.14746C54.7868 6.42112 54.3479 6.57441 53.8358 6.60156C53.6847 6.612 53.5268 6.61382 53.3631 6.60547C53.2001 6.59714 53.0891 6.59109 53.0282 6.58691L50.9979 6.45117L50.996 6.45312L51.4325 0L53.4618 0.135742ZM52.0204 5.62598L53.0868 5.69629C53.1896 5.70255 53.3115 5.70885 53.452 5.71094C53.5923 5.71302 53.718 5.71157 53.827 5.70117C54.1607 5.66148 54.4406 5.53605 54.661 5.32715C54.8814 5.11825 55.0513 4.85475 55.1688 4.53516C55.2863 4.21557 55.3575 3.87251 55.3827 3.50488C55.4078 3.12485 55.3832 2.76939 55.3055 2.43945C55.2278 2.10955 55.093 1.82763 54.9042 1.59375C54.7133 1.35996 54.4573 1.20356 54.1385 1.12207C54.0315 1.09492 53.9072 1.07211 53.7645 1.05957C53.6218 1.04495 53.5018 1.03361 53.4032 1.02734L52.3368 0.957031L52.0204 5.62598Z" stroke="var(--stroke-0, #090909)"/>
</g>
<g id="Vector_2">
<path d="M62.3515 1.4493L60.8857 7.75008L59.9667 7.53914L61.4316 1.23836L62.3515 1.4493Z" fill="var(--fill-0, white)"/>
<path d="M62.3515 1.4493L60.8857 7.75008L59.9667 7.53914L61.4316 1.23836L62.3515 1.4493Z" stroke="var(--stroke-0, #090909)"/>
</g>
<g id="Vector_3">
<path d="M68.2551 3.33403C68.6349 3.33403 69.0278 3.41543 69.4328 3.57622C69.8379 3.74543 70.1742 3.96508 70.4387 4.23247C70.7051 4.4998 70.8922 4.8067 70.9992 5.15337C71.1063 5.49805 71.1271 5.8724 71.0578 6.27348L70.0569 6.05376C70.1072 5.81151 70.096 5.58149 70.0246 5.3643C69.9533 5.14717 69.8377 4.95517 69.674 4.78813C69.5103 4.62107 69.315 4.48967 69.0842 4.3936C68.8639 4.29757 68.6459 4.2492 68.4319 4.24712C68.2179 4.24503 68.0291 4.28657 67.8654 4.37212C67.7017 4.45776 67.5861 4.58572 67.5168 4.75493C67.4498 4.9218 67.4437 5.07594 67.5002 5.21782C67.5568 5.35972 67.6425 5.4896 67.7619 5.60649C67.8816 5.72347 68.004 5.83071 68.132 5.9268L69.1184 6.68657C69.2421 6.78052 69.3785 6.89756 69.5295 7.03325C69.6806 7.16899 69.8153 7.32996 69.9328 7.51372C70.0503 7.69746 70.1261 7.90658 70.1555 8.14458C70.1849 8.38271 70.1423 8.64622 70.0227 8.93657C69.901 9.23943 69.731 9.47958 69.5149 9.65922C69.2988 9.83881 69.0534 9.96234 68.7785 10.0313C68.5036 10.1002 68.2093 10.1166 67.8987 10.0811C67.5881 10.0456 67.2774 9.96698 66.969 9.8438L66.9651 9.84575C66.5327 9.67236 66.1735 9.43969 65.886 9.15141C65.5985 8.86317 65.3985 8.53546 65.2873 8.16997C65.1761 7.8045 65.1642 7.41606 65.2502 7.00883L66.217 7.23833C66.1603 7.64149 66.2365 8.0055 66.4485 8.32719C66.6583 8.64868 66.9586 8.88835 67.3488 9.04497C67.5923 9.14315 67.8296 9.19397 68.0647 9.20024C68.2996 9.20649 68.5072 9.16227 68.6897 9.0684C68.8721 8.97447 69.0044 8.82817 69.0842 8.62993C69.1283 8.5213 69.1499 8.41854 69.1457 8.32036C69.1415 8.22221 69.1202 8.1278 69.0803 8.04008C69.0404 7.95041 68.9818 7.86472 68.9084 7.7813C68.8329 7.69776 68.7463 7.61638 68.6477 7.53911L67.2883 6.46294C67.1562 6.35855 67.0256 6.24008 66.8977 6.10649C66.7697 5.97284 66.6641 5.82238 66.5822 5.65532C66.5004 5.48831 66.4522 5.30213 66.4416 5.09965C66.4311 4.89703 66.4737 4.67315 66.5744 4.42876C66.7234 4.05909 66.9456 3.78517 67.2414 3.60551C67.5373 3.42593 67.8754 3.33619 68.2551 3.33403Z" fill="var(--fill-0, white)"/>
<path d="M68.2551 3.33403C68.6349 3.33403 69.0278 3.41543 69.4328 3.57622C69.8379 3.74543 70.1742 3.96508 70.4387 4.23247C70.7051 4.4998 70.8922 4.8067 70.9992 5.15337C71.1063 5.49805 71.1271 5.8724 71.0578 6.27348L70.0569 6.05376C70.1072 5.81151 70.096 5.58149 70.0246 5.3643C69.9533 5.14717 69.8377 4.95517 69.674 4.78813C69.5103 4.62107 69.315 4.48967 69.0842 4.3936C68.8639 4.29757 68.6459 4.2492 68.4319 4.24712C68.2179 4.24503 68.0291 4.28657 67.8654 4.37212C67.7017 4.45776 67.5861 4.58572 67.5168 4.75493C67.4498 4.9218 67.4437 5.07594 67.5002 5.21782C67.5568 5.35972 67.6425 5.4896 67.7619 5.60649C67.8816 5.72347 68.004 5.83071 68.132 5.9268L69.1184 6.68657C69.2421 6.78052 69.3785 6.89756 69.5295 7.03325C69.6806 7.16899 69.8153 7.32996 69.9328 7.51372C70.0503 7.69746 70.1261 7.90658 70.1555 8.14458C70.1849 8.38271 70.1423 8.64622 70.0227 8.93657C69.901 9.23943 69.731 9.47958 69.5149 9.65922C69.2988 9.83881 69.0534 9.96234 68.7785 10.0313C68.5036 10.1002 68.2093 10.1166 67.8987 10.0811C67.5881 10.0456 67.2774 9.96698 66.969 9.8438L66.9651 9.84575C66.5327 9.67236 66.1735 9.43969 65.886 9.15141C65.5985 8.86317 65.3985 8.53546 65.2873 8.16997C65.1761 7.8045 65.1642 7.41606 65.2502 7.00883L66.217 7.23833C66.1603 7.64149 66.2365 8.0055 66.4485 8.32719C66.6583 8.64868 66.9586 8.88835 67.3488 9.04497C67.5923 9.14315 67.8296 9.19397 68.0647 9.20024C68.2996 9.20649 68.5072 9.16227 68.6897 9.0684C68.8721 8.97447 69.0044 8.82817 69.0842 8.62993C69.1283 8.5213 69.1499 8.41854 69.1457 8.32036C69.1415 8.22221 69.1202 8.1278 69.0803 8.04008C69.0404 7.95041 68.9818 7.86472 68.9084 7.7813C68.8329 7.69776 68.7463 7.61638 68.6477 7.53911L67.2883 6.46294C67.1562 6.35855 67.0256 6.24008 66.8977 6.10649C66.7697 5.97284 66.6641 5.82238 66.5822 5.65532C66.5004 5.48831 66.4522 5.30213 66.4416 5.09965C66.4311 4.89703 66.4737 4.67315 66.5744 4.42876C66.7234 4.05909 66.9456 3.78517 67.2414 3.60551C67.5373 3.42593 67.8754 3.33619 68.2551 3.33403Z" stroke="var(--stroke-0, #090909)"/>
</g>
<g id="Vector_4">
<path d="M76.8595 7.76647C77.3967 7.78326 77.9384 7.96975 78.4777 8.32897C79.1008 8.74249 79.5146 9.23938 79.714 9.82409C79.9134 10.409 79.917 11.0219 79.7218 11.659L78.7843 11.3456C78.9312 10.8986 78.9395 10.4805 78.8136 10.0878C78.6877 9.69503 78.4098 9.3561 77.9816 9.07409C77.5977 8.82157 77.2221 8.69602 76.8507 8.69811C76.4793 8.7002 76.1268 8.81551 75.7931 9.03893C75.4573 9.26245 75.153 9.58053 74.8781 9.99206C74.6011 10.4015 74.4224 10.8043 74.3468 11.1991C74.2692 11.5939 74.3029 11.962 74.4435 12.3046C74.5863 12.647 74.8488 12.9434 75.2306 13.1981C75.6588 13.4822 76.0808 13.6039 76.4943 13.5663C76.9077 13.5286 77.292 13.3565 77.6466 13.0516L78.3009 13.7919C77.7868 14.2179 77.2179 14.4513 76.5988 14.493C75.9796 14.5369 75.358 14.3518 74.7326 13.9403H74.7306C74.1891 13.5831 73.8076 13.1585 73.5851 12.6717C73.3605 12.1851 73.2886 11.6629 73.3683 11.1073C73.4481 10.5517 73.6727 9.99797 74.0441 9.4403C74.4156 8.88463 74.8424 8.46296 75.3273 8.17467C75.81 7.88643 76.3201 7.74976 76.8595 7.76647Z" fill="var(--fill-0, white)"/>
<path d="M76.8595 7.76647C77.3967 7.78326 77.9384 7.96975 78.4777 8.32897C79.1008 8.74249 79.5146 9.23938 79.714 9.82409C79.9134 10.409 79.917 11.0219 79.7218 11.659L78.7843 11.3456C78.9312 10.8986 78.9395 10.4805 78.8136 10.0878C78.6877 9.69503 78.4098 9.3561 77.9816 9.07409C77.5977 8.82157 77.2221 8.69602 76.8507 8.69811C76.4793 8.7002 76.1268 8.81551 75.7931 9.03893C75.4573 9.26245 75.153 9.58053 74.8781 9.99206C74.6011 10.4015 74.4224 10.8043 74.3468 11.1991C74.2692 11.5939 74.3029 11.962 74.4435 12.3046C74.5863 12.647 74.8488 12.9434 75.2306 13.1981C75.6588 13.4822 76.0808 13.6039 76.4943 13.5663C76.9077 13.5286 77.292 13.3565 77.6466 13.0516L78.3009 13.7919C77.7868 14.2179 77.2179 14.4513 76.5988 14.493C75.9796 14.5369 75.358 14.3518 74.7326 13.9403H74.7306C74.1891 13.5831 73.8076 13.1585 73.5851 12.6717C73.3605 12.1851 73.2886 11.6629 73.3683 11.1073C73.4481 10.5517 73.6727 9.99797 74.0441 9.4403C74.4156 8.88463 74.8424 8.46296 75.3273 8.17467C75.81 7.88643 76.3201 7.74976 76.8595 7.76647Z" stroke="var(--stroke-0, #090909)"/>
</g>
<g id="Vector_5">
<path d="M83.6032 14.2673C84.1363 14.0856 84.6634 14.0588 85.1881 14.1863C85.7106 14.3137 86.1997 14.6084 86.653 15.072C87.1041 15.5315 87.3899 16.0243 87.5075 16.5486C87.625 17.0729 87.5845 17.5975 87.3893 18.1218C87.1941 18.646 86.8562 19.1434 86.3756 19.6091C85.895 20.0749 85.389 20.401 84.858 20.5828C84.3273 20.7643 83.7986 20.7911 83.2741 20.6638C82.7493 20.5364 82.2616 20.2396 81.8082 19.78H81.8102C81.355 19.3186 81.0723 18.8256 80.9547 18.3015C80.8393 17.7793 80.8767 17.2526 81.0719 16.7283C81.2671 16.2019 81.603 15.7069 82.0836 15.239C82.5643 14.7732 83.07 14.447 83.6032 14.2673ZM84.9889 15.0886C84.6279 15.0155 84.2582 15.0553 83.8825 15.2078C83.5069 15.3602 83.1396 15.6085 82.7829 15.9509C82.4261 16.2934 82.1678 16.6488 82.0104 17.0164C81.853 17.3839 81.8066 17.7496 81.8737 18.113C81.9408 18.4765 82.1337 18.824 82.4528 19.154V19.156C82.7697 19.4881 83.1102 19.6884 83.4733 19.7615C83.8362 19.8324 84.2053 19.7926 84.5788 19.6423C84.9545 19.4919 85.3197 19.243 85.6745 18.8962C86.0292 18.5516 86.2854 18.1946 86.445 17.8269C86.6045 17.4593 86.6506 17.0935 86.5856 16.7322C86.5205 16.3709 86.3274 16.0239 86.0084 15.696C85.6917 15.3641 85.3518 15.1618 84.9889 15.0886Z" fill="var(--fill-0, white)"/>
<path d="M83.6032 14.2673C84.1363 14.0856 84.6634 14.0588 85.1881 14.1863C85.7106 14.3137 86.1997 14.6084 86.653 15.072C87.1041 15.5315 87.3899 16.0243 87.5075 16.5486C87.625 17.0729 87.5845 17.5975 87.3893 18.1218C87.1941 18.646 86.8562 19.1434 86.3756 19.6091C85.895 20.0749 85.389 20.401 84.858 20.5828C84.3273 20.7643 83.7986 20.7911 83.2741 20.6638C82.7493 20.5364 82.2616 20.2396 81.8082 19.78H81.8102C81.355 19.3186 81.0723 18.8256 80.9547 18.3015C80.8393 17.7793 80.8767 17.2526 81.0719 16.7283C81.2671 16.2019 81.603 15.7069 82.0836 15.239C82.5643 14.7732 83.07 14.447 83.6032 14.2673ZM84.9889 15.0886C84.6279 15.0155 84.2582 15.0553 83.8825 15.2078C83.5069 15.3602 83.1396 15.6085 82.7829 15.9509C82.4261 16.2934 82.1678 16.6488 82.0104 17.0164C81.853 17.3839 81.8066 17.7496 81.8737 18.113C81.9408 18.4765 82.1337 18.824 82.4528 19.154V19.156C82.7697 19.4881 83.1102 19.6884 83.4733 19.7615C83.8362 19.8324 84.2053 19.7926 84.5788 19.6423C84.9545 19.4919 85.3197 19.243 85.6745 18.8962C86.0292 18.5516 86.2854 18.1946 86.445 17.8269C86.6045 17.4593 86.6506 17.0935 86.5856 16.7322C86.5205 16.3709 86.3274 16.0239 86.0084 15.696C85.6917 15.3641 85.3518 15.1618 84.9889 15.0886Z" stroke="var(--stroke-0, #090909)"/>
</g>
<g id="Vector_6">
<path d="M91.722 21.2869L88.0677 25.8094L93.7073 24.3055L94.2425 25.1209L87.6478 26.9022L86.9046 25.7713L91.1868 20.4725L91.722 21.2869Z" fill="var(--fill-0, white)"/>
<path d="M91.722 21.2869L88.0677 25.8094L93.7073 24.3055L94.2425 25.1209L87.6478 26.9022L86.9046 25.7713L91.1868 20.4725L91.722 21.2869Z" stroke="var(--stroke-0, #090909)"/>
</g>
<g id="Vector_7">
<path d="M97.9113 33L97.091 33.3389L95.8606 30.3887L94.1779 31.085L95.1994 33.5352L94.3791 33.8731L93.3547 31.4229L91.5012 32.1895L92.7317 35.1397L91.9104 35.4776L90.3186 31.6641L96.3186 29.1836L97.9113 33Z" fill="var(--fill-0, white)"/>
<path d="M97.9113 33L97.091 33.3389L95.8606 30.3887L94.1779 31.085L95.1994 33.5352L94.3791 33.8731L93.3547 31.4229L91.5012 32.1895L92.7317 35.1397L91.9104 35.4776L90.3186 31.6641L96.3186 29.1836L97.9113 33Z" stroke="var(--stroke-0, #090909)"/>
</g>
<g id="Vector_8">
<path d="M99.9309 40.3067C99.9435 40.3672 99.9582 40.4452 99.9729 40.5371C99.9876 40.6288 99.9962 40.7163 99.9983 40.8018C100.015 41.1652 99.956 41.4852 99.8196 41.7588C99.6832 42.0324 99.4859 42.2582 99.2278 42.4336C98.9697 42.6091 98.6695 42.7327 98.3274 42.8037C97.8216 42.9082 97.3576 42.8702 96.9358 42.6885C96.6554 42.5671 96.4248 42.3738 96.2424 42.1114L94.0266 43.8184L93.8059 42.7676L93.8079 42.7656L95.8606 41.1924L95.5081 39.5088L93.2249 39.9815L93.0315 39.0625L93.0335 39.0645L99.3958 37.7481L99.9309 40.3067ZM96.388 39.3291H96.386L96.721 40.9336C96.7335 40.9921 96.7508 41.057 96.7717 41.128C96.7927 41.1988 96.8178 41.2636 96.845 41.3262C96.9289 41.5036 97.0423 41.6398 97.1848 41.7276C97.3276 41.8174 97.4839 41.872 97.6497 41.8887C97.8153 41.9053 97.9768 41.8986 98.134 41.8653C98.2893 41.8318 98.4405 41.7758 98.5852 41.6944C98.73 41.6129 98.8501 41.5022 98.9446 41.3643C99.0411 41.2243 99.0887 41.0567 99.095 40.8604C99.0992 40.7915 99.0956 40.7225 99.0872 40.6494C99.0788 40.5764 99.0685 40.5096 99.0559 40.4512L98.72 38.8467L96.388 39.3291Z" fill="var(--fill-0, white)"/>
<path d="M99.9309 40.3067C99.9435 40.3672 99.9582 40.4452 99.9729 40.5371C99.9876 40.6288 99.9962 40.7163 99.9983 40.8018C100.015 41.1652 99.956 41.4852 99.8196 41.7588C99.6832 42.0324 99.4859 42.2582 99.2278 42.4336C98.9697 42.6091 98.6695 42.7327 98.3274 42.8037C97.8216 42.9082 97.3576 42.8702 96.9358 42.6885C96.6554 42.5671 96.4248 42.3738 96.2424 42.1114L94.0266 43.8184L93.8059 42.7676L93.8079 42.7656L95.8606 41.1924L95.5081 39.5088L93.2249 39.9815L93.0315 39.0625L93.0335 39.0645L99.3958 37.7481L99.9309 40.3067ZM96.388 39.3291H96.386L96.721 40.9336C96.7335 40.9921 96.7508 41.057 96.7717 41.128C96.7927 41.1988 96.8178 41.2636 96.845 41.3262C96.9289 41.5036 97.0423 41.6398 97.1848 41.7276C97.3276 41.8174 97.4839 41.872 97.6497 41.8887C97.8153 41.9053 97.9768 41.8986 98.134 41.8653C98.2893 41.8318 98.4405 41.7758 98.5852 41.6944C98.73 41.6129 98.8501 41.5022 98.9446 41.3643C99.0411 41.2243 99.0887 41.0567 99.095 40.8604C99.0992 40.7915 99.0956 40.7225 99.0872 40.6494C99.0788 40.5764 99.0685 40.5096 99.0559 40.4512L98.72 38.8467L96.388 39.3291Z" stroke="var(--stroke-0, #090909)"/>
</g>
<g id="Vector_9">
<path d="M97.628 52.2334L97.4395 54.9229L96.6836 54.8702L96.8721 52.1817L97.628 52.2334Z" fill="var(--fill-0, white)"/>
<path d="M97.628 52.2334L97.4395 54.9229L96.6836 54.8702L96.8721 52.1817L97.628 52.2334Z" stroke="var(--stroke-0, #090909)"/>
</g>
<g id="Vector_10">
<path d="M98.705 65.2243L98.0038 67.1256C97.9828 67.1821 97.9434 67.2867 97.8847 67.4391C97.8259 67.5914 97.7607 67.7333 97.6874 67.8668C97.4523 68.3201 97.1352 68.6591 96.7323 68.8805C96.3293 69.1019 95.8819 69.2169 95.3866 69.2252C94.8913 69.2336 94.3853 69.1417 93.869 68.9538C93.3485 68.7637 92.9038 68.5061 92.5302 68.1823C92.1586 67.8585 91.8899 67.4826 91.7304 67.0543C91.5688 66.6261 91.5456 66.1646 91.661 65.6696C91.6925 65.5213 91.7365 65.371 91.7889 65.2164C91.8414 65.062 91.8793 64.9575 91.9003 64.901L92.6014 62.9997L92.6034 62.9977L98.705 65.2243ZM92.746 65.2057C92.7103 65.3018 92.6729 65.4168 92.6288 65.5504C92.5847 65.6841 92.553 65.8052 92.5341 65.9118C92.4795 66.2418 92.5214 66.5427 92.662 66.8122C92.8026 67.0815 93.0083 67.3176 93.2831 67.5202C93.5581 67.7228 93.8692 67.888 94.2177 68.0133C94.5764 68.1448 94.9266 68.2201 95.2665 68.2389C95.6064 68.2577 95.9172 68.2093 96.1942 68.0924C96.4734 67.9754 96.6962 67.7748 96.8641 67.4928C96.9208 67.3989 96.9777 67.2864 97.0302 67.1549C97.0826 67.0233 97.1263 66.9099 97.162 66.818L97.5292 65.82L93.1151 64.2096L93.1132 64.2077L92.746 65.2057Z" fill="var(--fill-0, white)"/>
<path d="M98.705 65.2243L98.0038 67.1256C97.9828 67.1821 97.9434 67.2867 97.8847 67.4391C97.8259 67.5914 97.7607 67.7333 97.6874 67.8668C97.4523 68.3201 97.1352 68.6591 96.7323 68.8805C96.3293 69.1019 95.8819 69.2169 95.3866 69.2252C94.8913 69.2336 94.3853 69.1417 93.869 68.9538C93.3485 68.7637 92.9038 68.5061 92.5302 68.1823C92.1586 67.8585 91.8899 67.4826 91.7304 67.0543C91.5688 66.6261 91.5456 66.1646 91.661 65.6696C91.6925 65.5213 91.7365 65.371 91.7889 65.2164C91.8414 65.062 91.8793 64.9575 91.9003 64.901L92.6014 62.9997L92.6034 62.9977L98.705 65.2243ZM92.746 65.2057C92.7103 65.3018 92.6729 65.4168 92.6288 65.5504C92.5847 65.6841 92.553 65.8052 92.5341 65.9118C92.4795 66.2418 92.5214 66.5427 92.662 66.8122C92.8026 67.0815 93.0083 67.3176 93.2831 67.5202C93.5581 67.7228 93.8692 67.888 94.2177 68.0133C94.5764 68.1448 94.9266 68.2201 95.2665 68.2389C95.6064 68.2577 95.9172 68.2093 96.1942 68.0924C96.4734 67.9754 96.6962 67.7748 96.8641 67.4928C96.9208 67.3989 96.9777 67.2864 97.0302 67.1549C97.0826 67.0233 97.1263 66.9099 97.162 66.818L97.5292 65.82L93.1151 64.2096L93.1132 64.2077L92.746 65.2057Z" stroke="var(--stroke-0, #090909)"/>
</g>
<g id="Vector_11">
<path d="M94.6957 74.5143L92.5463 78.0485L91.7865 77.5914L93.4466 74.859L91.8881 73.9186L90.5062 76.1901L89.7465 75.7321L91.1273 73.4616L89.4086 72.4274L87.7484 75.1598L86.9886 74.7028L89.1361 71.1676L94.6957 74.5143Z" fill="var(--fill-0, white)"/>
<path d="M94.6957 74.5143L92.5463 78.0485L91.7865 77.5914L93.4466 74.859L91.8881 73.9186L90.5062 76.1901L89.7465 75.7321L91.1273 73.4616L89.4086 72.4274L87.7484 75.1598L86.9886 74.7028L89.1361 71.1676L94.6957 74.5143Z" stroke="var(--stroke-0, #090909)"/>
</g>
<g id="Vector_12">
<path d="M89.6128 81.9822L87.0805 84.8699L86.3696 84.2527L88.2797 82.074L86.8979 80.8758L85.3432 82.6492L84.6294 82.0281L86.185 80.2547L84.0942 78.4392L84.7133 77.7312L84.7153 77.7293L89.6128 81.9822Z" fill="var(--fill-0, white)"/>
<path d="M89.6128 81.9822L87.0805 84.8699L86.3696 84.2527L88.2797 82.074L86.8979 80.8758L85.3432 82.6492L84.6294 82.0281L86.185 80.2547L84.0942 78.4392L84.7133 77.7312L84.7153 77.7293L89.6128 81.9822Z" stroke="var(--stroke-0, #090909)"/>
</g>
<g id="Vector_13">
<path d="M83.7483 87.9964L83.0345 88.6087L78.7923 83.7103L79.5061 83.098L83.7483 87.9964Z" fill="var(--fill-0, white)"/>
<path d="M83.7483 87.9964L83.0345 88.6087L78.7923 83.7103L79.5061 83.098L83.7483 87.9964Z" stroke="var(--stroke-0, #090909)"/>
</g>
<g id="Vector_14">
<path d="M75.5932 86.2439L78.9897 91.7565L78.1733 92.2536L72.9213 89.82L75.4448 93.9167L74.6284 94.4138L71.2319 88.9011L72.0483 88.404L77.3022 90.8396L74.7748 86.739L75.5912 86.2419L75.5932 86.2439Z" fill="var(--fill-0, white)"/>
<path d="M75.5932 86.2439L78.9897 91.7565L78.1733 92.2536L72.9213 89.82L75.4448 93.9167L74.6284 94.4138L71.2319 88.9011L72.0483 88.404L77.3022 90.8396L74.7748 86.739L75.5912 86.2419L75.5932 86.2439Z" stroke="var(--stroke-0, #090909)"/>
</g>
<g id="Vector_15">
<path d="M69.9218 96.6387L66.0302 98.0801L65.7197 97.251L68.7275 96.1367L68.0917 94.4365L65.5917 95.3623L65.2812 94.5332L67.7812 93.6074L67.08 91.7334L64.0722 92.8467L63.7617 92.0176L67.6533 90.5762H67.6572L69.9218 96.6387Z" fill="var(--fill-0, white)"/>
<path d="M69.9218 96.6387L66.0302 98.0801L65.7197 97.251L68.7275 96.1367L68.0917 94.4365L65.5917 95.3623L65.2812 94.5332L67.7812 93.6074L67.08 91.7334L64.0722 92.8467L63.7617 92.0176L67.6533 90.5762H67.6572L69.9218 96.6387Z" stroke="var(--stroke-0, #090909)"/>
</g>
<g id="Vector_16">
<path d="M55.887 96.9207L53.1897 97.1502L53.1243 96.3983L55.8215 96.1688L55.887 96.9207Z" fill="var(--fill-0, white)"/>
<path d="M55.887 96.9207L53.1897 97.1502L53.1243 96.3983L55.8215 96.1688L55.887 96.9207Z" stroke="var(--stroke-0, #090909)"/>
</g>
<g id="Vector_17">
<path d="M41.6238 93.148C41.775 93.1564 41.9329 93.1756 42.0945 93.2027C42.2558 93.2319 42.3647 93.2508 42.4256 93.2633L44.4236 93.652L44.4197 93.6539L43.1707 100.001L41.1727 99.6119C41.1139 99.6015 41.005 99.576 40.8436 99.5426C40.684 99.5092 40.5302 99.4677 40.3875 99.4176C39.9007 99.2588 39.5165 98.9996 39.2332 98.6383C38.95 98.277 38.7654 97.8551 38.6815 97.3707C38.5954 96.8861 38.6057 96.3734 38.7127 95.8365C38.8198 95.2956 39.0051 94.8177 39.2674 94.4C39.5298 93.9822 39.8608 93.6598 40.2596 93.4342C40.6583 93.2086 41.1139 93.1126 41.6238 93.148ZM41.5145 94.0445C41.1788 94.0446 40.8869 94.1325 40.6414 94.3121C40.396 94.4917 40.1943 94.732 40.0369 95.0348C39.8796 95.3355 39.7644 95.6677 39.6951 96.0289C39.6217 96.4027 39.603 96.758 39.6365 97.0963C39.6722 97.4347 39.769 97.7321 39.9285 97.9869C40.088 98.2414 40.3206 98.4293 40.6287 98.5504C40.7315 98.5921 40.8515 98.6275 40.992 98.6588C41.1305 98.6901 41.2509 98.7152 41.3475 98.734L42.3963 98.9391L43.3016 94.3453H43.2986L42.2498 94.1402C42.1491 94.1214 42.0291 94.1006 41.8885 94.0797C41.7479 94.0588 41.6236 94.0466 41.5145 94.0445Z" fill="var(--fill-0, white)"/>
<path d="M41.6238 93.148C41.775 93.1564 41.9329 93.1756 42.0945 93.2027C42.2558 93.2319 42.3647 93.2508 42.4256 93.2633L44.4236 93.652L44.4197 93.6539L43.1707 100.001L41.1727 99.6119C41.1139 99.6015 41.005 99.576 40.8436 99.5426C40.684 99.5092 40.5302 99.4677 40.3875 99.4176C39.9007 99.2588 39.5165 98.9996 39.2332 98.6383C38.95 98.277 38.7654 97.8551 38.6815 97.3707C38.5954 96.8861 38.6057 96.3734 38.7127 95.8365C38.8198 95.2956 39.0051 94.8177 39.2674 94.4C39.5298 93.9822 39.8608 93.6598 40.2596 93.4342C40.6583 93.2086 41.1139 93.1126 41.6238 93.148ZM41.5145 94.0445C41.1788 94.0446 40.8869 94.1325 40.6414 94.3121C40.396 94.4917 40.1943 94.732 40.0369 95.0348C39.8796 95.3355 39.7644 95.6677 39.6951 96.0289C39.6217 96.4027 39.603 96.758 39.6365 97.0963C39.6722 97.4347 39.769 97.7321 39.9285 97.9869C40.088 98.2414 40.3206 98.4293 40.6287 98.5504C40.7315 98.5921 40.8515 98.6275 40.992 98.6588C41.1305 98.6901 41.2509 98.7152 41.3475 98.734L42.3963 98.9391L43.3016 94.3453H43.2986L42.2498 94.1402C42.1491 94.1214 42.0291 94.1006 41.8885 94.0797C41.7479 94.0588 41.6236 94.0466 41.5145 94.0445Z" stroke="var(--stroke-0, #090909)"/>
</g>
<g id="Vector_18">
<path d="M35.7737 91.5366L33.3274 97.5268L29.4817 95.9701L29.8176 95.1508L32.7893 96.3539L33.4758 94.6723L31.0051 93.6723L31.3411 92.853L33.8118 93.8539L34.5676 92.0033L31.595 90.8002L31.9309 89.9809L35.7737 91.5366Z" fill="var(--fill-0, white)"/>
<path d="M35.7737 91.5366L33.3274 97.5268L29.4817 95.9701L29.8176 95.1508L32.7893 96.3539L33.4758 94.6723L31.0051 93.6723L31.3411 92.853L33.8118 93.8539L34.5676 92.0033L31.595 90.8002L31.9309 89.9809L35.7737 91.5366Z" stroke="var(--stroke-0, #090909)"/>
</g>
<g id="Vector_19">
<path d="M25.2122 86.5388C25.4956 86.5221 25.788 86.5574 26.0882 86.6472C26.3882 86.737 26.6781 86.871 26.9593 87.0485L26.9612 87.0525C27.3558 87.301 27.6659 87.5942 27.8968 87.9284C28.1276 88.2626 28.2648 88.6215 28.3089 89.0017C28.353 89.3819 28.2936 89.7667 28.1341 90.1511L27.2229 89.7517C27.351 89.3652 27.3427 88.9955 27.1936 88.6403C27.0446 88.2854 26.7933 87.9968 26.4388 87.7712C26.2184 87.6312 25.9908 87.5379 25.762 87.4919C25.5333 87.4439 25.3194 87.45 25.1243 87.5085C24.9292 87.567 24.772 87.6881 24.6565 87.8698C24.5937 87.9679 24.556 88.0658 24.5413 88.1638C24.5266 88.262 24.5329 88.3588 24.556 88.4528C24.5791 88.5467 24.6205 88.6431 24.677 88.739C24.7358 88.835 24.8051 88.9292 24.889 89.0232L26.0315 90.3239C26.1427 90.4512 26.2492 90.5914 26.3499 90.7458C26.4506 90.9004 26.5269 91.0681 26.5794 91.2478C26.6297 91.4273 26.6438 91.6176 26.6165 91.82C26.5913 92.0226 26.5072 92.2333 26.3645 92.4567C26.1505 92.793 25.8821 93.0229 25.5589 93.1462C25.2358 93.2694 24.8874 93.299 24.514 93.2302C24.1403 93.1633 23.768 93.013 23.4007 92.779C23.0335 92.5388 22.7436 92.2651 22.5296 91.9519C22.3156 91.6386 22.1899 91.3042 22.1458 90.945C22.1017 90.5857 22.1497 90.2131 22.2903 89.8308L23.2356 90.2263C23.1434 90.456 23.1116 90.6834 23.1409 90.9089C23.1703 91.1345 23.2501 91.3455 23.3802 91.5398C23.5103 91.734 23.6781 91.8971 23.888 92.0329C24.0874 92.1666 24.2932 92.254 24.5052 92.2937C24.7149 92.3354 24.91 92.3274 25.0862 92.2732C25.2625 92.2168 25.3997 92.1122 25.4983 91.9597C25.5948 91.8073 25.6283 91.6567 25.5989 91.5085C25.5695 91.3581 25.506 91.2157 25.4095 91.0778C25.3131 90.9402 25.2126 90.8149 25.1058 90.696L24.2747 89.7702C24.1698 89.6554 24.0557 89.516 23.9319 89.3552C23.8081 89.1943 23.7053 89.0119 23.6214 88.8093C23.5375 88.6088 23.5022 88.3872 23.5169 88.1491C23.5317 87.9111 23.6215 87.6584 23.7893 87.3933C23.9657 87.1175 24.1758 86.911 24.4192 86.7732C24.6647 86.6353 24.929 86.5576 25.2122 86.5388Z" fill="var(--fill-0, white)"/>
<path d="M25.2122 86.5388C25.4956 86.5221 25.788 86.5574 26.0882 86.6472C26.3882 86.737 26.6781 86.871 26.9593 87.0485L26.9612 87.0525C27.3558 87.301 27.6659 87.5942 27.8968 87.9284C28.1276 88.2626 28.2648 88.6215 28.3089 89.0017C28.353 89.3819 28.2936 89.7667 28.1341 90.1511L27.2229 89.7517C27.351 89.3652 27.3427 88.9955 27.1936 88.6403C27.0446 88.2854 26.7933 87.9968 26.4388 87.7712C26.2184 87.6312 25.9908 87.5379 25.762 87.4919C25.5333 87.4439 25.3194 87.45 25.1243 87.5085C24.9292 87.567 24.772 87.6881 24.6565 87.8698C24.5937 87.9679 24.556 88.0658 24.5413 88.1638C24.5266 88.262 24.5329 88.3588 24.556 88.4528C24.5791 88.5467 24.6205 88.6431 24.677 88.739C24.7358 88.835 24.8051 88.9292 24.889 89.0232L26.0315 90.3239C26.1427 90.4512 26.2492 90.5914 26.3499 90.7458C26.4506 90.9004 26.5269 91.0681 26.5794 91.2478C26.6297 91.4273 26.6438 91.6176 26.6165 91.82C26.5913 92.0226 26.5072 92.2333 26.3645 92.4567C26.1505 92.793 25.8821 93.0229 25.5589 93.1462C25.2358 93.2694 24.8874 93.299 24.514 93.2302C24.1403 93.1633 23.768 93.013 23.4007 92.779C23.0335 92.5388 22.7436 92.2651 22.5296 91.9519C22.3156 91.6386 22.1899 91.3042 22.1458 90.945C22.1017 90.5857 22.1497 90.2131 22.2903 89.8308L23.2356 90.2263C23.1434 90.456 23.1116 90.6834 23.1409 90.9089C23.1703 91.1345 23.2501 91.3455 23.3802 91.5398C23.5103 91.734 23.6781 91.8971 23.888 92.0329C24.0874 92.1666 24.2932 92.254 24.5052 92.2937C24.7149 92.3354 24.91 92.3274 25.0862 92.2732C25.2625 92.2168 25.3997 92.1122 25.4983 91.9597C25.5948 91.8073 25.6283 91.6567 25.5989 91.5085C25.5695 91.3581 25.506 91.2157 25.4095 91.0778C25.3131 90.9402 25.2126 90.8149 25.1058 90.696L24.2747 89.7702C24.1698 89.6554 24.0557 89.516 23.9319 89.3552C23.8081 89.1943 23.7053 89.0119 23.6214 88.8093C23.5375 88.6088 23.5022 88.3872 23.5169 88.1491C23.5317 87.9111 23.6215 87.6584 23.7893 87.3933C23.9657 87.1175 24.1758 86.911 24.4192 86.7732C24.6647 86.6353 24.929 86.5576 25.2122 86.5388Z" stroke="var(--stroke-0, #090909)"/>
</g>
<g id="Vector_20">
<path d="M21.8485 83.4442L17.5594 88.3036L16.8504 87.6854L21.1385 82.826L21.8485 83.4442Z" fill="var(--fill-0, white)"/>
<path d="M21.8485 83.4442L17.5594 88.3036L16.8504 87.6854L21.1385 82.826L21.8485 83.4442Z" stroke="var(--stroke-0, #090909)"/>
</g>
<g id="Vector_21">
<path d="M13.7589 76.8351C14.2708 76.714 14.7701 76.7391 15.2589 76.9103C15.7478 77.0794 16.1911 77.4074 16.5919 77.8898L16.5899 77.8966C16.867 78.2329 17.0624 78.5879 17.1778 78.9659C17.2933 79.344 17.3242 79.7304 17.2696 80.1232C17.2172 80.5159 17.0744 80.9022 16.8478 81.2823C16.6211 81.6625 16.3002 82.0202 15.8888 82.3566C15.3475 82.7992 14.7998 83.0811 14.2501 83.2023C13.6981 83.3234 13.1725 83.2968 12.673 83.1193C12.1735 82.9417 11.7371 82.6255 11.3614 82.1681C10.8767 81.5812 10.6271 80.9983 10.6124 80.424C10.5977 79.8495 10.7784 79.2997 11.1583 78.7775L11.8966 79.4044C11.6804 79.7511 11.5777 80.1106 11.586 80.4845C11.5944 80.8584 11.7395 81.216 12.0187 81.5607C12.3083 81.9157 12.6319 82.1457 12.9845 82.2501C13.3391 82.3544 13.7086 82.3457 14.0968 82.2267C14.4829 82.1076 14.8689 81.8924 15.255 81.5812C15.6412 81.2699 15.9294 80.9381 16.1183 80.5851C16.3071 80.2321 16.3844 79.8727 16.3487 79.5031C16.3131 79.1354 16.1511 78.7713 15.8614 78.4161C15.6306 78.1281 15.3768 77.9275 15.0978 77.8126C14.8187 77.6978 14.5227 77.6685 14.2101 77.7228C13.8973 77.7771 13.5696 77.9155 13.2296 78.1349L14.0314 79.1056L13.4454 79.5841L12.0079 77.8419C12.0457 77.8022 12.098 77.7539 12.1651 77.6954C12.232 77.6372 12.2741 77.5998 12.2931 77.5851C12.759 77.2049 13.2468 76.9542 13.7589 76.8351Z" fill="var(--fill-0, white)"/>
<path d="M13.7589 76.8351C14.2708 76.714 14.7701 76.7391 15.2589 76.9103C15.7478 77.0794 16.1911 77.4074 16.5919 77.8898L16.5899 77.8966C16.867 78.2329 17.0624 78.5879 17.1778 78.9659C17.2933 79.344 17.3242 79.7304 17.2696 80.1232C17.2172 80.5159 17.0744 80.9022 16.8478 81.2823C16.6211 81.6625 16.3002 82.0202 15.8888 82.3566C15.3475 82.7992 14.7998 83.0811 14.2501 83.2023C13.6981 83.3234 13.1725 83.2968 12.673 83.1193C12.1735 82.9417 11.7371 82.6255 11.3614 82.1681C10.8767 81.5812 10.6271 80.9983 10.6124 80.424C10.5977 79.8495 10.7784 79.2997 11.1583 78.7775L11.8966 79.4044C11.6804 79.7511 11.5777 80.1106 11.586 80.4845C11.5944 80.8584 11.7395 81.216 12.0187 81.5607C12.3083 81.9157 12.6319 82.1457 12.9845 82.2501C13.3391 82.3544 13.7086 82.3457 14.0968 82.2267C14.4829 82.1076 14.8689 81.8924 15.255 81.5812C15.6412 81.2699 15.9294 80.9381 16.1183 80.5851C16.3071 80.2321 16.3844 79.8727 16.3487 79.5031C16.3131 79.1354 16.1511 78.7713 15.8614 78.4161C15.6306 78.1281 15.3768 77.9275 15.0978 77.8126C14.8187 77.6978 14.5227 77.6685 14.2101 77.7228C13.8973 77.7771 13.5696 77.9155 13.2296 78.1349L14.0314 79.1056L13.4454 79.5841L12.0079 77.8419C12.0457 77.8022 12.098 77.7539 12.1651 77.6954C12.232 77.6372 12.2741 77.5998 12.2931 77.5851C12.759 77.2049 13.2468 76.9542 13.7589 76.8351Z" stroke="var(--stroke-0, #090909)"/>
</g>
<g id="Vector_22">
<path d="M10.7462 69.0451L7.94055 74.092L12.2267 71.8674L12.6691 72.7111L6.90735 75.7033L6.46497 74.8586L9.26672 69.8137L4.98547 72.0363L4.54212 71.1926L10.3038 68.2014L10.7462 69.0451Z" fill="var(--fill-0, white)"/>
<path d="M10.7462 69.0451L7.94055 74.092L12.2267 71.8674L12.6691 72.7111L6.90735 75.7033L6.46497 74.8586L9.26672 69.8137L4.98547 72.0363L4.54212 71.1926L10.3038 68.2014L10.7462 69.0451Z" stroke="var(--stroke-0, #090909)"/>
</g>
<g id="Vector_23">
<path d="M5.22158 60.6514L4.47939 60.7999L3.95009 58.1573L4.69326 58.0089L5.22158 60.6514Z" fill="var(--fill-0, white)"/>
<path d="M5.22158 60.6514L4.47939 60.7999L3.95009 58.1573L4.69326 58.0089L5.22158 60.6514Z" stroke="var(--stroke-0, #090909)"/>
</g>
<g id="Vector_24">
<path d="M6.47559 49.0903V49.0933L6.47754 49.0913L6.47559 49.0903ZM6.47559 49.0903L6.64062 47.0757C6.64482 47.0151 6.65357 46.9037 6.66406 46.7407C6.67453 46.5779 6.6744 46.4213 6.66602 46.271C6.645 45.7614 6.50023 45.3224 6.22949 44.9526C5.96086 44.5851 5.60207 44.2926 5.15723 44.0796C4.71015 43.8644 4.21218 43.7369 3.66016 43.6909C3.11249 43.645 2.60022 43.6937 2.12598 43.8316C1.65196 43.9694 1.24916 44.1988 0.921875 44.5181C0.594467 44.8377 0.377418 45.2474 0.272461 45.7466C0.238885 45.8928 0.214057 46.0476 0.197266 46.2105C0.180496 46.3711 0.170224 46.4819 0.166016 46.5425L0 48.561L6.47559 49.0903ZM3.5791 44.6812C3.19919 44.6498 2.83945 44.6707 2.50781 44.7417C2.17438 44.8127 1.88938 44.9427 1.65234 45.1284C1.41525 45.3143 1.25307 45.5669 1.16699 45.8843C1.13761 45.9908 1.11445 46.1145 1.09766 46.2544C1.08086 46.3965 1.0709 46.5156 1.0625 46.6138L0.973633 47.6753L5.66113 48.0571V48.0591L5.74902 46.9985C5.75742 46.8962 5.76323 46.7763 5.76953 46.6343C5.77581 46.4945 5.77416 46.3688 5.76367 46.2603C5.72793 45.9262 5.606 45.6486 5.40039 45.4273C5.1947 45.2038 4.93034 45.0319 4.61133 44.9087C4.29245 44.7876 3.9483 44.7104 3.5791 44.6812Z" fill="var(--fill-0, white)"/>
<path d="M6.47559 49.0903V49.0933L6.47754 49.0913L6.47559 49.0903ZM6.47559 49.0903L6.64062 47.0757C6.64482 47.0151 6.65357 46.9037 6.66406 46.7407C6.67453 46.5779 6.6744 46.4213 6.66602 46.271C6.645 45.7614 6.50023 45.3224 6.22949 44.9526C5.96086 44.5851 5.60207 44.2926 5.15723 44.0796C4.71015 43.8644 4.21218 43.7369 3.66016 43.6909C3.11249 43.645 2.60022 43.6937 2.12598 43.8316C1.65196 43.9694 1.24916 44.1988 0.921875 44.5181C0.594467 44.8377 0.377418 45.2474 0.272461 45.7466C0.238885 45.8928 0.214057 46.0476 0.197266 46.2105C0.180496 46.3711 0.170224 46.4819 0.166016 46.5425L0 48.561L6.47559 49.0903ZM3.5791 44.6812C3.19919 44.6498 2.83945 44.6707 2.50781 44.7417C2.17438 44.8127 1.88938 44.9427 1.65234 45.1284C1.41525 45.3143 1.25307 45.5669 1.16699 45.8843C1.13761 45.9908 1.11445 46.1145 1.09766 46.2544C1.08086 46.3965 1.0709 46.5156 1.0625 46.6138L0.973633 47.6753L5.66113 48.0571V48.0591L5.74902 46.9985C5.75742 46.8962 5.76323 46.7763 5.76953 46.6343C5.77581 46.4945 5.77416 46.3688 5.76367 46.2603C5.72793 45.9262 5.606 45.6486 5.40039 45.4273C5.1947 45.2038 4.93034 45.0319 4.61133 44.9087C4.29245 44.7876 3.9483 44.7104 3.5791 44.6812Z" stroke="var(--stroke-0, #090909)"/>
</g>
<g id="Vector_25">
<path d="M3.35009 34.8106L2.48095 37.8857L4.23584 38.376L4.95752 35.8213L5.81396 36.0615L5.09228 38.6162L7.0249 39.1582L7.89404 36.083L8.75048 36.3232L7.62744 40.3008V40.2979L1.3706 38.5479L2.49365 34.5703L3.35009 34.8106Z" fill="var(--fill-0, white)"/>
<path d="M3.35009 34.8106L2.48095 37.8857L4.23584 38.376L4.95752 35.8213L5.81396 36.0615L5.09228 38.6162L7.0249 39.1582L7.89404 36.083L8.75048 36.3232L7.62744 40.3008V40.2979L1.3706 38.5479L2.49365 34.5703L3.35009 34.8106Z" stroke="var(--stroke-0, #090909)"/>
</g>
<g id="Vector_26">
<path d="M11.8574 29.2463L10.167 32.7287L4.31543 29.9142L4.72656 29.0685L9.77734 31.4982L11.0576 28.8615L11.8574 29.2463Z" fill="var(--fill-0, white)"/>
<path d="M11.8574 29.2463L10.167 32.7287L4.31543 29.9142L4.72656 29.0685L9.77734 31.4982L11.0576 28.8615L11.8574 29.2463Z" stroke="var(--stroke-0, #090909)"/>
</g>
<g id="Vector_27">
<path d="M14.3005 25.4141L13.7712 26.1914L8.38741 22.5713L8.91671 21.794L14.3005 25.4141Z" fill="var(--fill-0, white)"/>
<path d="M14.3005 25.4141L13.7712 26.1914L8.38741 22.5713L8.91671 21.794L14.3005 25.4141Z" stroke="var(--stroke-0, #090909)"/>
</g>
<g id="Vector_28">
<path d="M18.7039 20.0342L17.7801 21.0263V21.0234L11.5799 18.1679L12.2449 17.4541L17.5369 19.8916L14.7098 14.8096L15.3748 14.0947L18.7039 20.0342Z" fill="var(--fill-0, white)"/>
<path d="M18.7039 20.0342L17.7801 21.0263V21.0234L11.5799 18.1679L12.2449 17.4541L17.5369 19.8916L14.7098 14.8096L15.3748 14.0947L18.7039 20.0342Z" stroke="var(--stroke-0, #090909)"/>
</g>
<g id="Vector_29">
<path d="M22.6917 9.35669L20.1165 11.262L21.2034 12.718L23.344 11.135L23.8753 11.845L21.7347 13.428L22.9329 15.0325L25.5081 13.1272L26.0394 13.8381L22.7063 16.303H22.7024L18.8274 11.1116L22.1604 8.64673L22.6917 9.35669Z" fill="var(--fill-0, white)"/>
<path d="M22.6917 9.35669L20.1165 11.262L21.2034 12.718L23.344 11.135L23.8753 11.845L21.7347 13.428L22.9329 15.0325L25.5081 13.1272L26.0394 13.8381L22.7063 16.303H22.7024L18.8274 11.1116L22.1604 8.64673L22.6917 9.35669Z" stroke="var(--stroke-0, #090909)"/>
</g>
<g id="Vector_30">
<path d="M29.2506 4.73124C29.6011 4.6247 29.927 4.60593 30.2272 4.67069C30.5272 4.73546 30.796 4.87119 31.0289 5.07792C31.264 5.28467 31.4569 5.54398 31.608 5.85721C31.8347 6.32097 31.9081 6.77918 31.8346 7.22831C31.784 7.53011 31.6516 7.79839 31.4401 8.03788L33.6481 9.76346L32.6783 10.2322L32.6764 10.2303L30.6383 8.62968L29.0875 9.37968L30.1051 11.4685L29.2575 11.8777L26.4215 6.05839L28.7848 4.91776C28.8414 4.89062 28.9127 4.85865 28.9987 4.82108C29.0847 4.78559 29.1688 4.75421 29.2506 4.73124ZM30.0543 5.61698C29.8949 5.55866 29.7209 5.55278 29.528 5.59452C29.4609 5.60703 29.3919 5.62603 29.3248 5.65311C29.2556 5.68027 29.1939 5.70506 29.1393 5.73221L27.6578 6.44706L28.6969 8.57987H28.6989L30.1803 7.86503C30.2348 7.83998 30.2941 7.80689 30.3571 7.76932C30.4199 7.73181 30.4785 7.69186 30.5309 7.65018C30.6841 7.52693 30.787 7.38428 30.8395 7.22343C30.8919 7.06265 30.9065 6.90205 30.8834 6.7371C30.8603 6.57207 30.8142 6.41724 30.7428 6.27518C30.6736 6.1333 30.5817 6.00156 30.4664 5.88261C30.351 5.76353 30.2138 5.67338 30.0543 5.61698Z" fill="var(--fill-0, white)"/>
<path d="M29.2506 4.73124C29.6011 4.6247 29.927 4.60593 30.2272 4.67069C30.5272 4.73546 30.796 4.87119 31.0289 5.07792C31.264 5.28467 31.4569 5.54398 31.608 5.85721C31.8347 6.32097 31.9081 6.77918 31.8346 7.22831C31.784 7.53011 31.6516 7.79839 31.4401 8.03788L33.6481 9.76346L32.6783 10.2322L32.6764 10.2303L30.6383 8.62968L29.0875 9.37968L30.1051 11.4685L29.2575 11.8777L26.4215 6.05839L28.7848 4.91776C28.8414 4.89062 28.9127 4.85865 28.9987 4.82108C29.0847 4.78559 29.1688 4.75421 29.2506 4.73124ZM30.0543 5.61698C29.8949 5.55866 29.7209 5.55278 29.528 5.59452C29.4609 5.60703 29.3919 5.62603 29.3248 5.65311C29.2556 5.68027 29.1939 5.70506 29.1393 5.73221L27.6578 6.44706L28.6969 8.57987H28.6989L30.1803 7.86503C30.2348 7.83998 30.2941 7.80689 30.3571 7.76932C30.4199 7.73181 30.4785 7.69186 30.5309 7.65018C30.6841 7.52693 30.787 7.38428 30.8395 7.22343C30.8919 7.06265 30.9065 6.90205 30.8834 6.7371C30.8603 6.57207 30.8142 6.41724 30.7428 6.27518C30.6736 6.1333 30.5817 6.00156 30.4664 5.88261C30.351 5.76353 30.2138 5.67338 30.0543 5.61698Z" stroke="var(--stroke-0, #090909)"/>
</g>
<g id="Vector_31">
<path d="M43.7775 4.52053L41.1095 4.98342L40.9797 4.24025L43.6476 3.77639L43.7775 4.52053Z" fill="var(--fill-0, white)"/>
<path d="M43.7775 4.52053L41.1095 4.98342L40.9797 4.24025L43.6476 3.77639L43.7775 4.52053Z" stroke="var(--stroke-0, #090909)"/>
</g>
<path id="Vector 2 (Stroke)" opacity="0.8" fill-rule="evenodd" clip-rule="evenodd" d="M56.871 41.1086L65.0444 49.1105C65.546 49.6015 65.546 50.3976 65.0444 50.8887L56.871 58.8906C56.3694 59.3816 55.5562 59.3816 55.0547 58.8906C54.5531 58.3995 54.5531 57.6034 55.0547 57.1124L61.0356 51.257H35.5141V48.7422H61.0356L55.0547 42.8868C54.5531 42.3958 54.5531 41.5996 55.0547 41.1086C55.5562 40.6176 56.3694 40.6176 56.871 41.1086Z" fill="var(--fill-0, white)"/>
</g>
<defs>
<clipPath id="clip0_13915_49696">
<rect width="100" height="100" fill="white"/>
</clipPath>
</defs>
</svg>
