<svg preserveAspectRatio="none" width="100%" height="100%" overflow="visible" style="display: block;" viewBox="0 0 9.60938 9.60938" fill="none" xmlns="http://www.w3.org/2000/svg">
<g id="Frame" clip-path="url(#clip0_13922_57016)">
<g id="Vector">
</g>
<g id="Frame_2" clip-path="url(#clip1_13922_57016)">
<g id="Vector_2">
</g>
<path id="Vector_3" d="M5.60844 3.20093V2.40014C5.60844 2.18776 5.52408 1.98408 5.3739 1.83391C5.22372 1.68373 5.02004 1.59936 4.80766 1.59936H2.00493C1.79255 1.59936 1.58886 1.68373 1.43869 1.83391C1.28851 1.98408 1.20415 2.18776 1.20415 2.40014V7.20483C1.20415 7.41721 1.28851 7.62089 1.43869 7.77107C1.58886 7.92125 1.79255 8.00561 2.00493 8.00561H4.80766C5.02004 8.00561 5.22372 7.92125 5.3739 7.77107C5.52408 7.62089 5.60844 7.41721 5.60844 7.20483V6.40405" stroke="var(--stroke-0, #929292)" stroke-width="0.600586" stroke-linecap="round" stroke-linejoin="round"/>
<path id="Vector_4" d="M2.80253 4.79884H8.408M8.408 4.79884L7.20683 3.59767M8.408 4.79884L7.20683 6.00001" stroke="var(--stroke-0, #929292)" stroke-width="0.600586" stroke-linecap="round" stroke-linejoin="round"/>
</g>
</g>
<defs>
<clipPath id="clip0_13922_57016">
<rect width="9.60938" height="9.60938" fill="white"/>
</clipPath>
<clipPath id="clip1_13922_57016">
<rect width="9.60938" height="9.60938" fill="white" transform="translate(2.30331e-05 -0.00225195)"/>
</clipPath>
</defs>
</svg>
