<svg preserveAspectRatio="none" width="100%" height="100%" overflow="visible" style="display: block;" viewBox="0 0 9.60938 9.60938" fill="none" xmlns="http://www.w3.org/2000/svg">
<g id="Frame" clip-path="url(#clip0_13922_57434)">
<g id="Vector">
</g>
<g id="Frame_2" clip-path="url(#clip1_13922_57434)">
<g id="Vector_2">
</g>
<path id="Vector_3" d="M6.4068 2.40097H7.60797C7.71416 2.40097 7.816 2.44315 7.89109 2.51824C7.96618 2.59333 8.00836 2.69517 8.00836 2.80136V7.20566C8.00836 7.41804 7.92399 7.62172 7.77382 7.77189C7.62364 7.92207 7.41996 8.00644 7.20758 8.00644C6.9952 8.00644 6.79152 7.92207 6.64134 7.77189C6.49117 7.62172 6.4068 7.41804 6.4068 7.20566V2.00058C6.4068 1.89439 6.36461 1.79255 6.28953 1.71746C6.21444 1.64237 6.1126 1.60019 6.00641 1.60019H2.0025C1.89631 1.60019 1.79447 1.64237 1.71938 1.71746C1.64429 1.79255 1.60211 1.89439 1.60211 2.00058V6.80527C1.60211 7.12384 1.72866 7.42936 1.95392 7.65462C2.17919 7.87989 2.48471 8.00644 2.80328 8.00644H7.20758" stroke="var(--stroke-0, white)" stroke-width="0.600586" stroke-linecap="round" stroke-linejoin="round"/>
<path id="Vector_4" d="M3.20415 3.20248H4.80571" stroke="var(--stroke-0, white)" stroke-width="0.600586" stroke-linecap="round" stroke-linejoin="round"/>
<path id="Vector_5" d="M3.20415 4.80378H4.80571" stroke="var(--stroke-0, white)" stroke-width="0.600586" stroke-linecap="round" stroke-linejoin="round"/>
<path id="Vector_6" d="M3.20415 6.40608H4.80571" stroke="var(--stroke-0, white)" stroke-width="0.600586" stroke-linecap="round" stroke-linejoin="round"/>
</g>
</g>
<defs>
<clipPath id="clip0_13922_57434">
<rect width="9.60938" height="9.60938" fill="white"/>
</clipPath>
<clipPath id="clip1_13922_57434">
<rect width="9.60938" height="9.60938" fill="white" transform="translate(2.73427e-05 -0.00190024)"/>
</clipPath>
</defs>
</svg>
