<svg preserveAspectRatio="none" width="100%" height="100%" overflow="visible" style="display: block;" viewBox="0 0 9.60938 9.60938" fill="none" xmlns="http://www.w3.org/2000/svg">
<g id="Frame">
<g id="Group 8632">
<path id="Vector" d="M8.40421 5.60775L7.20304 4.40657H4.4003C4.29411 4.40657 4.19227 4.36439 4.11718 4.2893C4.0421 4.21421 3.99991 4.11237 3.99991 4.00618V1.60384C3.99991 1.49765 4.0421 1.39581 4.11718 1.32072C4.19227 1.24563 4.29411 1.20345 4.4003 1.20345H8.00382C8.11001 1.20345 8.21185 1.24563 8.28694 1.32072C8.36203 1.39581 8.40421 1.49765 8.40421 1.60384V5.60775Z" stroke="var(--stroke-0, #929292)" stroke-width="0.600586" stroke-linecap="round" stroke-linejoin="round"/>
<path id="Vector_2" d="M5.60271 6.00889V6.80967C5.60271 6.91586 5.56053 7.0177 5.48544 7.09279C5.41035 7.16788 5.30851 7.21006 5.20232 7.21006H2.39958L1.19841 8.41123V4.40732C1.19841 4.30113 1.2406 4.19929 1.31568 4.12421C1.39077 4.04912 1.49261 4.00693 1.5988 4.00693H2.39958" stroke="var(--stroke-0, #929292)" stroke-width="0.600586" stroke-linecap="round" stroke-linejoin="round"/>
</g>
</g>
</svg>
